<?xml version="1.0" encoding="utf-8"?>
<!-- Generator: Adobe Illustrator 25.4.1, SVG Export Plug-In . SVG Version: 6.00 Build 0)  -->
<svg version="1.1" id="Calque_1" xmlns="http://www.w3.org/2000/svg" xmlns:xlink="http://www.w3.org/1999/xlink" x="0px" y="0px"
	 viewBox="0 0 374 484.4" style="enable-background:new 0 0 374 484.4;" xml:space="preserve">
<style type="text/css">
	.st0{fill:#F8C618;}
	.st1{enable-background:new    ;}
	.st2{fill:none;stroke:#000000;stroke-width:2;}
	.st3{clip-path:url(#SVGID_00000141457178430272133940000009946058852517584012_);}
	.st4{fill:#1D1D1B;}
	.st5{fill:none;stroke:#1D1D1B;stroke-miterlimit:10;}
</style>
<g id="_1" transform="translate(-161 -1367)">
	<path id="Tracé_68" class="st0" d="M263.2,1411.4h199.1c40.2,0,72.7,32.8,72.7,73.3V1778c0,40.5-32.6,73.3-72.7,73.3H247.8
		c-40.2,0-72.7-32.8-72.7-73.3v-293.3C175,1444.2,223.1,1411.4,263.2,1411.4z"/>
	<g class="st1">
		<path d="M183.1,1434c3.8,0,7.3-0.4,10.3-1.1c3-0.7,4.5-1.8,4.5-3.2c0-0.9-0.3-1.7-0.9-2.2c-4,1.4-8.3,2.1-13,2.1
			c-6.4,0-11.8-2.2-16.1-6.6s-6.5-10.7-6.5-19c0-5.5,1.1-10.8,3.4-15.9c8.2-1,14.6-2.6,19.1-4.9c6.4-3.3,11.8-8.5,16.4-15.7h17.5
			c5.6,0,9.7,1,12.4,3.1c3.1,2.5,4.7,7,4.7,13.4v103.7c-3.3,3.1-7.2,5.4-11.6,7s-8.9,2.4-13.5,2.4c-7.6,0-13.8-1.8-18.6-5.5
			c-5.4-4.1-8.1-10.1-8.1-18V1434z"/>
	</g>
	<g class="st1">
		<path d="M275.3,1612.9h-6.2l-1.2,3.5h-3.7l6.4-17.1h3.3l6.4,17.1h-3.7L275.3,1612.9z M270,1610h4.3l-2.1-6.4L270,1610z"/>
		<path d="M281,1609.9c0-2,0.4-3.6,1.3-4.7s2.1-1.8,3.6-1.8c1.2,0,2.3,0.5,3.1,1.4v-6.5h3.4v18h-3.1l-0.2-1.3
			c-0.8,1.1-1.9,1.6-3.3,1.6c-1.5,0-2.7-0.6-3.6-1.8S281,1612,281,1609.9z M284.4,1610.2c0,1.2,0.2,2.1,0.6,2.7c0.4,0.6,1,1,1.8,1
			c1,0,1.8-0.4,2.2-1.3v-5c-0.4-0.9-1.2-1.3-2.2-1.3C285.2,1606.2,284.4,1607.5,284.4,1610.2z"/>
		<path d="M294.5,1609.9c0-1.3,0.2-2.4,0.7-3.4s1.2-1.7,2.1-2.3s2-0.8,3.2-0.8c1.7,0,3.1,0.5,4.2,1.6s1.7,2.5,1.8,4.3l0,0.9
			c0,1.9-0.5,3.5-1.6,4.7s-2.5,1.8-4.4,1.8s-3.3-0.6-4.4-1.8s-1.6-2.8-1.6-4.8V1609.9z M297.9,1610.2c0,1.2,0.2,2.1,0.7,2.8
			c0.5,0.6,1.1,1,1.9,1c0.8,0,1.5-0.3,1.9-0.9c0.5-0.6,0.7-1.6,0.7-3c0-1.2-0.2-2.1-0.7-2.7s-1.1-1-1.9-1c-0.8,0-1.5,0.3-1.9,1
			S297.9,1608.8,297.9,1610.2z"/>
		<path d="M320.1,1610.1c0,2-0.4,3.5-1.3,4.7s-2.1,1.8-3.6,1.8c-1.3,0-2.3-0.4-3.1-1.3v6h-3.4v-17.6h3.1l0.1,1.2
			c0.8-1,1.9-1.5,3.2-1.5c1.6,0,2.8,0.6,3.6,1.7s1.3,2.8,1.3,4.8V1610.1z M316.7,1609.9c0-1.2-0.2-2.1-0.6-2.7s-1-1-1.8-1
			c-1.1,0-1.8,0.4-2.2,1.2v5.2c0.4,0.8,1.2,1.3,2.2,1.3C315.9,1613.9,316.7,1612.5,316.7,1609.9z"/>
		<path d="M326.2,1600.6v3.1h2.2v2.5h-2.2v6.3c0,0.5,0.1,0.8,0.3,1s0.5,0.3,1,0.3c0.4,0,0.7,0,1-0.1v2.6c-0.7,0.2-1.3,0.3-2.1,0.3
			c-2.4,0-3.6-1.2-3.6-3.6v-6.8H321v-2.5h1.9v-3.1H326.2z"/>
		<path d="M336.1,1616.6c-1.9,0-3.4-0.6-4.5-1.7s-1.8-2.7-1.8-4.6v-0.3c0-1.3,0.2-2.4,0.7-3.4s1.2-1.8,2.1-2.3s1.9-0.8,3.1-0.8
			c1.7,0,3.1,0.5,4.1,1.6s1.5,2.6,1.5,4.7v1.4h-8.1c0.1,0.8,0.4,1.5,1,2s1.2,0.8,2.1,0.8c1.3,0,2.3-0.5,3.1-1.4l1.7,1.9
			c-0.5,0.7-1.2,1.3-2.1,1.7S337.2,1616.6,336.1,1616.6z M335.7,1606.2c-0.7,0-1.2,0.2-1.6,0.7s-0.7,1.1-0.8,2h4.7v-0.3
			c0-0.8-0.2-1.3-0.6-1.7S336.4,1606.2,335.7,1606.2z"/>
		<path d="M356.8,1615.1c-0.8,1-2,1.5-3.5,1.5c-1.4,0-2.4-0.4-3.1-1.2s-1.1-1.9-1.1-3.4v-8.3h3.4v8.2c0,1.3,0.6,2,1.8,2
			c1.1,0,1.9-0.4,2.4-1.2v-9h3.4v12.7h-3.2L356.8,1615.1z"/>
		<path d="M365.8,1603.7l0.1,1.5c0.9-1.1,2.1-1.7,3.6-1.7c1.3,0,2.3,0.4,3,1.2s1,2,1,3.5v8.2h-3.4v-8.1c0-0.7-0.2-1.2-0.5-1.6
			s-0.8-0.5-1.6-0.5c-1,0-1.7,0.4-2.1,1.2v8.9h-3.4v-12.7H365.8z"/>
		<path d="M388.9,1612.9c0-0.4-0.2-0.7-0.6-1s-1.1-0.5-2-0.6c-3-0.6-4.5-1.9-4.5-3.8c0-1.1,0.5-2.1,1.4-2.8s2.2-1.1,3.7-1.1
			c1.6,0,2.9,0.4,3.9,1.1s1.4,1.7,1.4,3h-3.4c0-0.5-0.2-0.9-0.5-1.2s-0.8-0.5-1.5-0.5c-0.6,0-1,0.1-1.3,0.4s-0.5,0.6-0.5,1
			c0,0.4,0.2,0.7,0.5,0.9s1,0.4,1.8,0.6s1.6,0.4,2.1,0.6c1.8,0.7,2.7,1.8,2.7,3.4c0,1.2-0.5,2.1-1.5,2.8s-2.3,1.1-3.8,1.1
			c-1.1,0-2-0.2-2.8-0.6s-1.5-0.9-1.9-1.6s-0.7-1.4-0.7-2.1h3.2c0,0.6,0.3,1.1,0.7,1.4s1,0.5,1.7,0.5c0.6,0,1.1-0.1,1.5-0.4
			S388.9,1613.3,388.9,1612.9z"/>
		<path d="M398.5,1600.6v3.1h2.2v2.5h-2.2v6.3c0,0.5,0.1,0.8,0.3,1s0.5,0.3,1,0.3c0.4,0,0.7,0,1-0.1v2.6c-0.7,0.2-1.3,0.3-2.1,0.3
			c-2.4,0-3.6-1.2-3.6-3.6v-6.8h-1.9v-2.5h1.9v-3.1H398.5z"/>
		<path d="M407.2,1611.6l2.3-7.9h3.6l-5.1,14.6l-0.3,0.7c-0.8,1.7-2,2.5-3.8,2.5c-0.5,0-1-0.1-1.5-0.2v-2.6l0.5,0
			c0.6,0,1.1-0.1,1.4-0.3s0.6-0.5,0.7-1l0.4-1l-4.4-12.7h3.6L407.2,1611.6z"/>
		<path d="M418.1,1616.4h-3.4v-18h3.4V1616.4z"/>
		<path d="M426.8,1616.6c-1.9,0-3.4-0.6-4.5-1.7s-1.8-2.7-1.8-4.6v-0.3c0-1.3,0.2-2.4,0.7-3.4s1.2-1.8,2.1-2.3s1.9-0.8,3.1-0.8
			c1.7,0,3.1,0.5,4.1,1.6s1.5,2.6,1.5,4.7v1.4h-8.1c0.1,0.8,0.4,1.5,1,2s1.2,0.8,2.1,0.8c1.3,0,2.3-0.5,3.1-1.4l1.7,1.9
			c-0.5,0.7-1.2,1.3-2.1,1.7S427.8,1616.6,426.8,1616.6z M426.4,1606.2c-0.7,0-1.2,0.2-1.6,0.7s-0.7,1.1-0.8,2h4.7v-0.3
			c0-0.8-0.2-1.3-0.6-1.7S427.1,1606.2,426.4,1606.2z"/>
	</g>
	<g class="st1">
		<path d="M281.1,1648h6.1v1.4h-7.8v-12.8h1.7V1648z"/>
		<path d="M292.8,1649.5c-1.3,0-2.3-0.4-3.1-1.3s-1.2-2-1.2-3.4v-0.3c0-0.9,0.2-1.8,0.5-2.5s0.9-1.3,1.5-1.7s1.3-0.6,2.1-0.6
			c1.2,0,2.2,0.4,2.9,1.2s1,2,1,3.5v0.7H290c0,0.9,0.3,1.7,0.8,2.3c0.5,0.6,1.2,0.9,2,0.9c0.6,0,1.1-0.1,1.5-0.4s0.7-0.5,1-0.9
			l1,0.8C295.5,1648.9,294.3,1649.5,292.8,1649.5z M292.6,1641c-0.7,0-1.2,0.2-1.7,0.7s-0.7,1.1-0.8,2h4.8v-0.1
			c0-0.8-0.3-1.5-0.7-1.9S293.2,1641,292.6,1641z"/>
		<path d="M310.8,1644.7c0,1.4-0.3,2.6-1,3.5s-1.6,1.3-2.7,1.3c-1.2,0-2.1-0.4-2.7-1.1v4.6h-1.6v-13.2h1.5l0.1,1.1
			c0.7-0.8,1.6-1.2,2.8-1.2c1.1,0,2,0.4,2.7,1.3s1,2.1,1,3.6V1644.7z M309.2,1644.5c0-1.1-0.2-1.9-0.7-2.5s-1.1-0.9-1.9-0.9
			c-1,0-1.7,0.4-2.2,1.3v4.5c0.5,0.9,1.2,1.3,2.2,1.3c0.8,0,1.4-0.3,1.9-0.9S309.2,1645.8,309.2,1644.5z"/>
		<path d="M317.5,1641.3c-0.2,0-0.5-0.1-0.8-0.1c-1.1,0-1.8,0.5-2.2,1.4v6.8h-1.6v-9.5h1.6l0,1.1c0.5-0.8,1.3-1.3,2.3-1.3
			c0.3,0,0.6,0,0.7,0.1V1641.3z"/>
		<path d="M322.8,1649.5c-1.3,0-2.3-0.4-3.1-1.3s-1.2-2-1.2-3.4v-0.3c0-0.9,0.2-1.8,0.5-2.5s0.9-1.3,1.5-1.7s1.3-0.6,2.1-0.6
			c1.2,0,2.2,0.4,2.9,1.2s1,2,1,3.5v0.7H320c0,0.9,0.3,1.7,0.8,2.3c0.5,0.6,1.2,0.9,2,0.9c0.6,0,1.1-0.1,1.5-0.4s0.7-0.5,1-0.9
			l1,0.8C325.6,1648.9,324.4,1649.5,322.8,1649.5z M325.2,1638.3L325.2,1638.3l-1.3,0.1l-1.3-1.5l-1.3,1.5l-1.3,0v-0.1l2.2-2.4h1
			L325.2,1638.3z M322.6,1641c-0.7,0-1.2,0.2-1.7,0.7s-0.7,1.1-0.8,2h4.8v-0.1c0-0.8-0.3-1.5-0.7-1.9S323.2,1641,322.6,1641z"/>
		<path d="M330.6,1637.6v2.3h1.8v1.3h-1.8v5.9c0,0.4,0.1,0.7,0.2,0.9s0.4,0.3,0.8,0.3c0.2,0,0.4,0,0.8-0.1v1.3
			c-0.4,0.1-0.8,0.2-1.2,0.2c-0.7,0-1.3-0.2-1.6-0.7s-0.6-1.1-0.6-1.9v-5.9h-1.7v-1.3h1.7v-2.3H330.6z"/>
		<path d="M337.6,1644.6h-4.3v-1.3h4.3V1644.6z"/>
		<path d="M345.1,1649.4c-0.1-0.2-0.2-0.5-0.2-1c-0.8,0.8-1.7,1.2-2.7,1.2c-0.9,0-1.7-0.3-2.3-0.8s-0.9-1.2-0.9-2
			c0-1,0.4-1.8,1.1-2.3s1.8-0.8,3.2-0.8h1.6v-0.7c0-0.6-0.2-1-0.5-1.4c-0.3-0.3-0.8-0.5-1.5-0.5c-0.6,0-1.1,0.1-1.5,0.4
			s-0.6,0.6-0.6,1.1h-1.6c0-0.5,0.2-0.9,0.5-1.4s0.8-0.8,1.4-1.1s1.2-0.4,1.9-0.4c1.1,0,2,0.3,2.6,0.8s0.9,1.3,1,2.3v4.4
			c0,0.9,0.1,1.6,0.3,2.1v0.1H345.1z M344,1638.5l-1.4,0l-2.3-2.6h2L344,1638.5z M342.4,1648.1c0.5,0,1-0.1,1.5-0.4s0.8-0.6,1-1v-2
			h-1.3c-2,0-3,0.6-3,1.7c0,0.5,0.2,0.9,0.5,1.2S341.8,1648.1,342.4,1648.1z"/>
		<path d="M352.4,1644.6h-4.3v-1.3h4.3V1644.6z"/>
		<path d="M357.8,1648.2c0.6,0,1.1-0.2,1.5-0.5s0.7-0.8,0.7-1.3h1.5c0,0.5-0.2,1.1-0.6,1.6s-0.8,0.9-1.4,1.2s-1.2,0.4-1.8,0.4
			c-1.3,0-2.3-0.4-3.1-1.3c-0.8-0.9-1.1-2-1.1-3.5v-0.3c0-0.9,0.2-1.7,0.5-2.5s0.8-1.3,1.5-1.7s1.4-0.6,2.3-0.6c1.1,0,2,0.3,2.7,1
			s1.1,1.5,1.1,2.5H360c0-0.6-0.3-1.1-0.7-1.5c-0.4-0.4-0.9-0.6-1.6-0.6c-0.8,0-1.5,0.3-1.9,0.9s-0.7,1.5-0.7,2.6v0.3
			c0,1.1,0.2,1.9,0.7,2.5S356.9,1648.2,357.8,1648.2z"/>
		<path d="M369.3,1648.4c-0.6,0.7-1.6,1.1-2.8,1.1c-1,0-1.8-0.3-2.3-0.9c-0.5-0.6-0.8-1.5-0.8-2.6v-6.2h1.6v6.1
			c0,1.4,0.6,2.2,1.8,2.2c1.2,0,2.1-0.5,2.5-1.4v-6.9h1.6v9.5h-1.5L369.3,1648.4z"/>
		<path d="M373.3,1637.3c0-0.3,0.1-0.5,0.2-0.7s0.4-0.3,0.7-0.3s0.6,0.1,0.7,0.3s0.2,0.4,0.2,0.7s-0.1,0.5-0.2,0.7s-0.4,0.3-0.7,0.3
			s-0.6-0.1-0.7-0.3S373.3,1637.6,373.3,1637.3z M375.1,1649.4h-1.6v-9.5h1.6V1649.4z"/>
		<path d="M383.2,1646.8c0-0.4-0.2-0.8-0.5-1c-0.3-0.2-0.9-0.5-1.7-0.6s-1.5-0.4-2-0.6s-0.8-0.5-1.1-0.9s-0.3-0.7-0.3-1.2
			c0-0.8,0.3-1.4,1-2s1.5-0.8,2.5-0.8c1.1,0,2,0.3,2.6,0.8s1,1.3,1,2.1h-1.6c0-0.4-0.2-0.8-0.6-1.2s-0.9-0.5-1.4-0.5
			c-0.6,0-1.1,0.1-1.4,0.4s-0.5,0.6-0.5,1c0,0.4,0.2,0.7,0.5,0.9s0.9,0.4,1.7,0.6s1.5,0.4,2,0.7s0.9,0.6,1.1,0.9
			c0.2,0.4,0.4,0.8,0.4,1.3c0,0.8-0.3,1.5-1,2c-0.7,0.5-1.6,0.8-2.6,0.8c-0.8,0-1.4-0.1-2-0.4s-1-0.6-1.4-1.1
			c-0.3-0.5-0.5-1-0.5-1.6h1.6c0,0.5,0.2,1,0.7,1.3c0.4,0.3,0.9,0.5,1.6,0.5c0.6,0,1.1-0.1,1.5-0.4
			C383,1647.6,383.2,1647.3,383.2,1646.8z"/>
		<path d="M387,1637.3c0-0.3,0.1-0.5,0.2-0.7s0.4-0.3,0.7-0.3s0.6,0.1,0.7,0.3s0.2,0.4,0.2,0.7s-0.1,0.5-0.2,0.7s-0.4,0.3-0.7,0.3
			s-0.6-0.1-0.7-0.3S387,1637.6,387,1637.3z M388.7,1649.4h-1.6v-9.5h1.6V1649.4z"/>
		<path d="M392.9,1639.9l0.1,1.2c0.7-0.9,1.7-1.4,2.8-1.4c2,0,3,1.1,3,3.4v6.3h-1.6v-6.3c0-0.7-0.2-1.2-0.5-1.5s-0.8-0.5-1.4-0.5
			c-0.5,0-1,0.1-1.4,0.4s-0.7,0.7-0.9,1.1v6.8h-1.6v-9.5H392.9z"/>
		<path d="M405.2,1649.5c-1.3,0-2.3-0.4-3.1-1.3s-1.2-2-1.2-3.4v-0.3c0-0.9,0.2-1.8,0.5-2.5s0.9-1.3,1.5-1.7s1.3-0.6,2.1-0.6
			c1.2,0,2.2,0.4,2.9,1.2s1,2,1,3.5v0.7h-6.4c0,0.9,0.3,1.7,0.8,2.3c0.5,0.6,1.2,0.9,2,0.9c0.6,0,1.1-0.1,1.5-0.4s0.7-0.5,1-0.9
			l1,0.8C408,1648.9,406.8,1649.5,405.2,1649.5z M405,1641c-0.7,0-1.2,0.2-1.7,0.7s-0.7,1.1-0.8,2h4.8v-0.1c0-0.8-0.3-1.5-0.7-1.9
			S405.7,1641,405,1641z"/>
		<path d="M415.4,1641.3c-0.2,0-0.5-0.1-0.8-0.1c-1.1,0-1.8,0.5-2.2,1.4v6.8h-1.6v-9.5h1.6l0,1.1c0.5-0.8,1.3-1.3,2.3-1.3
			c0.3,0,0.6,0,0.7,0.1V1641.3z"/>
	</g>
	<g class="st1">
		<path d="M245.4,1666.5c0-1.5,0.3-2.7,1-3.5c0.7-0.9,1.6-1.3,2.8-1.3c1.1,0,2,0.4,2.7,1.1l0.1-1h1.5v13.2h-1.6v-4.5
			c-0.7,0.7-1.5,1.1-2.6,1.1c-1.1,0-2.1-0.4-2.7-1.3s-1-2.1-1-3.6V1666.5z M247.1,1666.7c0,1.1,0.2,1.9,0.7,2.6s1.1,0.9,1.9,0.9
			c1,0,1.7-0.4,2.2-1.3v-4.7c-0.5-0.8-1.2-1.3-2.2-1.3c-0.8,0-1.4,0.3-1.9,0.9C247.3,1664.6,247.1,1665.5,247.1,1666.7z"/>
		<path d="M261.9,1670.4c-0.6,0.7-1.6,1.1-2.8,1.1c-1,0-1.8-0.3-2.3-0.9c-0.5-0.6-0.8-1.5-0.8-2.6v-6.2h1.6v6.1
			c0,1.4,0.6,2.2,1.8,2.2c1.2,0,2.1-0.5,2.5-1.4v-6.9h1.6v9.5H262L261.9,1670.4z"/>
		<path d="M266,1659.3c0-0.3,0.1-0.5,0.2-0.7s0.4-0.3,0.7-0.3s0.6,0.1,0.7,0.3s0.2,0.4,0.2,0.7s-0.1,0.5-0.2,0.7s-0.4,0.3-0.7,0.3
			s-0.6-0.1-0.7-0.3S266,1659.6,266,1659.3z M267.8,1671.4h-1.6v-9.5h1.6V1671.4z"/>
		<path d="M279.4,1663.3c-0.2,0-0.5-0.1-0.8-0.1c-1.1,0-1.8,0.5-2.2,1.4v6.8h-1.6v-9.5h1.6l0,1.1c0.5-0.8,1.3-1.3,2.3-1.3
			c0.3,0,0.6,0,0.7,0.1V1663.3z"/>
		<path d="M284.7,1671.5c-1.3,0-2.3-0.4-3.1-1.3s-1.2-2-1.2-3.4v-0.3c0-0.9,0.2-1.8,0.5-2.5s0.9-1.3,1.5-1.7s1.3-0.6,2.1-0.6
			c1.2,0,2.2,0.4,2.9,1.2s1,2,1,3.5v0.7h-6.4c0,0.9,0.3,1.7,0.8,2.3c0.5,0.6,1.2,0.9,2,0.9c0.6,0,1.1-0.1,1.5-0.4s0.7-0.5,1-0.9
			l1,0.8C287.5,1670.9,286.3,1671.5,284.7,1671.5z M284.5,1663c-0.7,0-1.2,0.2-1.7,0.7s-0.7,1.1-0.8,2h4.8v-0.1
			c0-0.8-0.3-1.5-0.7-1.9S285.2,1663,284.5,1663z"/>
		<path d="M295.8,1668.8c0-0.4-0.2-0.8-0.5-1c-0.3-0.2-0.9-0.5-1.7-0.6s-1.5-0.4-2-0.6s-0.8-0.5-1.1-0.9s-0.3-0.7-0.3-1.2
			c0-0.8,0.3-1.4,1-2s1.5-0.8,2.5-0.8c1.1,0,2,0.3,2.6,0.8s1,1.3,1,2.1h-1.6c0-0.4-0.2-0.8-0.6-1.2s-0.9-0.5-1.4-0.5
			c-0.6,0-1.1,0.1-1.4,0.4s-0.5,0.6-0.5,1c0,0.4,0.2,0.7,0.5,0.9s0.9,0.4,1.7,0.6s1.5,0.4,2,0.7s0.9,0.6,1.1,0.9
			c0.2,0.4,0.4,0.8,0.4,1.3c0,0.8-0.3,1.5-1,2c-0.7,0.5-1.6,0.8-2.6,0.8c-0.8,0-1.4-0.1-2-0.4s-1-0.6-1.4-1.1
			c-0.3-0.5-0.5-1-0.5-1.6h1.6c0,0.5,0.2,1,0.7,1.3c0.4,0.3,0.9,0.5,1.6,0.5c0.6,0,1.1-0.1,1.5-0.4
			C295.6,1669.6,295.8,1669.3,295.8,1668.8z"/>
		<path d="M307.6,1666.7c0,1.4-0.3,2.6-1,3.5s-1.6,1.3-2.7,1.3c-1.2,0-2.1-0.4-2.7-1.1v4.6h-1.6v-13.2h1.5l0.1,1.1
			c0.7-0.8,1.6-1.2,2.8-1.2c1.1,0,2,0.4,2.7,1.3s1,2.1,1,3.6V1666.7z M306,1666.5c0-1.1-0.2-1.9-0.7-2.5s-1.1-0.9-1.9-0.9
			c-1,0-1.7,0.4-2.2,1.3v4.5c0.5,0.9,1.2,1.3,2.2,1.3c0.8,0,1.4-0.3,1.9-0.9S306,1667.8,306,1666.5z"/>
		<path d="M313.6,1671.5c-1.3,0-2.3-0.4-3.1-1.3s-1.2-2-1.2-3.4v-0.3c0-0.9,0.2-1.8,0.5-2.5s0.9-1.3,1.5-1.7s1.3-0.6,2.1-0.6
			c1.2,0,2.2,0.4,2.9,1.2s1,2,1,3.5v0.7h-6.4c0,0.9,0.3,1.7,0.8,2.3c0.5,0.6,1.2,0.9,2,0.9c0.6,0,1.1-0.1,1.5-0.4s0.7-0.5,1-0.9
			l1,0.8C316.4,1670.9,315.2,1671.5,313.6,1671.5z M313.4,1663c-0.7,0-1.2,0.2-1.7,0.7s-0.7,1.1-0.8,2h4.8v-0.1
			c0-0.8-0.3-1.5-0.7-1.9S314.1,1663,313.4,1663z"/>
		<path d="M323,1670.2c0.6,0,1.1-0.2,1.5-0.5s0.7-0.8,0.7-1.3h1.5c0,0.5-0.2,1.1-0.6,1.6s-0.8,0.9-1.4,1.2s-1.2,0.4-1.8,0.4
			c-1.3,0-2.3-0.4-3.1-1.3c-0.8-0.9-1.1-2-1.1-3.5v-0.3c0-0.9,0.2-1.7,0.5-2.5s0.8-1.3,1.5-1.7s1.4-0.6,2.3-0.6c1.1,0,2,0.3,2.7,1
			s1.1,1.5,1.1,2.5h-1.5c0-0.6-0.3-1.1-0.7-1.5c-0.4-0.4-0.9-0.6-1.6-0.6c-0.8,0-1.5,0.3-1.9,0.9s-0.7,1.5-0.7,2.6v0.3
			c0,1.1,0.2,1.9,0.7,2.5S322.2,1670.2,323,1670.2z"/>
		<path d="M330.8,1659.6v2.3h1.8v1.3h-1.8v5.9c0,0.4,0.1,0.7,0.2,0.9s0.4,0.3,0.8,0.3c0.2,0,0.4,0,0.8-0.1v1.3
			c-0.4,0.1-0.8,0.2-1.2,0.2c-0.7,0-1.3-0.2-1.6-0.7s-0.6-1.1-0.6-1.9v-5.9h-1.7v-1.3h1.7v-2.3H330.8z"/>
		<path d="M338.4,1671.5c-1.3,0-2.3-0.4-3.1-1.3s-1.2-2-1.2-3.4v-0.3c0-0.9,0.2-1.8,0.5-2.5s0.9-1.3,1.5-1.7s1.3-0.6,2.1-0.6
			c1.2,0,2.2,0.4,2.9,1.2s1,2,1,3.5v0.7h-6.4c0,0.9,0.3,1.7,0.8,2.3c0.5,0.6,1.2,0.9,2,0.9c0.6,0,1.1-0.1,1.5-0.4s0.7-0.5,1-0.9
			l1,0.8C341.2,1670.9,340,1671.5,338.4,1671.5z M338.2,1663c-0.7,0-1.2,0.2-1.7,0.7s-0.7,1.1-0.8,2h4.8v-0.1c0-0.8-0.3-1.5-0.7-1.9
			S338.9,1663,338.2,1663z"/>
		<path d="M350.7,1659.6v2.3h1.8v1.3h-1.8v5.9c0,0.4,0.1,0.7,0.2,0.9s0.4,0.3,0.8,0.3c0.2,0,0.4,0,0.8-0.1v1.3
			c-0.4,0.1-0.8,0.2-1.2,0.2c-0.7,0-1.3-0.2-1.6-0.7s-0.6-1.1-0.6-1.9v-5.9h-1.7v-1.3h1.7v-2.3H350.7z"/>
		<path d="M353.8,1666.5c0-0.9,0.2-1.8,0.5-2.5s0.9-1.3,1.5-1.7s1.4-0.6,2.2-0.6c1.3,0,2.3,0.4,3.1,1.3s1.2,2.1,1.2,3.6v0.1
			c0,0.9-0.2,1.8-0.5,2.5c-0.4,0.7-0.9,1.3-1.5,1.7s-1.4,0.6-2.3,0.6c-1.3,0-2.3-0.4-3.1-1.3s-1.2-2.1-1.2-3.6V1666.5z
			 M355.4,1666.7c0,1.1,0.2,1.9,0.7,2.5s1.1,1,2,1c0.8,0,1.5-0.3,2-1c0.5-0.6,0.7-1.6,0.7-2.7c0-1-0.2-1.9-0.7-2.5
			c-0.5-0.6-1.2-1-2-1c-0.8,0-1.4,0.3-1.9,1S355.4,1665.5,355.4,1666.7z"/>
		<path d="M366,1661.9l0.1,1.2c0.7-0.9,1.7-1.4,2.8-1.4c2,0,3,1.1,3,3.4v6.3h-1.6v-6.3c0-0.7-0.2-1.2-0.5-1.5s-0.8-0.5-1.4-0.5
			c-0.5,0-1,0.1-1.4,0.4s-0.7,0.7-0.9,1.1v6.8h-1.6v-9.5H366z"/>
		<path d="M386.9,1666.7c0,1.5-0.3,2.6-1,3.5s-1.6,1.3-2.7,1.3c-1.2,0-2.1-0.4-2.8-1.3l-0.1,1.1h-1.5v-13.5h1.6v5
			c0.7-0.8,1.6-1.2,2.7-1.2s2.1,0.4,2.7,1.3s1,2.1,1,3.6V1666.7z M385.3,1666.5c0-1.1-0.2-2-0.6-2.6s-1-0.9-1.8-0.9
			c-1.1,0-1.8,0.5-2.3,1.5v4.1c0.5,1,1.3,1.5,2.3,1.5c0.8,0,1.4-0.3,1.8-0.9S385.3,1667.7,385.3,1666.5z"/>
		<path d="M394.8,1670.4c-0.6,0.7-1.6,1.1-2.8,1.1c-1,0-1.8-0.3-2.3-0.9c-0.5-0.6-0.8-1.5-0.8-2.6v-6.2h1.6v6.1
			c0,1.4,0.6,2.2,1.8,2.2c1.2,0,2.1-0.5,2.5-1.4v-6.9h1.6v9.5h-1.5L394.8,1670.4z"/>
		<path d="M398.5,1666.5c0-1.5,0.3-2.6,1-3.5c0.7-0.9,1.6-1.3,2.7-1.3c1.1,0,2,0.4,2.6,1.1v-5h1.6v13.5H405l-0.1-1
			c-0.7,0.8-1.6,1.2-2.7,1.2c-1.1,0-2-0.5-2.7-1.4s-1-2.1-1-3.5V1666.5z M400.1,1666.7c0,1.1,0.2,1.9,0.7,2.5s1.1,0.9,1.8,0.9
			c1,0,1.8-0.5,2.3-1.4v-4.4c-0.5-0.9-1.2-1.3-2.2-1.3c-0.8,0-1.4,0.3-1.9,0.9S400.1,1665.5,400.1,1666.7z"/>
		<path d="M408.6,1666.5c0-1.5,0.3-2.7,1-3.5s1.6-1.3,2.7-1.3c1.2,0,2.1,0.4,2.7,1.2l0.1-1.1h1.5v9.3c0,1.2-0.4,2.2-1.1,2.9
			s-1.7,1.1-2.9,1.1c-0.7,0-1.4-0.1-2-0.4s-1.2-0.7-1.5-1.2l0.8-1c0.7,0.9,1.5,1.3,2.6,1.3c0.8,0,1.4-0.2,1.9-0.7s0.7-1.1,0.7-1.9
			v-0.8c-0.7,0.8-1.5,1.1-2.7,1.1c-1.1,0-2-0.4-2.7-1.3S408.6,1668.1,408.6,1666.5z M410.3,1666.7c0,1.1,0.2,1.9,0.7,2.5
			c0.4,0.6,1.1,0.9,1.8,0.9c1,0,1.8-0.5,2.3-1.4v-4.3c-0.5-0.9-1.2-1.4-2.2-1.4c-0.8,0-1.4,0.3-1.9,0.9S410.3,1665.5,410.3,1666.7z"
			/>
		<path d="M423.1,1671.5c-1.3,0-2.3-0.4-3.1-1.3s-1.2-2-1.2-3.4v-0.3c0-0.9,0.2-1.8,0.5-2.5s0.9-1.3,1.5-1.7s1.3-0.6,2.1-0.6
			c1.2,0,2.2,0.4,2.9,1.2s1,2,1,3.5v0.7h-6.4c0,0.9,0.3,1.7,0.8,2.3c0.5,0.6,1.2,0.9,2,0.9c0.6,0,1.1-0.1,1.5-0.4s0.7-0.5,1-0.9
			l1,0.8C425.8,1670.9,424.7,1671.5,423.1,1671.5z M422.9,1663c-0.7,0-1.2,0.2-1.7,0.7s-0.7,1.1-0.8,2h4.8v-0.1
			c0-0.8-0.3-1.5-0.7-1.9S423.5,1663,422.9,1663z"/>
		<path d="M430.9,1659.6v2.3h1.8v1.3h-1.8v5.9c0,0.4,0.1,0.7,0.2,0.9s0.4,0.3,0.8,0.3c0.2,0,0.4,0,0.8-0.1v1.3
			c-0.4,0.1-0.8,0.2-1.2,0.2c-0.7,0-1.3-0.2-1.6-0.7s-0.6-1.1-0.6-1.9v-5.9h-1.7v-1.3h1.7v-2.3H430.9z"/>
		<path d="M438.6,1667.9c0-0.6,0.2-1.2,0.5-1.7s1-1.1,2-1.8c-0.6-0.7-0.9-1.2-1.1-1.7s-0.3-0.8-0.3-1.3c0-1,0.3-1.7,0.9-2.3
			s1.4-0.8,2.3-0.8c0.9,0,1.6,0.3,2.2,0.8s0.9,1.2,0.9,1.9c0,0.5-0.1,1-0.4,1.4c-0.3,0.4-0.7,0.9-1.4,1.4l-0.9,0.7l2.8,3.4
			c0.4-0.8,0.6-1.6,0.6-2.5h1.5c0,1.5-0.4,2.7-1.1,3.7l1.8,2.2h-2l-0.9-1c-0.4,0.4-0.9,0.7-1.5,0.9c-0.6,0.2-1.2,0.3-1.8,0.3
			c-1.2,0-2.2-0.3-3-1S438.6,1669,438.6,1667.9z M442.8,1670.2c0.9,0,1.7-0.3,2.4-1l-3.1-3.7l-0.3,0.2c-1,0.7-1.5,1.5-1.5,2.2
			c0,0.7,0.2,1.2,0.7,1.7S442,1670.2,442.8,1670.2z M441.3,1661.5c0,0.6,0.3,1.3,1,2.1l1-0.7c0.4-0.3,0.7-0.5,0.8-0.8
			c0.1-0.3,0.2-0.6,0.2-0.9c0-0.4-0.1-0.7-0.4-1c-0.3-0.3-0.7-0.4-1.1-0.4c-0.5,0-0.9,0.2-1.1,0.5
			C441.5,1660.5,441.3,1661,441.3,1661.5z"/>
	</g>
	<g class="st1">
		<path d="M247.9,1693.4h-1.6v-13.5h1.6V1693.4z"/>
		<path d="M256.4,1693.4c-0.1-0.2-0.2-0.5-0.2-1c-0.8,0.8-1.7,1.2-2.7,1.2c-0.9,0-1.7-0.3-2.3-0.8s-0.9-1.2-0.9-2
			c0-1,0.4-1.8,1.1-2.3s1.8-0.8,3.2-0.8h1.6v-0.7c0-0.6-0.2-1-0.5-1.4c-0.3-0.3-0.8-0.5-1.5-0.5c-0.6,0-1.1,0.1-1.5,0.4
			s-0.6,0.6-0.6,1.1h-1.6c0-0.5,0.2-0.9,0.5-1.4s0.8-0.8,1.4-1.1s1.2-0.4,1.9-0.4c1.1,0,2,0.3,2.6,0.8s0.9,1.3,1,2.3v4.4
			c0,0.9,0.1,1.6,0.3,2.1v0.1H256.4z M253.7,1692.1c0.5,0,1-0.1,1.5-0.4s0.8-0.6,1-1v-2h-1.3c-2,0-3,0.6-3,1.7
			c0,0.5,0.2,0.9,0.5,1.2S253.2,1692.1,253.7,1692.1z"/>
		<path d="M260.3,1681.3c0-0.3,0.1-0.5,0.2-0.7s0.4-0.3,0.7-0.3s0.6,0.1,0.7,0.3s0.2,0.4,0.2,0.7s-0.1,0.5-0.2,0.7s-0.4,0.3-0.7,0.3
			s-0.6-0.1-0.7-0.3S260.3,1681.6,260.3,1681.3z M262.1,1693.4h-1.6v-9.5h1.6V1693.4z"/>
		<path d="M270.2,1690.8c0-0.4-0.2-0.8-0.5-1c-0.3-0.2-0.9-0.5-1.7-0.6s-1.5-0.4-2-0.6s-0.8-0.5-1.1-0.9s-0.3-0.7-0.3-1.2
			c0-0.8,0.3-1.4,1-2s1.5-0.8,2.5-0.8c1.1,0,2,0.3,2.6,0.8s1,1.3,1,2.1h-1.6c0-0.4-0.2-0.8-0.6-1.2s-0.9-0.5-1.4-0.5
			c-0.6,0-1.1,0.1-1.4,0.4s-0.5,0.6-0.5,1c0,0.4,0.2,0.7,0.5,0.9s0.9,0.4,1.7,0.6s1.5,0.4,2,0.7s0.9,0.6,1.1,0.9
			c0.2,0.4,0.4,0.8,0.4,1.3c0,0.8-0.3,1.5-1,2c-0.7,0.5-1.6,0.8-2.6,0.8c-0.8,0-1.4-0.1-2-0.4s-1-0.6-1.4-1.1
			c-0.3-0.5-0.5-1-0.5-1.6h1.6c0,0.5,0.2,1,0.7,1.3c0.4,0.3,0.9,0.5,1.6,0.5c0.6,0,1.1-0.1,1.5-0.4
			C270,1691.6,270.2,1691.3,270.2,1690.8z"/>
		<path d="M279.5,1690.8c0-0.4-0.2-0.8-0.5-1c-0.3-0.2-0.9-0.5-1.7-0.6s-1.5-0.4-2-0.6s-0.8-0.5-1.1-0.9s-0.3-0.7-0.3-1.2
			c0-0.8,0.3-1.4,1-2s1.5-0.8,2.5-0.8c1.1,0,2,0.3,2.6,0.8s1,1.3,1,2.1h-1.6c0-0.4-0.2-0.8-0.6-1.2s-0.9-0.5-1.4-0.5
			c-0.6,0-1.1,0.1-1.4,0.4s-0.5,0.6-0.5,1c0,0.4,0.2,0.7,0.5,0.9s0.9,0.4,1.7,0.6s1.5,0.4,2,0.7s0.9,0.6,1.1,0.9
			c0.2,0.4,0.4,0.8,0.4,1.3c0,0.8-0.3,1.5-1,2c-0.7,0.5-1.6,0.8-2.6,0.8c-0.8,0-1.4-0.1-2-0.4s-1-0.6-1.4-1.1
			c-0.3-0.5-0.5-1-0.5-1.6h1.6c0,0.5,0.2,1,0.7,1.3c0.4,0.3,0.9,0.5,1.6,0.5c0.6,0,1.1-0.1,1.5-0.4
			C279.3,1691.6,279.5,1691.3,279.5,1690.8z"/>
		<path d="M287.2,1693.5c-1.3,0-2.3-0.4-3.1-1.3s-1.2-2-1.2-3.4v-0.3c0-0.9,0.2-1.8,0.5-2.5s0.9-1.3,1.5-1.7s1.3-0.6,2.1-0.6
			c1.2,0,2.2,0.4,2.9,1.2s1,2,1,3.5v0.7h-6.4c0,0.9,0.3,1.7,0.8,2.3c0.5,0.6,1.2,0.9,2,0.9c0.6,0,1.1-0.1,1.5-0.4s0.7-0.5,1-0.9
			l1,0.8C290,1692.9,288.8,1693.5,287.2,1693.5z M287,1685c-0.7,0-1.2,0.2-1.7,0.7s-0.7,1.1-0.8,2h4.8v-0.1c0-0.8-0.3-1.5-0.7-1.9
			S287.7,1685,287,1685z"/>
		<path d="M305.3,1688.7c0,1.4-0.3,2.6-1,3.5s-1.6,1.3-2.7,1.3c-1.2,0-2.1-0.4-2.7-1.1v4.6h-1.6v-13.2h1.5l0.1,1.1
			c0.7-0.8,1.6-1.2,2.8-1.2c1.1,0,2,0.4,2.7,1.3s1,2.1,1,3.6V1688.7z M303.6,1688.5c0-1.1-0.2-1.9-0.7-2.5s-1.1-0.9-1.9-0.9
			c-1,0-1.7,0.4-2.2,1.3v4.5c0.5,0.9,1.2,1.3,2.2,1.3c0.8,0,1.4-0.3,1.9-0.9S303.6,1689.8,303.6,1688.5z"/>
		<path d="M313.2,1693.4c-0.1-0.2-0.2-0.5-0.2-1c-0.8,0.8-1.7,1.2-2.7,1.2c-0.9,0-1.7-0.3-2.3-0.8s-0.9-1.2-0.9-2
			c0-1,0.4-1.8,1.1-2.3s1.8-0.8,3.2-0.8h1.6v-0.7c0-0.6-0.2-1-0.5-1.4c-0.3-0.3-0.8-0.5-1.5-0.5c-0.6,0-1.1,0.1-1.5,0.4
			s-0.6,0.6-0.6,1.1h-1.6c0-0.5,0.2-0.9,0.5-1.4s0.8-0.8,1.4-1.1s1.2-0.4,1.9-0.4c1.1,0,2,0.3,2.6,0.8s0.9,1.3,1,2.3v4.4
			c0,0.9,0.1,1.6,0.3,2.1v0.1H313.2z M310.5,1692.1c0.5,0,1-0.1,1.5-0.4s0.8-0.6,1-1v-2h-1.3c-2,0-3,0.6-3,1.7
			c0,0.5,0.2,0.9,0.5,1.2S310,1692.1,310.5,1692.1z"/>
		<path d="M321.7,1685.3c-0.2,0-0.5-0.1-0.8-0.1c-1.1,0-1.8,0.5-2.2,1.4v6.8h-1.6v-9.5h1.6l0,1.1c0.5-0.8,1.3-1.3,2.3-1.3
			c0.3,0,0.6,0,0.7,0.1V1685.3z"/>
		<path d="M325,1693.4h-1.6v-13.5h1.6V1693.4z"/>
		<path d="M331.5,1693.5c-1.3,0-2.3-0.4-3.1-1.3s-1.2-2-1.2-3.4v-0.3c0-0.9,0.2-1.8,0.5-2.5s0.9-1.3,1.5-1.7s1.3-0.6,2.1-0.6
			c1.2,0,2.2,0.4,2.9,1.2s1,2,1,3.5v0.7h-6.4c0,0.9,0.3,1.7,0.8,2.3c0.5,0.6,1.2,0.9,2,0.9c0.6,0,1.1-0.1,1.5-0.4s0.7-0.5,1-0.9
			l1,0.8C334.3,1692.9,333.1,1693.5,331.5,1693.5z M331.3,1685c-0.7,0-1.2,0.2-1.7,0.7s-0.7,1.1-0.8,2h4.8v-0.1
			c0-0.8-0.3-1.5-0.7-1.9S332,1685,331.3,1685z"/>
		<path d="M341.7,1685.3c-0.2,0-0.5-0.1-0.8-0.1c-1.1,0-1.8,0.5-2.2,1.4v6.8h-1.6v-9.5h1.6l0,1.1c0.5-0.8,1.3-1.3,2.3-1.3
			c0.3,0,0.6,0,0.7,0.1V1685.3z"/>
		<path d="M349.4,1693.4h-1.6v-13.5h1.6V1693.4z"/>
		<path d="M356,1693.5c-1.3,0-2.3-0.4-3.1-1.3s-1.2-2-1.2-3.4v-0.3c0-0.9,0.2-1.8,0.5-2.5c0.4-0.7,0.9-1.3,1.5-1.7
			c0.6-0.4,1.3-0.6,2.1-0.6c1.2,0,2.2,0.4,2.9,1.2s1,2,1,3.5v0.7h-6.4c0,0.9,0.3,1.7,0.8,2.3c0.5,0.6,1.2,0.9,2,0.9
			c0.6,0,1.1-0.1,1.5-0.4s0.7-0.5,1-0.9l1,0.8C358.8,1692.9,357.6,1693.5,356,1693.5z M355.8,1685c-0.7,0-1.2,0.2-1.7,0.7
			s-0.7,1.1-0.8,2h4.8v-0.1c0-0.8-0.3-1.5-0.7-1.9S356.5,1685,355.8,1685z"/>
		<path d="M369.8,1692.2c0.6,0,1.1-0.2,1.5-0.5s0.7-0.8,0.7-1.3h1.5c0,0.5-0.2,1.1-0.6,1.6s-0.8,0.9-1.4,1.2
			c-0.6,0.3-1.2,0.4-1.8,0.4c-1.3,0-2.3-0.4-3.1-1.3c-0.8-0.9-1.1-2-1.1-3.5v-0.3c0-0.9,0.2-1.7,0.5-2.5s0.8-1.3,1.5-1.7
			c0.6-0.4,1.4-0.6,2.3-0.6c1.1,0,2,0.3,2.7,1c0.7,0.6,1.1,1.5,1.1,2.5h-1.5c0-0.6-0.3-1.1-0.7-1.5c-0.4-0.4-0.9-0.6-1.6-0.6
			c-0.8,0-1.5,0.3-1.9,0.9c-0.5,0.6-0.7,1.5-0.7,2.6v0.3c0,1.1,0.2,1.9,0.7,2.5S369,1692.2,369.8,1692.2z"/>
		<path d="M377.1,1685c0.7-0.9,1.7-1.3,2.8-1.3c2,0,3,1.1,3,3.4v6.3h-1.6v-6.3c0-0.7-0.2-1.2-0.5-1.5c-0.3-0.3-0.8-0.5-1.4-0.5
			c-0.5,0-1,0.1-1.4,0.4s-0.7,0.7-0.9,1.1v6.8h-1.6v-13.5h1.6V1685z"/>
		<path d="M389.3,1693.5c-1.3,0-2.3-0.4-3.1-1.3s-1.2-2-1.2-3.4v-0.3c0-0.9,0.2-1.8,0.5-2.5c0.4-0.7,0.9-1.3,1.5-1.7
			c0.6-0.4,1.3-0.6,2.1-0.6c1.2,0,2.2,0.4,2.9,1.2s1,2,1,3.5v0.7h-6.4c0,0.9,0.3,1.7,0.8,2.3c0.5,0.6,1.2,0.9,2,0.9
			c0.6,0,1.1-0.1,1.5-0.4s0.7-0.5,1-0.9l1,0.8C392.1,1692.9,390.9,1693.5,389.3,1693.5z M389.1,1685c-0.7,0-1.2,0.2-1.7,0.7
			s-0.7,1.1-0.8,2h4.8v-0.1c0-0.8-0.3-1.5-0.7-1.9S389.8,1685,389.1,1685z"/>
		<path d="M395.7,1693.4v-8.3h-1.5v-1.3h1.5v-1c0-1,0.3-1.8,0.8-2.4s1.3-0.8,2.3-0.8c0.4,0,0.7,0,1.1,0.1l-0.1,1.3
			c-0.3-0.1-0.6-0.1-0.9-0.1c-0.5,0-0.9,0.2-1.2,0.5s-0.4,0.8-0.4,1.3v1h2v1.3h-2v8.3H395.7z"/>
		<path d="M409.5,1693.5c-1.3,0-2.3-0.4-3.1-1.3s-1.2-2-1.2-3.4v-0.3c0-0.9,0.2-1.8,0.5-2.5c0.4-0.7,0.9-1.3,1.5-1.7
			c0.6-0.4,1.3-0.6,2.1-0.6c1.2,0,2.2,0.4,2.9,1.2s1,2,1,3.5v0.7h-6.4c0,0.9,0.3,1.7,0.8,2.3c0.5,0.6,1.2,0.9,2,0.9
			c0.6,0,1.1-0.1,1.5-0.4s0.7-0.5,1-0.9l1,0.8C412.3,1692.9,411.1,1693.5,409.5,1693.5z M409.3,1685c-0.7,0-1.2,0.2-1.7,0.7
			s-0.7,1.1-0.8,2h4.8v-0.1c0-0.8-0.3-1.5-0.7-1.9S410,1685,409.3,1685z"/>
		<path d="M416.7,1683.9l0.1,1.2c0.7-0.9,1.7-1.4,2.8-1.4c2,0,3,1.1,3,3.4v6.3H421v-6.3c0-0.7-0.2-1.2-0.5-1.5
			c-0.3-0.3-0.8-0.5-1.4-0.5c-0.5,0-1,0.1-1.4,0.4s-0.7,0.7-0.9,1.1v6.8h-1.6v-9.5H416.7z"/>
		<path d="M431.7,1681.6v2.3h1.8v1.3h-1.8v5.9c0,0.4,0.1,0.7,0.2,0.9s0.4,0.3,0.8,0.3c0.2,0,0.4,0,0.8-0.1v1.3
			c-0.4,0.1-0.8,0.2-1.2,0.2c-0.7,0-1.3-0.2-1.6-0.7s-0.6-1.1-0.6-1.9v-5.9h-1.7v-1.3h1.7v-2.3H431.7z"/>
		<path d="M434.8,1688.5c0-0.9,0.2-1.8,0.5-2.5c0.4-0.7,0.9-1.3,1.5-1.7c0.7-0.4,1.4-0.6,2.2-0.6c1.3,0,2.3,0.4,3.1,1.3
			c0.8,0.9,1.2,2.1,1.2,3.6v0.1c0,0.9-0.2,1.8-0.5,2.5c-0.4,0.7-0.9,1.3-1.5,1.7c-0.7,0.4-1.4,0.6-2.3,0.6c-1.3,0-2.3-0.4-3.1-1.3
			c-0.8-0.9-1.2-2.1-1.2-3.6V1688.5z M436.4,1688.7c0,1.1,0.2,1.9,0.7,2.5c0.5,0.6,1.1,1,2,1c0.8,0,1.5-0.3,2-1
			c0.5-0.6,0.7-1.6,0.7-2.7c0-1-0.2-1.9-0.7-2.5c-0.5-0.6-1.2-1-2-1c-0.8,0-1.5,0.3-1.9,1S436.4,1687.5,436.4,1688.7z"/>
		<path d="M445.5,1681.3c0-0.3,0.1-0.5,0.2-0.7c0.2-0.2,0.4-0.3,0.7-0.3s0.6,0.1,0.7,0.3s0.2,0.4,0.2,0.7s-0.1,0.5-0.2,0.7
			s-0.4,0.3-0.7,0.3s-0.6-0.1-0.7-0.3C445.6,1681.8,445.5,1681.6,445.5,1681.3z M447.3,1693.4h-1.6v-9.5h1.6V1693.4z"/>
	</g>
	<g class="st1">
		<path d="M315.3,1711.3c-0.2,1.4-0.7,2.4-1.5,3.1c-0.8,0.7-2,1.1-3.4,1.1c-1.5,0-2.7-0.5-3.6-1.6s-1.4-2.5-1.4-4.4v-1.2
			c0-1.2,0.2-2.2,0.6-3.1s1-1.6,1.8-2.1c0.8-0.5,1.7-0.7,2.7-0.7c1.4,0,2.4,0.4,3.3,1.1s1.3,1.8,1.4,3.2h-1.7c-0.1-1-0.5-1.8-1-2.2
			c-0.5-0.5-1.2-0.7-2.1-0.7c-1.1,0-1.9,0.4-2.5,1.2s-0.9,1.9-0.9,3.4v1.2c0,1.4,0.3,2.5,0.9,3.3s1.4,1.2,2.4,1.2
			c0.9,0,1.7-0.2,2.2-0.6c0.5-0.4,0.8-1.2,1-2.2H315.3z"/>
		<path d="M318.4,1702.8l-0.2,3.2h-1.1l0-4.2h1.3V1702.8z"/>
		<path d="M323.9,1715.5c-1.3,0-2.3-0.4-3.1-1.3s-1.2-2-1.2-3.4v-0.3c0-0.9,0.2-1.8,0.5-2.5s0.9-1.3,1.5-1.7s1.3-0.6,2.1-0.6
			c1.2,0,2.2,0.4,2.9,1.2s1,2,1,3.5v0.7h-6.4c0,0.9,0.3,1.7,0.8,2.3c0.5,0.6,1.2,0.9,2,0.9c0.6,0,1.1-0.1,1.5-0.4s0.7-0.5,1-0.9
			l1,0.8C326.7,1714.9,325.5,1715.5,323.9,1715.5z M323.7,1707c-0.7,0-1.2,0.2-1.7,0.7s-0.7,1.1-0.8,2h4.8v-0.1
			c0-0.8-0.3-1.5-0.7-1.9S324.4,1707,323.7,1707z"/>
		<path d="M335.1,1712.8c0-0.4-0.2-0.8-0.5-1c-0.3-0.2-0.9-0.5-1.7-0.6s-1.5-0.4-2-0.6s-0.8-0.5-1.1-0.9s-0.3-0.7-0.3-1.2
			c0-0.8,0.3-1.4,1-2s1.5-0.8,2.5-0.8c1.1,0,2,0.3,2.6,0.8s1,1.3,1,2.1H335c0-0.4-0.2-0.8-0.6-1.2s-0.9-0.5-1.4-0.5
			c-0.6,0-1.1,0.1-1.4,0.4s-0.5,0.6-0.5,1c0,0.4,0.2,0.7,0.5,0.9s0.9,0.4,1.7,0.6s1.5,0.4,2,0.7s0.9,0.6,1.1,0.9
			c0.2,0.4,0.4,0.8,0.4,1.3c0,0.8-0.3,1.5-1,2c-0.7,0.5-1.6,0.8-2.6,0.8c-0.8,0-1.4-0.1-2-0.4s-1-0.6-1.4-1.1
			c-0.3-0.5-0.5-1-0.5-1.6h1.6c0,0.5,0.2,1,0.7,1.3c0.4,0.3,0.9,0.5,1.6,0.5c0.6,0,1.1-0.1,1.5-0.4
			C334.9,1713.6,335.1,1713.3,335.1,1712.8z"/>
		<path d="M341,1703.6v2.3h1.8v1.3H341v5.9c0,0.4,0.1,0.7,0.2,0.9s0.4,0.3,0.8,0.3c0.2,0,0.4,0,0.8-0.1v1.3
			c-0.4,0.1-0.8,0.2-1.2,0.2c-0.7,0-1.3-0.2-1.6-0.7s-0.6-1.1-0.6-1.9v-5.9h-1.7v-1.3h1.7v-2.3H341z"/>
		<path d="M351.6,1702.6l4.2,10.4l4.2-10.4h2.2v12.8h-1.7v-5l0.2-5.4l-4.2,10.4h-1.3l-4.2-10.3l0.2,5.4v5h-1.7v-12.8H351.6z"/>
		<path d="M364.9,1703.3c0-0.3,0.1-0.5,0.2-0.7s0.4-0.3,0.7-0.3s0.6,0.1,0.7,0.3s0.2,0.4,0.2,0.7s-0.1,0.5-0.2,0.7s-0.4,0.3-0.7,0.3
			s-0.6-0.1-0.7-0.3S364.9,1703.6,364.9,1703.3z M366.6,1715.4H365v-9.5h1.6V1715.4z"/>
		<path d="M375.1,1715.4c-0.1-0.2-0.2-0.5-0.2-1c-0.8,0.8-1.7,1.2-2.7,1.2c-0.9,0-1.7-0.3-2.3-0.8s-0.9-1.2-0.9-2
			c0-1,0.4-1.8,1.1-2.3s1.8-0.8,3.2-0.8h1.6v-0.7c0-0.6-0.2-1-0.5-1.4c-0.3-0.3-0.8-0.5-1.5-0.5c-0.6,0-1.1,0.1-1.5,0.4
			s-0.6,0.6-0.6,1.1h-1.6c0-0.5,0.2-0.9,0.5-1.4s0.8-0.8,1.4-1.1s1.2-0.4,1.9-0.4c1.1,0,2,0.3,2.6,0.8s0.9,1.3,1,2.3v4.4
			c0,0.9,0.1,1.6,0.3,2.1v0.1H375.1z M372.4,1714.1c0.5,0,1-0.1,1.5-0.4s0.8-0.6,1-1v-2h-1.3c-2,0-3,0.6-3,1.7
			c0,0.5,0.2,0.9,0.5,1.2S371.9,1714.1,372.4,1714.1z"/>
		<path d="M380.6,1705.9l0,1.1c0.7-0.8,1.6-1.2,2.8-1.2c1.3,0,2.2,0.5,2.7,1.5c0.3-0.5,0.7-0.8,1.2-1.1s1.1-0.4,1.8-0.4
			c2.1,0,3.1,1.1,3.2,3.3v6.4h-1.6v-6.3c0-0.7-0.2-1.2-0.5-1.5c-0.3-0.3-0.8-0.5-1.6-0.5c-0.6,0-1.1,0.2-1.5,0.5
			c-0.4,0.4-0.6,0.8-0.7,1.5v6.3h-1.6v-6.2c0-1.4-0.7-2.1-2-2.1c-1.1,0-1.8,0.5-2.2,1.4v6.9H379v-9.5H380.6z"/>
	</g>
	<g class="st1">
		<path d="M281.9,1758h6.1v1.4h-7.8v-12.8h1.7V1758z"/>
		<path d="M293.6,1759.5c-1.3,0-2.3-0.4-3.1-1.3s-1.2-2-1.2-3.4v-0.3c0-0.9,0.2-1.8,0.5-2.5s0.9-1.3,1.5-1.7s1.3-0.6,2.1-0.6
			c1.2,0,2.2,0.4,2.9,1.2s1,2,1,3.5v0.7h-6.4c0,0.9,0.3,1.7,0.8,2.3c0.5,0.6,1.2,0.9,2,0.9c0.6,0,1.1-0.1,1.5-0.4s0.7-0.5,1-0.9
			l1,0.8C296.4,1758.9,295.2,1759.5,293.6,1759.5z M293.4,1751c-0.7,0-1.2,0.2-1.7,0.7s-0.7,1.1-0.8,2h4.8v-0.1
			c0-0.8-0.3-1.5-0.7-1.9S294.1,1751,293.4,1751z"/>
		<path d="M311.7,1754.7c0,1.4-0.3,2.6-1,3.5s-1.6,1.3-2.7,1.3c-1.2,0-2.1-0.4-2.7-1.1v4.6h-1.6v-13.2h1.5l0.1,1.1
			c0.7-0.8,1.6-1.2,2.8-1.2c1.1,0,2,0.4,2.7,1.3s1,2.1,1,3.6V1754.7z M310.1,1754.5c0-1.1-0.2-1.9-0.7-2.5s-1.1-0.9-1.9-0.9
			c-1,0-1.7,0.4-2.2,1.3v4.5c0.5,0.9,1.2,1.3,2.2,1.3c0.8,0,1.4-0.3,1.9-0.9S310.1,1755.8,310.1,1754.5z"/>
		<path d="M318.3,1751.3c-0.2,0-0.5-0.1-0.8-0.1c-1.1,0-1.8,0.5-2.2,1.4v6.8h-1.6v-9.5h1.6l0,1.1c0.5-0.8,1.3-1.3,2.3-1.3
			c0.3,0,0.6,0,0.7,0.1V1751.3z"/>
		<path d="M323.6,1759.5c-1.3,0-2.3-0.4-3.1-1.3s-1.2-2-1.2-3.4v-0.3c0-0.9,0.2-1.8,0.5-2.5s0.9-1.3,1.5-1.7s1.3-0.6,2.1-0.6
			c1.2,0,2.2,0.4,2.9,1.2s1,2,1,3.5v0.7h-6.4c0,0.9,0.3,1.7,0.8,2.3c0.5,0.6,1.2,0.9,2,0.9c0.6,0,1.1-0.1,1.5-0.4s0.7-0.5,1-0.9
			l1,0.8C326.4,1758.9,325.2,1759.5,323.6,1759.5z M326.1,1748.3L326.1,1748.3l-1.3,0.1l-1.3-1.5l-1.3,1.5l-1.3,0v-0.1l2.2-2.4h1
			L326.1,1748.3z M323.4,1751c-0.7,0-1.2,0.2-1.7,0.7s-0.7,1.1-0.8,2h4.8v-0.1c0-0.8-0.3-1.5-0.7-1.9S324.1,1751,323.4,1751z"/>
		<path d="M331.4,1747.6v2.3h1.8v1.3h-1.8v5.9c0,0.4,0.1,0.7,0.2,0.9s0.4,0.3,0.8,0.3c0.2,0,0.4,0,0.8-0.1v1.3
			c-0.4,0.1-0.8,0.2-1.2,0.2c-0.7,0-1.3-0.2-1.6-0.7s-0.6-1.1-0.6-1.9v-5.9h-1.7v-1.3h1.7v-2.3H331.4z"/>
		<path d="M338.5,1754.6h-4.3v-1.3h4.3V1754.6z"/>
		<path d="M345.9,1759.4c-0.1-0.2-0.2-0.5-0.2-1c-0.8,0.8-1.7,1.2-2.7,1.2c-0.9,0-1.7-0.3-2.3-0.8s-0.9-1.2-0.9-2
			c0-1,0.4-1.8,1.1-2.3s1.8-0.8,3.2-0.8h1.6v-0.7c0-0.6-0.2-1-0.5-1.4c-0.3-0.3-0.8-0.5-1.5-0.5c-0.6,0-1.1,0.1-1.5,0.4
			s-0.6,0.6-0.6,1.1H340c0-0.5,0.2-0.9,0.5-1.4s0.8-0.8,1.4-1.1s1.2-0.4,1.9-0.4c1.1,0,2,0.3,2.6,0.8s0.9,1.3,1,2.3v4.4
			c0,0.9,0.1,1.6,0.3,2.1v0.1H345.9z M344.9,1748.5l-1.4,0l-2.3-2.6h2L344.9,1748.5z M343.2,1758.1c0.5,0,1-0.1,1.5-0.4s0.8-0.6,1-1
			v-2h-1.3c-2,0-3,0.6-3,1.7c0,0.5,0.2,0.9,0.5,1.2S342.7,1758.1,343.2,1758.1z"/>
		<path d="M353.2,1754.6h-4.3v-1.3h4.3V1754.6z"/>
		<path d="M356.3,1749.9l0,1.1c0.7-0.8,1.6-1.2,2.8-1.2c1.3,0,2.2,0.5,2.7,1.5c0.3-0.5,0.7-0.8,1.2-1.1s1.1-0.4,1.8-0.4
			c2.1,0,3.1,1.1,3.2,3.3v6.4h-1.6v-6.3c0-0.7-0.2-1.2-0.5-1.5c-0.3-0.3-0.8-0.5-1.6-0.5c-0.6,0-1.1,0.2-1.5,0.5
			c-0.4,0.4-0.6,0.8-0.7,1.5v6.3h-1.6v-6.2c0-1.4-0.7-2.1-2-2.1c-1.1,0-1.8,0.5-2.2,1.4v6.9h-1.6v-9.5H356.3z"/>
		<path d="M376.5,1759.4c-0.1-0.2-0.2-0.5-0.2-1c-0.8,0.8-1.7,1.2-2.7,1.2c-0.9,0-1.7-0.3-2.3-0.8s-0.9-1.2-0.9-2
			c0-1,0.4-1.8,1.1-2.3s1.8-0.8,3.2-0.8h1.6v-0.7c0-0.6-0.2-1-0.5-1.4c-0.3-0.3-0.8-0.5-1.5-0.5c-0.6,0-1.1,0.1-1.5,0.4
			s-0.6,0.6-0.6,1.1h-1.6c0-0.5,0.2-0.9,0.5-1.4s0.8-0.8,1.4-1.1s1.2-0.4,1.9-0.4c1.1,0,2,0.3,2.6,0.8s0.9,1.3,1,2.3v4.4
			c0,0.9,0.1,1.6,0.3,2.1v0.1H376.5z M373.8,1758.1c0.5,0,1-0.1,1.5-0.4s0.8-0.6,1-1v-2h-1.3c-2,0-3,0.6-3,1.7
			c0,0.5,0.2,0.9,0.5,1.2S373.2,1758.1,373.8,1758.1z"/>
		<path d="M381.9,1749.9l0.1,1.2c0.7-0.9,1.7-1.4,2.8-1.4c2,0,3,1.1,3,3.4v6.3h-1.6v-6.3c0-0.7-0.2-1.2-0.5-1.5s-0.8-0.5-1.4-0.5
			c-0.5,0-1,0.1-1.4,0.4s-0.7,0.7-0.9,1.1v6.8h-1.6v-9.5H381.9z"/>
		<path d="M389.9,1754.5c0-1.5,0.3-2.7,1-3.5s1.6-1.3,2.7-1.3c1.2,0,2.1,0.4,2.7,1.2l0.1-1.1h1.5v9.3c0,1.2-0.4,2.2-1.1,2.9
			s-1.7,1.1-2.9,1.1c-0.7,0-1.4-0.1-2-0.4s-1.2-0.7-1.5-1.2l0.8-1c0.7,0.9,1.5,1.3,2.6,1.3c0.8,0,1.4-0.2,1.8-0.7s0.7-1.1,0.7-1.9
			v-0.8c-0.7,0.8-1.5,1.1-2.7,1.1c-1.1,0-2-0.4-2.7-1.3S389.9,1756.1,389.9,1754.5z M391.6,1754.7c0,1.1,0.2,1.9,0.7,2.5
			c0.4,0.6,1.1,0.9,1.8,0.9c1,0,1.8-0.5,2.3-1.4v-4.3c-0.5-0.9-1.2-1.4-2.2-1.4c-0.8,0-1.4,0.3-1.9,0.9S391.6,1753.5,391.6,1754.7z"
			/>
		<path d="M404.4,1759.5c-1.3,0-2.3-0.4-3.1-1.3s-1.2-2-1.2-3.4v-0.3c0-0.9,0.2-1.8,0.5-2.5s0.9-1.3,1.5-1.7s1.3-0.6,2.1-0.6
			c1.2,0,2.2,0.4,2.9,1.2s1,2,1,3.5v0.7h-6.4c0,0.9,0.3,1.7,0.8,2.3c0.5,0.6,1.2,0.9,2,0.9c0.6,0,1.1-0.1,1.5-0.4s0.7-0.5,1-0.9
			l1,0.8C407.1,1758.9,405.9,1759.5,404.4,1759.5z M404.2,1751c-0.7,0-1.2,0.2-1.7,0.7s-0.7,1.1-0.8,2h4.8v-0.1
			c0-0.8-0.3-1.5-0.7-1.9S404.8,1751,404.2,1751z"/>
		<path d="M414.5,1751.3c-0.2,0-0.5-0.1-0.8-0.1c-1.1,0-1.8,0.5-2.2,1.4v6.8h-1.6v-9.5h1.6l0,1.1c0.5-0.8,1.3-1.3,2.3-1.3
			c0.3,0,0.6,0,0.7,0.1V1751.3z"/>
	</g>
	<g class="st1">
		<path d="M232.8,1776.5c0-1.5,0.3-2.7,1-3.5c0.7-0.9,1.6-1.3,2.8-1.3c1.1,0,2,0.4,2.7,1.1l0.1-1h1.5v13.2h-1.6v-4.5
			c-0.7,0.7-1.5,1.1-2.6,1.1c-1.1,0-2.1-0.4-2.7-1.3s-1-2.1-1-3.6V1776.5z M234.4,1776.7c0,1.1,0.2,1.9,0.7,2.6s1.1,0.9,1.9,0.9
			c1,0,1.7-0.4,2.2-1.3v-4.7c-0.5-0.8-1.2-1.3-2.2-1.3c-0.8,0-1.4,0.3-1.9,0.9C234.7,1774.6,234.4,1775.5,234.4,1776.7z"/>
		<path d="M249.3,1780.4c-0.6,0.7-1.6,1.1-2.8,1.1c-1,0-1.8-0.3-2.3-0.9c-0.5-0.6-0.8-1.5-0.8-2.6v-6.2h1.6v6.1
			c0,1.4,0.6,2.2,1.8,2.2c1.2,0,2.1-0.5,2.5-1.4v-6.9h1.6v9.5h-1.5L249.3,1780.4z"/>
		<path d="M253.4,1769.3c0-0.3,0.1-0.5,0.2-0.7s0.4-0.3,0.7-0.3s0.6,0.1,0.7,0.3s0.2,0.4,0.2,0.7s-0.1,0.5-0.2,0.7s-0.4,0.3-0.7,0.3
			s-0.6-0.1-0.7-0.3S253.4,1769.6,253.4,1769.3z M255.1,1781.4h-1.6v-9.5h1.6V1781.4z"/>
		<path d="M264.4,1769.6v2.3h1.8v1.3h-1.8v5.9c0,0.4,0.1,0.7,0.2,0.9s0.4,0.3,0.8,0.3c0.2,0,0.4,0,0.8-0.1v1.3
			c-0.4,0.1-0.8,0.2-1.2,0.2c-0.7,0-1.3-0.2-1.6-0.7s-0.6-1.1-0.6-1.9v-5.9H261v-1.3h1.7v-2.3H264.4z"/>
		<path d="M272,1781.5c-1.3,0-2.3-0.4-3.1-1.3s-1.2-2-1.2-3.4v-0.3c0-0.9,0.2-1.8,0.5-2.5s0.9-1.3,1.5-1.7s1.3-0.6,2.1-0.6
			c1.2,0,2.2,0.4,2.9,1.2s1,2,1,3.5v0.7h-6.4c0,0.9,0.3,1.7,0.8,2.3c0.5,0.6,1.2,0.9,2,0.9c0.6,0,1.1-0.1,1.5-0.4s0.7-0.5,1-0.9
			l1,0.8C274.8,1780.9,273.6,1781.5,272,1781.5z M271.8,1773c-0.7,0-1.2,0.2-1.7,0.7s-0.7,1.1-0.8,2h4.8v-0.1c0-0.8-0.3-1.5-0.7-1.9
			S272.5,1773,271.8,1773z"/>
		<path d="M287.6,1778.8c0-0.4-0.2-0.8-0.5-1c-0.3-0.2-0.9-0.5-1.7-0.6s-1.5-0.4-2-0.6s-0.8-0.5-1.1-0.9s-0.3-0.7-0.3-1.2
			c0-0.8,0.3-1.4,1-2s1.5-0.8,2.5-0.8c1.1,0,2,0.3,2.6,0.8s1,1.3,1,2.1h-1.6c0-0.4-0.2-0.8-0.6-1.2s-0.9-0.5-1.4-0.5
			c-0.6,0-1.1,0.1-1.4,0.4s-0.5,0.6-0.5,1c0,0.4,0.2,0.7,0.5,0.9s0.9,0.4,1.7,0.6s1.5,0.4,2,0.7s0.9,0.6,1.1,0.9
			c0.2,0.4,0.4,0.8,0.4,1.3c0,0.8-0.3,1.5-1,2c-0.7,0.5-1.6,0.8-2.6,0.8c-0.8,0-1.4-0.1-2-0.4s-1-0.6-1.4-1.1
			c-0.3-0.5-0.5-1-0.5-1.6h1.6c0,0.5,0.2,1,0.7,1.3c0.4,0.3,0.9,0.5,1.6,0.5c0.6,0,1.1-0.1,1.5-0.4
			C287.4,1779.6,287.6,1779.3,287.6,1778.8z"/>
		<path d="M297.2,1781.4c-0.1-0.2-0.2-0.5-0.2-1c-0.8,0.8-1.7,1.2-2.7,1.2c-0.9,0-1.7-0.3-2.3-0.8s-0.9-1.2-0.9-2
			c0-1,0.4-1.8,1.1-2.3s1.8-0.8,3.2-0.8h1.6v-0.7c0-0.6-0.2-1-0.5-1.4c-0.3-0.3-0.8-0.5-1.5-0.5c-0.6,0-1.1,0.1-1.5,0.4
			s-0.6,0.6-0.6,1.1h-1.6c0-0.5,0.2-0.9,0.5-1.4s0.8-0.8,1.4-1.1s1.2-0.4,1.9-0.4c1.1,0,2,0.3,2.6,0.8s0.9,1.3,1,2.3v4.4
			c0,0.9,0.1,1.6,0.3,2.1v0.1H297.2z M294.5,1780.1c0.5,0,1-0.1,1.5-0.4s0.8-0.6,1-1v-2h-1.3c-2,0-3,0.6-3,1.7
			c0,0.5,0.2,0.9,0.5,1.2S294,1780.1,294.5,1780.1z"/>
		<path d="M307,1780.4c-0.6,0.7-1.6,1.1-2.8,1.1c-1,0-1.8-0.3-2.3-0.9c-0.5-0.6-0.8-1.5-0.8-2.6v-6.2h1.6v6.1c0,1.4,0.6,2.2,1.8,2.2
			c1.2,0,2.1-0.5,2.5-1.4v-6.9h1.6v9.5H307L307,1780.4z"/>
		<path d="M314.2,1779.2l2.4-7.3h1.7l-3.4,9.5h-1.2l-3.4-9.5h1.7L314.2,1779.2z"/>
		<path d="M323.6,1781.5c-1.3,0-2.3-0.4-3.1-1.3s-1.2-2-1.2-3.4v-0.3c0-0.9,0.2-1.8,0.5-2.5s0.9-1.3,1.5-1.7s1.3-0.6,2.1-0.6
			c1.2,0,2.2,0.4,2.9,1.2s1,2,1,3.5v0.7h-6.4c0,0.9,0.3,1.7,0.8,2.3c0.5,0.6,1.2,0.9,2,0.9c0.6,0,1.1-0.1,1.5-0.4s0.7-0.5,1-0.9
			l1,0.8C326.4,1780.9,325.2,1781.5,323.6,1781.5z M323.4,1773c-0.7,0-1.2,0.2-1.7,0.7s-0.7,1.1-0.8,2h4.8v-0.1
			c0-0.8-0.3-1.5-0.7-1.9S324.1,1773,323.4,1773z"/>
		<path d="M333.2,1776.5c0-1.5,0.3-2.6,1-3.5c0.7-0.9,1.6-1.3,2.7-1.3c1.1,0,2,0.4,2.6,1.1v-5h1.6v13.5h-1.5l-0.1-1
			c-0.7,0.8-1.6,1.2-2.7,1.2c-1.1,0-2-0.5-2.7-1.4s-1-2.1-1-3.5V1776.5z M334.9,1776.7c0,1.1,0.2,1.9,0.7,2.5s1.1,0.9,1.8,0.9
			c1,0,1.8-0.5,2.3-1.4v-4.4c-0.5-0.9-1.2-1.3-2.2-1.3c-0.8,0-1.4,0.3-1.9,0.9S334.9,1775.5,334.9,1776.7z"/>
		<path d="M349.7,1780.4c-0.6,0.7-1.6,1.1-2.8,1.1c-1,0-1.8-0.3-2.3-0.9c-0.5-0.6-0.8-1.5-0.8-2.6v-6.2h1.6v6.1
			c0,1.4,0.6,2.2,1.8,2.2c1.2,0,2.1-0.5,2.5-1.4v-6.9h1.6v9.5h-1.5L349.7,1780.4z"/>
		<path d="M360.4,1769.6v2.3h1.8v1.3h-1.8v5.9c0,0.4,0.1,0.7,0.2,0.9s0.4,0.3,0.8,0.3c0.2,0,0.4,0,0.8-0.1v1.3
			c-0.4,0.1-0.8,0.2-1.2,0.2c-0.7,0-1.3-0.2-1.6-0.7s-0.6-1.1-0.6-1.9v-5.9H357v-1.3h1.7v-2.3H360.4z"/>
		<path d="M368,1781.5c-1.3,0-2.3-0.4-3.1-1.3s-1.2-2-1.2-3.4v-0.3c0-0.9,0.2-1.8,0.5-2.5s0.9-1.3,1.5-1.7s1.3-0.6,2.1-0.6
			c1.2,0,2.2,0.4,2.9,1.2s1,2,1,3.5v0.7h-6.4c0,0.9,0.3,1.7,0.8,2.3c0.5,0.6,1.2,0.9,2,0.9c0.6,0,1.1-0.1,1.5-0.4s0.7-0.5,1-0.9
			l1,0.8C370.8,1780.9,369.6,1781.5,368,1781.5z M367.8,1773c-0.7,0-1.2,0.2-1.7,0.7s-0.7,1.1-0.8,2h4.8v-0.1c0-0.8-0.3-1.5-0.7-1.9
			S368.5,1773,367.8,1773z"/>
		<path d="M375.1,1771.9l0,1.1c0.7-0.8,1.6-1.2,2.8-1.2c1.3,0,2.2,0.5,2.7,1.5c0.3-0.5,0.7-0.8,1.2-1.1s1.1-0.4,1.8-0.4
			c2.1,0,3.1,1.1,3.2,3.3v6.4h-1.6v-6.3c0-0.7-0.2-1.2-0.5-1.5c-0.3-0.3-0.8-0.5-1.6-0.5c-0.6,0-1.1,0.2-1.5,0.5
			c-0.4,0.4-0.6,0.8-0.7,1.5v6.3h-1.6v-6.2c0-1.4-0.7-2.1-2-2.1c-1.1,0-1.8,0.5-2.2,1.4v6.9h-1.6v-9.5H375.1z"/>
		<path d="M397.4,1776.7c0,1.4-0.3,2.6-1,3.5s-1.6,1.3-2.7,1.3c-1.2,0-2.1-0.4-2.7-1.1v4.6h-1.6v-13.2h1.5l0.1,1.1
			c0.7-0.8,1.6-1.2,2.8-1.2c1.1,0,2,0.4,2.7,1.3s1,2.1,1,3.6V1776.7z M395.8,1776.5c0-1.1-0.2-1.9-0.7-2.5s-1.1-0.9-1.9-0.9
			c-1,0-1.7,0.4-2.2,1.3v4.5c0.5,0.9,1.2,1.3,2.2,1.3c0.8,0,1.4-0.3,1.9-0.9S395.8,1777.8,395.8,1776.5z"/>
		<path d="M405,1778.8c0-0.4-0.2-0.8-0.5-1c-0.3-0.2-0.9-0.5-1.7-0.6s-1.5-0.4-2-0.6s-0.8-0.5-1.1-0.9s-0.3-0.7-0.3-1.2
			c0-0.8,0.3-1.4,1-2s1.5-0.8,2.5-0.8c1.1,0,2,0.3,2.6,0.8s1,1.3,1,2.1h-1.6c0-0.4-0.2-0.8-0.6-1.2s-0.9-0.5-1.4-0.5
			c-0.6,0-1.1,0.1-1.4,0.4s-0.5,0.6-0.5,1c0,0.4,0.2,0.7,0.5,0.9s0.9,0.4,1.7,0.6s1.5,0.4,2,0.7s0.9,0.6,1.1,0.9
			c0.2,0.4,0.4,0.8,0.4,1.3c0,0.8-0.3,1.5-1,2c-0.7,0.5-1.6,0.8-2.6,0.8c-0.8,0-1.4-0.1-2-0.4s-1-0.6-1.4-1.1
			c-0.3-0.5-0.5-1-0.5-1.6h1.6c0,0.5,0.2,1,0.7,1.3c0.4,0.3,0.9,0.5,1.6,0.5c0.6,0,1.1-0.1,1.5-0.4
			C404.8,1779.6,405,1779.3,405,1778.8z"/>
		<path d="M412.8,1777.9c0-0.6,0.2-1.2,0.5-1.7s1-1.1,2-1.8c-0.6-0.7-0.9-1.2-1.1-1.7s-0.3-0.8-0.3-1.3c0-1,0.3-1.7,0.9-2.3
			s1.4-0.8,2.3-0.8c0.9,0,1.6,0.3,2.2,0.8s0.9,1.2,0.9,1.9c0,0.5-0.1,1-0.4,1.4c-0.3,0.4-0.7,0.9-1.4,1.4l-0.9,0.7l2.8,3.4
			c0.4-0.8,0.6-1.6,0.6-2.5h1.5c0,1.5-0.4,2.7-1.1,3.7l1.8,2.2h-2l-0.9-1c-0.4,0.4-0.9,0.7-1.5,0.9c-0.6,0.2-1.2,0.3-1.8,0.3
			c-1.2,0-2.2-0.3-3-1S412.8,1779,412.8,1777.9z M417,1780.2c0.9,0,1.6-0.3,2.4-1l-3.1-3.7l-0.3,0.2c-1,0.7-1.5,1.5-1.5,2.2
			c0,0.7,0.2,1.2,0.7,1.7S416.2,1780.2,417,1780.2z M415.5,1771.5c0,0.6,0.3,1.3,1,2.1l1-0.7c0.4-0.3,0.7-0.5,0.8-0.8
			c0.1-0.3,0.2-0.6,0.2-0.9c0-0.4-0.1-0.7-0.4-1c-0.3-0.3-0.7-0.4-1.1-0.4c-0.5,0-0.9,0.2-1.1,0.5
			C415.7,1770.5,415.5,1771,415.5,1771.5z"/>
		<path d="M432,1779.2l2.4-7.3h1.7l-3.4,9.5h-1.2l-3.4-9.5h1.7L432,1779.2z"/>
		<path d="M437.6,1769.3c0-0.3,0.1-0.5,0.2-0.7s0.4-0.3,0.7-0.3s0.6,0.1,0.7,0.3s0.2,0.4,0.2,0.7s-0.1,0.5-0.2,0.7s-0.4,0.3-0.7,0.3
			s-0.6-0.1-0.7-0.3S437.6,1769.6,437.6,1769.3z M439.3,1781.4h-1.6v-9.5h1.6V1781.4z"/>
		<path d="M445.9,1781.5c-1.3,0-2.3-0.4-3.1-1.3s-1.2-2-1.2-3.4v-0.3c0-0.9,0.2-1.8,0.5-2.5s0.9-1.3,1.5-1.7s1.3-0.6,2.1-0.6
			c1.2,0,2.2,0.4,2.9,1.2s1,2,1,3.5v0.7h-6.4c0,0.9,0.3,1.7,0.8,2.3c0.5,0.6,1.2,0.9,2,0.9c0.6,0,1.1-0.1,1.5-0.4s0.7-0.5,1-0.9
			l1,0.8C448.7,1780.9,447.5,1781.5,445.9,1781.5z M445.7,1773c-0.7,0-1.2,0.2-1.7,0.7s-0.7,1.1-0.8,2h4.8v-0.1
			c0-0.8-0.3-1.5-0.7-1.9S446.3,1773,445.7,1773z"/>
		<path d="M453,1771.9l0.1,1.2c0.7-0.9,1.7-1.4,2.8-1.4c2,0,3,1.1,3,3.4v6.3h-1.6v-6.3c0-0.7-0.2-1.2-0.5-1.5s-0.8-0.5-1.4-0.5
			c-0.5,0-1,0.1-1.4,0.4s-0.7,0.7-0.9,1.1v6.8h-1.6v-9.5H453z"/>
		<path d="M463.6,1769.6v2.3h1.8v1.3h-1.8v5.9c0,0.4,0.1,0.7,0.2,0.9s0.4,0.3,0.8,0.3c0.2,0,0.4,0,0.8-0.1v1.3
			c-0.4,0.1-0.8,0.2-1.2,0.2c-0.7,0-1.3-0.2-1.6-0.7s-0.6-1.1-0.6-1.9v-5.9h-1.7v-1.3h1.7v-2.3H463.6z"/>
	</g>
	<g class="st1">
		<path d="M229.5,1791.6v2.3h1.8v1.3h-1.8v5.9c0,0.4,0.1,0.7,0.2,0.9s0.4,0.3,0.8,0.3c0.2,0,0.4,0,0.8-0.1v1.3
			c-0.4,0.1-0.8,0.2-1.2,0.2c-0.7,0-1.3-0.2-1.6-0.7s-0.6-1.1-0.6-1.9v-5.9h-1.7v-1.3h1.7v-2.3H229.5z"/>
		<path d="M237.1,1803.5c-1.3,0-2.3-0.4-3.1-1.3s-1.2-2-1.2-3.4v-0.3c0-0.9,0.2-1.8,0.5-2.5s0.9-1.3,1.5-1.7s1.3-0.6,2.1-0.6
			c1.2,0,2.2,0.4,2.9,1.2s1,2,1,3.5v0.7h-6.4c0,0.9,0.3,1.7,0.8,2.3c0.5,0.6,1.2,0.9,2,0.9c0.6,0,1.1-0.1,1.5-0.4s0.7-0.5,1-0.9
			l1,0.8C239.9,1802.9,238.7,1803.5,237.1,1803.5z M236.9,1795c-0.7,0-1.2,0.2-1.7,0.7s-0.7,1.1-0.8,2h4.8v-0.1
			c0-0.8-0.3-1.5-0.7-1.9S237.6,1795,236.9,1795z"/>
		<path d="M251.7,1795.3c-0.2,0-0.5-0.1-0.8-0.1c-1.1,0-1.8,0.5-2.2,1.4v6.8h-1.6v-9.5h1.6l0,1.1c0.5-0.8,1.3-1.3,2.3-1.3
			c0.3,0,0.6,0,0.7,0.1V1795.3z"/>
		<path d="M257,1803.5c-1.3,0-2.3-0.4-3.1-1.3s-1.2-2-1.2-3.4v-0.3c0-0.9,0.2-1.8,0.5-2.5s0.9-1.3,1.5-1.7s1.3-0.6,2.1-0.6
			c1.2,0,2.2,0.4,2.9,1.2s1,2,1,3.5v0.7h-6.4c0,0.9,0.3,1.7,0.8,2.3c0.5,0.6,1.2,0.9,2,0.9c0.6,0,1.1-0.1,1.5-0.4s0.7-0.5,1-0.9
			l1,0.8C259.8,1802.9,258.6,1803.5,257,1803.5z M256.8,1795c-0.7,0-1.2,0.2-1.7,0.7s-0.7,1.1-0.8,2h4.8v-0.1c0-0.8-0.3-1.5-0.7-1.9
			S257.5,1795,256.8,1795z M257.6,1789.9h2l-2.4,2.6l-1.3,0L257.6,1789.9z"/>
		<path d="M266.4,1802.2c0.6,0,1.1-0.2,1.5-0.5s0.7-0.8,0.7-1.3h1.5c0,0.5-0.2,1.1-0.6,1.6s-0.8,0.9-1.4,1.2s-1.2,0.4-1.8,0.4
			c-1.3,0-2.3-0.4-3.1-1.3c-0.8-0.9-1.1-2-1.1-3.5v-0.3c0-0.9,0.2-1.7,0.5-2.5s0.8-1.3,1.5-1.7s1.4-0.6,2.3-0.6c1.1,0,2,0.3,2.7,1
			s1.1,1.5,1.1,2.5h-1.5c0-0.6-0.3-1.1-0.7-1.5c-0.4-0.4-0.9-0.6-1.6-0.6c-0.8,0-1.5,0.3-1.9,0.9s-0.7,1.5-0.7,2.6v0.3
			c0,1.1,0.2,1.9,0.7,2.5S265.6,1802.2,266.4,1802.2z"/>
		<path d="M271.6,1798.5c0-0.9,0.2-1.8,0.5-2.5s0.9-1.3,1.5-1.7s1.4-0.6,2.2-0.6c1.3,0,2.3,0.4,3.1,1.3s1.2,2.1,1.2,3.6v0.1
			c0,0.9-0.2,1.8-0.5,2.5c-0.4,0.7-0.9,1.3-1.5,1.7s-1.4,0.6-2.3,0.6c-1.3,0-2.3-0.4-3.1-1.3s-1.2-2.1-1.2-3.6V1798.5z
			 M273.2,1798.7c0,1.1,0.2,1.9,0.7,2.5s1.1,1,2,1c0.8,0,1.5-0.3,2-1c0.5-0.6,0.7-1.6,0.7-2.7c0-1-0.2-1.9-0.7-2.5
			c-0.5-0.6-1.2-1-2-1c-0.8,0-1.5,0.3-1.9,1S273.2,1797.5,273.2,1798.7z"/>
		<path d="M283.8,1793.9l0.1,1.2c0.7-0.9,1.7-1.4,2.8-1.4c2,0,3,1.1,3,3.4v6.3h-1.6v-6.3c0-0.7-0.2-1.2-0.5-1.5s-0.8-0.5-1.4-0.5
			c-0.5,0-1,0.1-1.4,0.4s-0.7,0.7-0.9,1.1v6.8h-1.6v-9.5H283.8z"/>
		<path d="M293,1803.4v-8.3h-1.5v-1.3h1.5v-1c0-1,0.3-1.8,0.8-2.4s1.3-0.8,2.3-0.8c0.4,0,0.7,0,1.1,0.1l-0.1,1.3
			c-0.3-0.1-0.6-0.1-0.9-0.1c-0.5,0-0.9,0.2-1.2,0.5s-0.4,0.8-0.4,1.3v1h2v1.3h-2v8.3H293z"/>
		<path d="M298,1798.5c0-0.9,0.2-1.8,0.5-2.5s0.9-1.3,1.5-1.7s1.4-0.6,2.2-0.6c1.3,0,2.3,0.4,3.1,1.3s1.2,2.1,1.2,3.6v0.1
			c0,0.9-0.2,1.8-0.5,2.5c-0.4,0.7-0.9,1.3-1.5,1.7s-1.4,0.6-2.3,0.6c-1.3,0-2.3-0.4-3.1-1.3s-1.2-2.1-1.2-3.6V1798.5z
			 M299.7,1798.7c0,1.1,0.2,1.9,0.7,2.5s1.1,1,2,1c0.8,0,1.5-0.3,2-1c0.5-0.6,0.7-1.6,0.7-2.7c0-1-0.2-1.9-0.7-2.5
			c-0.5-0.6-1.2-1-2-1c-0.8,0-1.5,0.3-1.9,1S299.7,1797.5,299.7,1798.7z"/>
		<path d="M313.3,1795.3c-0.2,0-0.5-0.1-0.8-0.1c-1.1,0-1.8,0.5-2.2,1.4v6.8h-1.6v-9.5h1.6l0,1.1c0.5-0.8,1.3-1.3,2.3-1.3
			c0.3,0,0.6,0,0.7,0.1V1795.3z"/>
		<path d="M317.5,1791.6v2.3h1.8v1.3h-1.8v5.9c0,0.4,0.1,0.7,0.2,0.9s0.4,0.3,0.8,0.3c0.2,0,0.4,0,0.8-0.1v1.3
			c-0.4,0.1-0.8,0.2-1.2,0.2c-0.7,0-1.3-0.2-1.6-0.7s-0.6-1.1-0.6-1.9v-5.9h-1.7v-1.3h1.7v-2.3H317.5z"/>
		<path d="M325.1,1803.5c-1.3,0-2.3-0.4-3.1-1.3s-1.2-2-1.2-3.4v-0.3c0-0.9,0.2-1.8,0.5-2.5s0.9-1.3,1.5-1.7s1.3-0.6,2.1-0.6
			c1.2,0,2.2,0.4,2.9,1.2s1,2,1,3.5v0.7h-6.4c0,0.9,0.3,1.7,0.8,2.3c0.5,0.6,1.2,0.9,2,0.9c0.6,0,1.1-0.1,1.5-0.4s0.7-0.5,1-0.9
			l1,0.8C327.9,1802.9,326.7,1803.5,325.1,1803.5z M324.9,1795c-0.7,0-1.2,0.2-1.7,0.7s-0.7,1.1-0.8,2h4.8v-0.1
			c0-0.8-0.3-1.5-0.7-1.9S325.6,1795,324.9,1795z"/>
		<path d="M335.3,1795.3c-0.2,0-0.5-0.1-0.8-0.1c-1.1,0-1.8,0.5-2.2,1.4v6.8h-1.6v-9.5h1.6l0,1.1c0.5-0.8,1.3-1.3,2.3-1.3
			c0.3,0,0.6,0,0.7,0.1V1795.3z"/>
		<path d="M340.8,1798.5c0-1.5,0.3-2.6,1-3.5c0.7-0.9,1.6-1.3,2.7-1.3c1.1,0,2,0.4,2.6,1.1v-5h1.6v13.5h-1.5l-0.1-1
			c-0.7,0.8-1.6,1.2-2.7,1.2c-1.1,0-2-0.5-2.7-1.4s-1-2.1-1-3.5V1798.5z M342.5,1798.7c0,1.1,0.2,1.9,0.7,2.5s1.1,0.9,1.8,0.9
			c1,0,1.8-0.5,2.3-1.4v-4.4c-0.5-0.9-1.2-1.3-2.2-1.3c-0.8,0-1.4,0.3-1.9,0.9S342.5,1797.5,342.5,1798.7z"/>
		<path d="M357.3,1803.4c-0.1-0.2-0.2-0.5-0.2-1c-0.8,0.8-1.7,1.2-2.7,1.2c-0.9,0-1.7-0.3-2.3-0.8s-0.9-1.2-0.9-2
			c0-1,0.4-1.8,1.1-2.3s1.8-0.8,3.2-0.8h1.6v-0.7c0-0.6-0.2-1-0.5-1.4c-0.3-0.3-0.8-0.5-1.5-0.5c-0.6,0-1.1,0.1-1.5,0.4
			s-0.6,0.6-0.6,1.1h-1.6c0-0.5,0.2-0.9,0.5-1.4s0.8-0.8,1.4-1.1s1.2-0.4,1.9-0.4c1.1,0,2,0.3,2.6,0.8s0.9,1.3,1,2.3v4.4
			c0,0.9,0.1,1.6,0.3,2.1v0.1H357.3z M354.6,1802.1c0.5,0,1-0.1,1.5-0.4s0.8-0.6,1-1v-2h-1.3c-2,0-3,0.6-3,1.7
			c0,0.5,0.2,0.9,0.5,1.2S354,1802.1,354.6,1802.1z"/>
		<path d="M362.7,1793.9l0.1,1.2c0.7-0.9,1.7-1.4,2.8-1.4c2,0,3,1.1,3,3.4v6.3H367v-6.3c0-0.7-0.2-1.2-0.5-1.5s-0.8-0.5-1.4-0.5
			c-0.5,0-1,0.1-1.4,0.4s-0.7,0.7-0.9,1.1v6.8h-1.6v-9.5H362.7z"/>
		<path d="M376.6,1800.8c0-0.4-0.2-0.8-0.5-1c-0.3-0.2-0.9-0.5-1.7-0.6s-1.5-0.4-2-0.6s-0.8-0.5-1.1-0.9s-0.3-0.7-0.3-1.2
			c0-0.8,0.3-1.4,1-2s1.5-0.8,2.5-0.8c1.1,0,2,0.3,2.6,0.8s1,1.3,1,2.1h-1.6c0-0.4-0.2-0.8-0.6-1.2s-0.9-0.5-1.4-0.5
			c-0.6,0-1.1,0.1-1.4,0.4s-0.5,0.6-0.5,1c0,0.4,0.2,0.7,0.5,0.9s0.9,0.4,1.7,0.6s1.5,0.4,2,0.7s0.9,0.6,1.1,0.9
			c0.2,0.4,0.4,0.8,0.4,1.3c0,0.8-0.3,1.5-1,2c-0.7,0.5-1.6,0.8-2.6,0.8c-0.8,0-1.4-0.1-2-0.4s-1-0.6-1.4-1.1
			c-0.3-0.5-0.5-1-0.5-1.6h1.6c0,0.5,0.2,1,0.7,1.3c0.4,0.3,0.9,0.5,1.6,0.5c0.6,0,1.1-0.1,1.5-0.4
			C376.5,1801.6,376.6,1801.3,376.6,1800.8z"/>
		<path d="M387,1791.6v2.3h1.8v1.3H387v5.9c0,0.4,0.1,0.7,0.2,0.9s0.4,0.3,0.8,0.3c0.2,0,0.4,0,0.8-0.1v1.3
			c-0.4,0.1-0.8,0.2-1.2,0.2c-0.7,0-1.3-0.2-1.6-0.7s-0.6-1.1-0.6-1.9v-5.9h-1.7v-1.3h1.7v-2.3H387z"/>
		<path d="M396.6,1803.4c-0.1-0.2-0.2-0.5-0.2-1c-0.8,0.8-1.7,1.2-2.7,1.2c-0.9,0-1.7-0.3-2.3-0.8s-0.9-1.2-0.9-2
			c0-1,0.4-1.8,1.1-2.3s1.8-0.8,3.2-0.8h1.6v-0.7c0-0.6-0.2-1-0.5-1.4c-0.3-0.3-0.8-0.5-1.5-0.5c-0.6,0-1.1,0.1-1.5,0.4
			s-0.6,0.6-0.6,1.1h-1.6c0-0.5,0.2-0.9,0.5-1.4s0.8-0.8,1.4-1.1s1.2-0.4,1.9-0.4c1.1,0,2,0.3,2.6,0.8s0.9,1.3,1,2.3v4.4
			c0,0.9,0.1,1.6,0.3,2.1v0.1H396.6z M393.9,1802.1c0.5,0,1-0.1,1.5-0.4s0.8-0.6,1-1v-2h-1.3c-2,0-3,0.6-3,1.7
			c0,0.5,0.2,0.9,0.5,1.2S393.4,1802.1,393.9,1802.1z"/>
		<path d="M410.5,1800.8c0-0.4-0.2-0.8-0.5-1c-0.3-0.2-0.9-0.5-1.7-0.6s-1.5-0.4-2-0.6s-0.8-0.5-1.1-0.9s-0.3-0.7-0.3-1.2
			c0-0.8,0.3-1.4,1-2s1.5-0.8,2.5-0.8c1.1,0,2,0.3,2.6,0.8s1,1.3,1,2.1h-1.6c0-0.4-0.2-0.8-0.6-1.2s-0.9-0.5-1.4-0.5
			c-0.6,0-1.1,0.1-1.4,0.4s-0.5,0.6-0.5,1c0,0.4,0.2,0.7,0.5,0.9s0.9,0.4,1.7,0.6s1.5,0.4,2,0.7s0.9,0.6,1.1,0.9
			c0.2,0.4,0.4,0.8,0.4,1.3c0,0.8-0.3,1.5-1,2c-0.7,0.5-1.6,0.8-2.6,0.8c-0.8,0-1.4-0.1-2-0.4s-1-0.6-1.4-1.1
			c-0.3-0.5-0.5-1-0.5-1.6h1.6c0,0.5,0.2,1,0.7,1.3c0.4,0.3,0.9,0.5,1.6,0.5c0.6,0,1.1-0.1,1.5-0.4
			C410.3,1801.6,410.5,1801.3,410.5,1800.8z"/>
		<path d="M418.2,1803.5c-1.3,0-2.3-0.4-3.1-1.3s-1.2-2-1.2-3.4v-0.3c0-0.9,0.2-1.8,0.5-2.5s0.9-1.3,1.5-1.7s1.3-0.6,2.1-0.6
			c1.2,0,2.2,0.4,2.9,1.2s1,2,1,3.5v0.7h-6.4c0,0.9,0.3,1.7,0.8,2.3c0.5,0.6,1.2,0.9,2,0.9c0.6,0,1.1-0.1,1.5-0.4s0.7-0.5,1-0.9
			l1,0.8C421,1802.9,419.8,1803.5,418.2,1803.5z M418,1795c-0.7,0-1.2,0.2-1.7,0.7s-0.7,1.1-0.8,2h4.8v-0.1c0-0.8-0.3-1.5-0.7-1.9
			S418.7,1795,418,1795z"/>
		<path d="M425.3,1793.9l0,1.1c0.7-0.8,1.6-1.2,2.8-1.2c1.3,0,2.2,0.5,2.7,1.5c0.3-0.5,0.7-0.8,1.2-1.1s1.1-0.4,1.8-0.4
			c2.1,0,3.1,1.1,3.2,3.3v6.4h-1.6v-6.3c0-0.7-0.2-1.2-0.5-1.5c-0.3-0.3-0.8-0.5-1.6-0.5c-0.6,0-1.1,0.2-1.5,0.5
			c-0.4,0.4-0.6,0.8-0.7,1.5v6.3h-1.6v-6.2c0-1.4-0.7-2.1-2-2.1c-1.1,0-1.8,0.5-2.2,1.4v6.9h-1.6v-9.5H425.3z"/>
		<path d="M445.4,1803.4c-0.1-0.2-0.2-0.5-0.2-1c-0.8,0.8-1.7,1.2-2.7,1.2c-0.9,0-1.7-0.3-2.3-0.8s-0.9-1.2-0.9-2
			c0-1,0.4-1.8,1.1-2.3s1.8-0.8,3.2-0.8h1.6v-0.7c0-0.6-0.2-1-0.5-1.4c-0.3-0.3-0.8-0.5-1.5-0.5c-0.6,0-1.1,0.1-1.5,0.4
			s-0.6,0.6-0.6,1.1h-1.6c0-0.5,0.2-0.9,0.5-1.4s0.8-0.8,1.4-1.1s1.2-0.4,1.9-0.4c1.1,0,2,0.3,2.6,0.8s0.9,1.3,1,2.3v4.4
			c0,0.9,0.1,1.6,0.3,2.1v0.1H445.4z M442.7,1802.1c0.5,0,1-0.1,1.5-0.4s0.8-0.6,1-1v-2h-1.3c-2,0-3,0.6-3,1.7
			c0,0.5,0.2,0.9,0.5,1.2S442.2,1802.1,442.7,1802.1z"/>
		<path d="M449.4,1791.3c0-0.3,0.1-0.5,0.2-0.7s0.4-0.3,0.7-0.3s0.6,0.1,0.7,0.3s0.2,0.4,0.2,0.7s-0.1,0.5-0.2,0.7s-0.4,0.3-0.7,0.3
			s-0.6-0.1-0.7-0.3S449.4,1791.6,449.4,1791.3z M451.1,1803.4h-1.6v-9.5h1.6V1803.4z"/>
		<path d="M455.3,1793.9l0.1,1.2c0.7-0.9,1.7-1.4,2.8-1.4c2,0,3,1.1,3,3.4v6.3h-1.6v-6.3c0-0.7-0.2-1.2-0.5-1.5s-0.8-0.5-1.4-0.5
			c-0.5,0-1,0.1-1.4,0.4s-0.7,0.7-0.9,1.1v6.8h-1.6v-9.5H455.3z"/>
		<path d="M467.6,1803.5c-1.3,0-2.3-0.4-3.1-1.3s-1.2-2-1.2-3.4v-0.3c0-0.9,0.2-1.8,0.5-2.5s0.9-1.3,1.5-1.7s1.3-0.6,2.1-0.6
			c1.2,0,2.2,0.4,2.9,1.2s1,2,1,3.5v0.7h-6.4c0,0.9,0.3,1.7,0.8,2.3c0.5,0.6,1.2,0.9,2,0.9c0.6,0,1.1-0.1,1.5-0.4s0.7-0.5,1-0.9
			l1,0.8C470.4,1802.9,469.2,1803.5,467.6,1803.5z M467.4,1795c-0.7,0-1.2,0.2-1.7,0.7s-0.7,1.1-0.8,2h4.8v-0.1
			c0-0.8-0.3-1.5-0.7-1.9S468.1,1795,467.4,1795z"/>
	</g>
	<g class="st1">
		<path d="M307.9,1821.3c-0.2,1.4-0.7,2.4-1.5,3.1c-0.8,0.7-2,1.1-3.4,1.1c-1.5,0-2.7-0.5-3.6-1.6s-1.4-2.5-1.4-4.4v-1.2
			c0-1.2,0.2-2.2,0.6-3.1s1-1.6,1.8-2.1c0.8-0.5,1.7-0.7,2.7-0.7c1.4,0,2.4,0.4,3.3,1.1s1.3,1.8,1.4,3.2h-1.7c-0.1-1-0.5-1.8-1-2.2
			c-0.5-0.5-1.2-0.7-2.1-0.7c-1.1,0-1.9,0.4-2.5,1.2s-0.9,1.9-0.9,3.4v1.2c0,1.4,0.3,2.5,0.9,3.3s1.4,1.2,2.4,1.2
			c0.9,0,1.7-0.2,2.2-0.6c0.5-0.4,0.8-1.2,1-2.2H307.9z"/>
		<path d="M311,1812.8l-0.2,3.2h-1.1l0-4.2h1.3V1812.8z"/>
		<path d="M316.5,1825.5c-1.3,0-2.3-0.4-3.1-1.3s-1.2-2-1.2-3.4v-0.3c0-0.9,0.2-1.8,0.5-2.5s0.9-1.3,1.5-1.7s1.3-0.6,2.1-0.6
			c1.2,0,2.2,0.4,2.9,1.2s1,2,1,3.5v0.7h-6.4c0,0.9,0.3,1.7,0.8,2.3c0.5,0.6,1.2,0.9,2,0.9c0.6,0,1.1-0.1,1.5-0.4s0.7-0.5,1-0.9
			l1,0.8C319.3,1824.9,318.1,1825.5,316.5,1825.5z M316.3,1817c-0.7,0-1.2,0.2-1.7,0.7s-0.7,1.1-0.8,2h4.8v-0.1
			c0-0.8-0.3-1.5-0.7-1.9S317,1817,316.3,1817z"/>
		<path d="M327.7,1822.8c0-0.4-0.2-0.8-0.5-1c-0.3-0.2-0.9-0.5-1.7-0.6s-1.5-0.4-2-0.6s-0.8-0.5-1.1-0.9s-0.3-0.7-0.3-1.2
			c0-0.8,0.3-1.4,1-2s1.5-0.8,2.5-0.8c1.1,0,2,0.3,2.6,0.8s1,1.3,1,2.1h-1.6c0-0.4-0.2-0.8-0.6-1.2s-0.9-0.5-1.4-0.5
			c-0.6,0-1.1,0.1-1.4,0.4s-0.5,0.6-0.5,1c0,0.4,0.2,0.7,0.5,0.9s0.9,0.4,1.7,0.6s1.5,0.4,2,0.7s0.9,0.6,1.1,0.9
			c0.2,0.4,0.4,0.8,0.4,1.3c0,0.8-0.3,1.5-1,2c-0.7,0.5-1.6,0.8-2.6,0.8c-0.8,0-1.4-0.1-2-0.4s-1-0.6-1.4-1.1
			c-0.3-0.5-0.5-1-0.5-1.6h1.6c0,0.5,0.2,1,0.7,1.3c0.4,0.3,0.9,0.5,1.6,0.5c0.6,0,1.1-0.1,1.5-0.4
			C327.5,1823.6,327.7,1823.3,327.7,1822.8z"/>
		<path d="M333.6,1813.6v2.3h1.8v1.3h-1.8v5.9c0,0.4,0.1,0.7,0.2,0.9s0.4,0.3,0.8,0.3c0.2,0,0.4,0,0.8-0.1v1.3
			c-0.4,0.1-0.8,0.2-1.2,0.2c-0.7,0-1.3-0.2-1.6-0.7s-0.6-1.1-0.6-1.9v-5.9h-1.7v-1.3h1.7v-2.3H333.6z"/>
		<path d="M345.9,1819l3.3-6.4h1.9l-4.4,8v4.8h-1.7v-4.8l-4.4-8h1.9L345.9,1819z"/>
		<path d="M358.1,1824.4c-0.6,0.7-1.6,1.1-2.8,1.1c-1,0-1.8-0.3-2.3-0.9c-0.5-0.6-0.8-1.5-0.8-2.6v-6.2h1.6v6.1
			c0,1.4,0.6,2.2,1.8,2.2c1.2,0,2.1-0.5,2.5-1.4v-6.9h1.6v9.5h-1.5L358.1,1824.4z"/>
		<path d="M363.7,1815.9l0,1.1c0.7-0.8,1.6-1.2,2.8-1.2c1.3,0,2.2,0.5,2.7,1.5c0.3-0.5,0.7-0.8,1.2-1.1s1.1-0.4,1.8-0.4
			c2.1,0,3.1,1.1,3.2,3.3v6.4h-1.6v-6.3c0-0.7-0.2-1.2-0.5-1.5c-0.3-0.3-0.8-0.5-1.6-0.5c-0.6,0-1.1,0.2-1.5,0.5
			c-0.4,0.4-0.6,0.8-0.7,1.5v6.3H368v-6.2c0-1.4-0.7-2.1-2-2.1c-1.1,0-1.8,0.5-2.2,1.4v6.9h-1.6v-9.5H363.7z"/>
		<path d="M379.4,1815.9l0,1.1c0.7-0.8,1.6-1.2,2.8-1.2c1.3,0,2.2,0.5,2.7,1.5c0.3-0.5,0.7-0.8,1.2-1.1s1.1-0.4,1.8-0.4
			c2.1,0,3.1,1.1,3.2,3.3v6.4h-1.6v-6.3c0-0.7-0.2-1.2-0.5-1.5c-0.3-0.3-0.8-0.5-1.6-0.5c-0.6,0-1.1,0.2-1.5,0.5
			c-0.4,0.4-0.6,0.8-0.7,1.5v6.3h-1.6v-6.2c0-1.4-0.7-2.1-2-2.1c-1.1,0-1.8,0.5-2.2,1.4v6.9h-1.6v-9.5H379.4z"/>
		<path d="M396.8,1823l2.2-7.1h1.7l-3.8,11c-0.6,1.6-1.5,2.4-2.8,2.4l-0.3,0l-0.6-0.1v-1.3l0.4,0c0.6,0,1-0.1,1.3-0.3
			s0.6-0.6,0.8-1.2l0.4-1l-3.4-9.4h1.8L396.8,1823z"/>
	</g>
	<path id="Tracé_237" class="st2" d="M285.5,1730.9h127"/>
	<g id="Groupe_215" transform="translate(10712.604 2827.346)">
		<g id="Groupe_30" transform="translate(-10359.435 -1337.268)">
			<g>
				<defs>
					<rect id="SVGID_1_" x="0" y="-70.6" width="50.8" height="161.9"/>
				</defs>
				<clipPath id="SVGID_00000062158863161713796440000017259725260631342480_">
					<use xlink:href="#SVGID_1_"  style="overflow:visible;"/>
				</clipPath>
				<g id="Groupe_29" style="clip-path:url(#SVGID_00000062158863161713796440000017259725260631342480_);">
					<g id="Groupe_28" transform="translate(-29.829 15.655)">
						<g id="Groupe_27">
							<path id="Tracé_74" class="st4" d="M32,63.8C16,63.8,3,48.2,3,29.1v-0.8C3,22,3.5,15.6,4.4,9.4l0.2-1.5l54.6-3.8L59.3,6
								c0.4,5.6,0.7,9.9,1,13.3c0.4,4.2,0.6,7.2,0.6,9.9C60.9,48.2,47.9,63.8,32,63.8z M7.9,11.3C7,17,6.7,22.6,6.7,28.3l0,0.8
								c0,17.1,11.3,31,25.3,31s25.3-13.9,25.3-31c0-2.5-0.3-5.5-0.6-9.6c-0.3-3.1-0.6-6.8-0.9-11.5L7.9,11.3z"/>
							<path id="Tracé_75" class="st4" d="M4.4,9.7L0.1-56.2c0,0-1-5.4,2.8-7.8c1.3-0.9,3-1.3,4.5-0.9c0.5,0.1,0.9,0.3,1.3,0.5
								c1.1-2.1,3.1-3.5,5.4-3.8c1.8-0.3,3.6,0.2,5,1.3c1.1-2.4,3.6-3.8,6.2-3.7c2.1-0.1,4.1,0.9,5.3,2.6c1.5-1.2,3.4-1.7,5.3-1.5
								c2.6,0.3,4.1,2.6,4.8,4.6c1-0.7,2.1-1.2,3.3-1.6c1.2-0.4,2.5-0.2,3.5,0.5c0.7,0.5,1.2,1.1,1.6,1.8c1.7-0.8,3.6-0.9,5.3,0
								c4,2,4.8,8.1,4.9,8.8l0,62.2h-3.7v-62c-0.1-1-1-4.8-2.9-5.8c-1.6-0.8-3,0.7-3.2,0.9l-2.6,2.9L46.5-61
								c-0.1-0.7-0.4-1.4-0.9-1.9c-0.1,0-0.2-0.1-0.6,0c-1.5,0.5-2.8,1.3-3.8,2.5l-2.6,3.2L38-61.4c-0.2-1.5-1.2-4.4-2.5-4.5
								c-2.2-0.2-4.1,2.2-4.1,2.2l-3.1,4.1l-0.3-5.1C28-66,26.9-67,25.6-67c-0.1,0-0.2,0-0.2,0c-2.9,0-3.4,3-3.5,3.5L21.4-59
								l-2.8-3.4c-0.5-0.6-2.3-2.3-3.7-2.1c-1.9,0.2-3.3,1.7-3.3,3.6l0.1,7.2L8.1-60c-0.4-0.6-0.9-1.1-1.6-1.3
								c-0.6-0.1-1.2,0-1.7,0.4c-1.6,1.1-1.1,4.2-1.1,4.3L8.1,9.5L4.4,9.7z"/>
							
								<rect id="Rectangle_29" x="18.9" y="-64.1" transform="matrix(0.9993 -3.801055e-02 3.801055e-02 0.9993 1.4431 0.761)" class="st4" width="3.7" height="53"/>
							
								<rect id="Rectangle_30" x="9" y="-61.5" transform="matrix(0.9993 -3.830061e-02 3.830061e-02 0.9993 1.2564 0.392)" class="st4" width="3.7" height="57.9"/>
							
								<rect id="Rectangle_31" x="28.9" y="-65.6" transform="matrix(0.9993 -3.831805e-02 3.831805e-02 0.9993 1.5993 1.1457)" class="st4" width="3.7" height="48.9"/>
							
								<rect id="Rectangle_32" x="38.7" y="-62" transform="matrix(0.9993 -3.828317e-02 3.828317e-02 0.9993 1.624 1.5196)" class="st4" width="3.7" height="40.8"/>
							
								<rect id="Rectangle_33" x="47.3" y="-61.5" transform="matrix(0.9993 -3.801055e-02 3.801055e-02 0.9993 1.6777 1.836)" class="st4" width="3.7" height="36.6"/>
						</g>
						<path id="Tracé_76" class="st4" d="M17.9,30.4l-0.7-3.6c6.3-1.2,9.8-0.1,10.1,0.1l-1.2,3.5C26.1,30.3,23.3,29.4,17.9,30.4z"
							/>
						<path id="Tracé_77" class="st4" d="M45.5,30.2c0,0-2.8-1.1-8.1-0.1l-0.7-3.6c6.4-1.2,9.8,0.2,10.2,0.4L45.5,30.2z"/>
						<path id="Tracé_78" class="st4" d="M33,51.9c-3.6,0-7.1-1.8-9.9-5.1l2.8-2.4c2.2,2.6,4.8,3.8,7.4,3.8
							c2.9-0.3,5.5-1.9,7.1-4.3l3,2.1c-2.2,3.4-5.9,5.6-10,5.9C33.3,51.9,33.1,51.9,33,51.9z"/>
						<circle id="Ellipse_27" class="st4" cx="23.1" cy="31.2" r="2"/>
						<circle id="Ellipse_28" class="st4" cx="40.5" cy="31.5" r="2"/>
					</g>
				</g>
			</g>
		</g>
		<path id="Tracé_79" class="st4" d="M-10359.4-1266.4c-5.5,0-9.8-2.6-9.8-5.9s4.3-5.9,9.8-5.9v1.8c-4.8,0-7.9,2.1-7.9,4
			s3.2,4,7.9,4V-1266.4z"/>
		<path id="Tracé_80" class="st4" d="M-10372.5-1290.6l-1.4-1.2c2.8-3.2,6.5-4,10.7-2.3l-0.7,1.7
			C-10367.2-1293.8-10370.1-1293.2-10372.5-1290.6z"/>
		<circle id="Ellipse_29" class="st4" cx="-10365.9" cy="-1290.9" r="2.5"/>
		<path id="Tracé_81" class="st4" d="M-10360.3-1257.9c-4.5,0-9.6-2.3-13.7-6.3c-4.8-4.6-12.7-15.6-11.6-37.5l3.7,0.2
			c-1.1,20.4,6.1,30.4,10.4,34.6c3.8,3.6,8.3,5.6,12.1,5.2l0.4,3.7C-10359.4-1257.9-10359.8-1257.9-10360.3-1257.9z"/>
		<path id="Tracé_82" class="st4" d="M-10391.7-1288.9l-0.6-4.9c-2.1-16.5,0.2-28.7,6.8-36.3c5.5-6.3,14.1-9.5,25.6-9.5h1.8l0,1.8
			c0.2,20,0,29.2,0,29.3l0,0.9l-0.7,0.5c-1.2,0.9-3,1-5.7,1.2c-6.3,0.5-16.9,1.2-24.4,12.7L-10391.7-1288.9z M-10361.8-1335.9
			c-9.5,0.3-16.4,3-21,8.2c-5.3,6-7.5,15.7-6.4,28.8c8.2-9.4,18.5-10.2,24.4-10.6c1-0.1,2.3-0.2,3-0.3
			C-10361.7-1312.8-10361.6-1321.2-10361.8-1335.9L-10361.8-1335.9z"/>
		<path id="Tracé_83" class="st5" d="M-10406.5-1337.7"/>
		<path id="Tracé_84" class="st4" d="M-10374.1-1258.4c-0.8,0-1.6-0.2-2.3-0.7c-0.4-0.2-0.8-0.6-1.4-1c-1.4-1.1-2.9-2.1-4.4-2.9
			c-0.7,2.5-3.9,3.8-6.9,4.1c-1.7,0.2-3.7,0.2-4.3-1.5c-0.2-0.6,0-1.4,0.4-1.9c-0.8-1.3-3.7-4.2-10.4-9.4c-1.1-0.7-1.7-2-1.6-3.3
			c0.2-2.9,4-5.2,8.9-7.9c0.7-0.4,1.4-0.8,2-1.1c2.7-1.6,5.4-5.2,7.8-8.4l1.1-1.5l2.9,2.2l-1.1,1.4c-2.6,3.5-5.5,7.4-8.9,9.4
			c-0.6,0.3-1.3,0.7-2.1,1.2c-1.8,1-6.8,3.7-7,5c9.9,7.6,11.9,10.5,12.2,12c1.1-0.1,2.1-0.5,3-1.1c0.2-0.2,0.3-0.3,0.3-0.4
			c0-1.1,0.6-2.1,1.6-2.6c2.1-1,4.9,0.9,8.5,3.6c0.5,0.4,0.9,0.7,1.2,0.9c0.4,0.3,2.4-0.6,3.9-1.9l2.4,2.8
			C-10368.6-1260.7-10371.4-1258.4-10374.1-1258.4z"/>
		<rect id="Rectangle_35" x="-10360.1" y="-1398" class="st4" width="1.8" height="152"/>
		<path id="Tracé_85" class="st4" d="M-10382.5-1316.5l-1.8-0.6c2.4-7.3,11.3-12.1,23.7-12.8l0.1,1.8
			C-10372.1-1327.4-10380.3-1323-10382.5-1316.5z"/>
		<path id="Tracé_86" class="st4" d="M-10382.7-1310.9l-1.5-1.1c4.5-5.8,9.6-9.1,23.5-9.9l0.1,1.8
			C-10373.8-1319.3-10378.5-1316.3-10382.7-1310.9z"/>
	</g>
</g>
</svg>
