<?xml version="1.0" encoding="utf-8"?>
<!-- Generator: Adobe Illustrator 25.4.1, SVG Export Plug-In . SVG Version: 6.00 Build 0)  -->
<svg version="1.1" id="Calque_1" xmlns="http://www.w3.org/2000/svg" xmlns:xlink="http://www.w3.org/1999/xlink" x="0px" y="0px"
	 viewBox="0 0 375 386.3" style="enable-background:new 0 0 375 386.3;" xml:space="preserve">
<style type="text/css">
	.st0{fill:#F8C618;}
	.st1{fill:none;}
	.st2{fill:none;stroke:#000000;stroke-width:2;}
	.st3{enable-background:new    ;}
	.st4{clip-path:url(#SVGID_00000152247609476510544640000003348295360211007129_);}
	.st5{fill:#1D1D1B;}
	.st6{fill:none;stroke:#1D1D1B;stroke-miterlimit:10;}
</style>
<g id="_1" transform="translate(-160.048 -1366)">
	<circle id="Ellipse_112" class="st0" cx="355" cy="1510.3" r="57"/>
	<g id="Rectangle_84" transform="translate(175.048 1482)">
		<path class="st1" d="M80-70.7h200c44.2,0,80,35.8,80,80v181c0,44.2-35.8,80-80,80H80c-44.2,0-80-35.8-80-80V9.3
			C0-34.9,35.8-70.7,80-70.7z"/>
		<path class="st2" d="M80-69.7h200c43.6,0,79,35.4,79,79v181c0,43.6-35.4,79-79,79H80c-43.6,0-79-35.4-79-79V9.3
			C1-34.3,36.4-69.7,80-69.7z"/>
	</g>
	<g class="st3">
		<path class="st0" d="M182.1,1433c3.8,0,7.3-0.4,10.3-1.1c3-0.7,4.5-1.8,4.5-3.2c0-0.9-0.3-1.7-0.9-2.2c-4,1.4-8.3,2.1-13,2.1
			c-6.4,0-11.8-2.2-16.1-6.6s-6.5-10.7-6.5-19c0-5.5,1.1-10.8,3.4-15.9c8.2-1,14.6-2.6,19.1-4.9c6.4-3.3,11.8-8.5,16.4-15.7h17.5
			c5.6,0,9.7,1,12.4,3.1c3.1,2.5,4.7,7,4.7,13.4v103.7c-3.3,3.1-7.2,5.4-11.6,7s-8.9,2.4-13.5,2.4c-7.6,0-13.8-1.8-18.6-5.5
			c-5.4-4.1-8.1-10.1-8.1-18V1433z"/>
	</g>
	<g class="st3">
		<path d="M275.3,1600.8h-6.2l-1.2,3.5h-3.7l6.4-17.1h3.3l6.4,17.1h-3.7L275.3,1600.8z M270,1598h4.3l-2.1-6.4L270,1598z"/>
		<path d="M281,1597.9c0-2,0.4-3.6,1.3-4.7s2.1-1.8,3.6-1.8c1.2,0,2.3,0.5,3.1,1.4v-6.5h3.4v18h-3.1l-0.2-1.3
			c-0.8,1.1-1.9,1.6-3.3,1.6c-1.5,0-2.7-0.6-3.6-1.8S281,1600,281,1597.9z M284.4,1598.1c0,1.2,0.2,2.1,0.6,2.7c0.4,0.6,1,1,1.8,1
			c1,0,1.8-0.4,2.2-1.3v-5c-0.4-0.9-1.2-1.3-2.2-1.3C285.2,1594.2,284.4,1595.5,284.4,1598.1z"/>
		<path d="M294.5,1597.9c0-1.3,0.2-2.4,0.7-3.4s1.2-1.7,2.1-2.3s2-0.8,3.2-0.8c1.7,0,3.1,0.5,4.2,1.6s1.7,2.5,1.8,4.3l0,0.9
			c0,1.9-0.5,3.5-1.6,4.7s-2.5,1.8-4.4,1.8s-3.3-0.6-4.4-1.8s-1.6-2.8-1.6-4.8V1597.9z M297.9,1598.1c0,1.2,0.2,2.1,0.7,2.8
			c0.5,0.6,1.1,1,1.9,1c0.8,0,1.5-0.3,1.9-0.9c0.5-0.6,0.7-1.6,0.7-3c0-1.2-0.2-2.1-0.7-2.7s-1.1-1-1.9-1c-0.8,0-1.5,0.3-1.9,1
			S297.9,1596.8,297.9,1598.1z"/>
		<path d="M320.1,1598.1c0,2-0.4,3.5-1.3,4.7s-2.1,1.8-3.6,1.8c-1.3,0-2.3-0.4-3.1-1.3v6h-3.4v-17.6h3.1l0.1,1.2
			c0.8-1,1.9-1.5,3.2-1.5c1.6,0,2.8,0.6,3.6,1.7s1.3,2.8,1.3,4.8V1598.1z M316.7,1597.9c0-1.2-0.2-2.1-0.6-2.7s-1-1-1.8-1
			c-1.1,0-1.8,0.4-2.2,1.2v5.2c0.4,0.8,1.2,1.3,2.2,1.3C315.9,1601.8,316.7,1600.5,316.7,1597.9z"/>
		<path d="M326.2,1588.5v3.1h2.2v2.5h-2.2v6.3c0,0.5,0.1,0.8,0.3,1s0.5,0.3,1,0.3c0.4,0,0.7,0,1-0.1v2.6c-0.7,0.2-1.3,0.3-2.1,0.3
			c-2.4,0-3.6-1.2-3.6-3.6v-6.8H321v-2.5h1.9v-3.1H326.2z"/>
		<path d="M336.1,1604.6c-1.9,0-3.4-0.6-4.5-1.7s-1.8-2.7-1.8-4.6v-0.3c0-1.3,0.2-2.4,0.7-3.4s1.2-1.8,2.1-2.3s1.9-0.8,3.1-0.8
			c1.7,0,3.1,0.5,4.1,1.6s1.5,2.6,1.5,4.7v1.4h-8.1c0.1,0.8,0.4,1.5,1,2s1.2,0.8,2.1,0.8c1.3,0,2.3-0.5,3.1-1.4l1.7,1.9
			c-0.5,0.7-1.2,1.3-2.1,1.7S337.2,1604.6,336.1,1604.6z M335.7,1594.1c-0.7,0-1.2,0.2-1.6,0.7s-0.7,1.1-0.8,2h4.7v-0.3
			c0-0.8-0.2-1.3-0.6-1.7S336.4,1594.1,335.7,1594.1z"/>
		<path d="M356.8,1603c-0.8,1-2,1.5-3.5,1.5c-1.4,0-2.4-0.4-3.1-1.2s-1.1-1.9-1.1-3.4v-8.3h3.4v8.2c0,1.3,0.6,2,1.8,2
			c1.1,0,1.9-0.4,2.4-1.2v-9h3.4v12.7h-3.2L356.8,1603z"/>
		<path d="M365.8,1591.7l0.1,1.5c0.9-1.1,2.1-1.7,3.6-1.7c1.3,0,2.3,0.4,3,1.2s1,2,1,3.5v8.2h-3.4v-8.1c0-0.7-0.2-1.2-0.5-1.6
			s-0.8-0.5-1.6-0.5c-1,0-1.7,0.4-2.1,1.2v8.9h-3.4v-12.7H365.8z"/>
		<path d="M388.9,1600.8c0-0.4-0.2-0.7-0.6-1s-1.1-0.5-2-0.6c-3-0.6-4.5-1.9-4.5-3.8c0-1.1,0.5-2.1,1.4-2.8s2.2-1.1,3.7-1.1
			c1.6,0,2.9,0.4,3.9,1.1s1.4,1.7,1.4,3h-3.4c0-0.5-0.2-0.9-0.5-1.2s-0.8-0.5-1.5-0.5c-0.6,0-1,0.1-1.3,0.4s-0.5,0.6-0.5,1
			c0,0.4,0.2,0.7,0.5,0.9s1,0.4,1.8,0.6s1.6,0.4,2.1,0.6c1.8,0.7,2.7,1.8,2.7,3.4c0,1.2-0.5,2.1-1.5,2.8s-2.3,1.1-3.8,1.1
			c-1.1,0-2-0.2-2.8-0.6s-1.5-0.9-1.9-1.6s-0.7-1.4-0.7-2.1h3.2c0,0.6,0.3,1.1,0.7,1.4s1,0.5,1.7,0.5c0.6,0,1.1-0.1,1.5-0.4
			S388.9,1601.2,388.9,1600.8z"/>
		<path d="M398.5,1588.5v3.1h2.2v2.5h-2.2v6.3c0,0.5,0.1,0.8,0.3,1s0.5,0.3,1,0.3c0.4,0,0.7,0,1-0.1v2.6c-0.7,0.2-1.3,0.3-2.1,0.3
			c-2.4,0-3.6-1.2-3.6-3.6v-6.8h-1.9v-2.5h1.9v-3.1H398.5z"/>
		<path d="M407.2,1599.5l2.3-7.9h3.6l-5.1,14.6l-0.3,0.7c-0.8,1.7-2,2.5-3.8,2.5c-0.5,0-1-0.1-1.5-0.2v-2.6l0.5,0
			c0.6,0,1.1-0.1,1.4-0.3s0.6-0.5,0.7-1l0.4-1l-4.4-12.7h3.6L407.2,1599.5z"/>
		<path d="M418.1,1604.3h-3.4v-18h3.4V1604.3z"/>
		<path d="M426.8,1604.6c-1.9,0-3.4-0.6-4.5-1.7s-1.8-2.7-1.8-4.6v-0.3c0-1.3,0.2-2.4,0.7-3.4s1.2-1.8,2.1-2.3s1.9-0.8,3.1-0.8
			c1.7,0,3.1,0.5,4.1,1.6s1.5,2.6,1.5,4.7v1.4h-8.1c0.1,0.8,0.4,1.5,1,2s1.2,0.8,2.1,0.8c1.3,0,2.3-0.5,3.1-1.4l1.7,1.9
			c-0.5,0.7-1.2,1.3-2.1,1.7S427.8,1604.6,426.8,1604.6z M426.4,1594.1c-0.7,0-1.2,0.2-1.6,0.7s-0.7,1.1-0.8,2h4.7v-0.3
			c0-0.8-0.2-1.3-0.6-1.7S427.1,1594.1,426.4,1594.1z"/>
	</g>
	<path id="Tracé_237" class="st2" d="M355,1624.3v98.6"/>
	<g id="Groupe_215" transform="translate(10713.604 2827.346)">
		<g id="Groupe_30" transform="translate(-10359.435 -1337.268)">
			<g>
				<defs>
					<rect id="SVGID_1_" x="0" y="-70.7" width="50.8" height="161.9"/>
				</defs>
				<clipPath id="SVGID_00000104673213217489177520000002268036835490816420_">
					<use xlink:href="#SVGID_1_"  style="overflow:visible;"/>
				</clipPath>
				<g id="Groupe_29" style="clip-path:url(#SVGID_00000104673213217489177520000002268036835490816420_);">
					<g id="Groupe_28" transform="translate(-29.829 15.655)">
						<g id="Groupe_27">
							<path id="Tracé_74" class="st5" d="M32,63.7C16,63.7,3,48.2,3,29.1v-0.8c0-6.3,0.4-12.7,1.4-18.9l0.2-1.5l54.6-3.8l0.1,1.8
								c0.4,5.6,0.7,9.9,1,13.3c0.4,4.2,0.6,7.2,0.6,9.9C60.9,48.2,47.9,63.7,32,63.7z M7.9,11.3c-0.8,5.6-1.2,11.3-1.2,17l0,0.8
								c0,17.1,11.3,31,25.3,31s25.3-13.9,25.3-31c0-2.5-0.3-5.5-0.6-9.6c-0.3-3.1-0.6-6.8-0.9-11.5L7.9,11.3z"/>
							<path id="Tracé_75" class="st5" d="M4.4,9.7L0.1-56.2c0,0-1-5.4,2.8-7.8c1.3-0.9,3-1.3,4.5-0.9c0.5,0.1,0.9,0.3,1.3,0.5
								c1.1-2.1,3.1-3.5,5.4-3.8c1.8-0.3,3.6,0.2,5,1.3c1.1-2.4,3.6-3.8,6.2-3.7c2.1-0.1,4.1,0.9,5.3,2.6c1.5-1.2,3.4-1.7,5.3-1.5
								c2.6,0.3,4.1,2.6,4.8,4.6c1-0.7,2.1-1.2,3.3-1.6c1.2-0.4,2.5-0.2,3.5,0.5c0.7,0.5,1.2,1.1,1.6,1.8c1.7-0.8,3.6-0.9,5.3,0
								c4,2,4.8,8.1,4.9,8.8l0,62.2h-3.7v-62c-0.1-1-1-4.8-2.9-5.8c-1.6-0.8-3,0.7-3.2,0.9l-2.6,2.9l-0.5-3.9
								c-0.1-0.7-0.4-1.4-0.9-1.9c-0.1,0-0.2-0.1-0.6,0c-1.5,0.5-2.8,1.3-3.8,2.5l-2.6,3.2L38-61.4c-0.2-1.5-1.2-4.4-2.5-4.5
								c-2.2-0.2-4.1,2.2-4.1,2.2l-3.1,4.1l-0.3-5.1C28-66,26.9-67.1,25.6-67c-0.1,0-0.2,0-0.2,0c-2.9,0-3.4,3-3.5,3.5l-0.5,4.4
								l-2.8-3.4c-0.5-0.6-2.3-2.3-3.7-2.1c-1.9,0.2-3.3,1.7-3.3,3.6l0.1,7.2l-3.5-6.3c-0.4-0.6-0.9-1.1-1.6-1.3
								c-0.6-0.1-1.2,0-1.7,0.4c-1.6,1.1-1.1,4.2-1.1,4.3L8.1,9.4L4.4,9.7z"/>
							
								<rect id="Rectangle_29" x="18.9" y="-64.1" transform="matrix(0.9993 -3.801055e-02 3.801055e-02 0.9993 1.4446 0.761)" class="st5" width="3.7" height="53"/>
							
								<rect id="Rectangle_30" x="9" y="-61.6" transform="matrix(0.9993 -3.830061e-02 3.830061e-02 0.9993 1.2579 0.392)" class="st5" width="3.7" height="57.9"/>
							
								<rect id="Rectangle_31" x="28.9" y="-65.7" transform="matrix(0.9993 -3.831805e-02 3.831805e-02 0.9993 1.6008 1.1457)" class="st5" width="3.7" height="48.9"/>
							
								<rect id="Rectangle_32" x="38.7" y="-62.1" transform="matrix(0.9993 -3.828317e-02 3.828317e-02 0.9993 1.6256 1.5195)" class="st5" width="3.7" height="40.8"/>
							
								<rect id="Rectangle_33" x="47.3" y="-61.6" transform="matrix(0.9993 -3.801055e-02 3.801055e-02 0.9993 1.6792 1.836)" class="st5" width="3.7" height="36.6"/>
						</g>
						<path id="Tracé_76" class="st5" d="M17.9,30.3l-0.7-3.6c6.3-1.2,9.8-0.1,10.1,0.1l-1.2,3.5C26.1,30.2,23.3,29.3,17.9,30.3z"
							/>
						<path id="Tracé_77" class="st5" d="M45.5,30.2c0,0-2.8-1.1-8.1-0.1l-0.7-3.6c6.4-1.2,9.8,0.2,10.2,0.4L45.5,30.2z"/>
						<path id="Tracé_78" class="st5" d="M33,51.9c-3.6,0-7.1-1.8-9.9-5.1l2.8-2.4c2.2,2.6,4.8,3.8,7.4,3.8
							c2.9-0.3,5.5-1.9,7.1-4.3l3,2.1c-2.2,3.4-5.9,5.6-10,5.9C33.3,51.9,33.1,51.9,33,51.9z"/>
						<circle id="Ellipse_27" class="st5" cx="23.1" cy="31.2" r="2"/>
						<circle id="Ellipse_28" class="st5" cx="40.5" cy="31.4" r="2"/>
					</g>
				</g>
			</g>
		</g>
		<path id="Tracé_79" class="st5" d="M-10359.4-1266.4c-5.5,0-9.8-2.6-9.8-5.9s4.3-5.9,9.8-5.9v1.8c-4.8,0-7.9,2.1-7.9,4
			s3.2,4,7.9,4V-1266.4z"/>
		<path id="Tracé_80" class="st5" d="M-10372.5-1290.7l-1.4-1.2c2.8-3.2,6.5-4,10.7-2.3l-0.7,1.7
			C-10367.2-1293.9-10370.1-1293.2-10372.5-1290.7z"/>
		<circle id="Ellipse_29" class="st5" cx="-10365.9" cy="-1290.9" r="2.5"/>
		<path id="Tracé_81" class="st5" d="M-10360.3-1257.9c-4.5,0-9.6-2.3-13.7-6.3c-4.8-4.6-12.7-15.6-11.6-37.5l3.7,0.2
			c-1.1,20.4,6.1,30.4,10.4,34.6c3.8,3.6,8.3,5.6,12.1,5.2l0.4,3.7C-10359.4-1257.9-10359.8-1257.9-10360.3-1257.9z"/>
		<path id="Tracé_82" class="st5" d="M-10391.7-1289l-0.6-4.9c-2.1-16.5,0.2-28.7,6.8-36.3c5.5-6.3,14.1-9.5,25.6-9.5h1.8l0,1.8
			c0.2,20,0,29.2,0,29.3l0,0.9l-0.7,0.5c-1.2,0.9-3,1-5.7,1.2c-6.3,0.5-16.9,1.2-24.4,12.7L-10391.7-1289z M-10361.8-1335.9
			c-9.5,0.3-16.4,3-21,8.2c-5.3,6-7.5,15.7-6.4,28.8c8.2-9.4,18.5-10.2,24.4-10.6c1-0.1,2.3-0.2,3-0.3
			C-10361.7-1312.8-10361.6-1321.2-10361.8-1335.9L-10361.8-1335.9z"/>
		<path id="Tracé_83" class="st6" d="M-10406.5-1337.8"/>
		<path id="Tracé_84" class="st5" d="M-10374.1-1258.5c-0.8,0-1.6-0.2-2.3-0.7c-0.4-0.2-0.8-0.6-1.4-1c-1.4-1.1-2.9-2.1-4.4-2.9
			c-0.7,2.5-3.9,3.8-6.9,4.1c-1.7,0.2-3.7,0.2-4.3-1.5c-0.2-0.6,0-1.4,0.4-1.9c-0.8-1.3-3.7-4.2-10.4-9.4c-1.1-0.7-1.7-2-1.6-3.3
			c0.2-2.9,4-5.2,8.9-7.9c0.7-0.4,1.4-0.8,2-1.1c2.7-1.6,5.4-5.2,7.8-8.4l1.1-1.5l2.9,2.2l-1.1,1.4c-2.6,3.5-5.5,7.4-8.9,9.4
			c-0.6,0.3-1.3,0.7-2.1,1.2c-1.8,1-6.8,3.7-7,5c9.9,7.6,11.9,10.5,12.2,12c1.1-0.1,2.1-0.5,3-1.1c0.2-0.2,0.3-0.3,0.3-0.4
			c0-1.1,0.6-2.1,1.6-2.6c2.1-1,4.9,0.9,8.5,3.6c0.5,0.4,0.9,0.7,1.2,0.9c0.4,0.3,2.4-0.6,3.9-1.9l2.4,2.8
			C-10368.6-1260.7-10371.4-1258.5-10374.1-1258.5z"/>
		<rect id="Rectangle_35" x="-10360.1" y="-1390" class="st5" width="1.8" height="136"/>
		<path id="Tracé_85" class="st5" d="M-10382.5-1316.5l-1.8-0.6c2.4-7.3,11.3-12.1,23.7-12.8l0.1,1.8
			C-10372.1-1327.4-10380.3-1323.1-10382.5-1316.5z"/>
		<path id="Tracé_86" class="st5" d="M-10382.7-1311l-1.5-1.1c4.5-5.8,9.6-9.1,23.5-9.9l0.1,1.8
			C-10373.8-1319.4-10378.5-1316.3-10382.7-1311z"/>
	</g>
	<g class="st3">
		<path d="M218.1,1639.7h5.4v1.2h-6.9v-11.4h1.5V1639.7z"/>
		<path d="M228.5,1641.1c-1.1,0-2.1-0.4-2.8-1.1s-1.1-1.8-1.1-3v-0.3c0-0.8,0.2-1.6,0.5-2.2s0.8-1.2,1.3-1.5
			c0.6-0.4,1.2-0.6,1.9-0.6c1.1,0,2,0.4,2.6,1.1s0.9,1.8,0.9,3.1v0.6h-5.7c0,0.8,0.3,1.5,0.7,2c0.5,0.5,1.1,0.8,1.8,0.8
			c0.5,0,0.9-0.1,1.3-0.3c0.4-0.2,0.7-0.5,0.9-0.8l0.9,0.7C231,1640.6,229.9,1641.1,228.5,1641.1z M228.3,1633.5
			c-0.6,0-1.1,0.2-1.5,0.6c-0.4,0.4-0.6,1-0.7,1.8h4.2v-0.1c0-0.7-0.2-1.3-0.6-1.7C229.4,1633.7,228.9,1633.5,228.3,1633.5z"/>
		<path d="M244.6,1636.8c0,1.3-0.3,2.3-0.9,3.1c-0.6,0.8-1.4,1.2-2.4,1.2c-1,0-1.8-0.3-2.4-1v4.1h-1.4v-11.7h1.3l0.1,0.9
			c0.6-0.7,1.4-1.1,2.5-1.1c1,0,1.8,0.4,2.4,1.1c0.6,0.8,0.9,1.8,0.9,3.2V1636.8z M243.1,1636.7c0-1-0.2-1.7-0.6-2.3s-1-0.8-1.7-0.8
			c-0.9,0-1.5,0.4-2,1.2v4c0.4,0.8,1.1,1.2,2,1.2c0.7,0,1.2-0.3,1.7-0.8C242.9,1638.6,243.1,1637.7,243.1,1636.7z"/>
		<path d="M250.5,1633.8c-0.2,0-0.5-0.1-0.7-0.1c-0.9,0-1.6,0.4-1.9,1.2v6h-1.4v-8.5h1.4l0,1c0.5-0.8,1.1-1.1,2-1.1
			c0.3,0,0.5,0,0.6,0.1V1633.8z"/>
		<path d="M255.2,1641.1c-1.1,0-2.1-0.4-2.8-1.1s-1.1-1.8-1.1-3v-0.3c0-0.8,0.2-1.6,0.5-2.2s0.8-1.2,1.3-1.5
			c0.6-0.4,1.2-0.6,1.9-0.6c1.1,0,2,0.4,2.6,1.1s0.9,1.8,0.9,3.1v0.6h-5.7c0,0.8,0.3,1.5,0.7,2c0.5,0.5,1.1,0.8,1.8,0.8
			c0.5,0,0.9-0.1,1.3-0.3c0.4-0.2,0.7-0.5,0.9-0.8l0.9,0.7C257.7,1640.6,256.6,1641.1,255.2,1641.1z M257.4,1631.1L257.4,1631.1
			l-1.2,0.1l-1.2-1.3l-1.2,1.3l-1.2,0v-0.1l1.9-2.1h0.9L257.4,1631.1z M255,1633.5c-0.6,0-1.1,0.2-1.5,0.6c-0.4,0.4-0.6,1-0.7,1.8
			h4.2v-0.1c0-0.7-0.2-1.3-0.6-1.7C256.1,1633.7,255.6,1633.5,255,1633.5z"/>
		<path d="M262.1,1630.5v2h1.6v1.1h-1.6v5.2c0,0.3,0.1,0.6,0.2,0.8c0.1,0.2,0.4,0.3,0.7,0.3c0.2,0,0.4,0,0.7-0.1v1.2
			c-0.4,0.1-0.8,0.2-1.1,0.2c-0.6,0-1.1-0.2-1.5-0.6s-0.5-0.9-0.5-1.7v-5.2h-1.5v-1.1h1.5v-2H262.1z"/>
		<path d="M268.4,1636.7h-3.8v-1.2h3.8V1636.7z"/>
		<path d="M275,1641c-0.1-0.2-0.2-0.5-0.2-0.9c-0.7,0.7-1.5,1-2.4,1c-0.8,0-1.5-0.2-2.1-0.7c-0.5-0.5-0.8-1.1-0.8-1.8
			c0-0.9,0.3-1.6,1-2.1c0.7-0.5,1.6-0.7,2.8-0.7h1.4v-0.7c0-0.5-0.2-0.9-0.5-1.2c-0.3-0.3-0.7-0.4-1.3-0.4c-0.5,0-0.9,0.1-1.3,0.4
			c-0.3,0.3-0.5,0.6-0.5,0.9h-1.5c0-0.4,0.1-0.8,0.4-1.2c0.3-0.4,0.7-0.7,1.2-0.9c0.5-0.2,1.1-0.3,1.7-0.3c1,0,1.7,0.2,2.3,0.7
			c0.6,0.5,0.8,1.2,0.9,2v3.9c0,0.8,0.1,1.4,0.3,1.9v0.1H275z M274.1,1631.2l-1.2,0l-2-2.3h1.7L274.1,1631.2z M272.6,1639.9
			c0.5,0,0.9-0.1,1.3-0.4s0.7-0.5,0.9-0.9v-1.7h-1.1c-1.8,0-2.7,0.5-2.7,1.6c0,0.5,0.2,0.8,0.5,1.1
			C271.8,1639.7,272.2,1639.9,272.6,1639.9z"/>
		<path d="M281.5,1636.7h-3.8v-1.2h3.8V1636.7z"/>
		<path d="M286.3,1639.9c0.5,0,1-0.2,1.4-0.5c0.4-0.3,0.6-0.7,0.6-1.2h1.4c0,0.5-0.2,0.9-0.5,1.4c-0.3,0.4-0.7,0.8-1.2,1
			c-0.5,0.3-1.1,0.4-1.6,0.4c-1.2,0-2.1-0.4-2.7-1.2s-1-1.8-1-3.2v-0.2c0-0.8,0.2-1.6,0.5-2.2c0.3-0.6,0.7-1.1,1.3-1.5
			c0.6-0.4,1.2-0.5,2-0.5c0.9,0,1.7,0.3,2.4,0.9c0.6,0.6,1,1.3,1,2.2h-1.4c0-0.5-0.2-1-0.6-1.3c-0.4-0.4-0.8-0.5-1.4-0.5
			c-0.7,0-1.3,0.3-1.7,0.8c-0.4,0.5-0.6,1.3-0.6,2.3v0.3c0,1,0.2,1.7,0.6,2.2C285,1639.7,285.6,1639.9,286.3,1639.9z"/>
		<path d="M296.5,1640.1c-0.6,0.7-1.4,1-2.5,1c-0.9,0-1.6-0.3-2.1-0.8c-0.5-0.5-0.7-1.3-0.7-2.3v-5.5h1.4v5.5c0,1.3,0.5,1.9,1.6,1.9
			c1.1,0,1.8-0.4,2.2-1.2v-6.1h1.4v8.5h-1.4L296.5,1640.1z"/>
		<path d="M300.1,1630.3c0-0.2,0.1-0.4,0.2-0.6c0.1-0.2,0.4-0.2,0.6-0.2s0.5,0.1,0.6,0.2c0.1,0.2,0.2,0.4,0.2,0.6s-0.1,0.4-0.2,0.6
			c-0.1,0.2-0.4,0.2-0.6,0.2s-0.5-0.1-0.6-0.2C300.2,1630.7,300.1,1630.5,300.1,1630.3z M301.7,1641h-1.4v-8.5h1.4V1641z"/>
		<path d="M308.9,1638.7c0-0.4-0.1-0.7-0.4-0.9c-0.3-0.2-0.8-0.4-1.5-0.6c-0.7-0.2-1.3-0.3-1.7-0.6s-0.7-0.5-1-0.8
			c-0.2-0.3-0.3-0.7-0.3-1.1c0-0.7,0.3-1.3,0.9-1.8s1.3-0.7,2.2-0.7c1,0,1.7,0.2,2.3,0.7c0.6,0.5,0.9,1.1,0.9,1.9h-1.5
			c0-0.4-0.2-0.7-0.5-1s-0.8-0.4-1.3-0.4c-0.5,0-0.9,0.1-1.2,0.3s-0.4,0.5-0.4,0.9c0,0.3,0.1,0.6,0.4,0.8c0.3,0.2,0.8,0.3,1.5,0.5
			c0.7,0.2,1.3,0.4,1.8,0.6c0.4,0.2,0.8,0.5,1,0.8c0.2,0.3,0.3,0.7,0.3,1.2c0,0.8-0.3,1.4-0.9,1.8c-0.6,0.5-1.4,0.7-2.4,0.7
			c-0.7,0-1.3-0.1-1.8-0.4c-0.5-0.2-0.9-0.6-1.2-1c-0.3-0.4-0.4-0.9-0.4-1.4h1.4c0,0.5,0.2,0.9,0.6,1.2c0.4,0.3,0.8,0.4,1.4,0.4
			c0.5,0,1-0.1,1.3-0.3C308.8,1639.4,308.9,1639.1,308.9,1638.7z"/>
		<path d="M312.3,1630.3c0-0.2,0.1-0.4,0.2-0.6c0.1-0.2,0.4-0.2,0.6-0.2s0.5,0.1,0.6,0.2c0.1,0.2,0.2,0.4,0.2,0.6s-0.1,0.4-0.2,0.6
			c-0.1,0.2-0.4,0.2-0.6,0.2s-0.5-0.1-0.6-0.2C312.3,1630.7,312.3,1630.5,312.3,1630.3z M313.8,1641h-1.4v-8.5h1.4V1641z"/>
		<path d="M317.5,1632.5l0,1.1c0.6-0.8,1.5-1.2,2.5-1.2c1.8,0,2.7,1,2.7,3v5.6h-1.4v-5.6c0-0.6-0.1-1.1-0.4-1.4s-0.7-0.4-1.3-0.4
			c-0.5,0-0.9,0.1-1.2,0.4c-0.4,0.2-0.6,0.6-0.8,1v6h-1.4v-8.5H317.5z"/>
		<path d="M328.5,1641.1c-1.1,0-2.1-0.4-2.8-1.1s-1.1-1.8-1.1-3v-0.3c0-0.8,0.2-1.6,0.5-2.2s0.8-1.2,1.3-1.5
			c0.6-0.4,1.2-0.6,1.9-0.6c1.1,0,2,0.4,2.6,1.1s0.9,1.8,0.9,3.1v0.6H326c0,0.8,0.3,1.5,0.7,2c0.5,0.5,1.1,0.8,1.8,0.8
			c0.5,0,0.9-0.1,1.3-0.3c0.4-0.2,0.7-0.5,0.9-0.8l0.9,0.7C331,1640.6,329.9,1641.1,328.5,1641.1z M328.3,1633.5
			c-0.6,0-1.1,0.2-1.5,0.6c-0.4,0.4-0.6,1-0.7,1.8h4.2v-0.1c0-0.7-0.2-1.3-0.6-1.7C329.4,1633.7,328.9,1633.5,328.3,1633.5z"/>
		<path d="M337.5,1633.8c-0.2,0-0.5-0.1-0.7-0.1c-0.9,0-1.6,0.4-1.9,1.2v6h-1.4v-8.5h1.4l0,1c0.5-0.8,1.1-1.1,2-1.1
			c0.3,0,0.5,0,0.6,0.1V1633.8z"/>
	</g>
	<g class="st3">
		<path d="M224.2,1655.7c0-1.3,0.3-2.4,0.9-3.2s1.4-1.2,2.5-1.2c1,0,1.8,0.3,2.4,1l0.1-0.9h1.3v11.7h-1.4v-4
			c-0.6,0.6-1.4,0.9-2.3,0.9c-1,0-1.8-0.4-2.4-1.2c-0.6-0.8-0.9-1.8-0.9-3.2V1655.7z M225.7,1655.8c0,1,0.2,1.7,0.6,2.3
			c0.4,0.6,1,0.8,1.7,0.8c0.9,0,1.5-0.4,2-1.1v-4.1c-0.5-0.7-1.1-1.1-2-1.1c-0.7,0-1.3,0.3-1.7,0.8
			C225.9,1653.9,225.7,1654.7,225.7,1655.8z"/>
		<path d="M238.9,1659.1c-0.6,0.7-1.4,1-2.5,1c-0.9,0-1.6-0.3-2.1-0.8c-0.5-0.5-0.7-1.3-0.7-2.3v-5.5h1.4v5.5c0,1.3,0.5,1.9,1.6,1.9
			c1.1,0,1.8-0.4,2.2-1.2v-6.1h1.4v8.5h-1.4L238.9,1659.1z"/>
		<path d="M242.5,1649.3c0-0.2,0.1-0.4,0.2-0.6c0.1-0.2,0.4-0.2,0.6-0.2s0.5,0.1,0.6,0.2c0.1,0.2,0.2,0.4,0.2,0.6s-0.1,0.4-0.2,0.6
			c-0.1,0.2-0.4,0.2-0.6,0.2s-0.5-0.1-0.6-0.2C242.6,1649.7,242.5,1649.5,242.5,1649.3z M244.1,1660h-1.4v-8.5h1.4V1660z"/>
		<path d="M254.4,1652.8c-0.2,0-0.5-0.1-0.7-0.1c-0.9,0-1.6,0.4-1.9,1.2v6h-1.4v-8.5h1.4l0,1c0.5-0.8,1.1-1.1,2-1.1
			c0.3,0,0.5,0,0.6,0.1V1652.8z"/>
		<path d="M259.1,1660.1c-1.1,0-2.1-0.4-2.8-1.1s-1.1-1.8-1.1-3v-0.3c0-0.8,0.2-1.6,0.5-2.2s0.8-1.2,1.3-1.5
			c0.6-0.4,1.2-0.6,1.9-0.6c1.1,0,2,0.4,2.6,1.1s0.9,1.8,0.9,3.1v0.6h-5.7c0,0.8,0.3,1.5,0.7,2c0.5,0.5,1.1,0.8,1.8,0.8
			c0.5,0,0.9-0.1,1.3-0.3c0.4-0.2,0.7-0.5,0.9-0.8l0.9,0.7C261.6,1659.6,260.5,1660.1,259.1,1660.1z M258.9,1652.5
			c-0.6,0-1.1,0.2-1.5,0.6c-0.4,0.4-0.6,1-0.7,1.8h4.2v-0.1c0-0.7-0.2-1.3-0.6-1.7C260,1652.7,259.5,1652.5,258.9,1652.5z"/>
		<path d="M269,1657.7c0-0.4-0.1-0.7-0.4-0.9c-0.3-0.2-0.8-0.4-1.5-0.6c-0.7-0.2-1.3-0.3-1.7-0.6s-0.7-0.5-1-0.8
			c-0.2-0.3-0.3-0.7-0.3-1.1c0-0.7,0.3-1.3,0.9-1.8s1.3-0.7,2.2-0.7c1,0,1.7,0.2,2.3,0.7c0.6,0.5,0.9,1.1,0.9,1.9h-1.5
			c0-0.4-0.2-0.7-0.5-1s-0.8-0.4-1.3-0.4c-0.5,0-0.9,0.1-1.2,0.3s-0.4,0.5-0.4,0.9c0,0.3,0.1,0.6,0.4,0.8c0.3,0.2,0.8,0.3,1.5,0.5
			c0.7,0.2,1.3,0.4,1.8,0.6c0.4,0.2,0.8,0.5,1,0.8c0.2,0.3,0.3,0.7,0.3,1.2c0,0.8-0.3,1.4-0.9,1.8c-0.6,0.5-1.4,0.7-2.4,0.7
			c-0.7,0-1.3-0.1-1.8-0.4c-0.5-0.2-0.9-0.6-1.2-1c-0.3-0.4-0.4-0.9-0.4-1.4h1.4c0,0.5,0.2,0.9,0.6,1.2c0.4,0.3,0.8,0.4,1.4,0.4
			c0.5,0,1-0.1,1.3-0.3C268.8,1658.4,269,1658.1,269,1657.7z"/>
		<path d="M279.5,1655.8c0,1.3-0.3,2.3-0.9,3.1c-0.6,0.8-1.4,1.2-2.4,1.2c-1,0-1.8-0.3-2.4-1v4.1h-1.4v-11.7h1.3l0.1,0.9
			c0.6-0.7,1.4-1.1,2.5-1.1c1,0,1.8,0.4,2.4,1.1c0.6,0.8,0.9,1.8,0.9,3.2V1655.8z M278,1655.7c0-1-0.2-1.7-0.6-2.3s-1-0.8-1.7-0.8
			c-0.9,0-1.5,0.4-2,1.2v4c0.4,0.8,1.1,1.2,2,1.2c0.7,0,1.2-0.3,1.7-0.8C277.8,1657.6,278,1656.7,278,1655.7z"/>
		<path d="M284.8,1660.1c-1.1,0-2.1-0.4-2.8-1.1s-1.1-1.8-1.1-3v-0.3c0-0.8,0.2-1.6,0.5-2.2s0.8-1.2,1.3-1.5
			c0.6-0.4,1.2-0.6,1.9-0.6c1.1,0,2,0.4,2.6,1.1s0.9,1.8,0.9,3.1v0.6h-5.7c0,0.8,0.3,1.5,0.7,2c0.5,0.5,1.1,0.8,1.8,0.8
			c0.5,0,0.9-0.1,1.3-0.3c0.4-0.2,0.7-0.5,0.9-0.8l0.9,0.7C287.3,1659.6,286.2,1660.1,284.8,1660.1z M284.6,1652.5
			c-0.6,0-1.1,0.2-1.5,0.6c-0.4,0.4-0.6,1-0.7,1.8h4.2v-0.1c0-0.7-0.2-1.3-0.6-1.7C285.7,1652.7,285.3,1652.5,284.6,1652.5z"/>
		<path d="M293.2,1658.9c0.5,0,1-0.2,1.4-0.5c0.4-0.3,0.6-0.7,0.6-1.2h1.4c0,0.5-0.2,0.9-0.5,1.4c-0.3,0.4-0.7,0.8-1.2,1
			c-0.5,0.3-1.1,0.4-1.6,0.4c-1.2,0-2.1-0.4-2.7-1.2s-1-1.8-1-3.2v-0.2c0-0.8,0.2-1.6,0.5-2.2c0.3-0.6,0.7-1.1,1.3-1.5
			c0.6-0.4,1.2-0.5,2-0.5c0.9,0,1.7,0.3,2.4,0.9c0.6,0.6,1,1.3,1,2.2h-1.4c0-0.5-0.2-1-0.6-1.3c-0.4-0.4-0.8-0.5-1.4-0.5
			c-0.7,0-1.3,0.3-1.7,0.8c-0.4,0.5-0.6,1.3-0.6,2.3v0.3c0,1,0.2,1.7,0.6,2.2C291.9,1658.7,292.4,1658.9,293.2,1658.9z"/>
		<path d="M300.1,1649.5v2h1.6v1.1h-1.6v5.2c0,0.3,0.1,0.6,0.2,0.8c0.1,0.2,0.4,0.3,0.7,0.3c0.2,0,0.4,0,0.7-0.1v1.2
			c-0.4,0.1-0.8,0.2-1.1,0.2c-0.6,0-1.1-0.2-1.5-0.6s-0.5-0.9-0.5-1.7v-5.2h-1.5v-1.1h1.5v-2H300.1z"/>
		<path d="M306.9,1660.1c-1.1,0-2.1-0.4-2.8-1.1s-1.1-1.8-1.1-3v-0.3c0-0.8,0.2-1.6,0.5-2.2s0.8-1.2,1.3-1.5
			c0.6-0.4,1.2-0.6,1.9-0.6c1.1,0,2,0.4,2.6,1.1s0.9,1.8,0.9,3.1v0.6h-5.7c0,0.8,0.3,1.5,0.7,2c0.5,0.5,1.1,0.8,1.8,0.8
			c0.5,0,0.9-0.1,1.3-0.3c0.4-0.2,0.7-0.5,0.9-0.8l0.9,0.7C309.4,1659.6,308.3,1660.1,306.9,1660.1z M306.7,1652.5
			c-0.6,0-1.1,0.2-1.5,0.6c-0.4,0.4-0.6,1-0.7,1.8h4.2v-0.1c0-0.7-0.2-1.3-0.6-1.7C307.8,1652.7,307.3,1652.5,306.7,1652.5z"/>
		<path d="M317.8,1649.5v2h1.6v1.1h-1.6v5.2c0,0.3,0.1,0.6,0.2,0.8c0.1,0.2,0.4,0.3,0.7,0.3c0.2,0,0.4,0,0.7-0.1v1.2
			c-0.4,0.1-0.8,0.2-1.1,0.2c-0.6,0-1.1-0.2-1.5-0.6s-0.5-0.9-0.5-1.7v-5.2h-1.5v-1.1h1.5v-2H317.8z"/>
		<path d="M320.5,1655.6c0-0.8,0.2-1.6,0.5-2.2c0.3-0.7,0.8-1.2,1.4-1.5c0.6-0.4,1.2-0.5,2-0.5c1.2,0,2.1,0.4,2.8,1.2
			s1.1,1.9,1.1,3.2v0.1c0,0.8-0.2,1.6-0.5,2.2c-0.3,0.7-0.8,1.2-1.4,1.5s-1.3,0.5-2,0.5c-1.1,0-2.1-0.4-2.8-1.2s-1.1-1.9-1.1-3.2
			V1655.6z M322,1655.8c0,0.9,0.2,1.7,0.7,2.3c0.4,0.6,1,0.9,1.7,0.9c0.7,0,1.3-0.3,1.8-0.9c0.4-0.6,0.6-1.4,0.6-2.4
			c0-0.9-0.2-1.7-0.7-2.3c-0.4-0.6-1-0.9-1.8-0.9c-0.7,0-1.3,0.3-1.7,0.9S322,1654.8,322,1655.8z"/>
		<path d="M331.4,1651.5l0,1.1c0.6-0.8,1.5-1.2,2.5-1.2c1.8,0,2.7,1,2.7,3v5.6h-1.4v-5.6c0-0.6-0.1-1.1-0.4-1.4s-0.7-0.4-1.3-0.4
			c-0.5,0-0.9,0.1-1.2,0.4c-0.4,0.2-0.6,0.6-0.8,1v6H330v-8.5H331.4z"/>
	</g>
	<g class="st3">
		<path d="M207.7,1674.8c0,1.3-0.3,2.3-0.9,3.1s-1.4,1.2-2.4,1.2c-1.1,0-1.9-0.4-2.5-1.1l-0.1,1h-1.3v-12h1.4v4.5
			c0.6-0.7,1.4-1.1,2.4-1.1c1,0,1.8,0.4,2.4,1.2s0.9,1.8,0.9,3.2V1674.8z M206.2,1674.7c0-1-0.2-1.7-0.6-2.3
			c-0.4-0.5-0.9-0.8-1.6-0.8c-1,0-1.6,0.4-2.1,1.3v3.7c0.4,0.9,1.1,1.3,2.1,1.3c0.7,0,1.2-0.3,1.6-0.8
			C206,1676.5,206.2,1675.7,206.2,1674.7z"/>
		<path d="M214.7,1678.1c-0.6,0.7-1.4,1-2.5,1c-0.9,0-1.6-0.3-2.1-0.8c-0.5-0.5-0.7-1.3-0.7-2.3v-5.5h1.4v5.5c0,1.3,0.5,1.9,1.6,1.9
			c1.1,0,1.8-0.4,2.2-1.2v-6.1h1.4v8.5h-1.4L214.7,1678.1z"/>
		<path d="M218,1674.7c0-1.3,0.3-2.3,0.9-3.1c0.6-0.8,1.4-1.2,2.4-1.2c1,0,1.8,0.3,2.4,1v-4.4h1.4v12h-1.3l-0.1-0.9
			c-0.6,0.7-1.4,1.1-2.4,1.1c-1,0-1.8-0.4-2.4-1.2s-0.9-1.8-0.9-3.1V1674.7z M219.4,1674.8c0,1,0.2,1.7,0.6,2.2
			c0.4,0.5,0.9,0.8,1.6,0.8c0.9,0,1.6-0.4,2-1.2v-3.9c-0.4-0.8-1.1-1.2-2-1.2c-0.7,0-1.3,0.3-1.7,0.8
			C219.6,1672.9,219.4,1673.7,219.4,1674.8z"/>
		<path d="M227,1674.7c0-1.3,0.3-2.4,0.9-3.1s1.4-1.2,2.4-1.2c1,0,1.8,0.4,2.4,1.1l0.1-0.9h1.3v8.2c0,1.1-0.3,2-1,2.6
			s-1.5,0.9-2.6,0.9c-0.6,0-1.2-0.1-1.8-0.4c-0.6-0.3-1-0.6-1.3-1.1l0.8-0.9c0.6,0.8,1.4,1.1,2.3,1.1c0.7,0,1.3-0.2,1.6-0.6
			c0.4-0.4,0.6-1,0.6-1.7v-0.7c-0.6,0.7-1.4,1-2.4,1c-1,0-1.8-0.4-2.4-1.2C227.3,1677.1,227,1676,227,1674.7z M228.5,1674.8
			c0,1,0.2,1.7,0.6,2.2s0.9,0.8,1.6,0.8c0.9,0,1.6-0.4,2-1.2v-3.9c-0.4-0.8-1.1-1.2-2-1.2c-0.7,0-1.3,0.3-1.6,0.8
			C228.7,1672.9,228.5,1673.7,228.5,1674.8z"/>
		<path d="M239.8,1679.1c-1.1,0-2.1-0.4-2.8-1.1s-1.1-1.8-1.1-3v-0.3c0-0.8,0.2-1.6,0.5-2.2s0.8-1.2,1.3-1.5
			c0.6-0.4,1.2-0.6,1.9-0.6c1.1,0,2,0.4,2.6,1.1s0.9,1.8,0.9,3.1v0.6h-5.7c0,0.8,0.3,1.5,0.7,2c0.5,0.5,1.1,0.8,1.8,0.8
			c0.5,0,0.9-0.1,1.3-0.3c0.4-0.2,0.7-0.5,0.9-0.8l0.9,0.7C242.3,1678.6,241.3,1679.1,239.8,1679.1z M239.7,1671.5
			c-0.6,0-1.1,0.2-1.5,0.6c-0.4,0.4-0.6,1-0.7,1.8h4.2v-0.1c0-0.7-0.2-1.3-0.6-1.7C240.7,1671.7,240.3,1671.5,239.7,1671.5z"/>
		<path d="M246.8,1668.5v2h1.6v1.1h-1.6v5.2c0,0.3,0.1,0.6,0.2,0.8c0.1,0.2,0.4,0.3,0.7,0.3c0.2,0,0.4,0,0.7-0.1v1.2
			c-0.4,0.1-0.8,0.2-1.1,0.2c-0.6,0-1.1-0.2-1.5-0.6s-0.5-0.9-0.5-1.7v-5.2h-1.5v-1.1h1.5v-2H246.8z"/>
		<path d="M257.5,1679.1c-1.1,0-2.1-0.4-2.8-1.1s-1.1-1.8-1.1-3v-0.3c0-0.8,0.2-1.6,0.5-2.2s0.8-1.2,1.3-1.5
			c0.6-0.4,1.2-0.6,1.9-0.6c1.1,0,2,0.4,2.6,1.1s0.9,1.8,0.9,3.1v0.6h-5.7c0,0.8,0.3,1.5,0.7,2c0.5,0.5,1.1,0.8,1.8,0.8
			c0.5,0,0.9-0.1,1.3-0.3c0.4-0.2,0.7-0.5,0.9-0.8l0.9,0.7C260,1678.6,258.9,1679.1,257.5,1679.1z M257.3,1671.5
			c-0.6,0-1.1,0.2-1.5,0.6c-0.4,0.4-0.6,1-0.7,1.8h4.2v-0.1c0-0.7-0.2-1.3-0.6-1.7C258.4,1671.7,257.9,1671.5,257.3,1671.5z"/>
		<path d="M264.4,1668.5v2h1.6v1.1h-1.6v5.2c0,0.3,0.1,0.6,0.2,0.8c0.1,0.2,0.4,0.3,0.7,0.3c0.2,0,0.4,0,0.7-0.1v1.2
			c-0.4,0.1-0.8,0.2-1.1,0.2c-0.6,0-1.1-0.2-1.5-0.6s-0.5-0.9-0.5-1.7v-5.2h-1.5v-1.1h1.5v-2H264.4z"/>
		<path d="M271.3,1674.7c0-1.3,0.3-2.4,0.9-3.2s1.4-1.2,2.5-1.2c1,0,1.8,0.3,2.4,1l0.1-0.9h1.3v11.7H277v-4
			c-0.6,0.6-1.4,0.9-2.3,0.9c-1,0-1.8-0.4-2.4-1.2c-0.6-0.8-0.9-1.8-0.9-3.2V1674.7z M272.7,1674.8c0,1,0.2,1.7,0.6,2.3
			c0.4,0.6,1,0.8,1.7,0.8c0.9,0,1.5-0.4,2-1.1v-4.1c-0.5-0.7-1.1-1.1-2-1.1c-0.7,0-1.3,0.3-1.7,0.8
			C273,1672.9,272.7,1673.7,272.7,1674.8z"/>
		<path d="M286,1678.1c-0.6,0.7-1.4,1-2.5,1c-0.9,0-1.6-0.3-2.1-0.8c-0.5-0.5-0.7-1.3-0.7-2.3v-5.5h1.4v5.5c0,1.3,0.5,1.9,1.6,1.9
			c1.1,0,1.8-0.4,2.2-1.2v-6.1h1.4v8.5H286L286,1678.1z"/>
		<path d="M289.6,1668.3c0-0.2,0.1-0.4,0.2-0.6c0.1-0.2,0.4-0.2,0.6-0.2s0.5,0.1,0.6,0.2c0.1,0.2,0.2,0.4,0.2,0.6s-0.1,0.4-0.2,0.6
			c-0.1,0.2-0.4,0.2-0.6,0.2s-0.5-0.1-0.6-0.2C289.6,1668.7,289.6,1668.5,289.6,1668.3z M291.1,1679h-1.4v-8.5h1.4V1679z"/>
		<path d="M299,1679h-1.4v-12h1.4V1679z"/>
		<path d="M306.5,1679c-0.1-0.2-0.2-0.5-0.2-0.9c-0.7,0.7-1.5,1-2.4,1c-0.8,0-1.5-0.2-2.1-0.7c-0.5-0.5-0.8-1.1-0.8-1.8
			c0-0.9,0.3-1.6,1-2.1c0.7-0.5,1.6-0.7,2.8-0.7h1.4v-0.7c0-0.5-0.2-0.9-0.5-1.2c-0.3-0.3-0.7-0.4-1.3-0.4c-0.5,0-0.9,0.1-1.3,0.4
			c-0.3,0.3-0.5,0.6-0.5,0.9h-1.5c0-0.4,0.1-0.8,0.4-1.2c0.3-0.4,0.7-0.7,1.2-0.9c0.5-0.2,1.1-0.3,1.7-0.3c1,0,1.7,0.2,2.3,0.7
			c0.6,0.5,0.8,1.2,0.9,2v3.9c0,0.8,0.1,1.4,0.3,1.9v0.1H306.5z M304.1,1677.9c0.5,0,0.9-0.1,1.3-0.4s0.7-0.5,0.9-0.9v-1.7h-1.1
			c-1.8,0-2.7,0.5-2.7,1.6c0,0.5,0.2,0.8,0.5,1.1C303.3,1677.7,303.6,1677.9,304.1,1677.9z"/>
		<path d="M310,1668.3c0-0.2,0.1-0.4,0.2-0.6c0.1-0.2,0.4-0.2,0.6-0.2s0.5,0.1,0.6,0.2c0.1,0.2,0.2,0.4,0.2,0.6s-0.1,0.4-0.2,0.6
			c-0.1,0.2-0.4,0.2-0.6,0.2s-0.5-0.1-0.6-0.2C310.1,1668.7,310,1668.5,310,1668.3z M311.6,1679h-1.4v-8.5h1.4V1679z"/>
		<path d="M318.8,1676.7c0-0.4-0.1-0.7-0.4-0.9c-0.3-0.2-0.8-0.4-1.5-0.6c-0.7-0.2-1.3-0.3-1.7-0.6s-0.7-0.5-1-0.8
			c-0.2-0.3-0.3-0.7-0.3-1.1c0-0.7,0.3-1.3,0.9-1.8s1.3-0.7,2.2-0.7c1,0,1.7,0.2,2.3,0.7c0.6,0.5,0.9,1.1,0.9,1.9h-1.5
			c0-0.4-0.2-0.7-0.5-1s-0.8-0.4-1.3-0.4c-0.5,0-0.9,0.1-1.2,0.3s-0.4,0.5-0.4,0.9c0,0.3,0.1,0.6,0.4,0.8c0.3,0.2,0.8,0.3,1.5,0.5
			c0.7,0.2,1.3,0.4,1.8,0.6c0.4,0.2,0.8,0.5,1,0.8c0.2,0.3,0.3,0.7,0.3,1.2c0,0.8-0.3,1.4-0.9,1.8c-0.6,0.5-1.4,0.7-2.4,0.7
			c-0.7,0-1.3-0.1-1.8-0.4c-0.5-0.2-0.9-0.6-1.2-1c-0.3-0.4-0.4-0.9-0.4-1.4h1.4c0,0.5,0.2,0.9,0.6,1.2c0.4,0.3,0.8,0.4,1.4,0.4
			c0.5,0,1-0.1,1.3-0.3C318.6,1677.4,318.8,1677.1,318.8,1676.7z"/>
		<path d="M327.1,1676.7c0-0.4-0.1-0.7-0.4-0.9c-0.3-0.2-0.8-0.4-1.5-0.6c-0.7-0.2-1.3-0.3-1.7-0.6s-0.7-0.5-1-0.8
			c-0.2-0.3-0.3-0.7-0.3-1.1c0-0.7,0.3-1.3,0.9-1.8s1.3-0.7,2.2-0.7c1,0,1.7,0.2,2.3,0.7c0.6,0.5,0.9,1.1,0.9,1.9H327
			c0-0.4-0.2-0.7-0.5-1s-0.8-0.4-1.3-0.4c-0.5,0-0.9,0.1-1.2,0.3s-0.4,0.5-0.4,0.9c0,0.3,0.1,0.6,0.4,0.8c0.3,0.2,0.8,0.3,1.5,0.5
			c0.7,0.2,1.3,0.4,1.8,0.6c0.4,0.2,0.8,0.5,1,0.8c0.2,0.3,0.3,0.7,0.3,1.2c0,0.8-0.3,1.4-0.9,1.8c-0.6,0.5-1.4,0.7-2.4,0.7
			c-0.7,0-1.3-0.1-1.8-0.4c-0.5-0.2-0.9-0.6-1.2-1c-0.3-0.4-0.4-0.9-0.4-1.4h1.4c0,0.5,0.2,0.9,0.6,1.2c0.4,0.3,0.8,0.4,1.4,0.4
			c0.5,0,1-0.1,1.3-0.3C326.9,1677.4,327.1,1677.1,327.1,1676.7z"/>
		<path d="M333.9,1679.1c-1.1,0-2.1-0.4-2.8-1.1s-1.1-1.8-1.1-3v-0.3c0-0.8,0.2-1.6,0.5-2.2s0.8-1.2,1.3-1.5
			c0.6-0.4,1.2-0.6,1.9-0.6c1.1,0,2,0.4,2.6,1.1s0.9,1.8,0.9,3.1v0.6h-5.7c0,0.8,0.3,1.5,0.7,2c0.5,0.5,1.1,0.8,1.8,0.8
			c0.5,0,0.9-0.1,1.3-0.3c0.4-0.2,0.7-0.5,0.9-0.8l0.9,0.7C336.4,1678.6,335.3,1679.1,333.9,1679.1z M333.7,1671.5
			c-0.6,0-1.1,0.2-1.5,0.6c-0.4,0.4-0.6,1-0.7,1.8h4.2v-0.1c0-0.7-0.2-1.3-0.6-1.7C334.8,1671.7,334.3,1671.5,333.7,1671.5z"/>
	</g>
	<g class="st3">
		<path d="M210.3,1693.8c0,1.3-0.3,2.3-0.9,3.1c-0.6,0.8-1.4,1.2-2.4,1.2c-1,0-1.8-0.3-2.4-1v4.1h-1.4v-11.7h1.3l0.1,0.9
			c0.6-0.7,1.4-1.1,2.5-1.1c1,0,1.8,0.4,2.4,1.1c0.6,0.8,0.9,1.8,0.9,3.2V1693.8z M208.9,1693.7c0-1-0.2-1.7-0.6-2.3s-1-0.8-1.7-0.8
			c-0.9,0-1.5,0.4-2,1.2v4c0.4,0.8,1.1,1.2,2,1.2c0.7,0,1.2-0.3,1.7-0.8C208.7,1695.6,208.9,1694.7,208.9,1693.7z"/>
		<path d="M217.4,1698c-0.1-0.2-0.2-0.5-0.2-0.9c-0.7,0.7-1.5,1-2.4,1c-0.8,0-1.5-0.2-2.1-0.7c-0.5-0.5-0.8-1.1-0.8-1.8
			c0-0.9,0.3-1.6,1-2.1c0.7-0.5,1.6-0.7,2.8-0.7h1.4v-0.7c0-0.5-0.2-0.9-0.5-1.2c-0.3-0.3-0.7-0.4-1.3-0.4c-0.5,0-0.9,0.1-1.3,0.4
			c-0.3,0.3-0.5,0.6-0.5,0.9h-1.5c0-0.4,0.1-0.8,0.4-1.2c0.3-0.4,0.7-0.7,1.2-0.9c0.5-0.2,1.1-0.3,1.7-0.3c1,0,1.7,0.2,2.3,0.7
			c0.6,0.5,0.8,1.2,0.9,2v3.9c0,0.8,0.1,1.4,0.3,1.9v0.1H217.4z M215,1696.9c0.5,0,0.9-0.1,1.3-0.4s0.7-0.5,0.9-0.9v-1.7H216
			c-1.8,0-2.7,0.5-2.7,1.6c0,0.5,0.2,0.8,0.5,1.1C214.1,1696.7,214.5,1696.9,215,1696.9z"/>
		<path d="M225,1690.8c-0.2,0-0.5-0.1-0.7-0.1c-0.9,0-1.6,0.4-1.9,1.2v6h-1.4v-8.5h1.4l0,1c0.5-0.8,1.1-1.1,2-1.1
			c0.3,0,0.5,0,0.6,0.1V1690.8z"/>
		<path d="M227.9,1698h-1.4v-12h1.4V1698z"/>
		<path d="M233.7,1698.1c-1.1,0-2.1-0.4-2.8-1.1s-1.1-1.8-1.1-3v-0.3c0-0.8,0.2-1.6,0.5-2.2s0.8-1.2,1.3-1.5
			c0.6-0.4,1.2-0.6,1.9-0.6c1.1,0,2,0.4,2.6,1.1s0.9,1.8,0.9,3.1v0.6h-5.7c0,0.8,0.3,1.5,0.7,2c0.5,0.5,1.1,0.8,1.8,0.8
			c0.5,0,0.9-0.1,1.3-0.3c0.4-0.2,0.7-0.5,0.9-0.8l0.9,0.7C236.1,1697.6,235.1,1698.1,233.7,1698.1z M233.5,1690.5
			c-0.6,0-1.1,0.2-1.5,0.6c-0.4,0.4-0.6,1-0.7,1.8h4.2v-0.1c0-0.7-0.2-1.3-0.6-1.7C234.6,1690.7,234.1,1690.5,233.5,1690.5z"/>
		<path d="M242.7,1690.8c-0.2,0-0.5-0.1-0.7-0.1c-0.9,0-1.6,0.4-1.9,1.2v6h-1.4v-8.5h1.4l0,1c0.5-0.8,1.1-1.1,2-1.1
			c0.3,0,0.5,0,0.6,0.1V1690.8z"/>
		<path d="M249.6,1698h-1.4v-12h1.4V1698z"/>
		<path d="M255.4,1698.1c-1.1,0-2.1-0.4-2.8-1.1s-1.1-1.8-1.1-3v-0.3c0-0.8,0.2-1.6,0.5-2.2s0.8-1.2,1.3-1.5
			c0.6-0.4,1.2-0.6,1.9-0.6c1.1,0,2,0.4,2.6,1.1s0.9,1.8,0.9,3.1v0.6H253c0,0.8,0.3,1.5,0.7,2c0.5,0.5,1.1,0.8,1.8,0.8
			c0.5,0,0.9-0.1,1.3-0.3c0.4-0.2,0.7-0.5,0.9-0.8l0.9,0.7C257.9,1697.6,256.8,1698.1,255.4,1698.1z M255.2,1690.5
			c-0.6,0-1.1,0.2-1.5,0.6c-0.4,0.4-0.6,1-0.7,1.8h4.2v-0.1c0-0.7-0.2-1.3-0.6-1.7C256.3,1690.7,255.8,1690.5,255.2,1690.5z"/>
		<path d="M267.7,1696.9c0.5,0,1-0.2,1.4-0.5c0.4-0.3,0.6-0.7,0.6-1.2h1.4c0,0.5-0.2,0.9-0.5,1.4c-0.3,0.4-0.7,0.8-1.2,1
			c-0.5,0.3-1.1,0.4-1.6,0.4c-1.2,0-2.1-0.4-2.7-1.2s-1-1.8-1-3.2v-0.2c0-0.8,0.2-1.6,0.5-2.2c0.3-0.6,0.7-1.1,1.3-1.5
			c0.6-0.4,1.2-0.5,2-0.5c0.9,0,1.7,0.3,2.4,0.9c0.6,0.6,1,1.3,1,2.2h-1.4c0-0.5-0.2-1-0.6-1.3c-0.4-0.4-0.8-0.5-1.4-0.5
			c-0.7,0-1.3,0.3-1.7,0.8c-0.4,0.5-0.6,1.3-0.6,2.3v0.3c0,1,0.2,1.7,0.6,2.2C266.4,1696.7,267,1696.9,267.7,1696.9z"/>
		<path d="M274.2,1690.5c0.6-0.8,1.5-1.2,2.5-1.2c1.8,0,2.7,1,2.7,3v5.6h-1.4v-5.6c0-0.6-0.1-1.1-0.4-1.4s-0.7-0.4-1.3-0.4
			c-0.5,0-0.9,0.1-1.2,0.4c-0.4,0.2-0.6,0.6-0.8,1v6h-1.4v-12h1.4V1690.5z"/>
		<path d="M285,1698.1c-1.1,0-2.1-0.4-2.8-1.1s-1.1-1.8-1.1-3v-0.3c0-0.8,0.2-1.6,0.5-2.2s0.8-1.2,1.3-1.5c0.6-0.4,1.2-0.6,1.9-0.6
			c1.1,0,2,0.4,2.6,1.1s0.9,1.8,0.9,3.1v0.6h-5.7c0,0.8,0.3,1.5,0.7,2c0.5,0.5,1.1,0.8,1.8,0.8c0.5,0,0.9-0.1,1.3-0.3
			c0.4-0.2,0.7-0.5,0.9-0.8l0.9,0.7C287.5,1697.6,286.4,1698.1,285,1698.1z M284.9,1690.5c-0.6,0-1.1,0.2-1.5,0.6
			c-0.4,0.4-0.6,1-0.7,1.8h4.2v-0.1c0-0.7-0.2-1.3-0.6-1.7C285.9,1690.7,285.5,1690.5,284.9,1690.5z"/>
		<path d="M290.7,1698v-7.3h-1.3v-1.1h1.3v-0.9c0-0.9,0.2-1.6,0.7-2.1s1.2-0.7,2.1-0.7c0.3,0,0.7,0,1,0.1l-0.1,1.2
			c-0.2,0-0.5-0.1-0.8-0.1c-0.5,0-0.8,0.1-1.1,0.4c-0.3,0.3-0.4,0.7-0.4,1.2v0.9h1.8v1.1h-1.8v7.3H290.7z"/>
		<path d="M303,1698.1c-1.1,0-2.1-0.4-2.8-1.1s-1.1-1.8-1.1-3v-0.3c0-0.8,0.2-1.6,0.5-2.2s0.8-1.2,1.3-1.5c0.6-0.4,1.2-0.6,1.9-0.6
			c1.1,0,2,0.4,2.6,1.1s0.9,1.8,0.9,3.1v0.6h-5.7c0,0.8,0.3,1.5,0.7,2c0.5,0.5,1.1,0.8,1.8,0.8c0.5,0,0.9-0.1,1.3-0.3
			c0.4-0.2,0.7-0.5,0.9-0.8l0.9,0.7C305.5,1697.6,304.4,1698.1,303,1698.1z M302.8,1690.5c-0.6,0-1.1,0.2-1.5,0.6
			c-0.4,0.4-0.6,1-0.7,1.8h4.2v-0.1c0-0.7-0.2-1.3-0.6-1.7C303.9,1690.7,303.4,1690.5,302.8,1690.5z"/>
		<path d="M309.4,1689.5l0,1.1c0.6-0.8,1.5-1.2,2.5-1.2c1.8,0,2.7,1,2.7,3v5.6h-1.4v-5.6c0-0.6-0.1-1.1-0.4-1.4s-0.7-0.4-1.3-0.4
			c-0.5,0-0.9,0.1-1.2,0.4c-0.4,0.2-0.6,0.6-0.8,1v6H308v-8.5H309.4z"/>
		<path d="M322.7,1687.5v2h1.6v1.1h-1.6v5.2c0,0.3,0.1,0.6,0.2,0.8c0.1,0.2,0.4,0.3,0.7,0.3c0.2,0,0.4,0,0.7-0.1v1.2
			c-0.4,0.1-0.8,0.2-1.1,0.2c-0.6,0-1.1-0.2-1.5-0.6s-0.5-0.9-0.5-1.7v-5.2h-1.5v-1.1h1.5v-2H322.7z"/>
		<path d="M325.5,1693.6c0-0.8,0.2-1.6,0.5-2.2c0.3-0.7,0.8-1.2,1.4-1.5c0.6-0.4,1.2-0.5,2-0.5c1.2,0,2.1,0.4,2.8,1.2
			s1.1,1.9,1.1,3.2v0.1c0,0.8-0.2,1.6-0.5,2.2c-0.3,0.7-0.8,1.2-1.4,1.5s-1.3,0.5-2,0.5c-1.1,0-2.1-0.4-2.8-1.2s-1.1-1.9-1.1-3.2
			V1693.6z M326.9,1693.8c0,0.9,0.2,1.7,0.7,2.3c0.4,0.6,1,0.9,1.7,0.9c0.7,0,1.3-0.3,1.8-0.9c0.4-0.6,0.6-1.4,0.6-2.4
			c0-0.9-0.2-1.7-0.7-2.3c-0.4-0.6-1-0.9-1.8-0.9c-0.7,0-1.3,0.3-1.7,0.9S326.9,1692.8,326.9,1693.8z"/>
		<path d="M335,1687.3c0-0.2,0.1-0.4,0.2-0.6c0.1-0.2,0.4-0.2,0.6-0.2s0.5,0.1,0.6,0.2c0.1,0.2,0.2,0.4,0.2,0.6s-0.1,0.4-0.2,0.6
			c-0.1,0.2-0.4,0.2-0.6,0.2s-0.5-0.1-0.6-0.2C335.1,1687.7,335,1687.5,335,1687.3z M336.5,1698h-1.4v-8.5h1.4V1698z"/>
	</g>
	<g class="st3">
		<path d="M268.2,1713.3c-0.1,1.2-0.6,2.1-1.3,2.8c-0.7,0.7-1.7,1-3,1c-1.3,0-2.4-0.5-3.2-1.4c-0.8-1-1.2-2.3-1.2-3.9v-1.1
			c0-1.1,0.2-2,0.6-2.8c0.4-0.8,0.9-1.4,1.6-1.8c0.7-0.4,1.5-0.6,2.4-0.6c1.2,0,2.2,0.3,2.9,1c0.7,0.7,1.2,1.6,1.3,2.8h-1.5
			c-0.1-0.9-0.4-1.6-0.8-2c-0.4-0.4-1-0.6-1.8-0.6c-1,0-1.7,0.4-2.3,1.1c-0.5,0.7-0.8,1.7-0.8,3v1.1c0,1.2,0.3,2.2,0.8,2.9
			s1.2,1.1,2.2,1.1c0.8,0,1.5-0.2,1.9-0.6s0.7-1,0.9-2H268.2z"/>
		<path d="M270.9,1705.8l-0.2,2.9h-1l0-3.7h1.2V1705.8z"/>
		<path d="M275.9,1717.1c-1.1,0-2.1-0.4-2.8-1.1s-1.1-1.8-1.1-3v-0.3c0-0.8,0.2-1.6,0.5-2.2s0.8-1.2,1.3-1.5
			c0.6-0.4,1.2-0.6,1.9-0.6c1.1,0,2,0.4,2.6,1.1s0.9,1.8,0.9,3.1v0.6h-5.7c0,0.8,0.3,1.5,0.7,2c0.5,0.5,1.1,0.8,1.8,0.8
			c0.5,0,0.9-0.1,1.3-0.3c0.4-0.2,0.7-0.5,0.9-0.8l0.9,0.7C278.4,1716.6,277.3,1717.1,275.9,1717.1z M275.7,1709.5
			c-0.6,0-1.1,0.2-1.5,0.6c-0.4,0.4-0.6,1-0.7,1.8h4.2v-0.1c0-0.7-0.2-1.3-0.6-1.7C276.8,1709.7,276.3,1709.5,275.7,1709.5z"/>
		<path d="M285.8,1714.7c0-0.4-0.1-0.7-0.4-0.9c-0.3-0.2-0.8-0.4-1.5-0.6c-0.7-0.2-1.3-0.3-1.7-0.6s-0.7-0.5-1-0.8
			c-0.2-0.3-0.3-0.7-0.3-1.1c0-0.7,0.3-1.3,0.9-1.8s1.3-0.7,2.2-0.7c1,0,1.7,0.2,2.3,0.7c0.6,0.5,0.9,1.1,0.9,1.9h-1.5
			c0-0.4-0.2-0.7-0.5-1s-0.8-0.4-1.3-0.4c-0.5,0-0.9,0.1-1.2,0.3s-0.4,0.5-0.4,0.9c0,0.3,0.1,0.6,0.4,0.8c0.3,0.2,0.8,0.3,1.5,0.5
			c0.7,0.2,1.3,0.4,1.8,0.6c0.4,0.2,0.8,0.5,1,0.8c0.2,0.3,0.3,0.7,0.3,1.2c0,0.8-0.3,1.4-0.9,1.8c-0.6,0.5-1.4,0.7-2.4,0.7
			c-0.7,0-1.3-0.1-1.8-0.4c-0.5-0.2-0.9-0.6-1.2-1c-0.3-0.4-0.4-0.9-0.4-1.4h1.4c0,0.5,0.2,0.9,0.6,1.2c0.4,0.3,0.8,0.4,1.4,0.4
			c0.5,0,1-0.1,1.3-0.3C285.6,1715.4,285.8,1715.1,285.8,1714.7z"/>
		<path d="M291.1,1706.5v2h1.6v1.1h-1.6v5.2c0,0.3,0.1,0.6,0.2,0.8c0.1,0.2,0.4,0.3,0.7,0.3c0.2,0,0.4,0,0.7-0.1v1.2
			c-0.4,0.1-0.8,0.2-1.1,0.2c-0.6,0-1.1-0.2-1.5-0.6s-0.5-0.9-0.5-1.7v-5.2h-1.5v-1.1h1.5v-2H291.1z"/>
		<path d="M300.4,1705.6l3.7,9.3l3.7-9.3h1.9v11.4h-1.5v-4.4l0.1-4.8l-3.7,9.2h-1.1l-3.7-9.2l0.1,4.8v4.4h-1.5v-11.4H300.4z"/>
		<path d="M312.3,1706.3c0-0.2,0.1-0.4,0.2-0.6c0.1-0.2,0.4-0.2,0.6-0.2s0.5,0.1,0.6,0.2c0.1,0.2,0.2,0.4,0.2,0.6s-0.1,0.4-0.2,0.6
			c-0.1,0.2-0.4,0.2-0.6,0.2s-0.5-0.1-0.6-0.2C312.3,1706.7,312.3,1706.5,312.3,1706.3z M313.8,1717h-1.4v-8.5h1.4V1717z"/>
		<path d="M321.4,1717c-0.1-0.2-0.2-0.5-0.2-0.9c-0.7,0.7-1.5,1-2.4,1c-0.8,0-1.5-0.2-2.1-0.7c-0.5-0.5-0.8-1.1-0.8-1.8
			c0-0.9,0.3-1.6,1-2.1c0.7-0.5,1.6-0.7,2.8-0.7h1.4v-0.7c0-0.5-0.2-0.9-0.5-1.2c-0.3-0.3-0.7-0.4-1.3-0.4c-0.5,0-0.9,0.1-1.3,0.4
			c-0.3,0.3-0.5,0.6-0.5,0.9h-1.5c0-0.4,0.1-0.8,0.4-1.2c0.3-0.4,0.7-0.7,1.2-0.9c0.5-0.2,1.1-0.3,1.7-0.3c1,0,1.7,0.2,2.3,0.7
			c0.6,0.5,0.8,1.2,0.9,2v3.9c0,0.8,0.1,1.4,0.3,1.9v0.1H321.4z M319,1715.9c0.5,0,0.9-0.1,1.3-0.4s0.7-0.5,0.9-0.9v-1.7H320
			c-1.8,0-2.7,0.5-2.7,1.6c0,0.5,0.2,0.8,0.5,1.1C318.1,1715.7,318.5,1715.9,319,1715.9z"/>
		<path d="M326.2,1708.5l0,0.9c0.6-0.7,1.5-1.1,2.5-1.1c1.2,0,2,0.5,2.4,1.4c0.3-0.4,0.6-0.7,1.1-1c0.5-0.2,1-0.4,1.6-0.4
			c1.9,0,2.8,1,2.8,2.9v5.7h-1.4v-5.6c0-0.6-0.1-1.1-0.4-1.4c-0.3-0.3-0.7-0.4-1.4-0.4c-0.5,0-1,0.2-1.3,0.5
			c-0.4,0.3-0.6,0.8-0.6,1.3v5.6H330v-5.5c0-1.2-0.6-1.8-1.8-1.8c-0.9,0-1.6,0.4-1.9,1.2v6.2h-1.4v-8.5H326.2z"/>
	</g>
	<g class="st3">
		<path d="M373.9,1639.7h5.4v1.2h-6.9v-11.4h1.5V1639.7z"/>
		<path d="M384.3,1641.1c-1.1,0-2.1-0.4-2.8-1.1s-1.1-1.8-1.1-3v-0.3c0-0.8,0.2-1.6,0.5-2.2s0.8-1.2,1.3-1.5
			c0.6-0.4,1.2-0.6,1.9-0.6c1.1,0,2,0.4,2.6,1.1s0.9,1.8,0.9,3.1v0.6h-5.7c0,0.8,0.3,1.5,0.7,2c0.5,0.5,1.1,0.8,1.8,0.8
			c0.5,0,0.9-0.1,1.3-0.3c0.4-0.2,0.7-0.5,0.9-0.8l0.9,0.7C386.7,1640.6,385.7,1641.1,384.3,1641.1z M384.1,1633.5
			c-0.6,0-1.1,0.2-1.5,0.6c-0.4,0.4-0.6,1-0.7,1.8h4.2v-0.1c0-0.7-0.2-1.3-0.6-1.7C385.2,1633.7,384.7,1633.5,384.1,1633.5z"/>
		<path d="M400.3,1636.8c0,1.3-0.3,2.3-0.9,3.1c-0.6,0.8-1.4,1.2-2.4,1.2c-1,0-1.8-0.3-2.4-1v4.1h-1.4v-11.7h1.3l0.1,0.9
			c0.6-0.7,1.4-1.1,2.5-1.1c1,0,1.8,0.4,2.4,1.1c0.6,0.8,0.9,1.8,0.9,3.2V1636.8z M398.9,1636.7c0-1-0.2-1.7-0.6-2.3s-1-0.8-1.7-0.8
			c-0.9,0-1.5,0.4-2,1.2v4c0.4,0.8,1.1,1.2,2,1.2c0.7,0,1.2-0.3,1.7-0.8C398.7,1638.6,398.9,1637.7,398.9,1636.7z"/>
		<path d="M406.3,1633.8c-0.2,0-0.5-0.1-0.7-0.1c-0.9,0-1.6,0.4-1.9,1.2v6h-1.4v-8.5h1.4l0,1c0.5-0.8,1.1-1.1,2-1.1
			c0.3,0,0.5,0,0.6,0.1V1633.8z"/>
		<path d="M410.9,1641.1c-1.1,0-2.1-0.4-2.8-1.1s-1.1-1.8-1.1-3v-0.3c0-0.8,0.2-1.6,0.5-2.2s0.8-1.2,1.3-1.5
			c0.6-0.4,1.2-0.6,1.9-0.6c1.1,0,2,0.4,2.6,1.1s0.9,1.8,0.9,3.1v0.6h-5.7c0,0.8,0.3,1.5,0.7,2c0.5,0.5,1.1,0.8,1.8,0.8
			c0.5,0,0.9-0.1,1.3-0.3c0.4-0.2,0.7-0.5,0.9-0.8l0.9,0.7C413.4,1640.6,412.4,1641.1,410.9,1641.1z M413.1,1631.1L413.1,1631.1
			l-1.2,0.1l-1.2-1.3l-1.2,1.3l-1.2,0v-0.1l1.9-2.1h0.9L413.1,1631.1z M410.8,1633.5c-0.6,0-1.1,0.2-1.5,0.6c-0.4,0.4-0.6,1-0.7,1.8
			h4.2v-0.1c0-0.7-0.2-1.3-0.6-1.7C411.8,1633.7,411.4,1633.5,410.8,1633.5z"/>
		<path d="M417.9,1630.5v2h1.6v1.1h-1.6v5.2c0,0.3,0.1,0.6,0.2,0.8c0.1,0.2,0.4,0.3,0.7,0.3c0.2,0,0.4,0,0.7-0.1v1.2
			c-0.4,0.1-0.8,0.2-1.1,0.2c-0.6,0-1.1-0.2-1.5-0.6s-0.5-0.9-0.5-1.7v-5.2h-1.5v-1.1h1.5v-2H417.9z"/>
		<path d="M424.1,1636.7h-3.8v-1.2h3.8V1636.7z"/>
		<path d="M430.8,1641c-0.1-0.2-0.2-0.5-0.2-0.9c-0.7,0.7-1.5,1-2.4,1c-0.8,0-1.5-0.2-2.1-0.7c-0.5-0.5-0.8-1.1-0.8-1.8
			c0-0.9,0.3-1.6,1-2.1c0.7-0.5,1.6-0.7,2.8-0.7h1.4v-0.7c0-0.5-0.2-0.9-0.5-1.2c-0.3-0.3-0.7-0.4-1.3-0.4c-0.5,0-0.9,0.1-1.3,0.4
			c-0.3,0.3-0.5,0.6-0.5,0.9h-1.5c0-0.4,0.1-0.8,0.4-1.2c0.3-0.4,0.7-0.7,1.2-0.9c0.5-0.2,1.1-0.3,1.7-0.3c1,0,1.7,0.2,2.3,0.7
			c0.6,0.5,0.8,1.2,0.9,2v3.9c0,0.8,0.1,1.4,0.3,1.9v0.1H430.8z M429.8,1631.2l-1.2,0l-2-2.3h1.7L429.8,1631.2z M428.4,1639.9
			c0.5,0,0.9-0.1,1.3-0.4s0.7-0.5,0.9-0.9v-1.7h-1.1c-1.8,0-2.7,0.5-2.7,1.6c0,0.5,0.2,0.8,0.5,1.1
			C427.5,1639.7,427.9,1639.9,428.4,1639.9z"/>
		<path d="M437.3,1636.7h-3.8v-1.2h3.8V1636.7z"/>
		<path d="M440,1632.5l0,0.9c0.6-0.7,1.5-1.1,2.5-1.1c1.2,0,2,0.5,2.4,1.4c0.3-0.4,0.6-0.7,1.1-1c0.5-0.2,1-0.4,1.6-0.4
			c1.9,0,2.8,1,2.8,2.9v5.7h-1.4v-5.6c0-0.6-0.1-1.1-0.4-1.4c-0.3-0.3-0.7-0.4-1.4-0.4c-0.5,0-1,0.2-1.3,0.5
			c-0.4,0.3-0.6,0.8-0.6,1.3v5.6h-1.5v-5.5c0-1.2-0.6-1.8-1.8-1.8c-0.9,0-1.6,0.4-1.9,1.2v6.2h-1.4v-8.5H440z"/>
		<path d="M457.9,1641c-0.1-0.2-0.2-0.5-0.2-0.9c-0.7,0.7-1.5,1-2.4,1c-0.8,0-1.5-0.2-2.1-0.7c-0.5-0.5-0.8-1.1-0.8-1.8
			c0-0.9,0.3-1.6,1-2.1c0.7-0.5,1.6-0.7,2.8-0.7h1.4v-0.7c0-0.5-0.2-0.9-0.5-1.2c-0.3-0.3-0.7-0.4-1.3-0.4c-0.5,0-0.9,0.1-1.3,0.4
			c-0.3,0.3-0.5,0.6-0.5,0.9h-1.5c0-0.4,0.1-0.8,0.4-1.2c0.3-0.4,0.7-0.7,1.2-0.9c0.5-0.2,1.1-0.3,1.7-0.3c1,0,1.7,0.2,2.3,0.7
			c0.6,0.5,0.8,1.2,0.9,2v3.9c0,0.8,0.1,1.4,0.3,1.9v0.1H457.9z M455.5,1639.9c0.5,0,0.9-0.1,1.3-0.4s0.7-0.5,0.9-0.9v-1.7h-1.1
			c-1.8,0-2.7,0.5-2.7,1.6c0,0.5,0.2,0.8,0.5,1.1C454.6,1639.7,455,1639.9,455.5,1639.9z"/>
		<path d="M462.8,1632.5l0,1.1c0.6-0.8,1.5-1.2,2.5-1.2c1.8,0,2.7,1,2.7,3v5.6h-1.4v-5.6c0-0.6-0.1-1.1-0.4-1.4s-0.7-0.4-1.3-0.4
			c-0.5,0-0.9,0.1-1.2,0.4c-0.4,0.2-0.6,0.6-0.8,1v6h-1.4v-8.5H462.8z"/>
		<path d="M469.9,1636.7c0-1.3,0.3-2.4,0.9-3.1s1.4-1.2,2.4-1.2c1,0,1.8,0.4,2.4,1.1l0.1-0.9h1.3v8.2c0,1.1-0.3,2-1,2.6
			s-1.5,0.9-2.6,0.9c-0.6,0-1.2-0.1-1.8-0.4c-0.6-0.3-1-0.6-1.3-1.1l0.8-0.9c0.6,0.8,1.4,1.1,2.3,1.1c0.7,0,1.3-0.2,1.6-0.6
			c0.4-0.4,0.6-1,0.6-1.7v-0.7c-0.6,0.7-1.4,1-2.4,1c-1,0-1.8-0.4-2.4-1.2C470.2,1639.1,469.9,1638,469.9,1636.7z M471.3,1636.8
			c0,1,0.2,1.7,0.6,2.2s0.9,0.8,1.6,0.8c0.9,0,1.6-0.4,2-1.2v-3.9c-0.4-0.8-1.1-1.2-2-1.2c-0.7,0-1.3,0.3-1.6,0.8
			C471.5,1634.9,471.3,1635.7,471.3,1636.8z"/>
		<path d="M482.7,1641.1c-1.1,0-2.1-0.4-2.8-1.1s-1.1-1.8-1.1-3v-0.3c0-0.8,0.2-1.6,0.5-2.2s0.8-1.2,1.3-1.5
			c0.6-0.4,1.2-0.6,1.9-0.6c1.1,0,2,0.4,2.6,1.1s0.9,1.8,0.9,3.1v0.6h-5.7c0,0.8,0.3,1.5,0.7,2c0.5,0.5,1.1,0.8,1.8,0.8
			c0.5,0,0.9-0.1,1.3-0.3c0.4-0.2,0.7-0.5,0.9-0.8l0.9,0.7C485.2,1640.6,484.1,1641.1,482.7,1641.1z M482.5,1633.5
			c-0.6,0-1.1,0.2-1.5,0.6c-0.4,0.4-0.6,1-0.7,1.8h4.2v-0.1c0-0.7-0.2-1.3-0.6-1.7C483.6,1633.7,483.1,1633.5,482.5,1633.5z"/>
		<path d="M491.8,1633.8c-0.2,0-0.5-0.1-0.7-0.1c-0.9,0-1.6,0.4-1.9,1.2v6h-1.4v-8.5h1.4l0,1c0.5-0.8,1.1-1.1,2-1.1
			c0.3,0,0.5,0,0.6,0.1V1633.8z"/>
	</g>
	<g class="st3">
		<path d="M371.8,1655.7c0-1.3,0.3-2.4,0.9-3.2s1.4-1.2,2.5-1.2c1,0,1.8,0.3,2.4,1l0.1-0.9h1.3v11.7h-1.4v-4
			c-0.6,0.6-1.4,0.9-2.3,0.9c-1,0-1.8-0.4-2.4-1.2c-0.6-0.8-0.9-1.8-0.9-3.2V1655.7z M373.2,1655.8c0,1,0.2,1.7,0.6,2.3
			c0.4,0.6,1,0.8,1.7,0.8c0.9,0,1.5-0.4,2-1.1v-4.1c-0.5-0.7-1.1-1.1-2-1.1c-0.7,0-1.3,0.3-1.7,0.8
			C373.4,1653.9,373.2,1654.7,373.2,1655.8z"/>
		<path d="M386.5,1659.1c-0.6,0.7-1.4,1-2.5,1c-0.9,0-1.6-0.3-2.1-0.8c-0.5-0.5-0.7-1.3-0.7-2.3v-5.5h1.4v5.5c0,1.3,0.5,1.9,1.6,1.9
			c1.1,0,1.8-0.4,2.2-1.2v-6.1h1.4v8.5h-1.4L386.5,1659.1z"/>
		<path d="M390.1,1649.3c0-0.2,0.1-0.4,0.2-0.6c0.1-0.2,0.4-0.2,0.6-0.2s0.5,0.1,0.6,0.2c0.1,0.2,0.2,0.4,0.2,0.6s-0.1,0.4-0.2,0.6
			c-0.1,0.2-0.4,0.2-0.6,0.2s-0.5-0.1-0.6-0.2C390.1,1649.7,390.1,1649.5,390.1,1649.3z M391.6,1660h-1.4v-8.5h1.4V1660z"/>
		<path d="M402.8,1657.7c0-0.4-0.1-0.7-0.4-0.9c-0.3-0.2-0.8-0.4-1.5-0.6c-0.7-0.2-1.3-0.3-1.7-0.6s-0.7-0.5-1-0.8
			c-0.2-0.3-0.3-0.7-0.3-1.1c0-0.7,0.3-1.3,0.9-1.8s1.3-0.7,2.2-0.7c1,0,1.7,0.2,2.3,0.7c0.6,0.5,0.9,1.1,0.9,1.9h-1.5
			c0-0.4-0.2-0.7-0.5-1s-0.8-0.4-1.3-0.4c-0.5,0-0.9,0.1-1.2,0.3s-0.4,0.5-0.4,0.9c0,0.3,0.1,0.6,0.4,0.8c0.3,0.2,0.8,0.3,1.5,0.5
			c0.7,0.2,1.3,0.4,1.8,0.6c0.4,0.2,0.8,0.5,1,0.8c0.2,0.3,0.3,0.7,0.3,1.2c0,0.8-0.3,1.4-0.9,1.8c-0.6,0.5-1.4,0.7-2.4,0.7
			c-0.7,0-1.3-0.1-1.8-0.4c-0.5-0.2-0.9-0.6-1.2-1c-0.3-0.4-0.4-0.9-0.4-1.4h1.4c0,0.5,0.2,0.9,0.6,1.2c0.4,0.3,0.8,0.4,1.4,0.4
			c0.5,0,1-0.1,1.3-0.3C402.7,1658.4,402.8,1658.1,402.8,1657.7z"/>
		<path d="M411.4,1660c-0.1-0.2-0.2-0.5-0.2-0.9c-0.7,0.7-1.5,1-2.4,1c-0.8,0-1.5-0.2-2.1-0.7c-0.5-0.5-0.8-1.1-0.8-1.8
			c0-0.9,0.3-1.6,1-2.1c0.7-0.5,1.6-0.7,2.8-0.7h1.4v-0.7c0-0.5-0.2-0.9-0.5-1.2c-0.3-0.3-0.7-0.4-1.3-0.4c-0.5,0-0.9,0.1-1.3,0.4
			c-0.3,0.3-0.5,0.6-0.5,0.9h-1.5c0-0.4,0.1-0.8,0.4-1.2c0.3-0.4,0.7-0.7,1.2-0.9c0.5-0.2,1.1-0.3,1.7-0.3c1,0,1.7,0.2,2.3,0.7
			c0.6,0.5,0.8,1.2,0.9,2v3.9c0,0.8,0.1,1.4,0.3,1.9v0.1H411.4z M409,1658.9c0.5,0,0.9-0.1,1.3-0.4s0.7-0.5,0.9-0.9v-1.7H410
			c-1.8,0-2.7,0.5-2.7,1.6c0,0.5,0.2,0.8,0.5,1.1C408.1,1658.7,408.5,1658.9,409,1658.9z"/>
		<path d="M420.1,1659.1c-0.6,0.7-1.4,1-2.5,1c-0.9,0-1.6-0.3-2.1-0.8c-0.5-0.5-0.7-1.3-0.7-2.3v-5.5h1.4v5.5c0,1.3,0.5,1.9,1.6,1.9
			c1.1,0,1.8-0.4,2.2-1.2v-6.1h1.4v8.5h-1.4L420.1,1659.1z"/>
		<path d="M426.5,1658l2.1-6.5h1.5l-3,8.5h-1.1l-3.1-8.5h1.5L426.5,1658z"/>
		<path d="M434.8,1660.1c-1.1,0-2.1-0.4-2.8-1.1s-1.1-1.8-1.1-3v-0.3c0-0.8,0.2-1.6,0.5-2.2s0.8-1.2,1.3-1.5
			c0.6-0.4,1.2-0.6,1.9-0.6c1.1,0,2,0.4,2.6,1.1s0.9,1.8,0.9,3.1v0.6h-5.7c0,0.8,0.3,1.5,0.7,2c0.5,0.5,1.1,0.8,1.8,0.8
			c0.5,0,0.9-0.1,1.3-0.3c0.4-0.2,0.7-0.5,0.9-0.8l0.9,0.7C437.3,1659.6,436.2,1660.1,434.8,1660.1z M434.6,1652.5
			c-0.6,0-1.1,0.2-1.5,0.6c-0.4,0.4-0.6,1-0.7,1.8h4.2v-0.1c0-0.7-0.2-1.3-0.6-1.7C435.7,1652.7,435.3,1652.5,434.6,1652.5z"/>
		<path d="M443.4,1655.7c0-1.3,0.3-2.3,0.9-3.1c0.6-0.8,1.4-1.2,2.4-1.2c1,0,1.8,0.3,2.4,1v-4.4h1.4v12h-1.3l-0.1-0.9
			c-0.6,0.7-1.4,1.1-2.4,1.1c-1,0-1.8-0.4-2.4-1.2s-0.9-1.8-0.9-3.1V1655.7z M444.9,1655.8c0,1,0.2,1.7,0.6,2.2
			c0.4,0.5,0.9,0.8,1.6,0.8c0.9,0,1.6-0.4,2-1.2v-3.9c-0.4-0.8-1.1-1.2-2-1.2c-0.7,0-1.3,0.3-1.7,0.8
			C445,1653.9,444.9,1654.7,444.9,1655.8z"/>
		<path d="M458,1659.1c-0.6,0.7-1.4,1-2.5,1c-0.9,0-1.6-0.3-2.1-0.8c-0.5-0.5-0.7-1.3-0.7-2.3v-5.5h1.4v5.5c0,1.3,0.5,1.9,1.6,1.9
			c1.1,0,1.8-0.4,2.2-1.2v-6.1h1.4v8.5H458L458,1659.1z"/>
		<path d="M467.5,1649.5v2h1.6v1.1h-1.6v5.2c0,0.3,0.1,0.6,0.2,0.8c0.1,0.2,0.4,0.3,0.7,0.3c0.2,0,0.4,0,0.7-0.1v1.2
			c-0.4,0.1-0.8,0.2-1.1,0.2c-0.6,0-1.1-0.2-1.5-0.6s-0.5-0.9-0.5-1.7v-5.2h-1.5v-1.1h1.5v-2H467.5z"/>
		<path d="M474.3,1660.1c-1.1,0-2.1-0.4-2.8-1.1s-1.1-1.8-1.1-3v-0.3c0-0.8,0.2-1.6,0.5-2.2s0.8-1.2,1.3-1.5
			c0.6-0.4,1.2-0.6,1.9-0.6c1.1,0,2,0.4,2.6,1.1s0.9,1.8,0.9,3.1v0.6h-5.7c0,0.8,0.3,1.5,0.7,2c0.5,0.5,1.1,0.8,1.8,0.8
			c0.5,0,0.9-0.1,1.3-0.3c0.4-0.2,0.7-0.5,0.9-0.8l0.9,0.7C476.8,1659.6,475.7,1660.1,474.3,1660.1z M474.1,1652.5
			c-0.6,0-1.1,0.2-1.5,0.6c-0.4,0.4-0.6,1-0.7,1.8h4.2v-0.1c0-0.7-0.2-1.3-0.6-1.7C475.2,1652.7,474.7,1652.5,474.1,1652.5z"/>
		<path d="M480.6,1651.5l0,0.9c0.6-0.7,1.5-1.1,2.5-1.1c1.2,0,2,0.5,2.4,1.4c0.3-0.4,0.6-0.7,1.1-1c0.5-0.2,1-0.4,1.6-0.4
			c1.9,0,2.8,1,2.8,2.9v5.7h-1.4v-5.6c0-0.6-0.1-1.1-0.4-1.4c-0.3-0.3-0.7-0.4-1.4-0.4c-0.5,0-1,0.2-1.3,0.5
			c-0.4,0.3-0.6,0.8-0.6,1.3v5.6h-1.5v-5.5c0-1.2-0.6-1.8-1.8-1.8c-0.9,0-1.6,0.4-1.9,1.2v6.2h-1.4v-8.5H480.6z"/>
		<path d="M500.4,1655.8c0,1.3-0.3,2.3-0.9,3.1c-0.6,0.8-1.4,1.2-2.4,1.2c-1,0-1.8-0.3-2.4-1v4.1h-1.4v-11.7h1.3l0.1,0.9
			c0.6-0.7,1.4-1.1,2.5-1.1c1,0,1.8,0.4,2.4,1.1c0.6,0.8,0.9,1.8,0.9,3.2V1655.8z M499,1655.7c0-1-0.2-1.7-0.6-2.3s-1-0.8-1.7-0.8
			c-0.9,0-1.5,0.4-2,1.2v4c0.4,0.8,1.1,1.2,2,1.2c0.7,0,1.2-0.3,1.7-0.8C498.8,1657.6,499,1656.7,499,1655.7z"/>
		<path d="M507.2,1657.7c0-0.4-0.1-0.7-0.4-0.9c-0.3-0.2-0.8-0.4-1.5-0.6c-0.7-0.2-1.3-0.3-1.7-0.6s-0.7-0.5-1-0.8
			c-0.2-0.3-0.3-0.7-0.3-1.1c0-0.7,0.3-1.3,0.9-1.8s1.3-0.7,2.2-0.7c1,0,1.7,0.2,2.3,0.7c0.6,0.5,0.9,1.1,0.9,1.9h-1.5
			c0-0.4-0.2-0.7-0.5-1s-0.8-0.4-1.3-0.4c-0.5,0-0.9,0.1-1.2,0.3s-0.4,0.5-0.4,0.9c0,0.3,0.1,0.6,0.4,0.8c0.3,0.2,0.8,0.3,1.5,0.5
			c0.7,0.2,1.3,0.4,1.8,0.6c0.4,0.2,0.8,0.5,1,0.8c0.2,0.3,0.3,0.7,0.3,1.2c0,0.8-0.3,1.4-0.9,1.8c-0.6,0.5-1.4,0.7-2.4,0.7
			c-0.7,0-1.3-0.1-1.8-0.4c-0.5-0.2-0.9-0.6-1.2-1c-0.3-0.4-0.4-0.9-0.4-1.4h1.4c0,0.5,0.2,0.9,0.6,1.2c0.4,0.3,0.8,0.4,1.4,0.4
			c0.5,0,1-0.1,1.3-0.3C507,1658.4,507.2,1658.1,507.2,1657.7z"/>
	</g>
	<g class="st3">
		<path d="M375.6,1679.1c-1.1,0-2.1-0.4-2.8-1.1s-1.1-1.8-1.1-3v-0.3c0-0.8,0.2-1.6,0.5-2.2s0.8-1.2,1.3-1.5
			c0.6-0.4,1.2-0.6,1.9-0.6c1.1,0,2,0.4,2.6,1.1s0.9,1.8,0.9,3.1v0.6h-5.7c0,0.8,0.3,1.5,0.7,2c0.5,0.5,1.1,0.8,1.8,0.8
			c0.5,0,0.9-0.1,1.3-0.3c0.4-0.2,0.7-0.5,0.9-0.8l0.9,0.7C378.1,1678.6,377.1,1679.1,375.6,1679.1z M375.5,1671.5
			c-0.6,0-1.1,0.2-1.5,0.6c-0.4,0.4-0.6,1-0.7,1.8h4.2v-0.1c0-0.7-0.2-1.3-0.6-1.7C376.6,1671.7,376.1,1671.5,375.5,1671.5z"/>
		<path d="M382.6,1668.5v2h1.6v1.1h-1.6v5.2c0,0.3,0.1,0.6,0.2,0.8c0.1,0.2,0.4,0.3,0.7,0.3c0.2,0,0.4,0,0.7-0.1v1.2
			c-0.4,0.1-0.8,0.2-1.1,0.2c-0.6,0-1.1-0.2-1.5-0.6s-0.5-0.9-0.5-1.7v-5.2h-1.5v-1.1h1.5v-2H382.6z"/>
		<path d="M391.8,1668.5v2h1.6v1.1h-1.6v5.2c0,0.3,0.1,0.6,0.2,0.8c0.1,0.2,0.4,0.3,0.7,0.3c0.2,0,0.4,0,0.7-0.1v1.2
			c-0.4,0.1-0.8,0.2-1.1,0.2c-0.6,0-1.1-0.2-1.5-0.6s-0.5-0.9-0.5-1.7v-5.2h-1.5v-1.1h1.5v-2H391.8z"/>
		<path d="M398.5,1679.1c-1.1,0-2.1-0.4-2.8-1.1s-1.1-1.8-1.1-3v-0.3c0-0.8,0.2-1.6,0.5-2.2s0.8-1.2,1.3-1.5
			c0.6-0.4,1.2-0.6,1.9-0.6c1.1,0,2,0.4,2.6,1.1s0.9,1.8,0.9,3.1v0.6h-5.7c0,0.8,0.3,1.5,0.7,2c0.5,0.5,1.1,0.8,1.8,0.8
			c0.5,0,0.9-0.1,1.3-0.3c0.4-0.2,0.7-0.5,0.9-0.8l0.9,0.7C401,1678.6,400,1679.1,398.5,1679.1z M398.4,1671.5
			c-0.6,0-1.1,0.2-1.5,0.6c-0.4,0.4-0.6,1-0.7,1.8h4.2v-0.1c0-0.7-0.2-1.3-0.6-1.7C399.4,1671.7,399,1671.5,398.4,1671.5z"/>
		<path d="M411.6,1671.8c-0.2,0-0.5-0.1-0.7-0.1c-0.9,0-1.6,0.4-1.9,1.2v6h-1.4v-8.5h1.4l0,1c0.5-0.8,1.1-1.1,2-1.1
			c0.3,0,0.5,0,0.6,0.1V1671.8z"/>
		<path d="M416.2,1679.1c-1.1,0-2.1-0.4-2.8-1.1s-1.1-1.8-1.1-3v-0.3c0-0.8,0.2-1.6,0.5-2.2s0.8-1.2,1.3-1.5
			c0.6-0.4,1.2-0.6,1.9-0.6c1.1,0,2,0.4,2.6,1.1s0.9,1.8,0.9,3.1v0.6h-5.7c0,0.8,0.3,1.5,0.7,2c0.5,0.5,1.1,0.8,1.8,0.8
			c0.5,0,0.9-0.1,1.3-0.3c0.4-0.2,0.7-0.5,0.9-0.8l0.9,0.7C418.7,1678.6,417.7,1679.1,416.2,1679.1z M416.1,1671.5
			c-0.6,0-1.1,0.2-1.5,0.6c-0.4,0.4-0.6,1-0.7,1.8h4.2v-0.1c0-0.7-0.2-1.3-0.6-1.7C417.1,1671.7,416.7,1671.5,416.1,1671.5z
			 M416.8,1667h1.8l-2.1,2.3l-1.2,0L416.8,1667z"/>
		<path d="M424.6,1677.9c0.5,0,1-0.2,1.4-0.5c0.4-0.3,0.6-0.7,0.6-1.2h1.4c0,0.5-0.2,0.9-0.5,1.4c-0.3,0.4-0.7,0.8-1.2,1
			c-0.5,0.3-1.1,0.4-1.6,0.4c-1.2,0-2.1-0.4-2.7-1.2s-1-1.8-1-3.2v-0.2c0-0.8,0.2-1.6,0.5-2.2c0.3-0.6,0.7-1.1,1.3-1.5
			c0.6-0.4,1.2-0.5,2-0.5c0.9,0,1.7,0.3,2.4,0.9c0.6,0.6,1,1.3,1,2.2h-1.4c0-0.5-0.2-1-0.6-1.3c-0.4-0.4-0.8-0.5-1.4-0.5
			c-0.7,0-1.3,0.3-1.7,0.8c-0.4,0.5-0.6,1.3-0.6,2.3v0.3c0,1,0.2,1.7,0.6,2.2C423.3,1677.7,423.9,1677.9,424.6,1677.9z"/>
		<path d="M429.2,1674.6c0-0.8,0.2-1.6,0.5-2.2c0.3-0.7,0.8-1.2,1.4-1.5c0.6-0.4,1.2-0.5,2-0.5c1.2,0,2.1,0.4,2.8,1.2
			s1.1,1.9,1.1,3.2v0.1c0,0.8-0.2,1.6-0.5,2.2c-0.3,0.7-0.8,1.2-1.4,1.5s-1.3,0.5-2,0.5c-1.1,0-2.1-0.4-2.8-1.2s-1.1-1.9-1.1-3.2
			V1674.6z M430.7,1674.8c0,0.9,0.2,1.7,0.7,2.3c0.4,0.6,1,0.9,1.7,0.9c0.7,0,1.3-0.3,1.8-0.9c0.4-0.6,0.6-1.4,0.6-2.4
			c0-0.9-0.2-1.7-0.7-2.3c-0.4-0.6-1-0.9-1.8-0.9c-0.7,0-1.3,0.3-1.7,0.9S430.7,1673.8,430.7,1674.8z"/>
		<path d="M440.1,1670.5l0,1.1c0.6-0.8,1.5-1.2,2.5-1.2c1.8,0,2.7,1,2.7,3v5.6h-1.4v-5.6c0-0.6-0.1-1.1-0.4-1.4s-0.7-0.4-1.3-0.4
			c-0.5,0-0.9,0.1-1.2,0.4c-0.4,0.2-0.6,0.6-0.8,1v6h-1.4v-8.5H440.1z"/>
		<path d="M448.3,1679v-7.3h-1.3v-1.1h1.3v-0.9c0-0.9,0.2-1.6,0.7-2.1s1.2-0.7,2.1-0.7c0.3,0,0.7,0,1,0.1l-0.1,1.2
			c-0.2,0-0.5-0.1-0.8-0.1c-0.5,0-0.8,0.1-1.1,0.4c-0.3,0.3-0.4,0.7-0.4,1.2v0.9h1.8v1.1h-1.8v7.3H448.3z"/>
		<path d="M452.7,1674.6c0-0.8,0.2-1.6,0.5-2.2c0.3-0.7,0.8-1.2,1.4-1.5c0.6-0.4,1.2-0.5,2-0.5c1.2,0,2.1,0.4,2.8,1.2
			s1.1,1.9,1.1,3.2v0.1c0,0.8-0.2,1.6-0.5,2.2c-0.3,0.7-0.8,1.2-1.4,1.5s-1.3,0.5-2,0.5c-1.1,0-2.1-0.4-2.8-1.2s-1.1-1.9-1.1-3.2
			V1674.6z M454.2,1674.8c0,0.9,0.2,1.7,0.7,2.3c0.4,0.6,1,0.9,1.7,0.9c0.7,0,1.3-0.3,1.8-0.9c0.4-0.6,0.6-1.4,0.6-2.4
			c0-0.9-0.2-1.7-0.7-2.3c-0.4-0.6-1-0.9-1.8-0.9c-0.7,0-1.3,0.3-1.7,0.9S454.2,1673.8,454.2,1674.8z"/>
		<path d="M466.3,1671.8c-0.2,0-0.5-0.1-0.7-0.1c-0.9,0-1.6,0.4-1.9,1.2v6h-1.4v-8.5h1.4l0,1c0.5-0.8,1.1-1.1,2-1.1
			c0.3,0,0.5,0,0.6,0.1V1671.8z"/>
		<path d="M470,1668.5v2h1.6v1.1H470v5.2c0,0.3,0.1,0.6,0.2,0.8c0.1,0.2,0.4,0.3,0.7,0.3c0.2,0,0.4,0,0.7-0.1v1.2
			c-0.4,0.1-0.8,0.2-1.1,0.2c-0.6,0-1.1-0.2-1.5-0.6s-0.5-0.9-0.5-1.7v-5.2H467v-1.1h1.5v-2H470z"/>
		<path d="M476.8,1679.1c-1.1,0-2.1-0.4-2.8-1.1s-1.1-1.8-1.1-3v-0.3c0-0.8,0.2-1.6,0.5-2.2s0.8-1.2,1.3-1.5
			c0.6-0.4,1.2-0.6,1.9-0.6c1.1,0,2,0.4,2.6,1.1s0.9,1.8,0.9,3.1v0.6h-5.7c0,0.8,0.3,1.5,0.7,2c0.5,0.5,1.1,0.8,1.8,0.8
			c0.5,0,0.9-0.1,1.3-0.3c0.4-0.2,0.7-0.5,0.9-0.8l0.9,0.7C479.2,1678.6,478.2,1679.1,476.8,1679.1z M476.6,1671.5
			c-0.6,0-1.1,0.2-1.5,0.6c-0.4,0.4-0.6,1-0.7,1.8h4.2v-0.1c0-0.7-0.2-1.3-0.6-1.7C477.7,1671.7,477.2,1671.5,476.6,1671.5z"/>
	</g>
	<g class="st3">
		<path d="M371.8,1693.7c0-1.3,0.3-2.3,0.9-3.1c0.6-0.8,1.4-1.2,2.4-1.2c1,0,1.8,0.3,2.4,1v-4.4h1.4v12h-1.3l-0.1-0.9
			c-0.6,0.7-1.4,1.1-2.4,1.1c-1,0-1.8-0.4-2.4-1.2s-0.9-1.8-0.9-3.1V1693.7z M373.2,1693.8c0,1,0.2,1.7,0.6,2.2
			c0.4,0.5,0.9,0.8,1.6,0.8c0.9,0,1.6-0.4,2-1.2v-3.9c-0.4-0.8-1.1-1.2-2-1.2c-0.7,0-1.3,0.3-1.7,0.8
			C373.4,1691.9,373.2,1692.7,373.2,1693.8z"/>
		<path d="M386.4,1698c-0.1-0.2-0.2-0.5-0.2-0.9c-0.7,0.7-1.5,1-2.4,1c-0.8,0-1.5-0.2-2.1-0.7c-0.5-0.5-0.8-1.1-0.8-1.8
			c0-0.9,0.3-1.6,1-2.1c0.7-0.5,1.6-0.7,2.8-0.7h1.4v-0.7c0-0.5-0.2-0.9-0.5-1.2c-0.3-0.3-0.7-0.4-1.3-0.4c-0.5,0-0.9,0.1-1.3,0.4
			c-0.3,0.3-0.5,0.6-0.5,0.9h-1.5c0-0.4,0.1-0.8,0.4-1.2c0.3-0.4,0.7-0.7,1.2-0.9c0.5-0.2,1.1-0.3,1.7-0.3c1,0,1.7,0.2,2.3,0.7
			c0.6,0.5,0.8,1.2,0.9,2v3.9c0,0.8,0.1,1.4,0.3,1.9v0.1H386.4z M384,1696.9c0.5,0,0.9-0.1,1.3-0.4s0.7-0.5,0.9-0.9v-1.7H385
			c-1.8,0-2.7,0.5-2.7,1.6c0,0.5,0.2,0.8,0.5,1.1C383.1,1696.7,383.5,1696.9,384,1696.9z"/>
		<path d="M391.2,1689.5l0,1.1c0.6-0.8,1.5-1.2,2.5-1.2c1.8,0,2.7,1,2.7,3v5.6h-1.4v-5.6c0-0.6-0.1-1.1-0.4-1.4s-0.7-0.4-1.3-0.4
			c-0.5,0-0.9,0.1-1.2,0.4c-0.4,0.2-0.6,0.6-0.8,1v6h-1.4v-8.5H391.2z"/>
		<path d="M403.6,1695.7c0-0.4-0.1-0.7-0.4-0.9c-0.3-0.2-0.8-0.4-1.5-0.6c-0.7-0.2-1.3-0.3-1.7-0.6s-0.7-0.5-1-0.8
			c-0.2-0.3-0.3-0.7-0.3-1.1c0-0.7,0.3-1.3,0.9-1.8s1.3-0.7,2.2-0.7c1,0,1.7,0.2,2.3,0.7c0.6,0.5,0.9,1.1,0.9,1.9h-1.5
			c0-0.4-0.2-0.7-0.5-1s-0.8-0.4-1.3-0.4c-0.5,0-0.9,0.1-1.2,0.3s-0.4,0.5-0.4,0.9c0,0.3,0.1,0.6,0.4,0.8c0.3,0.2,0.8,0.3,1.5,0.5
			c0.7,0.2,1.3,0.4,1.8,0.6c0.4,0.2,0.8,0.5,1,0.8c0.2,0.3,0.3,0.7,0.3,1.2c0,0.8-0.3,1.4-0.9,1.8c-0.6,0.5-1.4,0.7-2.4,0.7
			c-0.7,0-1.3-0.1-1.8-0.4c-0.5-0.2-0.9-0.6-1.2-1c-0.3-0.4-0.4-0.9-0.4-1.4h1.4c0,0.5,0.2,0.9,0.6,1.2c0.4,0.3,0.8,0.4,1.4,0.4
			c0.5,0,1-0.1,1.3-0.3C403.5,1696.4,403.6,1696.1,403.6,1695.7z"/>
		<path d="M412.9,1687.5v2h1.6v1.1h-1.6v5.2c0,0.3,0.1,0.6,0.2,0.8c0.1,0.2,0.4,0.3,0.7,0.3c0.2,0,0.4,0,0.7-0.1v1.2
			c-0.4,0.1-0.8,0.2-1.1,0.2c-0.6,0-1.1-0.2-1.5-0.6s-0.5-0.9-0.5-1.7v-5.2h-1.5v-1.1h1.5v-2H412.9z"/>
		<path d="M421.4,1698c-0.1-0.2-0.2-0.5-0.2-0.9c-0.7,0.7-1.5,1-2.4,1c-0.8,0-1.5-0.2-2.1-0.7c-0.5-0.5-0.8-1.1-0.8-1.8
			c0-0.9,0.3-1.6,1-2.1c0.7-0.5,1.6-0.7,2.8-0.7h1.4v-0.7c0-0.5-0.2-0.9-0.5-1.2c-0.3-0.3-0.7-0.4-1.3-0.4c-0.5,0-0.9,0.1-1.3,0.4
			c-0.3,0.3-0.5,0.6-0.5,0.9h-1.5c0-0.4,0.1-0.8,0.4-1.2c0.3-0.4,0.7-0.7,1.2-0.9c0.5-0.2,1.1-0.3,1.7-0.3c1,0,1.7,0.2,2.3,0.7
			c0.6,0.5,0.8,1.2,0.9,2v3.9c0,0.8,0.1,1.4,0.3,1.9v0.1H421.4z M419,1696.9c0.5,0,0.9-0.1,1.3-0.4s0.7-0.5,0.9-0.9v-1.7H420
			c-1.8,0-2.7,0.5-2.7,1.6c0,0.5,0.2,0.8,0.5,1.1C418.1,1696.7,418.5,1696.9,419,1696.9z"/>
		<path d="M433.7,1695.7c0-0.4-0.1-0.7-0.4-0.9c-0.3-0.2-0.8-0.4-1.5-0.6c-0.7-0.2-1.3-0.3-1.7-0.6s-0.7-0.5-1-0.8
			c-0.2-0.3-0.3-0.7-0.3-1.1c0-0.7,0.3-1.3,0.9-1.8s1.3-0.7,2.2-0.7c1,0,1.7,0.2,2.3,0.7c0.6,0.5,0.9,1.1,0.9,1.9h-1.5
			c0-0.4-0.2-0.7-0.5-1s-0.8-0.4-1.3-0.4c-0.5,0-0.9,0.1-1.2,0.3s-0.4,0.5-0.4,0.9c0,0.3,0.1,0.6,0.4,0.8c0.3,0.2,0.8,0.3,1.5,0.5
			c0.7,0.2,1.3,0.4,1.8,0.6c0.4,0.2,0.8,0.5,1,0.8c0.2,0.3,0.3,0.7,0.3,1.2c0,0.8-0.3,1.4-0.9,1.8c-0.6,0.5-1.4,0.7-2.4,0.7
			c-0.7,0-1.3-0.1-1.8-0.4c-0.5-0.2-0.9-0.6-1.2-1c-0.3-0.4-0.4-0.9-0.4-1.4h1.4c0,0.5,0.2,0.9,0.6,1.2c0.4,0.3,0.8,0.4,1.4,0.4
			c0.5,0,1-0.1,1.3-0.3C433.6,1696.4,433.7,1696.1,433.7,1695.7z"/>
		<path d="M440.6,1698.1c-1.1,0-2.1-0.4-2.8-1.1s-1.1-1.8-1.1-3v-0.3c0-0.8,0.2-1.6,0.5-2.2s0.8-1.2,1.3-1.5
			c0.6-0.4,1.2-0.6,1.9-0.6c1.1,0,2,0.4,2.6,1.1s0.9,1.8,0.9,3.1v0.6h-5.7c0,0.8,0.3,1.5,0.7,2c0.5,0.5,1.1,0.8,1.8,0.8
			c0.5,0,0.9-0.1,1.3-0.3c0.4-0.2,0.7-0.5,0.9-0.8l0.9,0.7C443,1697.6,442,1698.1,440.6,1698.1z M440.4,1690.5
			c-0.6,0-1.1,0.2-1.5,0.6c-0.4,0.4-0.6,1-0.7,1.8h4.2v-0.1c0-0.7-0.2-1.3-0.6-1.7C441.5,1690.7,441,1690.5,440.4,1690.5z"/>
		<path d="M446.9,1689.5l0,0.9c0.6-0.7,1.5-1.1,2.5-1.1c1.2,0,2,0.5,2.4,1.4c0.3-0.4,0.6-0.7,1.1-1c0.5-0.2,1-0.4,1.6-0.4
			c1.9,0,2.8,1,2.8,2.9v5.7h-1.4v-5.6c0-0.6-0.1-1.1-0.4-1.4c-0.3-0.3-0.7-0.4-1.4-0.4c-0.5,0-1,0.2-1.3,0.5
			c-0.4,0.3-0.6,0.8-0.6,1.3v5.6h-1.5v-5.5c0-1.2-0.6-1.8-1.8-1.8c-0.9,0-1.6,0.4-1.9,1.2v6.2h-1.4v-8.5H446.9z"/>
		<path d="M464.8,1698c-0.1-0.2-0.2-0.5-0.2-0.9c-0.7,0.7-1.5,1-2.4,1c-0.8,0-1.5-0.2-2.1-0.7c-0.5-0.5-0.8-1.1-0.8-1.8
			c0-0.9,0.3-1.6,1-2.1c0.7-0.5,1.6-0.7,2.8-0.7h1.4v-0.7c0-0.5-0.2-0.9-0.5-1.2c-0.3-0.3-0.7-0.4-1.3-0.4c-0.5,0-0.9,0.1-1.3,0.4
			c-0.3,0.3-0.5,0.6-0.5,0.9h-1.5c0-0.4,0.1-0.8,0.4-1.2c0.3-0.4,0.7-0.7,1.2-0.9c0.5-0.2,1.1-0.3,1.7-0.3c1,0,1.7,0.2,2.3,0.7
			c0.6,0.5,0.8,1.2,0.9,2v3.9c0,0.8,0.1,1.4,0.3,1.9v0.1H464.8z M462.4,1696.9c0.5,0,0.9-0.1,1.3-0.4s0.7-0.5,0.9-0.9v-1.7h-1.1
			c-1.8,0-2.7,0.5-2.7,1.6c0,0.5,0.2,0.8,0.5,1.1C461.5,1696.7,461.9,1696.9,462.4,1696.9z"/>
		<path d="M468.3,1687.3c0-0.2,0.1-0.4,0.2-0.6c0.1-0.2,0.4-0.2,0.6-0.2s0.5,0.1,0.6,0.2c0.1,0.2,0.2,0.4,0.2,0.6s-0.1,0.4-0.2,0.6
			c-0.1,0.2-0.4,0.2-0.6,0.2s-0.5-0.1-0.6-0.2C468.3,1687.7,468.3,1687.5,468.3,1687.3z M469.8,1698h-1.4v-8.5h1.4V1698z"/>
		<path d="M473.5,1689.5l0,1.1c0.6-0.8,1.5-1.2,2.5-1.2c1.8,0,2.7,1,2.7,3v5.6h-1.4v-5.6c0-0.6-0.1-1.1-0.4-1.4s-0.7-0.4-1.3-0.4
			c-0.5,0-0.9,0.1-1.2,0.4c-0.4,0.2-0.6,0.6-0.8,1v6h-1.4v-8.5H473.5z"/>
		<path d="M484.5,1698.1c-1.1,0-2.1-0.4-2.8-1.1s-1.1-1.8-1.1-3v-0.3c0-0.8,0.2-1.6,0.5-2.2s0.8-1.2,1.3-1.5
			c0.6-0.4,1.2-0.6,1.9-0.6c1.1,0,2,0.4,2.6,1.1s0.9,1.8,0.9,3.1v0.6H482c0,0.8,0.3,1.5,0.7,2c0.5,0.5,1.1,0.8,1.8,0.8
			c0.5,0,0.9-0.1,1.3-0.3c0.4-0.2,0.7-0.5,0.9-0.8l0.9,0.7C486.9,1697.6,485.9,1698.1,484.5,1698.1z M484.3,1690.5
			c-0.6,0-1.1,0.2-1.5,0.6c-0.4,0.4-0.6,1-0.7,1.8h4.2v-0.1c0-0.7-0.2-1.3-0.6-1.7C485.4,1690.7,484.9,1690.5,484.3,1690.5z"/>
	</g>
	<g class="st3">
		<path d="M380.7,1713.3c-0.1,1.2-0.6,2.1-1.3,2.8c-0.7,0.7-1.7,1-3,1c-1.3,0-2.4-0.5-3.2-1.4c-0.8-1-1.2-2.3-1.2-3.9v-1.1
			c0-1.1,0.2-2,0.6-2.8c0.4-0.8,0.9-1.4,1.6-1.8c0.7-0.4,1.5-0.6,2.4-0.6c1.2,0,2.2,0.3,2.9,1c0.7,0.7,1.2,1.6,1.3,2.8h-1.5
			c-0.1-0.9-0.4-1.6-0.8-2c-0.4-0.4-1-0.6-1.8-0.6c-1,0-1.7,0.4-2.3,1.1c-0.5,0.7-0.8,1.7-0.8,3v1.1c0,1.2,0.3,2.2,0.8,2.9
			s1.2,1.1,2.2,1.1c0.8,0,1.5-0.2,1.9-0.6s0.7-1,0.9-2H380.7z"/>
		<path d="M383.4,1705.8l-0.2,2.9h-1l0-3.7h1.2V1705.8z"/>
		<path d="M388.4,1717.1c-1.1,0-2.1-0.4-2.8-1.1s-1.1-1.8-1.1-3v-0.3c0-0.8,0.2-1.6,0.5-2.2s0.8-1.2,1.3-1.5
			c0.6-0.4,1.2-0.6,1.9-0.6c1.1,0,2,0.4,2.6,1.1s0.9,1.8,0.9,3.1v0.6H386c0,0.8,0.3,1.5,0.7,2c0.5,0.5,1.1,0.8,1.8,0.8
			c0.5,0,0.9-0.1,1.3-0.3c0.4-0.2,0.7-0.5,0.9-0.8l0.9,0.7C390.9,1716.6,389.8,1717.1,388.4,1717.1z M388.2,1709.5
			c-0.6,0-1.1,0.2-1.5,0.6c-0.4,0.4-0.6,1-0.7,1.8h4.2v-0.1c0-0.7-0.2-1.3-0.6-1.7C389.3,1709.7,388.8,1709.5,388.2,1709.5z"/>
		<path d="M398.3,1714.7c0-0.4-0.1-0.7-0.4-0.9c-0.3-0.2-0.8-0.4-1.5-0.6c-0.7-0.2-1.3-0.3-1.7-0.6s-0.7-0.5-1-0.8
			c-0.2-0.3-0.3-0.7-0.3-1.1c0-0.7,0.3-1.3,0.9-1.8s1.3-0.7,2.2-0.7c1,0,1.7,0.2,2.3,0.7c0.6,0.5,0.9,1.1,0.9,1.9h-1.5
			c0-0.4-0.2-0.7-0.5-1s-0.8-0.4-1.3-0.4c-0.5,0-0.9,0.1-1.2,0.3s-0.4,0.5-0.4,0.9c0,0.3,0.1,0.6,0.4,0.8c0.3,0.2,0.8,0.3,1.5,0.5
			c0.7,0.2,1.3,0.4,1.8,0.6c0.4,0.2,0.8,0.5,1,0.8c0.2,0.3,0.3,0.7,0.3,1.2c0,0.8-0.3,1.4-0.9,1.8c-0.6,0.5-1.4,0.7-2.4,0.7
			c-0.7,0-1.3-0.1-1.8-0.4c-0.5-0.2-0.9-0.6-1.2-1c-0.3-0.4-0.4-0.9-0.4-1.4h1.4c0,0.5,0.2,0.9,0.6,1.2c0.4,0.3,0.8,0.4,1.4,0.4
			c0.5,0,1-0.1,1.3-0.3C398.1,1715.4,398.3,1715.1,398.3,1714.7z"/>
		<path d="M403.6,1706.5v2h1.6v1.1h-1.6v5.2c0,0.3,0.1,0.6,0.2,0.8c0.1,0.2,0.4,0.3,0.7,0.3c0.2,0,0.4,0,0.7-0.1v1.2
			c-0.4,0.1-0.8,0.2-1.1,0.2c-0.6,0-1.1-0.2-1.5-0.6s-0.5-0.9-0.5-1.7v-5.2h-1.5v-1.1h1.5v-2H403.6z"/>
		<path d="M414.5,1711.3l3-5.7h1.7l-3.9,7.1v4.2h-1.5v-4.2l-3.9-7.1h1.7L414.5,1711.3z"/>
		<path d="M425.3,1716.1c-0.6,0.7-1.4,1-2.5,1c-0.9,0-1.6-0.3-2.1-0.8c-0.5-0.5-0.7-1.3-0.7-2.3v-5.5h1.4v5.5c0,1.3,0.5,1.9,1.6,1.9
			c1.1,0,1.8-0.4,2.2-1.2v-6.1h1.4v8.5h-1.4L425.3,1716.1z"/>
		<path d="M430.3,1708.5l0,0.9c0.6-0.7,1.5-1.1,2.5-1.1c1.2,0,2,0.5,2.4,1.4c0.3-0.4,0.6-0.7,1.1-1c0.5-0.2,1-0.4,1.6-0.4
			c1.9,0,2.8,1,2.8,2.9v5.7h-1.4v-5.6c0-0.6-0.1-1.1-0.4-1.4c-0.3-0.3-0.7-0.4-1.4-0.4c-0.5,0-1,0.2-1.3,0.5
			c-0.4,0.3-0.6,0.8-0.6,1.3v5.6h-1.5v-5.5c0-1.2-0.6-1.8-1.8-1.8c-0.9,0-1.6,0.4-1.9,1.2v6.2h-1.4v-8.5H430.3z"/>
		<path d="M444.3,1708.5l0,0.9c0.6-0.7,1.5-1.1,2.5-1.1c1.2,0,2,0.5,2.4,1.4c0.3-0.4,0.6-0.7,1.1-1c0.5-0.2,1-0.4,1.6-0.4
			c1.9,0,2.8,1,2.8,2.9v5.7h-1.4v-5.6c0-0.6-0.1-1.1-0.4-1.4c-0.3-0.3-0.7-0.4-1.4-0.4c-0.5,0-1,0.2-1.3,0.5
			c-0.4,0.3-0.6,0.8-0.6,1.3v5.6h-1.5v-5.5c0-1.2-0.6-1.8-1.8-1.8c-0.9,0-1.6,0.4-1.9,1.2v6.2h-1.4v-8.5H444.3z"/>
		<path d="M459.7,1714.8l2-6.3h1.5l-3.4,9.8c-0.5,1.4-1.4,2.1-2.5,2.1l-0.3,0l-0.5-0.1v-1.2l0.4,0c0.5,0,0.9-0.1,1.1-0.3
			s0.5-0.6,0.7-1.1l0.3-0.9l-3-8.4h1.6L459.7,1714.8z"/>
	</g>
</g>
</svg>
