<?xml version="1.0" encoding="utf-8"?>
<!-- Generator: Adobe Illustrator 25.3.1, SVG Export Plug-In . SVG Version: 6.00 Build 0)  -->
<svg version="1.1" id="Calque_1" xmlns="http://www.w3.org/2000/svg" xmlns:xlink="http://www.w3.org/1999/xlink" x="0px" y="0px"
	 viewBox="0 0 434 532" style="enable-background:new 0 0 434 532;" xml:space="preserve">
<style type="text/css">
	.st0{opacity:0.8;fill:#F7C61C;}
	.st1{enable-background:new    ;}
	.st2{fill:#020203;}
	.st3{fill:none;stroke:#020203;stroke-width:2;}
	.st4{clip-path:url(#SVGID_2_);}
	.st5{fill:#1E1E1C;}
	.st6{fill:none;stroke:#1E1E1C;stroke-miterlimit:10;}
</style>
<path class="st0" d="M103.3,528.4h241.1c43.5,0,79.1-35.6,79.1-79.1V125.8c0-43.5-35.6-79.1-79.1-79.1H103.3
	c-43.5,0-79.1,35.6-79.1,79.1v323.6C24.2,492.8,59.8,528.4,103.3,528.4z"/>
<g id="Groupe_18" transform="translate(-126 -1367)">
	<g class="st1">
		<path class="st2" d="M158.3,1438.1c3.8,0,7.3-0.4,10.3-1.1c3-0.7,4.5-1.8,4.5-3.2c0-0.9-0.3-1.7-0.9-2.2c-4,1.4-8.3,2.1-13,2.1
			c-6.4,0-11.8-2.2-16.1-6.6s-6.5-10.7-6.5-19c0-5.5,1.1-10.8,3.4-15.9c8.2-1,14.6-2.6,19.1-4.9c6.4-3.3,11.8-8.5,16.4-15.7H193
			c5.6,0,9.7,1,12.4,3.1c3.1,2.5,4.7,7,4.7,13.4v103.7c-3.3,3.1-7.2,5.4-11.6,7c-4.4,1.6-8.9,2.4-13.5,2.4c-7.6,0-13.8-1.8-18.6-5.5
			c-5.4-4.1-8.1-10.1-8.1-18V1438.1z"/>
	</g>
	<g class="st1">
		<path class="st2" d="M270.5,1647.9h-6.2l-1.2,3.5h-3.7l6.4-17.1h3.3l6.4,17.1h-3.7L270.5,1647.9z M265.3,1645.1h4.3l-2.1-6.4
			L265.3,1645.1z"/>
		<path class="st2" d="M276.2,1645c0-2,0.4-3.6,1.3-4.7s2.1-1.8,3.6-1.8c1.2,0,2.3,0.5,3.1,1.4v-6.5h3.4v18h-3.1l-0.2-1.3
			c-0.8,1.1-1.9,1.6-3.3,1.6c-1.5,0-2.7-0.6-3.6-1.8S276.2,1647.1,276.2,1645z M279.6,1645.2c0,1.2,0.2,2.1,0.6,2.7
			c0.4,0.6,1,1,1.8,1c1,0,1.8-0.4,2.2-1.3v-5c-0.4-0.9-1.2-1.3-2.2-1.3C280.4,1641.3,279.6,1642.6,279.6,1645.2z"/>
		<path class="st2" d="M289.8,1645c0-1.3,0.2-2.4,0.7-3.4s1.2-1.7,2.1-2.3s2-0.8,3.2-0.8c1.7,0,3.1,0.5,4.2,1.6s1.7,2.5,1.8,4.3
			l0,0.9c0,1.9-0.5,3.5-1.6,4.7s-2.5,1.8-4.4,1.8s-3.3-0.6-4.4-1.8s-1.6-2.8-1.6-4.8V1645z M293.2,1645.2c0,1.2,0.2,2.1,0.7,2.8
			c0.5,0.6,1.1,1,1.9,1c0.8,0,1.5-0.3,1.9-0.9c0.5-0.6,0.7-1.6,0.7-3c0-1.2-0.2-2.1-0.7-2.7c-0.5-0.6-1.1-1-1.9-1
			c-0.8,0-1.5,0.3-1.9,1C293.4,1642.8,293.2,1643.8,293.2,1645.2z"/>
		<path class="st2" d="M315.3,1645.2c0,2-0.4,3.5-1.3,4.7s-2.1,1.8-3.6,1.8c-1.3,0-2.3-0.4-3.1-1.3v6h-3.4v-17.6h3.1l0.1,1.2
			c0.8-1,1.9-1.5,3.2-1.5c1.6,0,2.8,0.6,3.6,1.7s1.3,2.8,1.3,4.8V1645.2z M311.9,1644.9c0-1.2-0.2-2.1-0.6-2.7s-1-1-1.8-1
			c-1.1,0-1.8,0.4-2.2,1.2v5.2c0.4,0.8,1.2,1.3,2.2,1.3C311.1,1648.9,311.9,1647.6,311.9,1644.9z"/>
		<path class="st2" d="M321.4,1635.6v3.1h2.2v2.5h-2.2v6.3c0,0.5,0.1,0.8,0.3,1s0.5,0.3,1,0.3c0.4,0,0.7,0,1-0.1v2.6
			c-0.7,0.2-1.3,0.3-2.1,0.3c-2.4,0-3.6-1.2-3.6-3.6v-6.8h-1.9v-2.5h1.9v-3.1H321.4z"/>
		<path class="st2" d="M331.3,1651.7c-1.9,0-3.4-0.6-4.5-1.7s-1.8-2.7-1.8-4.6v-0.3c0-1.3,0.2-2.4,0.7-3.4s1.2-1.8,2.1-2.3
			s1.9-0.8,3.1-0.8c1.7,0,3.1,0.5,4.1,1.6s1.5,2.6,1.5,4.7v1.4h-8.1c0.1,0.8,0.4,1.5,1,2s1.2,0.8,2.1,0.8c1.3,0,2.3-0.5,3.1-1.4
			l1.7,1.9c-0.5,0.7-1.2,1.3-2.1,1.7S332.4,1651.7,331.3,1651.7z M330.9,1641.2c-0.7,0-1.2,0.2-1.6,0.7s-0.7,1.1-0.8,2h4.7v-0.3
			c0-0.8-0.2-1.3-0.6-1.7S331.7,1641.2,330.9,1641.2z"/>
		<path class="st2" d="M352,1650.1c-0.8,1-2,1.5-3.5,1.5c-1.4,0-2.4-0.4-3.1-1.2s-1.1-1.9-1.1-3.4v-8.3h3.4v8.2c0,1.3,0.6,2,1.8,2
			c1.1,0,1.9-0.4,2.4-1.2v-9h3.4v12.7h-3.2L352,1650.1z"/>
		<path class="st2" d="M361,1638.7l0.1,1.5c0.9-1.1,2.1-1.7,3.6-1.7c1.3,0,2.3,0.4,3,1.2s1,2,1,3.5v8.2h-3.4v-8.1
			c0-0.7-0.2-1.2-0.5-1.6s-0.8-0.5-1.6-0.5c-1,0-1.7,0.4-2.1,1.2v8.9h-3.4v-12.7H361z"/>
		<path class="st2" d="M384.1,1647.9c0-0.4-0.2-0.7-0.6-1s-1.1-0.5-2-0.6c-3-0.6-4.5-1.9-4.5-3.8c0-1.1,0.5-2.1,1.4-2.8
			s2.2-1.1,3.7-1.1c1.6,0,2.9,0.4,3.9,1.1s1.4,1.7,1.4,3H384c0-0.5-0.2-0.9-0.5-1.2s-0.8-0.5-1.5-0.5c-0.6,0-1,0.1-1.3,0.4
			s-0.5,0.6-0.5,1c0,0.4,0.2,0.7,0.5,0.9s1,0.4,1.8,0.6s1.6,0.4,2.1,0.6c1.8,0.7,2.7,1.8,2.7,3.4c0,1.2-0.5,2.1-1.5,2.8
			s-2.3,1.1-3.8,1.1c-1.1,0-2-0.2-2.8-0.6s-1.5-0.9-1.9-1.6s-0.7-1.4-0.7-2.1h3.2c0,0.6,0.3,1.1,0.7,1.4s1,0.5,1.7,0.5
			c0.6,0,1.1-0.1,1.5-0.4S384.1,1648.3,384.1,1647.9z"/>
		<path class="st2" d="M393.7,1635.6v3.1h2.2v2.5h-2.2v6.3c0,0.5,0.1,0.8,0.3,1s0.5,0.3,1,0.3c0.4,0,0.7,0,1-0.1v2.6
			c-0.7,0.2-1.3,0.3-2.1,0.3c-2.4,0-3.6-1.2-3.6-3.6v-6.8h-1.9v-2.5h1.9v-3.1H393.7z"/>
		<path class="st2" d="M402.5,1646.6l2.3-7.9h3.6l-5.1,14.6l-0.3,0.7c-0.8,1.7-2,2.5-3.8,2.5c-0.5,0-1-0.1-1.5-0.2v-2.6l0.5,0
			c0.6,0,1.1-0.1,1.4-0.3s0.6-0.5,0.7-1l0.4-1l-4.4-12.7h3.6L402.5,1646.6z"/>
		<path class="st2" d="M413.4,1651.4H410v-18h3.4V1651.4z"/>
		<path class="st2" d="M422,1651.7c-1.9,0-3.4-0.6-4.5-1.7s-1.8-2.7-1.8-4.6v-0.3c0-1.3,0.2-2.4,0.7-3.4s1.2-1.8,2.1-2.3
			s1.9-0.8,3.1-0.8c1.7,0,3.1,0.5,4.1,1.6s1.5,2.6,1.5,4.7v1.4h-8.1c0.1,0.8,0.4,1.5,1,2s1.2,0.8,2.1,0.8c1.3,0,2.3-0.5,3.1-1.4
			l1.7,1.9c-0.5,0.7-1.2,1.3-2.1,1.7S423,1651.7,422,1651.7z M421.6,1641.2c-0.7,0-1.2,0.2-1.6,0.7s-0.7,1.1-0.8,2h4.7v-0.3
			c0-0.8-0.2-1.3-0.6-1.7S422.3,1641.2,421.6,1641.2z"/>
	</g>
	<g class="st1">
		<path class="st2" d="M268.7,1698.9h6.7v1.5h-8.6v-14.2h1.9V1698.9z"/>
		<path class="st2" d="M281.7,1700.6c-1.4,0-2.6-0.5-3.5-1.4c-0.9-0.9-1.3-2.2-1.3-3.8v-0.3c0-1,0.2-2,0.6-2.8
			c0.4-0.8,1-1.5,1.7-1.9c0.7-0.5,1.5-0.7,2.3-0.7c1.4,0,2.4,0.5,3.2,1.4c0.8,0.9,1.1,2.2,1.1,3.9v0.8h-7.2c0,1,0.3,1.9,0.9,2.5
			c0.6,0.6,1.3,1,2.2,1c0.6,0,1.2-0.1,1.6-0.4c0.4-0.3,0.8-0.6,1.2-1l1.1,0.9C284.8,1699.9,283.5,1700.6,281.7,1700.6z
			 M281.5,1691.1c-0.7,0-1.3,0.3-1.8,0.8c-0.5,0.5-0.8,1.3-0.9,2.2h5.3v-0.1c-0.1-0.9-0.3-1.6-0.7-2.1
			C282.8,1691.4,282.3,1691.1,281.5,1691.1z"/>
		<path class="st2" d="M301.8,1695.2c0,1.6-0.4,2.9-1.1,3.9c-0.7,1-1.7,1.5-3,1.5c-1.3,0-2.3-0.4-3-1.2v5.1h-1.8v-14.6h1.7l0.1,1.2
			c0.7-0.9,1.8-1.4,3.1-1.4c1.3,0,2.3,0.5,3,1.4c0.7,1,1.1,2.3,1.1,4V1695.2z M300,1695c0-1.2-0.3-2.1-0.8-2.8c-0.5-0.7-1.2-1-2.1-1
			c-1.1,0-1.9,0.5-2.5,1.5v5c0.5,1,1.4,1.4,2.5,1.4c0.9,0,1.6-0.3,2.1-1C299.7,1697.4,300,1696.4,300,1695z"/>
		<path class="st2" d="M309.2,1691.5c-0.3,0-0.6-0.1-0.9-0.1c-1.2,0-2,0.5-2.4,1.5v7.5h-1.8v-10.6h1.8l0,1.2
			c0.6-0.9,1.4-1.4,2.5-1.4c0.4,0,0.6,0,0.8,0.1V1691.5z"/>
		<path class="st2" d="M315.1,1700.6c-1.4,0-2.6-0.5-3.5-1.4c-0.9-0.9-1.3-2.2-1.3-3.8v-0.3c0-1,0.2-2,0.6-2.8
			c0.4-0.8,1-1.5,1.7-1.9c0.7-0.5,1.5-0.7,2.3-0.7c1.4,0,2.4,0.5,3.2,1.4c0.8,0.9,1.1,2.2,1.1,3.9v0.8H312c0,1,0.3,1.9,0.9,2.5
			c0.6,0.6,1.3,1,2.2,1c0.6,0,1.2-0.1,1.6-0.4c0.4-0.3,0.8-0.6,1.2-1l1.1,0.9C318.2,1699.9,316.8,1700.6,315.1,1700.6z
			 M317.8,1688.1L317.8,1688.1l-1.5,0.1l-1.5-1.7l-1.5,1.7l-1.5,0v-0.1l2.4-2.7h1.1L317.8,1688.1z M314.8,1691.1
			c-0.7,0-1.3,0.3-1.8,0.8c-0.5,0.5-0.8,1.3-0.9,2.2h5.3v-0.1c-0.1-0.9-0.3-1.6-0.7-2.1C316.2,1691.4,315.6,1691.1,314.8,1691.1z"/>
		<path class="st2" d="M323.7,1687.3v2.6h2v1.4h-2v6.6c0,0.4,0.1,0.7,0.3,1c0.2,0.2,0.5,0.3,0.9,0.3c0.2,0,0.5,0,0.9-0.1v1.5
			c-0.5,0.1-0.9,0.2-1.4,0.2c-0.8,0-1.4-0.2-1.8-0.7s-0.6-1.2-0.6-2.1v-6.6H320v-1.4h1.9v-2.6H323.7z"/>
		<path class="st2" d="M331.6,1695.1h-4.8v-1.5h4.8V1695.1z"/>
		<path class="st2" d="M339.9,1700.4c-0.1-0.2-0.2-0.6-0.3-1.1c-0.8,0.9-1.8,1.3-3,1.3c-1,0-1.9-0.3-2.6-0.9c-0.7-0.6-1-1.3-1-2.2
			c0-1.1,0.4-2,1.3-2.6c0.8-0.6,2-0.9,3.5-0.9h1.8v-0.8c0-0.6-0.2-1.1-0.6-1.5c-0.4-0.4-0.9-0.6-1.7-0.6c-0.6,0-1.2,0.2-1.6,0.5
			c-0.4,0.3-0.7,0.7-0.7,1.2h-1.8c0-0.5,0.2-1,0.6-1.5c0.4-0.5,0.9-0.9,1.5-1.2c0.6-0.3,1.3-0.4,2.1-0.4c1.2,0,2.2,0.3,2.9,0.9
			c0.7,0.6,1,1.4,1.1,2.5v4.9c0,1,0.1,1.7,0.4,2.3v0.2H339.9z M338.7,1688.3l-1.6,0l-2.5-2.9h2.2L338.7,1688.3z M336.9,1699
			c0.6,0,1.1-0.1,1.6-0.4s0.9-0.7,1.1-1.1v-2.2h-1.4c-2.2,0-3.3,0.6-3.3,1.9c0,0.6,0.2,1,0.6,1.3
			C335.8,1698.9,336.3,1699,336.9,1699z"/>
		<path class="st2" d="M348,1695.1h-4.8v-1.5h4.8V1695.1z"/>
		<path class="st2" d="M354,1699.1c0.6,0,1.2-0.2,1.7-0.6c0.5-0.4,0.7-0.9,0.8-1.5h1.7c0,0.6-0.2,1.2-0.6,1.7
			c-0.4,0.5-0.9,1-1.5,1.3c-0.6,0.3-1.3,0.5-2,0.5c-1.4,0-2.6-0.5-3.4-1.4c-0.8-1-1.3-2.3-1.3-3.9v-0.3c0-1,0.2-1.9,0.6-2.7
			c0.4-0.8,0.9-1.4,1.6-1.9c0.7-0.4,1.5-0.7,2.5-0.7c1.2,0,2.2,0.4,3,1.1c0.8,0.7,1.2,1.6,1.3,2.8h-1.7c-0.1-0.7-0.3-1.2-0.8-1.7
			c-0.5-0.4-1-0.7-1.7-0.7c-0.9,0-1.6,0.3-2.1,1c-0.5,0.7-0.8,1.6-0.8,2.9v0.3c0,1.2,0.3,2.2,0.8,2.8
			C352.3,1698.8,353,1699.1,354,1699.1z"/>
		<path class="st2" d="M366.7,1699.4c-0.7,0.8-1.7,1.2-3.1,1.2c-1.1,0-2-0.3-2.6-1c-0.6-0.7-0.9-1.6-0.9-2.9v-6.9h1.8v6.8
			c0,1.6,0.7,2.4,2,2.4c1.4,0,2.3-0.5,2.8-1.5v-7.7h1.8v10.6h-1.7L366.7,1699.4z"/>
		<path class="st2" d="M371.2,1687c0-0.3,0.1-0.5,0.3-0.7c0.2-0.2,0.4-0.3,0.8-0.3s0.6,0.1,0.8,0.3c0.2,0.2,0.3,0.4,0.3,0.7
			s-0.1,0.5-0.3,0.7c-0.2,0.2-0.4,0.3-0.8,0.3s-0.6-0.1-0.8-0.3C371.3,1687.6,371.2,1687.3,371.2,1687z M373.2,1700.4h-1.8v-10.6
			h1.8V1700.4z"/>
		<path class="st2" d="M382.2,1697.6c0-0.5-0.2-0.9-0.6-1.1c-0.4-0.3-1-0.5-1.9-0.7c-0.9-0.2-1.6-0.4-2.2-0.7s-0.9-0.6-1.2-1
			c-0.3-0.4-0.4-0.8-0.4-1.3c0-0.9,0.4-1.6,1.1-2.2c0.7-0.6,1.7-0.9,2.8-0.9c1.2,0,2.2,0.3,2.9,0.9c0.7,0.6,1.1,1.4,1.1,2.4h-1.8
			c0-0.5-0.2-0.9-0.6-1.3c-0.4-0.4-0.9-0.5-1.6-0.5c-0.7,0-1.2,0.1-1.5,0.4c-0.4,0.3-0.6,0.7-0.6,1.1c0,0.4,0.2,0.8,0.5,1
			c0.3,0.2,1,0.4,1.9,0.6c0.9,0.2,1.6,0.4,2.2,0.7c0.6,0.3,1,0.6,1.2,1c0.3,0.4,0.4,0.9,0.4,1.4c0,0.9-0.4,1.7-1.1,2.3
			c-0.8,0.6-1.7,0.9-2.9,0.9c-0.8,0-1.6-0.1-2.2-0.4c-0.7-0.3-1.2-0.7-1.5-1.3c-0.4-0.5-0.6-1.1-0.6-1.7h1.8c0,0.6,0.3,1.1,0.7,1.4
			c0.5,0.4,1,0.5,1.8,0.5c0.7,0,1.2-0.1,1.6-0.4C382,1698.4,382.2,1698.1,382.2,1697.6z"/>
		<path class="st2" d="M386.4,1687c0-0.3,0.1-0.5,0.3-0.7c0.2-0.2,0.4-0.3,0.8-0.3s0.6,0.1,0.8,0.3c0.2,0.2,0.3,0.4,0.3,0.7
			s-0.1,0.5-0.3,0.7c-0.2,0.2-0.4,0.3-0.8,0.3s-0.6-0.1-0.8-0.3C386.5,1687.6,386.4,1687.3,386.4,1687z M388.4,1700.4h-1.8v-10.6
			h1.8V1700.4z"/>
		<path class="st2" d="M393,1689.8l0.1,1.3c0.8-1,1.9-1.5,3.2-1.5c2.2,0,3.4,1.3,3.4,3.8v7h-1.8v-7c0-0.8-0.2-1.3-0.5-1.7
			c-0.3-0.4-0.9-0.5-1.6-0.5c-0.6,0-1.1,0.2-1.5,0.5c-0.4,0.3-0.8,0.7-1,1.2v7.5h-1.8v-10.6H393z"/>
		<path class="st2" d="M406.7,1700.6c-1.4,0-2.6-0.5-3.5-1.4c-0.9-0.9-1.3-2.2-1.3-3.8v-0.3c0-1,0.2-2,0.6-2.8
			c0.4-0.8,1-1.5,1.7-1.9c0.7-0.5,1.5-0.7,2.3-0.7c1.4,0,2.4,0.5,3.2,1.4c0.8,0.9,1.1,2.2,1.1,3.9v0.8h-7.2c0,1,0.3,1.9,0.9,2.5
			c0.6,0.6,1.3,1,2.2,1c0.6,0,1.2-0.1,1.6-0.4c0.4-0.3,0.8-0.6,1.2-1l1.1,0.9C409.8,1699.9,408.4,1700.6,406.7,1700.6z
			 M406.4,1691.1c-0.7,0-1.3,0.3-1.8,0.8c-0.5,0.5-0.8,1.3-0.9,2.2h5.3v-0.1c-0.1-0.9-0.3-1.6-0.7-2.1
			C407.8,1691.4,407.2,1691.1,406.4,1691.1z"/>
		<path class="st2" d="M418,1691.5c-0.3,0-0.6-0.1-0.9-0.1c-1.2,0-2,0.5-2.4,1.5v7.5h-1.8v-10.6h1.8l0,1.2c0.6-0.9,1.4-1.4,2.5-1.4
			c0.4,0,0.6,0,0.8,0.1V1691.5z"/>
	</g>
	<g class="st1">
		<path class="st2" d="M229.9,1719c0-1.7,0.4-3,1.1-3.9s1.8-1.5,3.1-1.5c1.2,0,2.2,0.4,3,1.3l0.1-1.1h1.7v14.6H237v-5
			c-0.7,0.8-1.7,1.2-2.9,1.2c-1.3,0-2.3-0.5-3.1-1.5c-0.8-1-1.1-2.3-1.1-4V1719z M231.7,1719.2c0,1.2,0.3,2.2,0.8,2.9
			c0.5,0.7,1.2,1,2.1,1c1.1,0,1.9-0.5,2.5-1.4v-5.2c-0.6-0.9-1.4-1.4-2.4-1.4c-0.9,0-1.6,0.3-2.1,1S231.7,1717.9,231.7,1719.2z"/>
		<path class="st2" d="M248.2,1723.4c-0.7,0.8-1.7,1.2-3.1,1.2c-1.1,0-2-0.3-2.6-1s-0.9-1.6-0.9-2.9v-6.9h1.8v6.8
			c0,1.6,0.7,2.4,2,2.4c1.4,0,2.3-0.5,2.8-1.5v-7.7h1.8v10.6h-1.7L248.2,1723.4z"/>
		<path class="st2" d="M252.7,1711c0-0.3,0.1-0.5,0.3-0.7c0.2-0.2,0.4-0.3,0.8-0.3s0.6,0.1,0.8,0.3c0.2,0.2,0.3,0.4,0.3,0.7
			s-0.1,0.5-0.3,0.7s-0.4,0.3-0.8,0.3s-0.6-0.1-0.8-0.3S252.7,1711.3,252.7,1711z M254.7,1724.4h-1.8v-10.6h1.8V1724.4z"/>
		<path class="st2" d="M267.6,1715.5c-0.3,0-0.6-0.1-0.9-0.1c-1.2,0-2,0.5-2.4,1.5v7.5h-1.8v-10.6h1.8l0,1.2
			c0.6-0.9,1.4-1.4,2.5-1.4c0.4,0,0.6,0,0.8,0.1V1715.5z"/>
		<path class="st2" d="M273.5,1724.6c-1.4,0-2.6-0.5-3.5-1.4c-0.9-0.9-1.3-2.2-1.3-3.8v-0.3c0-1,0.2-2,0.6-2.8
			c0.4-0.8,1-1.5,1.7-1.9c0.7-0.5,1.5-0.7,2.3-0.7c1.4,0,2.4,0.5,3.2,1.4c0.8,0.9,1.1,2.2,1.1,3.9v0.8h-7.2c0,1,0.3,1.9,0.9,2.5
			c0.6,0.6,1.3,1,2.2,1c0.6,0,1.2-0.1,1.6-0.4c0.4-0.3,0.8-0.6,1.2-1l1.1,0.9C276.6,1723.9,275.3,1724.6,273.5,1724.6z
			 M273.3,1715.1c-0.7,0-1.3,0.3-1.8,0.8c-0.5,0.5-0.8,1.3-0.9,2.2h5.3v-0.1c-0.1-0.9-0.3-1.6-0.7-2.1
			C274.6,1715.4,274,1715.1,273.3,1715.1z"/>
		<path class="st2" d="M285.9,1721.6c0-0.5-0.2-0.9-0.6-1.1c-0.4-0.3-1-0.5-1.9-0.7s-1.6-0.4-2.2-0.7s-0.9-0.6-1.2-1
			c-0.3-0.4-0.4-0.8-0.4-1.3c0-0.9,0.4-1.6,1.1-2.2c0.7-0.6,1.7-0.9,2.8-0.9c1.2,0,2.2,0.3,2.9,0.9c0.7,0.6,1.1,1.4,1.1,2.4h-1.8
			c0-0.5-0.2-0.9-0.6-1.3c-0.4-0.4-0.9-0.5-1.6-0.5c-0.7,0-1.2,0.1-1.5,0.4c-0.4,0.3-0.6,0.7-0.6,1.1c0,0.4,0.2,0.8,0.5,1
			c0.3,0.2,1,0.4,1.9,0.6c0.9,0.2,1.6,0.4,2.2,0.7c0.6,0.3,1,0.6,1.2,1c0.3,0.4,0.4,0.9,0.4,1.4c0,0.9-0.4,1.7-1.1,2.3
			c-0.8,0.6-1.7,0.9-2.9,0.9c-0.8,0-1.6-0.1-2.2-0.4c-0.7-0.3-1.2-0.7-1.5-1.3s-0.6-1.1-0.6-1.7h1.8c0,0.6,0.3,1.1,0.7,1.4
			c0.5,0.4,1,0.5,1.8,0.5c0.7,0,1.2-0.1,1.6-0.4C285.7,1722.4,285.9,1722.1,285.9,1721.6z"/>
		<path class="st2" d="M299,1719.2c0,1.6-0.4,2.9-1.1,3.9c-0.7,1-1.7,1.5-3,1.5c-1.3,0-2.3-0.4-3-1.2v5.1H290v-14.6h1.7l0.1,1.2
			c0.7-0.9,1.8-1.4,3.1-1.4c1.3,0,2.3,0.5,3,1.4s1.1,2.3,1.1,4V1719.2z M297.1,1719c0-1.2-0.3-2.1-0.8-2.8c-0.5-0.7-1.2-1-2.1-1
			c-1.1,0-1.9,0.5-2.5,1.5v5c0.5,1,1.4,1.4,2.5,1.4c0.9,0,1.6-0.3,2.1-1C296.9,1721.4,297.1,1720.4,297.1,1719z"/>
		<path class="st2" d="M305.6,1724.6c-1.4,0-2.6-0.5-3.5-1.4c-0.9-0.9-1.3-2.2-1.3-3.8v-0.3c0-1,0.2-2,0.6-2.8
			c0.4-0.8,1-1.5,1.7-1.9c0.7-0.5,1.5-0.7,2.3-0.7c1.4,0,2.4,0.5,3.2,1.4c0.8,0.9,1.1,2.2,1.1,3.9v0.8h-7.2c0,1,0.3,1.9,0.9,2.5
			c0.6,0.6,1.3,1,2.2,1c0.6,0,1.2-0.1,1.6-0.4c0.4-0.3,0.8-0.6,1.2-1l1.1,0.9C308.7,1723.9,307.4,1724.6,305.6,1724.6z
			 M305.4,1715.1c-0.7,0-1.3,0.3-1.8,0.8c-0.5,0.5-0.8,1.3-0.9,2.2h5.3v-0.1c-0.1-0.9-0.3-1.6-0.7-2.1
			C306.8,1715.4,306.2,1715.1,305.4,1715.1z"/>
		<path class="st2" d="M316.1,1723.1c0.6,0,1.2-0.2,1.7-0.6s0.7-0.9,0.8-1.5h1.7c0,0.6-0.2,1.2-0.6,1.7s-0.9,1-1.5,1.3
			c-0.6,0.3-1.3,0.5-2,0.5c-1.4,0-2.6-0.5-3.4-1.4c-0.8-1-1.3-2.3-1.3-3.9v-0.3c0-1,0.2-1.9,0.6-2.7s0.9-1.4,1.6-1.9
			c0.7-0.4,1.5-0.7,2.5-0.7c1.2,0,2.2,0.4,3,1.1c0.8,0.7,1.2,1.6,1.3,2.8h-1.7c-0.1-0.7-0.3-1.2-0.8-1.7s-1-0.7-1.7-0.7
			c-0.9,0-1.6,0.3-2.1,1c-0.5,0.7-0.8,1.6-0.8,2.9v0.3c0,1.2,0.3,2.2,0.8,2.8C314.4,1722.8,315.1,1723.1,316.1,1723.1z"/>
		<path class="st2" d="M324.8,1711.3v2.6h2v1.4h-2v6.6c0,0.4,0.1,0.7,0.3,1c0.2,0.2,0.5,0.3,0.9,0.3c0.2,0,0.5,0,0.9-0.1v1.5
			c-0.5,0.1-0.9,0.2-1.4,0.2c-0.8,0-1.4-0.2-1.8-0.7s-0.6-1.2-0.6-2.1v-6.6H321v-1.4h1.9v-2.6H324.8z"/>
		<path class="st2" d="M333.2,1724.6c-1.4,0-2.6-0.5-3.5-1.4c-0.9-0.9-1.3-2.2-1.3-3.8v-0.3c0-1,0.2-2,0.6-2.8
			c0.4-0.8,1-1.5,1.7-1.9c0.7-0.5,1.5-0.7,2.3-0.7c1.4,0,2.4,0.5,3.2,1.4c0.8,0.9,1.1,2.2,1.1,3.9v0.8h-7.2c0,1,0.3,1.9,0.9,2.5
			c0.6,0.6,1.3,1,2.2,1c0.6,0,1.2-0.1,1.6-0.4c0.4-0.3,0.8-0.6,1.2-1l1.1,0.9C336.3,1723.9,335,1724.6,333.2,1724.6z M333,1715.1
			c-0.7,0-1.3,0.3-1.8,0.8c-0.5,0.5-0.8,1.3-0.9,2.2h5.3v-0.1c-0.1-0.9-0.3-1.6-0.7-2.1C334.4,1715.4,333.8,1715.1,333,1715.1z"/>
		<path class="st2" d="M347.9,1722l2.6-8.1h1.8l-3.8,10.6h-1.4l-3.8-10.6h1.8L347.9,1722z"/>
		<path class="st2" d="M353.5,1719c0-1,0.2-2,0.6-2.8c0.4-0.8,1-1.5,1.7-1.9s1.6-0.7,2.5-0.7c1.4,0,2.6,0.5,3.5,1.5s1.3,2.3,1.3,4
			v0.1c0,1-0.2,2-0.6,2.8c-0.4,0.8-1,1.5-1.7,1.9c-0.7,0.5-1.6,0.7-2.5,0.7c-1.4,0-2.6-0.5-3.5-1.5s-1.3-2.3-1.3-4V1719z
			 M355.3,1719.2c0,1.2,0.3,2.1,0.8,2.8c0.5,0.7,1.3,1.1,2.2,1.1c0.9,0,1.6-0.4,2.2-1.1c0.5-0.7,0.8-1.7,0.8-3
			c0-1.2-0.3-2.1-0.8-2.8c-0.6-0.7-1.3-1.1-2.2-1.1c-0.9,0-1.6,0.4-2.2,1.1C355.5,1716.9,355.3,1717.9,355.3,1719.2z"/>
		<path class="st2" d="M367.8,1711.3v2.6h2v1.4h-2v6.6c0,0.4,0.1,0.7,0.3,1c0.2,0.2,0.5,0.3,0.9,0.3c0.2,0,0.5,0,0.9-0.1v1.5
			c-0.5,0.1-0.9,0.2-1.4,0.2c-0.8,0-1.4-0.2-1.8-0.7s-0.6-1.2-0.6-2.1v-6.6h-1.9v-1.4h1.9v-2.6H367.8z"/>
		<path class="st2" d="M377,1715.5c-0.3,0-0.6-0.1-0.9-0.1c-1.2,0-2,0.5-2.4,1.5v7.5h-1.8v-10.6h1.8l0,1.2c0.6-0.9,1.4-1.4,2.5-1.4
			c0.4,0,0.6,0,0.8,0.1V1715.5z"/>
		<path class="st2" d="M382.8,1724.6c-1.4,0-2.6-0.5-3.5-1.4c-0.9-0.9-1.3-2.2-1.3-3.8v-0.3c0-1,0.2-2,0.6-2.8
			c0.4-0.8,1-1.5,1.7-1.9c0.7-0.5,1.5-0.7,2.3-0.7c1.4,0,2.4,0.5,3.2,1.4c0.8,0.9,1.1,2.2,1.1,3.9v0.8h-7.2c0,1,0.3,1.9,0.9,2.5
			c0.6,0.6,1.3,1,2.2,1c0.6,0,1.2-0.1,1.6-0.4c0.4-0.3,0.8-0.6,1.2-1l1.1,0.9C385.9,1723.9,384.6,1724.6,382.8,1724.6z
			 M382.6,1715.1c-0.7,0-1.3,0.3-1.8,0.8c-0.5,0.5-0.8,1.3-0.9,2.2h5.3v-0.1c-0.1-0.9-0.3-1.6-0.7-2.1
			C384,1715.4,383.4,1715.1,382.6,1715.1z"/>
		<path class="st2" d="M402.9,1719.2c0,1.6-0.4,2.9-1.1,3.9c-0.7,1-1.7,1.5-3,1.5c-1.3,0-2.4-0.5-3.1-1.4l-0.1,1.2H394v-15h1.8v5.6
			c0.7-0.9,1.7-1.4,3-1.4s2.3,0.5,3,1.5c0.7,1,1.1,2.3,1.1,4V1719.2z M401.1,1719c0-1.2-0.2-2.2-0.7-2.9c-0.5-0.7-1.2-1-2.1-1
			c-1.2,0-2,0.6-2.6,1.7v4.6c0.6,1.1,1.4,1.7,2.6,1.7c0.9,0,1.5-0.3,2-1C400.9,1721.4,401.1,1720.4,401.1,1719z"/>
		<path class="st2" d="M411.7,1723.4c-0.7,0.8-1.7,1.2-3.1,1.2c-1.1,0-2-0.3-2.6-1s-0.9-1.6-0.9-2.9v-6.9h1.8v6.8
			c0,1.6,0.7,2.4,2,2.4c1.4,0,2.3-0.5,2.8-1.5v-7.7h1.8v10.6h-1.7L411.7,1723.4z"/>
		<path class="st2" d="M415.8,1719c0-1.6,0.4-2.9,1.2-3.9s1.8-1.5,3-1.5c1.2,0,2.2,0.4,2.9,1.3v-5.5h1.8v15h-1.7l-0.1-1.1
			c-0.7,0.9-1.7,1.3-3,1.3c-1.2,0-2.2-0.5-3-1.5c-0.8-1-1.2-2.3-1.2-3.9V1719z M417.6,1719.2c0,1.2,0.2,2.1,0.7,2.8
			c0.5,0.7,1.2,1,2.1,1c1.1,0,2-0.5,2.5-1.5v-4.9c-0.5-1-1.4-1.5-2.5-1.5c-0.9,0-1.6,0.3-2.1,1S417.6,1717.9,417.6,1719.2z"/>
		<path class="st2" d="M427.1,1719c0-1.6,0.4-3,1.1-3.9c0.8-1,1.8-1.5,3-1.5c1.3,0,2.3,0.5,3,1.4l0.1-1.2h1.7v10.3
			c0,1.4-0.4,2.4-1.2,3.2c-0.8,0.8-1.9,1.2-3.3,1.2c-0.8,0-1.5-0.2-2.2-0.5c-0.7-0.3-1.3-0.8-1.7-1.3l0.9-1.1c0.8,1,1.7,1.4,2.8,1.4
			c0.9,0,1.6-0.2,2.1-0.7c0.5-0.5,0.7-1.2,0.7-2.1v-0.9c-0.7,0.8-1.7,1.2-3,1.2c-1.2,0-2.2-0.5-3-1.5S427.1,1720.8,427.1,1719z
			 M428.9,1719.2c0,1.2,0.2,2.1,0.7,2.8c0.5,0.7,1.2,1,2.1,1c1.1,0,2-0.5,2.5-1.6v-4.8c-0.6-1-1.4-1.5-2.5-1.5c-0.9,0-1.6,0.3-2.1,1
			S428.9,1717.9,428.9,1719.2z"/>
		<path class="st2" d="M443.1,1724.6c-1.4,0-2.6-0.5-3.5-1.4c-0.9-0.9-1.3-2.2-1.3-3.8v-0.3c0-1,0.2-2,0.6-2.8
			c0.4-0.8,1-1.5,1.7-1.9c0.7-0.5,1.5-0.7,2.3-0.7c1.4,0,2.4,0.5,3.2,1.4c0.8,0.9,1.1,2.2,1.1,3.9v0.8h-7.2c0,1,0.3,1.9,0.9,2.5
			c0.6,0.6,1.3,1,2.2,1c0.6,0,1.2-0.1,1.6-0.4c0.4-0.3,0.8-0.6,1.2-1l1.1,0.9C446.2,1723.9,444.9,1724.6,443.1,1724.6z
			 M442.9,1715.1c-0.7,0-1.3,0.3-1.8,0.8c-0.5,0.5-0.8,1.3-0.9,2.2h5.3v-0.1c-0.1-0.9-0.3-1.6-0.7-2.1
			C444.3,1715.4,443.7,1715.1,442.9,1715.1z"/>
		<path class="st2" d="M451.8,1711.3v2.6h2v1.4h-2v6.6c0,0.4,0.1,0.7,0.3,1c0.2,0.2,0.5,0.3,0.9,0.3c0.2,0,0.5,0,0.9-0.1v1.5
			c-0.5,0.1-0.9,0.2-1.4,0.2c-0.8,0-1.4-0.2-1.8-0.7s-0.6-1.2-0.6-2.1v-6.6h-1.9v-1.4h1.9v-2.6H451.8z"/>
	</g>
	<g class="st1">
		<path class="st2" d="M306.8,1743.9c-0.2,1.5-0.7,2.7-1.7,3.5c-0.9,0.8-2.2,1.2-3.7,1.2c-1.7,0-3-0.6-4-1.8c-1-1.2-1.5-2.8-1.5-4.8
			v-1.4c0-1.3,0.2-2.5,0.7-3.5c0.5-1,1.1-1.8,2-2.3s1.9-0.8,3-0.8c1.5,0,2.7,0.4,3.6,1.3c0.9,0.8,1.4,2,1.6,3.5h-1.9
			c-0.2-1.1-0.5-2-1.1-2.5c-0.5-0.5-1.3-0.8-2.3-0.8c-1.2,0-2.1,0.4-2.8,1.3s-1,2.1-1,3.8v1.4c0,1.5,0.3,2.8,1,3.7s1.5,1.4,2.7,1.4
			c1,0,1.8-0.2,2.4-0.7c0.6-0.5,0.9-1.3,1.1-2.5H306.8z"/>
		<path class="st2" d="M310.2,1734.5l-0.2,3.6h-1.3l0-4.7h1.5V1734.5z"/>
		<path class="st2" d="M316.4,1748.6c-1.4,0-2.6-0.5-3.5-1.4c-0.9-0.9-1.3-2.2-1.3-3.8v-0.3c0-1,0.2-2,0.6-2.8
			c0.4-0.8,1-1.5,1.7-1.9c0.7-0.5,1.5-0.7,2.3-0.7c1.4,0,2.4,0.5,3.2,1.4c0.8,0.9,1.1,2.2,1.1,3.9v0.8h-7.2c0,1,0.3,1.9,0.9,2.5
			c0.6,0.6,1.3,1,2.2,1c0.6,0,1.2-0.1,1.6-0.4c0.4-0.3,0.8-0.6,1.2-1l1.1,0.9C319.5,1747.9,318.1,1748.6,316.4,1748.6z
			 M316.1,1739.1c-0.7,0-1.3,0.3-1.8,0.8c-0.5,0.5-0.8,1.3-0.9,2.2h5.3v-0.1c-0.1-0.9-0.3-1.6-0.7-2.1
			C317.5,1739.4,316.9,1739.1,316.1,1739.1z"/>
		<path class="st2" d="M328.7,1745.6c0-0.5-0.2-0.9-0.6-1.1c-0.4-0.3-1-0.5-1.9-0.7s-1.6-0.4-2.2-0.7s-0.9-0.6-1.2-1
			c-0.3-0.4-0.4-0.8-0.4-1.3c0-0.9,0.4-1.6,1.1-2.2c0.7-0.6,1.7-0.9,2.8-0.9c1.2,0,2.2,0.3,2.9,0.9c0.7,0.6,1.1,1.4,1.1,2.4h-1.8
			c0-0.5-0.2-0.9-0.6-1.3c-0.4-0.4-0.9-0.5-1.6-0.5c-0.7,0-1.2,0.1-1.5,0.4c-0.4,0.3-0.6,0.7-0.6,1.1c0,0.4,0.2,0.8,0.5,1
			c0.3,0.2,1,0.4,1.9,0.6c0.9,0.2,1.6,0.4,2.2,0.7c0.6,0.3,1,0.6,1.2,1c0.3,0.4,0.4,0.9,0.4,1.4c0,0.9-0.4,1.7-1.1,2.3
			c-0.8,0.6-1.7,0.9-2.9,0.9c-0.8,0-1.6-0.1-2.2-0.4c-0.7-0.3-1.2-0.7-1.5-1.3s-0.6-1.1-0.6-1.7h1.8c0,0.6,0.3,1.1,0.7,1.4
			c0.5,0.4,1,0.5,1.8,0.5c0.7,0,1.2-0.1,1.6-0.4C328.5,1746.4,328.7,1746.1,328.7,1745.6z"/>
		<path class="st2" d="M335.3,1735.3v2.6h2v1.4h-2v6.6c0,0.4,0.1,0.7,0.3,1c0.2,0.2,0.5,0.3,0.9,0.3c0.2,0,0.5,0,0.9-0.1v1.5
			c-0.5,0.1-0.9,0.2-1.4,0.2c-0.8,0-1.4-0.2-1.8-0.7s-0.6-1.2-0.6-2.1v-6.6h-1.9v-1.4h1.9v-2.6H335.3z"/>
		<path class="st2" d="M347.1,1734.2l4.6,11.6l4.6-11.6h2.4v14.2h-1.9v-5.5l0.2-6l-4.7,11.5H351l-4.7-11.5l0.2,5.9v5.5h-1.9v-14.2
			H347.1z"/>
		<path class="st2" d="M361.9,1735c0-0.3,0.1-0.5,0.3-0.7c0.2-0.2,0.4-0.3,0.8-0.3s0.6,0.1,0.8,0.3c0.2,0.2,0.3,0.4,0.3,0.7
			s-0.1,0.5-0.3,0.7s-0.4,0.3-0.8,0.3s-0.6-0.1-0.8-0.3S361.9,1735.3,361.9,1735z M363.8,1748.4H362v-10.6h1.8V1748.4z"/>
		<path class="st2" d="M373.2,1748.4c-0.1-0.2-0.2-0.6-0.3-1.1c-0.8,0.9-1.8,1.3-3,1.3c-1,0-1.9-0.3-2.6-0.9c-0.7-0.6-1-1.3-1-2.2
			c0-1.1,0.4-2,1.3-2.6c0.8-0.6,2-0.9,3.5-0.9h1.8v-0.8c0-0.6-0.2-1.1-0.6-1.5c-0.4-0.4-0.9-0.6-1.7-0.6c-0.6,0-1.2,0.2-1.6,0.5
			c-0.4,0.3-0.7,0.7-0.7,1.2h-1.8c0-0.5,0.2-1,0.6-1.5c0.4-0.5,0.9-0.9,1.5-1.2c0.6-0.3,1.3-0.4,2.1-0.4c1.2,0,2.2,0.3,2.9,0.9
			c0.7,0.6,1,1.4,1.1,2.5v4.9c0,1,0.1,1.7,0.4,2.3v0.2H373.2z M370.2,1747c0.6,0,1.1-0.1,1.6-0.4s0.9-0.7,1.1-1.1v-2.2h-1.4
			c-2.2,0-3.3,0.6-3.3,1.9c0,0.6,0.2,1,0.6,1.3C369.1,1746.9,369.6,1747,370.2,1747z"/>
		<path class="st2" d="M379.3,1737.8l0,1.2c0.8-0.9,1.8-1.4,3.1-1.4c1.5,0,2.5,0.6,3,1.7c0.4-0.5,0.8-0.9,1.4-1.2s1.2-0.5,2-0.5
			c2.3,0,3.5,1.2,3.5,3.7v7.1h-1.8v-7c0-0.8-0.2-1.3-0.5-1.7c-0.3-0.4-0.9-0.6-1.7-0.6c-0.7,0-1.2,0.2-1.7,0.6s-0.7,0.9-0.8,1.6v7
			h-1.8v-6.9c0-1.5-0.8-2.3-2.3-2.3c-1.2,0-2,0.5-2.4,1.5v7.7h-1.8v-10.6H379.3z"/>
	</g>
	<g class="st1">
		<path class="st2" d="M269.7,1794.9h6.7v1.5h-8.6v-14.2h1.9V1794.9z"/>
		<path class="st2" d="M282.7,1796.6c-1.4,0-2.6-0.5-3.5-1.4c-0.9-0.9-1.3-2.2-1.3-3.8v-0.3c0-1,0.2-2,0.6-2.8
			c0.4-0.8,1-1.5,1.7-1.9c0.7-0.5,1.5-0.7,2.3-0.7c1.4,0,2.4,0.5,3.2,1.4c0.8,0.9,1.1,2.2,1.1,3.9v0.8h-7.2c0,1,0.3,1.9,0.9,2.5
			c0.6,0.6,1.3,1,2.2,1c0.6,0,1.2-0.1,1.6-0.4c0.4-0.3,0.8-0.6,1.2-1l1.1,0.9C285.8,1795.9,284.4,1796.6,282.7,1796.6z
			 M282.4,1787.1c-0.7,0-1.3,0.3-1.8,0.8c-0.5,0.5-0.8,1.3-0.9,2.2h5.3v-0.1c-0.1-0.9-0.3-1.6-0.7-2.1
			C283.8,1787.4,283.2,1787.1,282.4,1787.1z"/>
		<path class="st2" d="M302.8,1791.2c0,1.6-0.4,2.9-1.1,3.9c-0.7,1-1.7,1.5-3,1.5c-1.3,0-2.3-0.4-3-1.2v5.1h-1.8v-14.6h1.7l0.1,1.2
			c0.7-0.9,1.8-1.4,3.1-1.4c1.3,0,2.3,0.5,3,1.4c0.7,1,1.1,2.3,1.1,4V1791.2z M300.9,1791c0-1.2-0.3-2.1-0.8-2.8
			c-0.5-0.7-1.2-1-2.1-1c-1.1,0-1.9,0.5-2.5,1.5v5c0.5,1,1.4,1.4,2.5,1.4c0.9,0,1.6-0.3,2.1-1C300.7,1793.4,300.9,1792.4,300.9,1791
			z"/>
		<path class="st2" d="M310.2,1787.5c-0.3,0-0.6-0.1-0.9-0.1c-1.2,0-2,0.5-2.4,1.5v7.5H305v-10.6h1.8l0,1.2c0.6-0.9,1.4-1.4,2.5-1.4
			c0.4,0,0.6,0,0.8,0.1V1787.5z"/>
		<path class="st2" d="M316,1796.6c-1.4,0-2.6-0.5-3.5-1.4c-0.9-0.9-1.3-2.2-1.3-3.8v-0.3c0-1,0.2-2,0.6-2.8c0.4-0.8,1-1.5,1.7-1.9
			c0.7-0.5,1.5-0.7,2.3-0.7c1.4,0,2.4,0.5,3.2,1.4c0.8,0.9,1.1,2.2,1.1,3.9v0.8H313c0,1,0.3,1.9,0.9,2.5c0.6,0.6,1.3,1,2.2,1
			c0.6,0,1.2-0.1,1.6-0.4c0.4-0.3,0.8-0.6,1.2-1l1.1,0.9C319.1,1795.9,317.8,1796.6,316,1796.6z M318.7,1784.1L318.7,1784.1
			l-1.5,0.1l-1.5-1.7l-1.5,1.7l-1.5,0v-0.1l2.4-2.7h1.1L318.7,1784.1z M315.8,1787.1c-0.7,0-1.3,0.3-1.8,0.8
			c-0.5,0.5-0.8,1.3-0.9,2.2h5.3v-0.1c-0.1-0.9-0.3-1.6-0.7-2.1C317.1,1787.4,316.5,1787.1,315.8,1787.1z"/>
		<path class="st2" d="M324.7,1783.3v2.6h2v1.4h-2v6.6c0,0.4,0.1,0.7,0.3,1c0.2,0.2,0.5,0.3,0.9,0.3c0.2,0,0.5,0,0.9-0.1v1.5
			c-0.5,0.1-0.9,0.2-1.4,0.2c-0.8,0-1.4-0.2-1.8-0.7s-0.6-1.2-0.6-2.1v-6.6h-1.9v-1.4h1.9v-2.6H324.7z"/>
		<path class="st2" d="M332.5,1791.1h-4.8v-1.5h4.8V1791.1z"/>
		<path class="st2" d="M340.8,1796.4c-0.1-0.2-0.2-0.6-0.3-1.1c-0.8,0.9-1.8,1.3-3,1.3c-1,0-1.9-0.3-2.6-0.9c-0.7-0.6-1-1.3-1-2.2
			c0-1.1,0.4-2,1.3-2.6c0.8-0.6,2-0.9,3.5-0.9h1.8v-0.8c0-0.6-0.2-1.1-0.6-1.5c-0.4-0.4-0.9-0.6-1.7-0.6c-0.6,0-1.2,0.2-1.6,0.5
			c-0.4,0.3-0.7,0.7-0.7,1.2h-1.8c0-0.5,0.2-1,0.6-1.5c0.4-0.5,0.9-0.9,1.5-1.2c0.6-0.3,1.3-0.4,2.1-0.4c1.2,0,2.2,0.3,2.9,0.9
			c0.7,0.6,1,1.4,1.1,2.5v4.9c0,1,0.1,1.7,0.4,2.3v0.2H340.8z M339.6,1784.3l-1.6,0l-2.5-2.9h2.2L339.6,1784.3z M337.8,1795
			c0.6,0,1.1-0.1,1.6-0.4s0.9-0.7,1.1-1.1v-2.2h-1.4c-2.2,0-3.3,0.6-3.3,1.9c0,0.6,0.2,1,0.6,1.3
			C336.7,1794.9,337.2,1795,337.8,1795z"/>
		<path class="st2" d="M348.9,1791.1h-4.8v-1.5h4.8V1791.1z"/>
		<path class="st2" d="M352.4,1785.8l0,1.2c0.8-0.9,1.8-1.4,3.1-1.4c1.5,0,2.5,0.6,3,1.7c0.4-0.5,0.8-0.9,1.4-1.2
			c0.6-0.3,1.2-0.5,2-0.5c2.3,0,3.5,1.2,3.5,3.7v7.1h-1.8v-7c0-0.8-0.2-1.3-0.5-1.7c-0.3-0.4-0.9-0.6-1.7-0.6
			c-0.7,0-1.2,0.2-1.7,0.6c-0.4,0.4-0.7,0.9-0.8,1.6v7h-1.8v-6.9c0-1.5-0.8-2.3-2.3-2.3c-1.2,0-2,0.5-2.4,1.5v7.7h-1.8v-10.6H352.4z
			"/>
		<path class="st2" d="M374.7,1796.4c-0.1-0.2-0.2-0.6-0.3-1.1c-0.8,0.9-1.8,1.3-3,1.3c-1,0-1.9-0.3-2.6-0.9c-0.7-0.6-1-1.3-1-2.2
			c0-1.1,0.4-2,1.3-2.6c0.8-0.6,2-0.9,3.5-0.9h1.8v-0.8c0-0.6-0.2-1.1-0.6-1.5c-0.4-0.4-0.9-0.6-1.7-0.6c-0.6,0-1.2,0.2-1.6,0.5
			c-0.4,0.3-0.7,0.7-0.7,1.2h-1.8c0-0.5,0.2-1,0.6-1.5c0.4-0.5,0.9-0.9,1.5-1.2c0.6-0.3,1.3-0.4,2.1-0.4c1.2,0,2.2,0.3,2.9,0.9
			c0.7,0.6,1,1.4,1.1,2.5v4.9c0,1,0.1,1.7,0.4,2.3v0.2H374.7z M371.7,1795c0.6,0,1.1-0.1,1.6-0.4s0.9-0.7,1.1-1.1v-2.2H373
			c-2.2,0-3.3,0.6-3.3,1.9c0,0.6,0.2,1,0.6,1.3C370.6,1794.9,371.1,1795,371.7,1795z"/>
		<path class="st2" d="M380.8,1785.8l0.1,1.3c0.8-1,1.9-1.5,3.2-1.5c2.2,0,3.4,1.3,3.4,3.8v7h-1.8v-7c0-0.8-0.2-1.3-0.5-1.7
			c-0.3-0.4-0.9-0.5-1.6-0.5c-0.6,0-1.1,0.2-1.5,0.5c-0.4,0.3-0.8,0.7-1,1.2v7.5h-1.8v-10.6H380.8z"/>
		<path class="st2" d="M389.7,1791c0-1.6,0.4-3,1.1-3.9c0.8-1,1.8-1.5,3-1.5c1.3,0,2.3,0.5,3,1.4l0.1-1.2h1.7v10.3
			c0,1.4-0.4,2.4-1.2,3.2c-0.8,0.8-1.9,1.2-3.3,1.2c-0.8,0-1.5-0.2-2.2-0.5c-0.7-0.3-1.3-0.8-1.7-1.3l0.9-1.1c0.8,1,1.7,1.4,2.8,1.4
			c0.9,0,1.6-0.2,2.1-0.7c0.5-0.5,0.7-1.2,0.7-2.1v-0.9c-0.7,0.8-1.7,1.2-3,1.2c-1.2,0-2.2-0.5-3-1.5
			C390.1,1794.1,389.7,1792.8,389.7,1791z M391.5,1791.2c0,1.2,0.2,2.1,0.7,2.8c0.5,0.7,1.2,1,2.1,1c1.1,0,2-0.5,2.5-1.6v-4.8
			c-0.6-1-1.4-1.5-2.5-1.5c-0.9,0-1.6,0.3-2.1,1C391.7,1788.9,391.5,1789.9,391.5,1791.2z"/>
		<path class="st2" d="M405.7,1796.6c-1.4,0-2.6-0.5-3.5-1.4c-0.9-0.9-1.3-2.2-1.3-3.8v-0.3c0-1,0.2-2,0.6-2.8
			c0.4-0.8,1-1.5,1.7-1.9c0.7-0.5,1.5-0.7,2.3-0.7c1.4,0,2.4,0.5,3.2,1.4c0.8,0.9,1.1,2.2,1.1,3.9v0.8h-7.2c0,1,0.3,1.9,0.9,2.5
			c0.6,0.6,1.3,1,2.2,1c0.6,0,1.2-0.1,1.6-0.4c0.4-0.3,0.8-0.6,1.2-1l1.1,0.9C408.8,1795.9,407.5,1796.6,405.7,1796.6z
			 M405.5,1787.1c-0.7,0-1.3,0.3-1.8,0.8c-0.5,0.5-0.8,1.3-0.9,2.2h5.3v-0.1c-0.1-0.9-0.3-1.6-0.7-2.1
			C406.8,1787.4,406.3,1787.1,405.5,1787.1z"/>
		<path class="st2" d="M417,1787.5c-0.3,0-0.6-0.1-0.9-0.1c-1.2,0-2,0.5-2.4,1.5v7.5h-1.8v-10.6h1.8l0,1.2c0.6-0.9,1.4-1.4,2.5-1.4
			c0.4,0,0.6,0,0.8,0.1V1787.5z"/>
	</g>
	<g class="st1">
		<path class="st2" d="M232.6,1815c0-1.7,0.4-3,1.1-3.9s1.8-1.5,3.1-1.5c1.2,0,2.2,0.4,3,1.3l0.1-1.1h1.7v14.6h-1.8v-5
			c-0.7,0.8-1.7,1.2-2.9,1.2c-1.3,0-2.3-0.5-3.1-1.5c-0.8-1-1.1-2.3-1.1-4V1815z M234.4,1815.2c0,1.2,0.3,2.2,0.8,2.9
			c0.5,0.7,1.2,1,2.1,1c1.1,0,1.9-0.5,2.5-1.4v-5.2c-0.6-0.9-1.4-1.4-2.4-1.4c-0.9,0-1.6,0.3-2.1,1S234.4,1813.9,234.4,1815.2z"/>
		<path class="st2" d="M250.9,1819.4c-0.7,0.8-1.7,1.2-3.1,1.2c-1.1,0-2-0.3-2.6-1s-0.9-1.6-0.9-2.9v-6.9h1.8v6.8
			c0,1.6,0.7,2.4,2,2.4c1.4,0,2.3-0.5,2.8-1.5v-7.7h1.8v10.6h-1.7L250.9,1819.4z"/>
		<path class="st2" d="M255.4,1807c0-0.3,0.1-0.5,0.3-0.7c0.2-0.2,0.4-0.3,0.8-0.3s0.6,0.1,0.8,0.3c0.2,0.2,0.3,0.4,0.3,0.7
			s-0.1,0.5-0.3,0.7s-0.4,0.3-0.8,0.3s-0.6-0.1-0.8-0.3S255.4,1807.3,255.4,1807z M257.4,1820.4h-1.8v-10.6h1.8V1820.4z"/>
		<path class="st2" d="M268.7,1818l2.6-8.1h1.8l-3.8,10.6H268l-3.8-10.6h1.8L268.7,1818z"/>
		<path class="st2" d="M274.3,1815c0-1,0.2-2,0.6-2.8c0.4-0.8,1-1.5,1.7-1.9s1.6-0.7,2.5-0.7c1.4,0,2.6,0.5,3.5,1.5s1.3,2.3,1.3,4
			v0.1c0,1-0.2,2-0.6,2.8c-0.4,0.8-1,1.5-1.7,1.9c-0.7,0.5-1.6,0.7-2.5,0.7c-1.4,0-2.6-0.5-3.5-1.5s-1.3-2.3-1.3-4V1815z
			 M276.1,1815.2c0,1.2,0.3,2.1,0.8,2.8c0.5,0.7,1.3,1.1,2.2,1.1c0.9,0,1.6-0.4,2.2-1.1c0.5-0.7,0.8-1.7,0.8-3
			c0-1.2-0.3-2.1-0.8-2.8c-0.6-0.7-1.3-1.1-2.2-1.1c-0.9,0-1.6,0.4-2.2,1.1C276.4,1812.9,276.1,1813.9,276.1,1815.2z"/>
		<path class="st2" d="M292.7,1819.4c-0.7,0.8-1.7,1.2-3.1,1.2c-1.1,0-2-0.3-2.6-1s-0.9-1.6-0.9-2.9v-6.9h1.8v6.8
			c0,1.6,0.7,2.4,2,2.4c1.4,0,2.3-0.5,2.8-1.5v-7.7h1.8v10.6h-1.7L292.7,1819.4z"/>
		<path class="st2" d="M303.3,1817.6c0-0.5-0.2-0.9-0.6-1.1c-0.4-0.3-1-0.5-1.9-0.7s-1.6-0.4-2.2-0.7s-0.9-0.6-1.2-1
			c-0.3-0.4-0.4-0.8-0.4-1.3c0-0.9,0.4-1.6,1.1-2.2c0.7-0.6,1.7-0.9,2.8-0.9c1.2,0,2.2,0.3,2.9,0.9c0.7,0.6,1.1,1.4,1.1,2.4h-1.8
			c0-0.5-0.2-0.9-0.6-1.3c-0.4-0.4-0.9-0.5-1.6-0.5c-0.7,0-1.2,0.1-1.5,0.4c-0.4,0.3-0.6,0.7-0.6,1.1c0,0.4,0.2,0.8,0.5,1
			c0.3,0.2,1,0.4,1.9,0.6c0.9,0.2,1.6,0.4,2.2,0.7c0.6,0.3,1,0.6,1.2,1c0.3,0.4,0.4,0.9,0.4,1.4c0,0.9-0.4,1.7-1.1,2.3
			c-0.8,0.6-1.7,0.9-2.9,0.9c-0.8,0-1.6-0.1-2.2-0.4c-0.7-0.3-1.2-0.7-1.5-1.3s-0.6-1.1-0.6-1.7h1.8c0,0.6,0.3,1.1,0.7,1.4
			c0.5,0.4,1,0.5,1.8,0.5c0.7,0,1.2-0.1,1.6-0.4C303.1,1818.4,303.3,1818.1,303.3,1817.6z"/>
		<path class="st2" d="M318.6,1817.6c0-0.5-0.2-0.9-0.6-1.1c-0.4-0.3-1-0.5-1.9-0.7s-1.6-0.4-2.2-0.7s-0.9-0.6-1.2-1
			c-0.3-0.4-0.4-0.8-0.4-1.3c0-0.9,0.4-1.6,1.1-2.2c0.7-0.6,1.7-0.9,2.8-0.9c1.2,0,2.2,0.3,2.9,0.9c0.7,0.6,1.1,1.4,1.1,2.4h-1.8
			c0-0.5-0.2-0.9-0.6-1.3c-0.4-0.4-0.9-0.5-1.6-0.5c-0.7,0-1.2,0.1-1.5,0.4c-0.4,0.3-0.6,0.7-0.6,1.1c0,0.4,0.2,0.8,0.5,1
			c0.3,0.2,1,0.4,1.9,0.6c0.9,0.2,1.6,0.4,2.2,0.7c0.6,0.3,1,0.6,1.2,1c0.3,0.4,0.4,0.9,0.4,1.4c0,0.9-0.4,1.7-1.1,2.3
			c-0.8,0.6-1.7,0.9-2.9,0.9c-0.8,0-1.6-0.1-2.2-0.4c-0.7-0.3-1.2-0.7-1.5-1.3s-0.6-1.1-0.6-1.7h1.8c0,0.6,0.3,1.1,0.7,1.4
			c0.5,0.4,1,0.5,1.8,0.5c0.7,0,1.2-0.1,1.6-0.4C318.4,1818.4,318.6,1818.1,318.6,1817.6z"/>
		<path class="st2" d="M329.3,1820.4c-0.1-0.2-0.2-0.6-0.3-1.1c-0.8,0.9-1.8,1.3-3,1.3c-1,0-1.9-0.3-2.6-0.9c-0.7-0.6-1-1.3-1-2.2
			c0-1.1,0.4-2,1.3-2.6c0.8-0.6,2-0.9,3.5-0.9h1.8v-0.8c0-0.6-0.2-1.1-0.6-1.5c-0.4-0.4-0.9-0.6-1.7-0.6c-0.6,0-1.2,0.2-1.6,0.5
			c-0.4,0.3-0.7,0.7-0.7,1.2h-1.8c0-0.5,0.2-1,0.6-1.5c0.4-0.5,0.9-0.9,1.5-1.2c0.6-0.3,1.3-0.4,2.1-0.4c1.2,0,2.2,0.3,2.9,0.9
			c0.7,0.6,1,1.4,1.1,2.5v4.9c0,1,0.1,1.7,0.4,2.3v0.2H329.3z M326.3,1819c0.6,0,1.1-0.1,1.6-0.4s0.9-0.7,1.1-1.1v-2.2h-1.4
			c-2.2,0-3.3,0.6-3.3,1.9c0,0.6,0.2,1,0.6,1.3C325.2,1818.9,325.7,1819,326.3,1819z"/>
		<path class="st2" d="M340.2,1819.4c-0.7,0.8-1.7,1.2-3.1,1.2c-1.1,0-2-0.3-2.6-1s-0.9-1.6-0.9-2.9v-6.9h1.8v6.8
			c0,1.6,0.7,2.4,2,2.4c1.4,0,2.3-0.5,2.8-1.5v-7.7h1.8v10.6h-1.7L340.2,1819.4z"/>
		<path class="st2" d="M348.1,1818l2.6-8.1h1.8l-3.8,10.6h-1.4l-3.8-10.6h1.8L348.1,1818z"/>
		<path class="st2" d="M358.6,1820.6c-1.4,0-2.6-0.5-3.5-1.4c-0.9-0.9-1.3-2.2-1.3-3.8v-0.3c0-1,0.2-2,0.6-2.8
			c0.4-0.8,1-1.5,1.7-1.9c0.7-0.5,1.5-0.7,2.3-0.7c1.4,0,2.4,0.5,3.2,1.4c0.8,0.9,1.1,2.2,1.1,3.9v0.8h-7.2c0,1,0.3,1.9,0.9,2.5
			c0.6,0.6,1.3,1,2.2,1c0.6,0,1.2-0.1,1.6-0.4c0.4-0.3,0.8-0.6,1.2-1l1.1,0.9C361.7,1819.9,360.4,1820.6,358.6,1820.6z
			 M358.4,1811.1c-0.7,0-1.3,0.3-1.8,0.8c-0.5,0.5-0.8,1.3-0.9,2.2h5.3v-0.1c-0.1-0.9-0.3-1.6-0.7-2.1
			C359.7,1811.4,359.1,1811.1,358.4,1811.1z"/>
		<path class="st2" d="M369.3,1815c0-1.6,0.4-2.9,1.2-3.9s1.8-1.5,3-1.5c1.2,0,2.2,0.4,2.9,1.3v-5.5h1.8v15h-1.7l-0.1-1.1
			c-0.7,0.9-1.7,1.3-3,1.3c-1.2,0-2.2-0.5-3-1.5c-0.8-1-1.2-2.3-1.2-3.9V1815z M371.1,1815.2c0,1.2,0.2,2.1,0.7,2.8
			c0.5,0.7,1.2,1,2.1,1c1.1,0,2-0.5,2.5-1.5v-4.9c-0.5-1-1.4-1.5-2.5-1.5c-0.9,0-1.6,0.3-2.1,1S371.1,1813.9,371.1,1815.2z"/>
		<path class="st2" d="M387.6,1819.4c-0.7,0.8-1.7,1.2-3.1,1.2c-1.1,0-2-0.3-2.6-1s-0.9-1.6-0.9-2.9v-6.9h1.8v6.8
			c0,1.6,0.7,2.4,2,2.4c1.4,0,2.3-0.5,2.8-1.5v-7.7h1.8v10.6h-1.7L387.6,1819.4z"/>
		<path class="st2" d="M399.5,1807.3v2.6h2v1.4h-2v6.6c0,0.4,0.1,0.7,0.3,1c0.2,0.2,0.5,0.3,0.9,0.3c0.2,0,0.5,0,0.9-0.1v1.5
			c-0.5,0.1-0.9,0.2-1.4,0.2c-0.8,0-1.4-0.2-1.8-0.7s-0.6-1.2-0.6-2.1v-6.6h-1.9v-1.4h1.9v-2.6H399.5z"/>
		<path class="st2" d="M407.9,1820.6c-1.4,0-2.6-0.5-3.5-1.4c-0.9-0.9-1.3-2.2-1.3-3.8v-0.3c0-1,0.2-2,0.6-2.8
			c0.4-0.8,1-1.5,1.7-1.9c0.7-0.5,1.5-0.7,2.3-0.7c1.4,0,2.4,0.5,3.2,1.4c0.8,0.9,1.1,2.2,1.1,3.9v0.8h-7.2c0,1,0.3,1.9,0.9,2.5
			c0.6,0.6,1.3,1,2.2,1c0.6,0,1.2-0.1,1.6-0.4c0.4-0.3,0.8-0.6,1.2-1l1.1,0.9C411,1819.9,409.7,1820.6,407.9,1820.6z M407.7,1811.1
			c-0.7,0-1.3,0.3-1.8,0.8c-0.5,0.5-0.8,1.3-0.9,2.2h5.3v-0.1c-0.1-0.9-0.3-1.6-0.7-2.1C409.1,1811.4,408.5,1811.1,407.7,1811.1z"/>
		<path class="st2" d="M415.8,1809.8l0,1.2c0.8-0.9,1.8-1.4,3.1-1.4c1.5,0,2.5,0.6,3,1.7c0.4-0.5,0.8-0.9,1.4-1.2s1.2-0.5,2-0.5
			c2.3,0,3.5,1.2,3.5,3.7v7.1h-1.8v-7c0-0.8-0.2-1.3-0.5-1.7c-0.3-0.4-0.9-0.6-1.7-0.6c-0.7,0-1.2,0.2-1.7,0.6s-0.7,0.9-0.8,1.6v7
			h-1.8v-6.9c0-1.5-0.8-2.3-2.3-2.3c-1.2,0-2,0.5-2.4,1.5v7.7h-1.8v-10.6H415.8z"/>
		<path class="st2" d="M440.6,1815.2c0,1.6-0.4,2.9-1.1,3.9c-0.7,1-1.7,1.5-3,1.5c-1.3,0-2.3-0.4-3-1.2v5.1h-1.8v-14.6h1.7l0.1,1.2
			c0.7-0.9,1.8-1.4,3.1-1.4c1.3,0,2.3,0.5,3,1.4s1.1,2.3,1.1,4V1815.2z M438.8,1815c0-1.2-0.3-2.1-0.8-2.8c-0.5-0.7-1.2-1-2.1-1
			c-1.1,0-1.9,0.5-2.5,1.5v5c0.5,1,1.4,1.4,2.5,1.4c0.9,0,1.6-0.3,2.1-1C438.5,1817.4,438.8,1816.4,438.8,1815z"/>
		<path class="st2" d="M449,1817.6c0-0.5-0.2-0.9-0.6-1.1c-0.4-0.3-1-0.5-1.9-0.7s-1.6-0.4-2.2-0.7s-0.9-0.6-1.2-1
			c-0.3-0.4-0.4-0.8-0.4-1.3c0-0.9,0.4-1.6,1.1-2.2c0.7-0.6,1.7-0.9,2.8-0.9c1.2,0,2.2,0.3,2.9,0.9c0.7,0.6,1.1,1.4,1.1,2.4h-1.8
			c0-0.5-0.2-0.9-0.6-1.3c-0.4-0.4-0.9-0.5-1.6-0.5c-0.7,0-1.2,0.1-1.5,0.4c-0.4,0.3-0.6,0.7-0.6,1.1c0,0.4,0.2,0.8,0.5,1
			c0.3,0.2,1,0.4,1.9,0.6c0.9,0.2,1.6,0.4,2.2,0.7c0.6,0.3,1,0.6,1.2,1c0.3,0.4,0.4,0.9,0.4,1.4c0,0.9-0.4,1.7-1.1,2.3
			c-0.8,0.6-1.7,0.9-2.9,0.9c-0.8,0-1.6-0.1-2.2-0.4c-0.7-0.3-1.2-0.7-1.5-1.3s-0.6-1.1-0.6-1.7h1.8c0,0.6,0.3,1.1,0.7,1.4
			c0.5,0.4,1,0.5,1.8,0.5c0.7,0,1.2-0.1,1.6-0.4C448.8,1818.4,449,1818.1,449,1817.6z"/>
	</g>
	<g class="st1">
		<path class="st2" d="M298.6,1839.9c-0.2,1.5-0.7,2.7-1.7,3.5c-0.9,0.8-2.2,1.2-3.7,1.2c-1.7,0-3-0.6-4-1.8c-1-1.2-1.5-2.8-1.5-4.8
			v-1.4c0-1.3,0.2-2.5,0.7-3.5c0.5-1,1.1-1.8,2-2.3s1.9-0.8,3-0.8c1.5,0,2.7,0.4,3.6,1.3c0.9,0.8,1.4,2,1.6,3.5h-1.9
			c-0.2-1.1-0.5-2-1.1-2.5c-0.5-0.5-1.3-0.8-2.3-0.8c-1.2,0-2.1,0.4-2.8,1.3s-1,2.1-1,3.8v1.4c0,1.5,0.3,2.8,1,3.7s1.5,1.4,2.7,1.4
			c1,0,1.8-0.2,2.4-0.7c0.6-0.5,0.9-1.3,1.1-2.5H298.6z"/>
		<path class="st2" d="M302,1830.5l-0.2,3.6h-1.3l0-4.7h1.5V1830.5z"/>
		<path class="st2" d="M308.1,1844.6c-1.4,0-2.6-0.5-3.5-1.4c-0.9-0.9-1.3-2.2-1.3-3.8v-0.3c0-1,0.2-2,0.6-2.8
			c0.4-0.8,1-1.5,1.7-1.9c0.7-0.5,1.5-0.7,2.3-0.7c1.4,0,2.4,0.5,3.2,1.4c0.8,0.9,1.1,2.2,1.1,3.9v0.8h-7.2c0,1,0.3,1.9,0.9,2.5
			c0.6,0.6,1.3,1,2.2,1c0.6,0,1.2-0.1,1.6-0.4c0.4-0.3,0.8-0.6,1.2-1l1.1,0.9C311.2,1843.9,309.9,1844.6,308.1,1844.6z
			 M307.9,1835.1c-0.7,0-1.3,0.3-1.8,0.8c-0.5,0.5-0.8,1.3-0.9,2.2h5.3v-0.1c-0.1-0.9-0.3-1.6-0.7-2.1
			C309.3,1835.4,308.7,1835.1,307.9,1835.1z"/>
		<path class="st2" d="M320.5,1841.6c0-0.5-0.2-0.9-0.6-1.1c-0.4-0.3-1-0.5-1.9-0.7s-1.6-0.4-2.2-0.7s-0.9-0.6-1.2-1
			c-0.3-0.4-0.4-0.8-0.4-1.3c0-0.9,0.4-1.6,1.1-2.2c0.7-0.6,1.7-0.9,2.8-0.9c1.2,0,2.2,0.3,2.9,0.9c0.7,0.6,1.1,1.4,1.1,2.4h-1.8
			c0-0.5-0.2-0.9-0.6-1.3c-0.4-0.4-0.9-0.5-1.6-0.5c-0.7,0-1.2,0.1-1.5,0.4c-0.4,0.3-0.6,0.7-0.6,1.1c0,0.4,0.2,0.8,0.5,1
			c0.3,0.2,1,0.4,1.9,0.6c0.9,0.2,1.6,0.4,2.2,0.7c0.6,0.3,1,0.6,1.2,1c0.3,0.4,0.4,0.9,0.4,1.4c0,0.9-0.4,1.7-1.1,2.3
			c-0.8,0.6-1.7,0.9-2.9,0.9c-0.8,0-1.6-0.1-2.2-0.4c-0.7-0.3-1.2-0.7-1.5-1.3s-0.6-1.1-0.6-1.7h1.8c0,0.6,0.3,1.1,0.7,1.4
			c0.5,0.4,1,0.5,1.8,0.5c0.7,0,1.2-0.1,1.6-0.4C320.3,1842.4,320.5,1842.1,320.5,1841.6z"/>
		<path class="st2" d="M327.1,1831.3v2.6h2v1.4h-2v6.6c0,0.4,0.1,0.7,0.3,1c0.2,0.2,0.5,0.3,0.9,0.3c0.2,0,0.5,0,0.9-0.1v1.5
			c-0.5,0.1-0.9,0.2-1.4,0.2c-0.8,0-1.4-0.2-1.8-0.7s-0.6-1.2-0.6-2.1v-6.6h-1.9v-1.4h1.9v-2.6H327.1z"/>
		<path class="st2" d="M340.8,1837.3l3.7-7.1h2.1l-4.9,8.9v5.3h-1.9v-5.3l-4.9-8.9h2.1L340.8,1837.3z"/>
		<path class="st2" d="M354.3,1843.4c-0.7,0.8-1.7,1.2-3.1,1.2c-1.1,0-2-0.3-2.6-1s-0.9-1.6-0.9-2.9v-6.9h1.8v6.8
			c0,1.6,0.7,2.4,2,2.4c1.4,0,2.3-0.5,2.8-1.5v-7.7h1.8v10.6h-1.7L354.3,1843.4z"/>
		<path class="st2" d="M360.5,1833.8l0,1.2c0.8-0.9,1.8-1.4,3.1-1.4c1.5,0,2.5,0.6,3,1.7c0.4-0.5,0.8-0.9,1.4-1.2s1.2-0.5,2-0.5
			c2.3,0,3.5,1.2,3.5,3.7v7.1h-1.8v-7c0-0.8-0.2-1.3-0.5-1.7c-0.3-0.4-0.9-0.6-1.7-0.6c-0.7,0-1.2,0.2-1.7,0.6s-0.7,0.9-0.8,1.6v7
			h-1.8v-6.9c0-1.5-0.8-2.3-2.3-2.3c-1.2,0-2,0.5-2.4,1.5v7.7h-1.8v-10.6H360.5z"/>
		<path class="st2" d="M378,1833.8l0,1.2c0.8-0.9,1.8-1.4,3.1-1.4c1.5,0,2.5,0.6,3,1.7c0.4-0.5,0.8-0.9,1.4-1.2s1.2-0.5,2-0.5
			c2.3,0,3.5,1.2,3.5,3.7v7.1h-1.8v-7c0-0.8-0.2-1.3-0.5-1.7c-0.3-0.4-0.9-0.6-1.7-0.6c-0.7,0-1.2,0.2-1.7,0.6s-0.7,0.9-0.8,1.6v7
			h-1.8v-6.9c0-1.5-0.8-2.3-2.3-2.3c-1.2,0-2,0.5-2.4,1.5v7.7h-1.8v-10.6H378z"/>
		<path class="st2" d="M397.3,1841.8l2.5-7.9h1.9l-4.2,12.2c-0.7,1.8-1.7,2.6-3.1,2.6l-0.3,0l-0.7-0.1v-1.5l0.5,0
			c0.6,0,1.1-0.1,1.4-0.4c0.3-0.2,0.6-0.7,0.8-1.4l0.4-1.1l-3.8-10.4h2L397.3,1841.8z"/>
	</g>
	<line id="Ligne_13" class="st3" x1="280.7" y1="1765.9" x2="407.7" y2="1765.9"/>
</g>
<g id="Groupe_31" transform="translate(10556.457 1459.948)">
	<g id="Groupe_30" transform="translate(-10351.646 -1337.268)">
		<g>
			<defs>
				<rect id="SVGID_1_" x="10.2" y="-61.6" width="59.2" height="188.7"/>
			</defs>
			<clipPath id="SVGID_2_">
				<use xlink:href="#SVGID_1_"  style="overflow:visible;"/>
			</clipPath>
			<g id="Groupe_29" class="st4">
				<g id="Groupe_28" transform="translate(-34.765 18.246)">
					<g id="Groupe_27">
						<path id="Tracé_74" class="st5" d="M47.5,95.1c-18.6,0-33.7-18.1-33.7-40.4v-1c0-7.4,0.5-14.8,1.6-22.1l0.2-1.7l63.6-4.4
							l0.1,2.2c0.4,6.5,0.8,11.5,1.2,15.5c0.4,4.9,0.7,8.4,0.7,11.5C81.2,77,66.1,95.1,47.5,95.1z M19.4,34
							C18.4,40.5,18,47.1,18,53.7l0,1c0,19.9,13.2,36.1,29.5,36.1s29.5-16.2,29.5-36.1c0-2.9-0.3-6.4-0.7-11.1
							c-0.3-3.6-0.7-7.9-1-13.5L19.4,34z"/>
						<path id="Tracé_75" class="st5" d="M15.3,32.1l-5-76.8c0,0-1.1-6.3,3.2-9.1c1.5-1.1,3.5-1.5,5.3-1.1c0.5,0.1,1.1,0.3,1.6,0.6
							c1.3-2.4,3.6-4,6.3-4.4c2.1-0.3,4.1,0.2,5.8,1.5c1.3-2.7,4.2-4.5,7.2-4.4c2.5-0.1,4.8,1,6.2,3.1c1.8-1.4,4-2,6.2-1.8
							c3,0.4,4.7,3,5.6,5.3c1.2-0.8,2.5-1.4,3.9-1.8c1.4-0.4,2.9-0.2,4.1,0.6c0.8,0.5,1.4,1.3,1.9,2.1c1.9-1,4.2-1,6.2,0
							c4.6,2.3,5.6,9.5,5.7,10.3l0,72.5h-4.3v-72.3c-0.2-1.2-1.2-5.6-3.4-6.7c-1.9-0.9-3.5,0.8-3.7,1l-3.1,3.4l-0.6-4.5
							c-0.1-0.8-0.5-1.6-1-2.2c-0.1,0-0.2-0.2-0.7,0c-1.7,0.5-3.3,1.5-4.5,2.9L55.2-46l-0.7-4.8c-0.3-1.8-1.4-5.1-2.9-5.3
							c-2.6-0.3-4.8,2.6-4.8,2.6l-3.6,4.8l-0.3-6c-0.1-0.8-0.5-2.7-3.2-2.7c-3.4,0-4,3.4-4.1,4.1L35.1-48l-3.2-4
							c-0.6-0.7-2.7-2.7-4.3-2.4c-3.7,0.7-3.9,3.6-3.8,4.2l0.1,8.4l-4.1-7.3c-0.4-0.7-1.1-1.3-1.9-1.5c-0.7-0.1-1.4,0.1-1.9,0.5
							c-1.9,1.2-1.3,4.9-1.3,5l5,77.1L15.3,32.1z"/>
						
							<rect id="Rectangle_29" x="32.2" y="-53.9" transform="matrix(0.9993 -3.801055e-02 3.801055e-02 0.9993 0.901 1.2902)" class="st5" width="4.3" height="61.7"/>
						
							<rect id="Rectangle_30" x="20.7" y="-51" transform="matrix(0.9993 -3.830061e-02 3.830061e-02 0.9993 0.6774 0.8634)" class="st5" width="4.3" height="67.5"/>
						
							<rect id="Rectangle_31" x="43.8" y="-55.7" transform="matrix(0.9993 -3.831805e-02 3.831805e-02 0.9993 1.0768 1.742)" class="st5" width="4.3" height="57"/>
						
							<rect id="Rectangle_32" x="55.3" y="-51.6" transform="matrix(0.9993 -3.828317e-02 3.828317e-02 0.9993 1.1064 2.1773)" class="st5" width="4.3" height="47.5"/>
						
							<rect id="Rectangle_33" x="65.3" y="-51" transform="matrix(0.9993 -3.801055e-02 3.801055e-02 0.9993 1.1745 2.5431)" class="st5" width="4.3" height="42.7"/>
					</g>
					<path id="Tracé_76" class="st5" d="M31.1,56.1l-0.8-4.2c7.4-1.4,11.4-0.1,11.8,0.1l-1.4,4C40.6,56,37.3,55,31.1,56.1z"/>
					<path id="Tracé_77" class="st5" d="M63.2,56c0,0-3.3-1.3-9.4-0.1l-0.8-4.2c7.4-1.4,11.5,0.2,11.9,0.4L63.2,56z"/>
					<path id="Tracé_78" class="st5" d="M48.6,81.3c-4.2,0-8.3-2.1-11.5-5.9l3.3-2.8c2.5,3,5.5,4.5,8.6,4.4c3.4-0.3,6.5-2.2,8.3-5
						l3.5,2.5c-2.6,4-6.9,6.5-11.6,6.9C49,81.3,48.8,81.3,48.6,81.3z"/>
					<circle id="Ellipse_27" class="st5" cx="37.2" cy="57.1" r="2.3"/>
					<circle id="Ellipse_28" class="st5" cx="57.4" cy="57.4" r="2.3"/>
				</g>
			</g>
		</g>
	</g>
	<path id="Tracé_79" class="st5" d="M-10341.4-1233.9c-6.4,0-11.4-3-11.4-6.8s5-6.8,11.4-6.8v2.1c-5.5,0-9.3,2.4-9.3,4.7
		s3.7,4.7,9.3,4.7V-1233.9z"/>
	<path id="Tracé_80" class="st5" d="M-10356.6-1262.2l-1.6-1.4c3.3-3.7,7.6-4.6,12.5-2.7l-0.8,2
		C-10350.5-1265.9-10353.9-1265.2-10356.6-1262.2z"/>
	<circle id="Ellipse_29" class="st5" cx="-10349" cy="-1262.4" r="2.9"/>
	<path id="Tracé_81" class="st5" d="M-10342.4-1224c-5.3,0-11.2-2.7-16-7.3c-5.6-5.4-14.8-18.1-13.5-43.7l4.3,0.2
		c-1.2,23.8,7.1,35.5,12.1,40.3c4.4,4.2,9.7,6.5,14.1,6.1l0.4,4.3C-10341.4-1224-10341.9-1224-10342.4-1224z"/>
	<path id="Tracé_82" class="st5" d="M-10379.1-1260.2l-0.7-5.7c-2.5-19.3,0.2-33.5,7.9-42.3c6.4-7.3,16.5-11,29.8-11h2.1l0,2.1
		c0.2,23.3,0,34,0,34.1l0,1l-0.8,0.6c-1.4,1.1-3.5,1.2-6.7,1.5c-7.3,0.5-19.7,1.4-28.5,14.9L-10379.1-1260.2z M-10344.2-1314.9
		c-11.1,0.3-19.2,3.5-24.5,9.5c-6.2,7-8.7,18.3-7.5,33.6c9.6-11,21.6-11.9,28.4-12.4c1.2-0.1,2.6-0.2,3.5-0.4
		C-10344.1-1288-10344-1297.8-10344.2-1314.9L-10344.2-1314.9z"/>
	<path id="Tracé_83" class="st6" d="M-10396.3-1317.1"/>
	<path id="Tracé_84" class="st5" d="M-10358.5-1224.6c-0.9,0-1.9-0.3-2.6-0.8c-0.4-0.3-1-0.7-1.6-1.2c-1.6-1.3-3.3-2.4-5.1-3.4
		c-0.8,3-4.6,4.4-8,4.8c-2,0.2-4.4,0.2-5-1.7c-0.2-0.8,0-1.6,0.5-2.2c-1-1.5-4.3-4.9-12.1-11c-1.3-0.8-2-2.3-1.9-3.8
		c0.3-3.4,4.6-6.1,10.4-9.2c0.9-0.5,1.7-0.9,2.3-1.3c3.1-1.9,6.3-6.1,9.1-9.8l1.3-1.7l3.4,2.6l-1.3,1.7c-3,4-6.4,8.6-10.3,11
		c-0.7,0.4-1.5,0.9-2.4,1.4c-2.2,1.2-7.9,4.3-8.1,5.8c11.5,8.8,13.8,12.2,14.2,14c1.2-0.1,2.4-0.6,3.5-1.2c0.3-0.2,0.4-0.4,0.4-0.4
		c0-1.3,0.7-2.5,1.9-3c2.5-1.1,5.7,1,9.9,4.1c0.6,0.4,1.1,0.8,1.5,1.1c0.5,0.3,2.8-0.7,4.5-2.2l2.8,3.2
		C-10352.1-1227.3-10355.4-1224.6-10358.5-1224.6z"/>
	<rect id="Rectangle_35" x="-10342.2" y="-1387.3" class="st5" width="2.1" height="177.2"/>
	<path id="Tracé_85" class="st5" d="M-10368.4-1292.3l-2-0.7c2.9-8.5,13.2-14.1,27.6-14.9l0.1,2.1
		C-10356.2-1305-10365.8-1300-10368.4-1292.3z"/>
	<path id="Tracé_86" class="st5" d="M-10368.5-1285.8l-1.7-1.3c5.2-6.7,11.2-10.6,27.4-11.5l0.1,2.1
		C-10358.1-1295.6-10363.7-1292.1-10368.5-1285.8z"/>
</g>
</svg>
