<?xml version="1.0" encoding="utf-8"?>
<!-- Generator: Adobe Illustrator 25.4.1, SVG Export Plug-In . SVG Version: 6.00 Build 0)  -->
<svg version="1.1" id="Calque_1" xmlns="http://www.w3.org/2000/svg" xmlns:xlink="http://www.w3.org/1999/xlink" x="0px" y="0px"
	 viewBox="0 0 374 434.4" style="enable-background:new 0 0 374 434.4;" xml:space="preserve">
<style type="text/css">
	.st0{fill:#F8C618;}
	.st1{fill:none;}
	.st2{fill:none;stroke:#000000;stroke-width:2;}
	.st3{enable-background:new    ;}
	.st4{clip-path:url(#SVGID_00000047745325072060828900000013075294617033353391_);}
	.st5{fill:#1D1D1B;}
	.st6{fill:none;stroke:#1D1D1B;stroke-miterlimit:10;}
</style>
<g id="_1" transform="translate(-161 -1367)">
	<circle id="Ellipse_112" class="st0" cx="355" cy="1510.4" r="57"/>
	<g id="Rectangle_84" transform="translate(175.048 1482)">
		<path class="st1" d="M80-70.6h200c44.2,0,80,35.8,80,80v230c0,44.2-35.8,80-80,80H80c-44.2,0-80-35.8-80-80V9.4
			C0-34.8,35.8-70.6,80-70.6z"/>
		<path class="st2" d="M80-69.6h200c43.6,0,79,35.4,79,79v230c0,43.6-35.4,79-79,79H80c-43.6,0-79-35.4-79-79V9.4
			C1-34.2,36.4-69.6,80-69.6z"/>
	</g>
	<g class="st3">
		<path class="st0" d="M183.1,1434.1c3.8,0,7.3-0.4,10.3-1.1c3-0.7,4.5-1.8,4.5-3.2c0-0.9-0.3-1.7-0.9-2.2c-4,1.4-8.3,2.1-13,2.1
			c-6.4,0-11.8-2.2-16.1-6.6s-6.5-10.7-6.5-19c0-5.5,1.1-10.8,3.4-15.9c8.2-1,14.6-2.6,19.1-4.9c6.4-3.3,11.8-8.5,16.4-15.7h17.5
			c5.6,0,9.7,1,12.4,3.1c3.1,2.5,4.7,7,4.7,13.4v103.7c-3.3,3.1-7.2,5.4-11.6,7s-8.9,2.4-13.5,2.4c-7.6,0-13.8-1.8-18.6-5.5
			c-5.4-4.1-8.1-10.1-8.1-18V1434.1z"/>
	</g>
	<g class="st3">
		<path d="M275.3,1612.9h-6.2l-1.2,3.5h-3.7l6.4-17.1h3.3l6.4,17.1h-3.7L275.3,1612.9z M270,1610.1h4.3l-2.1-6.4L270,1610.1z"/>
		<path d="M281,1610c0-2,0.4-3.6,1.3-4.7s2.1-1.8,3.6-1.8c1.2,0,2.3,0.5,3.1,1.4v-6.5h3.4v18h-3.1l-0.2-1.3
			c-0.8,1.1-1.9,1.6-3.3,1.6c-1.5,0-2.7-0.6-3.6-1.8S281,1612.1,281,1610z M284.4,1610.2c0,1.2,0.2,2.1,0.6,2.7c0.4,0.6,1,1,1.8,1
			c1,0,1.8-0.4,2.2-1.3v-5c-0.4-0.9-1.2-1.3-2.2-1.3C285.2,1606.3,284.4,1607.6,284.4,1610.2z"/>
		<path d="M294.5,1610c0-1.3,0.2-2.4,0.7-3.4s1.2-1.7,2.1-2.3s2-0.8,3.2-0.8c1.7,0,3.1,0.5,4.2,1.6s1.7,2.5,1.8,4.3l0,0.9
			c0,1.9-0.5,3.5-1.6,4.7s-2.5,1.8-4.4,1.8s-3.3-0.6-4.4-1.8s-1.6-2.8-1.6-4.8V1610z M297.9,1610.2c0,1.2,0.2,2.1,0.7,2.8
			c0.5,0.6,1.1,1,1.9,1c0.8,0,1.5-0.3,1.9-0.9c0.5-0.6,0.7-1.6,0.7-3c0-1.2-0.2-2.1-0.7-2.7s-1.1-1-1.9-1c-0.8,0-1.5,0.3-1.9,1
			S297.9,1608.9,297.9,1610.2z"/>
		<path d="M320.1,1610.2c0,2-0.4,3.5-1.3,4.7s-2.1,1.8-3.6,1.8c-1.3,0-2.3-0.4-3.1-1.3v6h-3.4v-17.6h3.1l0.1,1.2
			c0.8-1,1.9-1.5,3.2-1.5c1.6,0,2.8,0.6,3.6,1.7s1.3,2.8,1.3,4.8V1610.2z M316.7,1610c0-1.2-0.2-2.1-0.6-2.7s-1-1-1.8-1
			c-1.1,0-1.8,0.4-2.2,1.2v5.2c0.4,0.8,1.2,1.3,2.2,1.3C315.9,1613.9,316.7,1612.6,316.7,1610z"/>
		<path d="M326.2,1600.6v3.1h2.2v2.5h-2.2v6.3c0,0.5,0.1,0.8,0.3,1s0.5,0.3,1,0.3c0.4,0,0.7,0,1-0.1v2.6c-0.7,0.2-1.3,0.3-2.1,0.3
			c-2.4,0-3.6-1.2-3.6-3.6v-6.8H321v-2.5h1.9v-3.1H326.2z"/>
		<path d="M336.1,1616.7c-1.9,0-3.4-0.6-4.5-1.7s-1.8-2.7-1.8-4.6v-0.3c0-1.3,0.2-2.4,0.7-3.4s1.2-1.8,2.1-2.3s1.9-0.8,3.1-0.8
			c1.7,0,3.1,0.5,4.1,1.6s1.5,2.6,1.5,4.7v1.4h-8.1c0.1,0.8,0.4,1.5,1,2s1.2,0.8,2.1,0.8c1.3,0,2.3-0.5,3.1-1.4l1.7,1.9
			c-0.5,0.7-1.2,1.3-2.1,1.7S337.2,1616.7,336.1,1616.7z M335.7,1606.2c-0.7,0-1.2,0.2-1.6,0.7s-0.7,1.1-0.8,2h4.7v-0.3
			c0-0.8-0.2-1.3-0.6-1.7S336.4,1606.2,335.7,1606.2z"/>
		<path d="M356.8,1615.1c-0.8,1-2,1.5-3.5,1.5c-1.4,0-2.4-0.4-3.1-1.2s-1.1-1.9-1.1-3.4v-8.3h3.4v8.2c0,1.3,0.6,2,1.8,2
			c1.1,0,1.9-0.4,2.4-1.2v-9h3.4v12.7h-3.2L356.8,1615.1z"/>
		<path d="M365.8,1603.7l0.1,1.5c0.9-1.1,2.1-1.7,3.6-1.7c1.3,0,2.3,0.4,3,1.2s1,2,1,3.5v8.2h-3.4v-8.1c0-0.7-0.2-1.2-0.5-1.6
			s-0.8-0.5-1.6-0.5c-1,0-1.7,0.4-2.1,1.2v8.9h-3.4v-12.7H365.8z"/>
		<path d="M388.9,1612.9c0-0.4-0.2-0.7-0.6-1s-1.1-0.5-2-0.6c-3-0.6-4.5-1.9-4.5-3.8c0-1.1,0.5-2.1,1.4-2.8s2.2-1.1,3.7-1.1
			c1.6,0,2.9,0.4,3.9,1.1s1.4,1.7,1.4,3h-3.4c0-0.5-0.2-0.9-0.5-1.2s-0.8-0.5-1.5-0.5c-0.6,0-1,0.1-1.3,0.4s-0.5,0.6-0.5,1
			c0,0.4,0.2,0.7,0.5,0.9s1,0.4,1.8,0.6s1.6,0.4,2.1,0.6c1.8,0.7,2.7,1.8,2.7,3.4c0,1.2-0.5,2.1-1.5,2.8s-2.3,1.1-3.8,1.1
			c-1.1,0-2-0.2-2.8-0.6s-1.5-0.9-1.9-1.6s-0.7-1.4-0.7-2.1h3.2c0,0.6,0.3,1.1,0.7,1.4s1,0.5,1.7,0.5c0.6,0,1.1-0.1,1.5-0.4
			S388.9,1613.3,388.9,1612.9z"/>
		<path d="M398.5,1600.6v3.1h2.2v2.5h-2.2v6.3c0,0.5,0.1,0.8,0.3,1s0.5,0.3,1,0.3c0.4,0,0.7,0,1-0.1v2.6c-0.7,0.2-1.3,0.3-2.1,0.3
			c-2.4,0-3.6-1.2-3.6-3.6v-6.8h-1.9v-2.5h1.9v-3.1H398.5z"/>
		<path d="M407.2,1611.6l2.3-7.9h3.6l-5.1,14.6l-0.3,0.7c-0.8,1.7-2,2.5-3.8,2.5c-0.5,0-1-0.1-1.5-0.2v-2.6l0.5,0
			c0.6,0,1.1-0.1,1.4-0.3s0.6-0.5,0.7-1l0.4-1l-4.4-12.7h3.6L407.2,1611.6z"/>
		<path d="M418.1,1616.4h-3.4v-18h3.4V1616.4z"/>
		<path d="M426.8,1616.7c-1.9,0-3.4-0.6-4.5-1.7s-1.8-2.7-1.8-4.6v-0.3c0-1.3,0.2-2.4,0.7-3.4s1.2-1.8,2.1-2.3s1.9-0.8,3.1-0.8
			c1.7,0,3.1,0.5,4.1,1.6s1.5,2.6,1.5,4.7v1.4h-8.1c0.1,0.8,0.4,1.5,1,2s1.2,0.8,2.1,0.8c1.3,0,2.3-0.5,3.1-1.4l1.7,1.9
			c-0.5,0.7-1.2,1.3-2.1,1.7S427.8,1616.7,426.8,1616.7z M426.4,1606.2c-0.7,0-1.2,0.2-1.6,0.7s-0.7,1.1-0.8,2h4.7v-0.3
			c0-0.8-0.2-1.3-0.6-1.7S427.1,1606.2,426.4,1606.2z"/>
	</g>
	<path id="Tracé_237" class="st2" d="M355,1646.8v110.3"/>
	<g id="Groupe_215" transform="translate(10713.604 2827.346)">
		<g id="Groupe_30" transform="translate(-10359.435 -1337.268)">
			<g>
				<defs>
					<rect id="SVGID_1_" x="0" y="-70.6" width="50.8" height="161.9"/>
				</defs>
				<clipPath id="SVGID_00000121996844301350478430000005092148943777564574_">
					<use xlink:href="#SVGID_1_"  style="overflow:visible;"/>
				</clipPath>
				<g id="Groupe_29" style="clip-path:url(#SVGID_00000121996844301350478430000005092148943777564574_);">
					<g id="Groupe_28" transform="translate(-29.829 15.655)">
						<g id="Groupe_27">
							<path id="Tracé_74" class="st5" d="M32,63.8C16,63.8,3,48.3,3,29.2v-0.8C3,22,3.5,15.7,4.4,9.4l0.2-1.5l54.6-3.8L59.3,6
								c0.4,5.6,0.7,9.9,1,13.3c0.4,4.2,0.6,7.2,0.6,9.9C60.9,48.3,47.9,63.8,32,63.8z M7.9,11.4C7,17,6.7,22.7,6.7,28.3l0,0.8
								c0,17.1,11.3,31,25.3,31s25.3-13.9,25.3-31c0-2.5-0.3-5.5-0.6-9.6c-0.3-3.1-0.6-6.8-0.9-11.5L7.9,11.4z"/>
							<path id="Tracé_75" class="st5" d="M4.4,9.8L0.1-56.1c0,0-1-5.4,2.8-7.8c1.3-0.9,3-1.3,4.5-0.9c0.5,0.1,0.9,0.3,1.3,0.5
								c1.1-2.1,3.1-3.5,5.4-3.8c1.8-0.3,3.6,0.2,5,1.3c1.1-2.4,3.6-3.8,6.2-3.7c2.1-0.1,4.1,0.9,5.3,2.6c1.5-1.2,3.4-1.7,5.3-1.5
								c2.6,0.3,4.1,2.6,4.8,4.6c1-0.7,2.1-1.2,3.3-1.6c1.2-0.4,2.5-0.2,3.5,0.5c0.7,0.5,1.2,1.1,1.6,1.8c1.7-0.8,3.6-0.9,5.3,0
								c4,2,4.8,8.1,4.9,8.8l0,62.2h-3.7v-62c-0.1-1-1-4.8-2.9-5.8c-1.6-0.8-3,0.7-3.2,0.9l-2.6,2.9L46.5-61
								c-0.1-0.7-0.4-1.4-0.9-1.9c-0.1,0-0.2-0.1-0.6,0c-1.5,0.5-2.8,1.3-3.8,2.5l-2.6,3.2L38-61.3c-0.2-1.5-1.2-4.4-2.5-4.5
								c-2.2-0.2-4.1,2.2-4.1,2.2l-3.1,4.1l-0.3-5.1c-0.1-1.3-1.2-2.4-2.5-2.3c-0.1,0-0.2,0-0.2,0c-2.9,0-3.4,3-3.5,3.5L21.4-59
								l-2.8-3.4c-0.5-0.6-2.3-2.3-3.7-2.1c-1.9,0.2-3.3,1.7-3.3,3.6l0.1,7.2L8.1-60c-0.4-0.6-0.9-1.1-1.6-1.3
								c-0.6-0.1-1.2,0-1.7,0.4c-1.6,1.1-1.1,4.2-1.1,4.3L8.1,9.5L4.4,9.8z"/>
							
								<rect id="Rectangle_29" x="18.9" y="-64" transform="matrix(0.9993 -3.801055e-02 3.801055e-02 0.9993 1.441 0.761)" class="st5" width="3.7" height="53"/>
							
								<rect id="Rectangle_30" x="9" y="-61.5" transform="matrix(0.9993 -3.830061e-02 3.830061e-02 0.9993 1.2542 0.3921)" class="st5" width="3.7" height="57.9"/>
							
								<rect id="Rectangle_31" x="28.9" y="-65.6" transform="matrix(0.9993 -3.831805e-02 3.831805e-02 0.9993 1.5972 1.1458)" class="st5" width="3.7" height="48.9"/>
							
								<rect id="Rectangle_32" x="38.7" y="-62" transform="matrix(0.9993 -3.828317e-02 3.828317e-02 0.9993 1.6219 1.5196)" class="st5" width="3.7" height="40.8"/>
							
								<rect id="Rectangle_33" x="47.3" y="-61.5" transform="matrix(0.9993 -3.801055e-02 3.801055e-02 0.9993 1.6756 1.836)" class="st5" width="3.7" height="36.6"/>
						</g>
						<path id="Tracé_76" class="st5" d="M17.9,30.4l-0.7-3.6c6.3-1.2,9.8-0.1,10.1,0.1l-1.2,3.5C26.1,30.3,23.3,29.4,17.9,30.4z"
							/>
						<path id="Tracé_77" class="st5" d="M45.5,30.3c0,0-2.8-1.1-8.1-0.1l-0.7-3.6c6.4-1.2,9.8,0.2,10.2,0.4L45.5,30.3z"/>
						<path id="Tracé_78" class="st5" d="M33,52c-3.6,0-7.1-1.8-9.9-5.1l2.8-2.4c2.2,2.6,4.8,3.8,7.4,3.8c2.9-0.3,5.5-1.9,7.1-4.3
							l3,2.1c-2.2,3.4-5.9,5.6-10,5.9C33.3,52,33.1,52,33,52z"/>
						<circle id="Ellipse_27" class="st5" cx="23.1" cy="31.3" r="2"/>
						<circle id="Ellipse_28" class="st5" cx="40.5" cy="31.5" r="2"/>
					</g>
				</g>
			</g>
		</g>
		<path id="Tracé_79" class="st5" d="M-10359.4-1266.3c-5.5,0-9.8-2.6-9.8-5.9s4.3-5.9,9.8-5.9v1.8c-4.8,0-7.9,2.1-7.9,4
			s3.2,4,7.9,4V-1266.3z"/>
		<path id="Tracé_80" class="st5" d="M-10372.5-1290.6l-1.4-1.2c2.8-3.2,6.5-4,10.7-2.3l-0.7,1.7
			C-10367.2-1293.8-10370.1-1293.2-10372.5-1290.6z"/>
		<circle id="Ellipse_29" class="st5" cx="-10365.9" cy="-1290.8" r="2.5"/>
		<path id="Tracé_81" class="st5" d="M-10360.3-1257.8c-4.5,0-9.6-2.3-13.7-6.3c-4.8-4.6-12.7-15.6-11.6-37.5l3.7,0.2
			c-1.1,20.4,6.1,30.4,10.4,34.6c3.8,3.6,8.3,5.6,12.1,5.2l0.4,3.7C-10359.4-1257.8-10359.8-1257.8-10360.3-1257.8z"/>
		<path id="Tracé_82" class="st5" d="M-10391.7-1288.9l-0.6-4.9c-2.1-16.5,0.2-28.7,6.8-36.3c5.5-6.3,14.1-9.5,25.6-9.5h1.8l0,1.8
			c0.2,20,0,29.2,0,29.3l0,0.9l-0.7,0.5c-1.2,0.9-3,1-5.7,1.2c-6.3,0.5-16.9,1.2-24.4,12.7L-10391.7-1288.9z M-10361.8-1335.8
			c-9.5,0.3-16.4,3-21,8.2c-5.3,6-7.5,15.7-6.4,28.8c8.2-9.4,18.5-10.2,24.4-10.6c1-0.1,2.3-0.2,3-0.3
			C-10361.7-1312.7-10361.6-1321.1-10361.8-1335.8L-10361.8-1335.8z"/>
		<path id="Tracé_83" class="st6" d="M-10406.5-1337.7"/>
		<path id="Tracé_84" class="st5" d="M-10374.1-1258.4c-0.8,0-1.6-0.2-2.3-0.7c-0.4-0.2-0.8-0.6-1.4-1c-1.4-1.1-2.9-2.1-4.4-2.9
			c-0.7,2.5-3.9,3.8-6.9,4.1c-1.7,0.2-3.7,0.2-4.3-1.5c-0.2-0.6,0-1.4,0.4-1.9c-0.8-1.3-3.7-4.2-10.4-9.4c-1.1-0.7-1.7-2-1.6-3.3
			c0.2-2.9,4-5.2,8.9-7.9c0.7-0.4,1.4-0.8,2-1.1c2.7-1.6,5.4-5.2,7.8-8.4l1.1-1.5l2.9,2.2l-1.1,1.4c-2.6,3.5-5.5,7.4-8.9,9.4
			c-0.6,0.3-1.3,0.7-2.1,1.2c-1.8,1-6.8,3.7-7,5c9.9,7.6,11.9,10.5,12.2,12c1.1-0.1,2.1-0.5,3-1.1c0.2-0.2,0.3-0.3,0.3-0.4
			c0-1.1,0.6-2.1,1.6-2.6c2.1-1,4.9,0.9,8.5,3.6c0.5,0.4,0.9,0.7,1.2,0.9c0.4,0.3,2.4-0.6,3.9-1.9l2.4,2.8
			C-10368.6-1260.6-10371.4-1258.4-10374.1-1258.4z"/>
		<rect id="Rectangle_35" x="-10360.1" y="-1397.9" class="st5" width="1.8" height="152"/>
		<path id="Tracé_85" class="st5" d="M-10382.5-1316.4l-1.8-0.6c2.4-7.3,11.3-12.1,23.7-12.8l0.1,1.8
			C-10372.1-1327.3-10380.3-1323-10382.5-1316.4z"/>
		<path id="Tracé_86" class="st5" d="M-10382.7-1310.9l-1.5-1.1c4.5-5.8,9.6-9.1,23.5-9.9l0.1,1.8
			C-10373.8-1319.3-10378.5-1316.2-10382.7-1310.9z"/>
	</g>
	<g class="st3">
		<path d="M217.4,1665.2h5.4v1.2h-6.9v-11.4h1.5V1665.2z"/>
		<path d="M227.8,1666.6c-1.1,0-2.1-0.4-2.8-1.1s-1.1-1.8-1.1-3v-0.3c0-0.8,0.2-1.6,0.5-2.2s0.8-1.2,1.3-1.5
			c0.6-0.4,1.2-0.6,1.9-0.6c1.1,0,2,0.4,2.6,1.1s0.9,1.8,0.9,3.1v0.6h-5.7c0,0.8,0.3,1.5,0.7,2c0.5,0.5,1.1,0.8,1.8,0.8
			c0.5,0,0.9-0.1,1.3-0.3c0.4-0.2,0.7-0.5,0.9-0.8l0.9,0.7C230.2,1666,229.2,1666.6,227.8,1666.6z M227.6,1659
			c-0.6,0-1.1,0.2-1.5,0.6c-0.4,0.4-0.6,1-0.7,1.8h4.2v-0.1c0-0.7-0.2-1.3-0.6-1.7C228.7,1659.2,228.2,1659,227.6,1659z"/>
		<path d="M243.8,1662.3c0,1.3-0.3,2.3-0.9,3.1c-0.6,0.8-1.4,1.2-2.4,1.2c-1,0-1.8-0.3-2.4-1v4.1h-1.4V1658h1.3l0.1,0.9
			c0.6-0.7,1.4-1.1,2.5-1.1c1,0,1.8,0.4,2.4,1.1c0.6,0.8,0.9,1.8,0.9,3.2V1662.3z M242.4,1662.1c0-1-0.2-1.7-0.6-2.3s-1-0.8-1.7-0.8
			c-0.9,0-1.5,0.4-2,1.2v4c0.4,0.8,1.1,1.2,2,1.2c0.7,0,1.2-0.3,1.7-0.8C242.2,1664,242.4,1663.2,242.4,1662.1z"/>
		<path d="M249.8,1659.3c-0.2,0-0.5-0.1-0.7-0.1c-0.9,0-1.6,0.4-1.9,1.2v6h-1.4v-8.5h1.4l0,1c0.5-0.8,1.1-1.1,2-1.1
			c0.3,0,0.5,0,0.6,0.1V1659.3z"/>
		<path d="M254.4,1666.6c-1.1,0-2.1-0.4-2.8-1.1s-1.1-1.8-1.1-3v-0.3c0-0.8,0.2-1.6,0.5-2.2s0.8-1.2,1.3-1.5
			c0.6-0.4,1.2-0.6,1.9-0.6c1.1,0,2,0.4,2.6,1.1s0.9,1.8,0.9,3.1v0.6H252c0,0.8,0.3,1.5,0.7,2c0.5,0.5,1.1,0.8,1.8,0.8
			c0.5,0,0.9-0.1,1.3-0.3c0.4-0.2,0.7-0.5,0.9-0.8l0.9,0.7C256.9,1666,255.9,1666.6,254.4,1666.6z M256.6,1656.6L256.6,1656.6
			l-1.2,0.1l-1.2-1.3l-1.2,1.3l-1.2,0v-0.1l1.9-2.1h0.9L256.6,1656.6z M254.3,1659c-0.6,0-1.1,0.2-1.5,0.6c-0.4,0.4-0.6,1-0.7,1.8
			h4.2v-0.1c0-0.7-0.2-1.3-0.6-1.7C255.3,1659.2,254.9,1659,254.3,1659z"/>
		<path d="M261.4,1655.9v2h1.6v1.1h-1.6v5.2c0,0.3,0.1,0.6,0.2,0.8c0.1,0.2,0.4,0.3,0.7,0.3c0.2,0,0.4,0,0.7-0.1v1.2
			c-0.4,0.1-0.8,0.2-1.1,0.2c-0.6,0-1.1-0.2-1.5-0.6s-0.5-0.9-0.5-1.7v-5.2h-1.5v-1.1h1.5v-2H261.4z"/>
		<path d="M267.6,1662.2h-3.8v-1.2h3.8V1662.2z"/>
		<path d="M274.3,1666.4c-0.1-0.2-0.2-0.5-0.2-0.9c-0.7,0.7-1.5,1-2.4,1c-0.8,0-1.5-0.2-2.1-0.7c-0.5-0.5-0.8-1.1-0.8-1.8
			c0-0.9,0.3-1.6,1-2.1c0.7-0.5,1.6-0.7,2.8-0.7h1.4v-0.7c0-0.5-0.2-0.9-0.5-1.2c-0.3-0.3-0.7-0.4-1.3-0.4c-0.5,0-0.9,0.1-1.3,0.4
			c-0.3,0.3-0.5,0.6-0.5,0.9H269c0-0.4,0.1-0.8,0.4-1.2c0.3-0.4,0.7-0.7,1.2-0.9c0.5-0.2,1.1-0.3,1.7-0.3c1,0,1.7,0.2,2.3,0.7
			c0.6,0.5,0.8,1.2,0.9,2v3.9c0,0.8,0.1,1.4,0.3,1.9v0.1H274.3z M273.3,1656.7l-1.2,0l-2-2.3h1.7L273.3,1656.7z M271.9,1665.3
			c0.5,0,0.9-0.1,1.3-0.4s0.7-0.5,0.9-0.9v-1.7h-1.1c-1.8,0-2.7,0.5-2.7,1.6c0,0.5,0.2,0.8,0.5,1.1
			C271,1665.2,271.4,1665.3,271.9,1665.3z"/>
		<path d="M280.8,1662.2H277v-1.2h3.8V1662.2z"/>
		<path d="M285.6,1665.4c0.5,0,1-0.2,1.4-0.5c0.4-0.3,0.6-0.7,0.6-1.2h1.4c0,0.5-0.2,0.9-0.5,1.4c-0.3,0.4-0.7,0.8-1.2,1
			c-0.5,0.3-1.1,0.4-1.6,0.4c-1.2,0-2.1-0.4-2.7-1.2s-1-1.8-1-3.2v-0.2c0-0.8,0.2-1.6,0.5-2.2c0.3-0.6,0.7-1.1,1.3-1.5
			c0.6-0.4,1.2-0.5,2-0.5c0.9,0,1.7,0.3,2.4,0.9c0.6,0.6,1,1.3,1,2.2h-1.4c0-0.5-0.2-1-0.6-1.3c-0.4-0.4-0.8-0.5-1.4-0.5
			c-0.7,0-1.3,0.3-1.7,0.8c-0.4,0.5-0.6,1.3-0.6,2.3v0.3c0,1,0.2,1.7,0.6,2.2C284.2,1665.1,284.8,1665.4,285.6,1665.4z"/>
		<path d="M295.8,1665.6c-0.6,0.7-1.4,1-2.5,1c-0.9,0-1.6-0.3-2.1-0.8c-0.5-0.5-0.7-1.3-0.7-2.3v-5.5h1.4v5.5c0,1.3,0.5,1.9,1.6,1.9
			c1.1,0,1.8-0.4,2.2-1.2v-6.1h1.4v8.5h-1.4L295.8,1665.6z"/>
		<path d="M299.4,1655.7c0-0.2,0.1-0.4,0.2-0.6c0.1-0.2,0.4-0.2,0.6-0.2s0.5,0.1,0.6,0.2c0.1,0.2,0.2,0.4,0.2,0.6s-0.1,0.4-0.2,0.6
			c-0.1,0.2-0.4,0.2-0.6,0.2s-0.5-0.1-0.6-0.2C299.4,1656.2,299.4,1656,299.4,1655.7z M300.9,1666.4h-1.4v-8.5h1.4V1666.4z"/>
		<path d="M308.2,1664.2c0-0.4-0.1-0.7-0.4-0.9c-0.3-0.2-0.8-0.4-1.5-0.6c-0.7-0.2-1.3-0.3-1.7-0.6s-0.7-0.5-1-0.8
			c-0.2-0.3-0.3-0.7-0.3-1.1c0-0.7,0.3-1.3,0.9-1.8s1.3-0.7,2.2-0.7c1,0,1.7,0.2,2.3,0.7c0.6,0.5,0.9,1.1,0.9,1.9h-1.5
			c0-0.4-0.2-0.7-0.5-1s-0.8-0.4-1.3-0.4c-0.5,0-0.9,0.1-1.2,0.3s-0.4,0.5-0.4,0.9c0,0.3,0.1,0.6,0.4,0.8c0.3,0.2,0.8,0.3,1.5,0.5
			c0.7,0.2,1.3,0.4,1.8,0.6c0.4,0.2,0.8,0.5,1,0.8c0.2,0.3,0.3,0.7,0.3,1.2c0,0.8-0.3,1.4-0.9,1.8c-0.6,0.5-1.4,0.7-2.4,0.7
			c-0.7,0-1.3-0.1-1.8-0.4c-0.5-0.2-0.9-0.6-1.2-1c-0.3-0.4-0.4-0.9-0.4-1.4h1.4c0,0.5,0.2,0.9,0.6,1.2c0.4,0.3,0.8,0.4,1.4,0.4
			c0.5,0,1-0.1,1.3-0.3C308,1664.8,308.2,1664.6,308.2,1664.2z"/>
		<path d="M311.5,1655.7c0-0.2,0.1-0.4,0.2-0.6c0.1-0.2,0.4-0.2,0.6-0.2s0.5,0.1,0.6,0.2c0.1,0.2,0.2,0.4,0.2,0.6s-0.1,0.4-0.2,0.6
			c-0.1,0.2-0.4,0.2-0.6,0.2s-0.5-0.1-0.6-0.2C311.6,1656.2,311.5,1656,311.5,1655.7z M313.1,1666.4h-1.4v-8.5h1.4V1666.4z"/>
		<path d="M316.8,1658l0,1.1c0.6-0.8,1.5-1.2,2.5-1.2c1.8,0,2.7,1,2.7,3v5.6h-1.4v-5.6c0-0.6-0.1-1.1-0.4-1.4s-0.7-0.4-1.3-0.4
			c-0.5,0-0.9,0.1-1.2,0.4c-0.4,0.2-0.6,0.6-0.8,1v6h-1.4v-8.5H316.8z"/>
		<path d="M327.7,1666.6c-1.1,0-2.1-0.4-2.8-1.1s-1.1-1.8-1.1-3v-0.3c0-0.8,0.2-1.6,0.5-2.2s0.8-1.2,1.3-1.5
			c0.6-0.4,1.2-0.6,1.9-0.6c1.1,0,2,0.4,2.6,1.1s0.9,1.8,0.9,3.1v0.6h-5.7c0,0.8,0.3,1.5,0.7,2c0.5,0.5,1.1,0.8,1.8,0.8
			c0.5,0,0.9-0.1,1.3-0.3c0.4-0.2,0.7-0.5,0.9-0.8l0.9,0.7C330.2,1666,329.1,1666.6,327.7,1666.6z M327.5,1659
			c-0.6,0-1.1,0.2-1.5,0.6c-0.4,0.4-0.6,1-0.7,1.8h4.2v-0.1c0-0.7-0.2-1.3-0.6-1.7C328.6,1659.2,328.1,1659,327.5,1659z"/>
		<path d="M336.8,1659.3c-0.2,0-0.5-0.1-0.7-0.1c-0.9,0-1.6,0.4-1.9,1.2v6h-1.4v-8.5h1.4l0,1c0.5-0.8,1.1-1.1,2-1.1
			c0.3,0,0.5,0,0.6,0.1V1659.3z"/>
	</g>
	<g class="st3">
		<path d="M223.5,1681.1c0-1.3,0.3-2.4,0.9-3.2s1.4-1.2,2.5-1.2c1,0,1.8,0.3,2.4,1l0.1-0.9h1.3v11.7h-1.4v-4
			c-0.6,0.6-1.4,0.9-2.3,0.9c-1,0-1.8-0.4-2.4-1.2c-0.6-0.8-0.9-1.8-0.9-3.2V1681.1z M224.9,1681.3c0,1,0.2,1.7,0.6,2.3
			c0.4,0.6,1,0.8,1.7,0.8c0.9,0,1.5-0.4,2-1.1v-4.1c-0.5-0.7-1.1-1.1-2-1.1c-0.7,0-1.3,0.3-1.7,0.8
			C225.1,1679.4,224.9,1680.2,224.9,1681.3z"/>
		<path d="M238.1,1684.6c-0.6,0.7-1.4,1-2.5,1c-0.9,0-1.6-0.3-2.1-0.8c-0.5-0.5-0.7-1.3-0.7-2.3v-5.5h1.4v5.5c0,1.3,0.5,1.9,1.6,1.9
			c1.1,0,1.8-0.4,2.2-1.2v-6.1h1.4v8.5h-1.4L238.1,1684.6z"/>
		<path d="M241.8,1674.7c0-0.2,0.1-0.4,0.2-0.6c0.1-0.2,0.4-0.2,0.6-0.2s0.5,0.1,0.6,0.2c0.1,0.2,0.2,0.4,0.2,0.6s-0.1,0.4-0.2,0.6
			c-0.1,0.2-0.4,0.2-0.6,0.2s-0.5-0.1-0.6-0.2C241.8,1675.2,241.8,1675,241.8,1674.7z M243.3,1685.4h-1.4v-8.5h1.4V1685.4z"/>
		<path d="M253.7,1678.3c-0.2,0-0.5-0.1-0.7-0.1c-0.9,0-1.6,0.4-1.9,1.2v6h-1.4v-8.5h1.4l0,1c0.5-0.8,1.1-1.1,2-1.1
			c0.3,0,0.5,0,0.6,0.1V1678.3z"/>
		<path d="M258.4,1685.6c-1.1,0-2.1-0.4-2.8-1.1s-1.1-1.8-1.1-3v-0.3c0-0.8,0.2-1.6,0.5-2.2s0.8-1.2,1.3-1.5
			c0.6-0.4,1.2-0.6,1.9-0.6c1.1,0,2,0.4,2.6,1.1s0.9,1.8,0.9,3.1v0.6h-5.7c0,0.8,0.3,1.5,0.7,2c0.5,0.5,1.1,0.8,1.8,0.8
			c0.5,0,0.9-0.1,1.3-0.3c0.4-0.2,0.7-0.5,0.9-0.8l0.9,0.7C260.8,1685,259.8,1685.6,258.4,1685.6z M258.2,1678
			c-0.6,0-1.1,0.2-1.5,0.6c-0.4,0.4-0.6,1-0.7,1.8h4.2v-0.1c0-0.7-0.2-1.3-0.6-1.7C259.3,1678.2,258.8,1678,258.2,1678z"/>
		<path d="M268.3,1683.2c0-0.4-0.1-0.7-0.4-0.9c-0.3-0.2-0.8-0.4-1.5-0.6c-0.7-0.2-1.3-0.3-1.7-0.6s-0.7-0.5-1-0.8
			c-0.2-0.3-0.3-0.7-0.3-1.1c0-0.7,0.3-1.3,0.9-1.8s1.3-0.7,2.2-0.7c1,0,1.7,0.2,2.3,0.7c0.6,0.5,0.9,1.1,0.9,1.9h-1.5
			c0-0.4-0.2-0.7-0.5-1s-0.8-0.4-1.3-0.4c-0.5,0-0.9,0.1-1.2,0.3s-0.4,0.5-0.4,0.9c0,0.3,0.1,0.6,0.4,0.8c0.3,0.2,0.8,0.3,1.5,0.5
			c0.7,0.2,1.3,0.4,1.8,0.6c0.4,0.2,0.8,0.5,1,0.8c0.2,0.3,0.3,0.7,0.3,1.2c0,0.8-0.3,1.4-0.9,1.8c-0.6,0.5-1.4,0.7-2.4,0.7
			c-0.7,0-1.3-0.1-1.8-0.4c-0.5-0.2-0.9-0.6-1.2-1c-0.3-0.4-0.4-0.9-0.4-1.4h1.4c0,0.5,0.2,0.9,0.6,1.2c0.4,0.3,0.8,0.4,1.4,0.4
			c0.5,0,1-0.1,1.3-0.3C268.1,1683.8,268.3,1683.6,268.3,1683.2z"/>
		<path d="M278.7,1681.3c0,1.3-0.3,2.3-0.9,3.1c-0.6,0.8-1.4,1.2-2.4,1.2c-1,0-1.8-0.3-2.4-1v4.1h-1.4V1677h1.3l0.1,0.9
			c0.6-0.7,1.4-1.1,2.5-1.1c1,0,1.8,0.4,2.4,1.1c0.6,0.8,0.9,1.8,0.9,3.2V1681.3z M277.3,1681.1c0-1-0.2-1.7-0.6-2.3s-1-0.8-1.7-0.8
			c-0.9,0-1.5,0.4-2,1.2v4c0.4,0.8,1.1,1.2,2,1.2c0.7,0,1.2-0.3,1.7-0.8C277.1,1683,277.3,1682.2,277.3,1681.1z"/>
		<path d="M284.1,1685.6c-1.1,0-2.1-0.4-2.8-1.1s-1.1-1.8-1.1-3v-0.3c0-0.8,0.2-1.6,0.5-2.2s0.8-1.2,1.3-1.5
			c0.6-0.4,1.2-0.6,1.9-0.6c1.1,0,2,0.4,2.6,1.1s0.9,1.8,0.9,3.1v0.6h-5.7c0,0.8,0.3,1.5,0.7,2c0.5,0.5,1.1,0.8,1.8,0.8
			c0.5,0,0.9-0.1,1.3-0.3c0.4-0.2,0.7-0.5,0.9-0.8l0.9,0.7C286.5,1685,285.5,1685.6,284.1,1685.6z M283.9,1678
			c-0.6,0-1.1,0.2-1.5,0.6c-0.4,0.4-0.6,1-0.7,1.8h4.2v-0.1c0-0.7-0.2-1.3-0.6-1.7C285,1678.2,284.5,1678,283.9,1678z"/>
		<path d="M292.4,1684.4c0.5,0,1-0.2,1.4-0.5c0.4-0.3,0.6-0.7,0.6-1.2h1.4c0,0.5-0.2,0.9-0.5,1.4c-0.3,0.4-0.7,0.8-1.2,1
			c-0.5,0.3-1.1,0.4-1.6,0.4c-1.2,0-2.1-0.4-2.7-1.2s-1-1.8-1-3.2v-0.2c0-0.8,0.2-1.6,0.5-2.2c0.3-0.6,0.7-1.1,1.3-1.5
			c0.6-0.4,1.2-0.5,2-0.5c0.9,0,1.7,0.3,2.4,0.9c0.6,0.6,1,1.3,1,2.2h-1.4c0-0.5-0.2-1-0.6-1.3c-0.4-0.4-0.8-0.5-1.4-0.5
			c-0.7,0-1.3,0.3-1.7,0.8c-0.4,0.5-0.6,1.3-0.6,2.3v0.3c0,1,0.2,1.7,0.6,2.2C291.1,1684.1,291.7,1684.4,292.4,1684.4z"/>
		<path d="M299.4,1674.9v2h1.6v1.1h-1.6v5.2c0,0.3,0.1,0.6,0.2,0.8c0.1,0.2,0.4,0.3,0.7,0.3c0.2,0,0.4,0,0.7-0.1v1.2
			c-0.4,0.1-0.8,0.2-1.1,0.2c-0.6,0-1.1-0.2-1.5-0.6s-0.5-0.9-0.5-1.7v-5.2h-1.5v-1.1h1.5v-2H299.4z"/>
		<path d="M306.1,1685.6c-1.1,0-2.1-0.4-2.8-1.1s-1.1-1.8-1.1-3v-0.3c0-0.8,0.2-1.6,0.5-2.2s0.8-1.2,1.3-1.5
			c0.6-0.4,1.2-0.6,1.9-0.6c1.1,0,2,0.4,2.6,1.1s0.9,1.8,0.9,3.1v0.6h-5.7c0,0.8,0.3,1.5,0.7,2c0.5,0.5,1.1,0.8,1.8,0.8
			c0.5,0,0.9-0.1,1.3-0.3c0.4-0.2,0.7-0.5,0.9-0.8l0.9,0.7C308.6,1685,307.6,1685.6,306.1,1685.6z M306,1678c-0.6,0-1.1,0.2-1.5,0.6
			c-0.4,0.4-0.6,1-0.7,1.8h4.2v-0.1c0-0.7-0.2-1.3-0.6-1.7C307.1,1678.2,306.6,1678,306,1678z"/>
		<path d="M317,1674.9v2h1.6v1.1H317v5.2c0,0.3,0.1,0.6,0.2,0.8c0.1,0.2,0.4,0.3,0.7,0.3c0.2,0,0.4,0,0.7-0.1v1.2
			c-0.4,0.1-0.8,0.2-1.1,0.2c-0.6,0-1.1-0.2-1.5-0.6s-0.5-0.9-0.5-1.7v-5.2h-1.5v-1.1h1.5v-2H317z"/>
		<path d="M319.8,1681.1c0-0.8,0.2-1.6,0.5-2.2c0.3-0.7,0.8-1.2,1.4-1.5c0.6-0.4,1.2-0.5,2-0.5c1.2,0,2.1,0.4,2.8,1.2
			s1.1,1.9,1.1,3.2v0.1c0,0.8-0.2,1.6-0.5,2.2c-0.3,0.7-0.8,1.2-1.4,1.5s-1.3,0.5-2,0.5c-1.1,0-2.1-0.4-2.8-1.2s-1.1-1.9-1.1-3.2
			V1681.1z M321.2,1681.3c0,0.9,0.2,1.7,0.7,2.3c0.4,0.6,1,0.9,1.7,0.9c0.7,0,1.3-0.3,1.8-0.9c0.4-0.6,0.6-1.4,0.6-2.4
			c0-0.9-0.2-1.7-0.7-2.3c-0.4-0.6-1-0.9-1.8-0.9c-0.7,0-1.3,0.3-1.7,0.9S321.2,1680.2,321.2,1681.3z"/>
		<path d="M330.6,1677l0,1.1c0.6-0.8,1.5-1.2,2.5-1.2c1.8,0,2.7,1,2.7,3v5.6h-1.4v-5.6c0-0.6-0.1-1.1-0.4-1.4s-0.7-0.4-1.3-0.4
			c-0.5,0-0.9,0.1-1.2,0.4c-0.4,0.2-0.6,0.6-0.8,1v6h-1.4v-8.5H330.6z"/>
	</g>
	<g class="st3">
		<path d="M206.9,1700.3c0,1.3-0.3,2.3-0.9,3.1s-1.4,1.2-2.4,1.2c-1.1,0-1.9-0.4-2.5-1.1l-0.1,1h-1.3v-12h1.4v4.5
			c0.6-0.7,1.4-1.1,2.4-1.1c1,0,1.8,0.4,2.4,1.2s0.9,1.8,0.9,3.2V1700.3z M205.5,1700.1c0-1-0.2-1.7-0.6-2.3
			c-0.4-0.5-0.9-0.8-1.6-0.8c-1,0-1.6,0.4-2.1,1.3v3.7c0.4,0.9,1.1,1.3,2.1,1.3c0.7,0,1.2-0.3,1.6-0.8
			C205.3,1702,205.5,1701.2,205.5,1700.1z"/>
		<path d="M214,1703.6c-0.6,0.7-1.4,1-2.5,1c-0.9,0-1.6-0.3-2.1-0.8c-0.5-0.5-0.7-1.3-0.7-2.3v-5.5h1.4v5.5c0,1.3,0.5,1.9,1.6,1.9
			c1.1,0,1.8-0.4,2.2-1.2v-6.1h1.4v8.5H214L214,1703.6z"/>
		<path d="M217.2,1700.1c0-1.3,0.3-2.3,0.9-3.1c0.6-0.8,1.4-1.2,2.4-1.2c1,0,1.8,0.3,2.4,1v-4.4h1.4v12H223l-0.1-0.9
			c-0.6,0.7-1.4,1.1-2.4,1.1c-1,0-1.8-0.4-2.4-1.2s-0.9-1.8-0.9-3.1V1700.1z M218.7,1700.3c0,1,0.2,1.7,0.6,2.2
			c0.4,0.5,0.9,0.8,1.6,0.8c0.9,0,1.6-0.4,2-1.2v-3.9c-0.4-0.8-1.1-1.2-2-1.2c-0.7,0-1.3,0.3-1.7,0.8
			C218.9,1698.4,218.7,1699.2,218.7,1700.3z"/>
		<path d="M226.3,1700.1c0-1.3,0.3-2.4,0.9-3.1s1.4-1.2,2.4-1.2c1,0,1.8,0.4,2.4,1.1l0.1-0.9h1.3v8.2c0,1.1-0.3,2-1,2.6
			s-1.5,0.9-2.6,0.9c-0.6,0-1.2-0.1-1.8-0.4c-0.6-0.3-1-0.6-1.3-1.1l0.8-0.9c0.6,0.8,1.4,1.1,2.3,1.1c0.7,0,1.3-0.2,1.6-0.6
			c0.4-0.4,0.6-1,0.6-1.7v-0.7c-0.6,0.7-1.4,1-2.4,1c-1,0-1.8-0.4-2.4-1.2C226.6,1702.6,226.3,1701.5,226.3,1700.1z M227.7,1700.3
			c0,1,0.2,1.7,0.6,2.2s0.9,0.8,1.6,0.8c0.9,0,1.6-0.4,2-1.2v-3.9c-0.4-0.8-1.1-1.2-2-1.2c-0.7,0-1.3,0.3-1.6,0.8
			C227.9,1698.4,227.7,1699.2,227.7,1700.3z"/>
		<path d="M239.1,1704.6c-1.1,0-2.1-0.4-2.8-1.1s-1.1-1.8-1.1-3v-0.3c0-0.8,0.2-1.6,0.5-2.2s0.8-1.2,1.3-1.5
			c0.6-0.4,1.2-0.6,1.9-0.6c1.1,0,2,0.4,2.6,1.1s0.9,1.8,0.9,3.1v0.6h-5.7c0,0.8,0.3,1.5,0.7,2c0.5,0.5,1.1,0.8,1.8,0.8
			c0.5,0,0.9-0.1,1.3-0.3c0.4-0.2,0.7-0.5,0.9-0.8l0.9,0.7C241.6,1704,240.5,1704.6,239.1,1704.6z M238.9,1697
			c-0.6,0-1.1,0.2-1.5,0.6c-0.4,0.4-0.6,1-0.7,1.8h4.2v-0.1c0-0.7-0.2-1.3-0.6-1.7C240,1697.2,239.5,1697,238.9,1697z"/>
		<path d="M246,1693.9v2h1.6v1.1H246v5.2c0,0.3,0.1,0.6,0.2,0.8c0.1,0.2,0.4,0.3,0.7,0.3c0.2,0,0.4,0,0.7-0.1v1.2
			c-0.4,0.1-0.8,0.2-1.1,0.2c-0.6,0-1.1-0.2-1.5-0.6s-0.5-0.9-0.5-1.7v-5.2H243v-1.1h1.5v-2H246z"/>
		<path d="M256.7,1704.6c-1.1,0-2.1-0.4-2.8-1.1s-1.1-1.8-1.1-3v-0.3c0-0.8,0.2-1.6,0.5-2.2s0.8-1.2,1.3-1.5
			c0.6-0.4,1.2-0.6,1.9-0.6c1.1,0,2,0.4,2.6,1.1s0.9,1.8,0.9,3.1v0.6h-5.7c0,0.8,0.3,1.5,0.7,2c0.5,0.5,1.1,0.8,1.8,0.8
			c0.5,0,0.9-0.1,1.3-0.3c0.4-0.2,0.7-0.5,0.9-0.8l0.9,0.7C259.2,1704,258.2,1704.6,256.7,1704.6z M256.6,1697
			c-0.6,0-1.1,0.2-1.5,0.6c-0.4,0.4-0.6,1-0.7,1.8h4.2v-0.1c0-0.7-0.2-1.3-0.6-1.7C257.6,1697.2,257.2,1697,256.6,1697z"/>
		<path d="M263.7,1693.9v2h1.6v1.1h-1.6v5.2c0,0.3,0.1,0.6,0.2,0.8c0.1,0.2,0.4,0.3,0.7,0.3c0.2,0,0.4,0,0.7-0.1v1.2
			c-0.4,0.1-0.8,0.2-1.1,0.2c-0.6,0-1.1-0.2-1.5-0.6s-0.5-0.9-0.5-1.7v-5.2h-1.5v-1.1h1.5v-2H263.7z"/>
		<path d="M270.5,1700.1c0-1.3,0.3-2.4,0.9-3.2s1.4-1.2,2.5-1.2c1,0,1.8,0.3,2.4,1l0.1-0.9h1.3v11.7h-1.4v-4
			c-0.6,0.6-1.4,0.9-2.3,0.9c-1,0-1.8-0.4-2.4-1.2c-0.6-0.8-0.9-1.8-0.9-3.2V1700.1z M272,1700.3c0,1,0.2,1.7,0.6,2.3
			c0.4,0.6,1,0.8,1.7,0.8c0.9,0,1.5-0.4,2-1.1v-4.1c-0.5-0.7-1.1-1.1-2-1.1c-0.7,0-1.3,0.3-1.7,0.8
			C272.2,1698.4,272,1699.2,272,1700.3z"/>
		<path d="M285.2,1703.6c-0.6,0.7-1.4,1-2.5,1c-0.9,0-1.6-0.3-2.1-0.8c-0.5-0.5-0.7-1.3-0.7-2.3v-5.5h1.4v5.5c0,1.3,0.5,1.9,1.6,1.9
			c1.1,0,1.8-0.4,2.2-1.2v-6.1h1.4v8.5h-1.4L285.2,1703.6z"/>
		<path d="M288.8,1693.7c0-0.2,0.1-0.4,0.2-0.6c0.1-0.2,0.4-0.2,0.6-0.2s0.5,0.1,0.6,0.2c0.1,0.2,0.2,0.4,0.2,0.6s-0.1,0.4-0.2,0.6
			c-0.1,0.2-0.4,0.2-0.6,0.2s-0.5-0.1-0.6-0.2C288.9,1694.2,288.8,1694,288.8,1693.7z M290.4,1704.4h-1.4v-8.5h1.4V1704.4z"/>
		<path d="M298.2,1704.4h-1.4v-12h1.4V1704.4z"/>
		<path d="M305.8,1704.4c-0.1-0.2-0.2-0.5-0.2-0.9c-0.7,0.7-1.5,1-2.4,1c-0.8,0-1.5-0.2-2.1-0.7c-0.5-0.5-0.8-1.1-0.8-1.8
			c0-0.9,0.3-1.6,1-2.1c0.7-0.5,1.6-0.7,2.8-0.7h1.4v-0.7c0-0.5-0.2-0.9-0.5-1.2c-0.3-0.3-0.7-0.4-1.3-0.4c-0.5,0-0.9,0.1-1.3,0.4
			c-0.3,0.3-0.5,0.6-0.5,0.9h-1.5c0-0.4,0.1-0.8,0.4-1.2c0.3-0.4,0.7-0.7,1.2-0.9c0.5-0.2,1.1-0.3,1.7-0.3c1,0,1.7,0.2,2.3,0.7
			c0.6,0.5,0.8,1.2,0.9,2v3.9c0,0.8,0.1,1.4,0.3,1.9v0.1H305.8z M303.4,1703.3c0.5,0,0.9-0.1,1.3-0.4s0.7-0.5,0.9-0.9v-1.7h-1.1
			c-1.8,0-2.7,0.5-2.7,1.6c0,0.5,0.2,0.8,0.5,1.1C302.5,1703.2,302.9,1703.3,303.4,1703.3z"/>
		<path d="M309.3,1693.7c0-0.2,0.1-0.4,0.2-0.6c0.1-0.2,0.4-0.2,0.6-0.2s0.5,0.1,0.6,0.2c0.1,0.2,0.2,0.4,0.2,0.6s-0.1,0.4-0.2,0.6
			c-0.1,0.2-0.4,0.2-0.6,0.2s-0.5-0.1-0.6-0.2C309.3,1694.2,309.3,1694,309.3,1693.7z M310.8,1704.4h-1.4v-8.5h1.4V1704.4z"/>
		<path d="M318,1702.2c0-0.4-0.1-0.7-0.4-0.9c-0.3-0.2-0.8-0.4-1.5-0.6c-0.7-0.2-1.3-0.3-1.7-0.6s-0.7-0.5-1-0.8
			c-0.2-0.3-0.3-0.7-0.3-1.1c0-0.7,0.3-1.3,0.9-1.8s1.3-0.7,2.2-0.7c1,0,1.7,0.2,2.3,0.7c0.6,0.5,0.9,1.1,0.9,1.9H318
			c0-0.4-0.2-0.7-0.5-1s-0.8-0.4-1.3-0.4c-0.5,0-0.9,0.1-1.2,0.3s-0.4,0.5-0.4,0.9c0,0.3,0.1,0.6,0.4,0.8c0.3,0.2,0.8,0.3,1.5,0.5
			c0.7,0.2,1.3,0.4,1.8,0.6c0.4,0.2,0.8,0.5,1,0.8c0.2,0.3,0.3,0.7,0.3,1.2c0,0.8-0.3,1.4-0.9,1.8c-0.6,0.5-1.4,0.7-2.4,0.7
			c-0.7,0-1.3-0.1-1.8-0.4c-0.5-0.2-0.9-0.6-1.2-1c-0.3-0.4-0.4-0.9-0.4-1.4h1.4c0,0.5,0.2,0.9,0.6,1.2c0.4,0.3,0.8,0.4,1.4,0.4
			c0.5,0,1-0.1,1.3-0.3C317.9,1702.8,318,1702.6,318,1702.2z"/>
		<path d="M326.3,1702.2c0-0.4-0.1-0.7-0.4-0.9c-0.3-0.2-0.8-0.4-1.5-0.6c-0.7-0.2-1.3-0.3-1.7-0.6s-0.7-0.5-1-0.8
			c-0.2-0.3-0.3-0.7-0.3-1.1c0-0.7,0.3-1.3,0.9-1.8s1.3-0.7,2.2-0.7c1,0,1.7,0.2,2.3,0.7c0.6,0.5,0.9,1.1,0.9,1.9h-1.5
			c0-0.4-0.2-0.7-0.5-1s-0.8-0.4-1.3-0.4c-0.5,0-0.9,0.1-1.2,0.3s-0.4,0.5-0.4,0.9c0,0.3,0.1,0.6,0.4,0.8c0.3,0.2,0.8,0.3,1.5,0.5
			c0.7,0.2,1.3,0.4,1.8,0.6c0.4,0.2,0.8,0.5,1,0.8c0.2,0.3,0.3,0.7,0.3,1.2c0,0.8-0.3,1.4-0.9,1.8c-0.6,0.5-1.4,0.7-2.4,0.7
			c-0.7,0-1.3-0.1-1.8-0.4c-0.5-0.2-0.9-0.6-1.2-1c-0.3-0.4-0.4-0.9-0.4-1.4h1.4c0,0.5,0.2,0.9,0.6,1.2c0.4,0.3,0.8,0.4,1.4,0.4
			c0.5,0,1-0.1,1.3-0.3C326.1,1702.8,326.3,1702.6,326.3,1702.2z"/>
		<path d="M333.1,1704.6c-1.1,0-2.1-0.4-2.8-1.1s-1.1-1.8-1.1-3v-0.3c0-0.8,0.2-1.6,0.5-2.2s0.8-1.2,1.3-1.5
			c0.6-0.4,1.2-0.6,1.9-0.6c1.1,0,2,0.4,2.6,1.1s0.9,1.8,0.9,3.1v0.6h-5.7c0,0.8,0.3,1.5,0.7,2c0.5,0.5,1.1,0.8,1.8,0.8
			c0.5,0,0.9-0.1,1.3-0.3c0.4-0.2,0.7-0.5,0.9-0.8l0.9,0.7C335.6,1704,334.6,1704.6,333.1,1704.6z M333,1697c-0.6,0-1.1,0.2-1.5,0.6
			c-0.4,0.4-0.6,1-0.7,1.8h4.2v-0.1c0-0.7-0.2-1.3-0.6-1.7C334,1697.2,333.6,1697,333,1697z"/>
	</g>
	<g class="st3">
		<path d="M209.6,1719.3c0,1.3-0.3,2.3-0.9,3.1c-0.6,0.8-1.4,1.2-2.4,1.2c-1,0-1.8-0.3-2.4-1v4.1h-1.4V1715h1.3l0.1,0.9
			c0.6-0.7,1.4-1.1,2.5-1.1c1,0,1.8,0.4,2.4,1.1c0.6,0.8,0.9,1.8,0.9,3.2V1719.3z M208.1,1719.1c0-1-0.2-1.7-0.6-2.3s-1-0.8-1.7-0.8
			c-0.9,0-1.5,0.4-2,1.2v4c0.4,0.8,1.1,1.2,2,1.2c0.7,0,1.2-0.3,1.7-0.8C207.9,1721,208.1,1720.2,208.1,1719.1z"/>
		<path d="M216.6,1723.4c-0.1-0.2-0.2-0.5-0.2-0.9c-0.7,0.7-1.5,1-2.4,1c-0.8,0-1.5-0.2-2.1-0.7c-0.5-0.5-0.8-1.1-0.8-1.8
			c0-0.9,0.3-1.6,1-2.1c0.7-0.5,1.6-0.7,2.8-0.7h1.4v-0.7c0-0.5-0.2-0.9-0.5-1.2c-0.3-0.3-0.7-0.4-1.3-0.4c-0.5,0-0.9,0.1-1.3,0.4
			c-0.3,0.3-0.5,0.6-0.5,0.9h-1.5c0-0.4,0.1-0.8,0.4-1.2c0.3-0.4,0.7-0.7,1.2-0.9c0.5-0.2,1.1-0.3,1.7-0.3c1,0,1.7,0.2,2.3,0.7
			c0.6,0.5,0.8,1.2,0.9,2v3.9c0,0.8,0.1,1.4,0.3,1.9v0.1H216.6z M214.2,1722.3c0.5,0,0.9-0.1,1.3-0.4s0.7-0.5,0.9-0.9v-1.7h-1.1
			c-1.8,0-2.7,0.5-2.7,1.6c0,0.5,0.2,0.8,0.5,1.1C213.4,1722.2,213.8,1722.3,214.2,1722.3z"/>
		<path d="M224.2,1716.3c-0.2,0-0.5-0.1-0.7-0.1c-0.9,0-1.6,0.4-1.9,1.2v6h-1.4v-8.5h1.4l0,1c0.5-0.8,1.1-1.1,2-1.1
			c0.3,0,0.5,0,0.6,0.1V1716.3z"/>
		<path d="M227.1,1723.4h-1.4v-12h1.4V1723.4z"/>
		<path d="M232.9,1723.6c-1.1,0-2.1-0.4-2.8-1.1s-1.1-1.8-1.1-3v-0.3c0-0.8,0.2-1.6,0.5-2.2s0.8-1.2,1.3-1.5
			c0.6-0.4,1.2-0.6,1.9-0.6c1.1,0,2,0.4,2.6,1.1s0.9,1.8,0.9,3.1v0.6h-5.7c0,0.8,0.3,1.5,0.7,2c0.5,0.5,1.1,0.8,1.8,0.8
			c0.5,0,0.9-0.1,1.3-0.3c0.4-0.2,0.7-0.5,0.9-0.8l0.9,0.7C235.4,1723,234.3,1723.6,232.9,1723.6z M232.7,1716
			c-0.6,0-1.1,0.2-1.5,0.6c-0.4,0.4-0.6,1-0.7,1.8h4.2v-0.1c0-0.7-0.2-1.3-0.6-1.7C233.8,1716.2,233.3,1716,232.7,1716z"/>
		<path d="M242,1716.3c-0.2,0-0.5-0.1-0.7-0.1c-0.9,0-1.6,0.4-1.9,1.2v6h-1.4v-8.5h1.4l0,1c0.5-0.8,1.1-1.1,2-1.1
			c0.3,0,0.5,0,0.6,0.1V1716.3z"/>
		<path d="M248.8,1723.4h-1.4v-12h1.4V1723.4z"/>
		<path d="M254.6,1723.6c-1.1,0-2.1-0.4-2.8-1.1s-1.1-1.8-1.1-3v-0.3c0-0.8,0.2-1.6,0.5-2.2s0.8-1.2,1.3-1.5
			c0.6-0.4,1.2-0.6,1.9-0.6c1.1,0,2,0.4,2.6,1.1s0.9,1.8,0.9,3.1v0.6h-5.7c0,0.8,0.3,1.5,0.7,2c0.5,0.5,1.1,0.8,1.8,0.8
			c0.5,0,0.9-0.1,1.3-0.3c0.4-0.2,0.7-0.5,0.9-0.8l0.9,0.7C257.1,1723,256.1,1723.6,254.6,1723.6z M254.5,1716
			c-0.6,0-1.1,0.2-1.5,0.6c-0.4,0.4-0.6,1-0.7,1.8h4.2v-0.1c0-0.7-0.2-1.3-0.6-1.7C255.6,1716.2,255.1,1716,254.5,1716z"/>
		<path d="M267,1722.4c0.5,0,1-0.2,1.4-0.5c0.4-0.3,0.6-0.7,0.6-1.2h1.4c0,0.5-0.2,0.9-0.5,1.4c-0.3,0.4-0.7,0.8-1.2,1
			c-0.5,0.3-1.1,0.4-1.6,0.4c-1.2,0-2.1-0.4-2.7-1.2s-1-1.8-1-3.2v-0.2c0-0.8,0.2-1.6,0.5-2.2c0.3-0.6,0.7-1.1,1.3-1.5
			c0.6-0.4,1.2-0.5,2-0.5c0.9,0,1.7,0.3,2.4,0.9c0.6,0.6,1,1.3,1,2.2H269c0-0.5-0.2-1-0.6-1.3c-0.4-0.4-0.8-0.5-1.4-0.5
			c-0.7,0-1.3,0.3-1.7,0.8c-0.4,0.5-0.6,1.3-0.6,2.3v0.3c0,1,0.2,1.7,0.6,2.2C265.7,1722.1,266.2,1722.4,267,1722.4z"/>
		<path d="M273.4,1716c0.6-0.8,1.5-1.2,2.5-1.2c1.8,0,2.7,1,2.7,3v5.6h-1.4v-5.6c0-0.6-0.1-1.1-0.4-1.4s-0.7-0.4-1.3-0.4
			c-0.5,0-0.9,0.1-1.2,0.4c-0.4,0.2-0.6,0.6-0.8,1v6H272v-12h1.4V1716z"/>
		<path d="M284.3,1723.6c-1.1,0-2.1-0.4-2.8-1.1s-1.1-1.8-1.1-3v-0.3c0-0.8,0.2-1.6,0.5-2.2s0.8-1.2,1.3-1.5
			c0.6-0.4,1.2-0.6,1.9-0.6c1.1,0,2,0.4,2.6,1.1s0.9,1.8,0.9,3.1v0.6h-5.7c0,0.8,0.3,1.5,0.7,2c0.5,0.5,1.1,0.8,1.8,0.8
			c0.5,0,0.9-0.1,1.3-0.3c0.4-0.2,0.7-0.5,0.9-0.8l0.9,0.7C286.8,1723,285.7,1723.6,284.3,1723.6z M284.1,1716
			c-0.6,0-1.1,0.2-1.5,0.6c-0.4,0.4-0.6,1-0.7,1.8h4.2v-0.1c0-0.7-0.2-1.3-0.6-1.7C285.2,1716.2,284.7,1716,284.1,1716z"/>
		<path d="M290,1723.4v-7.3h-1.3v-1.1h1.3v-0.9c0-0.9,0.2-1.6,0.7-2.1s1.2-0.7,2.1-0.7c0.3,0,0.7,0,1,0.1l-0.1,1.2
			c-0.2,0-0.5-0.1-0.8-0.1c-0.5,0-0.8,0.1-1.1,0.4c-0.3,0.3-0.4,0.7-0.4,1.2v0.9h1.8v1.1h-1.8v7.3H290z"/>
		<path d="M302.3,1723.6c-1.1,0-2.1-0.4-2.8-1.1s-1.1-1.8-1.1-3v-0.3c0-0.8,0.2-1.6,0.5-2.2s0.8-1.2,1.3-1.5
			c0.6-0.4,1.2-0.6,1.9-0.6c1.1,0,2,0.4,2.6,1.1s0.9,1.8,0.9,3.1v0.6h-5.7c0,0.8,0.3,1.5,0.7,2c0.5,0.5,1.1,0.8,1.8,0.8
			c0.5,0,0.9-0.1,1.3-0.3c0.4-0.2,0.7-0.5,0.9-0.8l0.9,0.7C304.7,1723,303.7,1723.6,302.3,1723.6z M302.1,1716
			c-0.6,0-1.1,0.2-1.5,0.6c-0.4,0.4-0.6,1-0.7,1.8h4.2v-0.1c0-0.7-0.2-1.3-0.6-1.7C303.2,1716.2,302.7,1716,302.1,1716z"/>
		<path d="M308.6,1715l0,1.1c0.6-0.8,1.5-1.2,2.5-1.2c1.8,0,2.7,1,2.7,3v5.6h-1.4v-5.6c0-0.6-0.1-1.1-0.4-1.4s-0.7-0.4-1.3-0.4
			c-0.5,0-0.9,0.1-1.2,0.4c-0.4,0.2-0.6,0.6-0.8,1v6h-1.4v-8.5H308.6z"/>
		<path d="M322,1712.9v2h1.6v1.1H322v5.2c0,0.3,0.1,0.6,0.2,0.8c0.1,0.2,0.4,0.3,0.7,0.3c0.2,0,0.4,0,0.7-0.1v1.2
			c-0.4,0.1-0.8,0.2-1.1,0.2c-0.6,0-1.1-0.2-1.5-0.6s-0.5-0.9-0.5-1.7v-5.2H319v-1.1h1.5v-2H322z"/>
		<path d="M324.7,1719.1c0-0.8,0.2-1.6,0.5-2.2c0.3-0.7,0.8-1.2,1.4-1.5c0.6-0.4,1.2-0.5,2-0.5c1.2,0,2.1,0.4,2.8,1.2
			s1.1,1.9,1.1,3.2v0.1c0,0.8-0.2,1.6-0.5,2.2c-0.3,0.7-0.8,1.2-1.4,1.5s-1.3,0.5-2,0.5c-1.1,0-2.1-0.4-2.8-1.2s-1.1-1.9-1.1-3.2
			V1719.1z M326.2,1719.3c0,0.9,0.2,1.7,0.7,2.3c0.4,0.6,1,0.9,1.7,0.9c0.7,0,1.3-0.3,1.8-0.9c0.4-0.6,0.6-1.4,0.6-2.4
			c0-0.9-0.2-1.7-0.7-2.3c-0.4-0.6-1-0.9-1.8-0.9c-0.7,0-1.3,0.3-1.7,0.9S326.2,1718.2,326.2,1719.3z"/>
		<path d="M334.2,1712.7c0-0.2,0.1-0.4,0.2-0.6c0.1-0.2,0.4-0.2,0.6-0.2s0.5,0.1,0.6,0.2c0.1,0.2,0.2,0.4,0.2,0.6s-0.1,0.4-0.2,0.6
			c-0.1,0.2-0.4,0.2-0.6,0.2s-0.5-0.1-0.6-0.2C334.3,1713.2,334.2,1713,334.2,1712.7z M335.8,1723.4h-1.4v-8.5h1.4V1723.4z"/>
	</g>
	<g class="st3">
		<path d="M267.5,1738.8c-0.1,1.2-0.6,2.1-1.3,2.8s-1.7,1-3,1c-1.3,0-2.4-0.5-3.2-1.4s-1.2-2.3-1.2-3.9v-1.1c0-1.1,0.2-2,0.6-2.8
			s0.9-1.4,1.6-1.8s1.5-0.6,2.4-0.6c1.2,0,2.2,0.3,2.9,1s1.2,1.6,1.3,2.8H266c-0.1-0.9-0.4-1.6-0.8-2s-1-0.6-1.8-0.6
			c-1,0-1.7,0.4-2.3,1.1s-0.8,1.7-0.8,3v1.1c0,1.2,0.3,2.2,0.8,2.9s1.2,1.1,2.2,1.1c0.8,0,1.5-0.2,1.9-0.6s0.7-1,0.9-2H267.5z"/>
		<path d="M270.2,1731.3l-0.2,2.9h-1l0-3.7h1.2V1731.3z"/>
		<path d="M275.1,1742.6c-1.1,0-2.1-0.4-2.8-1.1s-1.1-1.8-1.1-3v-0.3c0-0.8,0.2-1.6,0.5-2.2s0.8-1.2,1.3-1.5s1.2-0.6,1.9-0.6
			c1.1,0,2,0.4,2.6,1.1s0.9,1.8,0.9,3.1v0.6h-5.7c0,0.8,0.3,1.5,0.7,2s1.1,0.8,1.8,0.8c0.5,0,0.9-0.1,1.3-0.3s0.7-0.5,0.9-0.8
			l0.9,0.7C277.6,1742,276.5,1742.6,275.1,1742.6z M274.9,1735c-0.6,0-1.1,0.2-1.5,0.6s-0.6,1-0.7,1.8h4.2v-0.1
			c0-0.7-0.2-1.3-0.6-1.7S275.5,1735,274.9,1735z"/>
		<path d="M285,1740.2c0-0.4-0.1-0.7-0.4-0.9s-0.8-0.4-1.5-0.6s-1.3-0.3-1.7-0.6s-0.7-0.5-1-0.8s-0.3-0.7-0.3-1.1
			c0-0.7,0.3-1.3,0.9-1.8s1.3-0.7,2.2-0.7c1,0,1.7,0.2,2.3,0.7s0.9,1.1,0.9,1.9h-1.5c0-0.4-0.2-0.7-0.5-1s-0.8-0.4-1.3-0.4
			c-0.5,0-0.9,0.1-1.2,0.3s-0.4,0.5-0.4,0.9c0,0.3,0.1,0.6,0.4,0.8s0.8,0.3,1.5,0.5s1.3,0.4,1.8,0.6s0.8,0.5,1,0.8s0.3,0.7,0.3,1.2
			c0,0.8-0.3,1.4-0.9,1.8s-1.4,0.7-2.4,0.7c-0.7,0-1.3-0.1-1.8-0.4s-0.9-0.6-1.2-1s-0.4-0.9-0.4-1.4h1.4c0,0.5,0.2,0.9,0.6,1.2
			s0.8,0.4,1.4,0.4c0.5,0,1-0.1,1.3-0.3S285,1740.6,285,1740.2z"/>
		<path d="M290.3,1731.9v2h1.6v1.1h-1.6v5.2c0,0.3,0.1,0.6,0.2,0.8c0.1,0.2,0.4,0.3,0.7,0.3c0.2,0,0.4,0,0.7-0.1v1.2
			c-0.4,0.1-0.8,0.2-1.1,0.2c-0.6,0-1.1-0.2-1.5-0.6s-0.5-0.9-0.5-1.7v-5.2h-1.5v-1.1h1.5v-2H290.3z"/>
		<path d="M299.7,1731.1l3.7,9.3l3.7-9.3h1.9v11.4h-1.5v-4.4l0.1-4.8l-3.7,9.2h-1.1l-3.7-9.2l0.1,4.8v4.4h-1.5v-11.4H299.7z"/>
		<path d="M311.5,1731.7c0-0.2,0.1-0.4,0.2-0.6s0.4-0.2,0.6-0.2s0.5,0.1,0.6,0.2s0.2,0.4,0.2,0.6s-0.1,0.4-0.2,0.6s-0.4,0.2-0.6,0.2
			s-0.5-0.1-0.6-0.2S311.5,1732,311.5,1731.7z M313.1,1742.4h-1.4v-8.5h1.4V1742.4z"/>
		<path d="M320.6,1742.4c-0.1-0.2-0.2-0.5-0.2-0.9c-0.7,0.7-1.5,1-2.4,1c-0.8,0-1.5-0.2-2.1-0.7s-0.8-1.1-0.8-1.8
			c0-0.9,0.3-1.6,1-2.1s1.6-0.7,2.8-0.7h1.4v-0.7c0-0.5-0.2-0.9-0.5-1.2s-0.7-0.4-1.3-0.4c-0.5,0-0.9,0.1-1.3,0.4s-0.5,0.6-0.5,0.9
			h-1.5c0-0.4,0.1-0.8,0.4-1.2s0.7-0.7,1.2-0.9s1.1-0.3,1.7-0.3c1,0,1.7,0.2,2.3,0.7s0.8,1.2,0.9,2v3.9c0,0.8,0.1,1.4,0.3,1.9v0.1
			H320.6z M318.2,1741.3c0.5,0,0.9-0.1,1.3-0.4s0.7-0.5,0.9-0.9v-1.7h-1.1c-1.8,0-2.7,0.5-2.7,1.6c0,0.5,0.2,0.8,0.5,1.1
			S317.7,1741.3,318.2,1741.3z"/>
		<path d="M325.4,1734l0,0.9c0.6-0.7,1.5-1.1,2.5-1.1c1.2,0,2,0.5,2.4,1.4c0.3-0.4,0.6-0.7,1.1-1s1-0.4,1.6-0.4c1.9,0,2.8,1,2.8,2.9
			v5.7h-1.4v-5.6c0-0.6-0.1-1.1-0.4-1.4s-0.7-0.4-1.4-0.4c-0.5,0-1,0.2-1.3,0.5s-0.6,0.8-0.6,1.3v5.6h-1.5v-5.5
			c0-1.2-0.6-1.8-1.8-1.8c-0.9,0-1.6,0.4-1.9,1.2v6.2h-1.4v-8.5H325.4z"/>
	</g>
	<g class="st3">
		<path d="M373.9,1665.2h5.4v1.2h-6.9v-11.4h1.5V1665.2z"/>
		<path d="M384.3,1666.6c-1.1,0-2.1-0.4-2.8-1.1s-1.1-1.8-1.1-3v-0.3c0-0.8,0.2-1.6,0.5-2.2s0.8-1.2,1.3-1.5s1.2-0.6,1.9-0.6
			c1.1,0,2,0.4,2.6,1.1s0.9,1.8,0.9,3.1v0.6h-5.7c0,0.8,0.3,1.5,0.7,2s1.1,0.8,1.8,0.8c0.5,0,0.9-0.1,1.3-0.3s0.7-0.5,0.9-0.8
			l0.9,0.7C386.7,1666,385.7,1666.6,384.3,1666.6z M384.1,1659c-0.6,0-1.1,0.2-1.5,0.6s-0.6,1-0.7,1.8h4.2v-0.1
			c0-0.7-0.2-1.3-0.6-1.7S384.7,1659,384.1,1659z"/>
		<path d="M400.3,1662.3c0,1.3-0.3,2.3-0.9,3.1s-1.4,1.2-2.4,1.2c-1,0-1.8-0.3-2.4-1v4.1h-1.4V1658h1.3l0.1,0.9
			c0.6-0.7,1.4-1.1,2.5-1.1c1,0,1.8,0.4,2.4,1.1s0.9,1.8,0.9,3.2V1662.3z M398.9,1662.1c0-1-0.2-1.7-0.6-2.3s-1-0.8-1.7-0.8
			c-0.9,0-1.5,0.4-2,1.2v4c0.4,0.8,1.1,1.2,2,1.2c0.7,0,1.2-0.3,1.7-0.8S398.9,1663.2,398.9,1662.1z"/>
		<path d="M406.3,1659.3c-0.2,0-0.5-0.1-0.7-0.1c-0.9,0-1.6,0.4-1.9,1.2v6h-1.4v-8.5h1.4l0,1c0.5-0.8,1.1-1.1,2-1.1
			c0.3,0,0.5,0,0.6,0.1V1659.3z"/>
		<path d="M410.9,1666.6c-1.1,0-2.1-0.4-2.8-1.1s-1.1-1.8-1.1-3v-0.3c0-0.8,0.2-1.6,0.5-2.2s0.8-1.2,1.3-1.5s1.2-0.6,1.9-0.6
			c1.1,0,2,0.4,2.6,1.1s0.9,1.8,0.9,3.1v0.6h-5.7c0,0.8,0.3,1.5,0.7,2s1.1,0.8,1.8,0.8c0.5,0,0.9-0.1,1.3-0.3s0.7-0.5,0.9-0.8
			l0.9,0.7C413.4,1666,412.4,1666.6,410.9,1666.6z M413.1,1656.6L413.1,1656.6l-1.2,0.1l-1.2-1.3l-1.2,1.3l-1.2,0v-0.1l1.9-2.1h0.9
			L413.1,1656.6z M410.8,1659c-0.6,0-1.1,0.2-1.5,0.6s-0.6,1-0.7,1.8h4.2v-0.1c0-0.7-0.2-1.3-0.6-1.7S411.4,1659,410.8,1659z"/>
		<path d="M417.9,1655.9v2h1.6v1.1h-1.6v5.2c0,0.3,0.1,0.6,0.2,0.8c0.1,0.2,0.4,0.3,0.7,0.3c0.2,0,0.4,0,0.7-0.1v1.2
			c-0.4,0.1-0.8,0.2-1.1,0.2c-0.6,0-1.1-0.2-1.5-0.6s-0.5-0.9-0.5-1.7v-5.2h-1.5v-1.1h1.5v-2H417.9z"/>
		<path d="M424.1,1662.2h-3.8v-1.2h3.8V1662.2z"/>
		<path d="M430.8,1666.4c-0.1-0.2-0.2-0.5-0.2-0.9c-0.7,0.7-1.5,1-2.4,1c-0.8,0-1.5-0.2-2.1-0.7s-0.8-1.1-0.8-1.8
			c0-0.9,0.3-1.6,1-2.1s1.6-0.7,2.8-0.7h1.4v-0.7c0-0.5-0.2-0.9-0.5-1.2s-0.7-0.4-1.3-0.4c-0.5,0-0.9,0.1-1.3,0.4s-0.5,0.6-0.5,0.9
			h-1.5c0-0.4,0.1-0.8,0.4-1.2s0.7-0.7,1.2-0.9s1.1-0.3,1.7-0.3c1,0,1.7,0.2,2.3,0.7s0.8,1.2,0.9,2v3.9c0,0.8,0.1,1.4,0.3,1.9v0.1
			H430.8z M429.8,1656.7l-1.2,0l-2-2.3h1.7L429.8,1656.7z M428.4,1665.3c0.5,0,0.9-0.1,1.3-0.4s0.7-0.5,0.9-0.9v-1.7h-1.1
			c-1.8,0-2.7,0.5-2.7,1.6c0,0.5,0.2,0.8,0.5,1.1S427.9,1665.3,428.4,1665.3z"/>
		<path d="M437.3,1662.2h-3.8v-1.2h3.8V1662.2z"/>
		<path d="M440,1658l0,0.9c0.6-0.7,1.5-1.1,2.5-1.1c1.2,0,2,0.5,2.4,1.4c0.3-0.4,0.6-0.7,1.1-1s1-0.4,1.6-0.4c1.9,0,2.8,1,2.8,2.9
			v5.7h-1.4v-5.6c0-0.6-0.1-1.1-0.4-1.4s-0.7-0.4-1.4-0.4c-0.5,0-1,0.2-1.3,0.5s-0.6,0.8-0.6,1.3v5.6h-1.5v-5.5
			c0-1.2-0.6-1.8-1.8-1.8c-0.9,0-1.6,0.4-1.9,1.2v6.2h-1.4v-8.5H440z"/>
		<path d="M457.9,1666.4c-0.1-0.2-0.2-0.5-0.2-0.9c-0.7,0.7-1.5,1-2.4,1c-0.8,0-1.5-0.2-2.1-0.7s-0.8-1.1-0.8-1.8
			c0-0.9,0.3-1.6,1-2.1s1.6-0.7,2.8-0.7h1.4v-0.7c0-0.5-0.2-0.9-0.5-1.2s-0.7-0.4-1.3-0.4c-0.5,0-0.9,0.1-1.3,0.4s-0.5,0.6-0.5,0.9
			h-1.5c0-0.4,0.1-0.8,0.4-1.2s0.7-0.7,1.2-0.9s1.1-0.3,1.7-0.3c1,0,1.7,0.2,2.3,0.7s0.8,1.2,0.9,2v3.9c0,0.8,0.1,1.4,0.3,1.9v0.1
			H457.9z M455.5,1665.3c0.5,0,0.9-0.1,1.3-0.4s0.7-0.5,0.9-0.9v-1.7h-1.1c-1.8,0-2.7,0.5-2.7,1.6c0,0.5,0.2,0.8,0.5,1.1
			S455,1665.3,455.5,1665.3z"/>
		<path d="M462.8,1658l0,1.1c0.6-0.8,1.5-1.2,2.5-1.2c1.8,0,2.7,1,2.7,3v5.6h-1.4v-5.6c0-0.6-0.1-1.1-0.4-1.4s-0.7-0.4-1.3-0.4
			c-0.5,0-0.9,0.1-1.2,0.4s-0.6,0.6-0.8,1v6h-1.4v-8.5H462.8z"/>
		<path d="M469.9,1662.1c0-1.3,0.3-2.4,0.9-3.1s1.4-1.2,2.4-1.2c1,0,1.8,0.4,2.4,1.1l0.1-0.9h1.3v8.2c0,1.1-0.3,2-1,2.6
			s-1.5,0.9-2.6,0.9c-0.6,0-1.2-0.1-1.8-0.4s-1-0.6-1.3-1.1l0.8-0.9c0.6,0.8,1.4,1.1,2.3,1.1c0.7,0,1.3-0.2,1.6-0.6s0.6-1,0.6-1.7
			v-0.7c-0.6,0.7-1.4,1-2.4,1c-1,0-1.8-0.4-2.4-1.2S469.9,1663.5,469.9,1662.1z M471.3,1662.3c0,1,0.2,1.7,0.6,2.2s0.9,0.8,1.6,0.8
			c0.9,0,1.6-0.4,2-1.2v-3.9c-0.4-0.8-1.1-1.2-2-1.2c-0.7,0-1.3,0.3-1.6,0.8S471.3,1661.2,471.3,1662.3z"/>
		<path d="M482.7,1666.6c-1.1,0-2.1-0.4-2.8-1.1s-1.1-1.8-1.1-3v-0.3c0-0.8,0.2-1.6,0.5-2.2s0.8-1.2,1.3-1.5s1.2-0.6,1.9-0.6
			c1.1,0,2,0.4,2.6,1.1s0.9,1.8,0.9,3.1v0.6h-5.7c0,0.8,0.3,1.5,0.7,2s1.1,0.8,1.8,0.8c0.5,0,0.9-0.1,1.3-0.3s0.7-0.5,0.9-0.8
			l0.9,0.7C485.2,1666,484.1,1666.6,482.7,1666.6z M482.5,1659c-0.6,0-1.1,0.2-1.5,0.6s-0.6,1-0.7,1.8h4.2v-0.1
			c0-0.7-0.2-1.3-0.6-1.7S483.1,1659,482.5,1659z"/>
		<path d="M491.8,1659.3c-0.2,0-0.5-0.1-0.7-0.1c-0.9,0-1.6,0.4-1.9,1.2v6h-1.4v-8.5h1.4l0,1c0.5-0.8,1.1-1.1,2-1.1
			c0.3,0,0.5,0,0.6,0.1V1659.3z"/>
	</g>
	<g class="st3">
		<path d="M371.8,1681.1c0-1.3,0.3-2.4,0.9-3.2s1.4-1.2,2.5-1.2c1,0,1.8,0.3,2.4,1l0.1-0.9h1.3v11.7h-1.4v-4
			c-0.6,0.6-1.4,0.9-2.3,0.9c-1,0-1.8-0.4-2.4-1.2s-0.9-1.8-0.9-3.2V1681.1z M373.2,1681.3c0,1,0.2,1.7,0.6,2.3s1,0.8,1.7,0.8
			c0.9,0,1.5-0.4,2-1.1v-4.1c-0.5-0.7-1.1-1.1-2-1.1c-0.7,0-1.3,0.3-1.7,0.8S373.2,1680.2,373.2,1681.3z"/>
		<path d="M386.5,1684.6c-0.6,0.7-1.4,1-2.5,1c-0.9,0-1.6-0.3-2.1-0.8s-0.7-1.3-0.7-2.3v-5.5h1.4v5.5c0,1.3,0.5,1.9,1.6,1.9
			c1.1,0,1.8-0.4,2.2-1.2v-6.1h1.4v8.5h-1.4L386.5,1684.6z"/>
		<path d="M390.1,1674.7c0-0.2,0.1-0.4,0.2-0.6s0.4-0.2,0.6-0.2s0.5,0.1,0.6,0.2s0.2,0.4,0.2,0.6s-0.1,0.4-0.2,0.6s-0.4,0.2-0.6,0.2
			s-0.5-0.1-0.6-0.2S390.1,1675,390.1,1674.7z M391.6,1685.4h-1.4v-8.5h1.4V1685.4z"/>
		<path d="M402.8,1683.2c0-0.4-0.1-0.7-0.4-0.9s-0.8-0.4-1.5-0.6s-1.3-0.3-1.7-0.6s-0.7-0.5-1-0.8s-0.3-0.7-0.3-1.1
			c0-0.7,0.3-1.3,0.9-1.8s1.3-0.7,2.2-0.7c1,0,1.7,0.2,2.3,0.7s0.9,1.1,0.9,1.9h-1.5c0-0.4-0.2-0.7-0.5-1s-0.8-0.4-1.3-0.4
			c-0.5,0-0.9,0.1-1.2,0.3s-0.4,0.5-0.4,0.9c0,0.3,0.1,0.6,0.4,0.8s0.8,0.3,1.5,0.5s1.3,0.4,1.8,0.6s0.8,0.5,1,0.8s0.3,0.7,0.3,1.2
			c0,0.8-0.3,1.4-0.9,1.8s-1.4,0.7-2.4,0.7c-0.7,0-1.3-0.1-1.8-0.4s-0.9-0.6-1.2-1s-0.4-0.9-0.4-1.4h1.4c0,0.5,0.2,0.9,0.6,1.2
			s0.8,0.4,1.4,0.4c0.5,0,1-0.1,1.3-0.3S402.8,1683.6,402.8,1683.2z"/>
		<path d="M411.4,1685.4c-0.1-0.2-0.2-0.5-0.2-0.9c-0.7,0.7-1.5,1-2.4,1c-0.8,0-1.5-0.2-2.1-0.7s-0.8-1.1-0.8-1.8
			c0-0.9,0.3-1.6,1-2.1s1.6-0.7,2.8-0.7h1.4v-0.7c0-0.5-0.2-0.9-0.5-1.2s-0.7-0.4-1.3-0.4c-0.5,0-0.9,0.1-1.3,0.4s-0.5,0.6-0.5,0.9
			h-1.5c0-0.4,0.1-0.8,0.4-1.2s0.7-0.7,1.2-0.9s1.1-0.3,1.7-0.3c1,0,1.7,0.2,2.3,0.7s0.8,1.2,0.9,2v3.9c0,0.8,0.1,1.4,0.3,1.9v0.1
			H411.4z M409,1684.3c0.5,0,0.9-0.1,1.3-0.4s0.7-0.5,0.9-0.9v-1.7H410c-1.8,0-2.7,0.5-2.7,1.6c0,0.5,0.2,0.8,0.5,1.1
			S408.5,1684.3,409,1684.3z"/>
		<path d="M420.1,1684.6c-0.6,0.7-1.4,1-2.5,1c-0.9,0-1.6-0.3-2.1-0.8s-0.7-1.3-0.7-2.3v-5.5h1.4v5.5c0,1.3,0.5,1.9,1.6,1.9
			c1.1,0,1.8-0.4,2.2-1.2v-6.1h1.4v8.5h-1.4L420.1,1684.6z"/>
		<path d="M426.5,1683.5l2.1-6.5h1.5l-3,8.5h-1.1l-3.1-8.5h1.5L426.5,1683.5z"/>
		<path d="M434.8,1685.6c-1.1,0-2.1-0.4-2.8-1.1s-1.1-1.8-1.1-3v-0.3c0-0.8,0.2-1.6,0.5-2.2s0.8-1.2,1.3-1.5s1.2-0.6,1.9-0.6
			c1.1,0,2,0.4,2.6,1.1s0.9,1.8,0.9,3.1v0.6h-5.7c0,0.8,0.3,1.5,0.7,2s1.1,0.8,1.8,0.8c0.5,0,0.9-0.1,1.3-0.3s0.7-0.5,0.9-0.8
			l0.9,0.7C437.3,1685,436.2,1685.6,434.8,1685.6z M434.6,1678c-0.6,0-1.1,0.2-1.5,0.6s-0.6,1-0.7,1.8h4.2v-0.1
			c0-0.7-0.2-1.3-0.6-1.7S435.3,1678,434.6,1678z"/>
		<path d="M443.4,1681.1c0-1.3,0.3-2.3,0.9-3.1s1.4-1.2,2.4-1.2c1,0,1.8,0.3,2.4,1v-4.4h1.4v12h-1.3l-0.1-0.9
			c-0.6,0.7-1.4,1.1-2.4,1.1c-1,0-1.8-0.4-2.4-1.2s-0.9-1.8-0.9-3.1V1681.1z M444.9,1681.3c0,1,0.2,1.7,0.6,2.2s0.9,0.8,1.6,0.8
			c0.9,0,1.6-0.4,2-1.2v-3.9c-0.4-0.8-1.1-1.2-2-1.2c-0.7,0-1.3,0.3-1.7,0.8S444.9,1680.2,444.9,1681.3z"/>
		<path d="M458,1684.6c-0.6,0.7-1.4,1-2.5,1c-0.9,0-1.6-0.3-2.1-0.8s-0.7-1.3-0.7-2.3v-5.5h1.4v5.5c0,1.3,0.5,1.9,1.6,1.9
			c1.1,0,1.8-0.4,2.2-1.2v-6.1h1.4v8.5H458L458,1684.6z"/>
		<path d="M467.5,1674.9v2h1.6v1.1h-1.6v5.2c0,0.3,0.1,0.6,0.2,0.8c0.1,0.2,0.4,0.3,0.7,0.3c0.2,0,0.4,0,0.7-0.1v1.2
			c-0.4,0.1-0.8,0.2-1.1,0.2c-0.6,0-1.1-0.2-1.5-0.6s-0.5-0.9-0.5-1.7v-5.2h-1.5v-1.1h1.5v-2H467.5z"/>
		<path d="M474.3,1685.6c-1.1,0-2.1-0.4-2.8-1.1s-1.1-1.8-1.1-3v-0.3c0-0.8,0.2-1.6,0.5-2.2s0.8-1.2,1.3-1.5s1.2-0.6,1.9-0.6
			c1.1,0,2,0.4,2.6,1.1s0.9,1.8,0.9,3.1v0.6h-5.7c0,0.8,0.3,1.5,0.7,2s1.1,0.8,1.8,0.8c0.5,0,0.9-0.1,1.3-0.3s0.7-0.5,0.9-0.8
			l0.9,0.7C476.8,1685,475.7,1685.6,474.3,1685.6z M474.1,1678c-0.6,0-1.1,0.2-1.5,0.6s-0.6,1-0.7,1.8h4.2v-0.1
			c0-0.7-0.2-1.3-0.6-1.7S474.7,1678,474.1,1678z"/>
		<path d="M480.6,1677l0,0.9c0.6-0.7,1.5-1.1,2.5-1.1c1.2,0,2,0.5,2.4,1.4c0.3-0.4,0.6-0.7,1.1-1s1-0.4,1.6-0.4c1.9,0,2.8,1,2.8,2.9
			v5.7h-1.4v-5.6c0-0.6-0.1-1.1-0.4-1.4s-0.7-0.4-1.4-0.4c-0.5,0-1,0.2-1.3,0.5s-0.6,0.8-0.6,1.3v5.6h-1.5v-5.5
			c0-1.2-0.6-1.8-1.8-1.8c-0.9,0-1.6,0.4-1.9,1.2v6.2h-1.4v-8.5H480.6z"/>
		<path d="M500.4,1681.3c0,1.3-0.3,2.3-0.9,3.1s-1.4,1.2-2.4,1.2c-1,0-1.8-0.3-2.4-1v4.1h-1.4V1677h1.3l0.1,0.9
			c0.6-0.7,1.4-1.1,2.5-1.1c1,0,1.8,0.4,2.4,1.1s0.9,1.8,0.9,3.2V1681.3z M499,1681.1c0-1-0.2-1.7-0.6-2.3s-1-0.8-1.7-0.8
			c-0.9,0-1.5,0.4-2,1.2v4c0.4,0.8,1.1,1.2,2,1.2c0.7,0,1.2-0.3,1.7-0.8S499,1682.2,499,1681.1z"/>
		<path d="M507.2,1683.2c0-0.4-0.1-0.7-0.4-0.9s-0.8-0.4-1.5-0.6s-1.3-0.3-1.7-0.6s-0.7-0.5-1-0.8s-0.3-0.7-0.3-1.1
			c0-0.7,0.3-1.3,0.9-1.8s1.3-0.7,2.2-0.7c1,0,1.7,0.2,2.3,0.7s0.9,1.1,0.9,1.9h-1.5c0-0.4-0.2-0.7-0.5-1s-0.8-0.4-1.3-0.4
			c-0.5,0-0.9,0.1-1.2,0.3s-0.4,0.5-0.4,0.9c0,0.3,0.1,0.6,0.4,0.8s0.8,0.3,1.5,0.5s1.3,0.4,1.8,0.6s0.8,0.5,1,0.8s0.3,0.7,0.3,1.2
			c0,0.8-0.3,1.4-0.9,1.8s-1.4,0.7-2.4,0.7c-0.7,0-1.3-0.1-1.8-0.4s-0.9-0.6-1.2-1s-0.4-0.9-0.4-1.4h1.4c0,0.5,0.2,0.9,0.6,1.2
			s0.8,0.4,1.4,0.4c0.5,0,1-0.1,1.3-0.3S507.2,1683.6,507.2,1683.2z"/>
	</g>
	<g class="st3">
		<path d="M375.6,1704.6c-1.1,0-2.1-0.4-2.8-1.1s-1.1-1.8-1.1-3v-0.3c0-0.8,0.2-1.6,0.5-2.2s0.8-1.2,1.3-1.5s1.2-0.6,1.9-0.6
			c1.1,0,2,0.4,2.6,1.1s0.9,1.8,0.9,3.1v0.6h-5.7c0,0.8,0.3,1.5,0.7,2s1.1,0.8,1.8,0.8c0.5,0,0.9-0.1,1.3-0.3s0.7-0.5,0.9-0.8
			l0.9,0.7C378.1,1704,377.1,1704.6,375.6,1704.6z M375.5,1697c-0.6,0-1.1,0.2-1.5,0.6s-0.6,1-0.7,1.8h4.2v-0.1
			c0-0.7-0.2-1.3-0.6-1.7S376.1,1697,375.5,1697z"/>
		<path d="M382.6,1693.9v2h1.6v1.1h-1.6v5.2c0,0.3,0.1,0.6,0.2,0.8c0.1,0.2,0.4,0.3,0.7,0.3c0.2,0,0.4,0,0.7-0.1v1.2
			c-0.4,0.1-0.8,0.2-1.1,0.2c-0.6,0-1.1-0.2-1.5-0.6s-0.5-0.9-0.5-1.7v-5.2h-1.5v-1.1h1.5v-2H382.6z"/>
		<path d="M391.8,1693.9v2h1.6v1.1h-1.6v5.2c0,0.3,0.1,0.6,0.2,0.8c0.1,0.2,0.4,0.3,0.7,0.3c0.2,0,0.4,0,0.7-0.1v1.2
			c-0.4,0.1-0.8,0.2-1.1,0.2c-0.6,0-1.1-0.2-1.5-0.6s-0.5-0.9-0.5-1.7v-5.2h-1.5v-1.1h1.5v-2H391.8z"/>
		<path d="M398.5,1704.6c-1.1,0-2.1-0.4-2.8-1.1s-1.1-1.8-1.1-3v-0.3c0-0.8,0.2-1.6,0.5-2.2s0.8-1.2,1.3-1.5s1.2-0.6,1.9-0.6
			c1.1,0,2,0.4,2.6,1.1s0.9,1.8,0.9,3.1v0.6h-5.7c0,0.8,0.3,1.5,0.7,2s1.1,0.8,1.8,0.8c0.5,0,0.9-0.1,1.3-0.3s0.7-0.5,0.9-0.8
			l0.9,0.7C401,1704,400,1704.6,398.5,1704.6z M398.4,1697c-0.6,0-1.1,0.2-1.5,0.6s-0.6,1-0.7,1.8h4.2v-0.1c0-0.7-0.2-1.3-0.6-1.7
			S399,1697,398.4,1697z"/>
		<path d="M411.6,1697.3c-0.2,0-0.5-0.1-0.7-0.1c-0.9,0-1.6,0.4-1.9,1.2v6h-1.4v-8.5h1.4l0,1c0.5-0.8,1.1-1.1,2-1.1
			c0.3,0,0.5,0,0.6,0.1V1697.3z"/>
		<path d="M416.2,1704.6c-1.1,0-2.1-0.4-2.8-1.1s-1.1-1.8-1.1-3v-0.3c0-0.8,0.2-1.6,0.5-2.2s0.8-1.2,1.3-1.5s1.2-0.6,1.9-0.6
			c1.1,0,2,0.4,2.6,1.1s0.9,1.8,0.9,3.1v0.6h-5.7c0,0.8,0.3,1.5,0.7,2s1.1,0.8,1.8,0.8c0.5,0,0.9-0.1,1.3-0.3s0.7-0.5,0.9-0.8
			l0.9,0.7C418.7,1704,417.7,1704.6,416.2,1704.6z M416.1,1697c-0.6,0-1.1,0.2-1.5,0.6s-0.6,1-0.7,1.8h4.2v-0.1
			c0-0.7-0.2-1.3-0.6-1.7S416.7,1697,416.1,1697z M416.8,1692.4h1.8l-2.1,2.3l-1.2,0L416.8,1692.4z"/>
		<path d="M424.6,1703.4c0.5,0,1-0.2,1.4-0.5s0.6-0.7,0.6-1.2h1.4c0,0.5-0.2,0.9-0.5,1.4s-0.7,0.8-1.2,1s-1.1,0.4-1.6,0.4
			c-1.2,0-2.1-0.4-2.7-1.2s-1-1.8-1-3.2v-0.2c0-0.8,0.2-1.6,0.5-2.2s0.7-1.1,1.3-1.5s1.2-0.5,2-0.5c0.9,0,1.7,0.3,2.4,0.9
			s1,1.3,1,2.2h-1.4c0-0.5-0.2-1-0.6-1.3s-0.8-0.5-1.4-0.5c-0.7,0-1.3,0.3-1.7,0.8s-0.6,1.3-0.6,2.3v0.3c0,1,0.2,1.7,0.6,2.2
			S423.9,1703.4,424.6,1703.4z"/>
		<path d="M429.2,1700.1c0-0.8,0.2-1.6,0.5-2.2s0.8-1.2,1.4-1.5s1.2-0.5,2-0.5c1.2,0,2.1,0.4,2.8,1.2s1.1,1.9,1.1,3.2v0.1
			c0,0.8-0.2,1.6-0.5,2.2s-0.8,1.2-1.4,1.5s-1.3,0.5-2,0.5c-1.1,0-2.1-0.4-2.8-1.2s-1.1-1.9-1.1-3.2V1700.1z M430.7,1700.3
			c0,0.9,0.2,1.7,0.7,2.3s1,0.9,1.7,0.9c0.7,0,1.3-0.3,1.8-0.9s0.6-1.4,0.6-2.4c0-0.9-0.2-1.7-0.7-2.3s-1-0.9-1.8-0.9
			c-0.7,0-1.3,0.3-1.7,0.9S430.7,1699.2,430.7,1700.3z"/>
		<path d="M440.1,1696l0,1.1c0.6-0.8,1.5-1.2,2.5-1.2c1.8,0,2.7,1,2.7,3v5.6h-1.4v-5.6c0-0.6-0.1-1.1-0.4-1.4s-0.7-0.4-1.3-0.4
			c-0.5,0-0.9,0.1-1.2,0.4s-0.6,0.6-0.8,1v6h-1.4v-8.5H440.1z"/>
		<path d="M448.3,1704.4v-7.3h-1.3v-1.1h1.3v-0.9c0-0.9,0.2-1.6,0.7-2.1s1.2-0.7,2.1-0.7c0.3,0,0.7,0,1,0.1l-0.1,1.2
			c-0.2,0-0.5-0.1-0.8-0.1c-0.5,0-0.8,0.1-1.1,0.4s-0.4,0.7-0.4,1.2v0.9h1.8v1.1h-1.8v7.3H448.3z"/>
		<path d="M452.7,1700.1c0-0.8,0.2-1.6,0.5-2.2s0.8-1.2,1.4-1.5s1.2-0.5,2-0.5c1.2,0,2.1,0.4,2.8,1.2s1.1,1.9,1.1,3.2v0.1
			c0,0.8-0.2,1.6-0.5,2.2s-0.8,1.2-1.4,1.5s-1.3,0.5-2,0.5c-1.1,0-2.1-0.4-2.8-1.2s-1.1-1.9-1.1-3.2V1700.1z M454.2,1700.3
			c0,0.9,0.2,1.7,0.7,2.3s1,0.9,1.7,0.9c0.7,0,1.3-0.3,1.8-0.9s0.6-1.4,0.6-2.4c0-0.9-0.2-1.7-0.7-2.3s-1-0.9-1.8-0.9
			c-0.7,0-1.3,0.3-1.7,0.9S454.2,1699.2,454.2,1700.3z"/>
		<path d="M466.3,1697.3c-0.2,0-0.5-0.1-0.7-0.1c-0.9,0-1.6,0.4-1.9,1.2v6h-1.4v-8.5h1.4l0,1c0.5-0.8,1.1-1.1,2-1.1
			c0.3,0,0.5,0,0.6,0.1V1697.3z"/>
		<path d="M470,1693.9v2h1.6v1.1H470v5.2c0,0.3,0.1,0.6,0.2,0.8c0.1,0.2,0.4,0.3,0.7,0.3c0.2,0,0.4,0,0.7-0.1v1.2
			c-0.4,0.1-0.8,0.2-1.1,0.2c-0.6,0-1.1-0.2-1.5-0.6s-0.5-0.9-0.5-1.7v-5.2H467v-1.1h1.5v-2H470z"/>
		<path d="M476.8,1704.6c-1.1,0-2.1-0.4-2.8-1.1s-1.1-1.8-1.1-3v-0.3c0-0.8,0.2-1.6,0.5-2.2s0.8-1.2,1.3-1.5s1.2-0.6,1.9-0.6
			c1.1,0,2,0.4,2.6,1.1s0.9,1.8,0.9,3.1v0.6h-5.7c0,0.8,0.3,1.5,0.7,2s1.1,0.8,1.8,0.8c0.5,0,0.9-0.1,1.3-0.3s0.7-0.5,0.9-0.8
			l0.9,0.7C479.2,1704,478.2,1704.6,476.8,1704.6z M476.6,1697c-0.6,0-1.1,0.2-1.5,0.6s-0.6,1-0.7,1.8h4.2v-0.1
			c0-0.7-0.2-1.3-0.6-1.7S477.2,1697,476.6,1697z"/>
	</g>
	<g class="st3">
		<path d="M371.8,1719.1c0-1.3,0.3-2.3,0.9-3.1s1.4-1.2,2.4-1.2c1,0,1.8,0.3,2.4,1v-4.4h1.4v12h-1.3l-0.1-0.9
			c-0.6,0.7-1.4,1.1-2.4,1.1c-1,0-1.8-0.4-2.4-1.2s-0.9-1.8-0.9-3.1V1719.1z M373.2,1719.3c0,1,0.2,1.7,0.6,2.2s0.9,0.8,1.6,0.8
			c0.9,0,1.6-0.4,2-1.2v-3.9c-0.4-0.8-1.1-1.2-2-1.2c-0.7,0-1.3,0.3-1.7,0.8S373.2,1718.2,373.2,1719.3z"/>
		<path d="M386.4,1723.4c-0.1-0.2-0.2-0.5-0.2-0.9c-0.7,0.7-1.5,1-2.4,1c-0.8,0-1.5-0.2-2.1-0.7s-0.8-1.1-0.8-1.8
			c0-0.9,0.3-1.6,1-2.1s1.6-0.7,2.8-0.7h1.4v-0.7c0-0.5-0.2-0.9-0.5-1.2s-0.7-0.4-1.3-0.4c-0.5,0-0.9,0.1-1.3,0.4s-0.5,0.6-0.5,0.9
			h-1.5c0-0.4,0.1-0.8,0.4-1.2s0.7-0.7,1.2-0.9s1.1-0.3,1.7-0.3c1,0,1.7,0.2,2.3,0.7s0.8,1.2,0.9,2v3.9c0,0.8,0.1,1.4,0.3,1.9v0.1
			H386.4z M384,1722.3c0.5,0,0.9-0.1,1.3-0.4s0.7-0.5,0.9-0.9v-1.7H385c-1.8,0-2.7,0.5-2.7,1.6c0,0.5,0.2,0.8,0.5,1.1
			S383.5,1722.3,384,1722.3z"/>
		<path d="M391.2,1715l0,1.1c0.6-0.8,1.5-1.2,2.5-1.2c1.8,0,2.7,1,2.7,3v5.6h-1.4v-5.6c0-0.6-0.1-1.1-0.4-1.4s-0.7-0.4-1.3-0.4
			c-0.5,0-0.9,0.1-1.2,0.4s-0.6,0.6-0.8,1v6h-1.4v-8.5H391.2z"/>
		<path d="M403.6,1721.2c0-0.4-0.1-0.7-0.4-0.9s-0.8-0.4-1.5-0.6s-1.3-0.3-1.7-0.6s-0.7-0.5-1-0.8s-0.3-0.7-0.3-1.1
			c0-0.7,0.3-1.3,0.9-1.8s1.3-0.7,2.2-0.7c1,0,1.7,0.2,2.3,0.7s0.9,1.1,0.9,1.9h-1.5c0-0.4-0.2-0.7-0.5-1s-0.8-0.4-1.3-0.4
			c-0.5,0-0.9,0.1-1.2,0.3s-0.4,0.5-0.4,0.9c0,0.3,0.1,0.6,0.4,0.8s0.8,0.3,1.5,0.5s1.3,0.4,1.8,0.6s0.8,0.5,1,0.8s0.3,0.7,0.3,1.2
			c0,0.8-0.3,1.4-0.9,1.8s-1.4,0.7-2.4,0.7c-0.7,0-1.3-0.1-1.8-0.4s-0.9-0.6-1.2-1s-0.4-0.9-0.4-1.4h1.4c0,0.5,0.2,0.9,0.6,1.2
			s0.8,0.4,1.4,0.4c0.5,0,1-0.1,1.3-0.3S403.6,1721.6,403.6,1721.2z"/>
		<path d="M412.9,1712.9v2h1.6v1.1h-1.6v5.2c0,0.3,0.1,0.6,0.2,0.8c0.1,0.2,0.4,0.3,0.7,0.3c0.2,0,0.4,0,0.7-0.1v1.2
			c-0.4,0.1-0.8,0.2-1.1,0.2c-0.6,0-1.1-0.2-1.5-0.6s-0.5-0.9-0.5-1.7v-5.2h-1.5v-1.1h1.5v-2H412.9z"/>
		<path d="M421.4,1723.4c-0.1-0.2-0.2-0.5-0.2-0.9c-0.7,0.7-1.5,1-2.4,1c-0.8,0-1.5-0.2-2.1-0.7s-0.8-1.1-0.8-1.8
			c0-0.9,0.3-1.6,1-2.1s1.6-0.7,2.8-0.7h1.4v-0.7c0-0.5-0.2-0.9-0.5-1.2s-0.7-0.4-1.3-0.4c-0.5,0-0.9,0.1-1.3,0.4s-0.5,0.6-0.5,0.9
			h-1.5c0-0.4,0.1-0.8,0.4-1.2s0.7-0.7,1.2-0.9s1.1-0.3,1.7-0.3c1,0,1.7,0.2,2.3,0.7s0.8,1.2,0.9,2v3.9c0,0.8,0.1,1.4,0.3,1.9v0.1
			H421.4z M419,1722.3c0.5,0,0.9-0.1,1.3-0.4s0.7-0.5,0.9-0.9v-1.7H420c-1.8,0-2.7,0.5-2.7,1.6c0,0.5,0.2,0.8,0.5,1.1
			S418.5,1722.3,419,1722.3z"/>
		<path d="M433.7,1721.2c0-0.4-0.1-0.7-0.4-0.9s-0.8-0.4-1.5-0.6s-1.3-0.3-1.7-0.6s-0.7-0.5-1-0.8s-0.3-0.7-0.3-1.1
			c0-0.7,0.3-1.3,0.9-1.8s1.3-0.7,2.2-0.7c1,0,1.7,0.2,2.3,0.7s0.9,1.1,0.9,1.9h-1.5c0-0.4-0.2-0.7-0.5-1s-0.8-0.4-1.3-0.4
			c-0.5,0-0.9,0.1-1.2,0.3s-0.4,0.5-0.4,0.9c0,0.3,0.1,0.6,0.4,0.8s0.8,0.3,1.5,0.5s1.3,0.4,1.8,0.6s0.8,0.5,1,0.8s0.3,0.7,0.3,1.2
			c0,0.8-0.3,1.4-0.9,1.8s-1.4,0.7-2.4,0.7c-0.7,0-1.3-0.1-1.8-0.4s-0.9-0.6-1.2-1s-0.4-0.9-0.4-1.4h1.4c0,0.5,0.2,0.9,0.6,1.2
			s0.8,0.4,1.4,0.4c0.5,0,1-0.1,1.3-0.3S433.7,1721.6,433.7,1721.2z"/>
		<path d="M440.6,1723.6c-1.1,0-2.1-0.4-2.8-1.1s-1.1-1.8-1.1-3v-0.3c0-0.8,0.2-1.6,0.5-2.2s0.8-1.2,1.3-1.5s1.2-0.6,1.9-0.6
			c1.1,0,2,0.4,2.6,1.1s0.9,1.8,0.9,3.1v0.6h-5.7c0,0.8,0.3,1.5,0.7,2s1.1,0.8,1.8,0.8c0.5,0,0.9-0.1,1.3-0.3s0.7-0.5,0.9-0.8
			l0.9,0.7C443,1723,442,1723.6,440.6,1723.6z M440.4,1716c-0.6,0-1.1,0.2-1.5,0.6s-0.6,1-0.7,1.8h4.2v-0.1c0-0.7-0.2-1.3-0.6-1.7
			S441,1716,440.4,1716z"/>
		<path d="M446.9,1715l0,0.9c0.6-0.7,1.5-1.1,2.5-1.1c1.2,0,2,0.5,2.4,1.4c0.3-0.4,0.6-0.7,1.1-1s1-0.4,1.6-0.4c1.9,0,2.8,1,2.8,2.9
			v5.7h-1.4v-5.6c0-0.6-0.1-1.1-0.4-1.4s-0.7-0.4-1.4-0.4c-0.5,0-1,0.2-1.3,0.5s-0.6,0.8-0.6,1.3v5.6h-1.5v-5.5
			c0-1.2-0.6-1.8-1.8-1.8c-0.9,0-1.6,0.4-1.9,1.2v6.2h-1.4v-8.5H446.9z"/>
		<path d="M464.8,1723.4c-0.1-0.2-0.2-0.5-0.2-0.9c-0.7,0.7-1.5,1-2.4,1c-0.8,0-1.5-0.2-2.1-0.7s-0.8-1.1-0.8-1.8
			c0-0.9,0.3-1.6,1-2.1s1.6-0.7,2.8-0.7h1.4v-0.7c0-0.5-0.2-0.9-0.5-1.2s-0.7-0.4-1.3-0.4c-0.5,0-0.9,0.1-1.3,0.4s-0.5,0.6-0.5,0.9
			h-1.5c0-0.4,0.1-0.8,0.4-1.2s0.7-0.7,1.2-0.9s1.1-0.3,1.7-0.3c1,0,1.7,0.2,2.3,0.7s0.8,1.2,0.9,2v3.9c0,0.8,0.1,1.4,0.3,1.9v0.1
			H464.8z M462.4,1722.3c0.5,0,0.9-0.1,1.3-0.4s0.7-0.5,0.9-0.9v-1.7h-1.1c-1.8,0-2.7,0.5-2.7,1.6c0,0.5,0.2,0.8,0.5,1.1
			S461.9,1722.3,462.4,1722.3z"/>
		<path d="M468.3,1712.7c0-0.2,0.1-0.4,0.2-0.6s0.4-0.2,0.6-0.2s0.5,0.1,0.6,0.2s0.2,0.4,0.2,0.6s-0.1,0.4-0.2,0.6s-0.4,0.2-0.6,0.2
			s-0.5-0.1-0.6-0.2S468.3,1713,468.3,1712.7z M469.8,1723.4h-1.4v-8.5h1.4V1723.4z"/>
		<path d="M473.5,1715l0,1.1c0.6-0.8,1.5-1.2,2.5-1.2c1.8,0,2.7,1,2.7,3v5.6h-1.4v-5.6c0-0.6-0.1-1.1-0.4-1.4s-0.7-0.4-1.3-0.4
			c-0.5,0-0.9,0.1-1.2,0.4s-0.6,0.6-0.8,1v6h-1.4v-8.5H473.5z"/>
		<path d="M484.5,1723.6c-1.1,0-2.1-0.4-2.8-1.1s-1.1-1.8-1.1-3v-0.3c0-0.8,0.2-1.6,0.5-2.2s0.8-1.2,1.3-1.5s1.2-0.6,1.9-0.6
			c1.1,0,2,0.4,2.6,1.1s0.9,1.8,0.9,3.1v0.6H482c0,0.8,0.3,1.5,0.7,2s1.1,0.8,1.8,0.8c0.5,0,0.9-0.1,1.3-0.3s0.7-0.5,0.9-0.8
			l0.9,0.7C486.9,1723,485.9,1723.6,484.5,1723.6z M484.3,1716c-0.6,0-1.1,0.2-1.5,0.6s-0.6,1-0.7,1.8h4.2v-0.1
			c0-0.7-0.2-1.3-0.6-1.7S484.9,1716,484.3,1716z"/>
	</g>
	<g class="st3">
		<path d="M380.7,1738.8c-0.1,1.2-0.6,2.1-1.3,2.8s-1.7,1-3,1c-1.3,0-2.4-0.5-3.2-1.4s-1.2-2.3-1.2-3.9v-1.1c0-1.1,0.2-2,0.6-2.8
			s0.9-1.4,1.6-1.8s1.5-0.6,2.4-0.6c1.2,0,2.2,0.3,2.9,1s1.2,1.6,1.3,2.8h-1.5c-0.1-0.9-0.4-1.6-0.8-2s-1-0.6-1.8-0.6
			c-1,0-1.7,0.4-2.3,1.1s-0.8,1.7-0.8,3v1.1c0,1.2,0.3,2.2,0.8,2.9s1.2,1.1,2.2,1.1c0.8,0,1.5-0.2,1.9-0.6s0.7-1,0.9-2H380.7z"/>
		<path d="M383.4,1731.3l-0.2,2.9h-1l0-3.7h1.2V1731.3z"/>
		<path d="M388.4,1742.6c-1.1,0-2.1-0.4-2.8-1.1s-1.1-1.8-1.1-3v-0.3c0-0.8,0.2-1.6,0.5-2.2s0.8-1.2,1.3-1.5s1.2-0.6,1.9-0.6
			c1.1,0,2,0.4,2.6,1.1s0.9,1.8,0.9,3.1v0.6H386c0,0.8,0.3,1.5,0.7,2s1.1,0.8,1.8,0.8c0.5,0,0.9-0.1,1.3-0.3s0.7-0.5,0.9-0.8
			l0.9,0.7C390.9,1742,389.8,1742.6,388.4,1742.6z M388.2,1735c-0.6,0-1.1,0.2-1.5,0.6s-0.6,1-0.7,1.8h4.2v-0.1
			c0-0.7-0.2-1.3-0.6-1.7S388.8,1735,388.2,1735z"/>
		<path d="M398.3,1740.2c0-0.4-0.1-0.7-0.4-0.9s-0.8-0.4-1.5-0.6s-1.3-0.3-1.7-0.6s-0.7-0.5-1-0.8s-0.3-0.7-0.3-1.1
			c0-0.7,0.3-1.3,0.9-1.8s1.3-0.7,2.2-0.7c1,0,1.7,0.2,2.3,0.7s0.9,1.1,0.9,1.9h-1.5c0-0.4-0.2-0.7-0.5-1s-0.8-0.4-1.3-0.4
			c-0.5,0-0.9,0.1-1.2,0.3s-0.4,0.5-0.4,0.9c0,0.3,0.1,0.6,0.4,0.8s0.8,0.3,1.5,0.5s1.3,0.4,1.8,0.6s0.8,0.5,1,0.8s0.3,0.7,0.3,1.2
			c0,0.8-0.3,1.4-0.9,1.8s-1.4,0.7-2.4,0.7c-0.7,0-1.3-0.1-1.8-0.4s-0.9-0.6-1.2-1s-0.4-0.9-0.4-1.4h1.4c0,0.5,0.2,0.9,0.6,1.2
			s0.8,0.4,1.4,0.4c0.5,0,1-0.1,1.3-0.3S398.3,1740.6,398.3,1740.2z"/>
		<path d="M403.6,1731.9v2h1.6v1.1h-1.6v5.2c0,0.3,0.1,0.6,0.2,0.8c0.1,0.2,0.4,0.3,0.7,0.3c0.2,0,0.4,0,0.7-0.1v1.2
			c-0.4,0.1-0.8,0.2-1.1,0.2c-0.6,0-1.1-0.2-1.5-0.6s-0.5-0.9-0.5-1.7v-5.2h-1.5v-1.1h1.5v-2H403.6z"/>
		<path d="M414.5,1736.8l3-5.7h1.7l-3.9,7.1v4.2h-1.5v-4.2l-3.9-7.1h1.7L414.5,1736.8z"/>
		<path d="M425.3,1741.6c-0.6,0.7-1.4,1-2.5,1c-0.9,0-1.6-0.3-2.1-0.8s-0.7-1.3-0.7-2.3v-5.5h1.4v5.5c0,1.3,0.5,1.9,1.6,1.9
			c1.1,0,1.8-0.4,2.2-1.2v-6.1h1.4v8.5h-1.4L425.3,1741.6z"/>
		<path d="M430.3,1734l0,0.9c0.6-0.7,1.5-1.1,2.5-1.1c1.2,0,2,0.5,2.4,1.4c0.3-0.4,0.6-0.7,1.1-1s1-0.4,1.6-0.4c1.9,0,2.8,1,2.8,2.9
			v5.7h-1.4v-5.6c0-0.6-0.1-1.1-0.4-1.4s-0.7-0.4-1.4-0.4c-0.5,0-1,0.2-1.3,0.5s-0.6,0.8-0.6,1.3v5.6h-1.5v-5.5
			c0-1.2-0.6-1.8-1.8-1.8c-0.9,0-1.6,0.4-1.9,1.2v6.2h-1.4v-8.5H430.3z"/>
		<path d="M444.3,1734l0,0.9c0.6-0.7,1.5-1.1,2.5-1.1c1.2,0,2,0.5,2.4,1.4c0.3-0.4,0.6-0.7,1.1-1s1-0.4,1.6-0.4c1.9,0,2.8,1,2.8,2.9
			v5.7h-1.4v-5.6c0-0.6-0.1-1.1-0.4-1.4s-0.7-0.4-1.4-0.4c-0.5,0-1,0.2-1.3,0.5s-0.6,0.8-0.6,1.3v5.6h-1.5v-5.5
			c0-1.2-0.6-1.8-1.8-1.8c-0.9,0-1.6,0.4-1.9,1.2v6.2h-1.4v-8.5H444.3z"/>
		<path d="M459.7,1740.3l2-6.3h1.5l-3.4,9.8c-0.5,1.4-1.4,2.1-2.5,2.1l-0.3,0l-0.5-0.1v-1.2l0.4,0c0.5,0,0.9-0.1,1.1-0.3
			s0.5-0.6,0.7-1.1l0.3-0.9l-3-8.4h1.6L459.7,1740.3z"/>
	</g>
</g>
</svg>
