<?xml version="1.0" encoding="utf-8"?>
<!-- Generator: Adobe Illustrator 25.4.1, SVG Export Plug-In . SVG Version: 6.00 Build 0)  -->
<svg version="1.1" id="Calque_1" xmlns="http://www.w3.org/2000/svg" xmlns:xlink="http://www.w3.org/1999/xlink" x="0px" y="0px"
	 viewBox="0 0 387 486.7" style="enable-background:new 0 0 387 486.7;" xml:space="preserve">
<style type="text/css">
	.st0{fill:#F8C618;}
	.st1{enable-background:new    ;}
	.st2{fill:none;stroke:#1D1D1B;stroke-width:4;stroke-miterlimit:10;}
</style>
<g id="_2" transform="translate(-567 -1367)">
	<path id="Rectangle_18" class="st0" d="M674,1413.7h200c44.2,0,80,35.8,80,80v280c0,44.2-35.8,80-80,80H674c-44.2,0-80-35.8-80-80
		v-280C594,1449.5,629.8,1413.7,674,1413.7z"/>
	<g class="st1">
		<path d="M675.1,1414.3c0,10.5-3.1,19.2-9.3,26.2c-7,7.8-17.2,13.1-30.6,15.7c0,2.5,1.1,3.7,3.3,3.7c3.9,0,8.7-1.2,14.4-3.7
			c5.7-2.5,10.1-5.4,13.2-8.8c6.2,6.2,9.3,14.3,9.3,24.5c0,10.1-2.9,18.1-8.7,23.9h-87.8c-5-7.5-7.5-15.8-7.5-24.9
			s1.8-16.7,5.3-22.9c12.8-2.5,24.4-7,34.9-13.6c10.4-6.6,15.6-13.5,15.6-20.9c0-2-0.4-3.5-1.3-4.8c-0.9-1.2-2.1-1.9-3.7-1.9
			c-3.2,0-4.8,1.7-4.8,5c0,3.4,1.1,5.8,3.4,7.4c-3.2,4.8-8.1,9.1-14.7,13.1c-6.6,4-13.2,6.8-19.5,8.6c-11.6-7.7-17.4-18.1-17.4-31.2
			s5.2-23.5,15.5-31.2c9.6-7.2,22-10.7,37.1-10.7c15.1,0,27.6,4,37.5,11.9C669.8,1388.4,675.1,1399.9,675.1,1414.3z"/>
	</g>
	<g id="Groupe_15" transform="translate(3494.02 -2267.736)">
		<path id="Tracé_49" class="st2" d="M-2668.1,3772.7c-13.3,5.5-56.7,13.4-56.7,13.4l-41-14.5"/>
		<path id="Tracé_50" class="st2" d="M-2766.3,3797.3c0,11.2,1.2,22.4,3.5,33.4c31.7,20.8,34.3,20.8,34.3,20.8s47.3-8.3,57.7-20.8
			c3-18.1,4.1-26.7,4.1-35.9"/>
		<line id="Ligne_12" class="st2" x1="-2728.4" y1="3851.5" x2="-2725.8" y2="3787.9"/>
		<path id="Tracé_51" class="st2" d="M-2736.1,3761.9l-8.1,0.7l-37.1,11.2l15.5-2.1l30.3-9.1"/>
		<path id="Tracé_52" class="st2" d="M-2764.3,3772.7l-17.6,17.6l41.5,14.9l14.6-17.3"/>
		<ellipse id="Ellipse_4" class="st2" cx="-2716.4" cy="3743.7" rx="26" ry="27.8"/>
		<path id="Tracé_53" class="st2" d="M-2724.8,3786.2l10.5,23.8l56.2-17.8l-10-19.4l-29.8-9.4"/>
	</g>
	<g class="st1">
		<path d="M696.4,1613c-0.1,1.8-0.8,3.3-2,4.3s-2.8,1.6-4.8,1.6c-2.2,0-3.9-0.7-5.2-2.2s-1.9-3.5-1.9-6.1v-1c0-1.6,0.3-3.1,0.9-4.3
			s1.4-2.2,2.5-2.9s2.3-1,3.7-1c2,0,3.6,0.5,4.8,1.6s1.9,2.5,2.1,4.4h-3.5c-0.1-1.1-0.4-1.9-0.9-2.4s-1.3-0.7-2.4-0.7
			c-1.2,0-2,0.4-2.6,1.3s-0.9,2.1-0.9,3.9v1.3c0,1.8,0.3,3.2,0.8,4s1.4,1.3,2.6,1.3c1.1,0,1.9-0.2,2.4-0.7s0.8-1.3,0.9-2.3H696.4z"
			/>
		<path d="M701.8,1607.4c0.9-1.1,2-1.6,3.4-1.6c2.8,0,4.1,1.6,4.2,4.8v8.1H706v-8c0-0.7-0.2-1.3-0.5-1.6s-0.8-0.5-1.6-0.5
			c-1,0-1.7,0.4-2.2,1.1v9h-3.4v-18h3.4V1607.4z"/>
		<path d="M711.4,1612.3c0-1.3,0.2-2.4,0.7-3.4s1.2-1.7,2.1-2.3s2-0.8,3.2-0.8c1.7,0,3.1,0.5,4.2,1.6s1.7,2.5,1.8,4.3l0,0.9
			c0,1.9-0.5,3.5-1.6,4.7s-2.5,1.8-4.4,1.8s-3.3-0.6-4.4-1.8s-1.6-2.8-1.6-4.8V1612.3z M714.8,1612.5c0,1.2,0.2,2.1,0.7,2.8
			c0.5,0.6,1.1,1,1.9,1c0.8,0,1.5-0.3,1.9-0.9c0.5-0.6,0.7-1.6,0.7-3c0-1.2-0.2-2.1-0.7-2.7s-1.1-1-1.9-1c-0.8,0-1.5,0.3-1.9,1
			S714.8,1611.2,714.8,1612.5z"/>
		<path d="M725.5,1602.8c0-0.5,0.2-0.9,0.5-1.3s0.8-0.5,1.4-0.5c0.6,0,1,0.2,1.4,0.5s0.5,0.7,0.5,1.3c0,0.5-0.2,0.9-0.5,1.3
			s-0.8,0.5-1.4,0.5s-1-0.2-1.4-0.5S725.5,1603.3,725.5,1602.8z M729.1,1618.7h-3.4v-12.7h3.4V1618.7z"/>
		<path d="M738.7,1615.2c0-0.4-0.2-0.7-0.6-1s-1.1-0.5-2-0.6c-3-0.6-4.5-1.9-4.5-3.8c0-1.1,0.5-2.1,1.4-2.8s2.2-1.1,3.7-1.1
			c1.6,0,2.9,0.4,3.9,1.1s1.4,1.7,1.4,3h-3.4c0-0.5-0.2-0.9-0.5-1.2s-0.8-0.5-1.5-0.5c-0.6,0-1,0.1-1.3,0.4s-0.5,0.6-0.5,1
			c0,0.4,0.2,0.7,0.5,0.9s1,0.4,1.8,0.6s1.6,0.4,2.1,0.6c1.8,0.7,2.7,1.8,2.7,3.4c0,1.2-0.5,2.1-1.5,2.8s-2.3,1.1-3.8,1.1
			c-1.1,0-2-0.2-2.8-0.6s-1.5-0.9-1.9-1.6s-0.7-1.4-0.7-2.1h3.2c0,0.6,0.3,1.1,0.7,1.4s1,0.5,1.7,0.5c0.6,0,1.1-0.1,1.5-0.4
			S738.7,1615.6,738.7,1615.2z"/>
		<path d="M744.2,1602.8c0-0.5,0.2-0.9,0.5-1.3s0.8-0.5,1.4-0.5c0.6,0,1,0.2,1.4,0.5s0.5,0.7,0.5,1.3c0,0.5-0.2,0.9-0.5,1.3
			s-0.8,0.5-1.4,0.5s-1-0.2-1.4-0.5S744.2,1603.3,744.2,1602.8z M747.8,1618.7h-3.4v-12.7h3.4V1618.7z"/>
		<path d="M757.4,1615.2c0-0.4-0.2-0.7-0.6-1s-1.1-0.5-2-0.6c-3-0.6-4.5-1.9-4.5-3.8c0-1.1,0.5-2.1,1.4-2.8s2.2-1.1,3.7-1.1
			c1.6,0,2.9,0.4,3.9,1.1s1.4,1.7,1.4,3h-3.4c0-0.5-0.2-0.9-0.5-1.2s-0.8-0.5-1.5-0.5c-0.6,0-1,0.1-1.3,0.4s-0.5,0.6-0.5,1
			c0,0.4,0.2,0.7,0.5,0.9s1,0.4,1.8,0.6s1.6,0.4,2.1,0.6c1.8,0.7,2.7,1.8,2.7,3.4c0,1.2-0.5,2.1-1.5,2.8s-2.3,1.1-3.8,1.1
			c-1.1,0-2-0.2-2.8-0.6s-1.5-0.9-1.9-1.6s-0.7-1.4-0.7-2.1h3.2c0,0.6,0.3,1.1,0.7,1.4s1,0.5,1.7,0.5c0.6,0,1.1-0.1,1.5-0.4
			S757.4,1615.6,757.4,1615.2z"/>
		<path d="M772.9,1602.9v3.1h2.2v2.5h-2.2v6.3c0,0.5,0.1,0.8,0.3,1s0.5,0.3,1,0.3c0.4,0,0.7,0,1-0.1v2.6c-0.7,0.2-1.3,0.3-2.1,0.3
			c-2.4,0-3.6-1.2-3.6-3.6v-6.8h-1.9v-2.5h1.9v-3.1H772.9z"/>
		<path d="M782.8,1619c-1.9,0-3.4-0.6-4.5-1.7s-1.8-2.7-1.8-4.6v-0.3c0-1.3,0.2-2.4,0.7-3.4s1.2-1.8,2.1-2.3s1.9-0.8,3.1-0.8
			c1.7,0,3.1,0.5,4.1,1.6s1.5,2.6,1.5,4.7v1.4H780c0.1,0.8,0.4,1.5,1,2s1.2,0.8,2.1,0.8c1.3,0,2.3-0.5,3.1-1.4l1.7,1.9
			c-0.5,0.7-1.2,1.3-2.1,1.7S783.9,1619,782.8,1619z M782.4,1608.5c-0.7,0-1.2,0.2-1.6,0.7s-0.7,1.1-0.8,2h4.7v-0.3
			c0-0.8-0.2-1.3-0.6-1.7S783.2,1608.5,782.4,1608.5z"/>
		<path d="M796.8,1615.2c0-0.4-0.2-0.7-0.6-1s-1.1-0.5-2-0.6c-3-0.6-4.5-1.9-4.5-3.8c0-1.1,0.5-2.1,1.4-2.8s2.2-1.1,3.7-1.1
			c1.6,0,2.9,0.4,3.9,1.1s1.4,1.7,1.4,3h-3.4c0-0.5-0.2-0.9-0.5-1.2s-0.8-0.5-1.5-0.5c-0.6,0-1,0.1-1.3,0.4s-0.5,0.6-0.5,1
			c0,0.4,0.2,0.7,0.5,0.9s1,0.4,1.8,0.6s1.6,0.4,2.1,0.6c1.8,0.7,2.7,1.8,2.7,3.4c0,1.2-0.5,2.1-1.5,2.8s-2.3,1.1-3.8,1.1
			c-1.1,0-2-0.2-2.8-0.6s-1.5-0.9-1.9-1.6s-0.7-1.4-0.7-2.1h3.2c0,0.6,0.3,1.1,0.7,1.4s1,0.5,1.7,0.5c0.6,0,1.1-0.1,1.5-0.4
			S796.8,1615.6,796.8,1615.2z"/>
		<path d="M819.7,1612.5c0,2-0.4,3.5-1.3,4.7s-2.1,1.8-3.6,1.8c-1.3,0-2.3-0.4-3.1-1.3v6h-3.4v-17.6h3.1l0.1,1.2
			c0.8-1,1.9-1.5,3.2-1.5c1.6,0,2.8,0.6,3.6,1.7s1.3,2.8,1.3,4.8V1612.5z M816.3,1612.3c0-1.2-0.2-2.1-0.6-2.7s-1-1-1.8-1
			c-1.1,0-1.8,0.4-2.2,1.2v5.2c0.4,0.8,1.2,1.3,2.2,1.3C815.5,1616.2,816.3,1614.9,816.3,1612.3z"/>
		<path d="M825.4,1618.7H822v-18h3.4V1618.7z"/>
		<path d="M835.5,1618.7c-0.2-0.3-0.3-0.7-0.3-1.1c-0.8,0.9-1.9,1.4-3.2,1.4c-1.2,0-2.3-0.4-3.1-1.1s-1.2-1.6-1.2-2.7
			c0-1.3,0.5-2.4,1.5-3.1s2.4-1.1,4.3-1.1h1.6v-0.7c0-0.6-0.2-1.1-0.5-1.4s-0.8-0.5-1.4-0.5c-0.6,0-1,0.1-1.3,0.4s-0.5,0.6-0.5,1.1
			h-3.4c0-0.7,0.2-1.4,0.7-2s1.1-1.1,1.9-1.5s1.8-0.5,2.8-0.5c1.6,0,2.8,0.4,3.7,1.2s1.4,1.9,1.4,3.3v5.5c0,1.2,0.2,2.1,0.5,2.7v0.2
			H835.5z M832.7,1616.4c0.5,0,1-0.1,1.4-0.3s0.7-0.5,0.9-0.9v-2.2h-1.3c-1.7,0-2.6,0.6-2.7,1.8l0,0.2c0,0.4,0.1,0.8,0.4,1
			S832.2,1616.4,832.7,1616.4z"/>
		<path d="M845.1,1602.9v3.1h2.2v2.5h-2.2v6.3c0,0.5,0.1,0.8,0.3,1s0.5,0.3,1,0.3c0.4,0,0.7,0,1-0.1v2.6c-0.7,0.2-1.3,0.3-2.1,0.3
			c-2.4,0-3.6-1.2-3.6-3.6v-6.8h-1.9v-2.5h1.9v-3.1H845.1z"/>
		<path d="M856,1615.2c0-0.4-0.2-0.7-0.6-1s-1.1-0.5-2-0.6c-3-0.6-4.5-1.9-4.5-3.8c0-1.1,0.5-2.1,1.4-2.8s2.2-1.1,3.7-1.1
			c1.6,0,2.9,0.4,3.9,1.1s1.4,1.7,1.4,3h-3.4c0-0.5-0.2-0.9-0.5-1.2s-0.8-0.5-1.5-0.5c-0.6,0-1,0.1-1.3,0.4s-0.5,0.6-0.5,1
			c0,0.4,0.2,0.7,0.5,0.9s1,0.4,1.8,0.6s1.6,0.4,2.1,0.6c1.8,0.7,2.7,1.8,2.7,3.4c0,1.2-0.5,2.1-1.5,2.8s-2.3,1.1-3.8,1.1
			c-1.1,0-2-0.2-2.8-0.6s-1.5-0.9-1.9-1.6s-0.7-1.4-0.7-2.1h3.2c0,0.6,0.3,1.1,0.7,1.4s1,0.5,1.7,0.5c0.6,0,1.1-0.1,1.5-0.4
			S856,1615.6,856,1615.2z"/>
	</g>
	<g class="st1">
		<path d="M644.7,1653.5l4.6,11.6l4.6-11.6h2.4v14.2h-1.9v-5.5l0.2-6l-4.7,11.5h-1.4l-4.7-11.5l0.2,5.9v5.5h-1.9v-14.2H644.7z"/>
		<path d="M665.9,1667.7c-0.1-0.2-0.2-0.6-0.3-1.1c-0.8,0.9-1.8,1.3-3,1.3c-1,0-1.9-0.3-2.6-0.9s-1-1.3-1-2.2c0-1.1,0.4-2,1.3-2.6
			s2-0.9,3.5-0.9h1.8v-0.8c0-0.6-0.2-1.1-0.6-1.5s-0.9-0.6-1.7-0.6c-0.6,0-1.2,0.2-1.6,0.5s-0.7,0.7-0.7,1.2h-1.8
			c0-0.5,0.2-1,0.6-1.5s0.9-0.9,1.5-1.2s1.3-0.4,2.1-0.4c1.2,0,2.2,0.3,2.9,0.9s1,1.4,1.1,2.5v4.9c0,1,0.1,1.7,0.4,2.3v0.2H665.9z
			 M662.9,1666.4c0.6,0,1.1-0.1,1.6-0.4s0.9-0.7,1.1-1.1v-2.2h-1.4c-2.2,0-3.3,0.6-3.3,1.9c0,0.6,0.2,1,0.6,1.3
			S662.3,1666.4,662.9,1666.4z"/>
		<path d="M669.9,1662.4c0-1.6,0.4-3,1.1-3.9s1.8-1.5,3-1.5c1.3,0,2.3,0.5,3,1.4l0.1-1.2h1.7v10.3c0,1.4-0.4,2.4-1.2,3.2
			s-1.9,1.2-3.3,1.2c-0.8,0-1.5-0.2-2.2-0.5s-1.3-0.8-1.7-1.3l0.9-1.1c0.8,1,1.7,1.4,2.8,1.4c0.9,0,1.6-0.2,2.1-0.7s0.7-1.2,0.7-2.1
			v-0.9c-0.7,0.8-1.7,1.2-3,1.2c-1.2,0-2.2-0.5-3-1.5S669.9,1664.1,669.9,1662.4z M671.7,1662.6c0,1.2,0.2,2.1,0.7,2.8s1.2,1,2.1,1
			c1.1,0,2-0.5,2.5-1.6v-4.8c-0.6-1-1.4-1.5-2.5-1.5c-0.9,0-1.6,0.3-2.1,1S671.7,1661.2,671.7,1662.6z"/>
		<path d="M688,1667.7c-0.1-0.2-0.2-0.6-0.3-1.1c-0.8,0.9-1.8,1.3-3,1.3c-1,0-1.9-0.3-2.6-0.9s-1-1.3-1-2.2c0-1.1,0.4-2,1.3-2.6
			s2-0.9,3.5-0.9h1.8v-0.8c0-0.6-0.2-1.1-0.6-1.5s-0.9-0.6-1.7-0.6c-0.6,0-1.2,0.2-1.6,0.5s-0.7,0.7-0.7,1.2h-1.8
			c0-0.5,0.2-1,0.6-1.5s0.9-0.9,1.5-1.2s1.3-0.4,2.1-0.4c1.2,0,2.2,0.3,2.9,0.9s1,1.4,1.1,2.5v4.9c0,1,0.1,1.7,0.4,2.3v0.2H688z
			 M685,1666.4c0.6,0,1.1-0.1,1.6-0.4s0.9-0.7,1.1-1.1v-2.2h-1.4c-2.2,0-3.3,0.6-3.3,1.9c0,0.6,0.2,1,0.6,1.3
			S684.4,1666.4,685,1666.4z"/>
		<path d="M694.1,1666.3h6.2v1.5h-8.4v-1.3l5.8-7.7H692v-1.5h8v1.3L694.1,1666.3z"/>
		<path d="M702.3,1654.4c0-0.3,0.1-0.5,0.3-0.7s0.4-0.3,0.8-0.3s0.6,0.1,0.8,0.3s0.3,0.4,0.3,0.7s-0.1,0.5-0.3,0.7s-0.4,0.3-0.8,0.3
			s-0.6-0.1-0.8-0.3S702.3,1654.7,702.3,1654.4z M704.3,1667.7h-1.8v-10.6h1.8V1667.7z"/>
		<path d="M708.9,1657.2l0.1,1.3c0.8-1,1.9-1.5,3.2-1.5c2.2,0,3.4,1.3,3.4,3.8v7h-1.8v-7c0-0.8-0.2-1.3-0.5-1.7s-0.9-0.5-1.6-0.5
			c-0.6,0-1.1,0.2-1.5,0.5s-0.8,0.7-1,1.2v7.5h-1.8v-10.6H708.9z"/>
		<path d="M722.6,1667.9c-1.4,0-2.6-0.5-3.5-1.4s-1.3-2.2-1.3-3.8v-0.3c0-1,0.2-2,0.6-2.8s1-1.5,1.7-1.9s1.5-0.7,2.3-0.7
			c1.4,0,2.4,0.5,3.2,1.4s1.1,2.2,1.1,3.9v0.8h-7.2c0,1,0.3,1.9,0.9,2.5s1.3,1,2.2,1c0.6,0,1.2-0.1,1.6-0.4s0.8-0.6,1.2-1l1.1,0.9
			C725.7,1667.2,724.4,1667.9,722.6,1667.9z M722.4,1658.5c-0.7,0-1.3,0.3-1.8,0.8s-0.8,1.3-0.9,2.2h5.3v-0.1
			c-0.1-0.9-0.3-1.6-0.7-2.1S723.1,1658.5,722.4,1658.5z"/>
		<path d="M742.7,1662.6c0,1.6-0.4,2.9-1.1,3.9s-1.7,1.5-3,1.5c-1.3,0-2.3-0.4-3-1.2v5.1h-1.8v-14.6h1.7l0.1,1.2
			c0.7-0.9,1.8-1.4,3.1-1.4c1.3,0,2.3,0.5,3,1.4s1.1,2.3,1.1,4V1662.6z M740.9,1662.4c0-1.2-0.3-2.1-0.8-2.8s-1.2-1-2.1-1
			c-1.1,0-1.9,0.5-2.5,1.5v5c0.5,1,1.4,1.4,2.5,1.4c0.9,0,1.6-0.3,2.1-1S740.9,1663.7,740.9,1662.4z"/>
		<path d="M751.5,1667.7c-0.1-0.2-0.2-0.6-0.3-1.1c-0.8,0.9-1.8,1.3-3,1.3c-1,0-1.9-0.3-2.6-0.9s-1-1.3-1-2.2c0-1.1,0.4-2,1.3-2.6
			s2-0.9,3.5-0.9h1.8v-0.8c0-0.6-0.2-1.1-0.6-1.5s-0.9-0.6-1.7-0.6c-0.6,0-1.2,0.2-1.6,0.5s-0.7,0.7-0.7,1.2h-1.8
			c0-0.5,0.2-1,0.6-1.5s0.9-0.9,1.5-1.2s1.3-0.4,2.1-0.4c1.2,0,2.2,0.3,2.9,0.9s1,1.4,1.1,2.5v4.9c0,1,0.1,1.7,0.4,2.3v0.2H751.5z
			 M748.5,1666.4c0.6,0,1.1-0.1,1.6-0.4s0.9-0.7,1.1-1.1v-2.2h-1.4c-2.2,0-3.3,0.6-3.3,1.9c0,0.6,0.2,1,0.6,1.3
			S747.9,1666.4,748.5,1666.4z"/>
		<path d="M760.9,1658.8c-0.3,0-0.6-0.1-0.9-0.1c-1.2,0-2,0.5-2.4,1.5v7.5h-1.8v-10.6h1.8l0,1.2c0.6-0.9,1.4-1.4,2.5-1.4
			c0.4,0,0.6,0,0.8,0.1V1658.8z"/>
		<path d="M764.3,1657.2l0,1.2c0.8-0.9,1.8-1.4,3.1-1.4c1.5,0,2.5,0.6,3,1.7c0.4-0.5,0.8-0.9,1.4-1.2c0.6-0.3,1.2-0.5,2-0.5
			c2.3,0,3.5,1.2,3.5,3.7v7.1h-1.8v-7c0-0.8-0.2-1.3-0.5-1.7c-0.3-0.4-0.9-0.6-1.7-0.6c-0.7,0-1.2,0.2-1.7,0.6
			c-0.4,0.4-0.7,0.9-0.8,1.6v7h-1.8v-6.9c0-1.5-0.8-2.3-2.3-2.3c-1.2,0-2,0.5-2.4,1.5v7.7h-1.8v-10.6H764.3z"/>
		<path d="M780.1,1654.4c0-0.3,0.1-0.5,0.3-0.7c0.2-0.2,0.4-0.3,0.8-0.3s0.6,0.1,0.8,0.3c0.2,0.2,0.3,0.4,0.3,0.7s-0.1,0.5-0.3,0.7
			c-0.2,0.2-0.4,0.3-0.8,0.3s-0.6-0.1-0.8-0.3C780.2,1654.9,780.1,1654.7,780.1,1654.4z M782.1,1667.7h-1.8v-10.6h1.8V1667.7z"/>
		<path d="M791.7,1657.2l0.1,1.3c0.8-1,1.9-1.5,3.2-1.5c2.2,0,3.4,1.3,3.4,3.8v7h-1.8v-7c0-0.8-0.2-1.3-0.5-1.7s-0.9-0.5-1.6-0.5
			c-0.6,0-1.1,0.2-1.5,0.5c-0.4,0.3-0.8,0.7-1,1.2v7.5h-1.8v-10.6H791.7z"/>
		<path d="M800.5,1662.4c0-1,0.2-2,0.6-2.8c0.4-0.8,1-1.5,1.7-1.9c0.7-0.4,1.6-0.7,2.5-0.7c1.4,0,2.6,0.5,3.5,1.5s1.3,2.3,1.3,4v0.1
			c0,1-0.2,2-0.6,2.8c-0.4,0.8-1,1.5-1.7,1.9s-1.6,0.7-2.5,0.7c-1.4,0-2.6-0.5-3.5-1.5s-1.3-2.3-1.3-4V1662.4z M802.3,1662.6
			c0,1.2,0.3,2.1,0.8,2.8c0.5,0.7,1.3,1.1,2.2,1.1c0.9,0,1.6-0.4,2.2-1.1c0.5-0.7,0.8-1.7,0.8-3c0-1.2-0.3-2.1-0.8-2.8
			c-0.6-0.7-1.3-1.1-2.2-1.1c-0.9,0-1.6,0.4-2.2,1.1S802.3,1661.2,802.3,1662.6z"/>
		<path d="M814.8,1654.6v2.6h2v1.4h-2v6.6c0,0.4,0.1,0.7,0.3,1s0.5,0.3,0.9,0.3c0.2,0,0.5,0,0.9-0.1v1.5c-0.5,0.1-0.9,0.2-1.4,0.2
			c-0.8,0-1.4-0.2-1.8-0.7s-0.6-1.2-0.6-2.1v-6.6h-1.9v-1.4h1.9v-2.6H814.8z"/>
		<path d="M824,1658.8c-0.3,0-0.6-0.1-0.9-0.1c-1.2,0-2,0.5-2.4,1.5v7.5h-1.8v-10.6h1.8l0,1.2c0.6-0.9,1.4-1.4,2.5-1.4
			c0.4,0,0.6,0,0.8,0.1V1658.8z"/>
		<path d="M829.9,1667.9c-1.4,0-2.6-0.5-3.5-1.4s-1.3-2.2-1.3-3.8v-0.3c0-1,0.2-2,0.6-2.8s1-1.5,1.7-1.9c0.7-0.5,1.5-0.7,2.3-0.7
			c1.4,0,2.4,0.5,3.2,1.4s1.1,2.2,1.1,3.9v0.8h-7.2c0,1,0.3,1.9,0.9,2.5c0.6,0.6,1.3,1,2.2,1c0.6,0,1.2-0.1,1.6-0.4
			c0.4-0.3,0.8-0.6,1.2-1l1.1,0.9C833,1667.2,831.7,1667.9,829.9,1667.9z M829.7,1658.5c-0.7,0-1.3,0.3-1.8,0.8
			c-0.5,0.5-0.8,1.3-0.9,2.2h5.3v-0.1c-0.1-0.9-0.3-1.6-0.7-2.1C831,1658.7,830.4,1658.5,829.7,1658.5z"/>
		<path d="M840.6,1662.4c0-1.6,0.4-3,1.1-3.9s1.8-1.5,3-1.5c1.3,0,2.3,0.5,3,1.4l0.1-1.2h1.7v10.3c0,1.4-0.4,2.4-1.2,3.2
			s-1.9,1.2-3.3,1.2c-0.8,0-1.5-0.2-2.2-0.5c-0.7-0.3-1.3-0.8-1.7-1.3l0.9-1.1c0.8,1,1.7,1.4,2.8,1.4c0.9,0,1.6-0.2,2.1-0.7
			c0.5-0.5,0.7-1.2,0.7-2.1v-0.9c-0.7,0.8-1.7,1.2-3,1.2c-1.2,0-2.2-0.5-3-1.5C841,1665.4,840.6,1664.1,840.6,1662.4z M842.4,1662.6
			c0,1.2,0.2,2.1,0.7,2.8s1.2,1,2.1,1c1.1,0,2-0.5,2.5-1.6v-4.8c-0.6-1-1.4-1.5-2.5-1.5c-0.9,0-1.6,0.3-2.1,1
			C842.7,1660.2,842.4,1661.2,842.4,1662.6z"/>
		<path d="M857.4,1658.8c-0.3,0-0.6-0.1-0.9-0.1c-1.2,0-2,0.5-2.4,1.5v7.5h-1.8v-10.6h1.8l0,1.2c0.6-0.9,1.4-1.4,2.5-1.4
			c0.4,0,0.6,0,0.8,0.1V1658.8z"/>
		<path d="M865.2,1667.7c-0.1-0.2-0.2-0.6-0.3-1.1c-0.8,0.9-1.8,1.3-3,1.3c-1,0-1.9-0.3-2.6-0.9c-0.7-0.6-1-1.3-1-2.2
			c0-1.1,0.4-2,1.3-2.6c0.8-0.6,2-0.9,3.5-0.9h1.8v-0.8c0-0.6-0.2-1.1-0.6-1.5c-0.4-0.4-0.9-0.6-1.7-0.6c-0.6,0-1.2,0.2-1.6,0.5
			c-0.4,0.3-0.7,0.7-0.7,1.2h-1.8c0-0.5,0.2-1,0.6-1.5c0.4-0.5,0.9-0.9,1.5-1.2c0.6-0.3,1.3-0.4,2.1-0.4c1.2,0,2.2,0.3,2.9,0.9
			c0.7,0.6,1,1.4,1.1,2.5v4.9c0,1,0.1,1.7,0.4,2.3v0.2H865.2z M862.2,1666.4c0.6,0,1.1-0.1,1.6-0.4s0.9-0.7,1.1-1.1v-2.2h-1.4
			c-2.2,0-3.3,0.6-3.3,1.9c0,0.6,0.2,1,0.6,1.3C861.1,1666.2,861.6,1666.4,862.2,1666.4z"/>
		<path d="M871.2,1657.2l0.1,1.3c0.8-1,1.9-1.5,3.2-1.5c2.2,0,3.4,1.3,3.4,3.8v7H876v-7c0-0.8-0.2-1.3-0.5-1.7s-0.9-0.5-1.6-0.5
			c-0.6,0-1.1,0.2-1.5,0.5c-0.4,0.3-0.8,0.7-1,1.2v7.5h-1.8v-10.6H871.2z"/>
		<path d="M880.1,1662.4c0-1.6,0.4-2.9,1.2-3.9c0.8-1,1.8-1.5,3-1.5c1.2,0,2.2,0.4,2.9,1.3v-5.5h1.8v15h-1.7l-0.1-1.1
			c-0.7,0.9-1.7,1.3-3,1.3c-1.2,0-2.2-0.5-3-1.5s-1.2-2.3-1.2-3.9V1662.4z M881.9,1662.6c0,1.2,0.2,2.1,0.7,2.8c0.5,0.7,1.2,1,2.1,1
			c1.1,0,2-0.5,2.5-1.5v-4.9c-0.5-1-1.4-1.5-2.5-1.5c-0.9,0-1.6,0.3-2.1,1C882.2,1660.2,881.9,1661.2,881.9,1662.6z"/>
		<path d="M896.2,1667.9c-1.4,0-2.6-0.5-3.5-1.4s-1.3-2.2-1.3-3.8v-0.3c0-1,0.2-2,0.6-2.8s1-1.5,1.7-1.9c0.7-0.5,1.5-0.7,2.3-0.7
			c1.4,0,2.4,0.5,3.2,1.4s1.1,2.2,1.1,3.9v0.8h-7.2c0,1,0.3,1.9,0.9,2.5c0.6,0.6,1.3,1,2.2,1c0.6,0,1.2-0.1,1.6-0.4
			c0.4-0.3,0.8-0.6,1.2-1l1.1,0.9C899.3,1667.2,898,1667.9,896.2,1667.9z M896,1658.5c-0.7,0-1.3,0.3-1.8,0.8
			c-0.5,0.5-0.8,1.3-0.9,2.2h5.3v-0.1c-0.1-0.9-0.3-1.6-0.7-2.1C897.4,1658.7,896.8,1658.5,896,1658.5z"/>
	</g>
	<g class="st1">
		<path d="M651.9,1689.3l2.6-8.1h1.8l-3.8,10.6h-1.4l-3.8-10.6h1.8L651.9,1689.3z"/>
		<path d="M664.5,1691.7c-0.1-0.2-0.2-0.6-0.3-1.1c-0.8,0.9-1.8,1.3-3,1.3c-1,0-1.9-0.3-2.6-0.9s-1-1.3-1-2.2c0-1.1,0.4-2,1.3-2.6
			s2-0.9,3.5-0.9h1.8v-0.8c0-0.6-0.2-1.1-0.6-1.5s-0.9-0.6-1.7-0.6c-0.6,0-1.2,0.2-1.6,0.5s-0.7,0.7-0.7,1.2h-1.8
			c0-0.5,0.2-1,0.6-1.5s0.9-0.9,1.5-1.2s1.3-0.4,2.1-0.4c1.2,0,2.2,0.3,2.9,0.9s1,1.4,1.1,2.5v4.9c0,1,0.1,1.7,0.4,2.3v0.2H664.5z
			 M661.5,1690.4c0.6,0,1.1-0.1,1.6-0.4s0.9-0.7,1.1-1.1v-2.2h-1.4c-2.2,0-3.3,0.6-3.3,1.9c0,0.6,0.2,1,0.6,1.3
			S660.9,1690.4,661.5,1690.4z"/>
		<path d="M674,1682.8c-0.3,0-0.6-0.1-0.9-0.1c-1.2,0-2,0.5-2.4,1.5v7.5h-1.8v-10.6h1.8l0,1.2c0.6-0.9,1.4-1.4,2.5-1.4
			c0.4,0,0.6,0,0.8,0.1V1682.8z"/>
		<path d="M675.7,1678.4c0-0.3,0.1-0.5,0.3-0.7s0.4-0.3,0.8-0.3s0.6,0.1,0.8,0.3s0.3,0.4,0.3,0.7s-0.1,0.5-0.3,0.7s-0.4,0.3-0.8,0.3
			s-0.6-0.1-0.8-0.3S675.7,1678.7,675.7,1678.4z M677.6,1691.7h-1.8v-10.6h1.8V1691.7z"/>
		<path d="M684.9,1691.9c-1.4,0-2.6-0.5-3.5-1.4s-1.3-2.2-1.3-3.8v-0.3c0-1,0.2-2,0.6-2.8s1-1.5,1.7-1.9s1.5-0.7,2.3-0.7
			c1.4,0,2.4,0.5,3.2,1.4s1.1,2.2,1.1,3.9v0.8h-7.2c0,1,0.3,1.9,0.9,2.5s1.3,1,2.2,1c0.6,0,1.2-0.1,1.6-0.4s0.8-0.6,1.2-1l1.1,0.9
			C688,1691.2,686.7,1691.9,684.9,1691.9z M684.7,1682.5c-0.7,0-1.3,0.3-1.8,0.8s-0.8,1.3-0.9,2.2h5.3v-0.1
			c-0.1-0.9-0.3-1.6-0.7-2.1S685.4,1682.5,684.7,1682.5z M685.5,1676.7h2.2l-2.6,2.9l-1.5,0L685.5,1676.7z"/>
		<path d="M693.5,1678.6v2.6h2v1.4h-2v6.6c0,0.4,0.1,0.7,0.3,1s0.5,0.3,0.9,0.3c0.2,0,0.5,0,0.9-0.1v1.5c-0.5,0.1-0.9,0.2-1.4,0.2
			c-0.8,0-1.4-0.2-1.8-0.7s-0.6-1.2-0.6-2.1v-6.6h-1.9v-1.4h1.9v-2.6H693.5z"/>
		<path d="M702,1691.9c-1.4,0-2.6-0.5-3.5-1.4s-1.3-2.2-1.3-3.8v-0.3c0-1,0.2-2,0.6-2.8s1-1.5,1.7-1.9s1.5-0.7,2.3-0.7
			c1.4,0,2.4,0.5,3.2,1.4s1.1,2.2,1.1,3.9v0.8H699c0,1,0.3,1.9,0.9,2.5s1.3,1,2.2,1c0.6,0,1.2-0.1,1.6-0.4s0.8-0.6,1.2-1l1.1,0.9
			C705.1,1691.2,703.8,1691.9,702,1691.9z M701.8,1682.5c-0.7,0-1.3,0.3-1.8,0.8s-0.8,1.3-0.9,2.2h5.3v-0.1
			c-0.1-0.9-0.3-1.6-0.7-2.1S702.5,1682.5,701.8,1682.5z M702.7,1676.7h2.2l-2.6,2.9l-1.5,0L702.7,1676.7z"/>
		<path d="M712.7,1686.4c0-1.6,0.4-2.9,1.2-3.9s1.8-1.5,3-1.5c1.2,0,2.2,0.4,2.9,1.3v-5.5h1.8v15H720l-0.1-1.1
			c-0.7,0.9-1.7,1.3-3,1.3c-1.2,0-2.2-0.5-3-1.5s-1.2-2.3-1.2-3.9V1686.4z M714.5,1686.6c0,1.2,0.2,2.1,0.7,2.8s1.2,1,2.1,1
			c1.1,0,2-0.5,2.5-1.5v-4.9c-0.5-1-1.4-1.5-2.5-1.5c-0.9,0-1.6,0.3-2.1,1S714.5,1685.2,714.5,1686.6z"/>
		<path d="M728.8,1691.9c-1.4,0-2.6-0.5-3.5-1.4s-1.3-2.2-1.3-3.8v-0.3c0-1,0.2-2,0.6-2.8s1-1.5,1.7-1.9s1.5-0.7,2.3-0.7
			c1.4,0,2.4,0.5,3.2,1.4s1.1,2.2,1.1,3.9v0.8h-7.2c0,1,0.3,1.9,0.9,2.5s1.3,1,2.2,1c0.6,0,1.2-0.1,1.6-0.4s0.8-0.6,1.2-1l1.1,0.9
			C731.9,1691.2,730.6,1691.9,728.8,1691.9z M728.6,1682.5c-0.7,0-1.3,0.3-1.8,0.8s-0.8,1.3-0.9,2.2h5.3v-0.1
			c-0.1-0.9-0.3-1.6-0.7-2.1S729.4,1682.5,728.6,1682.5z"/>
		<path d="M748.9,1686.6c0,1.6-0.4,2.9-1.1,3.9s-1.7,1.5-3,1.5c-1.3,0-2.3-0.4-3-1.2v5.1H740v-14.6h1.7l0.1,1.2
			c0.7-0.9,1.8-1.4,3.1-1.4c1.3,0,2.3,0.5,3,1.4s1.1,2.3,1.1,4V1686.6z M747.1,1686.4c0-1.2-0.3-2.1-0.8-2.8s-1.2-1-2.1-1
			c-1.1,0-1.9,0.5-2.5,1.5v5c0.5,1,1.4,1.4,2.5,1.4c0.9,0,1.6-0.3,2.1-1S747.1,1687.7,747.1,1686.4z"/>
		<path d="M753.2,1691.7h-1.8v-15h1.8V1691.7z"/>
		<path d="M762.6,1691.7c-0.1-0.2-0.2-0.6-0.3-1.1c-0.8,0.9-1.8,1.3-3,1.3c-1,0-1.9-0.3-2.6-0.9s-1-1.3-1-2.2c0-1.1,0.4-2,1.3-2.6
			s2-0.9,3.5-0.9h1.8v-0.8c0-0.6-0.2-1.1-0.6-1.5c-0.4-0.4-0.9-0.6-1.7-0.6c-0.6,0-1.2,0.2-1.6,0.5s-0.7,0.7-0.7,1.2H756
			c0-0.5,0.2-1,0.6-1.5s0.9-0.9,1.5-1.2s1.3-0.4,2.1-0.4c1.2,0,2.2,0.3,2.9,0.9c0.7,0.6,1,1.4,1.1,2.5v4.9c0,1,0.1,1.7,0.4,2.3v0.2
			H762.6z M759.6,1690.4c0.6,0,1.1-0.1,1.6-0.4s0.9-0.7,1.1-1.1v-2.2h-1.4c-2.2,0-3.3,0.6-3.3,1.9c0,0.6,0.2,1,0.6,1.3
			S759,1690.4,759.6,1690.4z"/>
		<path d="M769.4,1678.6v2.6h2v1.4h-2v6.6c0,0.4,0.1,0.7,0.3,1s0.5,0.3,0.9,0.3c0.2,0,0.5,0,0.9-0.1v1.5c-0.5,0.1-0.9,0.2-1.4,0.2
			c-0.8,0-1.4-0.2-1.8-0.7s-0.6-1.2-0.6-2.1v-6.6h-1.9v-1.4h1.9v-2.6H769.4z"/>
		<path d="M779.6,1688.9c0-0.5-0.2-0.9-0.6-1.1c-0.4-0.3-1-0.5-1.9-0.7c-0.9-0.2-1.6-0.4-2.2-0.7s-0.9-0.6-1.2-1
			c-0.3-0.4-0.4-0.8-0.4-1.3c0-0.9,0.4-1.6,1.1-2.2s1.7-0.9,2.8-0.9c1.2,0,2.2,0.3,2.9,0.9c0.7,0.6,1.1,1.4,1.1,2.4h-1.8
			c0-0.5-0.2-0.9-0.6-1.3s-0.9-0.5-1.6-0.5c-0.7,0-1.2,0.1-1.5,0.4s-0.6,0.7-0.6,1.1c0,0.4,0.2,0.8,0.5,1c0.3,0.2,1,0.4,1.9,0.6
			c0.9,0.2,1.6,0.4,2.2,0.7c0.6,0.3,1,0.6,1.2,1c0.3,0.4,0.4,0.9,0.4,1.4c0,0.9-0.4,1.7-1.1,2.3c-0.8,0.6-1.7,0.9-2.9,0.9
			c-0.8,0-1.6-0.1-2.2-0.4c-0.7-0.3-1.2-0.7-1.5-1.3c-0.4-0.5-0.6-1.1-0.6-1.7h1.8c0,0.6,0.3,1.1,0.7,1.4c0.5,0.4,1,0.5,1.8,0.5
			c0.7,0,1.2-0.1,1.6-0.4C779.4,1689.8,779.6,1689.4,779.6,1688.9z"/>
		<path d="M788.7,1690.8c0-0.3,0.1-0.6,0.3-0.8s0.5-0.3,0.8-0.3s0.7,0.1,0.8,0.3c0.2,0.2,0.3,0.5,0.3,0.8c0,0.3-0.1,0.5-0.3,0.8
			c-0.2,0.2-0.5,0.3-0.8,0.3s-0.6-0.1-0.8-0.3S788.7,1691.1,788.7,1690.8z M788.7,1682.2c0-0.3,0.1-0.6,0.3-0.8s0.5-0.3,0.8-0.3
			s0.7,0.1,0.8,0.3c0.2,0.2,0.3,0.5,0.3,0.8c0,0.3-0.1,0.5-0.3,0.8c-0.2,0.2-0.5,0.3-0.8,0.3s-0.6-0.1-0.8-0.3
			S788.7,1682.5,788.7,1682.2z"/>
		<path d="M803.5,1689.2l4.1-11.7h2.1l-5.3,14.2h-1.7l-5.3-14.2h2L803.5,1689.2z"/>
		<path d="M815.2,1691.9c-1.4,0-2.6-0.5-3.5-1.4s-1.3-2.2-1.3-3.8v-0.3c0-1,0.2-2,0.6-2.8s1-1.5,1.7-1.9c0.7-0.5,1.5-0.7,2.3-0.7
			c1.4,0,2.4,0.5,3.2,1.4s1.1,2.2,1.1,3.9v0.8h-7.2c0,1,0.3,1.9,0.9,2.5c0.6,0.6,1.3,1,2.2,1c0.6,0,1.2-0.1,1.6-0.4
			c0.4-0.3,0.8-0.6,1.2-1l1.1,0.9C818.3,1691.2,817,1691.9,815.2,1691.9z M815,1682.5c-0.7,0-1.3,0.3-1.8,0.8
			c-0.5,0.5-0.8,1.3-0.9,2.2h5.3v-0.1c-0.1-0.9-0.3-1.6-0.7-2.1C816.4,1682.7,815.8,1682.5,815,1682.5z M815.9,1676.7h2.2l-2.6,2.9
			l-1.5,0L815.9,1676.7z"/>
		<path d="M821,1686.4c0-1.6,0.4-3,1.1-3.9s1.8-1.5,3-1.5c1.3,0,2.3,0.5,3,1.4l0.1-1.2h1.7v10.3c0,1.4-0.4,2.4-1.2,3.2
			s-1.9,1.2-3.3,1.2c-0.8,0-1.5-0.2-2.2-0.5c-0.7-0.3-1.3-0.8-1.7-1.3l0.9-1.1c0.8,1,1.7,1.4,2.8,1.4c0.9,0,1.6-0.2,2.1-0.7
			c0.5-0.5,0.7-1.2,0.7-2.1v-0.9c-0.7,0.8-1.7,1.2-3,1.2c-1.2,0-2.2-0.5-3-1.5C821.4,1689.4,821,1688.1,821,1686.4z M822.8,1686.6
			c0,1.2,0.2,2.1,0.7,2.8s1.2,1,2.1,1c1.1,0,2-0.5,2.5-1.6v-4.8c-0.6-1-1.4-1.5-2.5-1.5c-0.9,0-1.6,0.3-2.1,1
			C823.1,1684.2,822.8,1685.2,822.8,1686.6z"/>
		<path d="M837,1691.9c-1.4,0-2.6-0.5-3.5-1.4s-1.3-2.2-1.3-3.8v-0.3c0-1,0.2-2,0.6-2.8s1-1.5,1.7-1.9c0.7-0.5,1.5-0.7,2.3-0.7
			c1.4,0,2.4,0.5,3.2,1.4s1.1,2.2,1.1,3.9v0.8H834c0,1,0.3,1.9,0.9,2.5c0.6,0.6,1.3,1,2.2,1c0.6,0,1.2-0.1,1.6-0.4
			c0.4-0.3,0.8-0.6,1.2-1l1.1,0.9C840.1,1691.2,838.8,1691.9,837,1691.9z M836.8,1682.5c-0.7,0-1.3,0.3-1.8,0.8
			c-0.5,0.5-0.8,1.3-0.9,2.2h5.3v-0.1c-0.1-0.9-0.3-1.6-0.7-2.1C838.2,1682.7,837.6,1682.5,836.8,1682.5z M837.7,1676.7h2.2
			l-2.6,2.9l-1.5,0L837.7,1676.7z"/>
		<path d="M845.7,1678.6v2.6h2v1.4h-2v6.6c0,0.4,0.1,0.7,0.3,1s0.5,0.3,0.9,0.3c0.2,0,0.5,0,0.9-0.1v1.5c-0.5,0.1-0.9,0.2-1.4,0.2
			c-0.8,0-1.4-0.2-1.8-0.7s-0.6-1.2-0.6-2.1v-6.6H842v-1.4h1.9v-2.6H845.7z"/>
		<path d="M856.3,1691.7c-0.1-0.2-0.2-0.6-0.3-1.1c-0.8,0.9-1.8,1.3-3,1.3c-1,0-1.9-0.3-2.6-0.9c-0.7-0.6-1-1.3-1-2.2
			c0-1.1,0.4-2,1.3-2.6c0.8-0.6,2-0.9,3.5-0.9h1.8v-0.8c0-0.6-0.2-1.1-0.6-1.5c-0.4-0.4-0.9-0.6-1.7-0.6c-0.6,0-1.2,0.2-1.6,0.5
			c-0.4,0.3-0.7,0.7-0.7,1.2h-1.8c0-0.5,0.2-1,0.6-1.5c0.4-0.5,0.9-0.9,1.5-1.2c0.6-0.3,1.3-0.4,2.1-0.4c1.2,0,2.2,0.3,2.9,0.9
			c0.7,0.6,1,1.4,1.1,2.5v4.9c0,1,0.1,1.7,0.4,2.3v0.2H856.3z M853.3,1690.4c0.6,0,1.1-0.1,1.6-0.4s0.9-0.7,1.1-1.1v-2.2h-1.4
			c-2.2,0-3.3,0.6-3.3,1.9c0,0.6,0.2,1,0.6,1.3C852.2,1690.2,852.7,1690.4,853.3,1690.4z"/>
		<path d="M862.6,1691.7h-1.8v-15h1.8V1691.7z"/>
		<path d="M865.5,1678.4c0-0.3,0.1-0.5,0.3-0.7c0.2-0.2,0.4-0.3,0.8-0.3s0.6,0.1,0.8,0.3c0.2,0.2,0.3,0.4,0.3,0.7s-0.1,0.5-0.3,0.7
			c-0.2,0.2-0.4,0.3-0.8,0.3s-0.6-0.1-0.8-0.3C865.6,1678.9,865.5,1678.7,865.5,1678.4z M867.5,1691.7h-1.8v-10.6h1.8V1691.7z"/>
		<path d="M874.8,1691.9c-1.4,0-2.6-0.5-3.5-1.4s-1.3-2.2-1.3-3.8v-0.3c0-1,0.2-2,0.6-2.8s1-1.5,1.7-1.9c0.7-0.5,1.5-0.7,2.3-0.7
			c1.4,0,2.4,0.5,3.2,1.4s1.1,2.2,1.1,3.9v0.8h-7.2c0,1,0.3,1.9,0.9,2.5c0.6,0.6,1.3,1,2.2,1c0.6,0,1.2-0.1,1.6-0.4
			c0.4-0.3,0.8-0.6,1.2-1l1.1,0.9C877.9,1691.2,876.5,1691.9,874.8,1691.9z M874.5,1682.5c-0.7,0-1.3,0.3-1.8,0.8
			c-0.5,0.5-0.8,1.3-0.9,2.2h5.3v-0.1c-0.1-0.9-0.3-1.6-0.7-2.1C875.9,1682.7,875.3,1682.5,874.5,1682.5z"/>
		<path d="M882.7,1681.2l0.1,1.3c0.8-1,1.9-1.5,3.2-1.5c2.2,0,3.4,1.3,3.4,3.8v7h-1.8v-7c0-0.8-0.2-1.3-0.5-1.7s-0.9-0.5-1.6-0.5
			c-0.6,0-1.1,0.2-1.5,0.5c-0.4,0.3-0.8,0.7-1,1.2v7.5H881v-10.6H882.7z"/>
		<path d="M891.9,1694.6l-1-0.7c0.6-0.9,0.9-1.7,1-2.6v-1.6h1.8v1.4c0,0.7-0.2,1.3-0.5,2S892.4,1694.2,891.9,1694.6z"/>
	</g>
	<g class="st1">
		<path d="M647.8,1710.6c0,1.6-0.4,2.9-1.1,3.9s-1.7,1.5-3,1.5c-1.3,0-2.3-0.4-3-1.2v5.1h-1.8v-14.6h1.7l0.1,1.2
			c0.7-0.9,1.8-1.4,3.1-1.4c1.3,0,2.3,0.5,3,1.4s1.1,2.3,1.1,4V1710.6z M646,1710.4c0-1.2-0.3-2.1-0.8-2.8s-1.2-1-2.1-1
			c-1.1,0-1.9,0.5-2.5,1.5v5c0.5,1,1.4,1.4,2.5,1.4c0.9,0,1.6-0.3,2.1-1S646,1711.7,646,1710.4z"/>
		<path d="M654.5,1715.9c-1.4,0-2.6-0.5-3.5-1.4s-1.3-2.2-1.3-3.8v-0.3c0-1,0.2-2,0.6-2.8s1-1.5,1.7-1.9s1.5-0.7,2.3-0.7
			c1.4,0,2.4,0.5,3.2,1.4s1.1,2.2,1.1,3.9v0.8h-7.2c0,1,0.3,1.9,0.9,2.5s1.3,1,2.2,1c0.6,0,1.2-0.1,1.6-0.4s0.8-0.6,1.2-1l1.1,0.9
			C657.6,1715.2,656.3,1715.9,654.5,1715.9z M654.3,1706.5c-0.7,0-1.3,0.3-1.8,0.8s-0.8,1.3-0.9,2.2h5.3v-0.1
			c-0.1-0.9-0.3-1.6-0.7-2.1S655,1706.5,654.3,1706.5z"/>
		<path d="M666.9,1712.9c0-0.5-0.2-0.9-0.6-1.1s-1-0.5-1.9-0.7s-1.6-0.4-2.2-0.7s-0.9-0.6-1.2-1s-0.4-0.8-0.4-1.3
			c0-0.9,0.4-1.6,1.1-2.2s1.7-0.9,2.8-0.9c1.2,0,2.2,0.3,2.9,0.9s1.1,1.4,1.1,2.4h-1.8c0-0.5-0.2-0.9-0.6-1.3s-0.9-0.5-1.6-0.5
			c-0.7,0-1.2,0.1-1.5,0.4s-0.6,0.7-0.6,1.1c0,0.4,0.2,0.8,0.5,1s1,0.4,1.9,0.6s1.6,0.4,2.2,0.7s1,0.6,1.2,1s0.4,0.9,0.4,1.4
			c0,0.9-0.4,1.7-1.1,2.3s-1.7,0.9-2.9,0.9c-0.8,0-1.6-0.1-2.2-0.4s-1.2-0.7-1.5-1.3s-0.6-1.1-0.6-1.7h1.8c0,0.6,0.3,1.1,0.7,1.4
			s1,0.5,1.8,0.5c0.7,0,1.2-0.1,1.6-0.4S666.9,1713.4,666.9,1712.9z"/>
		<path d="M675.3,1714.5c0.6,0,1.2-0.2,1.7-0.6s0.7-0.9,0.8-1.5h1.7c0,0.6-0.2,1.2-0.6,1.7s-0.9,1-1.5,1.3s-1.3,0.5-2,0.5
			c-1.4,0-2.6-0.5-3.4-1.4s-1.3-2.3-1.3-3.9v-0.3c0-1,0.2-1.9,0.6-2.7s0.9-1.4,1.6-1.9s1.5-0.7,2.5-0.7c1.2,0,2.2,0.4,3,1.1
			s1.2,1.6,1.3,2.8h-1.7c-0.1-0.7-0.3-1.2-0.8-1.7s-1-0.7-1.7-0.7c-0.9,0-1.6,0.3-2.1,1s-0.8,1.6-0.8,2.9v0.3c0,1.2,0.3,2.2,0.8,2.8
			S674.3,1714.5,675.3,1714.5z"/>
		<path d="M685.9,1715.9c-1.4,0-2.6-0.5-3.5-1.4s-1.3-2.2-1.3-3.8v-0.3c0-1,0.2-2,0.6-2.8s1-1.5,1.7-1.9s1.5-0.7,2.3-0.7
			c1.4,0,2.4,0.5,3.2,1.4s1.1,2.2,1.1,3.9v0.8h-7.2c0,1,0.3,1.9,0.9,2.5s1.3,1,2.2,1c0.6,0,1.2-0.1,1.6-0.4s0.8-0.6,1.2-1l1.1,0.9
			C689,1715.2,687.7,1715.9,685.9,1715.9z M685.7,1706.5c-0.7,0-1.3,0.3-1.8,0.8s-0.8,1.3-0.9,2.2h5.3v-0.1
			c-0.1-0.9-0.3-1.6-0.7-2.1S686.4,1706.5,685.7,1706.5z"/>
		<path d="M694.6,1702.6v2.6h2v1.4h-2v6.6c0,0.4,0.1,0.7,0.3,1s0.5,0.3,0.9,0.3c0.2,0,0.5,0,0.9-0.1v1.5c-0.5,0.1-0.9,0.2-1.4,0.2
			c-0.8,0-1.4-0.2-1.8-0.7s-0.6-1.2-0.6-2.1v-6.6h-1.9v-1.4h1.9v-2.6H694.6z"/>
		<path d="M705.2,1715.7c-0.1-0.2-0.2-0.6-0.3-1.1c-0.8,0.9-1.8,1.3-3,1.3c-1,0-1.9-0.3-2.6-0.9s-1-1.3-1-2.2c0-1.1,0.4-2,1.3-2.6
			s2-0.9,3.5-0.9h1.8v-0.8c0-0.6-0.2-1.1-0.6-1.5s-0.9-0.6-1.7-0.6c-0.6,0-1.2,0.2-1.6,0.5s-0.7,0.7-0.7,1.2h-1.8
			c0-0.5,0.2-1,0.6-1.5s0.9-0.9,1.5-1.2s1.3-0.4,2.1-0.4c1.2,0,2.2,0.3,2.9,0.9s1,1.4,1.1,2.5v4.9c0,1,0.1,1.7,0.4,2.3v0.2H705.2z
			 M702.2,1714.4c0.6,0,1.1-0.1,1.6-0.4s0.9-0.7,1.1-1.1v-2.2h-1.4c-2.2,0-3.3,0.6-3.3,1.9c0,0.6,0.2,1,0.6,1.3
			S701.6,1714.4,702.2,1714.4z"/>
		<path d="M714.6,1706.8c-0.3,0-0.6-0.1-0.9-0.1c-1.2,0-2,0.5-2.4,1.5v7.5h-1.8v-10.6h1.8l0,1.2c0.6-0.9,1.4-1.4,2.5-1.4
			c0.4,0,0.6,0,0.8,0.1V1706.8z"/>
		<path d="M716.3,1702.4c0-0.3,0.1-0.5,0.3-0.7s0.4-0.3,0.8-0.3s0.6,0.1,0.8,0.3s0.3,0.4,0.3,0.7s-0.1,0.5-0.3,0.7s-0.4,0.3-0.8,0.3
			s-0.6-0.1-0.8-0.3S716.3,1702.7,716.3,1702.4z M718.2,1715.7h-1.8v-10.6h1.8V1715.7z"/>
		<path d="M725.5,1715.9c-1.4,0-2.6-0.5-3.5-1.4s-1.3-2.2-1.3-3.8v-0.3c0-1,0.2-2,0.6-2.8s1-1.5,1.7-1.9s1.5-0.7,2.3-0.7
			c1.4,0,2.4,0.5,3.2,1.4s1.1,2.2,1.1,3.9v0.8h-7.2c0,1,0.3,1.9,0.9,2.5s1.3,1,2.2,1c0.6,0,1.2-0.1,1.6-0.4s0.8-0.6,1.2-1l1.1,0.9
			C728.6,1715.2,727.3,1715.9,725.5,1715.9z M725.3,1706.5c-0.7,0-1.3,0.3-1.8,0.8s-0.8,1.3-0.9,2.2h5.3v-0.1
			c-0.1-0.9-0.3-1.6-0.7-2.1S726,1706.5,725.3,1706.5z"/>
		<path d="M733.4,1705.2l0.1,1.3c0.8-1,1.9-1.5,3.2-1.5c2.2,0,3.4,1.3,3.4,3.8v7h-1.8v-7c0-0.8-0.2-1.3-0.5-1.7s-0.9-0.5-1.6-0.5
			c-0.6,0-1.1,0.2-1.5,0.5s-0.8,0.7-1,1.2v7.5h-1.8v-10.6H733.4z"/>
		<path d="M742.7,1718.6l-1-0.7c0.6-0.9,0.9-1.7,1-2.6v-1.6h1.8v1.4c0,0.7-0.2,1.3-0.5,2S743.2,1718.2,742.7,1718.6z"/>
		<path d="M754.6,1710.8l-1.1,1.2v3.7h-1.8v-15h1.8v9.1l1-1.2l3.3-3.5h2.2l-4.1,4.4l4.6,6.2h-2.1L754.6,1710.8z"/>
		<path d="M766,1715.9c-1.4,0-2.6-0.5-3.5-1.4s-1.3-2.2-1.3-3.8v-0.3c0-1,0.2-2,0.6-2.8s1-1.5,1.7-1.9c0.7-0.5,1.5-0.7,2.3-0.7
			c1.4,0,2.4,0.5,3.2,1.4s1.1,2.2,1.1,3.9v0.8h-7.2c0,1,0.3,1.9,0.9,2.5c0.6,0.6,1.3,1,2.2,1c0.6,0,1.2-0.1,1.6-0.4
			c0.4-0.3,0.8-0.6,1.2-1l1.1,0.9C769.1,1715.2,767.7,1715.9,766,1715.9z M765.7,1706.5c-0.7,0-1.3,0.3-1.8,0.8
			c-0.5,0.5-0.8,1.3-0.9,2.2h5.3v-0.1c-0.1-0.9-0.3-1.6-0.7-2.1C767.1,1706.7,766.5,1706.5,765.7,1706.5z"/>
		<path d="M774.6,1702.6v2.6h2v1.4h-2v6.6c0,0.4,0.1,0.7,0.3,1s0.5,0.3,0.9,0.3c0.2,0,0.5,0,0.9-0.1v1.5c-0.5,0.1-0.9,0.2-1.4,0.2
			c-0.8,0-1.4-0.2-1.8-0.7s-0.6-1.2-0.6-2.1v-6.6h-1.9v-1.4h1.9v-2.6H774.6z"/>
		<path d="M778,1710.4c0-1,0.2-2,0.6-2.8c0.4-0.8,1-1.5,1.7-1.9c0.7-0.4,1.6-0.7,2.5-0.7c1.4,0,2.6,0.5,3.5,1.5s1.3,2.3,1.3,4v0.1
			c0,1-0.2,2-0.6,2.8c-0.4,0.8-1,1.5-1.7,1.9s-1.6,0.7-2.5,0.7c-1.4,0-2.6-0.5-3.5-1.5s-1.3-2.3-1.3-4V1710.4z M779.9,1710.6
			c0,1.2,0.3,2.1,0.8,2.8c0.5,0.7,1.3,1.1,2.2,1.1c0.9,0,1.6-0.4,2.2-1.1c0.5-0.7,0.8-1.7,0.8-3c0-1.2-0.3-2.1-0.8-2.8
			c-0.6-0.7-1.3-1.1-2.2-1.1c-0.9,0-1.6,0.4-2.2,1.1S779.9,1709.2,779.9,1710.6z"/>
		<path d="M789.9,1718.6l-1-0.7c0.6-0.9,0.9-1.7,1-2.6v-1.6h1.8v1.4c0,0.7-0.2,1.3-0.5,2S790.4,1718.2,789.9,1718.6z"/>
		<path d="M805,1712.9c0-0.5-0.2-0.9-0.6-1.1c-0.4-0.3-1-0.5-1.9-0.7c-0.9-0.2-1.6-0.4-2.2-0.7s-0.9-0.6-1.2-1
			c-0.3-0.4-0.4-0.8-0.4-1.3c0-0.9,0.4-1.6,1.1-2.2s1.7-0.9,2.8-0.9c1.2,0,2.2,0.3,2.9,0.9c0.7,0.6,1.1,1.4,1.1,2.4h-1.8
			c0-0.5-0.2-0.9-0.6-1.3s-0.9-0.5-1.6-0.5c-0.7,0-1.2,0.1-1.5,0.4s-0.6,0.7-0.6,1.1c0,0.4,0.2,0.8,0.5,1c0.3,0.2,1,0.4,1.9,0.6
			c0.9,0.2,1.6,0.4,2.2,0.7c0.6,0.3,1,0.6,1.2,1c0.3,0.4,0.4,0.9,0.4,1.4c0,0.9-0.4,1.7-1.1,2.3c-0.8,0.6-1.7,0.9-2.9,0.9
			c-0.8,0-1.6-0.1-2.2-0.4c-0.7-0.3-1.2-0.7-1.5-1.3c-0.4-0.5-0.6-1.1-0.6-1.7h1.8c0,0.6,0.3,1.1,0.7,1.4c0.5,0.4,1,0.5,1.8,0.5
			c0.7,0,1.2-0.1,1.6-0.4C804.7,1713.8,805,1713.4,805,1712.9z"/>
		<path d="M815.6,1715.7c-0.1-0.2-0.2-0.6-0.3-1.1c-0.8,0.9-1.8,1.3-3,1.3c-1,0-1.9-0.3-2.6-0.9c-0.7-0.6-1-1.3-1-2.2
			c0-1.1,0.4-2,1.3-2.6c0.8-0.6,2-0.9,3.5-0.9h1.8v-0.8c0-0.6-0.2-1.1-0.6-1.5c-0.4-0.4-0.9-0.6-1.7-0.6c-0.6,0-1.2,0.2-1.6,0.5
			c-0.4,0.3-0.7,0.7-0.7,1.2H809c0-0.5,0.2-1,0.6-1.5c0.4-0.5,0.9-0.9,1.5-1.2c0.6-0.3,1.3-0.4,2.1-0.4c1.2,0,2.2,0.3,2.9,0.9
			c0.7,0.6,1,1.4,1.1,2.5v4.9c0,1,0.1,1.7,0.4,2.3v0.2H815.6z M812.6,1714.4c0.6,0,1.1-0.1,1.6-0.4s0.9-0.7,1.1-1.1v-2.2h-1.4
			c-2.2,0-3.3,0.6-3.3,1.9c0,0.6,0.2,1,0.6,1.3C811.6,1714.2,812,1714.4,812.6,1714.4z"/>
		<path d="M821.7,1705.2l0.1,1.3c0.8-1,1.9-1.5,3.2-1.5c2.2,0,3.4,1.3,3.4,3.8v7h-1.8v-7c0-0.8-0.2-1.3-0.5-1.7s-0.9-0.5-1.6-0.5
			c-0.6,0-1.1,0.2-1.5,0.5c-0.4,0.3-0.8,0.7-1,1.2v7.5H820v-10.6H821.7z"/>
		<path d="M837.2,1712.9c0-0.5-0.2-0.9-0.6-1.1c-0.4-0.3-1-0.5-1.9-0.7c-0.9-0.2-1.6-0.4-2.2-0.7s-0.9-0.6-1.2-1
			c-0.3-0.4-0.4-0.8-0.4-1.3c0-0.9,0.4-1.6,1.1-2.2s1.7-0.9,2.8-0.9c1.2,0,2.2,0.3,2.9,0.9c0.7,0.6,1.1,1.4,1.1,2.4h-1.8
			c0-0.5-0.2-0.9-0.6-1.3s-0.9-0.5-1.6-0.5c-0.7,0-1.2,0.1-1.5,0.4s-0.6,0.7-0.6,1.1c0,0.4,0.2,0.8,0.5,1c0.3,0.2,1,0.4,1.9,0.6
			c0.9,0.2,1.6,0.4,2.2,0.7c0.6,0.3,1,0.6,1.2,1c0.3,0.4,0.4,0.9,0.4,1.4c0,0.9-0.4,1.7-1.1,2.3c-0.8,0.6-1.7,0.9-2.9,0.9
			c-0.8,0-1.6-0.1-2.2-0.4c-0.7-0.3-1.2-0.7-1.5-1.3c-0.4-0.5-0.6-1.1-0.6-1.7h1.8c0,0.6,0.3,1.1,0.7,1.4c0.5,0.4,1,0.5,1.8,0.5
			c0.7,0,1.2-0.1,1.6-0.4C837,1713.8,837.2,1713.4,837.2,1712.9z"/>
		<path d="M845.9,1710.4c0-1.6,0.4-3,1.1-3.9s1.8-1.5,3-1.5c1.3,0,2.3,0.5,3,1.4l0.1-1.2h1.7v10.3c0,1.4-0.4,2.4-1.2,3.2
			s-1.9,1.2-3.3,1.2c-0.8,0-1.5-0.2-2.2-0.5c-0.7-0.3-1.3-0.8-1.7-1.3l0.9-1.1c0.8,1,1.7,1.4,2.8,1.4c0.9,0,1.6-0.2,2.1-0.7
			c0.5-0.5,0.7-1.2,0.7-2.1v-0.9c-0.7,0.8-1.7,1.2-3,1.2c-1.2,0-2.2-0.5-3-1.5C846.2,1713.4,845.9,1712.1,845.9,1710.4z
			 M847.7,1710.6c0,1.2,0.2,2.1,0.7,2.8s1.2,1,2.1,1c1.1,0,2-0.5,2.5-1.6v-4.8c-0.6-1-1.4-1.5-2.5-1.5c-0.9,0-1.6,0.3-2.1,1
			C847.9,1708.2,847.7,1709.2,847.7,1710.6z"/>
		<path d="M859.5,1715.7h-1.8v-15h1.8V1715.7z"/>
		<path d="M868.9,1714.7c-0.7,0.8-1.7,1.2-3.1,1.2c-1.1,0-2-0.3-2.6-1c-0.6-0.7-0.9-1.6-0.9-2.9v-6.9h1.8v6.8c0,1.6,0.7,2.4,2,2.4
			c1.4,0,2.3-0.5,2.8-1.5v-7.7h1.8v10.6h-1.7L868.9,1714.7z"/>
		<path d="M875.8,1702.6v2.6h2v1.4h-2v6.6c0,0.4,0.1,0.7,0.3,1s0.5,0.3,0.9,0.3c0.2,0,0.5,0,0.9-0.1v1.5c-0.5,0.1-0.9,0.2-1.4,0.2
			c-0.8,0-1.4-0.2-1.8-0.7s-0.6-1.2-0.6-2.1v-6.6h-1.9v-1.4h1.9v-2.6H875.8z"/>
		<path d="M884.3,1715.9c-1.4,0-2.6-0.5-3.5-1.4s-1.3-2.2-1.3-3.8v-0.3c0-1,0.2-2,0.6-2.8s1-1.5,1.7-1.9c0.7-0.5,1.5-0.7,2.3-0.7
			c1.4,0,2.4,0.5,3.2,1.4s1.1,2.2,1.1,3.9v0.8h-7.2c0,1,0.3,1.9,0.9,2.5c0.6,0.6,1.3,1,2.2,1c0.6,0,1.2-0.1,1.6-0.4
			c0.4-0.3,0.8-0.6,1.2-1l1.1,0.9C887.4,1715.2,886.1,1715.9,884.3,1715.9z M884.1,1706.5c-0.7,0-1.3,0.3-1.8,0.8
			c-0.5,0.5-0.8,1.3-0.9,2.2h5.3v-0.1c-0.1-0.9-0.3-1.6-0.7-2.1C885.4,1706.7,884.8,1706.5,884.1,1706.5z"/>
		<path d="M892.2,1705.2l0.1,1.3c0.8-1,1.9-1.5,3.2-1.5c2.2,0,3.4,1.3,3.4,3.8v7H897v-7c0-0.8-0.2-1.3-0.5-1.7s-0.9-0.5-1.6-0.5
			c-0.6,0-1.1,0.2-1.5,0.5c-0.4,0.3-0.8,0.7-1,1.2v7.5h-1.8v-10.6H892.2z"/>
		<path d="M901.5,1718.6l-1-0.7c0.6-0.9,0.9-1.7,1-2.6v-1.6h1.8v1.4c0,0.7-0.2,1.3-0.5,2S902,1718.2,901.5,1718.6z"/>
	</g>
	<g class="st1">
		<path d="M684.2,1734.4c0-1,0.2-2,0.6-2.8s1-1.5,1.7-1.9s1.6-0.7,2.5-0.7c1.4,0,2.6,0.5,3.5,1.5s1.3,2.3,1.3,4v0.1
			c0,1-0.2,2-0.6,2.8s-1,1.5-1.7,1.9s-1.6,0.7-2.5,0.7c-1.4,0-2.6-0.5-3.5-1.5s-1.3-2.3-1.3-4V1734.4z M686,1734.6
			c0,1.2,0.3,2.1,0.8,2.8s1.3,1.1,2.2,1.1c0.9,0,1.6-0.4,2.2-1.1s0.8-1.7,0.8-3c0-1.2-0.3-2.1-0.8-2.8s-1.3-1.1-2.2-1.1
			c-0.9,0-1.6,0.4-2.2,1.1S686,1733.2,686,1734.6z"/>
		<path d="M702.6,1738.7c-0.7,0.8-1.7,1.2-3.1,1.2c-1.1,0-2-0.3-2.6-1s-0.9-1.6-0.9-2.9v-6.9h1.8v6.8c0,1.6,0.7,2.4,2,2.4
			c1.4,0,2.3-0.5,2.8-1.5v-7.7h1.8v10.6h-1.7L702.6,1738.7z"/>
		<path d="M718.2,1736.9c0-0.5-0.2-0.9-0.6-1.1s-1-0.5-1.9-0.7s-1.6-0.4-2.2-0.7s-0.9-0.6-1.2-1s-0.4-0.8-0.4-1.3
			c0-0.9,0.4-1.6,1.1-2.2s1.7-0.9,2.8-0.9c1.2,0,2.2,0.3,2.9,0.9s1.1,1.4,1.1,2.4h-1.8c0-0.5-0.2-0.9-0.6-1.3s-0.9-0.5-1.6-0.5
			c-0.7,0-1.2,0.1-1.5,0.4s-0.6,0.7-0.6,1.1c0,0.4,0.2,0.8,0.5,1s1,0.4,1.9,0.6s1.6,0.4,2.2,0.7s1,0.6,1.2,1s0.4,0.9,0.4,1.4
			c0,0.9-0.4,1.7-1.1,2.3s-1.7,0.9-2.9,0.9c-0.8,0-1.6-0.1-2.2-0.4s-1.2-0.7-1.5-1.3s-0.6-1.1-0.6-1.7h1.8c0,0.6,0.3,1.1,0.7,1.4
			s1,0.5,1.8,0.5c0.7,0,1.2-0.1,1.6-0.4S718.2,1737.4,718.2,1736.9z"/>
		<path d="M728.9,1739.7c-0.1-0.2-0.2-0.6-0.3-1.1c-0.8,0.9-1.8,1.3-3,1.3c-1,0-1.9-0.3-2.6-0.9s-1-1.3-1-2.2c0-1.1,0.4-2,1.3-2.6
			s2-0.9,3.5-0.9h1.8v-0.8c0-0.6-0.2-1.1-0.6-1.5s-0.9-0.6-1.7-0.6c-0.6,0-1.2,0.2-1.6,0.5s-0.7,0.7-0.7,1.2h-1.8
			c0-0.5,0.2-1,0.6-1.5s0.9-0.9,1.5-1.2s1.3-0.4,2.1-0.4c1.2,0,2.2,0.3,2.9,0.9s1,1.4,1.1,2.5v4.9c0,1,0.1,1.7,0.4,2.3v0.2H728.9z
			 M725.9,1738.4c0.6,0,1.1-0.1,1.6-0.4s0.9-0.7,1.1-1.1v-2.2h-1.4c-2.2,0-3.3,0.6-3.3,1.9c0,0.6,0.2,1,0.6,1.3
			S725.3,1738.4,725.9,1738.4z"/>
		<path d="M734.9,1729.2l0.1,1.3c0.8-1,1.9-1.5,3.2-1.5c2.2,0,3.4,1.3,3.4,3.8v7h-1.8v-7c0-0.8-0.2-1.3-0.5-1.7s-0.9-0.5-1.6-0.5
			c-0.6,0-1.1,0.2-1.5,0.5s-0.8,0.7-1,1.2v7.5h-1.8v-10.6H734.9z"/>
		<path d="M750.4,1736.9c0-0.5-0.2-0.9-0.6-1.1s-1-0.5-1.9-0.7s-1.6-0.4-2.2-0.7s-0.9-0.6-1.2-1s-0.4-0.8-0.4-1.3
			c0-0.9,0.4-1.6,1.1-2.2s1.7-0.9,2.8-0.9c1.2,0,2.2,0.3,2.9,0.9s1.1,1.4,1.1,2.4h-1.8c0-0.5-0.2-0.9-0.6-1.3s-0.9-0.5-1.6-0.5
			c-0.7,0-1.2,0.1-1.5,0.4s-0.6,0.7-0.6,1.1c0,0.4,0.2,0.8,0.5,1s1,0.4,1.9,0.6s1.6,0.4,2.2,0.7s1,0.6,1.2,1s0.4,0.9,0.4,1.4
			c0,0.9-0.4,1.7-1.1,2.3s-1.7,0.9-2.9,0.9c-0.8,0-1.6-0.1-2.2-0.4s-1.2-0.7-1.5-1.3s-0.6-1.1-0.6-1.7h1.8c0,0.6,0.3,1.1,0.7,1.4
			s1,0.5,1.8,0.5c0.7,0,1.2-0.1,1.6-0.4S750.4,1737.4,750.4,1736.9z"/>
		<path d="M768.4,1734.6c0,1.6-0.4,2.9-1.1,3.9s-1.7,1.5-3,1.5c-1.3,0-2.3-0.4-3-1.2v5.1h-1.8v-14.6h1.7l0.1,1.2
			c0.7-0.9,1.8-1.4,3.1-1.4c1.3,0,2.3,0.5,3,1.4s1.1,2.3,1.1,4V1734.6z M766.6,1734.4c0-1.2-0.3-2.1-0.8-2.8s-1.2-1-2.1-1
			c-1.1,0-1.9,0.5-2.5,1.5v5c0.5,1,1.4,1.4,2.5,1.4c0.9,0,1.6-0.3,2.1-1S766.6,1735.7,766.6,1734.4z"/>
		<path d="M775.8,1730.8c-0.3,0-0.6-0.1-0.9-0.1c-1.2,0-2,0.5-2.4,1.5v7.5h-1.8v-10.6h1.8l0,1.2c0.6-0.9,1.4-1.4,2.5-1.4
			c0.4,0,0.6,0,0.8,0.1V1730.8z"/>
		<path d="M781.7,1739.9c-1.4,0-2.6-0.5-3.5-1.4s-1.3-2.2-1.3-3.8v-0.3c0-1,0.2-2,0.6-2.8s1-1.5,1.7-1.9s1.5-0.7,2.3-0.7
			c1.4,0,2.4,0.5,3.2,1.4s1.1,2.2,1.1,3.9v0.8h-7.2c0,1,0.3,1.9,0.9,2.5s1.3,1,2.2,1c0.6,0,1.2-0.1,1.6-0.4s0.8-0.6,1.2-1l1.1,0.9
			C784.8,1739.2,783.5,1739.9,781.7,1739.9z M781.5,1730.5c-0.7,0-1.3,0.3-1.8,0.8s-0.8,1.3-0.9,2.2h5.3v-0.1
			c-0.1-0.9-0.3-1.6-0.7-2.1S782.2,1730.5,781.5,1730.5z M782.3,1724.7h2.2l-2.6,2.9l-1.5,0L782.3,1724.7z"/>
		<path d="M788.8,1739.7v-9.2h-1.7v-1.4h1.7v-1.1c0-1.1,0.3-2,0.9-2.6s1.5-0.9,2.6-0.9c0.4,0,0.8,0.1,1.2,0.2l-0.1,1.5
			c-0.3-0.1-0.6-0.1-1-0.1c-0.6,0-1,0.2-1.4,0.5s-0.5,0.8-0.5,1.5v1.1h2.3v1.4h-2.3v9.2H788.8z"/>
		<path d="M799,1739.9c-1.4,0-2.6-0.5-3.5-1.4s-1.3-2.2-1.3-3.8v-0.3c0-1,0.2-2,0.6-2.8s1-1.5,1.7-1.9s1.5-0.7,2.3-0.7
			c1.4,0,2.4,0.5,3.2,1.4s1.1,2.2,1.1,3.9v0.8H796c0,1,0.3,1.9,0.9,2.5s1.3,1,2.2,1c0.6,0,1.2-0.1,1.6-0.4s0.8-0.6,1.2-1l1.1,0.9
			C802.1,1739.2,800.8,1739.9,799,1739.9z M798.8,1730.5c-0.7,0-1.3,0.3-1.8,0.8s-0.8,1.3-0.9,2.2h5.3v-0.1
			c-0.1-0.9-0.3-1.6-0.7-2.1S799.5,1730.5,798.8,1730.5z M799.7,1724.7h2.2l-2.6,2.9l-1.5,0L799.7,1724.7z"/>
		<path d="M810.3,1730.8c-0.3,0-0.6-0.1-0.9-0.1c-1.2,0-2,0.5-2.4,1.5v7.5h-1.8v-10.6h1.8l0,1.2c0.6-0.9,1.4-1.4,2.5-1.4
			c0.4,0,0.6,0,0.8,0.1V1730.8z"/>
		<path d="M816.2,1739.9c-1.4,0-2.6-0.5-3.5-1.4s-1.3-2.2-1.3-3.8v-0.3c0-1,0.2-2,0.6-2.8s1-1.5,1.7-1.9s1.5-0.7,2.3-0.7
			c1.4,0,2.4,0.5,3.2,1.4s1.1,2.2,1.1,3.9v0.8h-7.2c0,1,0.3,1.9,0.9,2.5s1.3,1,2.2,1c0.6,0,1.2-0.1,1.6-0.4s0.8-0.6,1.2-1l1.1,0.9
			C819.3,1739.2,817.9,1739.9,816.2,1739.9z M816,1730.5c-0.7,0-1.3,0.3-1.8,0.8s-0.8,1.3-0.9,2.2h5.3v-0.1
			c-0.1-0.9-0.3-1.6-0.7-2.1S816.7,1730.5,816,1730.5z"/>
		<path d="M824.1,1729.2l0.1,1.3c0.8-1,1.9-1.5,3.2-1.5c2.2,0,3.4,1.3,3.4,3.8v7h-1.8v-7c0-0.8-0.2-1.3-0.5-1.7s-0.9-0.5-1.6-0.5
			c-0.6,0-1.1,0.2-1.5,0.5s-0.8,0.7-1,1.2v7.5h-1.8v-10.6H824.1z"/>
		<path d="M837.7,1738.5c0.6,0,1.2-0.2,1.7-0.6s0.7-0.9,0.8-1.5h1.7c0,0.6-0.2,1.2-0.6,1.7s-0.9,1-1.5,1.3s-1.3,0.5-2,0.5
			c-1.4,0-2.6-0.5-3.4-1.4s-1.3-2.3-1.3-3.9v-0.3c0-1,0.2-1.9,0.6-2.7s0.9-1.4,1.6-1.9s1.5-0.7,2.5-0.7c1.2,0,2.2,0.4,3,1.1
			s1.2,1.6,1.3,2.8h-1.7c-0.1-0.7-0.3-1.2-0.8-1.7s-1-0.7-1.7-0.7c-0.9,0-1.6,0.3-2.1,1s-0.8,1.6-0.8,2.9v0.3c0,1.2,0.2,2.2,0.8,2.8
			S836.7,1738.5,837.7,1738.5z"/>
		<path d="M848.3,1739.9c-1.4,0-2.6-0.5-3.5-1.4s-1.3-2.2-1.3-3.8v-0.3c0-1,0.2-2,0.6-2.8s1-1.5,1.7-1.9s1.5-0.7,2.3-0.7
			c1.4,0,2.4,0.5,3.2,1.4s1.1,2.2,1.1,3.9v0.8h-7.2c0,1,0.3,1.9,0.9,2.5s1.3,1,2.2,1c0.6,0,1.2-0.1,1.6-0.4s0.8-0.6,1.2-1l1.1,0.9
			C851.4,1739.2,850,1739.9,848.3,1739.9z M848.1,1730.5c-0.7,0-1.3,0.3-1.8,0.8s-0.8,1.3-0.9,2.2h5.3v-0.1
			c-0.1-0.9-0.3-1.6-0.7-2.1S848.8,1730.5,848.1,1730.5z"/>
		<path d="M854.5,1738.8c0-0.3,0.1-0.6,0.3-0.8s0.5-0.3,0.8-0.3s0.7,0.1,0.8,0.3s0.3,0.5,0.3,0.8c0,0.3-0.1,0.5-0.3,0.8
			s-0.5,0.3-0.8,0.3s-0.6-0.1-0.8-0.3S854.5,1739.1,854.5,1738.8z"/>
	</g>
	<g class="st1">
		<path d="M676.1,1751h-4.6v12.7h-1.9V1751h-4.6v-1.5h11V1751z"/>
		<path d="M682.3,1754.8c-0.3,0-0.6-0.1-0.9-0.1c-1.2,0-2,0.5-2.4,1.5v7.5h-1.8v-10.6h1.8l0,1.2c0.6-0.9,1.4-1.4,2.5-1.4
			c0.4,0,0.6,0,0.8,0.1V1754.8z"/>
		<path d="M683.3,1758.4c0-1,0.2-2,0.6-2.8s1-1.5,1.7-1.9s1.6-0.7,2.5-0.7c1.4,0,2.6,0.5,3.5,1.5s1.3,2.3,1.3,4v0.1
			c0,1-0.2,2-0.6,2.8s-1,1.5-1.7,1.9s-1.6,0.7-2.5,0.7c-1.4,0-2.6-0.5-3.5-1.5s-1.3-2.3-1.3-4V1758.4z M685.1,1758.6
			c0,1.2,0.3,2.1,0.8,2.8s1.3,1.1,2.2,1.1c0.9,0,1.6-0.4,2.2-1.1s0.8-1.7,0.8-3c0-1.2-0.3-2.1-0.8-2.8s-1.3-1.1-2.2-1.1
			c-0.9,0-1.6,0.4-2.2,1.1S685.1,1757.2,685.1,1758.6z"/>
		<path d="M701.7,1762.7c-0.7,0.8-1.7,1.2-3.1,1.2c-1.1,0-2-0.3-2.6-1s-0.9-1.6-0.9-2.9v-6.9h1.8v6.8c0,1.6,0.7,2.4,2,2.4
			c1.4,0,2.3-0.5,2.8-1.5v-7.7h1.8v10.6h-1.7L701.7,1762.7z"/>
		<path d="M709.7,1761.3l2.6-8.1h1.8l-3.8,10.6H709l-3.8-10.6h1.8L709.7,1761.3z"/>
		<path d="M720.1,1763.9c-1.4,0-2.6-0.5-3.5-1.4s-1.3-2.2-1.3-3.8v-0.3c0-1,0.2-2,0.6-2.8s1-1.5,1.7-1.9s1.5-0.7,2.3-0.7
			c1.4,0,2.4,0.5,3.2,1.4s1.1,2.2,1.1,3.9v0.8h-7.2c0,1,0.3,1.9,0.9,2.5s1.3,1,2.2,1c0.6,0,1.2-0.1,1.6-0.4s0.8-0.6,1.2-1l1.1,0.9
			C723.2,1763.2,721.9,1763.9,720.1,1763.9z M719.9,1754.5c-0.7,0-1.3,0.3-1.8,0.8s-0.8,1.3-0.9,2.2h5.3v-0.1
			c-0.1-0.9-0.3-1.6-0.7-2.1S720.7,1754.5,719.9,1754.5z"/>
		<path d="M731.4,1754.8c-0.3,0-0.6-0.1-0.9-0.1c-1.2,0-2,0.5-2.4,1.5v7.5h-1.8v-10.6h1.8l0,1.2c0.6-0.9,1.4-1.4,2.5-1.4
			c0.4,0,0.6,0,0.8,0.1V1754.8z"/>
		<path d="M744.2,1760.9c0-0.5-0.2-0.9-0.6-1.1s-1-0.5-1.9-0.7s-1.6-0.4-2.2-0.7s-0.9-0.6-1.2-1s-0.4-0.8-0.4-1.3
			c0-0.9,0.4-1.6,1.1-2.2s1.7-0.9,2.8-0.9c1.2,0,2.2,0.3,2.9,0.9s1.1,1.4,1.1,2.4h-1.8c0-0.5-0.2-0.9-0.6-1.3s-0.9-0.5-1.6-0.5
			c-0.7,0-1.2,0.1-1.5,0.4s-0.6,0.7-0.6,1.1c0,0.4,0.2,0.8,0.5,1s1,0.4,1.9,0.6s1.6,0.4,2.2,0.7s1,0.6,1.2,1s0.4,0.9,0.4,1.4
			c0,0.9-0.4,1.7-1.1,2.3s-1.7,0.9-2.9,0.9c-0.8,0-1.6-0.1-2.2-0.4s-1.2-0.7-1.5-1.3s-0.6-1.1-0.6-1.7h1.8c0,0.6,0.3,1.1,0.7,1.4
			s1,0.5,1.8,0.5c0.7,0,1.2-0.1,1.6-0.4S744.2,1761.4,744.2,1760.9z"/>
		<path d="M747.9,1758.4c0-1,0.2-2,0.6-2.8s1-1.5,1.7-1.9s1.6-0.7,2.5-0.7c1.4,0,2.6,0.5,3.5,1.5s1.3,2.3,1.3,4v0.1
			c0,1-0.2,2-0.6,2.8s-1,1.5-1.7,1.9s-1.6,0.7-2.5,0.7c-1.4,0-2.6-0.5-3.5-1.5s-1.3-2.3-1.3-4V1758.4z M749.7,1758.6
			c0,1.2,0.3,2.1,0.8,2.8s1.3,1.1,2.2,1.1c0.9,0,1.6-0.4,2.2-1.1s0.8-1.7,0.8-3c0-1.2-0.3-2.1-0.8-2.8s-1.3-1.1-2.2-1.1
			c-0.9,0-1.6,0.4-2.2,1.1S749.7,1757.2,749.7,1758.6z"/>
		<path d="M761.5,1753.2l0.1,1.3c0.8-1,1.9-1.5,3.2-1.5c2.2,0,3.4,1.3,3.4,3.8v7h-1.8v-7c0-0.8-0.2-1.3-0.5-1.7s-0.9-0.5-1.6-0.5
			c-0.6,0-1.1,0.2-1.5,0.5c-0.4,0.3-0.8,0.7-1,1.2v7.5h-1.8v-10.6H761.5z"/>
		<path d="M784.7,1758.6c0,1.6-0.4,2.9-1.1,3.9s-1.7,1.5-3,1.5c-1.3,0-2.4-0.5-3.1-1.4l-0.1,1.2h-1.7v-15h1.8v5.6
			c0.7-0.9,1.7-1.4,3-1.4c1.3,0,2.3,0.5,3,1.5s1.1,2.3,1.1,4V1758.6z M782.9,1758.4c0-1.2-0.2-2.2-0.7-2.9c-0.5-0.7-1.2-1-2.1-1
			c-1.2,0-2,0.6-2.6,1.7v4.6c0.6,1.1,1.4,1.7,2.6,1.7c0.9,0,1.5-0.3,2-1C782.7,1760.7,782.9,1759.7,782.9,1758.4z"/>
		<path d="M786.5,1758.4c0-1,0.2-2,0.6-2.8c0.4-0.8,1-1.5,1.7-1.9c0.7-0.4,1.6-0.7,2.5-0.7c1.4,0,2.6,0.5,3.5,1.5s1.3,2.3,1.3,4v0.1
			c0,1-0.2,2-0.6,2.8c-0.4,0.8-1,1.5-1.7,1.9s-1.6,0.7-2.5,0.7c-1.4,0-2.6-0.5-3.5-1.5s-1.3-2.3-1.3-4V1758.4z M788.3,1758.6
			c0,1.2,0.3,2.1,0.8,2.8c0.5,0.7,1.3,1.1,2.2,1.1c0.9,0,1.6-0.4,2.2-1.1c0.5-0.7,0.8-1.7,0.8-3c0-1.2-0.3-2.1-0.8-2.8
			c-0.5-0.7-1.3-1.1-2.2-1.1c-0.9,0-1.6,0.4-2.2,1.1S788.3,1757.2,788.3,1758.6z"/>
		<path d="M800.1,1753.2l0.1,1.3c0.8-1,1.9-1.5,3.2-1.5c2.2,0,3.4,1.3,3.4,3.8v7h-1.8v-7c0-0.8-0.2-1.3-0.5-1.7s-0.9-0.5-1.6-0.5
			c-0.6,0-1.1,0.2-1.5,0.5c-0.4,0.3-0.8,0.7-1,1.2v7.5h-1.8v-10.6H800.1z"/>
		<path d="M811.2,1754.4c0.8-1,1.8-1.5,3.1-1.5c2.2,0,3.4,1.3,3.4,3.8v7h-1.8v-7c0-0.8-0.2-1.3-0.5-1.7s-0.9-0.5-1.6-0.5
			c-0.6,0-1.1,0.2-1.5,0.5c-0.4,0.3-0.8,0.7-1,1.2v7.5h-1.8v-15h1.8V1754.4z"/>
		<path d="M824.8,1763.9c-1.4,0-2.6-0.5-3.5-1.4s-1.3-2.2-1.3-3.8v-0.3c0-1,0.2-2,0.6-2.8s1-1.5,1.7-1.9c0.7-0.5,1.5-0.7,2.3-0.7
			c1.4,0,2.4,0.5,3.2,1.4s1.1,2.2,1.1,3.9v0.8h-7.2c0,1,0.3,1.9,0.9,2.5c0.6,0.6,1.3,1,2.2,1c0.6,0,1.2-0.1,1.6-0.4
			c0.4-0.3,0.8-0.6,1.2-1l1.1,0.9C827.9,1763.2,826.6,1763.9,824.8,1763.9z M824.6,1754.5c-0.7,0-1.3,0.3-1.8,0.8
			c-0.5,0.5-0.8,1.3-0.9,2.2h5.3v-0.1c-0.1-0.9-0.3-1.6-0.7-2.1C826,1754.7,825.4,1754.5,824.6,1754.5z"/>
		<path d="M837.6,1762.7c-0.7,0.8-1.7,1.2-3.1,1.2c-1.1,0-2-0.3-2.6-1c-0.6-0.7-0.9-1.6-0.9-2.9v-6.9h1.8v6.8c0,1.6,0.7,2.4,2,2.4
			c1.4,0,2.3-0.5,2.8-1.5v-7.7h1.8v10.6h-1.7L837.6,1762.7z"/>
		<path d="M847.2,1754.8c-0.3,0-0.6-0.1-0.9-0.1c-1.2,0-2,0.5-2.4,1.5v7.5h-1.8v-10.6h1.8l0,1.2c0.6-0.9,1.4-1.4,2.5-1.4
			c0.4,0,0.6,0,0.8,0.1V1754.8z"/>
		<path d="M855.5,1753.2l0.1,1.3c0.8-1,1.9-1.5,3.2-1.5c2.2,0,3.4,1.3,3.4,3.8v7h-1.8v-7c0-0.8-0.2-1.3-0.5-1.7s-0.9-0.5-1.6-0.5
			c-0.6,0-1.1,0.2-1.5,0.5c-0.4,0.3-0.8,0.7-1,1.2v7.5h-1.8v-10.6H855.5z"/>
		<path d="M864.2,1753.5l-1-0.7c0.6-0.8,0.9-1.7,0.9-2.7v-1.4h1.8v1.3c0,0.7-0.2,1.3-0.5,1.9
			C865.1,1752.6,864.7,1753.1,864.2,1753.5z"/>
		<path d="M874.1,1763.7c-0.1-0.2-0.2-0.6-0.3-1.1c-0.8,0.9-1.8,1.3-3,1.3c-1,0-1.9-0.3-2.6-0.9c-0.7-0.6-1-1.3-1-2.2
			c0-1.1,0.4-2,1.3-2.6c0.8-0.6,2-0.9,3.5-0.9h1.8v-0.8c0-0.6-0.2-1.1-0.6-1.5c-0.4-0.4-0.9-0.6-1.7-0.6c-0.6,0-1.2,0.2-1.6,0.5
			c-0.4,0.3-0.7,0.7-0.7,1.2h-1.8c0-0.5,0.2-1,0.6-1.5c0.4-0.5,0.9-0.9,1.5-1.2c0.6-0.3,1.3-0.4,2.1-0.4c1.2,0,2.2,0.3,2.9,0.9
			c0.7,0.6,1,1.4,1.1,2.5v4.9c0,1,0.1,1.7,0.4,2.3v0.2H874.1z M871.1,1762.4c0.6,0,1.1-0.1,1.6-0.4s0.9-0.7,1.1-1.1v-2.2h-1.4
			c-2.2,0-3.3,0.6-3.3,1.9c0,0.6,0.2,1,0.6,1.3C870,1762.2,870.5,1762.4,871.1,1762.4z"/>
	</g>
	<g class="st1">
		<path d="M652.2,1777.2v11.8c0,2-0.9,3-2.8,3c-0.4,0-0.8-0.1-1.1-0.2v-1.4c0.2,0.1,0.5,0.1,0.8,0.1c0.4,0,0.7-0.1,0.9-0.3
			c0.2-0.2,0.3-0.6,0.3-1.1v-11.8H652.2z M650.2,1774.4c0-0.3,0.1-0.5,0.3-0.7s0.4-0.3,0.8-0.3c0.4,0,0.6,0.1,0.8,0.3
			s0.3,0.4,0.3,0.7s-0.1,0.5-0.3,0.7s-0.4,0.3-0.8,0.3s-0.6-0.1-0.8-0.3S650.2,1774.7,650.2,1774.4z"/>
		<path d="M661.6,1787.7c-0.1-0.2-0.2-0.6-0.3-1.1c-0.8,0.9-1.8,1.3-3,1.3c-1,0-1.9-0.3-2.6-0.9s-1-1.3-1-2.2c0-1.1,0.4-2,1.3-2.6
			s2-0.9,3.5-0.9h1.8v-0.8c0-0.6-0.2-1.1-0.6-1.5s-0.9-0.6-1.7-0.6c-0.6,0-1.2,0.2-1.6,0.5s-0.7,0.7-0.7,1.2H655
			c0-0.5,0.2-1,0.6-1.5s0.9-0.9,1.5-1.2s1.3-0.4,2.1-0.4c1.2,0,2.2,0.3,2.9,0.9s1,1.4,1.1,2.5v4.9c0,1,0.1,1.7,0.4,2.3v0.2H661.6z
			 M658.6,1786.4c0.6,0,1.1-0.1,1.6-0.4s0.9-0.7,1.1-1.1v-2.2h-1.4c-2.2,0-3.3,0.6-3.3,1.9c0,0.6,0.2,1,0.6,1.3
			S658,1786.4,658.6,1786.4z"/>
		<path d="M667.7,1777.2l0,1.2c0.8-0.9,1.8-1.4,3.1-1.4c1.5,0,2.5,0.6,3,1.7c0.4-0.5,0.8-0.9,1.4-1.2s1.2-0.5,2-0.5
			c2.3,0,3.5,1.2,3.5,3.7v7.1H679v-7c0-0.8-0.2-1.3-0.5-1.7s-0.9-0.6-1.7-0.6c-0.7,0-1.2,0.2-1.7,0.6s-0.7,0.9-0.8,1.6v7h-1.8v-6.9
			c0-1.5-0.8-2.3-2.3-2.3c-1.2,0-2,0.5-2.4,1.5v7.7H666v-10.6H667.7z"/>
		<path d="M690,1787.7c-0.1-0.2-0.2-0.6-0.3-1.1c-0.8,0.9-1.8,1.3-3,1.3c-1,0-1.9-0.3-2.6-0.9s-1-1.3-1-2.2c0-1.1,0.4-2,1.3-2.6
			s2-0.9,3.5-0.9h1.8v-0.8c0-0.6-0.2-1.1-0.6-1.5s-0.9-0.6-1.7-0.6c-0.6,0-1.2,0.2-1.6,0.5s-0.7,0.7-0.7,1.2h-1.8
			c0-0.5,0.2-1,0.6-1.5s0.9-0.9,1.5-1.2s1.3-0.4,2.1-0.4c1.2,0,2.2,0.3,2.9,0.9s1,1.4,1.1,2.5v4.9c0,1,0.1,1.7,0.4,2.3v0.2H690z
			 M687,1786.4c0.6,0,1.1-0.1,1.6-0.4s0.9-0.7,1.1-1.1v-2.2h-1.4c-2.2,0-3.3,0.6-3.3,1.9c0,0.6,0.2,1,0.6,1.3
			S686.4,1786.4,687,1786.4z"/>
		<path d="M694.4,1774.4c0-0.3,0.1-0.5,0.3-0.7s0.4-0.3,0.8-0.3s0.6,0.1,0.8,0.3s0.3,0.4,0.3,0.7s-0.1,0.5-0.3,0.7s-0.4,0.3-0.8,0.3
			s-0.6-0.1-0.8-0.3S694.4,1774.7,694.4,1774.4z M696.3,1787.7h-1.8v-10.6h1.8V1787.7z"/>
		<path d="M705.4,1784.9c0-0.5-0.2-0.9-0.6-1.1s-1-0.5-1.9-0.7s-1.6-0.4-2.2-0.7s-0.9-0.6-1.2-1s-0.4-0.8-0.4-1.3
			c0-0.9,0.4-1.6,1.1-2.2s1.7-0.9,2.8-0.9c1.2,0,2.2,0.3,2.9,0.9s1.1,1.4,1.1,2.4h-1.8c0-0.5-0.2-0.9-0.6-1.3s-0.9-0.5-1.6-0.5
			c-0.7,0-1.2,0.1-1.5,0.4s-0.6,0.7-0.6,1.1c0,0.4,0.2,0.8,0.5,1s1,0.4,1.9,0.6s1.6,0.4,2.2,0.7s1,0.6,1.2,1s0.4,0.9,0.4,1.4
			c0,0.9-0.4,1.7-1.1,2.3s-1.7,0.9-2.9,0.9c-0.8,0-1.6-0.1-2.2-0.4s-1.2-0.7-1.5-1.3s-0.6-1.1-0.6-1.7h1.8c0,0.6,0.3,1.1,0.7,1.4
			s1,0.5,1.8,0.5c0.7,0,1.2-0.1,1.6-0.4S705.4,1785.4,705.4,1784.9z"/>
		<path d="M718.9,1787.9c-1.4,0-2.6-0.5-3.5-1.4s-1.3-2.2-1.3-3.8v-0.3c0-1,0.2-2,0.6-2.8s1-1.5,1.7-1.9s1.5-0.7,2.3-0.7
			c1.4,0,2.4,0.5,3.2,1.4s1.1,2.2,1.1,3.9v0.8h-7.2c0,1,0.3,1.9,0.9,2.5s1.3,1,2.2,1c0.6,0,1.2-0.1,1.6-0.4s0.8-0.6,1.2-1l1.1,0.9
			C722,1787.2,720.7,1787.9,718.9,1787.9z M718.7,1778.5c-0.7,0-1.3,0.3-1.8,0.8s-0.8,1.3-0.9,2.2h5.3v-0.1
			c-0.1-0.9-0.3-1.6-0.7-2.1S719.4,1778.5,718.7,1778.5z M719.5,1772.7h2.2l-2.6,2.9l-1.5,0L719.5,1772.7z"/>
		<path d="M727.5,1774.6v2.6h2v1.4h-2v6.6c0,0.4,0.1,0.7,0.3,1s0.5,0.3,0.9,0.3c0.2,0,0.5,0,0.9-0.1v1.5c-0.5,0.1-0.9,0.2-1.4,0.2
			c-0.8,0-1.4-0.2-1.8-0.7s-0.6-1.2-0.6-2.1v-6.6h-1.9v-1.4h1.9v-2.6H727.5z"/>
		<path d="M736,1787.9c-1.4,0-2.6-0.5-3.5-1.4s-1.3-2.2-1.3-3.8v-0.3c0-1,0.2-2,0.6-2.8s1-1.5,1.7-1.9s1.5-0.7,2.3-0.7
			c1.4,0,2.4,0.5,3.2,1.4s1.1,2.2,1.1,3.9v0.8H733c0,1,0.3,1.9,0.9,2.5s1.3,1,2.2,1c0.6,0,1.2-0.1,1.6-0.4s0.8-0.6,1.2-1l1.1,0.9
			C739.1,1787.2,737.8,1787.9,736,1787.9z M735.8,1778.5c-0.7,0-1.3,0.3-1.8,0.8s-0.8,1.3-0.9,2.2h5.3v-0.1
			c-0.1-0.9-0.3-1.6-0.7-2.1S736.5,1778.5,735.8,1778.5z M736.7,1772.7h2.2l-2.6,2.9l-1.5,0L736.7,1772.7z"/>
		<path d="M753.7,1787.7c-0.1-0.2-0.2-0.6-0.3-1.1c-0.8,0.9-1.8,1.3-3,1.3c-1,0-1.9-0.3-2.6-0.9s-1-1.3-1-2.2c0-1.1,0.4-2,1.3-2.6
			s2-0.9,3.5-0.9h1.8v-0.8c0-0.6-0.2-1.1-0.6-1.5s-0.9-0.6-1.7-0.6c-0.6,0-1.2,0.2-1.6,0.5s-0.7,0.7-0.7,1.2h-1.8
			c0-0.5,0.2-1,0.6-1.5s0.9-0.9,1.5-1.2s1.3-0.4,2.1-0.4c1.2,0,2.2,0.3,2.9,0.9s1,1.4,1.1,2.5v4.9c0,1,0.1,1.7,0.4,2.3v0.2H753.7z
			 M750.7,1786.4c0.6,0,1.1-0.1,1.6-0.4s0.9-0.7,1.1-1.1v-2.2H752c-2.2,0-3.3,0.6-3.3,1.9c0,0.6,0.2,1,0.6,1.3
			S750.1,1786.4,750.7,1786.4z"/>
		<path d="M764.6,1786.7c-0.7,0.8-1.7,1.2-3.1,1.2c-1.1,0-2-0.3-2.6-1s-0.9-1.6-0.9-2.9v-6.9h1.8v6.8c0,1.6,0.7,2.4,2,2.4
			c1.4,0,2.3-0.5,2.8-1.5v-7.7h1.8v10.6h-1.7L764.6,1786.7z"/>
		<path d="M775.2,1784.9c0-0.5-0.2-0.9-0.6-1.1c-0.4-0.3-1-0.5-1.9-0.7c-0.9-0.2-1.6-0.4-2.2-0.7s-0.9-0.6-1.2-1
			c-0.3-0.4-0.4-0.8-0.4-1.3c0-0.9,0.4-1.6,1.1-2.2s1.7-0.9,2.8-0.9c1.2,0,2.2,0.3,2.9,0.9c0.7,0.6,1.1,1.4,1.1,2.4h-1.8
			c0-0.5-0.2-0.9-0.6-1.3s-0.9-0.5-1.6-0.5c-0.7,0-1.2,0.1-1.5,0.4s-0.6,0.7-0.6,1.1c0,0.4,0.2,0.8,0.5,1c0.3,0.2,1,0.4,1.9,0.6
			c0.9,0.2,1.6,0.4,2.2,0.7c0.6,0.3,1,0.6,1.2,1c0.3,0.4,0.4,0.9,0.4,1.4c0,0.9-0.4,1.7-1.1,2.3c-0.8,0.6-1.7,0.9-2.9,0.9
			c-0.8,0-1.6-0.1-2.2-0.4c-0.7-0.3-1.2-0.7-1.5-1.3c-0.4-0.5-0.6-1.1-0.6-1.7h1.8c0,0.6,0.3,1.1,0.7,1.4c0.5,0.4,1,0.5,1.8,0.5
			c0.7,0,1.2-0.1,1.6-0.4C775,1785.8,775.2,1785.4,775.2,1784.9z"/>
		<path d="M785.5,1784.9c0-0.5-0.2-0.9-0.6-1.1c-0.4-0.3-1-0.5-1.9-0.7c-0.9-0.2-1.6-0.4-2.2-0.7s-0.9-0.6-1.2-1
			c-0.3-0.4-0.4-0.8-0.4-1.3c0-0.9,0.4-1.6,1.1-2.2s1.7-0.9,2.8-0.9c1.2,0,2.2,0.3,2.9,0.9c0.7,0.6,1.1,1.4,1.1,2.4h-1.8
			c0-0.5-0.2-0.9-0.6-1.3s-0.9-0.5-1.6-0.5c-0.7,0-1.2,0.1-1.5,0.4s-0.6,0.7-0.6,1.1c0,0.4,0.2,0.8,0.5,1c0.3,0.2,1,0.4,1.9,0.6
			c0.9,0.2,1.6,0.4,2.2,0.7c0.6,0.3,1,0.6,1.2,1c0.3,0.4,0.4,0.9,0.4,1.4c0,0.9-0.4,1.7-1.1,2.3c-0.8,0.6-1.7,0.9-2.9,0.9
			c-0.8,0-1.6-0.1-2.2-0.4c-0.7-0.3-1.2-0.7-1.5-1.3c-0.4-0.5-0.6-1.1-0.6-1.7h1.8c0,0.6,0.3,1.1,0.7,1.4c0.5,0.4,1,0.5,1.8,0.5
			c0.7,0,1.2-0.1,1.6-0.4C785.3,1785.8,785.5,1785.4,785.5,1784.9z"/>
		<path d="M789.7,1774.4c0-0.3,0.1-0.5,0.3-0.7c0.2-0.2,0.4-0.3,0.8-0.3s0.6,0.1,0.8,0.3c0.2,0.2,0.3,0.4,0.3,0.7s-0.1,0.5-0.3,0.7
			c-0.2,0.2-0.4,0.3-0.8,0.3s-0.6-0.1-0.8-0.3C789.8,1774.9,789.7,1774.7,789.7,1774.4z M791.7,1787.7h-1.8v-10.6h1.8V1787.7z"/>
		<path d="M806,1787.7c-0.1-0.2-0.2-0.6-0.3-1.1c-0.8,0.9-1.8,1.3-3,1.3c-1,0-1.9-0.3-2.6-0.9c-0.7-0.6-1-1.3-1-2.2
			c0-1.1,0.4-2,1.3-2.6c0.8-0.6,2-0.9,3.5-0.9h1.8v-0.8c0-0.6-0.2-1.1-0.6-1.5c-0.4-0.4-0.9-0.6-1.7-0.6c-0.6,0-1.2,0.2-1.6,0.5
			c-0.4,0.3-0.7,0.7-0.7,1.2h-1.8c0-0.5,0.2-1,0.6-1.5c0.4-0.5,0.9-0.9,1.5-1.2c0.6-0.3,1.3-0.4,2.1-0.4c1.2,0,2.2,0.3,2.9,0.9
			c0.7,0.6,1,1.4,1.1,2.5v4.9c0,1,0.1,1.7,0.4,2.3v0.2H806z M803,1786.4c0.6,0,1.1-0.1,1.6-0.4s0.9-0.7,1.1-1.1v-2.2h-1.4
			c-2.2,0-3.3,0.6-3.3,1.9c0,0.6,0.2,1,0.6,1.3C802,1786.2,802.4,1786.4,803,1786.4z"/>
		<path d="M814.6,1786.5c0.6,0,1.2-0.2,1.7-0.6c0.5-0.4,0.7-0.9,0.8-1.5h1.7c0,0.6-0.2,1.2-0.6,1.7c-0.4,0.5-0.9,1-1.5,1.3
			c-0.6,0.3-1.3,0.5-2,0.5c-1.4,0-2.6-0.5-3.4-1.4s-1.3-2.3-1.3-3.9v-0.3c0-1,0.2-1.9,0.6-2.7c0.4-0.8,0.9-1.4,1.6-1.9
			c0.7-0.4,1.5-0.7,2.5-0.7c1.2,0,2.2,0.4,3,1.1c0.8,0.7,1.2,1.6,1.3,2.8h-1.7c-0.1-0.7-0.3-1.2-0.8-1.7c-0.5-0.4-1-0.7-1.7-0.7
			c-0.9,0-1.6,0.3-2.1,1c-0.5,0.7-0.8,1.6-0.8,2.9v0.3c0,1.2,0.3,2.2,0.8,2.8C813,1786.1,813.7,1786.5,814.6,1786.5z"/>
		<path d="M825.1,1786.5c0.6,0,1.2-0.2,1.7-0.6c0.5-0.4,0.7-0.9,0.8-1.5h1.7c0,0.6-0.2,1.2-0.6,1.7c-0.4,0.5-0.9,1-1.5,1.3
			c-0.6,0.3-1.3,0.5-2,0.5c-1.4,0-2.6-0.5-3.4-1.4s-1.3-2.3-1.3-3.9v-0.3c0-1,0.2-1.9,0.6-2.7c0.4-0.8,0.9-1.4,1.6-1.9
			c0.7-0.4,1.5-0.7,2.5-0.7c1.2,0,2.2,0.4,3,1.1c0.8,0.7,1.2,1.6,1.3,2.8h-1.7c-0.1-0.7-0.3-1.2-0.8-1.7c-0.5-0.4-1-0.7-1.7-0.7
			c-0.9,0-1.6,0.3-2.1,1c-0.5,0.7-0.8,1.6-0.8,2.9v0.3c0,1.2,0.3,2.2,0.8,2.8C823.4,1786.1,824.2,1786.5,825.1,1786.5z"/>
		<path d="M835.7,1787.9c-1.4,0-2.6-0.5-3.5-1.4s-1.3-2.2-1.3-3.8v-0.3c0-1,0.2-2,0.6-2.8s1-1.5,1.7-1.9c0.7-0.5,1.5-0.7,2.3-0.7
			c1.4,0,2.4,0.5,3.2,1.4s1.1,2.2,1.1,3.9v0.8h-7.2c0,1,0.3,1.9,0.9,2.5c0.6,0.6,1.3,1,2.2,1c0.6,0,1.2-0.1,1.6-0.4
			c0.4-0.3,0.8-0.6,1.2-1l1.1,0.9C838.8,1787.2,837.5,1787.9,835.7,1787.9z M835.5,1778.5c-0.7,0-1.3,0.3-1.8,0.8
			c-0.5,0.5-0.8,1.3-0.9,2.2h5.3v-0.1c-0.1-0.9-0.3-1.6-0.7-2.1C836.8,1778.7,836.2,1778.5,835.5,1778.5z"/>
		<path d="M848.1,1784.9c0-0.5-0.2-0.9-0.6-1.1c-0.4-0.3-1-0.5-1.9-0.7c-0.9-0.2-1.6-0.4-2.2-0.7s-0.9-0.6-1.2-1
			c-0.3-0.4-0.4-0.8-0.4-1.3c0-0.9,0.4-1.6,1.1-2.2s1.7-0.9,2.8-0.9c1.2,0,2.2,0.3,2.9,0.9c0.7,0.6,1.1,1.4,1.1,2.4H848
			c0-0.5-0.2-0.9-0.6-1.3s-0.9-0.5-1.6-0.5c-0.7,0-1.2,0.1-1.5,0.4s-0.6,0.7-0.6,1.1c0,0.4,0.2,0.8,0.5,1c0.3,0.2,1,0.4,1.9,0.6
			c0.9,0.2,1.6,0.4,2.2,0.7c0.6,0.3,1,0.6,1.2,1c0.3,0.4,0.4,0.9,0.4,1.4c0,0.9-0.4,1.7-1.1,2.3c-0.8,0.6-1.7,0.9-2.9,0.9
			c-0.8,0-1.6-0.1-2.2-0.4c-0.7-0.3-1.2-0.7-1.5-1.3c-0.4-0.5-0.6-1.1-0.6-1.7h1.8c0,0.6,0.3,1.1,0.7,1.4c0.5,0.4,1,0.5,1.8,0.5
			c0.7,0,1.2-0.1,1.6-0.4C847.9,1785.8,848.1,1785.4,848.1,1784.9z"/>
		<path d="M858.4,1784.9c0-0.5-0.2-0.9-0.6-1.1c-0.4-0.3-1-0.5-1.9-0.7c-0.9-0.2-1.6-0.4-2.2-0.7s-0.9-0.6-1.2-1
			c-0.3-0.4-0.4-0.8-0.4-1.3c0-0.9,0.4-1.6,1.1-2.2s1.7-0.9,2.8-0.9c1.2,0,2.2,0.3,2.9,0.9c0.7,0.6,1.1,1.4,1.1,2.4h-1.8
			c0-0.5-0.2-0.9-0.6-1.3s-0.9-0.5-1.6-0.5c-0.7,0-1.2,0.1-1.5,0.4s-0.6,0.7-0.6,1.1c0,0.4,0.2,0.8,0.5,1c0.3,0.2,1,0.4,1.9,0.6
			c0.9,0.2,1.6,0.4,2.2,0.7c0.6,0.3,1,0.6,1.2,1c0.3,0.4,0.4,0.9,0.4,1.4c0,0.9-0.4,1.7-1.1,2.3c-0.8,0.6-1.7,0.9-2.9,0.9
			c-0.8,0-1.6-0.1-2.2-0.4c-0.7-0.3-1.2-0.7-1.5-1.3c-0.4-0.5-0.6-1.1-0.6-1.7h1.8c0,0.6,0.3,1.1,0.7,1.4c0.5,0.4,1,0.5,1.8,0.5
			c0.7,0,1.2-0.1,1.6-0.4C858.2,1785.8,858.4,1785.4,858.4,1784.9z"/>
		<path d="M862.6,1774.4c0-0.3,0.1-0.5,0.3-0.7c0.2-0.2,0.4-0.3,0.8-0.3s0.6,0.1,0.8,0.3c0.2,0.2,0.3,0.4,0.3,0.7s-0.1,0.5-0.3,0.7
			c-0.2,0.2-0.4,0.3-0.8,0.3s-0.6-0.1-0.8-0.3C862.6,1774.9,862.6,1774.7,862.6,1774.4z M864.5,1787.7h-1.8v-10.6h1.8V1787.7z"/>
		<path d="M876.3,1782.6c0,1.6-0.4,2.9-1.1,3.9s-1.7,1.5-3,1.5c-1.3,0-2.4-0.5-3.1-1.4l-0.1,1.2h-1.7v-15h1.8v5.6
			c0.7-0.9,1.7-1.4,3-1.4c1.3,0,2.3,0.5,3,1.5s1.1,2.3,1.1,4V1782.6z M874.5,1782.4c0-1.2-0.2-2.2-0.7-2.9c-0.5-0.7-1.2-1-2.1-1
			c-1.2,0-2,0.6-2.6,1.7v4.6c0.6,1.1,1.4,1.7,2.6,1.7c0.9,0,1.5-0.3,2-1C874.3,1784.7,874.5,1783.7,874.5,1782.4z"/>
		<path d="M880.6,1787.7h-1.8v-15h1.8V1787.7z"/>
		<path d="M887.9,1787.9c-1.4,0-2.6-0.5-3.5-1.4s-1.3-2.2-1.3-3.8v-0.3c0-1,0.2-2,0.6-2.8s1-1.5,1.7-1.9c0.7-0.5,1.5-0.7,2.3-0.7
			c1.4,0,2.4,0.5,3.2,1.4s1.1,2.2,1.1,3.9v0.8h-7.2c0,1,0.3,1.9,0.9,2.5c0.6,0.6,1.3,1,2.2,1c0.6,0,1.2-0.1,1.6-0.4
			c0.4-0.3,0.8-0.6,1.2-1l1.1,0.9C891,1787.2,889.6,1787.9,887.9,1787.9z M887.6,1778.5c-0.7,0-1.3,0.3-1.8,0.8
			c-0.5,0.5-0.8,1.3-0.9,2.2h5.3v-0.1c-0.1-0.9-0.3-1.6-0.7-2.1C889,1778.7,888.4,1778.5,887.6,1778.5z"/>
	</g>
</g>
</svg>
