<?xml version="1.0" encoding="utf-8"?>
<!-- Generator: Adobe Illustrator 25.4.1, SVG Export Plug-In . SVG Version: 6.00 Build 0)  -->
<svg version="1.1" id="Calque_1" xmlns="http://www.w3.org/2000/svg" xmlns:xlink="http://www.w3.org/1999/xlink" x="0px" y="0px"
	 viewBox="0 0 387 436.7" style="enable-background:new 0 0 387 436.7;" xml:space="preserve">
<style type="text/css">
	.st0{fill:#F8C618;}
	.st1{fill:none;}
	.st2{fill:none;stroke:#000000;stroke-width:2;}
	.st3{enable-background:new    ;}
	.st4{fill:none;stroke:#1D1D1B;stroke-width:4;stroke-miterlimit:10;}
</style>
<g id="_2" transform="translate(-567 -1367)">
	<circle id="Ellipse_113" class="st0" cx="774" cy="1512.7" r="57"/>
	<g id="Rectangle_18" transform="translate(594 1483)">
		<path class="st1" d="M80-69.3h200c44.2,0,80,35.8,80,80v230c0,44.2-35.8,80-80,80H80c-44.2,0-80-35.8-80-80v-230
			C0-33.5,35.8-69.3,80-69.3z"/>
		<path class="st2" d="M80-68.3h200c43.6,0,79,35.4,79,79v230c0,43.6-35.4,79-79,79H80c-43.6,0-79-35.4-79-79v-230
			C1-32.9,36.4-68.3,80-68.3z"/>
	</g>
	<g class="st3">
		<path class="st0" d="M675.1,1414.3c0,10.5-3.1,19.2-9.3,26.2c-7,7.8-17.2,13.1-30.6,15.7c0,2.5,1.1,3.7,3.3,3.7
			c3.9,0,8.7-1.2,14.4-3.7c5.7-2.5,10.1-5.4,13.2-8.8c6.2,6.2,9.3,14.3,9.3,24.5c0,10.1-2.9,18.1-8.7,23.9h-87.8
			c-5-7.5-7.5-15.8-7.5-24.9s1.8-16.7,5.3-22.9c12.8-2.5,24.4-7,34.9-13.6c10.4-6.6,15.6-13.5,15.6-20.9c0-2-0.4-3.5-1.3-4.8
			c-0.9-1.2-2.1-1.9-3.7-1.9c-3.2,0-4.8,1.7-4.8,5c0,3.4,1.1,5.8,3.4,7.4c-3.2,4.8-8.1,9.1-14.7,13.1c-6.6,4-13.2,6.8-19.5,8.6
			c-11.6-7.7-17.4-18.1-17.4-31.2s5.2-23.5,15.5-31.2c9.6-7.2,22-10.7,37.1-10.7c15.1,0,27.6,4,37.5,11.9
			C669.8,1388.4,675.1,1399.9,675.1,1414.3z"/>
	</g>
	<g id="Groupe_15" transform="translate(3494.02 -2267.736)">
		<path id="Tracé_49" class="st4" d="M-2668.1,3772.7c-13.3,5.5-56.7,13.4-56.7,13.4l-41-14.5"/>
		<path id="Tracé_50" class="st4" d="M-2766.3,3797.3c0,11.2,1.2,22.4,3.5,33.4c31.7,20.8,34.3,20.8,34.3,20.8s47.3-8.3,57.7-20.8
			c3-18.1,4.1-26.7,4.1-35.9"/>
		<line id="Ligne_12" class="st4" x1="-2728.4" y1="3851.5" x2="-2725.8" y2="3787.9"/>
		<path id="Tracé_51" class="st4" d="M-2736.1,3761.9l-8.1,0.7l-37.1,11.2l15.5-2.1l30.3-9.1"/>
		<path id="Tracé_52" class="st4" d="M-2764.3,3772.7l-17.6,17.6l41.5,14.9l14.6-17.3"/>
		<ellipse id="Ellipse_4" class="st4" cx="-2716.4" cy="3743.7" rx="26" ry="27.8"/>
		<path id="Tracé_53" class="st4" d="M-2724.8,3786.1l10.5,23.8l56.2-17.8l-10-19.4l-29.8-9.4"/>
	</g>
	<g class="st3">
		<path d="M696.9,1613c-0.1,1.8-0.8,3.3-2,4.3s-2.8,1.6-4.8,1.6c-2.2,0-3.9-0.7-5.2-2.2s-1.9-3.5-1.9-6.1v-1c0-1.6,0.3-3.1,0.9-4.3
			s1.4-2.2,2.5-2.9s2.3-1,3.7-1c2,0,3.6,0.5,4.8,1.6s1.9,2.5,2.1,4.4h-3.5c-0.1-1.1-0.4-1.9-0.9-2.4s-1.3-0.7-2.4-0.7
			c-1.2,0-2,0.4-2.6,1.3s-0.9,2.1-0.9,3.9v1.3c0,1.8,0.3,3.2,0.8,4s1.4,1.3,2.6,1.3c1.1,0,1.9-0.2,2.4-0.7s0.8-1.3,0.9-2.3H696.9z"
			/>
		<path d="M702.3,1607.4c0.9-1.1,2-1.6,3.4-1.6c2.8,0,4.1,1.6,4.2,4.8v8.1h-3.4v-8c0-0.7-0.2-1.3-0.5-1.6s-0.8-0.5-1.6-0.5
			c-1,0-1.7,0.4-2.2,1.1v9h-3.4v-18h3.4V1607.4z"/>
		<path d="M711.9,1612.2c0-1.3,0.2-2.4,0.7-3.4s1.2-1.7,2.1-2.3s2-0.8,3.2-0.8c1.7,0,3.1,0.5,4.2,1.6s1.7,2.5,1.8,4.3l0,0.9
			c0,1.9-0.5,3.5-1.6,4.7s-2.5,1.8-4.4,1.8s-3.3-0.6-4.4-1.8s-1.6-2.8-1.6-4.8V1612.2z M715.3,1612.5c0,1.2,0.2,2.1,0.7,2.8
			c0.5,0.6,1.1,1,1.9,1c0.8,0,1.5-0.3,1.9-0.9c0.5-0.6,0.7-1.6,0.7-3c0-1.2-0.2-2.1-0.7-2.7s-1.1-1-1.9-1c-0.8,0-1.5,0.3-1.9,1
			S715.3,1611.1,715.3,1612.5z"/>
		<path d="M726,1602.7c0-0.5,0.2-0.9,0.5-1.3s0.8-0.5,1.4-0.5c0.6,0,1,0.2,1.4,0.5s0.5,0.7,0.5,1.3c0,0.5-0.2,0.9-0.5,1.3
			s-0.8,0.5-1.4,0.5s-1-0.2-1.4-0.5S726,1603.2,726,1602.7z M729.6,1618.7h-3.4V1606h3.4V1618.7z"/>
		<path d="M739.2,1615.2c0-0.4-0.2-0.7-0.6-1s-1.1-0.5-2-0.6c-3-0.6-4.5-1.9-4.5-3.8c0-1.1,0.5-2.1,1.4-2.8s2.2-1.1,3.7-1.1
			c1.6,0,2.9,0.4,3.9,1.1s1.4,1.7,1.4,3h-3.4c0-0.5-0.2-0.9-0.5-1.2s-0.8-0.5-1.5-0.5c-0.6,0-1,0.1-1.3,0.4s-0.5,0.6-0.5,1
			c0,0.4,0.2,0.7,0.5,0.9s1,0.4,1.8,0.6s1.6,0.4,2.1,0.6c1.8,0.7,2.7,1.8,2.7,3.4c0,1.2-0.5,2.1-1.5,2.8s-2.3,1.1-3.8,1.1
			c-1.1,0-2-0.2-2.8-0.6s-1.5-0.9-1.9-1.6s-0.7-1.4-0.7-2.1h3.2c0,0.6,0.3,1.1,0.7,1.4s1,0.5,1.7,0.5c0.6,0,1.1-0.1,1.5-0.4
			S739.2,1615.6,739.2,1615.2z"/>
		<path d="M744.7,1602.7c0-0.5,0.2-0.9,0.5-1.3s0.8-0.5,1.4-0.5c0.6,0,1,0.2,1.4,0.5s0.5,0.7,0.5,1.3c0,0.5-0.2,0.9-0.5,1.3
			s-0.8,0.5-1.4,0.5s-1-0.2-1.4-0.5S744.7,1603.2,744.7,1602.7z M748.3,1618.7h-3.4V1606h3.4V1618.7z"/>
		<path d="M757.9,1615.2c0-0.4-0.2-0.7-0.6-1s-1.1-0.5-2-0.6c-3-0.6-4.5-1.9-4.5-3.8c0-1.1,0.5-2.1,1.4-2.8s2.2-1.1,3.7-1.1
			c1.6,0,2.9,0.4,3.9,1.1s1.4,1.7,1.4,3h-3.4c0-0.5-0.2-0.9-0.5-1.2s-0.8-0.5-1.5-0.5c-0.6,0-1,0.1-1.3,0.4s-0.5,0.6-0.5,1
			c0,0.4,0.2,0.7,0.5,0.9s1,0.4,1.8,0.6s1.6,0.4,2.1,0.6c1.8,0.7,2.7,1.8,2.7,3.4c0,1.2-0.5,2.1-1.5,2.8s-2.3,1.1-3.8,1.1
			c-1.1,0-2-0.2-2.8-0.6s-1.5-0.9-1.9-1.6s-0.7-1.4-0.7-2.1h3.2c0,0.6,0.3,1.1,0.7,1.4s1,0.5,1.7,0.5c0.6,0,1.1-0.1,1.5-0.4
			S757.9,1615.6,757.9,1615.2z"/>
		<path d="M773.4,1602.9v3.1h2.2v2.5h-2.2v6.3c0,0.5,0.1,0.8,0.3,1s0.5,0.3,1,0.3c0.4,0,0.7,0,1-0.1v2.6c-0.7,0.2-1.3,0.3-2.1,0.3
			c-2.4,0-3.6-1.2-3.6-3.6v-6.8h-1.9v-2.5h1.9v-3.1H773.4z"/>
		<path d="M783.3,1618.9c-1.9,0-3.4-0.6-4.5-1.7s-1.8-2.7-1.8-4.6v-0.3c0-1.3,0.2-2.4,0.7-3.4s1.2-1.8,2.1-2.3s1.9-0.8,3.1-0.8
			c1.7,0,3.1,0.5,4.1,1.6s1.5,2.6,1.5,4.7v1.4h-8.1c0.1,0.8,0.4,1.5,1,2s1.2,0.8,2.1,0.8c1.3,0,2.3-0.5,3.1-1.4l1.7,1.9
			c-0.5,0.7-1.2,1.3-2.1,1.7S784.4,1618.9,783.3,1618.9z M782.9,1608.5c-0.7,0-1.2,0.2-1.6,0.7s-0.7,1.1-0.8,2h4.7v-0.3
			c0-0.8-0.2-1.3-0.6-1.7S783.7,1608.5,782.9,1608.5z"/>
		<path d="M797.3,1615.2c0-0.4-0.2-0.7-0.6-1s-1.1-0.5-2-0.6c-3-0.6-4.5-1.9-4.5-3.8c0-1.1,0.5-2.1,1.4-2.8s2.2-1.1,3.7-1.1
			c1.6,0,2.9,0.4,3.9,1.1s1.4,1.7,1.4,3h-3.4c0-0.5-0.2-0.9-0.5-1.2s-0.8-0.5-1.5-0.5c-0.6,0-1,0.1-1.3,0.4s-0.5,0.6-0.5,1
			c0,0.4,0.2,0.7,0.5,0.9s1,0.4,1.8,0.6s1.6,0.4,2.1,0.6c1.8,0.7,2.7,1.8,2.7,3.4c0,1.2-0.5,2.1-1.5,2.8s-2.3,1.1-3.8,1.1
			c-1.1,0-2-0.2-2.8-0.6s-1.5-0.9-1.9-1.6s-0.7-1.4-0.7-2.1h3.2c0,0.6,0.3,1.1,0.7,1.4s1,0.5,1.7,0.5c0.6,0,1.1-0.1,1.5-0.4
			S797.3,1615.6,797.3,1615.2z"/>
		<path d="M820.2,1612.5c0,2-0.4,3.5-1.3,4.7s-2.1,1.8-3.6,1.8c-1.3,0-2.3-0.4-3.1-1.3v6h-3.4V1606h3.1l0.1,1.2
			c0.8-1,1.9-1.5,3.2-1.5c1.6,0,2.8,0.6,3.6,1.7s1.3,2.8,1.3,4.8V1612.5z M816.8,1612.2c0-1.2-0.2-2.1-0.6-2.7s-1-1-1.8-1
			c-1.1,0-1.8,0.4-2.2,1.2v5.2c0.4,0.8,1.2,1.3,2.2,1.3C816,1616.2,816.8,1614.9,816.8,1612.2z"/>
		<path d="M825.9,1618.7h-3.4v-18h3.4V1618.7z"/>
		<path d="M836,1618.7c-0.2-0.3-0.3-0.7-0.3-1.1c-0.8,0.9-1.9,1.4-3.2,1.4c-1.2,0-2.3-0.4-3.1-1.1s-1.2-1.6-1.2-2.7
			c0-1.3,0.5-2.4,1.5-3.1s2.4-1.1,4.3-1.1h1.6v-0.7c0-0.6-0.2-1.1-0.5-1.4s-0.8-0.5-1.4-0.5c-0.6,0-1,0.1-1.3,0.4s-0.5,0.6-0.5,1.1
			h-3.4c0-0.7,0.2-1.4,0.7-2s1.1-1.1,1.9-1.5s1.8-0.5,2.8-0.5c1.6,0,2.8,0.4,3.7,1.2s1.4,1.9,1.4,3.3v5.5c0,1.2,0.2,2.1,0.5,2.7v0.2
			H836z M833.2,1616.3c0.5,0,1-0.1,1.4-0.3s0.7-0.5,0.9-0.9v-2.2h-1.3c-1.7,0-2.6,0.6-2.7,1.8l0,0.2c0,0.4,0.1,0.8,0.4,1
			S832.7,1616.3,833.2,1616.3z"/>
		<path d="M845.6,1602.9v3.1h2.2v2.5h-2.2v6.3c0,0.5,0.1,0.8,0.3,1s0.5,0.3,1,0.3c0.4,0,0.7,0,1-0.1v2.6c-0.7,0.2-1.3,0.3-2.1,0.3
			c-2.4,0-3.6-1.2-3.6-3.6v-6.8h-1.9v-2.5h1.9v-3.1H845.6z"/>
		<path d="M856.5,1615.2c0-0.4-0.2-0.7-0.6-1s-1.1-0.5-2-0.6c-3-0.6-4.5-1.9-4.5-3.8c0-1.1,0.5-2.1,1.4-2.8s2.2-1.1,3.7-1.1
			c1.6,0,2.9,0.4,3.9,1.1s1.4,1.7,1.4,3h-3.4c0-0.5-0.2-0.9-0.5-1.2s-0.8-0.5-1.5-0.5c-0.6,0-1,0.1-1.3,0.4s-0.5,0.6-0.5,1
			c0,0.4,0.2,0.7,0.5,0.9s1,0.4,1.8,0.6s1.6,0.4,2.1,0.6c1.8,0.7,2.7,1.8,2.7,3.4c0,1.2-0.5,2.1-1.5,2.8s-2.3,1.1-3.8,1.1
			c-1.1,0-2-0.2-2.8-0.6s-1.5-0.9-1.9-1.6s-0.7-1.4-0.7-2.1h3.2c0,0.6,0.3,1.1,0.7,1.4s1,0.5,1.7,0.5c0.6,0,1.1-0.1,1.5-0.4
			S856.5,1615.6,856.5,1615.2z"/>
	</g>
	<g class="st3">
		<path d="M644.9,1657.3l3.7,9.3l3.7-9.3h1.9v11.4h-1.5v-4.4l0.1-4.8l-3.7,9.2h-1.1l-3.7-9.2l0.1,4.8v4.4H643v-11.4H644.9z"/>
		<path d="M661.9,1668.7c-0.1-0.2-0.2-0.5-0.2-0.9c-0.7,0.7-1.5,1-2.4,1c-0.8,0-1.5-0.2-2.1-0.7c-0.5-0.5-0.8-1.1-0.8-1.8
			c0-0.9,0.3-1.6,1-2.1c0.7-0.5,1.6-0.7,2.8-0.7h1.4v-0.7c0-0.5-0.2-0.9-0.5-1.2c-0.3-0.3-0.7-0.4-1.3-0.4c-0.5,0-0.9,0.1-1.3,0.4
			c-0.3,0.3-0.5,0.6-0.5,0.9h-1.5c0-0.4,0.1-0.8,0.4-1.2c0.3-0.4,0.7-0.7,1.2-0.9c0.5-0.2,1.1-0.3,1.7-0.3c1,0,1.7,0.2,2.3,0.7
			c0.6,0.5,0.8,1.2,0.9,2v3.9c0,0.8,0.1,1.4,0.3,1.9v0.1H661.9z M659.5,1667.6c0.5,0,0.9-0.1,1.3-0.4s0.7-0.5,0.9-0.9v-1.7h-1.1
			c-1.8,0-2.7,0.5-2.7,1.6c0,0.5,0.2,0.8,0.5,1.1C658.7,1667.5,659.1,1667.6,659.5,1667.6z"/>
		<path d="M665.1,1664.4c0-1.3,0.3-2.4,0.9-3.1s1.4-1.2,2.4-1.2c1,0,1.8,0.4,2.4,1.1l0.1-0.9h1.3v8.2c0,1.1-0.3,2-1,2.6
			s-1.5,0.9-2.6,0.9c-0.6,0-1.2-0.1-1.8-0.4c-0.6-0.3-1-0.6-1.3-1.1l0.8-0.9c0.6,0.8,1.4,1.1,2.3,1.1c0.7,0,1.3-0.2,1.6-0.6
			c0.4-0.4,0.6-1,0.6-1.7v-0.7c-0.6,0.7-1.4,1-2.4,1c-1,0-1.8-0.4-2.4-1.2C665.4,1666.9,665.1,1665.8,665.1,1664.4z M666.5,1664.6
			c0,1,0.2,1.7,0.6,2.2s0.9,0.8,1.6,0.8c0.9,0,1.6-0.4,2-1.2v-3.9c-0.4-0.8-1.1-1.2-2-1.2c-0.7,0-1.3,0.3-1.6,0.8
			C666.7,1662.7,666.5,1663.5,666.5,1664.6z"/>
		<path d="M679.6,1668.7c-0.1-0.2-0.2-0.5-0.2-0.9c-0.7,0.7-1.5,1-2.4,1c-0.8,0-1.5-0.2-2.1-0.7c-0.5-0.5-0.8-1.1-0.8-1.8
			c0-0.9,0.3-1.6,1-2.1c0.7-0.5,1.6-0.7,2.8-0.7h1.4v-0.7c0-0.5-0.2-0.9-0.5-1.2c-0.3-0.3-0.7-0.4-1.3-0.4c-0.5,0-0.9,0.1-1.3,0.4
			c-0.3,0.3-0.5,0.6-0.5,0.9h-1.5c0-0.4,0.1-0.8,0.4-1.2c0.3-0.4,0.7-0.7,1.2-0.9c0.5-0.2,1.1-0.3,1.7-0.3c1,0,1.7,0.2,2.3,0.7
			c0.6,0.5,0.8,1.2,0.9,2v3.9c0,0.8,0.1,1.4,0.3,1.9v0.1H679.6z M677.2,1667.6c0.5,0,0.9-0.1,1.3-0.4s0.7-0.5,0.9-0.9v-1.7h-1.1
			c-1.8,0-2.7,0.5-2.7,1.6c0,0.5,0.2,0.8,0.5,1.1C676.4,1667.5,676.7,1667.6,677.2,1667.6z"/>
		<path d="M684.5,1667.5h4.9v1.2h-6.7v-1.1l4.7-6.2h-4.6v-1.2h6.4v1L684.5,1667.5z"/>
		<path d="M691,1658c0-0.2,0.1-0.4,0.2-0.6c0.1-0.2,0.4-0.2,0.6-0.2s0.5,0.1,0.6,0.2c0.1,0.2,0.2,0.4,0.2,0.6s-0.1,0.4-0.2,0.6
			c-0.1,0.2-0.4,0.2-0.6,0.2s-0.5-0.1-0.6-0.2C691.1,1658.4,691,1658.2,691,1658z M692.6,1668.7h-1.4v-8.5h1.4V1668.7z"/>
		<path d="M696.3,1660.2l0,1.1c0.6-0.8,1.5-1.2,2.5-1.2c1.8,0,2.7,1,2.7,3v5.6h-1.4v-5.6c0-0.6-0.1-1.1-0.4-1.4s-0.7-0.4-1.3-0.4
			c-0.5,0-0.9,0.1-1.2,0.4c-0.4,0.2-0.6,0.6-0.8,1v6h-1.4v-8.5H696.3z"/>
		<path d="M707.3,1668.8c-1.1,0-2.1-0.4-2.8-1.1s-1.1-1.8-1.1-3v-0.3c0-0.8,0.2-1.6,0.5-2.2s0.8-1.2,1.3-1.5
			c0.6-0.4,1.2-0.6,1.9-0.6c1.1,0,2,0.4,2.6,1.1s0.9,1.8,0.9,3.1v0.6h-5.7c0,0.8,0.3,1.5,0.7,2c0.5,0.5,1.1,0.8,1.8,0.8
			c0.5,0,0.9-0.1,1.3-0.3c0.4-0.2,0.7-0.5,0.9-0.8l0.9,0.7C709.7,1668.3,708.7,1668.8,707.3,1668.8z M707.1,1661.3
			c-0.6,0-1.1,0.2-1.5,0.6c-0.4,0.4-0.6,1-0.7,1.8h4.2v-0.1c0-0.7-0.2-1.3-0.6-1.7C708.2,1661.5,707.7,1661.3,707.1,1661.3z"/>
		<path d="M723.3,1664.6c0,1.3-0.3,2.3-0.9,3.1c-0.6,0.8-1.4,1.2-2.4,1.2c-1,0-1.8-0.3-2.4-1v4.1h-1.4v-11.7h1.3l0.1,0.9
			c0.6-0.7,1.4-1.1,2.5-1.1c1,0,1.8,0.4,2.4,1.1c0.6,0.8,0.9,1.8,0.9,3.2V1664.6z M721.9,1664.4c0-1-0.2-1.7-0.6-2.3s-1-0.8-1.7-0.8
			c-0.9,0-1.5,0.4-2,1.2v4c0.4,0.8,1.1,1.2,2,1.2c0.7,0,1.2-0.3,1.7-0.8C721.7,1666.3,721.9,1665.5,721.9,1664.4z"/>
		<path d="M730.4,1668.7c-0.1-0.2-0.2-0.5-0.2-0.9c-0.7,0.7-1.5,1-2.4,1c-0.8,0-1.5-0.2-2.1-0.7c-0.5-0.5-0.8-1.1-0.8-1.8
			c0-0.9,0.3-1.6,1-2.1c0.7-0.5,1.6-0.7,2.8-0.7h1.4v-0.7c0-0.5-0.2-0.9-0.5-1.2c-0.3-0.3-0.7-0.4-1.3-0.4c-0.5,0-0.9,0.1-1.3,0.4
			c-0.3,0.3-0.5,0.6-0.5,0.9h-1.5c0-0.4,0.1-0.8,0.4-1.2c0.3-0.4,0.7-0.7,1.2-0.9c0.5-0.2,1.1-0.3,1.7-0.3c1,0,1.7,0.2,2.3,0.7
			c0.6,0.5,0.8,1.2,0.9,2v3.9c0,0.8,0.1,1.4,0.3,1.9v0.1H730.4z M728,1667.6c0.5,0,0.9-0.1,1.3-0.4s0.7-0.5,0.9-0.9v-1.7H729
			c-1.8,0-2.7,0.5-2.7,1.6c0,0.5,0.2,0.8,0.5,1.1C727.1,1667.5,727.5,1667.6,728,1667.6z"/>
		<path d="M737.9,1661.5c-0.2,0-0.5-0.1-0.7-0.1c-0.9,0-1.6,0.4-1.9,1.2v6h-1.4v-8.5h1.4l0,1c0.5-0.8,1.1-1.1,2-1.1
			c0.3,0,0.5,0,0.6,0.1V1661.5z"/>
		<path d="M740.6,1660.2l0,0.9c0.6-0.7,1.5-1.1,2.5-1.1c1.2,0,2,0.5,2.4,1.4c0.3-0.4,0.6-0.7,1.1-1c0.5-0.2,1-0.4,1.6-0.4
			c1.9,0,2.8,1,2.8,2.9v5.7h-1.4v-5.6c0-0.6-0.1-1.1-0.4-1.4c-0.3-0.3-0.7-0.4-1.4-0.4c-0.5,0-1,0.2-1.3,0.5
			c-0.4,0.3-0.6,0.8-0.6,1.3v5.6h-1.5v-5.5c0-1.2-0.6-1.8-1.8-1.8c-0.9,0-1.6,0.4-1.9,1.2v6.2h-1.4v-8.5H740.6z"/>
		<path d="M753.3,1658c0-0.2,0.1-0.4,0.2-0.6c0.1-0.2,0.4-0.2,0.6-0.2s0.5,0.1,0.6,0.2c0.1,0.2,0.2,0.4,0.2,0.6s-0.1,0.4-0.2,0.6
			c-0.1,0.2-0.4,0.2-0.6,0.2s-0.5-0.1-0.6-0.2C753.4,1658.4,753.3,1658.2,753.3,1658z M754.9,1668.7h-1.4v-8.5h1.4V1668.7z"/>
		<path d="M762.5,1660.2l0,1.1c0.6-0.8,1.5-1.2,2.5-1.2c1.8,0,2.7,1,2.7,3v5.6h-1.4v-5.6c0-0.6-0.1-1.1-0.4-1.4s-0.7-0.4-1.3-0.4
			c-0.5,0-0.9,0.1-1.2,0.4c-0.4,0.2-0.6,0.6-0.8,1v6h-1.4v-8.5H762.5z"/>
		<path d="M769.6,1664.4c0-0.8,0.2-1.6,0.5-2.2c0.3-0.7,0.8-1.2,1.4-1.5c0.6-0.4,1.2-0.5,2-0.5c1.2,0,2.1,0.4,2.8,1.2
			s1.1,1.9,1.1,3.2v0.1c0,0.8-0.2,1.6-0.5,2.2c-0.3,0.7-0.8,1.2-1.4,1.5s-1.3,0.5-2,0.5c-1.1,0-2.1-0.4-2.8-1.2s-1.1-1.9-1.1-3.2
			V1664.4z M771,1664.6c0,0.9,0.2,1.7,0.7,2.3c0.4,0.6,1,0.9,1.7,0.9c0.7,0,1.3-0.3,1.8-0.9c0.4-0.6,0.6-1.4,0.6-2.4
			c0-0.9-0.2-1.7-0.7-2.3c-0.4-0.6-1-0.9-1.8-0.9c-0.7,0-1.3,0.3-1.7,0.9S771,1663.5,771,1664.6z"/>
		<path d="M781.1,1658.2v2h1.6v1.1h-1.6v5.2c0,0.3,0.1,0.6,0.2,0.8c0.1,0.2,0.4,0.3,0.7,0.3c0.2,0,0.4,0,0.7-0.1v1.2
			c-0.4,0.1-0.8,0.2-1.1,0.2c-0.6,0-1.1-0.2-1.5-0.6s-0.5-0.9-0.5-1.7v-5.2h-1.5v-1.1h1.5v-2H781.1z"/>
		<path d="M788.4,1661.5c-0.2,0-0.5-0.1-0.7-0.1c-0.9,0-1.6,0.4-1.9,1.2v6h-1.4v-8.5h1.4l0,1c0.5-0.8,1.1-1.1,2-1.1
			c0.3,0,0.5,0,0.6,0.1V1661.5z"/>
		<path d="M793.1,1668.8c-1.1,0-2.1-0.4-2.8-1.1s-1.1-1.8-1.1-3v-0.3c0-0.8,0.2-1.6,0.5-2.2s0.8-1.2,1.3-1.5
			c0.6-0.4,1.2-0.6,1.9-0.6c1.1,0,2,0.4,2.6,1.1s0.9,1.8,0.9,3.1v0.6h-5.7c0,0.8,0.3,1.5,0.7,2c0.5,0.5,1.1,0.8,1.8,0.8
			c0.5,0,0.9-0.1,1.3-0.3c0.4-0.2,0.7-0.5,0.9-0.8l0.9,0.7C795.6,1668.3,794.5,1668.8,793.1,1668.8z M792.9,1661.3
			c-0.6,0-1.1,0.2-1.5,0.6c-0.4,0.4-0.6,1-0.7,1.8h4.2v-0.1c0-0.7-0.2-1.3-0.6-1.7C794,1661.5,793.5,1661.3,792.9,1661.3z"/>
		<path d="M801.7,1664.4c0-1.3,0.3-2.4,0.9-3.1s1.4-1.2,2.4-1.2c1,0,1.8,0.4,2.4,1.1l0.1-0.9h1.3v8.2c0,1.1-0.3,2-1,2.6
			s-1.5,0.9-2.6,0.9c-0.6,0-1.2-0.1-1.8-0.4c-0.6-0.3-1-0.6-1.3-1.1l0.8-0.9c0.6,0.8,1.4,1.1,2.3,1.1c0.7,0,1.3-0.2,1.6-0.6
			c0.4-0.4,0.6-1,0.6-1.7v-0.7c-0.6,0.7-1.4,1-2.4,1c-1,0-1.8-0.4-2.4-1.2C802,1666.9,801.7,1665.8,801.7,1664.4z M803.1,1664.6
			c0,1,0.2,1.7,0.6,2.2s0.9,0.8,1.6,0.8c0.9,0,1.6-0.4,2-1.2v-3.9c-0.4-0.8-1.1-1.2-2-1.2c-0.7,0-1.3,0.3-1.6,0.8
			C803.3,1662.7,803.1,1663.5,803.1,1664.6z"/>
		<path d="M815.1,1661.5c-0.2,0-0.5-0.1-0.7-0.1c-0.9,0-1.6,0.4-1.9,1.2v6H811v-8.5h1.4l0,1c0.5-0.8,1.1-1.1,2-1.1
			c0.3,0,0.5,0,0.6,0.1V1661.5z"/>
		<path d="M821.3,1668.7c-0.1-0.2-0.2-0.5-0.2-0.9c-0.7,0.7-1.5,1-2.4,1c-0.8,0-1.5-0.2-2.1-0.7c-0.5-0.5-0.8-1.1-0.8-1.8
			c0-0.9,0.3-1.6,1-2.1c0.7-0.5,1.6-0.7,2.8-0.7h1.4v-0.7c0-0.5-0.2-0.9-0.5-1.2c-0.3-0.3-0.7-0.4-1.3-0.4c-0.5,0-0.9,0.1-1.3,0.4
			c-0.3,0.3-0.5,0.6-0.5,0.9H816c0-0.4,0.1-0.8,0.4-1.2c0.3-0.4,0.7-0.7,1.2-0.9c0.5-0.2,1.1-0.3,1.7-0.3c1,0,1.7,0.2,2.3,0.7
			c0.6,0.5,0.8,1.2,0.9,2v3.9c0,0.8,0.1,1.4,0.3,1.9v0.1H821.3z M818.9,1667.6c0.5,0,0.9-0.1,1.3-0.4s0.7-0.5,0.9-0.9v-1.7H820
			c-1.8,0-2.7,0.5-2.7,1.6c0,0.5,0.2,0.8,0.5,1.1C818.1,1667.5,818.4,1667.6,818.9,1667.6z"/>
		<path d="M826.2,1660.2l0,1.1c0.6-0.8,1.5-1.2,2.5-1.2c1.8,0,2.7,1,2.7,3v5.6H830v-5.6c0-0.6-0.1-1.1-0.4-1.4s-0.7-0.4-1.3-0.4
			c-0.5,0-0.9,0.1-1.2,0.4c-0.4,0.2-0.6,0.6-0.8,1v6h-1.4v-8.5H826.2z"/>
		<path d="M833.3,1664.4c0-1.3,0.3-2.3,0.9-3.1c0.6-0.8,1.4-1.2,2.4-1.2c1,0,1.8,0.3,2.4,1v-4.4h1.4v12h-1.3l-0.1-0.9
			c-0.6,0.7-1.4,1.1-2.4,1.1c-1,0-1.8-0.4-2.4-1.2s-0.9-1.8-0.9-3.1V1664.4z M834.7,1664.6c0,1,0.2,1.7,0.6,2.2
			c0.4,0.5,0.9,0.8,1.6,0.8c0.9,0,1.6-0.4,2-1.2v-3.9c-0.4-0.8-1.1-1.2-2-1.2c-0.7,0-1.3,0.3-1.7,0.8
			C834.9,1662.7,834.7,1663.5,834.7,1664.6z"/>
		<path d="M846.2,1668.8c-1.1,0-2.1-0.4-2.8-1.1s-1.1-1.8-1.1-3v-0.3c0-0.8,0.2-1.6,0.5-2.2s0.8-1.2,1.3-1.5
			c0.6-0.4,1.2-0.6,1.9-0.6c1.1,0,2,0.4,2.6,1.1s0.9,1.8,0.9,3.1v0.6h-5.7c0,0.8,0.3,1.5,0.7,2c0.5,0.5,1.1,0.8,1.8,0.8
			c0.5,0,0.9-0.1,1.3-0.3c0.4-0.2,0.7-0.5,0.9-0.8l0.9,0.7C848.6,1668.3,847.6,1668.8,846.2,1668.8z M846,1661.3
			c-0.6,0-1.1,0.2-1.5,0.6c-0.4,0.4-0.6,1-0.7,1.8h4.2v-0.1c0-0.7-0.2-1.3-0.6-1.7C847.1,1661.5,846.6,1661.3,846,1661.3z"/>
		<path d="M857.9,1666.7l2.1-6.5h1.5l-3,8.5h-1.1l-3.1-8.5h1.5L857.9,1666.7z"/>
		<path d="M867.9,1668.7c-0.1-0.2-0.2-0.5-0.2-0.9c-0.7,0.7-1.5,1-2.4,1c-0.8,0-1.5-0.2-2.1-0.7c-0.5-0.5-0.8-1.1-0.8-1.8
			c0-0.9,0.3-1.6,1-2.1c0.7-0.5,1.6-0.7,2.8-0.7h1.4v-0.7c0-0.5-0.2-0.9-0.5-1.2c-0.3-0.3-0.7-0.4-1.3-0.4c-0.5,0-0.9,0.1-1.3,0.4
			c-0.3,0.3-0.5,0.6-0.5,0.9h-1.5c0-0.4,0.1-0.8,0.4-1.2c0.3-0.4,0.7-0.7,1.2-0.9c0.5-0.2,1.1-0.3,1.7-0.3c1,0,1.7,0.2,2.3,0.7
			c0.6,0.5,0.8,1.2,0.9,2v3.9c0,0.8,0.1,1.4,0.3,1.9v0.1H867.9z M865.5,1667.6c0.5,0,0.9-0.1,1.3-0.4s0.7-0.5,0.9-0.9v-1.7h-1.1
			c-1.8,0-2.7,0.5-2.7,1.6c0,0.5,0.2,0.8,0.5,1.1C864.7,1667.5,865.1,1667.6,865.5,1667.6z"/>
		<path d="M875.5,1661.5c-0.2,0-0.5-0.1-0.7-0.1c-0.9,0-1.6,0.4-1.9,1.2v6h-1.4v-8.5h1.4l0,1c0.5-0.8,1.1-1.1,2-1.1
			c0.3,0,0.5,0,0.6,0.1V1661.5z"/>
		<path d="M876.9,1658c0-0.2,0.1-0.4,0.2-0.6c0.1-0.2,0.4-0.2,0.6-0.2s0.5,0.1,0.6,0.2c0.1,0.2,0.2,0.4,0.2,0.6s-0.1,0.4-0.2,0.6
			c-0.1,0.2-0.4,0.2-0.6,0.2s-0.5-0.1-0.6-0.2C876.9,1658.4,876.9,1658.2,876.9,1658z M878.4,1668.7H877v-8.5h1.4V1668.7z"/>
		<path d="M884.2,1668.8c-1.1,0-2.1-0.4-2.8-1.1s-1.1-1.8-1.1-3v-0.3c0-0.8,0.2-1.6,0.5-2.2s0.8-1.2,1.3-1.5
			c0.6-0.4,1.2-0.6,1.9-0.6c1.1,0,2,0.4,2.6,1.1s0.9,1.8,0.9,3.1v0.6h-5.7c0,0.8,0.3,1.5,0.7,2c0.5,0.5,1.1,0.8,1.8,0.8
			c0.5,0,0.9-0.1,1.3-0.3c0.4-0.2,0.7-0.5,0.9-0.8l0.9,0.7C886.7,1668.3,885.7,1668.8,884.2,1668.8z M884.1,1661.3
			c-0.6,0-1.1,0.2-1.5,0.6c-0.4,0.4-0.6,1-0.7,1.8h4.2v-0.1c0-0.7-0.2-1.3-0.6-1.7C885.1,1661.5,884.7,1661.3,884.1,1661.3z
			 M884.8,1656.7h1.8l-2.1,2.3l-1.2,0L884.8,1656.7z"/>
		<path d="M891.2,1658.2v2h1.6v1.1h-1.6v5.2c0,0.3,0.1,0.6,0.2,0.8c0.1,0.2,0.4,0.3,0.7,0.3c0.2,0,0.4,0,0.7-0.1v1.2
			c-0.4,0.1-0.8,0.2-1.1,0.2c-0.6,0-1.1-0.2-1.5-0.6s-0.5-0.9-0.5-1.7v-5.2h-1.5v-1.1h1.5v-2H891.2z"/>
		<path d="M897.9,1668.8c-1.1,0-2.1-0.4-2.8-1.1s-1.1-1.8-1.1-3v-0.3c0-0.8,0.2-1.6,0.5-2.2s0.8-1.2,1.3-1.5
			c0.6-0.4,1.2-0.6,1.9-0.6c1.1,0,2,0.4,2.6,1.1s0.9,1.8,0.9,3.1v0.6h-5.7c0,0.8,0.3,1.5,0.7,2c0.5,0.5,1.1,0.8,1.8,0.8
			c0.5,0,0.9-0.1,1.3-0.3c0.4-0.2,0.7-0.5,0.9-0.8l0.9,0.7C900.4,1668.3,899.4,1668.8,897.9,1668.8z M897.8,1661.3
			c-0.6,0-1.1,0.2-1.5,0.6c-0.4,0.4-0.6,1-0.7,1.8h4.2v-0.1c0-0.7-0.2-1.3-0.6-1.7C898.8,1661.5,898.4,1661.3,897.8,1661.3z
			 M898.5,1656.7h1.8l-2.1,2.3l-1.2,0L898.5,1656.7z"/>
	</g>
	<g class="st3">
		<path d="M635.4,1683.4c0-1.3,0.3-2.3,0.9-3.1c0.6-0.8,1.4-1.2,2.4-1.2c1,0,1.8,0.3,2.4,1v-4.4h1.4v12h-1.3l-0.1-0.9
			c-0.6,0.7-1.4,1.1-2.4,1.1c-1,0-1.8-0.4-2.4-1.2s-0.9-1.8-0.9-3.1V1683.4z M636.9,1683.6c0,1,0.2,1.7,0.6,2.2
			c0.4,0.5,0.9,0.8,1.6,0.8c0.9,0,1.6-0.4,2-1.2v-3.9c-0.4-0.8-1.1-1.2-2-1.2c-0.7,0-1.3,0.3-1.7,0.8
			C637.1,1681.7,636.9,1682.5,636.9,1683.6z"/>
		<path d="M648.3,1687.8c-1.1,0-2.1-0.4-2.8-1.1s-1.1-1.8-1.1-3v-0.3c0-0.8,0.2-1.6,0.5-2.2s0.8-1.2,1.3-1.5
			c0.6-0.4,1.2-0.6,1.9-0.6c1.1,0,2,0.4,2.6,1.1s0.9,1.8,0.9,3.1v0.6h-5.7c0,0.8,0.3,1.5,0.7,2c0.5,0.5,1.1,0.8,1.8,0.8
			c0.5,0,0.9-0.1,1.3-0.3c0.4-0.2,0.7-0.5,0.9-0.8l0.9,0.7C650.8,1687.3,649.7,1687.8,648.3,1687.8z M648.1,1680.3
			c-0.6,0-1.1,0.2-1.5,0.6c-0.4,0.4-0.6,1-0.7,1.8h4.2v-0.1c0-0.7-0.2-1.3-0.6-1.7C649.2,1680.5,648.7,1680.3,648.1,1680.3z"/>
		<path d="M664.4,1683.6c0,1.3-0.3,2.3-0.9,3.1c-0.6,0.8-1.4,1.2-2.4,1.2c-1,0-1.8-0.3-2.4-1v4.1h-1.4v-11.7h1.3l0.1,0.9
			c0.6-0.7,1.4-1.1,2.5-1.1c1,0,1.8,0.4,2.4,1.1c0.6,0.8,0.9,1.8,0.9,3.2V1683.6z M662.9,1683.4c0-1-0.2-1.7-0.6-2.3s-1-0.8-1.7-0.8
			c-0.9,0-1.5,0.4-2,1.2v4c0.4,0.8,1.1,1.2,2,1.2c0.7,0,1.2-0.3,1.7-0.8C662.7,1685.3,662.9,1684.5,662.9,1683.4z"/>
		<path d="M667.8,1687.7h-1.4v-12h1.4V1687.7z"/>
		<path d="M675.3,1687.7c-0.1-0.2-0.2-0.5-0.2-0.9c-0.7,0.7-1.5,1-2.4,1c-0.8,0-1.5-0.2-2.1-0.7c-0.5-0.5-0.8-1.1-0.8-1.8
			c0-0.9,0.3-1.6,1-2.1c0.7-0.5,1.6-0.7,2.8-0.7h1.4v-0.7c0-0.5-0.2-0.9-0.5-1.2c-0.3-0.3-0.7-0.4-1.3-0.4c-0.5,0-0.9,0.1-1.3,0.4
			c-0.3,0.3-0.5,0.6-0.5,0.9H670c0-0.4,0.1-0.8,0.4-1.2c0.3-0.4,0.7-0.7,1.2-0.9c0.5-0.2,1.1-0.3,1.7-0.3c1,0,1.7,0.2,2.3,0.7
			c0.6,0.5,0.8,1.2,0.9,2v3.9c0,0.8,0.1,1.4,0.3,1.9v0.1H675.3z M672.9,1686.6c0.5,0,0.9-0.1,1.3-0.4s0.7-0.5,0.9-0.9v-1.7H674
			c-1.8,0-2.7,0.5-2.7,1.6c0,0.5,0.2,0.8,0.5,1.1C672,1686.5,672.4,1686.6,672.9,1686.6z"/>
		<path d="M680.8,1677.2v2h1.6v1.1h-1.6v5.2c0,0.3,0.1,0.6,0.2,0.8c0.1,0.2,0.4,0.3,0.7,0.3c0.2,0,0.4,0,0.7-0.1v1.2
			c-0.4,0.1-0.8,0.2-1.1,0.2c-0.6,0-1.1-0.2-1.5-0.6s-0.5-0.9-0.5-1.7v-5.2h-1.5v-1.1h1.5v-2H680.8z"/>
		<path d="M688.9,1685.5c0-0.4-0.1-0.7-0.4-0.9c-0.3-0.2-0.8-0.4-1.5-0.6c-0.7-0.2-1.3-0.3-1.7-0.6s-0.7-0.5-1-0.8
			c-0.2-0.3-0.3-0.7-0.3-1.1c0-0.7,0.3-1.3,0.9-1.8s1.3-0.7,2.2-0.7c1,0,1.7,0.2,2.3,0.7c0.6,0.5,0.9,1.1,0.9,1.9h-1.5
			c0-0.4-0.2-0.7-0.5-1s-0.8-0.4-1.3-0.4c-0.5,0-0.9,0.1-1.2,0.3s-0.4,0.5-0.4,0.9c0,0.3,0.1,0.6,0.4,0.8c0.3,0.2,0.8,0.3,1.5,0.5
			c0.7,0.2,1.3,0.4,1.8,0.6c0.4,0.2,0.8,0.5,1,0.8c0.2,0.3,0.3,0.7,0.3,1.2c0,0.8-0.3,1.4-0.9,1.8c-0.6,0.5-1.4,0.7-2.4,0.7
			c-0.7,0-1.3-0.1-1.8-0.4c-0.5-0.2-0.9-0.6-1.2-1c-0.3-0.4-0.4-0.9-0.4-1.4h1.4c0,0.5,0.2,0.9,0.6,1.2c0.4,0.3,0.8,0.4,1.4,0.4
			c0.5,0,1-0.1,1.3-0.3C688.8,1686.1,688.9,1685.8,688.9,1685.5z"/>
		<path d="M696.2,1686.9c0-0.2,0.1-0.5,0.2-0.6s0.4-0.2,0.7-0.2s0.5,0.1,0.7,0.2c0.2,0.2,0.2,0.4,0.2,0.6c0,0.2-0.1,0.4-0.2,0.6
			c-0.2,0.2-0.4,0.2-0.7,0.2s-0.5-0.1-0.7-0.2S696.2,1687.2,696.2,1686.9z M696.2,1680c0-0.2,0.1-0.5,0.2-0.6s0.4-0.2,0.7-0.2
			s0.5,0.1,0.7,0.2c0.2,0.2,0.2,0.4,0.2,0.6c0,0.2-0.1,0.4-0.2,0.6c-0.2,0.2-0.4,0.2-0.7,0.2s-0.5-0.1-0.7-0.2
			S696.2,1680.3,696.2,1680z"/>
		<path d="M708.1,1685.7l3.2-9.4h1.6l-4.2,11.4h-1.3l-4.2-11.4h1.6L708.1,1685.7z"/>
		<path d="M717.4,1687.8c-1.1,0-2.1-0.4-2.8-1.1s-1.1-1.8-1.1-3v-0.3c0-0.8,0.2-1.6,0.5-2.2s0.8-1.2,1.3-1.5
			c0.6-0.4,1.2-0.6,1.9-0.6c1.1,0,2,0.4,2.6,1.1s0.9,1.8,0.9,3.1v0.6H715c0,0.8,0.3,1.5,0.7,2c0.5,0.5,1.1,0.8,1.8,0.8
			c0.5,0,0.9-0.1,1.3-0.3c0.4-0.2,0.7-0.5,0.9-0.8l0.9,0.7C719.9,1687.3,718.8,1687.8,717.4,1687.8z M717.2,1680.3
			c-0.6,0-1.1,0.2-1.5,0.6c-0.4,0.4-0.6,1-0.7,1.8h4.2v-0.1c0-0.7-0.2-1.3-0.6-1.7C718.3,1680.5,717.8,1680.3,717.2,1680.3z
			 M717.9,1675.7h1.8l-2.1,2.3l-1.2,0L717.9,1675.7z"/>
		<path d="M722,1683.4c0-1.3,0.3-2.4,0.9-3.1s1.4-1.2,2.4-1.2c1,0,1.8,0.4,2.4,1.1l0.1-0.9h1.3v8.2c0,1.1-0.3,2-1,2.6
			s-1.5,0.9-2.6,0.9c-0.6,0-1.2-0.1-1.8-0.4c-0.6-0.3-1-0.6-1.3-1.1l0.8-0.9c0.6,0.8,1.4,1.1,2.3,1.1c0.7,0,1.3-0.2,1.6-0.6
			c0.4-0.4,0.6-1,0.6-1.7v-0.7c-0.6,0.7-1.4,1-2.4,1c-1,0-1.8-0.4-2.4-1.2C722.3,1685.9,722,1684.8,722,1683.4z M723.5,1683.6
			c0,1,0.2,1.7,0.6,2.2s0.9,0.8,1.6,0.8c0.9,0,1.6-0.4,2-1.2v-3.9c-0.4-0.8-1.1-1.2-2-1.2c-0.7,0-1.3,0.3-1.6,0.8
			C723.7,1681.7,723.5,1682.5,723.5,1683.6z"/>
		<path d="M734.9,1687.8c-1.1,0-2.1-0.4-2.8-1.1s-1.1-1.8-1.1-3v-0.3c0-0.8,0.2-1.6,0.5-2.2s0.8-1.2,1.3-1.5
			c0.6-0.4,1.2-0.6,1.9-0.6c1.1,0,2,0.4,2.6,1.1s0.9,1.8,0.9,3.1v0.6h-5.7c0,0.8,0.3,1.5,0.7,2c0.5,0.5,1.1,0.8,1.8,0.8
			c0.5,0,0.9-0.1,1.3-0.3c0.4-0.2,0.7-0.5,0.9-0.8l0.9,0.7C737.3,1687.3,736.3,1687.8,734.9,1687.8z M734.7,1680.3
			c-0.6,0-1.1,0.2-1.5,0.6c-0.4,0.4-0.6,1-0.7,1.8h4.2v-0.1c0-0.7-0.2-1.3-0.6-1.7C735.8,1680.5,735.3,1680.3,734.7,1680.3z
			 M735.4,1675.7h1.8l-2.1,2.3l-1.2,0L735.4,1675.7z"/>
		<path d="M741.8,1677.2v2h1.6v1.1h-1.6v5.2c0,0.3,0.1,0.6,0.2,0.8c0.1,0.2,0.4,0.3,0.7,0.3c0.2,0,0.4,0,0.7-0.1v1.2
			c-0.4,0.1-0.8,0.2-1.1,0.2c-0.6,0-1.1-0.2-1.5-0.6s-0.5-0.9-0.5-1.7v-5.2h-1.5v-1.1h1.5v-2H741.8z"/>
		<path d="M750.3,1687.7c-0.1-0.2-0.2-0.5-0.2-0.9c-0.7,0.7-1.5,1-2.4,1c-0.8,0-1.5-0.2-2.1-0.7c-0.5-0.5-0.8-1.1-0.8-1.8
			c0-0.9,0.3-1.6,1-2.1c0.7-0.5,1.6-0.7,2.8-0.7h1.4v-0.7c0-0.5-0.2-0.9-0.5-1.2c-0.3-0.3-0.7-0.4-1.3-0.4c-0.5,0-0.9,0.1-1.3,0.4
			c-0.3,0.3-0.5,0.6-0.5,0.9H745c0-0.4,0.1-0.8,0.4-1.2c0.3-0.4,0.7-0.7,1.2-0.9c0.5-0.2,1.1-0.3,1.7-0.3c1,0,1.7,0.2,2.3,0.7
			c0.6,0.5,0.8,1.2,0.9,2v3.9c0,0.8,0.1,1.4,0.3,1.9v0.1H750.3z M747.9,1686.6c0.5,0,0.9-0.1,1.3-0.4s0.7-0.5,0.9-0.9v-1.7h-1.1
			c-1.8,0-2.7,0.5-2.7,1.6c0,0.5,0.2,0.8,0.5,1.1C747,1686.5,747.4,1686.6,747.9,1686.6z"/>
		<path d="M755.3,1687.7h-1.4v-12h1.4V1687.7z"/>
		<path d="M757.7,1677c0-0.2,0.1-0.4,0.2-0.6c0.1-0.2,0.4-0.2,0.6-0.2s0.5,0.1,0.6,0.2c0.1,0.2,0.2,0.4,0.2,0.6s-0.1,0.4-0.2,0.6
			c-0.1,0.2-0.4,0.2-0.6,0.2s-0.5-0.1-0.6-0.2C757.7,1677.4,757.7,1677.2,757.7,1677z M759.2,1687.7h-1.4v-8.5h1.4V1687.7z"/>
		<path d="M765,1687.8c-1.1,0-2.1-0.4-2.8-1.1s-1.1-1.8-1.1-3v-0.3c0-0.8,0.2-1.6,0.5-2.2s0.8-1.2,1.3-1.5s1.2-0.6,1.9-0.6
			c1.1,0,2,0.4,2.6,1.1s0.9,1.8,0.9,3.1v0.6h-5.7c0,0.8,0.3,1.5,0.7,2s1.1,0.8,1.8,0.8c0.5,0,0.9-0.1,1.3-0.3s0.7-0.5,0.9-0.8
			l0.9,0.7C767.5,1687.3,766.5,1687.8,765,1687.8z M764.9,1680.3c-0.6,0-1.1,0.2-1.5,0.6s-0.6,1-0.7,1.8h4.2v-0.1
			c0-0.7-0.2-1.3-0.6-1.7S765.5,1680.3,764.9,1680.3z"/>
		<path d="M771.4,1679.2l0,1.1c0.6-0.8,1.5-1.2,2.5-1.2c1.8,0,2.7,1,2.7,3v5.6h-1.4v-5.6c0-0.6-0.1-1.1-0.4-1.4s-0.7-0.4-1.3-0.4
			c-0.5,0-0.9,0.1-1.2,0.4s-0.6,0.6-0.8,1v6H770v-8.5H771.4z"/>
		<path d="M778.8,1690l-0.8-0.6c0.5-0.7,0.7-1.4,0.8-2.1v-1.3h1.4v1.1c0,0.5-0.1,1.1-0.4,1.6S779.2,1689.6,778.8,1690z"/>
		<path d="M793.1,1683.6c0,1.3-0.3,2.3-0.9,3.1s-1.4,1.2-2.4,1.2c-1,0-1.8-0.3-2.4-1v4.1h-1.4v-11.7h1.3l0.1,0.9
			c0.6-0.7,1.4-1.1,2.5-1.1c1,0,1.8,0.4,2.4,1.1s0.9,1.8,0.9,3.2V1683.6z M791.6,1683.4c0-1-0.2-1.7-0.6-2.3s-1-0.8-1.7-0.8
			c-0.9,0-1.5,0.4-2,1.2v4c0.4,0.8,1.1,1.2,2,1.2c0.7,0,1.2-0.3,1.7-0.8S791.6,1684.5,791.6,1683.4z"/>
		<path d="M798.4,1687.8c-1.1,0-2.1-0.4-2.8-1.1s-1.1-1.8-1.1-3v-0.3c0-0.8,0.2-1.6,0.5-2.2s0.8-1.2,1.3-1.5s1.2-0.6,1.9-0.6
			c1.1,0,2,0.4,2.6,1.1s0.9,1.8,0.9,3.1v0.6H796c0,0.8,0.3,1.5,0.7,2s1.1,0.8,1.8,0.8c0.5,0,0.9-0.1,1.3-0.3s0.7-0.5,0.9-0.8
			l0.9,0.7C800.9,1687.3,799.8,1687.8,798.4,1687.8z M798.2,1680.3c-0.6,0-1.1,0.2-1.5,0.6s-0.6,1-0.7,1.8h4.2v-0.1
			c0-0.7-0.2-1.3-0.6-1.7S798.8,1680.3,798.2,1680.3z"/>
		<path d="M808.3,1685.5c0-0.4-0.1-0.7-0.4-0.9s-0.8-0.4-1.5-0.6s-1.3-0.3-1.7-0.6s-0.7-0.5-1-0.8s-0.3-0.7-0.3-1.1
			c0-0.7,0.3-1.3,0.9-1.8s1.3-0.7,2.2-0.7c1,0,1.7,0.2,2.3,0.7s0.9,1.1,0.9,1.9h-1.5c0-0.4-0.2-0.7-0.5-1s-0.8-0.4-1.3-0.4
			c-0.5,0-0.9,0.1-1.2,0.3s-0.4,0.5-0.4,0.9c0,0.3,0.1,0.6,0.4,0.8s0.8,0.3,1.5,0.5s1.3,0.4,1.8,0.6s0.8,0.5,1,0.8s0.3,0.7,0.3,1.2
			c0,0.8-0.3,1.4-0.9,1.8s-1.4,0.7-2.4,0.7c-0.7,0-1.3-0.1-1.8-0.4s-0.9-0.6-1.2-1s-0.4-0.9-0.4-1.4h1.4c0,0.5,0.2,0.9,0.6,1.2
			s0.8,0.4,1.4,0.4c0.5,0,1-0.1,1.3-0.3S808.3,1685.8,808.3,1685.5z"/>
		<path d="M815,1686.7c0.5,0,1-0.2,1.4-0.5s0.6-0.7,0.6-1.2h1.4c0,0.5-0.2,0.9-0.5,1.4s-0.7,0.8-1.2,1s-1.1,0.4-1.6,0.4
			c-1.2,0-2.1-0.4-2.7-1.2s-1-1.8-1-3.2v-0.2c0-0.8,0.2-1.6,0.5-2.2s0.7-1.1,1.3-1.5s1.2-0.5,2-0.5c0.9,0,1.7,0.3,2.4,0.9
			s1,1.3,1,2.2H817c0-0.5-0.2-1-0.6-1.3s-0.8-0.5-1.4-0.5c-0.7,0-1.3,0.3-1.7,0.8s-0.6,1.3-0.6,2.3v0.3c0,1,0.2,1.7,0.6,2.2
			S814.3,1686.7,815,1686.7z"/>
		<path d="M823.5,1687.8c-1.1,0-2.1-0.4-2.8-1.1s-1.1-1.8-1.1-3v-0.3c0-0.8,0.2-1.6,0.5-2.2s0.8-1.2,1.3-1.5s1.2-0.6,1.9-0.6
			c1.1,0,2,0.4,2.6,1.1s0.9,1.8,0.9,3.1v0.6h-5.7c0,0.8,0.3,1.5,0.7,2s1.1,0.8,1.8,0.8c0.5,0,0.9-0.1,1.3-0.3s0.7-0.5,0.9-0.8
			l0.9,0.7C826,1687.3,824.9,1687.8,823.5,1687.8z M823.3,1680.3c-0.6,0-1.1,0.2-1.5,0.6s-0.6,1-0.7,1.8h4.2v-0.1
			c0-0.7-0.2-1.3-0.6-1.7S823.9,1680.3,823.3,1680.3z"/>
		<path d="M830.5,1677.2v2h1.6v1.1h-1.6v5.2c0,0.3,0.1,0.6,0.2,0.8c0.1,0.2,0.4,0.3,0.7,0.3c0.2,0,0.4,0,0.7-0.1v1.2
			c-0.4,0.1-0.8,0.2-1.1,0.2c-0.6,0-1.1-0.2-1.5-0.6s-0.5-0.9-0.5-1.7v-5.2h-1.5v-1.1h1.5v-2H830.5z"/>
		<path d="M838.9,1687.7c-0.1-0.2-0.2-0.5-0.2-0.9c-0.7,0.7-1.5,1-2.4,1c-0.8,0-1.5-0.2-2.1-0.7s-0.8-1.1-0.8-1.8
			c0-0.9,0.3-1.6,1-2.1s1.6-0.7,2.8-0.7h1.4v-0.7c0-0.5-0.2-0.9-0.5-1.2s-0.7-0.4-1.3-0.4c-0.5,0-0.9,0.1-1.3,0.4s-0.5,0.6-0.5,0.9
			h-1.5c0-0.4,0.1-0.8,0.4-1.2s0.7-0.7,1.2-0.9s1.1-0.3,1.7-0.3c1,0,1.7,0.2,2.3,0.7s0.8,1.2,0.9,2v3.9c0,0.8,0.1,1.4,0.3,1.9v0.1
			H838.9z M836.5,1686.6c0.5,0,0.9-0.1,1.3-0.4s0.7-0.5,0.9-0.9v-1.7h-1.1c-1.8,0-2.7,0.5-2.7,1.6c0,0.5,0.2,0.8,0.5,1.1
			S836.1,1686.6,836.5,1686.6z"/>
		<path d="M846.5,1680.5c-0.2,0-0.5-0.1-0.7-0.1c-0.9,0-1.6,0.4-1.9,1.2v6h-1.4v-8.5h1.4l0,1c0.5-0.8,1.1-1.1,2-1.1
			c0.3,0,0.5,0,0.6,0.1V1680.5z"/>
		<path d="M847.8,1677c0-0.2,0.1-0.4,0.2-0.6s0.4-0.2,0.6-0.2s0.5,0.1,0.6,0.2s0.2,0.4,0.2,0.6s-0.1,0.4-0.2,0.6s-0.4,0.2-0.6,0.2
			s-0.5-0.1-0.6-0.2S847.8,1677.2,847.8,1677z M849.4,1687.7H848v-8.5h1.4V1687.7z"/>
		<path d="M855.2,1687.8c-1.1,0-2.1-0.4-2.8-1.1s-1.1-1.8-1.1-3v-0.3c0-0.8,0.2-1.6,0.5-2.2s0.8-1.2,1.3-1.5s1.2-0.6,1.9-0.6
			c1.1,0,2,0.4,2.6,1.1s0.9,1.8,0.9,3.1v0.6h-5.7c0,0.8,0.3,1.5,0.7,2s1.1,0.8,1.8,0.8c0.5,0,0.9-0.1,1.3-0.3s0.7-0.5,0.9-0.8
			l0.9,0.7C857.7,1687.3,856.6,1687.8,855.2,1687.8z M855,1680.3c-0.6,0-1.1,0.2-1.5,0.6s-0.6,1-0.7,1.8h4.2v-0.1
			c0-0.7-0.2-1.3-0.6-1.7S855.6,1680.3,855,1680.3z"/>
		<path d="M861.6,1679.2l0,1.1c0.6-0.8,1.5-1.2,2.5-1.2c1.8,0,2.7,1,2.7,3v5.6h-1.4v-5.6c0-0.6-0.1-1.1-0.4-1.4s-0.7-0.4-1.3-0.4
			c-0.5,0-0.9,0.1-1.2,0.4s-0.6,0.6-0.8,1v6h-1.4v-8.5H861.6z"/>
		<path d="M869,1690l-0.8-0.6c0.5-0.7,0.7-1.4,0.8-2.1v-1.3h1.4v1.1c0,0.5-0.1,1.1-0.4,1.6S869.4,1689.6,869,1690z"/>
		<path d="M878.5,1683.8l-0.9,0.9v3h-1.4v-12h1.4v7.3l0.8-0.9l2.6-2.8h1.8l-3.3,3.5l3.7,4.9h-1.7L878.5,1683.8z"/>
		<path d="M887.6,1687.8c-1.1,0-2.1-0.4-2.8-1.1s-1.1-1.8-1.1-3v-0.3c0-0.8,0.2-1.6,0.5-2.2s0.8-1.2,1.3-1.5s1.2-0.6,1.9-0.6
			c1.1,0,2,0.4,2.6,1.1s0.9,1.8,0.9,3.1v0.6h-5.7c0,0.8,0.3,1.5,0.7,2s1.1,0.8,1.8,0.8c0.5,0,0.9-0.1,1.3-0.3s0.7-0.5,0.9-0.8
			l0.9,0.7C890.1,1687.3,889,1687.8,887.6,1687.8z M887.4,1680.3c-0.6,0-1.1,0.2-1.5,0.6s-0.6,1-0.7,1.8h4.2v-0.1
			c0-0.7-0.2-1.3-0.6-1.7S888,1680.3,887.4,1680.3z"/>
		<path d="M894.5,1677.2v2h1.6v1.1h-1.6v5.2c0,0.3,0.1,0.6,0.2,0.8c0.1,0.2,0.4,0.3,0.7,0.3c0.2,0,0.4,0,0.7-0.1v1.2
			c-0.4,0.1-0.8,0.2-1.1,0.2c-0.6,0-1.1-0.2-1.5-0.6s-0.5-0.9-0.5-1.7v-5.2h-1.5v-1.1h1.5v-2H894.5z"/>
		<path d="M897.2,1683.4c0-0.8,0.2-1.6,0.5-2.2s0.8-1.2,1.4-1.5s1.2-0.5,2-0.5c1.2,0,2.1,0.4,2.8,1.2s1.1,1.9,1.1,3.2v0.1
			c0,0.8-0.2,1.6-0.5,2.2s-0.8,1.2-1.4,1.5s-1.3,0.5-2,0.5c-1.1,0-2.1-0.4-2.8-1.2s-1.1-1.9-1.1-3.2V1683.4z M898.7,1683.6
			c0,0.9,0.2,1.7,0.7,2.3s1,0.9,1.7,0.9c0.7,0,1.3-0.3,1.8-0.9s0.6-1.4,0.6-2.4c0-0.9-0.2-1.7-0.7-2.3s-1-0.9-1.8-0.9
			c-0.7,0-1.3,0.3-1.7,0.9S898.7,1682.5,898.7,1683.6z"/>
		<path d="M906.7,1690l-0.8-0.6c0.5-0.7,0.7-1.4,0.8-2.1v-1.3h1.4v1.1c0,0.5-0.1,1.1-0.4,1.6S907.1,1689.6,906.7,1690z"/>
	</g>
	<g class="st3">
		<path d="M663.1,1704.5c0-0.4-0.1-0.7-0.4-0.9c-0.3-0.2-0.8-0.4-1.5-0.6c-0.7-0.2-1.3-0.3-1.7-0.6s-0.7-0.5-1-0.8
			c-0.2-0.3-0.3-0.7-0.3-1.1c0-0.7,0.3-1.3,0.9-1.8s1.3-0.7,2.2-0.7c1,0,1.7,0.2,2.3,0.7c0.6,0.5,0.9,1.1,0.9,1.9H663
			c0-0.4-0.2-0.7-0.5-1s-0.8-0.4-1.3-0.4c-0.5,0-0.9,0.1-1.2,0.3s-0.4,0.5-0.4,0.9c0,0.3,0.1,0.6,0.4,0.8c0.3,0.2,0.8,0.3,1.5,0.5
			c0.7,0.2,1.3,0.4,1.8,0.6c0.4,0.2,0.8,0.5,1,0.8c0.2,0.3,0.3,0.7,0.3,1.2c0,0.8-0.3,1.4-0.9,1.8c-0.6,0.5-1.4,0.7-2.4,0.7
			c-0.7,0-1.3-0.1-1.8-0.4c-0.5-0.2-0.9-0.6-1.2-1c-0.3-0.4-0.4-0.9-0.4-1.4h1.4c0,0.5,0.2,0.9,0.6,1.2c0.4,0.3,0.8,0.4,1.4,0.4
			c0.5,0,1-0.1,1.3-0.3C662.9,1705.1,663.1,1704.8,663.1,1704.5z"/>
		<path d="M671.6,1706.7c-0.1-0.2-0.2-0.5-0.2-0.9c-0.7,0.7-1.5,1-2.4,1c-0.8,0-1.5-0.2-2.1-0.7c-0.5-0.5-0.8-1.1-0.8-1.8
			c0-0.9,0.3-1.6,1-2.1c0.7-0.5,1.6-0.7,2.8-0.7h1.4v-0.7c0-0.5-0.2-0.9-0.5-1.2c-0.3-0.3-0.7-0.4-1.3-0.4c-0.5,0-0.9,0.1-1.3,0.4
			c-0.3,0.3-0.5,0.6-0.5,0.9h-1.5c0-0.4,0.1-0.8,0.4-1.2c0.3-0.4,0.7-0.7,1.2-0.9c0.5-0.2,1.1-0.3,1.7-0.3c1,0,1.7,0.2,2.3,0.7
			c0.6,0.5,0.8,1.2,0.9,2v3.9c0,0.8,0.1,1.4,0.3,1.9v0.1H671.6z M669.2,1705.6c0.5,0,0.9-0.1,1.3-0.4s0.7-0.5,0.9-0.9v-1.7h-1.1
			c-1.8,0-2.7,0.5-2.7,1.6c0,0.5,0.2,0.8,0.5,1.1C668.3,1705.5,668.7,1705.6,669.2,1705.6z"/>
		<path d="M676.5,1698.2l0,1.1c0.6-0.8,1.5-1.2,2.5-1.2c1.8,0,2.7,1,2.7,3v5.6h-1.4v-5.6c0-0.6-0.1-1.1-0.4-1.4s-0.7-0.4-1.3-0.4
			c-0.5,0-0.9,0.1-1.2,0.4c-0.4,0.2-0.6,0.6-0.8,1v6h-1.4v-8.5H676.5z"/>
		<path d="M688.8,1704.5c0-0.4-0.1-0.7-0.4-0.9c-0.3-0.2-0.8-0.4-1.5-0.6c-0.7-0.2-1.3-0.3-1.7-0.6s-0.7-0.5-1-0.8
			c-0.2-0.3-0.3-0.7-0.3-1.1c0-0.7,0.3-1.3,0.9-1.8s1.3-0.7,2.2-0.7c1,0,1.7,0.2,2.3,0.7c0.6,0.5,0.9,1.1,0.9,1.9h-1.5
			c0-0.4-0.2-0.7-0.5-1s-0.8-0.4-1.3-0.4c-0.5,0-0.9,0.1-1.2,0.3s-0.4,0.5-0.4,0.9c0,0.3,0.1,0.6,0.4,0.8c0.3,0.2,0.8,0.3,1.5,0.5
			c0.7,0.2,1.3,0.4,1.8,0.6c0.4,0.2,0.8,0.5,1,0.8c0.2,0.3,0.3,0.7,0.3,1.2c0,0.8-0.3,1.4-0.9,1.8c-0.6,0.5-1.4,0.7-2.4,0.7
			c-0.7,0-1.3-0.1-1.8-0.4c-0.5-0.2-0.9-0.6-1.2-1c-0.3-0.4-0.4-0.9-0.4-1.4h1.4c0,0.5,0.2,0.9,0.6,1.2c0.4,0.3,0.8,0.4,1.4,0.4
			c0.5,0,1-0.1,1.3-0.3C688.7,1705.1,688.8,1704.8,688.8,1704.5z"/>
		<path d="M695.8,1702.4c0-1.3,0.3-2.4,0.9-3.1s1.4-1.2,2.4-1.2c1,0,1.8,0.4,2.4,1.1l0.1-0.9h1.3v8.2c0,1.1-0.3,2-1,2.6
			s-1.5,0.9-2.6,0.9c-0.6,0-1.2-0.1-1.8-0.4c-0.6-0.3-1-0.6-1.3-1.1l0.8-0.9c0.6,0.8,1.4,1.1,2.3,1.1c0.7,0,1.3-0.2,1.6-0.6
			c0.4-0.4,0.6-1,0.6-1.7v-0.7c-0.6,0.7-1.4,1-2.4,1c-1,0-1.8-0.4-2.4-1.2C696.1,1704.9,695.8,1703.8,695.8,1702.4z M697.2,1702.6
			c0,1,0.2,1.7,0.6,2.2s0.9,0.8,1.6,0.8c0.9,0,1.6-0.4,2-1.2v-3.9c-0.4-0.8-1.1-1.2-2-1.2c-0.7,0-1.3,0.3-1.6,0.8
			C697.4,1700.7,697.2,1701.5,697.2,1702.6z"/>
		<path d="M706.7,1706.7h-1.4v-12h1.4V1706.7z"/>
		<path d="M714.2,1705.9c-0.6,0.7-1.4,1-2.5,1c-0.9,0-1.6-0.3-2.1-0.8c-0.5-0.5-0.7-1.3-0.7-2.3v-5.5h1.4v5.5c0,1.3,0.5,1.9,1.6,1.9
			c1.1,0,1.8-0.4,2.2-1.2v-6.1h1.4v8.5h-1.4L714.2,1705.9z"/>
		<path d="M719.8,1696.2v2h1.6v1.1h-1.6v5.2c0,0.3,0.1,0.6,0.2,0.8c0.1,0.2,0.4,0.3,0.7,0.3c0.2,0,0.4,0,0.7-0.1v1.2
			c-0.4,0.1-0.8,0.2-1.1,0.2c-0.6,0-1.1-0.2-1.5-0.6s-0.5-0.9-0.5-1.7v-5.2h-1.5v-1.1h1.5v-2H719.8z"/>
		<path d="M726.5,1706.8c-1.1,0-2.1-0.4-2.8-1.1s-1.1-1.8-1.1-3v-0.3c0-0.8,0.2-1.6,0.5-2.2s0.8-1.2,1.3-1.5
			c0.6-0.4,1.2-0.6,1.9-0.6c1.1,0,2,0.4,2.6,1.1s0.9,1.8,0.9,3.1v0.6h-5.7c0,0.8,0.3,1.5,0.7,2c0.5,0.5,1.1,0.8,1.8,0.8
			c0.5,0,0.9-0.1,1.3-0.3c0.4-0.2,0.7-0.5,0.9-0.8l0.9,0.7C729,1706.3,728,1706.8,726.5,1706.8z M726.4,1699.3
			c-0.6,0-1.1,0.2-1.5,0.6c-0.4,0.4-0.6,1-0.7,1.8h4.2v-0.1c0-0.7-0.2-1.3-0.6-1.7C727.4,1699.5,727,1699.3,726.4,1699.3z"/>
		<path d="M732.9,1698.2l0,1.1c0.6-0.8,1.5-1.2,2.5-1.2c1.8,0,2.7,1,2.7,3v5.6h-1.4v-5.6c0-0.6-0.1-1.1-0.4-1.4s-0.7-0.4-1.3-0.4
			c-0.5,0-0.9,0.1-1.2,0.4c-0.4,0.2-0.6,0.6-0.8,1v6h-1.4v-8.5H732.9z"/>
		<path d="M740.3,1709l-0.8-0.6c0.5-0.7,0.7-1.4,0.8-2.1v-1.3h1.4v1.1c0,0.5-0.1,1.1-0.4,1.6S740.7,1708.6,740.3,1709z"/>
		<path d="M747.1,1702.4c0-0.8,0.2-1.6,0.5-2.2c0.3-0.7,0.8-1.2,1.4-1.5c0.6-0.4,1.2-0.5,2-0.5c1.2,0,2.1,0.4,2.8,1.2
			s1.1,1.9,1.1,3.2v0.1c0,0.8-0.2,1.6-0.5,2.2c-0.3,0.7-0.8,1.2-1.4,1.5s-1.3,0.5-2,0.5c-1.1,0-2.1-0.4-2.8-1.2s-1.1-1.9-1.1-3.2
			V1702.4z M748.5,1702.6c0,0.9,0.2,1.7,0.7,2.3c0.4,0.6,1,0.9,1.7,0.9c0.7,0,1.3-0.3,1.8-0.9c0.4-0.6,0.6-1.4,0.6-2.4
			c0-0.9-0.2-1.7-0.7-2.3c-0.4-0.6-1-0.9-1.8-0.9c-0.7,0-1.3,0.3-1.7,0.9S748.5,1701.5,748.5,1702.6z"/>
		<path d="M761.8,1705.9c-0.6,0.7-1.4,1-2.5,1c-0.9,0-1.6-0.3-2.1-0.8c-0.5-0.5-0.7-1.3-0.7-2.3v-5.5h1.4v5.5c0,1.3,0.5,1.9,1.6,1.9
			c1.1,0,1.8-0.4,2.2-1.2v-6.1h1.4v8.5h-1.4L761.8,1705.9z"/>
		<path d="M774.3,1704.5c0-0.4-0.1-0.7-0.4-0.9s-0.8-0.4-1.5-0.6s-1.3-0.3-1.7-0.6s-0.7-0.5-1-0.8s-0.3-0.7-0.3-1.1
			c0-0.7,0.3-1.3,0.9-1.8s1.3-0.7,2.2-0.7c1,0,1.7,0.2,2.3,0.7s0.9,1.1,0.9,1.9h-1.5c0-0.4-0.2-0.7-0.5-1s-0.8-0.4-1.3-0.4
			c-0.5,0-0.9,0.1-1.2,0.3s-0.4,0.5-0.4,0.9c0,0.3,0.1,0.6,0.4,0.8s0.8,0.3,1.5,0.5s1.3,0.4,1.8,0.6s0.8,0.5,1,0.8s0.3,0.7,0.3,1.2
			c0,0.8-0.3,1.4-0.9,1.8s-1.4,0.7-2.4,0.7c-0.7,0-1.3-0.1-1.8-0.4s-0.9-0.6-1.2-1s-0.4-0.9-0.4-1.4h1.4c0,0.5,0.2,0.9,0.6,1.2
			s0.8,0.4,1.4,0.4c0.5,0,1-0.1,1.3-0.3S774.3,1704.8,774.3,1704.5z"/>
		<path d="M782.8,1706.7c-0.1-0.2-0.2-0.5-0.2-0.9c-0.7,0.7-1.5,1-2.4,1c-0.8,0-1.5-0.2-2.1-0.7s-0.8-1.1-0.8-1.8
			c0-0.9,0.3-1.6,1-2.1s1.6-0.7,2.8-0.7h1.4v-0.7c0-0.5-0.2-0.9-0.5-1.2s-0.7-0.4-1.3-0.4c-0.5,0-0.9,0.1-1.3,0.4s-0.5,0.6-0.5,0.9
			h-1.5c0-0.4,0.1-0.8,0.4-1.2s0.7-0.7,1.2-0.9s1.1-0.3,1.7-0.3c1,0,1.7,0.2,2.3,0.7s0.8,1.2,0.9,2v3.9c0,0.8,0.1,1.4,0.3,1.9v0.1
			H782.8z M780.4,1705.6c0.5,0,0.9-0.1,1.3-0.4s0.7-0.5,0.9-0.9v-1.7h-1.1c-1.8,0-2.7,0.5-2.7,1.6c0,0.5,0.2,0.8,0.5,1.1
			S779.9,1705.6,780.4,1705.6z"/>
		<path d="M787.7,1698.2l0,1.1c0.6-0.8,1.5-1.2,2.5-1.2c1.8,0,2.7,1,2.7,3v5.6h-1.4v-5.6c0-0.6-0.1-1.1-0.4-1.4s-0.7-0.4-1.3-0.4
			c-0.5,0-0.9,0.1-1.2,0.4s-0.6,0.6-0.8,1v6h-1.4v-8.5H787.7z"/>
		<path d="M800,1704.5c0-0.4-0.1-0.7-0.4-0.9s-0.8-0.4-1.5-0.6s-1.3-0.3-1.7-0.6s-0.7-0.5-1-0.8s-0.3-0.7-0.3-1.1
			c0-0.7,0.3-1.3,0.9-1.8s1.3-0.7,2.2-0.7c1,0,1.7,0.2,2.3,0.7s0.9,1.1,0.9,1.9H800c0-0.4-0.2-0.7-0.5-1s-0.8-0.4-1.3-0.4
			c-0.5,0-0.9,0.1-1.2,0.3s-0.4,0.5-0.4,0.9c0,0.3,0.1,0.6,0.4,0.8s0.8,0.3,1.5,0.5s1.3,0.4,1.8,0.6s0.8,0.5,1,0.8s0.3,0.7,0.3,1.2
			c0,0.8-0.3,1.4-0.9,1.8s-1.4,0.7-2.4,0.7c-0.7,0-1.3-0.1-1.8-0.4s-0.9-0.6-1.2-1s-0.4-0.9-0.4-1.4h1.4c0,0.5,0.2,0.9,0.6,1.2
			s0.8,0.4,1.4,0.4c0.5,0,1-0.1,1.3-0.3S800,1704.8,800,1704.5z"/>
		<path d="M814.5,1702.6c0,1.3-0.3,2.3-0.9,3.1s-1.4,1.2-2.4,1.2c-1,0-1.8-0.3-2.4-1v4.1h-1.4v-11.7h1.3l0.1,0.9
			c0.6-0.7,1.4-1.1,2.5-1.1c1,0,1.8,0.4,2.4,1.1s0.9,1.8,0.9,3.2V1702.6z M813,1702.4c0-1-0.2-1.7-0.6-2.3s-1-0.8-1.7-0.8
			c-0.9,0-1.5,0.4-2,1.2v4c0.4,0.8,1.1,1.2,2,1.2c0.7,0,1.2-0.3,1.7-0.8S813,1703.5,813,1702.4z"/>
		<path d="M820.4,1699.5c-0.2,0-0.5-0.1-0.7-0.1c-0.9,0-1.6,0.4-1.9,1.2v6h-1.4v-8.5h1.4l0,1c0.5-0.8,1.1-1.1,2-1.1
			c0.3,0,0.5,0,0.6,0.1V1699.5z"/>
		<path d="M825.1,1706.8c-1.1,0-2.1-0.4-2.8-1.1s-1.1-1.8-1.1-3v-0.3c0-0.8,0.2-1.6,0.5-2.2s0.8-1.2,1.3-1.5s1.2-0.6,1.9-0.6
			c1.1,0,2,0.4,2.6,1.1s0.9,1.8,0.9,3.1v0.6h-5.7c0,0.8,0.3,1.5,0.7,2s1.1,0.8,1.8,0.8c0.5,0,0.9-0.1,1.3-0.3s0.7-0.5,0.9-0.8
			l0.9,0.7C827.6,1706.3,826.5,1706.8,825.1,1706.8z M824.9,1699.3c-0.6,0-1.1,0.2-1.5,0.6s-0.6,1-0.7,1.8h4.2v-0.1
			c0-0.7-0.2-1.3-0.6-1.7S825.5,1699.3,824.9,1699.3z M825.6,1694.7h1.8l-2.1,2.3l-1.2,0L825.6,1694.7z"/>
		<path d="M830.8,1706.7v-7.3h-1.3v-1.1h1.3v-0.9c0-0.9,0.2-1.6,0.7-2.1s1.2-0.7,2.1-0.7c0.3,0,0.7,0,1,0.1l-0.1,1.2
			c-0.2,0-0.5-0.1-0.8-0.1c-0.5,0-0.8,0.1-1.1,0.4s-0.4,0.7-0.4,1.2v0.9h1.8v1.1h-1.8v7.3H830.8z"/>
		<path d="M838.9,1706.8c-1.1,0-2.1-0.4-2.8-1.1s-1.1-1.8-1.1-3v-0.3c0-0.8,0.2-1.6,0.5-2.2s0.8-1.2,1.3-1.5s1.2-0.6,1.9-0.6
			c1.1,0,2,0.4,2.6,1.1s0.9,1.8,0.9,3.1v0.6h-5.7c0,0.8,0.3,1.5,0.7,2s1.1,0.8,1.8,0.8c0.5,0,0.9-0.1,1.3-0.3s0.7-0.5,0.9-0.8
			l0.9,0.7C841.4,1706.3,840.3,1706.8,838.9,1706.8z M838.7,1699.3c-0.6,0-1.1,0.2-1.5,0.6s-0.6,1-0.7,1.8h4.2v-0.1
			c0-0.7-0.2-1.3-0.6-1.7S839.4,1699.3,838.7,1699.3z M839.5,1694.7h1.8l-2.1,2.3l-1.2,0L839.5,1694.7z"/>
		<path d="M848,1699.5c-0.2,0-0.5-0.1-0.7-0.1c-0.9,0-1.6,0.4-1.9,1.2v6h-1.4v-8.5h1.4l0,1c0.5-0.8,1.1-1.1,2-1.1
			c0.3,0,0.5,0,0.6,0.1V1699.5z"/>
		<path d="M852.7,1706.8c-1.1,0-2.1-0.4-2.8-1.1s-1.1-1.8-1.1-3v-0.3c0-0.8,0.2-1.6,0.5-2.2s0.8-1.2,1.3-1.5s1.2-0.6,1.9-0.6
			c1.1,0,2,0.4,2.6,1.1s0.9,1.8,0.9,3.1v0.6h-5.7c0,0.8,0.3,1.5,0.7,2s1.1,0.8,1.8,0.8c0.5,0,0.9-0.1,1.3-0.3s0.7-0.5,0.9-0.8
			l0.9,0.7C855.1,1706.3,854.1,1706.8,852.7,1706.8z M852.5,1699.3c-0.6,0-1.1,0.2-1.5,0.6s-0.6,1-0.7,1.8h4.2v-0.1
			c0-0.7-0.2-1.3-0.6-1.7S853.1,1699.3,852.5,1699.3z"/>
		<path d="M859,1698.2l0,1.1c0.6-0.8,1.5-1.2,2.5-1.2c1.8,0,2.7,1,2.7,3v5.6h-1.4v-5.6c0-0.6-0.1-1.1-0.4-1.4s-0.7-0.4-1.3-0.4
			c-0.5,0-0.9,0.1-1.2,0.4s-0.6,0.6-0.8,1v6h-1.4v-8.5H859z"/>
		<path d="M869.9,1705.7c0.5,0,1-0.2,1.4-0.5s0.6-0.7,0.6-1.2h1.4c0,0.5-0.2,0.9-0.5,1.4s-0.7,0.8-1.2,1s-1.1,0.4-1.6,0.4
			c-1.2,0-2.1-0.4-2.7-1.2s-1-1.8-1-3.2v-0.2c0-0.8,0.2-1.6,0.5-2.2s0.7-1.1,1.3-1.5s1.2-0.5,2-0.5c0.9,0,1.7,0.3,2.4,0.9
			s1,1.3,1,2.2h-1.4c0-0.5-0.2-1-0.6-1.3s-0.8-0.5-1.4-0.5c-0.7,0-1.3,0.3-1.7,0.8s-0.6,1.3-0.6,2.3v0.3c0,1,0.2,1.7,0.6,2.2
			S869.1,1705.7,869.9,1705.7z"/>
		<path d="M878.3,1706.8c-1.1,0-2.1-0.4-2.8-1.1s-1.1-1.8-1.1-3v-0.3c0-0.8,0.2-1.6,0.5-2.2s0.8-1.2,1.3-1.5s1.2-0.6,1.9-0.6
			c1.1,0,2,0.4,2.6,1.1s0.9,1.8,0.9,3.1v0.6h-5.7c0,0.8,0.3,1.5,0.7,2s1.1,0.8,1.8,0.8c0.5,0,0.9-0.1,1.3-0.3s0.7-0.5,0.9-0.8
			l0.9,0.7C880.8,1706.3,879.8,1706.8,878.3,1706.8z M878.2,1699.3c-0.6,0-1.1,0.2-1.5,0.6s-0.6,1-0.7,1.8h4.2v-0.1
			c0-0.7-0.2-1.3-0.6-1.7S878.8,1699.3,878.2,1699.3z"/>
		<path d="M883.3,1705.9c0-0.2,0.1-0.5,0.2-0.6s0.4-0.2,0.7-0.2s0.5,0.1,0.7,0.2s0.2,0.4,0.2,0.6c0,0.2-0.1,0.4-0.2,0.6
			s-0.4,0.2-0.7,0.2s-0.5-0.1-0.7-0.2S883.3,1706.2,883.3,1705.9z"/>
	</g>
	<g class="st3">
		<path d="M657.2,1715.5h-3.7v10.1H652v-10.1h-3.6v-1.2h8.8V1715.5z"/>
		<path d="M662.2,1718.5c-0.2,0-0.5-0.1-0.7-0.1c-0.9,0-1.6,0.4-1.9,1.2v6h-1.4v-8.5h1.4l0,1c0.5-0.8,1.1-1.1,2-1.1
			c0.3,0,0.5,0,0.6,0.1V1718.5z"/>
		<path d="M662.9,1721.4c0-0.8,0.2-1.6,0.5-2.2c0.3-0.7,0.8-1.2,1.4-1.5c0.6-0.4,1.2-0.5,2-0.5c1.2,0,2.1,0.4,2.8,1.2
			s1.1,1.9,1.1,3.2v0.1c0,0.8-0.2,1.6-0.5,2.2c-0.3,0.7-0.8,1.2-1.4,1.5s-1.3,0.5-2,0.5c-1.1,0-2.1-0.4-2.8-1.2s-1.1-1.9-1.1-3.2
			V1721.4z M664.4,1721.6c0,0.9,0.2,1.7,0.7,2.3c0.4,0.6,1,0.9,1.7,0.9c0.7,0,1.3-0.3,1.8-0.9c0.4-0.6,0.6-1.4,0.6-2.4
			c0-0.9-0.2-1.7-0.7-2.3c-0.4-0.6-1-0.9-1.8-0.9c-0.7,0-1.3,0.3-1.7,0.9S664.4,1720.5,664.4,1721.6z"/>
		<path d="M677.7,1724.9c-0.6,0.7-1.4,1-2.5,1c-0.9,0-1.6-0.3-2.1-0.8c-0.5-0.5-0.7-1.3-0.7-2.3v-5.5h1.4v5.5c0,1.3,0.5,1.9,1.6,1.9
			c1.1,0,1.8-0.4,2.2-1.2v-6.1h1.4v8.5h-1.4L677.7,1724.9z"/>
		<path d="M684.1,1723.7l2.1-6.5h1.5l-3,8.5h-1.1l-3.1-8.5h1.5L684.1,1723.7z"/>
		<path d="M692.4,1725.8c-1.1,0-2.1-0.4-2.8-1.1s-1.1-1.8-1.1-3v-0.3c0-0.8,0.2-1.6,0.5-2.2s0.8-1.2,1.3-1.5
			c0.6-0.4,1.2-0.6,1.9-0.6c1.1,0,2,0.4,2.6,1.1s0.9,1.8,0.9,3.1v0.6H690c0,0.8,0.3,1.5,0.7,2c0.5,0.5,1.1,0.8,1.8,0.8
			c0.5,0,0.9-0.1,1.3-0.3c0.4-0.2,0.7-0.5,0.9-0.8l0.9,0.7C694.9,1725.3,693.8,1725.8,692.4,1725.8z M692.3,1718.3
			c-0.6,0-1.1,0.2-1.5,0.6c-0.4,0.4-0.6,1-0.7,1.8h4.2v-0.1c0-0.7-0.2-1.3-0.6-1.7C693.3,1718.5,692.9,1718.3,692.3,1718.3z"/>
		<path d="M701.5,1718.5c-0.2,0-0.5-0.1-0.7-0.1c-0.9,0-1.6,0.4-1.9,1.2v6h-1.4v-8.5h1.4l0,1c0.5-0.8,1.1-1.1,2-1.1
			c0.3,0,0.5,0,0.6,0.1V1718.5z"/>
		<path d="M711.7,1723.5c0-0.4-0.1-0.7-0.4-0.9c-0.3-0.2-0.8-0.4-1.5-0.6c-0.7-0.2-1.3-0.3-1.7-0.6s-0.7-0.5-1-0.8
			c-0.2-0.3-0.3-0.7-0.3-1.1c0-0.7,0.3-1.3,0.9-1.8s1.3-0.7,2.2-0.7c1,0,1.7,0.2,2.3,0.7c0.6,0.5,0.9,1.1,0.9,1.9h-1.5
			c0-0.4-0.2-0.7-0.5-1s-0.8-0.4-1.3-0.4c-0.5,0-0.9,0.1-1.2,0.3s-0.4,0.5-0.4,0.9c0,0.3,0.1,0.6,0.4,0.8c0.3,0.2,0.8,0.3,1.5,0.5
			c0.7,0.2,1.3,0.4,1.8,0.6c0.4,0.2,0.8,0.5,1,0.8c0.2,0.3,0.3,0.7,0.3,1.2c0,0.8-0.3,1.4-0.9,1.8c-0.6,0.5-1.4,0.7-2.4,0.7
			c-0.7,0-1.3-0.1-1.8-0.4c-0.5-0.2-0.9-0.6-1.2-1c-0.3-0.4-0.4-0.9-0.4-1.4h1.4c0,0.5,0.2,0.9,0.6,1.2c0.4,0.3,0.8,0.4,1.4,0.4
			c0.5,0,1-0.1,1.3-0.3C711.5,1724.1,711.7,1723.8,711.7,1723.5z"/>
		<path d="M714.6,1721.4c0-0.8,0.2-1.6,0.5-2.2c0.3-0.7,0.8-1.2,1.4-1.5c0.6-0.4,1.2-0.5,2-0.5c1.2,0,2.1,0.4,2.8,1.2
			s1.1,1.9,1.1,3.2v0.1c0,0.8-0.2,1.6-0.5,2.2c-0.3,0.7-0.8,1.2-1.4,1.5s-1.3,0.5-2,0.5c-1.1,0-2.1-0.4-2.8-1.2s-1.1-1.9-1.1-3.2
			V1721.4z M716.1,1721.6c0,0.9,0.2,1.7,0.7,2.3c0.4,0.6,1,0.9,1.7,0.9c0.7,0,1.3-0.3,1.8-0.9c0.4-0.6,0.6-1.4,0.6-2.4
			c0-0.9-0.2-1.7-0.7-2.3c-0.4-0.6-1-0.9-1.8-0.9c-0.7,0-1.3,0.3-1.7,0.9S716.1,1720.5,716.1,1721.6z"/>
		<path d="M725.5,1717.2l0,1.1c0.6-0.8,1.5-1.2,2.5-1.2c1.8,0,2.7,1,2.7,3v5.6h-1.4v-5.6c0-0.6-0.1-1.1-0.4-1.4s-0.7-0.4-1.3-0.4
			c-0.5,0-0.9,0.1-1.2,0.4c-0.4,0.2-0.6,0.6-0.8,1v6h-1.4v-8.5H725.5z"/>
		<path d="M744.1,1721.6c0,1.3-0.3,2.3-0.9,3.1s-1.4,1.2-2.4,1.2c-1.1,0-1.9-0.4-2.5-1.1l-0.1,1h-1.3v-12h1.4v4.5
			c0.6-0.7,1.4-1.1,2.4-1.1c1,0,1.8,0.4,2.4,1.2s0.9,1.8,0.9,3.2V1721.6z M742.6,1721.4c0-1-0.2-1.7-0.6-2.3
			c-0.4-0.5-0.9-0.8-1.6-0.8c-1,0-1.6,0.4-2.1,1.3v3.7c0.4,0.9,1.1,1.3,2.1,1.3c0.7,0,1.2-0.3,1.6-0.8
			C742.5,1723.3,742.6,1722.5,742.6,1721.4z"/>
		<path d="M745.5,1721.4c0-0.8,0.2-1.6,0.5-2.2c0.3-0.7,0.8-1.2,1.4-1.5c0.6-0.4,1.2-0.5,2-0.5c1.2,0,2.1,0.4,2.8,1.2
			s1.1,1.9,1.1,3.2v0.1c0,0.8-0.2,1.6-0.5,2.2c-0.3,0.7-0.8,1.2-1.4,1.5s-1.3,0.5-2,0.5c-1.1,0-2.1-0.4-2.8-1.2s-1.1-1.9-1.1-3.2
			V1721.4z M747,1721.6c0,0.9,0.2,1.7,0.7,2.3c0.4,0.6,1,0.9,1.7,0.9c0.7,0,1.3-0.3,1.8-0.9c0.4-0.6,0.6-1.4,0.6-2.4
			c0-0.9-0.2-1.7-0.7-2.3c-0.4-0.6-1-0.9-1.8-0.9c-0.7,0-1.3,0.3-1.7,0.9S747,1720.5,747,1721.6z"/>
		<path d="M756.4,1717.2l0,1.1c0.6-0.8,1.5-1.2,2.5-1.2c1.8,0,2.7,1,2.7,3v5.6h-1.4v-5.6c0-0.6-0.1-1.1-0.4-1.4s-0.7-0.4-1.3-0.4
			c-0.5,0-0.9,0.1-1.2,0.4c-0.4,0.2-0.6,0.6-0.8,1v6H755v-8.5H756.4z"/>
		<path d="M765.3,1718.3c0.6-0.8,1.5-1.2,2.5-1.2c1.8,0,2.7,1,2.7,3v5.6h-1.4v-5.6c0-0.6-0.1-1.1-0.4-1.4s-0.7-0.4-1.3-0.4
			c-0.5,0-0.9,0.1-1.2,0.4c-0.4,0.2-0.6,0.6-0.8,1v6h-1.4v-12h1.4V1718.3z"/>
		<path d="M776.2,1725.8c-1.1,0-2.1-0.4-2.8-1.1s-1.1-1.8-1.1-3v-0.3c0-0.8,0.2-1.6,0.5-2.2s0.8-1.2,1.3-1.5
			c0.6-0.4,1.2-0.6,1.9-0.6c1.1,0,2,0.4,2.6,1.1s0.9,1.8,0.9,3.1v0.6h-5.7c0,0.8,0.3,1.5,0.7,2c0.5,0.5,1.1,0.8,1.8,0.8
			c0.5,0,0.9-0.1,1.3-0.3c0.4-0.2,0.7-0.5,0.9-0.8l0.9,0.7C778.7,1725.3,777.6,1725.8,776.2,1725.8z M776,1718.3
			c-0.6,0-1.1,0.2-1.5,0.6c-0.4,0.4-0.6,1-0.7,1.8h4.2v-0.1c0-0.7-0.2-1.3-0.6-1.7C777.1,1718.5,776.6,1718.3,776,1718.3z"/>
		<path d="M786.4,1724.9c-0.6,0.7-1.4,1-2.5,1c-0.9,0-1.6-0.3-2.1-0.8c-0.5-0.5-0.7-1.3-0.7-2.3v-5.5h1.4v5.5c0,1.3,0.5,1.9,1.6,1.9
			c1.1,0,1.8-0.4,2.2-1.2v-6.1h1.4v8.5h-1.4L786.4,1724.9z"/>
		<path d="M794.1,1718.5c-0.2,0-0.5-0.1-0.7-0.1c-0.9,0-1.6,0.4-1.9,1.2v6H790v-8.5h1.4l0,1c0.5-0.8,1.1-1.1,2-1.1
			c0.3,0,0.5,0,0.6,0.1V1718.5z"/>
		<path d="M800.7,1717.2l0,1.1c0.6-0.8,1.5-1.2,2.5-1.2c1.8,0,2.7,1,2.7,3v5.6h-1.4v-5.6c0-0.6-0.1-1.1-0.4-1.4s-0.7-0.4-1.3-0.4
			c-0.5,0-0.9,0.1-1.2,0.4c-0.4,0.2-0.6,0.6-0.8,1v6h-1.4v-8.5H800.7z"/>
		<path d="M807.7,1717.5l-0.8-0.6c0.5-0.7,0.7-1.4,0.8-2.1v-1.1h1.4v1c0,0.5-0.1,1-0.4,1.6C808.4,1716.8,808.1,1717.2,807.7,1717.5z
			"/>
		<path d="M815.6,1725.7c-0.1-0.2-0.2-0.5-0.2-0.9c-0.7,0.7-1.5,1-2.4,1c-0.8,0-1.5-0.2-2.1-0.7c-0.5-0.5-0.8-1.1-0.8-1.8
			c0-0.9,0.3-1.6,1-2.1c0.7-0.5,1.6-0.7,2.8-0.7h1.4v-0.7c0-0.5-0.2-0.9-0.5-1.2c-0.3-0.3-0.7-0.4-1.3-0.4c-0.5,0-0.9,0.1-1.3,0.4
			c-0.3,0.3-0.5,0.6-0.5,0.9h-1.5c0-0.4,0.1-0.8,0.4-1.2c0.3-0.4,0.7-0.7,1.2-0.9c0.5-0.2,1.1-0.3,1.7-0.3c1,0,1.7,0.2,2.3,0.7
			c0.6,0.5,0.8,1.2,0.9,2v3.9c0,0.8,0.1,1.4,0.3,1.9v0.1H815.6z M813.2,1724.6c0.5,0,0.9-0.1,1.3-0.4s0.7-0.5,0.9-0.9v-1.7h-1.1
			c-1.8,0-2.7,0.5-2.7,1.6c0,0.5,0.2,0.8,0.5,1.1C812.3,1724.5,812.7,1724.6,813.2,1724.6z"/>
		<path d="M824.5,1717.2v9.4c0,1.6-0.7,2.4-2.2,2.4c-0.3,0-0.6,0-0.9-0.1v-1.1c0.2,0,0.4,0.1,0.7,0.1c0.3,0,0.6-0.1,0.7-0.3
			c0.2-0.2,0.3-0.5,0.3-0.9v-9.5H824.5z M822.9,1715c0-0.2,0.1-0.4,0.2-0.6c0.1-0.2,0.4-0.2,0.6-0.2c0.3,0,0.5,0.1,0.6,0.2
			c0.1,0.2,0.2,0.4,0.2,0.6s-0.1,0.4-0.2,0.6c-0.1,0.2-0.4,0.2-0.6,0.2s-0.5-0.1-0.6-0.2S822.9,1715.2,822.9,1715z"/>
		<path d="M832.1,1725.7c-0.1-0.2-0.2-0.5-0.2-0.9c-0.7,0.7-1.5,1-2.4,1c-0.8,0-1.5-0.2-2.1-0.7c-0.5-0.5-0.8-1.1-0.8-1.8
			c0-0.9,0.3-1.6,1-2.1c0.7-0.5,1.6-0.7,2.8-0.7h1.4v-0.7c0-0.5-0.2-0.9-0.5-1.2c-0.3-0.3-0.7-0.4-1.3-0.4c-0.5,0-0.9,0.1-1.3,0.4
			c-0.3,0.3-0.5,0.6-0.5,0.9h-1.5c0-0.4,0.1-0.8,0.4-1.2c0.3-0.4,0.7-0.7,1.2-0.9c0.5-0.2,1.1-0.3,1.7-0.3c1,0,1.7,0.2,2.3,0.7
			c0.6,0.5,0.8,1.2,0.9,2v3.9c0,0.8,0.1,1.4,0.3,1.9v0.1H832.1z M829.7,1724.6c0.5,0,0.9-0.1,1.3-0.4s0.7-0.5,0.9-0.9v-1.7h-1.1
			c-1.8,0-2.7,0.5-2.7,1.6c0,0.5,0.2,0.8,0.5,1.1C828.8,1724.5,829.2,1724.6,829.7,1724.6z"/>
		<path d="M836.9,1717.2l0,0.9c0.6-0.7,1.5-1.1,2.5-1.1c1.2,0,2,0.5,2.4,1.4c0.3-0.4,0.6-0.7,1.1-1c0.5-0.2,1-0.4,1.6-0.4
			c1.9,0,2.8,1,2.8,2.9v5.7h-1.4v-5.6c0-0.6-0.1-1.1-0.4-1.4c-0.3-0.3-0.7-0.4-1.4-0.4c-0.5,0-1,0.2-1.3,0.5
			c-0.4,0.3-0.6,0.8-0.6,1.3v5.6h-1.5v-5.5c0-1.2-0.6-1.8-1.8-1.8c-0.9,0-1.6,0.4-1.9,1.2v6.2h-1.4v-8.5H836.9z"/>
		<path d="M854.8,1725.7c-0.1-0.2-0.2-0.5-0.2-0.9c-0.7,0.7-1.5,1-2.4,1c-0.8,0-1.5-0.2-2.1-0.7c-0.5-0.5-0.8-1.1-0.8-1.8
			c0-0.9,0.3-1.6,1-2.1c0.7-0.5,1.6-0.7,2.8-0.7h1.4v-0.7c0-0.5-0.2-0.9-0.5-1.2c-0.3-0.3-0.7-0.4-1.3-0.4c-0.5,0-0.9,0.1-1.3,0.4
			c-0.3,0.3-0.5,0.6-0.5,0.9h-1.5c0-0.4,0.1-0.8,0.4-1.2c0.3-0.4,0.7-0.7,1.2-0.9c0.5-0.2,1.1-0.3,1.7-0.3c1,0,1.7,0.2,2.3,0.7
			c0.6,0.5,0.8,1.2,0.9,2v3.9c0,0.8,0.1,1.4,0.3,1.9v0.1H854.8z M852.4,1724.6c0.5,0,0.9-0.1,1.3-0.4s0.7-0.5,0.9-0.9v-1.7h-1.1
			c-1.8,0-2.7,0.5-2.7,1.6c0,0.5,0.2,0.8,0.5,1.1C851.5,1724.5,851.9,1724.6,852.4,1724.6z"/>
		<path d="M858.3,1715c0-0.2,0.1-0.4,0.2-0.6c0.1-0.2,0.4-0.2,0.6-0.2s0.5,0.1,0.6,0.2c0.1,0.2,0.2,0.4,0.2,0.6s-0.1,0.4-0.2,0.6
			c-0.1,0.2-0.4,0.2-0.6,0.2s-0.5-0.1-0.6-0.2C858.4,1715.4,858.3,1715.2,858.3,1715z M859.8,1725.7h-1.4v-8.5h1.4V1725.7z"/>
		<path d="M867.1,1723.5c0-0.4-0.1-0.7-0.4-0.9c-0.3-0.2-0.8-0.4-1.5-0.6c-0.7-0.2-1.3-0.3-1.7-0.6s-0.7-0.5-1-0.8
			c-0.2-0.3-0.3-0.7-0.3-1.1c0-0.7,0.3-1.3,0.9-1.8s1.3-0.7,2.2-0.7c1,0,1.7,0.2,2.3,0.7c0.6,0.5,0.9,1.1,0.9,1.9H867
			c0-0.4-0.2-0.7-0.5-1s-0.8-0.4-1.3-0.4c-0.5,0-0.9,0.1-1.2,0.3s-0.4,0.5-0.4,0.9c0,0.3,0.1,0.6,0.4,0.8c0.3,0.2,0.8,0.3,1.5,0.5
			c0.7,0.2,1.3,0.4,1.8,0.6c0.4,0.2,0.8,0.5,1,0.8c0.2,0.3,0.3,0.7,0.3,1.2c0,0.8-0.3,1.4-0.9,1.8c-0.6,0.5-1.4,0.7-2.4,0.7
			c-0.7,0-1.3-0.1-1.8-0.4c-0.5-0.2-0.9-0.6-1.2-1c-0.3-0.4-0.4-0.9-0.4-1.4h1.4c0,0.5,0.2,0.9,0.6,1.2c0.4,0.3,0.8,0.4,1.4,0.4
			c0.5,0,1-0.1,1.3-0.3C866.9,1724.1,867.1,1723.8,867.1,1723.5z"/>
		<path d="M877.9,1725.8c-1.1,0-2.1-0.4-2.8-1.1s-1.1-1.8-1.1-3v-0.3c0-0.8,0.2-1.6,0.5-2.2s0.8-1.2,1.3-1.5
			c0.6-0.4,1.2-0.6,1.9-0.6c1.1,0,2,0.4,2.6,1.1s0.9,1.8,0.9,3.1v0.6h-5.7c0,0.8,0.3,1.5,0.7,2c0.5,0.5,1.1,0.8,1.8,0.8
			c0.5,0,0.9-0.1,1.3-0.3c0.4-0.2,0.7-0.5,0.9-0.8l0.9,0.7C880.4,1725.3,879.3,1725.8,877.9,1725.8z M877.7,1718.3
			c-0.6,0-1.1,0.2-1.5,0.6c-0.4,0.4-0.6,1-0.7,1.8h4.2v-0.1c0-0.7-0.2-1.3-0.6-1.7C878.8,1718.5,878.3,1718.3,877.7,1718.3z
			 M878.4,1713.7h1.8l-2.1,2.3l-1.2,0L878.4,1713.7z"/>
		<path d="M884.8,1715.2v2h1.6v1.1h-1.6v5.2c0,0.3,0.1,0.6,0.2,0.8c0.1,0.2,0.4,0.3,0.7,0.3c0.2,0,0.4,0,0.7-0.1v1.2
			c-0.4,0.1-0.8,0.2-1.1,0.2c-0.6,0-1.1-0.2-1.5-0.6s-0.5-0.9-0.5-1.7v-5.2h-1.5v-1.1h1.5v-2H884.8z"/>
		<path d="M891.6,1725.8c-1.1,0-2.1-0.4-2.8-1.1s-1.1-1.8-1.1-3v-0.3c0-0.8,0.2-1.6,0.5-2.2s0.8-1.2,1.3-1.5
			c0.6-0.4,1.2-0.6,1.9-0.6c1.1,0,2,0.4,2.6,1.1s0.9,1.8,0.9,3.1v0.6h-5.7c0,0.8,0.3,1.5,0.7,2c0.5,0.5,1.1,0.8,1.8,0.8
			c0.5,0,0.9-0.1,1.3-0.3c0.4-0.2,0.7-0.5,0.9-0.8l0.9,0.7C894.1,1725.3,893,1725.8,891.6,1725.8z M891.4,1718.3
			c-0.6,0-1.1,0.2-1.5,0.6c-0.4,0.4-0.6,1-0.7,1.8h4.2v-0.1c0-0.7-0.2-1.3-0.6-1.7C892.5,1718.5,892,1718.3,891.4,1718.3z
			 M892.1,1713.7h1.8l-2.1,2.3l-1.2,0L892.1,1713.7z"/>
	</g>
	<g class="st3">
		<path d="M719.3,1744.7c-0.1-0.2-0.2-0.5-0.2-0.9c-0.7,0.7-1.5,1-2.4,1c-0.8,0-1.5-0.2-2.1-0.7c-0.5-0.5-0.8-1.1-0.8-1.8
			c0-0.9,0.3-1.6,1-2.1c0.7-0.5,1.6-0.7,2.8-0.7h1.4v-0.7c0-0.5-0.2-0.9-0.5-1.2c-0.3-0.3-0.7-0.4-1.3-0.4c-0.5,0-0.9,0.1-1.3,0.4
			c-0.3,0.3-0.5,0.6-0.5,0.9H714c0-0.4,0.1-0.8,0.4-1.2c0.3-0.4,0.7-0.7,1.2-0.9c0.5-0.2,1.1-0.3,1.7-0.3c1,0,1.7,0.2,2.3,0.7
			c0.6,0.5,0.8,1.2,0.9,2v3.9c0,0.8,0.1,1.4,0.3,1.9v0.1H719.3z M716.9,1743.6c0.5,0,0.9-0.1,1.3-0.4s0.7-0.5,0.9-0.9v-1.7h-1.1
			c-1.8,0-2.7,0.5-2.7,1.6c0,0.5,0.2,0.8,0.5,1.1C716,1743.5,716.4,1743.6,716.9,1743.6z"/>
		<path d="M728,1743.9c-0.6,0.7-1.4,1-2.5,1c-0.9,0-1.6-0.3-2.1-0.8c-0.5-0.5-0.7-1.3-0.7-2.3v-5.5h1.4v5.5c0,1.3,0.5,1.9,1.6,1.9
			c1.1,0,1.8-0.4,2.2-1.2v-6.1h1.4v8.5H728L728,1743.9z"/>
		<path d="M736.5,1742.5c0-0.4-0.1-0.7-0.4-0.9c-0.3-0.2-0.8-0.4-1.5-0.6c-0.7-0.2-1.3-0.3-1.7-0.6s-0.7-0.5-1-0.8
			c-0.2-0.3-0.3-0.7-0.3-1.1c0-0.7,0.3-1.3,0.9-1.8s1.3-0.7,2.2-0.7c1,0,1.7,0.2,2.3,0.7c0.6,0.5,0.9,1.1,0.9,1.9h-1.5
			c0-0.4-0.2-0.7-0.5-1s-0.8-0.4-1.3-0.4c-0.5,0-0.9,0.1-1.2,0.3s-0.4,0.5-0.4,0.9c0,0.3,0.1,0.6,0.4,0.8c0.3,0.2,0.8,0.3,1.5,0.5
			c0.7,0.2,1.3,0.4,1.8,0.6c0.4,0.2,0.8,0.5,1,0.8c0.2,0.3,0.3,0.7,0.3,1.2c0,0.8-0.3,1.4-0.9,1.8c-0.6,0.5-1.4,0.7-2.4,0.7
			c-0.7,0-1.3-0.1-1.8-0.4c-0.5-0.2-0.9-0.6-1.2-1c-0.3-0.4-0.4-0.9-0.4-1.4h1.4c0,0.5,0.2,0.9,0.6,1.2c0.4,0.3,0.8,0.4,1.4,0.4
			c0.5,0,1-0.1,1.3-0.3C736.4,1743.1,736.5,1742.8,736.5,1742.5z"/>
		<path d="M744.8,1742.5c0-0.4-0.1-0.7-0.4-0.9c-0.3-0.2-0.8-0.4-1.5-0.6c-0.7-0.2-1.3-0.3-1.7-0.6s-0.7-0.5-1-0.8
			c-0.2-0.3-0.3-0.7-0.3-1.1c0-0.7,0.3-1.3,0.9-1.8s1.3-0.7,2.2-0.7c1,0,1.7,0.2,2.3,0.7c0.6,0.5,0.9,1.1,0.9,1.9h-1.5
			c0-0.4-0.2-0.7-0.5-1s-0.8-0.4-1.3-0.4c-0.5,0-0.9,0.1-1.2,0.3s-0.4,0.5-0.4,0.9c0,0.3,0.1,0.6,0.4,0.8c0.3,0.2,0.8,0.3,1.5,0.5
			c0.7,0.2,1.3,0.4,1.8,0.6c0.4,0.2,0.8,0.5,1,0.8c0.2,0.3,0.3,0.7,0.3,1.2c0,0.8-0.3,1.4-0.9,1.8c-0.6,0.5-1.4,0.7-2.4,0.7
			c-0.7,0-1.3-0.1-1.8-0.4c-0.5-0.2-0.9-0.6-1.2-1c-0.3-0.4-0.4-0.9-0.4-1.4h1.4c0,0.5,0.2,0.9,0.6,1.2c0.4,0.3,0.8,0.4,1.4,0.4
			c0.5,0,1-0.1,1.3-0.3C744.6,1743.1,744.8,1742.8,744.8,1742.5z"/>
		<path d="M748.1,1734c0-0.2,0.1-0.4,0.2-0.6c0.1-0.2,0.4-0.2,0.6-0.2s0.5,0.1,0.6,0.2c0.1,0.2,0.2,0.4,0.2,0.6s-0.1,0.4-0.2,0.6
			c-0.1,0.2-0.4,0.2-0.6,0.2s-0.5-0.1-0.6-0.2C748.2,1734.4,748.1,1734.2,748.1,1734z M749.7,1744.7h-1.4v-8.5h1.4V1744.7z"/>
		<path d="M761.2,1744.7c-0.1-0.2-0.2-0.5-0.2-0.9c-0.7,0.7-1.5,1-2.4,1c-0.8,0-1.5-0.2-2.1-0.7c-0.5-0.5-0.8-1.1-0.8-1.8
			c0-0.9,0.3-1.6,1-2.1c0.7-0.5,1.6-0.7,2.8-0.7h1.4v-0.7c0-0.5-0.2-0.9-0.5-1.2c-0.3-0.3-0.7-0.4-1.3-0.4c-0.5,0-0.9,0.1-1.3,0.4
			c-0.3,0.3-0.5,0.6-0.5,0.9h-1.5c0-0.4,0.1-0.8,0.4-1.2c0.3-0.4,0.7-0.7,1.2-0.9c0.5-0.2,1.1-0.3,1.7-0.3c1,0,1.7,0.2,2.3,0.7
			c0.6,0.5,0.8,1.2,0.9,2v3.9c0,0.8,0.1,1.4,0.3,1.9v0.1H761.2z M758.8,1743.6c0.5,0,0.9-0.1,1.3-0.4s0.7-0.5,0.9-0.9v-1.7h-1.1
			c-1.8,0-2.7,0.5-2.7,1.6c0,0.5,0.2,0.8,0.5,1.1C757.9,1743.5,758.3,1743.6,758.8,1743.6z"/>
		<path d="M768,1743.7c0.5,0,1-0.2,1.4-0.5c0.4-0.3,0.6-0.7,0.6-1.2h1.4c0,0.5-0.2,0.9-0.5,1.4c-0.3,0.4-0.7,0.8-1.2,1
			c-0.5,0.3-1.1,0.4-1.6,0.4c-1.2,0-2.1-0.4-2.7-1.2s-1-1.8-1-3.2v-0.2c0-0.8,0.2-1.6,0.5-2.2c0.3-0.6,0.7-1.1,1.3-1.5
			c0.6-0.4,1.2-0.5,2-0.5c0.9,0,1.7,0.3,2.4,0.9c0.6,0.6,1,1.3,1,2.2H770c0-0.5-0.2-1-0.6-1.3c-0.4-0.4-0.8-0.5-1.4-0.5
			c-0.7,0-1.3,0.3-1.7,0.8c-0.4,0.5-0.6,1.3-0.6,2.3v0.3c0,1,0.2,1.7,0.6,2.2C766.7,1743.4,767.3,1743.7,768,1743.7z"/>
		<path d="M776.4,1743.7c0.5,0,1-0.2,1.4-0.5c0.4-0.3,0.6-0.7,0.6-1.2h1.4c0,0.5-0.2,0.9-0.5,1.4c-0.3,0.4-0.7,0.8-1.2,1
			c-0.5,0.3-1.1,0.4-1.6,0.4c-1.2,0-2.1-0.4-2.7-1.2s-1-1.8-1-3.2v-0.2c0-0.8,0.2-1.6,0.5-2.2c0.3-0.6,0.7-1.1,1.3-1.5
			c0.6-0.4,1.2-0.5,2-0.5c0.9,0,1.7,0.3,2.4,0.9c0.6,0.6,1,1.3,1,2.2h-1.4c0-0.5-0.2-1-0.6-1.3c-0.4-0.4-0.8-0.5-1.4-0.5
			c-0.7,0-1.3,0.3-1.7,0.8c-0.4,0.5-0.6,1.3-0.6,2.3v0.3c0,1,0.2,1.7,0.6,2.2C775.1,1743.4,775.7,1743.7,776.4,1743.7z"/>
		<path d="M784.9,1744.8c-1.1,0-2.1-0.4-2.8-1.1s-1.1-1.8-1.1-3v-0.3c0-0.8,0.2-1.6,0.5-2.2s0.8-1.2,1.3-1.5
			c0.6-0.4,1.2-0.6,1.9-0.6c1.1,0,2,0.4,2.6,1.1s0.9,1.8,0.9,3.1v0.6h-5.7c0,0.8,0.3,1.5,0.7,2c0.5,0.5,1.1,0.8,1.8,0.8
			c0.5,0,0.9-0.1,1.3-0.3c0.4-0.2,0.7-0.5,0.9-0.8l0.9,0.7C787.4,1744.3,786.3,1744.8,784.9,1744.8z M784.7,1737.3
			c-0.6,0-1.1,0.2-1.5,0.6c-0.4,0.4-0.6,1-0.7,1.8h4.2v-0.1c0-0.7-0.2-1.3-0.6-1.7C785.8,1737.5,785.3,1737.3,784.7,1737.3z"/>
		<path d="M794.8,1742.5c0-0.4-0.1-0.7-0.4-0.9c-0.3-0.2-0.8-0.4-1.5-0.6c-0.7-0.2-1.3-0.3-1.7-0.6s-0.7-0.5-1-0.8
			c-0.2-0.3-0.3-0.7-0.3-1.1c0-0.7,0.3-1.3,0.9-1.8s1.3-0.7,2.2-0.7c1,0,1.7,0.2,2.3,0.7c0.6,0.5,0.9,1.1,0.9,1.9h-1.5
			c0-0.4-0.2-0.7-0.5-1s-0.8-0.4-1.3-0.4c-0.5,0-0.9,0.1-1.2,0.3s-0.4,0.5-0.4,0.9c0,0.3,0.1,0.6,0.4,0.8c0.3,0.2,0.8,0.3,1.5,0.5
			c0.7,0.2,1.3,0.4,1.8,0.6c0.4,0.2,0.8,0.5,1,0.8c0.2,0.3,0.3,0.7,0.3,1.2c0,0.8-0.3,1.4-0.9,1.8c-0.6,0.5-1.4,0.7-2.4,0.7
			c-0.7,0-1.3-0.1-1.8-0.4c-0.5-0.2-0.9-0.6-1.2-1c-0.3-0.4-0.4-0.9-0.4-1.4h1.4c0,0.5,0.2,0.9,0.6,1.2c0.4,0.3,0.8,0.4,1.4,0.4
			c0.5,0,1-0.1,1.3-0.3C794.6,1743.1,794.8,1742.8,794.8,1742.5z"/>
		<path d="M803,1742.5c0-0.4-0.1-0.7-0.4-0.9c-0.3-0.2-0.8-0.4-1.5-0.6c-0.7-0.2-1.3-0.3-1.7-0.6s-0.7-0.5-1-0.8
			c-0.2-0.3-0.3-0.7-0.3-1.1c0-0.7,0.3-1.3,0.9-1.8s1.3-0.7,2.2-0.7c1,0,1.7,0.2,2.3,0.7c0.6,0.5,0.9,1.1,0.9,1.9H803
			c0-0.4-0.2-0.7-0.5-1s-0.8-0.4-1.3-0.4c-0.5,0-0.9,0.1-1.2,0.3s-0.4,0.5-0.4,0.9c0,0.3,0.1,0.6,0.4,0.8c0.3,0.2,0.8,0.3,1.5,0.5
			c0.7,0.2,1.3,0.4,1.8,0.6c0.4,0.2,0.8,0.5,1,0.8c0.2,0.3,0.3,0.7,0.3,1.2c0,0.8-0.3,1.4-0.9,1.8c-0.6,0.5-1.4,0.7-2.4,0.7
			c-0.7,0-1.3-0.1-1.8-0.4c-0.5-0.2-0.9-0.6-1.2-1c-0.3-0.4-0.4-0.9-0.4-1.4h1.4c0,0.5,0.2,0.9,0.6,1.2c0.4,0.3,0.8,0.4,1.4,0.4
			c0.5,0,1-0.1,1.3-0.3C802.9,1743.1,803,1742.8,803,1742.5z"/>
		<path d="M806.4,1734c0-0.2,0.1-0.4,0.2-0.6c0.1-0.2,0.4-0.2,0.6-0.2s0.5,0.1,0.6,0.2c0.1,0.2,0.2,0.4,0.2,0.6s-0.1,0.4-0.2,0.6
			c-0.1,0.2-0.4,0.2-0.6,0.2s-0.5-0.1-0.6-0.2C806.4,1734.4,806.4,1734.2,806.4,1734z M807.9,1744.7h-1.4v-8.5h1.4V1744.7z"/>
		<path d="M817.4,1740.6c0,1.3-0.3,2.3-0.9,3.1s-1.4,1.2-2.4,1.2c-1.1,0-1.9-0.4-2.5-1.1l-0.1,1h-1.3v-12h1.4v4.5
			c0.6-0.7,1.4-1.1,2.4-1.1c1,0,1.8,0.4,2.4,1.2s0.9,1.8,0.9,3.2V1740.6z M816,1740.4c0-1-0.2-1.7-0.6-2.3c-0.4-0.5-0.9-0.8-1.6-0.8
			c-1,0-1.6,0.4-2.1,1.3v3.7c0.4,0.9,1.1,1.3,2.1,1.3c0.7,0,1.2-0.3,1.6-0.8C815.8,1742.3,816,1741.5,816,1740.4z"/>
		<path d="M820.8,1744.7h-1.4v-12h1.4V1744.7z"/>
		<path d="M826.6,1744.8c-1.1,0-2.1-0.4-2.8-1.1s-1.1-1.8-1.1-3v-0.3c0-0.8,0.2-1.6,0.5-2.2s0.8-1.2,1.3-1.5
			c0.6-0.4,1.2-0.6,1.9-0.6c1.1,0,2,0.4,2.6,1.1s0.9,1.8,0.9,3.1v0.6h-5.7c0,0.8,0.3,1.5,0.7,2c0.5,0.5,1.1,0.8,1.8,0.8
			c0.5,0,0.9-0.1,1.3-0.3c0.4-0.2,0.7-0.5,0.9-0.8l0.9,0.7C829.1,1744.3,828,1744.8,826.6,1744.8z M826.4,1737.3
			c-0.6,0-1.1,0.2-1.5,0.6c-0.4,0.4-0.6,1-0.7,1.8h4.2v-0.1c0-0.7-0.2-1.3-0.6-1.7C827.5,1737.5,827,1737.3,826.4,1737.3z"/>
	</g>
</g>
</svg>
