<?xml version="1.0" encoding="utf-8"?>
<!-- Generator: Adobe Illustrator 25.3.1, SVG Export Plug-In . SVG Version: 6.00 Build 0)  -->
<svg version="1.1" id="Calque_1" xmlns="http://www.w3.org/2000/svg" xmlns:xlink="http://www.w3.org/1999/xlink" x="0px" y="0px"
	 viewBox="0 0 434 532" style="enable-background:new 0 0 434 532;" xml:space="preserve">
<style type="text/css">
	.st0{opacity:0.8;fill:#F7C61C;enable-background:new    ;}
	.st1{fill:#1D1E1B;}
	.st2{enable-background:new    ;}
	.st3{fill:#010202;}
</style>
<path class="st0" d="M103.3,528.5h241.1c43.5,0,79.1-35.6,79.1-79.1V125.8c0-43.5-35.6-79.1-79.1-79.1H103.3
	c-43.5,0-79.1,35.6-79.1,79.1v323.6C24.2,492.9,59.8,528.5,103.3,528.5z"/>
<g id="Groupe_20" transform="translate(-1000 -1368)">
	<g id="Groupe_17" transform="translate(3763.834 -2267.415)">
		<path class="st1" d="M-2540,3849.3c-28.9,0-56.1-1.6-76.6-4.5c-33.3-4.7-33.3-10.6-33.3-12.8c0-5.7,12.5-9.3,22.9-11.4l0.8,3.9
			c-14.4,2.9-19.6,6.3-19.7,7.5c0,0,0.8,4.7,29.9,8.8c20.3,2.9,47.3,4.5,76.1,4.5s55.8-1.6,76.1-4.5c29.1-4.1,29.9-8.8,29.9-8.8
			c-0.3-0.9-4.9-4.2-21.9-7.5l0.8-3.9c25.1,4.8,25.1,9.8,25.1,11.4c0,2.2,0,8.1-33.3,12.8C-2483.8,3847.7-2511.1,3849.3-2540,3849.3
			z"/>
		<path class="st1" d="M-2518.4,3819c-7.2-0.2-14.5-0.3-21.6-0.3c-8.1,0-13.7,0.1-20.3,0.3l-0.1-4c6.6-0.2,12.3-0.3,20.4-0.3
			c7.2,0,14.5,0.1,21.7,0.3L-2518.4,3819z"/>
		<path class="st1" d="M-2540,3859.6c-21.2,0-61.4-2.8-61.4-13.3h4c0,0.8,2.9,3.6,15.8,6c11.1,2.1,25.9,3.3,41.6,3.3
			s30.5-1.2,41.6-3.3c12.9-2.5,15.8-5.3,15.8-6h4C-2478.6,3856.8-2518.8,3859.6-2540,3859.6z"/>
		<path class="st1" d="M-2550.3,3841.9c-1,0-2.1,0-3.1-0.1c-4.2-0.4-9.9-1.3-15.5-2.1c-5.9-0.9-12-1.9-14.4-1.9c-0.4,0-0.9,0-1.5,0
			c-21.5,0.1-31.7-1.2-34.2-4.6c-1.4-1.9-3.1-3.4-4.8-4.8c-4-3.4-8.4-7.2-3.3-15.7c5.2-8.6,13.2-11.4,23.2-8.1
			c3.2,1.1,5.1,0.2,8.1-1.2c1.7-0.8,3.5-1.7,6-2.4c6.2-1.8,17.8,0.9,22.4,4.3c1.5,1.1,2.3,2.4,2.3,3.7c0.3,1.2,4.4,5.5,10.1,9
			c4.5,2.8,6.9,3.2,7.5,3.1c4.3-1.1,11.5,1.3,14.7,4.9c1.9,2.1,2.5,4.5,1.7,6.8C-2533.5,3838.9-2542,3841.9-2550.3,3841.9z
			 M-2583.3,3833.8c2.7,0,8.4,0.9,15.1,1.9c5.5,0.9,11.2,1.7,15.2,2.1c8.6,0.8,16.5-2.1,18-6.5c0.2-0.6,0.3-1.5-0.8-2.8
			c-2.4-2.7-8.2-4.3-10.8-3.7c-4.6,1.1-12.6-4.8-15-6.7c-3.4-2.6-7.4-6.4-7.5-9.2c-1.2-2.1-13.5-6-19.5-4.2
			c-2.1,0.6-3.8,1.4-5.4,2.2c-3.2,1.5-6.3,3-11.1,1.4c-8.1-2.7-14.4-0.6-18.5,6.4c-3.4,5.6-1.5,7.2,2.5,10.6
			c1.8,1.5,3.7,3.2,5.4,5.5l0,0c0.6,0.7,4.4,3.2,31,3C-2584.2,3833.8-2583.7,3833.8-2583.3,3833.8z M-2569.3,3809.1L-2569.3,3809.1
			L-2569.3,3809.1z"/>
		<path class="st1" d="M-2505.2,3840.2c-2.6,0-7.4-1.8-14.2-4.5c-2.9-1.2-6.3-2.5-7.2-2.6l-2.5-0.3l0.9-2.4
			c0.2-0.6,5.8-14.7,11.1-19.8c6.1-5.9,39.8-5.4,46.7-2.4c6.2,2.7,22.3,18,22.3,21.3c0,2-1.3,2.4-9.7,3.9c-4.4,0.8-10.4,1.7-18,2.8
			c-13.1,1.9-26.9,3.7-28.8,3.9C-2504.8,3840.2-2505,3840.2-2505.2,3840.2z M-2523.6,3829.8c1.4,0.5,3.3,1.2,5.7,2.2
			c4.2,1.6,11.1,4.4,12.8,4.2c4.7-0.5,42.3-5.6,51.9-7.7c-3.5-4.3-13.5-14.3-18.8-16.6c-6.6-2.9-38.3-2.3-42.4,1.6
			C-2517.6,3816.7-2521.6,3825.1-2523.6,3829.8z"/>
		<path class="st1" d="M-2571,3779.5c-3.4-5.8-1.6-11.1,0.6-17.7c1.4-4,2.9-8.6,3.7-14.3c1.6-11.3-0.3-19.3-1.3-23.6
			c-0.4-1.5-0.6-2.5-0.6-3.3h4c0,0.3,0.3,1.4,0.5,2.4c1.1,4.5,3.1,12.9,1.4,25c-0.9,6.1-2.5,11.1-3.9,15c-2.1,6.1-3.4,10.1-0.9,14.4
			L-2571,3779.5z"/>
		<path class="st1" d="M-2550.4,3797.6l-4-0.4c0.4-3.4,2.1-6.1,4-9.2c2.5-4,5.6-8.9,6.9-17.3c1.2-7.7-1.6-15.6-4.1-22.6
			c-2.3-6.5-4.3-12.1-3.1-16.8l3.9,1c-0.9,3.5,0.9,8.6,3,14.5c2.7,7.4,5.7,15.9,4.3,24.5c-1.5,9.2-4.8,14.5-7.5,18.8
			C-2548.7,3792.9-2550.1,3795.1-2550.4,3797.6z"/>
		<path class="st1" d="M-2504.2,3796.8l-3.8-1.3c1.6-4.8-0.5-9-3.1-14.4c-2.7-5.6-6.1-12.6-5.8-22.1c0.2-7.1,1.4-11.1,2.5-14.9
			c1.7-5.9,3.4-11.6,1-29.1l4-0.5c2.5,18.4,0.8,24.4-1.1,30.8c-1.1,3.6-2.2,7.4-2.4,13.9c-0.3,8.5,2.8,14.7,5.4,20.2
			C-2504.7,3785.1-2502.1,3790.5-2504.2,3796.8z"/>
	</g>
</g>
<g class="st2">
	<path class="st3" d="M37,72.5h1.7c0.2,0.1,0.7,0.1,1.6,0.1c1.2,7.4,4.2,13.2,9.2,17.5c4.9,4.2,10.6,6.3,17,6.3c5.1,0,7.6-1,7.6-2.9
		c0-0.9-0.2-1.6-0.5-2.1c-1.6,0.3-3.7,0.5-6.3,0.5c-6.2,0-11.4-2-15.6-5.9c-4.2-3.9-6.3-9.1-6.3-15.6c0-6.5,2-11.7,6.1-15.6
		c4.1-3.9,9.4-5.8,16-5.8h1.8c0.5,0,1.2,0.1,2.1,0.2c0.2-0.4,0.3-0.8,0.3-1.3c0-2.1-1.7-3.1-5.2-3.1c-5.7,0-11,1.7-15.8,5
		s-8.1,8.2-9.8,14.6c-9.8,0-17.3-2.3-22.6-6.9c-4.5-3.9-6.7-9-6.7-15.3c0-10.6,4.8-19.4,14.5-26.3C35.6,9,48.2,5.5,63.7,5.5
		s28.3,3.9,38.4,11.6c10,7.7,15,17.8,15,30.1c0,8.1-2.9,14.8-8.8,20.1c-2.9-1.4-5.4-2.1-7.5-2.1s-3.2,0.9-3.2,2.6
		c0,0.8,0.2,1.3,0.6,1.7c5.1,0,9.8,1.9,14.1,5.7c5.3,4.7,7.9,11.4,7.9,20c0,13.2-5.6,23.5-16.7,31.1c-10.2,6.9-23.2,10.4-39,10.4
		c-15.8,0-28.8-3.5-39-10.6c-10.2-7.1-15.3-16.5-15.3-28.3c0-7.2,2.3-13.2,7-18C21.9,74.9,28.5,72.5,37,72.5z"/>
</g>
<g class="st2">
	<path class="st3" d="M124.9,280.5h-2.8v6.2h-3.5v-17.1h6.3c2,0,3.6,0.4,4.7,1.3s1.6,2.2,1.6,3.8c0,1.2-0.3,2.1-0.8,2.9
		s-1.3,1.4-2.3,1.9l3.7,7v0.2H128L124.9,280.5z M122.1,277.7h2.8c0.9,0,1.6-0.2,2.1-0.7s0.7-1.1,0.7-1.9s-0.2-1.4-0.7-1.9
		s-1.2-0.7-2.1-0.7h-2.8V277.7z"/>
	<path class="st3" d="M139.5,287c-1.9,0-3.4-0.6-4.5-1.7s-1.8-2.7-1.8-4.6v-0.3c0-1.3,0.2-2.4,0.7-3.4s1.2-1.8,2.1-2.3
		s1.9-0.8,3.1-0.8c1.7,0,3.1,0.5,4.1,1.6s1.5,2.6,1.5,4.7v1.4h-8.1c0.1,0.8,0.4,1.5,1,2s1.2,0.8,2.1,0.8c1.3,0,2.3-0.5,3.1-1.4
		l1.7,1.9c-0.5,0.7-1.2,1.3-2.1,1.7S140.6,287,139.5,287z M139.1,276.6c-0.7,0-1.2,0.2-1.6,0.7s-0.7,1.1-0.8,2h4.7V279
		c0-0.8-0.2-1.3-0.6-1.7S139.9,276.6,139.1,276.6z"/>
	<path class="st3" d="M151.9,284.3c0.6,0,1.1-0.2,1.5-0.5s0.6-0.8,0.6-1.4h3.2c0,0.9-0.2,1.6-0.7,2.4s-1.1,1.3-1.9,1.7
		S153,287,152,287c-1.8,0-3.2-0.6-4.3-1.7s-1.6-2.7-1.6-4.8v-0.2c0-2,0.5-3.5,1.6-4.7s2.5-1.7,4.3-1.7c1.6,0,2.9,0.5,3.8,1.4
		s1.4,2.1,1.5,3.6h-3.2c0-0.7-0.2-1.2-0.6-1.6c-0.4-0.4-0.9-0.6-1.5-0.6c-0.8,0-1.4,0.3-1.8,0.9c-0.4,0.6-0.6,1.5-0.6,2.8v0.4
		c0,1.3,0.2,2.2,0.6,2.8C150.5,284,151.1,284.3,151.9,284.3z"/>
	<path class="st3" d="M165,287c-1.9,0-3.4-0.6-4.5-1.7s-1.8-2.7-1.8-4.6v-0.3c0-1.3,0.2-2.4,0.7-3.4s1.2-1.8,2.1-2.3
		s1.9-0.8,3.1-0.8c1.7,0,3.1,0.5,4.1,1.6s1.5,2.6,1.5,4.7v1.4h-8.1c0.1,0.8,0.4,1.5,1,2s1.2,0.8,2.1,0.8c1.3,0,2.3-0.5,3.1-1.4
		l1.7,1.9c-0.5,0.7-1.2,1.3-2.1,1.7S166.1,287,165,287z M164.6,276.6c-0.7,0-1.2,0.2-1.6,0.7s-0.7,1.1-0.8,2h4.7V279
		c0-0.8-0.2-1.3-0.6-1.7S165.3,276.6,164.6,276.6z"/>
	<path class="st3" d="M176.7,282.6l2.4-8.5h3.5l-4.3,12.7h-3.2l-4.3-12.7h3.5L176.7,282.6z"/>
	<path class="st3" d="M189.8,287c-1.9,0-3.4-0.6-4.5-1.7s-1.8-2.7-1.8-4.6v-0.3c0-1.3,0.2-2.4,0.7-3.4s1.2-1.8,2.1-2.3
		s1.9-0.8,3.1-0.8c1.7,0,3.1,0.5,4.1,1.6s1.5,2.6,1.5,4.7v1.4h-8c0.1,0.8,0.4,1.5,1,2s1.2,0.8,2.1,0.8c1.3,0,2.3-0.5,3.1-1.4
		l1.7,1.9c-0.5,0.7-1.2,1.3-2.1,1.7S190.9,287,189.8,287z M189.4,276.6c-0.7,0-1.2,0.2-1.6,0.7s-0.7,1.1-0.8,2h4.7V279
		c0-0.8-0.2-1.3-0.6-1.7S190.1,276.6,189.4,276.6z"/>
	<path class="st3" d="M200.8,284h6.2v2.7h-10.5v-2.1l6-7.9h-5.8V274h10.2v2L200.8,284z"/>
	<path class="st3" d="M219.9,282.6l2.4-8.5h3.5l-4.3,12.7h-3.2l-4.3-12.7h3.5L219.9,282.6z"/>
	<path class="st3" d="M226.6,280.3c0-1.3,0.2-2.4,0.7-3.4s1.2-1.7,2.1-2.3s2-0.8,3.2-0.8c1.7,0,3.1,0.5,4.2,1.6s1.7,2.5,1.8,4.3v0.9
		c0,1.9-0.5,3.5-1.6,4.7s-2.5,1.8-4.4,1.8s-3.3-0.6-4.4-1.8s-1.6-2.8-1.6-4.8V280.3z M229.9,280.5c0,1.2,0.2,2.1,0.7,2.8
		c0.5,0.6,1.1,1,1.9,1c0.8,0,1.5-0.3,1.9-0.9c0.5-0.6,0.7-1.6,0.7-3c0-1.2-0.2-2.1-0.7-2.7c-0.5-0.7-1.1-1-1.9-1
		c-0.8,0-1.5,0.3-1.9,1C230.2,278.2,229.9,279.2,229.9,280.5z"/>
	<path class="st3" d="M244.7,271v3.1h2.2v2.5h-2.2v6.3c0,0.5,0.1,0.8,0.3,1s0.5,0.3,1,0.3c0.4,0,0.7,0,1-0.1v2.6
		c-0.7,0.2-1.3,0.3-2.1,0.3c-2.4,0-3.6-1.2-3.6-3.6v-6.8h-1.9v-2.5h1.9V271H244.7z"/>
	<path class="st3" d="M255.9,277.3c-0.5-0.1-0.9-0.1-1.2-0.1c-1.3,0-2.1,0.4-2.5,1.3v8.3h-3.4v-12.7h3.2l0.1,1.5
		c0.7-1.2,1.6-1.7,2.8-1.7c0.4,0,0.7,0.1,1.1,0.2L255.9,277.3z"/>
	<path class="st3" d="M263.1,287c-1.9,0-3.4-0.6-4.5-1.7s-1.8-2.7-1.8-4.6v-0.3c0-1.3,0.2-2.4,0.7-3.4s1.2-1.8,2.1-2.3
		s1.9-0.8,3.1-0.8c1.7,0,3.1,0.5,4.1,1.6s1.5,2.6,1.5,4.7v1.4h-8.1c0.1,0.8,0.4,1.5,1,2s1.2,0.8,2.1,0.8c1.3,0,2.3-0.5,3.1-1.4
		l1.7,1.9c-0.5,0.7-1.2,1.3-2.1,1.7S264.2,287,263.1,287z M262.7,276.6c-0.7,0-1.2,0.2-1.6,0.7s-0.7,1.1-0.8,2h4.7V279
		c0-0.8-0.2-1.3-0.6-1.7S263.5,276.6,262.7,276.6z"/>
	<path class="st3" d="M287.7,280.5c0,2-0.4,3.6-1.3,4.8s-2.1,1.7-3.6,1.7c-1.4,0-2.5-0.5-3.3-1.6l-0.2,1.3h-3v-18h3.4v6.5
		c0.8-0.9,1.8-1.4,3.1-1.4c1.5,0,2.8,0.6,3.6,1.7s1.3,2.7,1.3,4.8V280.5z M284.3,280.3c0-1.3-0.2-2.2-0.6-2.8s-1-0.9-1.8-0.9
		c-1.1,0-1.8,0.4-2.2,1.3v5c0.4,0.9,1.2,1.3,2.2,1.3c1.1,0,1.8-0.5,2.2-1.6C284.2,282.1,284.3,281.3,284.3,280.3z"/>
	<path class="st3" d="M289.2,280.3c0-1.3,0.2-2.4,0.7-3.4s1.2-1.7,2.1-2.3s2-0.8,3.2-0.8c1.7,0,3.1,0.5,4.2,1.6s1.7,2.5,1.8,4.3v0.9
		c0,1.9-0.5,3.5-1.6,4.7s-2.5,1.8-4.4,1.8s-3.3-0.6-4.4-1.8s-1.6-2.8-1.6-4.8L289.2,280.3L289.2,280.3z M292.6,280.5
		c0,1.2,0.2,2.1,0.7,2.8c0.5,0.6,1.1,1,1.9,1s1.5-0.3,1.9-0.9c0.5-0.6,0.7-1.6,0.7-3c0-1.2-0.2-2.1-0.7-2.7c-0.5-0.7-1.1-1-1.9-1
		s-1.5,0.3-1.9,1C292.8,278.2,292.6,279.2,292.6,280.5z"/>
	<path class="st3" d="M309.8,272.2v0.1h-2.7l-1.8-1.7l-1.8,1.7h-2.6v-0.2l3.5-3.2h2L309.8,272.2z M307,286.8h-3.4v-12.7h3.4V286.8z"
		/>
	<path class="st3" d="M314,271v3.1h2.2v2.5H314v6.3c0,0.5,0.1,0.8,0.3,1s0.5,0.3,1,0.3c0.4,0,0.7,0,1-0.1v2.6
		c-0.7,0.2-1.3,0.3-2.1,0.3c-2.4,0-3.6-1.2-3.6-3.6v-6.8h-1.9v-2.5h1.9V271H314z"/>
	<path class="st3" d="M323.9,287c-1.9,0-3.4-0.6-4.5-1.7s-1.8-2.7-1.8-4.6v-0.3c0-1.3,0.2-2.4,0.7-3.4s1.2-1.8,2.1-2.3
		s1.9-0.8,3.1-0.8c1.7,0,3.1,0.5,4.1,1.6s1.5,2.6,1.5,4.7v1.4H321c0.1,0.8,0.4,1.5,1,2s1.2,0.8,2.1,0.8c1.3,0,2.3-0.5,3.1-1.4
		l1.7,1.9c-0.5,0.7-1.2,1.3-2.1,1.7S324.9,287,323.9,287z M323.5,276.6c-0.7,0-1.2,0.2-1.6,0.7s-0.7,1.1-0.8,2h4.7V279
		c0-0.8-0.2-1.3-0.6-1.7S324.2,276.6,323.5,276.6z"/>
</g>
<g class="st2">
	<path class="st3" d="M148.7,332h-6l-1.3,3.7h-1.9l5.4-14.2h1.6l5.4,14.2H150L148.7,332z M146.8,320.6h-1.6l-2.5-2.9h2.2
		L146.8,320.6z M143.4,330.5h4.8l-2.4-6.7L143.4,330.5z"/>
	<path class="st3" d="M162.1,333.3l2.6-8.1h1.8l-3.8,10.6h-1.4l-3.8-10.6h1.8L162.1,333.3z"/>
	<path class="st3" d="M167.7,330.4c0-1,0.2-2,0.6-2.8c0.4-0.8,1-1.5,1.7-1.9s1.6-0.7,2.5-0.7c1.4,0,2.6,0.5,3.5,1.5s1.3,2.3,1.3,4
		v0.1c0,1-0.2,2-0.6,2.8c-0.4,0.8-1,1.5-1.7,1.9c-0.7,0.5-1.6,0.7-2.5,0.7c-1.4,0-2.6-0.5-3.5-1.5s-1.3-2.3-1.3-4V330.4z
		 M169.5,330.6c0,1.2,0.3,2.1,0.8,2.8c0.5,0.7,1.3,1.1,2.2,1.1s1.6-0.4,2.2-1.1c0.5-0.7,0.8-1.7,0.8-3c0-1.2-0.3-2.1-0.8-2.8
		c-0.6-0.7-1.3-1.1-2.2-1.1s-1.6,0.4-2.2,1.1C169.8,328.3,169.5,329.3,169.5,330.6z"/>
	<path class="st3" d="M182,322.6v2.6h2v1.4h-2v6.6c0,0.4,0.1,0.7,0.3,1c0.2,0.2,0.5,0.3,0.9,0.3c0.2,0,0.5,0,0.9-0.1v1.5
		c-0.5,0.1-0.9,0.2-1.4,0.2c-0.8,0-1.4-0.2-1.8-0.7s-0.6-1.2-0.6-2.1v-6.6h-1.9v-1.4h1.9v-2.6L182,322.6L182,322.6z"/>
	<path class="st3" d="M191.2,326.8c-0.3,0-0.6-0.1-0.9-0.1c-1.2,0-2,0.5-2.4,1.5v7.5h-1.8v-10.6h1.8v1.2c0.6-0.9,1.4-1.4,2.5-1.4
		c0.4,0,0.6,0,0.8,0.1L191.2,326.8L191.2,326.8z"/>
	<path class="st3" d="M197.1,336c-1.4,0-2.6-0.5-3.5-1.4s-1.3-2.2-1.3-3.8v-0.3c0-1,0.2-2,0.6-2.8c0.4-0.8,1-1.5,1.7-1.9
		c0.7-0.5,1.5-0.7,2.3-0.7c1.4,0,2.4,0.5,3.2,1.4s1.1,2.2,1.1,3.9v0.8H194c0,1,0.3,1.9,0.9,2.5c0.6,0.6,1.3,1,2.2,1
		c0.6,0,1.2-0.1,1.6-0.4c0.4-0.3,0.8-0.6,1.2-1l1.1,0.9C200.2,335.3,198.8,336,197.1,336z M196.8,326.5c-0.7,0-1.3,0.3-1.8,0.8
		s-0.8,1.3-0.9,2.2h5.3v-0.1c-0.1-0.9-0.3-1.6-0.7-2.1C198.2,326.7,197.6,326.5,196.8,326.5z"/>
	<path class="st3" d="M209.9,325.2v1.2c0.8-0.9,1.8-1.4,3.1-1.4c1.5,0,2.5,0.6,3,1.7c0.4-0.5,0.8-0.9,1.4-1.2s1.2-0.5,2-0.5
		c2.3,0,3.5,1.2,3.5,3.7v7.1h-1.8v-7c0-0.8-0.2-1.3-0.5-1.7c-0.3-0.4-0.9-0.6-1.7-0.6c-0.7,0-1.2,0.2-1.7,0.6s-0.7,0.9-0.8,1.6v7
		h-1.8v-6.9c0-1.5-0.8-2.3-2.3-2.3c-1.2,0-2,0.5-2.4,1.5v7.7h-1.8v-10.6L209.9,325.2L209.9,325.2z"/>
	<path class="st3" d="M225.8,322.4c0-0.3,0.1-0.5,0.3-0.7s0.4-0.3,0.8-0.3s0.6,0.1,0.8,0.3c0.2,0.2,0.3,0.4,0.3,0.7
		s-0.1,0.5-0.3,0.7s-0.4,0.3-0.8,0.3s-0.6-0.1-0.8-0.3C225.8,322.9,225.8,322.7,225.8,322.4z M227.7,335.8h-1.8v-10.6h1.8V335.8z"/>
	<path class="st3" d="M234.8,334.5c0.6,0,1.2-0.2,1.7-0.6s0.7-0.9,0.8-1.5h1.7c0,0.6-0.2,1.2-0.6,1.7c-0.4,0.5-0.9,1-1.5,1.3
		s-1.3,0.5-2,0.5c-1.4,0-2.6-0.5-3.4-1.4c-0.8-1-1.3-2.3-1.3-3.9v-0.3c0-1,0.2-1.9,0.6-2.7c0.4-0.8,0.9-1.4,1.6-1.9
		c0.7-0.4,1.5-0.7,2.5-0.7c1.2,0,2.2,0.4,3,1.1s1.2,1.6,1.3,2.8h-1.7c-0.1-0.7-0.3-1.2-0.8-1.7c-0.5-0.4-1-0.7-1.7-0.7
		c-0.9,0-1.6,0.3-2.1,1s-0.8,1.6-0.8,2.9v0.3c0,1.2,0.2,2.2,0.8,2.8C233.2,334.2,233.9,334.5,234.8,334.5z"/>
	<path class="st3" d="M246.2,326.8c-0.3,0-0.6-0.1-0.9-0.1c-1.2,0-2,0.5-2.4,1.5v7.5h-1.8v-10.6h1.8v1.2c0.6-0.9,1.4-1.4,2.5-1.4
		c0.4,0,0.6,0,0.8,0.1L246.2,326.8L246.2,326.8z"/>
	<path class="st3" d="M247.2,330.4c0-1,0.2-2,0.6-2.8c0.4-0.8,1-1.5,1.7-1.9s1.6-0.7,2.5-0.7c1.4,0,2.6,0.5,3.5,1.5s1.3,2.3,1.3,4
		v0.1c0,1-0.2,2-0.6,2.8s-1,1.5-1.7,1.9c-0.7,0.5-1.6,0.7-2.5,0.7c-1.4,0-2.6-0.5-3.5-1.5s-1.3-2.3-1.3-4L247.2,330.4L247.2,330.4z
		 M249,330.6c0,1.2,0.3,2.1,0.8,2.8c0.5,0.7,1.3,1.1,2.2,1.1s1.6-0.4,2.2-1.1c0.5-0.7,0.8-1.7,0.8-3c0-1.2-0.3-2.1-0.8-2.8
		c-0.6-0.7-1.3-1.1-2.2-1.1s-1.6,0.4-2.2,1.1C249.3,328.3,249,329.3,249,330.6z"/>
	<path class="st3" d="M262.8,330.5H258V329h4.8V330.5z"/>
	<path class="st3" d="M264.1,330.4c0-1,0.2-2,0.6-2.8s1-1.5,1.7-1.9s1.6-0.7,2.5-0.7c1.4,0,2.6,0.5,3.5,1.5s1.3,2.3,1.3,4v0.1
		c0,1-0.2,2-0.6,2.8s-1,1.5-1.7,1.9c-0.7,0.5-1.6,0.7-2.5,0.7c-1.4,0-2.6-0.5-3.5-1.5s-1.3-2.3-1.3-4V330.4z M265.9,330.6
		c0,1.2,0.3,2.1,0.8,2.8c0.5,0.7,1.3,1.1,2.2,1.1c0.9,0,1.6-0.4,2.2-1.1c0.5-0.7,0.8-1.7,0.8-3c0-1.2-0.3-2.1-0.8-2.8
		c-0.6-0.7-1.3-1.1-2.2-1.1c-0.9,0-1.6,0.4-2.2,1.1C266.2,328.3,265.9,329.3,265.9,330.6z"/>
	<path class="st3" d="M277.7,325.2l0.1,1.3c0.8-1,1.9-1.5,3.2-1.5c2.2,0,3.4,1.3,3.4,3.8v7h-1.8v-7c0-0.8-0.2-1.3-0.5-1.7
		c-0.3-0.4-0.9-0.5-1.6-0.5c-0.6,0-1.1,0.2-1.5,0.5s-0.8,0.7-1,1.2v7.5h-2v-10.6L277.7,325.2L277.7,325.2z"/>
	<path class="st3" d="M286.6,330.4c0-1.6,0.4-2.9,1.2-3.9c0.8-1,1.8-1.5,3-1.5s2.2,0.4,2.9,1.3v-5.5h1.8v15h-1.7l-0.1-1.1
		c-0.7,0.9-1.7,1.3-3,1.3c-1.2,0-2.2-0.5-3-1.5s-1.2-2.3-1.2-3.9v-0.2H286.6z M288.4,330.6c0,1.2,0.2,2.1,0.7,2.8
		c0.5,0.7,1.2,1,2.1,1c1.1,0,2-0.5,2.5-1.5V328c-0.5-1-1.4-1.5-2.5-1.5c-0.9,0-1.6,0.3-2.1,1S288.4,329.3,288.4,330.6z"/>
	<path class="st3" d="M302.7,336c-1.4,0-2.6-0.5-3.5-1.4s-1.3-2.2-1.3-3.8v-0.3c0-1,0.2-2,0.6-2.8s1-1.5,1.7-1.9
		c0.7-0.5,1.5-0.7,2.3-0.7c1.4,0,2.4,0.5,3.2,1.4c0.8,0.9,1.1,2.2,1.1,3.9v0.8h-7.2c0,1,0.3,1.9,0.9,2.5s1.3,1,2.2,1
		c0.6,0,1.2-0.1,1.6-0.4s0.8-0.6,1.2-1l1.1,0.9C305.8,335.3,304.4,336,302.7,336z M302.4,326.5c-0.7,0-1.3,0.3-1.8,0.8
		s-0.8,1.3-0.9,2.2h5.3v-0.1c-0.1-0.9-0.3-1.6-0.7-2.1C303.8,326.7,303.2,326.5,302.4,326.5z"/>
</g>
<g class="st2">
	<path class="st3" d="M145.1,354.4c0-1,0.2-2,0.6-2.8c0.4-0.8,1-1.5,1.7-1.9s1.6-0.7,2.5-0.7c1.4,0,2.6,0.5,3.5,1.5s1.3,2.3,1.3,4
		v0.1c0,1-0.2,2-0.6,2.8c-0.4,0.8-1,1.5-1.7,1.9c-0.7,0.5-1.6,0.7-2.5,0.7c-1.4,0-2.6-0.5-3.5-1.5s-1.3-2.3-1.3-4V354.4z
		 M146.9,354.6c0,1.2,0.3,2.1,0.8,2.8c0.5,0.7,1.3,1.1,2.2,1.1s1.6-0.4,2.2-1.1c0.5-0.7,0.8-1.7,0.8-3c0-1.2-0.3-2.1-0.8-2.8
		c-0.6-0.7-1.3-1.1-2.2-1.1s-1.6,0.4-2.2,1.1C147.2,352.3,146.9,353.3,146.9,354.6z"/>
	<path class="st3" d="M163.5,358.7c-0.7,0.8-1.7,1.2-3.1,1.2c-1.1,0-2-0.3-2.6-1s-0.9-1.6-0.9-2.9v-6.9h1.8v6.8c0,1.6,0.7,2.4,2,2.4
		c1.4,0,2.3-0.5,2.8-1.5v-7.7h1.8v10.6h-1.7L163.5,358.7z"/>
	<path class="st3" d="M176.5,357.3l2.6-8.1h1.8l-3.8,10.6h-1.4l-3.8-10.6h1.8L176.5,357.3z"/>
	<path class="st3" d="M182,354.4c0-1,0.2-2,0.6-2.8c0.4-0.8,1-1.5,1.7-1.9s1.6-0.7,2.5-0.7c1.4,0,2.6,0.5,3.5,1.5s1.3,2.3,1.3,4v0.1
		c0,1-0.2,2-0.6,2.8c-0.4,0.8-1,1.5-1.7,1.9c-0.7,0.5-1.6,0.7-2.5,0.7c-1.4,0-2.6-0.5-3.5-1.5s-1.3-2.3-1.3-4V354.4z M183.8,354.6
		c0,1.2,0.3,2.1,0.8,2.8c0.5,0.7,1.3,1.1,2.2,1.1s1.6-0.4,2.2-1.1c0.5-0.7,0.8-1.7,0.8-3c0-1.2-0.3-2.1-0.8-2.8
		c-0.6-0.7-1.3-1.1-2.2-1.1s-1.6,0.4-2.2,1.1C184.1,352.3,183.8,353.3,183.8,354.6z"/>
	<path class="st3" d="M200.1,357c0-0.5-0.2-0.9-0.6-1.1c-0.4-0.3-1-0.5-1.9-0.7s-1.6-0.4-2.2-0.7s-0.9-0.6-1.2-1s-0.4-0.8-0.4-1.3
		c0-0.9,0.4-1.6,1.1-2.2c0.7-0.6,1.7-0.9,2.8-0.9c1.2,0,2.2,0.3,2.9,0.9s1.1,1.4,1.1,2.4H200c0-0.5-0.2-0.9-0.6-1.3
		c-0.4-0.4-0.9-0.5-1.6-0.5c-0.7,0-1.2,0.1-1.5,0.4c-0.4,0.3-0.6,0.7-0.6,1.1s0.2,0.8,0.5,1s1,0.4,1.9,0.6s1.6,0.4,2.2,0.7
		c0.6,0.3,1,0.6,1.2,1c0.3,0.4,0.4,0.9,0.4,1.4c0,0.9-0.4,1.7-1.1,2.3c-0.8,0.6-1.7,0.9-2.9,0.9c-0.8,0-1.6-0.2-2.2-0.4
		c-0.7-0.3-1.2-0.7-1.5-1.3s-0.6-1.1-0.6-1.7h1.8c0,0.6,0.3,1.1,0.7,1.4c0.5,0.4,1,0.5,1.8,0.5c0.7,0,1.2-0.1,1.6-0.4
		C199.9,357.8,200.1,357.4,200.1,357z"/>
	<path class="st3" d="M210.1,359.8v-9.2h-1.7v-1.4h1.7v-1.1c0-1.1,0.3-2,0.9-2.6c0.6-0.6,1.5-0.9,2.6-0.9c0.4,0,0.8,0.1,1.2,0.2
		l-0.1,1.5c-0.3-0.1-0.6-0.1-1-0.1c-0.6,0-1,0.2-1.4,0.5c-0.3,0.3-0.5,0.8-0.5,1.5v1.1h2.3v1.4h-2.3v9.2h-1.7V359.8z"/>
	<path class="st3" d="M215.6,354.4c0-1,0.2-2,0.6-2.8c0.4-0.8,1-1.5,1.7-1.9s1.6-0.7,2.5-0.7c1.4,0,2.6,0.5,3.5,1.5s1.3,2.3,1.3,4
		v0.1c0,1-0.2,2-0.6,2.8c-0.4,0.8-1,1.5-1.7,1.9c-0.7,0.5-1.6,0.7-2.5,0.7c-1.4,0-2.6-0.5-3.5-1.5s-1.3-2.3-1.3-4V354.4z
		 M217.5,354.6c0,1.2,0.3,2.1,0.8,2.8c0.5,0.7,1.3,1.1,2.2,1.1s1.6-0.4,2.2-1.1c0.5-0.7,0.8-1.7,0.8-3c0-1.2-0.3-2.1-0.8-2.8
		c-0.6-0.7-1.3-1.1-2.2-1.1s-1.6,0.4-2.2,1.1C217.7,352.3,217.5,353.3,217.5,354.6z"/>
	<path class="st3" d="M234,358.7c-0.7,0.8-1.7,1.2-3.1,1.2c-1.1,0-2-0.3-2.6-1s-0.9-1.6-0.9-2.9v-6.9h1.8v6.8c0,1.6,0.7,2.4,2,2.4
		c1.4,0,2.3-0.5,2.8-1.5v-7.7h1.8v10.6h-1.7L234,358.7z"/>
	<path class="st3" d="M243.7,350.8c-0.3,0-0.6-0.1-0.9-0.1c-1.2,0-2,0.5-2.4,1.5v7.5h-1.8v-10.6h1.8v1.2c0.6-0.9,1.4-1.4,2.5-1.4
		c0.4,0,0.6,0,0.8,0.1L243.7,350.8L243.7,350.8z"/>
	<path class="st3" d="M247,349.2l0.1,1.3c0.8-1,1.9-1.5,3.2-1.5c2.2,0,3.4,1.3,3.4,3.8v7h-1.8v-7c0-0.8-0.2-1.3-0.5-1.7
		c-0.3-0.4-0.9-0.5-1.6-0.5c-0.6,0-1.1,0.2-1.5,0.5s-0.8,0.7-1,1.2v7.5h-1.8v-10.6L247,349.2L247,349.2z"/>
	<path class="st3" d="M260.7,360c-1.4,0-2.6-0.5-3.5-1.4s-1.3-2.2-1.3-3.8v-0.3c0-1,0.2-2,0.6-2.8s1-1.5,1.7-1.9
		c0.7-0.5,1.5-0.7,2.3-0.7c1.4,0,2.4,0.5,3.2,1.4c0.8,0.9,1.1,2.2,1.1,3.9v0.8h-7.2c0,1,0.3,1.9,0.9,2.5s1.3,1,2.2,1
		c0.6,0,1.2-0.1,1.6-0.4s0.8-0.6,1.2-1l1.1,0.9C263.8,359.3,262.5,360,260.7,360z M260.5,350.5c-0.7,0-1.3,0.3-1.8,0.8
		s-0.8,1.3-0.9,2.2h5.3v-0.1c-0.1-0.9-0.3-1.6-0.7-2.1C261.9,350.7,261.3,350.5,260.5,350.5z"/>
	<path class="st3" d="M273.5,359.8c-0.1-0.2-0.2-0.6-0.3-1.1c-0.8,0.9-1.8,1.3-3,1.3c-1,0-1.9-0.3-2.6-0.9s-1-1.3-1-2.2
		c0-1.1,0.4-2,1.3-2.6c0.8-0.6,2-0.9,3.5-0.9h1.8v-0.8c0-0.6-0.2-1.1-0.6-1.5s-0.9-0.6-1.7-0.6c-0.6,0-1.2,0.2-1.6,0.5
		s-0.7,0.7-0.7,1.2h-1.8c0-0.5,0.2-1,0.6-1.5s0.9-0.9,1.5-1.2c0.6-0.3,1.3-0.4,2.1-0.4c1.2,0,2.2,0.3,2.9,0.9c0.7,0.6,1,1.4,1.1,2.5
		v4.9c0,1,0.1,1.7,0.4,2.3v0.2L273.5,359.8L273.5,359.8z M270.5,358.4c0.6,0,1.1-0.1,1.6-0.4s0.9-0.7,1.1-1.1v-2.2h-1.4
		c-2.2,0-3.3,0.6-3.3,1.9c0,0.6,0.2,1,0.6,1.3C269.4,358.2,269.9,358.4,270.5,358.4z"/>
	<path class="st3" d="M284.4,358.7c-0.7,0.8-1.7,1.2-3.1,1.2c-1.1,0-2-0.3-2.6-1s-0.9-1.6-0.9-2.9v-6.9h1.8v6.8c0,1.6,0.7,2.4,2,2.4
		c1.4,0,2.3-0.5,2.8-1.5v-7.7h1.8v10.6h-1.7L284.4,358.7z"/>
	<path class="st3" d="M292.4,353.1l2.3-3.9h2.1l-3.5,5.2l3.6,5.3h-2.1l-2.4-4l-2.4,4h-2.1l3.6-5.3l-3.5-5.2h2.1L292.4,353.1z"/>
	<path class="st3" d="M299,358.8c0-0.3,0.1-0.5,0.3-0.7c0.2-0.2,0.4-0.3,0.8-0.3s0.6,0.1,0.8,0.3c0.2,0.2,0.3,0.4,0.3,0.7
		c0,0.3-0.1,0.5-0.3,0.7c-0.2,0.2-0.4,0.3-0.8,0.3s-0.6-0.1-0.8-0.3C299.1,359.4,299,359.1,299,358.8z M300.8,355.7h-1.6l-0.1-10.2
		h1.9L300.8,355.7z"/>
</g>
<g class="st2">
	<path class="st3" d="M99.1,378.2v5.6h-1.9v-14.2h5.2c1.6,0,2.8,0.4,3.7,1.2c0.9,0.8,1.3,1.8,1.3,3.2c0,1.4-0.4,2.4-1.3,3.2
		c-0.9,0.7-2.1,1.1-3.7,1.1h-3.3V378.2z M99.1,376.7h3.4c1,0,1.8-0.2,2.3-0.7s0.8-1.2,0.8-2.1c0-0.8-0.3-1.5-0.8-2s-1.3-0.8-2.2-0.8
		h-3.5C99.1,371.1,99.1,376.7,99.1,376.7z"/>
	<path class="st3" d="M114.6,374.8c-0.3,0-0.6-0.1-0.9-0.1c-1.2,0-2,0.5-2.4,1.5v7.5h-1.8v-10.6h1.8v1.2c0.6-0.9,1.4-1.4,2.5-1.4
		c0.4,0,0.6,0,0.8,0.1V374.8z"/>
	<path class="st3" d="M120.5,384c-1.4,0-2.6-0.5-3.5-1.4s-1.3-2.2-1.3-3.8v-0.3c0-1,0.2-2,0.6-2.8s1-1.5,1.7-1.9
		c0.7-0.5,1.5-0.7,2.3-0.7c1.4,0,2.4,0.5,3.2,1.4c0.8,0.9,1.1,2.2,1.1,3.9v0.8h-7.2c0,1,0.3,1.9,0.9,2.5s1.3,1,2.2,1
		c0.6,0,1.2-0.1,1.6-0.4s0.8-0.6,1.2-1l1.1,0.9C123.6,383.3,122.3,384,120.5,384z M120.3,374.5c-0.7,0-1.3,0.3-1.8,0.8
		s-0.8,1.3-0.9,2.2h5.3v-0.1c-0.1-0.9-0.3-1.6-0.7-2.1C121.6,374.7,121,374.5,120.3,374.5z M121.2,368.8h2.2l-2.6,2.9h-1.5
		L121.2,368.8z"/>
	<path class="st3" d="M135.6,378.6c0,1.6-0.4,2.9-1.1,3.9c-0.7,1-1.7,1.5-3,1.5s-2.3-0.4-3-1.2v5.1h-1.8v-14.6h1.7l0.1,1.2
		c0.7-0.9,1.8-1.4,3.1-1.4s2.3,0.5,3,1.4s1.1,2.3,1.1,4v0.1H135.6z M133.8,378.4c0-1.2-0.3-2.1-0.8-2.8c-0.5-0.7-1.2-1-2.1-1
		c-1.1,0-1.9,0.5-2.5,1.5v5c0.5,1,1.4,1.4,2.5,1.4c0.9,0,1.6-0.3,2.1-1C133.6,380.8,133.8,379.7,133.8,378.4z"/>
	<path class="st3" d="M144.5,383.8c-0.1-0.2-0.2-0.6-0.3-1.1c-0.8,0.9-1.8,1.3-3,1.3c-1,0-1.9-0.3-2.6-0.9c-0.7-0.6-1-1.3-1-2.2
		c0-1.1,0.4-2,1.3-2.6c0.8-0.6,2-0.9,3.5-0.9h1.8v-0.8c0-0.6-0.2-1.1-0.6-1.5c-0.4-0.4-0.9-0.6-1.7-0.6c-0.6,0-1.2,0.2-1.6,0.5
		c-0.4,0.3-0.7,0.7-0.7,1.2h-1.8c0-0.5,0.2-1,0.6-1.5c0.4-0.5,0.9-0.9,1.5-1.2c0.6-0.3,1.3-0.4,2.1-0.4c1.2,0,2.2,0.3,2.9,0.9
		s1,1.4,1.1,2.5v4.9c0,1,0.1,1.7,0.4,2.3v0.2L144.5,383.8L144.5,383.8z M141.5,382.4c0.6,0,1.1-0.1,1.6-0.4s0.9-0.7,1.1-1.1v-2.2
		h-1.4c-2.2,0-3.3,0.6-3.3,1.9c0,0.6,0.2,1,0.6,1.3C140.4,382.2,140.9,382.4,141.5,382.4z"/>
	<path class="st3" d="M153.9,374.8c-0.3,0-0.6-0.1-0.9-0.1c-1.2,0-2,0.5-2.4,1.5v7.5h-1.8v-10.6h1.8v1.2c0.6-0.9,1.4-1.4,2.5-1.4
		c0.4,0,0.6,0,0.8,0.1L153.9,374.8L153.9,374.8z"/>
	<path class="st3" d="M159.8,384c-1.4,0-2.6-0.5-3.5-1.4s-1.3-2.2-1.3-3.8v-0.3c0-1,0.2-2,0.6-2.8c0.4-0.8,1-1.5,1.7-1.9
		c0.7-0.5,1.5-0.7,2.3-0.7c1.4,0,2.4,0.5,3.2,1.4s1.1,2.2,1.1,3.9v0.8h-7.2c0,1,0.3,1.9,0.9,2.5c0.6,0.6,1.3,1,2.2,1
		c0.6,0,1.2-0.1,1.6-0.4c0.4-0.3,0.8-0.6,1.2-1l1.1,0.9C162.9,383.3,161.6,384,159.8,384z M159.6,374.5c-0.7,0-1.3,0.3-1.8,0.8
		s-0.8,1.3-0.9,2.2h5.3v-0.1c-0.1-0.9-0.3-1.6-0.7-2.1C160.9,374.7,160.3,374.5,159.6,374.5z"/>
	<path class="st3" d="M167.7,382.3h6.2v1.5h-8.4v-1.3l5.8-7.7h-5.7v-1.5h8v1.3L167.7,382.3z"/>
	<path class="st3" d="M180.4,378.4c0-1,0.2-2,0.6-2.8c0.4-0.8,1-1.5,1.7-1.9s1.6-0.7,2.5-0.7c1.4,0,2.6,0.5,3.5,1.5s1.3,2.3,1.3,4
		v0.1c0,1-0.2,2-0.6,2.8c-0.4,0.8-1,1.5-1.7,1.9c-0.7,0.5-1.6,0.7-2.5,0.7c-1.4,0-2.6-0.5-3.5-1.5s-1.3-2.3-1.3-4V378.4z
		 M182.2,378.6c0,1.2,0.3,2.1,0.8,2.8c0.5,0.7,1.3,1.1,2.2,1.1s1.6-0.4,2.2-1.1c0.5-0.7,0.8-1.7,0.8-3c0-1.2-0.3-2.1-0.8-2.8
		c-0.6-0.7-1.3-1.1-2.2-1.1s-1.6,0.4-2.2,1.1C182.5,376.3,182.2,377.3,182.2,378.6z"/>
	<path class="st3" d="M198.8,382.7c-0.7,0.8-1.7,1.2-3.1,1.2c-1.1,0-2-0.3-2.6-1s-0.9-1.6-0.9-2.9v-6.9h1.8v6.8c0,1.6,0.7,2.4,2,2.4
		c1.4,0,2.3-0.5,2.8-1.5v-7.7h1.8v10.6h-1.7L198.8,382.7z"/>
	<path class="st3" d="M213.3,374.8c-0.3,0-0.6-0.1-0.9-0.1c-1.2,0-2,0.5-2.4,1.5v7.5h-1.8v-10.6h1.8v1.2c0.6-0.9,1.4-1.4,2.5-1.4
		c0.4,0,0.6,0,0.8,0.1L213.3,374.8L213.3,374.8z"/>
	<path class="st3" d="M219.2,384c-1.4,0-2.6-0.5-3.5-1.4s-1.3-2.2-1.3-3.8v-0.3c0-1,0.2-2,0.6-2.8c0.4-0.8,1-1.5,1.7-1.9
		c0.7-0.5,1.5-0.7,2.3-0.7c1.4,0,2.4,0.5,3.2,1.4s1.1,2.2,1.1,3.9v0.8h-7.2c0,1,0.3,1.9,0.9,2.5c0.6,0.6,1.3,1,2.2,1
		c0.6,0,1.2-0.1,1.6-0.4c0.4-0.3,0.8-0.6,1.2-1l1.1,0.9C222.3,383.3,221,384,219.2,384z M219,374.5c-0.7,0-1.3,0.3-1.8,0.8
		s-0.8,1.3-0.9,2.2h5.3v-0.1c-0.1-0.9-0.3-1.6-0.7-2.1C220.3,374.7,219.7,374.5,219,374.5z M219.9,368.8h2.2l-2.6,2.9H218
		L219.9,368.8z"/>
	<path class="st3" d="M229.7,382.5c0.6,0,1.2-0.2,1.7-0.6s0.7-0.9,0.8-1.5h1.7c0,0.6-0.2,1.2-0.6,1.7c-0.4,0.5-0.9,1-1.5,1.3
		s-1.3,0.5-2,0.5c-1.4,0-2.6-0.5-3.4-1.4c-0.8-1-1.3-2.3-1.3-3.9v-0.3c0-1,0.2-1.9,0.6-2.7c0.4-0.8,0.9-1.4,1.6-1.9
		c0.7-0.4,1.5-0.7,2.5-0.7c1.2,0,2.2,0.4,3,1.1s1.2,1.6,1.3,2.8h-1.7c-0.1-0.7-0.3-1.2-0.8-1.7c-0.5-0.4-1-0.7-1.7-0.7
		c-0.9,0-1.6,0.3-2.1,1s-0.8,1.6-0.8,2.9v0.3c0,1.2,0.3,2.2,0.8,2.8C228,382.2,228.7,382.5,229.7,382.5z"/>
	<path class="st3" d="M237.7,374.5c0.8-1,1.8-1.5,3.1-1.5c2.2,0,3.4,1.3,3.4,3.8v7h-1.8v-7c0-0.8-0.2-1.3-0.5-1.7
		c-0.3-0.4-0.9-0.5-1.6-0.5c-0.6,0-1.1,0.2-1.5,0.5s-0.8,0.7-1,1.2v7.5H236v-15h1.8L237.7,374.5L237.7,374.5z"/>
	<path class="st3" d="M253.4,383.8c-0.1-0.2-0.2-0.6-0.3-1.1c-0.8,0.9-1.8,1.3-3,1.3c-1,0-1.9-0.3-2.6-0.9c-0.7-0.6-1-1.3-1-2.2
		c0-1.1,0.4-2,1.3-2.6c0.8-0.6,2-0.9,3.5-0.9h1.8v-0.8c0-0.6-0.2-1.1-0.6-1.5c-0.4-0.4-0.9-0.6-1.7-0.6c-0.6,0-1.2,0.2-1.6,0.5
		c-0.4,0.3-0.7,0.7-0.7,1.2h-1.8c0-0.5,0.2-1,0.6-1.5c0.4-0.5,0.9-0.9,1.5-1.2c0.6-0.3,1.3-0.4,2.1-0.4c1.2,0,2.2,0.3,2.9,0.9
		s1,1.4,1.1,2.5v4.9c0,1,0.1,1.7,0.4,2.3v0.2L253.4,383.8L253.4,383.8z M250.4,382.4c0.6,0,1.1-0.1,1.6-0.4s0.9-0.7,1.1-1.1v-2.2
		h-1.4c-2.2,0-3.3,0.6-3.3,1.9c0,0.6,0.2,1,0.6,1.3C249.3,382.2,249.8,382.4,250.4,382.4z"/>
	<path class="st3" d="M264.3,382.7c-0.7,0.8-1.7,1.2-3.1,1.2c-1.1,0-2-0.3-2.6-1s-0.9-1.6-0.9-2.9v-6.9h1.8v6.8c0,1.6,0.7,2.4,2,2.4
		c1.4,0,2.3-0.5,2.8-1.5v-7.7h1.8v10.6h-1.7L264.3,382.7z"/>
	<path class="st3" d="M269.7,383.8v-9.2H268v-1.4h1.7v-1.1c0-1.1,0.3-2,0.9-2.6s1.5-0.9,2.6-0.9c0.4,0,0.8,0.1,1.2,0.2l-0.1,1.5
		c-0.3-0.1-0.6-0.1-1-0.1c-0.6,0-1,0.2-1.4,0.5c-0.3,0.3-0.5,0.8-0.5,1.5v1.1h2.3v1.4h-2.3v9.2h-1.7V383.8z"/>
	<path class="st3" d="M276.6,383.8v-9.2H275v-1.4h1.7v-1.1c0-1.1,0.3-2,0.9-2.6s1.5-0.9,2.6-0.9c0.4,0,0.8,0.1,1.2,0.2l-0.1,1.5
		c-0.3-0.1-0.6-0.1-1-0.1c-0.6,0-1,0.2-1.4,0.5c-0.3,0.3-0.5,0.8-0.5,1.5v1.1h2.3v1.4h-2.3v9.2h-1.8V383.8z"/>
	<path class="st3" d="M286.8,384c-1.4,0-2.6-0.5-3.5-1.4s-1.3-2.2-1.3-3.8v-0.3c0-1,0.2-2,0.6-2.8s1-1.5,1.7-1.9
		c0.7-0.5,1.5-0.7,2.3-0.7c1.4,0,2.4,0.5,3.2,1.4c0.8,0.9,1.1,2.2,1.1,3.9v0.8h-7.2c0,1,0.3,1.9,0.9,2.5s1.3,1,2.2,1
		c0.6,0,1.2-0.1,1.6-0.4s0.8-0.6,1.2-1l1.1,0.9C289.9,383.3,288.6,384,286.8,384z M286.6,374.5c-0.7,0-1.3,0.3-1.8,0.8
		s-0.8,1.3-0.9,2.2h5.3v-0.1c-0.1-0.9-0.3-1.6-0.7-2.1C288,374.7,287.4,374.5,286.6,374.5z"/>
	<path class="st3" d="M294.8,382.3h6.2v1.5h-8.4v-1.3l5.8-7.7h-5.7v-1.5h8v1.3L294.8,382.3z"/>
	<path class="st3" d="M311.4,381.3l2.6-8.1h1.8l-3.8,10.6h-1.4l-3.8-10.6h1.8L311.4,381.3z"/>
	<path class="st3" d="M317,378.4c0-1,0.2-2,0.6-2.8s1-1.5,1.7-1.9s1.6-0.7,2.5-0.7c1.4,0,2.6,0.5,3.5,1.5s1.3,2.3,1.3,4v0.1
		c0,1-0.2,2-0.6,2.8s-1,1.5-1.7,1.9c-0.7,0.5-1.6,0.7-2.5,0.7c-1.4,0-2.6-0.5-3.5-1.5s-1.3-2.3-1.3-4V378.4z M318.8,378.6
		c0,1.2,0.3,2.1,0.8,2.8c0.5,0.7,1.3,1.1,2.2,1.1c0.9,0,1.6-0.4,2.2-1.1c0.5-0.7,0.8-1.7,0.8-3c0-1.2-0.3-2.1-0.8-2.8
		c-0.5-0.7-1.3-1.1-2.2-1.1c-0.9,0-1.6,0.4-2.2,1.1C319.1,376.3,318.8,377.3,318.8,378.6z"/>
	<path class="st3" d="M331.3,370.6v2.6h2v1.4h-2v6.6c0,0.4,0.1,0.7,0.3,1c0.2,0.2,0.5,0.3,0.9,0.3c0.2,0,0.5,0,0.9-0.1v1.5
		c-0.5,0.1-0.9,0.2-1.4,0.2c-0.8,0-1.4-0.2-1.8-0.7s-0.6-1.2-0.6-2.1v-6.6h-1.9v-1.4h1.9v-2.6L331.3,370.6L331.3,370.6z"/>
	<path class="st3" d="M340.5,374.8c-0.3,0-0.6-0.1-0.9-0.1c-1.2,0-2,0.5-2.4,1.5v7.5h-1.8v-10.6h1.8v1.2c0.6-0.9,1.4-1.4,2.5-1.4
		c0.4,0,0.6,0,0.8,0.1V374.8z"/>
	<path class="st3" d="M346.4,384c-1.4,0-2.6-0.5-3.5-1.4s-1.3-2.2-1.3-3.8v-0.3c0-1,0.2-2,0.6-2.8s1-1.5,1.7-1.9
		c0.7-0.5,1.5-0.7,2.3-0.7c1.4,0,2.4,0.5,3.2,1.4c0.8,0.9,1.1,2.2,1.1,3.9v0.8h-7.2c0,1,0.3,1.9,0.9,2.5s1.3,1,2.2,1
		c0.6,0,1.2-0.1,1.6-0.4s0.8-0.6,1.2-1l1.1,0.9C349.5,383.3,348.1,384,346.4,384z M346.1,374.5c-0.7,0-1.3,0.3-1.8,0.8
		s-0.8,1.3-0.9,2.2h5.3v-0.1c-0.1-0.9-0.3-1.6-0.7-2.1C347.5,374.7,346.9,374.5,346.1,374.5z"/>
</g>
<g class="st2">
	<path class="st3" d="M127.5,398.8c-0.3,0-0.6-0.1-0.9-0.1c-1.2,0-2,0.5-2.4,1.5v7.5h-1.8v-10.6h1.8v1.2c0.6-0.9,1.4-1.4,2.5-1.4
		c0.4,0,0.6,0,0.8,0.1V398.8z"/>
	<path class="st3" d="M133.4,408c-1.4,0-2.6-0.5-3.5-1.4s-1.3-2.2-1.3-3.8v-0.3c0-1,0.2-2,0.6-2.8c0.4-0.8,1-1.5,1.7-1.9
		c0.7-0.5,1.5-0.7,2.3-0.7c1.4,0,2.4,0.5,3.2,1.4s1.1,2.2,1.1,3.9v0.8h-7.2c0,1,0.3,1.9,0.9,2.5c0.6,0.6,1.3,1,2.2,1
		c0.6,0,1.2-0.1,1.6-0.4c0.4-0.3,0.8-0.6,1.2-1l1.1,0.9C136.5,407.3,135.1,408,133.4,408z M133.1,398.5c-0.7,0-1.3,0.3-1.8,0.8
		s-0.8,1.3-0.9,2.2h5.3v-0.1c-0.1-0.9-0.3-1.6-0.7-2.1C134.5,398.7,133.9,398.5,133.1,398.5z"/>
	<path class="st3" d="M148.5,402.6c0,1.6-0.4,2.9-1.1,3.9c-0.7,1-1.7,1.5-3,1.5s-2.3-0.4-3-1.2v5.1h-1.8v-14.6h1.7l0.1,1.2
		c0.7-0.9,1.8-1.4,3.1-1.4s2.3,0.5,3,1.4s1.1,2.3,1.1,4v0.1H148.5z M146.7,402.4c0-1.2-0.3-2.1-0.8-2.8c-0.5-0.7-1.2-1-2.1-1
		c-1.1,0-1.9,0.5-2.5,1.5v5c0.5,1,1.4,1.4,2.5,1.4c0.9,0,1.6-0.3,2.1-1S146.7,403.7,146.7,402.4z"/>
	<path class="st3" d="M157.3,407.8c-0.1-0.2-0.2-0.6-0.3-1.1c-0.8,0.9-1.8,1.3-3,1.3c-1,0-1.9-0.3-2.6-0.9c-0.7-0.6-1-1.3-1-2.2
		c0-1.1,0.4-2,1.3-2.6c0.8-0.6,2-0.9,3.5-0.9h1.8v-0.8c0-0.6-0.2-1.1-0.6-1.5c-0.4-0.4-0.9-0.6-1.7-0.6c-0.6,0-1.2,0.2-1.6,0.5
		c-0.4,0.3-0.7,0.7-0.7,1.2h-1.8c0-0.5,0.2-1,0.6-1.5c0.4-0.5,0.9-0.9,1.5-1.2c0.6-0.3,1.3-0.4,2.1-0.4c1.2,0,2.2,0.3,2.9,0.9
		s1,1.4,1.1,2.5v4.9c0,1,0.1,1.7,0.4,2.3v0.2L157.3,407.8L157.3,407.8z M154.3,406.4c0.6,0,1.1-0.1,1.6-0.4s0.9-0.7,1.1-1.1v-2.2
		h-1.4c-2.2,0-3.3,0.6-3.3,1.9c0,0.6,0.2,1,0.6,1.3C153.2,406.2,153.7,406.4,154.3,406.4z"/>
	<path class="st3" d="M167.8,405c0-0.5-0.2-0.9-0.6-1.1c-0.4-0.3-1-0.5-1.9-0.7s-1.6-0.4-2.2-0.7s-0.9-0.6-1.2-1s-0.4-0.8-0.4-1.3
		c0-0.9,0.4-1.6,1.1-2.2c0.7-0.6,1.7-0.9,2.8-0.9c1.2,0,2.2,0.3,2.9,0.9s1.1,1.4,1.1,2.4h-1.8c0-0.5-0.2-0.9-0.6-1.3
		c-0.4-0.4-0.9-0.5-1.6-0.5c-0.7,0-1.2,0.1-1.5,0.4c-0.4,0.3-0.6,0.7-0.6,1.1s0.2,0.8,0.5,1s1,0.4,1.9,0.6s1.6,0.4,2.2,0.7
		c0.6,0.3,1,0.6,1.2,1c0.3,0.4,0.4,0.9,0.4,1.4c0,0.9-0.4,1.7-1.1,2.3c-0.8,0.6-1.7,0.9-2.9,0.9c-0.8,0-1.6-0.2-2.2-0.4
		c-0.7-0.3-1.2-0.7-1.5-1.3s-0.6-1.1-0.6-1.7h1.8c0,0.6,0.3,1.1,0.7,1.4c0.5,0.4,1,0.5,1.8,0.5c0.7,0,1.2-0.1,1.6-0.4
		C167.6,405.8,167.8,405.4,167.8,405z"/>
	<path class="st3" d="M181.3,408c-1.4,0-2.6-0.5-3.5-1.4s-1.3-2.2-1.3-3.8v-0.3c0-1,0.2-2,0.6-2.8c0.4-0.8,1-1.5,1.7-1.9
		c0.7-0.5,1.5-0.7,2.3-0.7c1.4,0,2.4,0.5,3.2,1.4s1.1,2.2,1.1,3.9v0.8h-7.2c0,1,0.3,1.9,0.9,2.5c0.6,0.6,1.3,1,2.2,1
		c0.6,0,1.2-0.1,1.6-0.4c0.4-0.3,0.8-0.6,1.2-1l1.1,0.9C184.4,407.3,183.1,408,181.3,408z M181.1,398.5c-0.7,0-1.3,0.3-1.8,0.8
		s-0.8,1.3-0.9,2.2h5.3v-0.1c-0.1-0.9-0.3-1.6-0.7-2.1C182.4,398.7,181.8,398.5,181.1,398.5z"/>
	<path class="st3" d="M190,394.6v2.6h2v1.4h-2v6.6c0,0.4,0.1,0.7,0.3,1c0.2,0.2,0.5,0.3,0.9,0.3c0.2,0,0.5,0,0.9-0.1v1.5
		c-0.5,0.1-0.9,0.2-1.4,0.2c-0.8,0-1.4-0.2-1.8-0.7s-0.6-1.2-0.6-2.1v-6.6h-1.9v-1.4h1.9v-2.6L190,394.6L190,394.6z"/>
	<path class="st3" d="M207.9,402.6c0,1.6-0.4,2.9-1.1,3.9c-0.7,1-1.7,1.5-3,1.5s-2.3-0.4-3-1.2v5.1H199v-14.6h1.7l0.1,1.2
		c0.7-0.9,1.8-1.4,3.1-1.4s2.3,0.5,3,1.4s1.1,2.3,1.1,4v0.1H207.9z M206.1,402.4c0-1.2-0.3-2.1-0.8-2.8c-0.5-0.7-1.2-1-2.1-1
		c-1.1,0-1.9,0.5-2.5,1.5v5c0.5,1,1.4,1.4,2.5,1.4c0.9,0,1.6-0.3,2.1-1C205.9,404.8,206.1,403.7,206.1,402.4z"/>
	<path class="st3" d="M216.8,407.8c-0.1-0.2-0.2-0.6-0.3-1.1c-0.8,0.9-1.8,1.3-3,1.3c-1,0-1.9-0.3-2.6-0.9c-0.7-0.6-1-1.3-1-2.2
		c0-1.1,0.4-2,1.3-2.6c0.8-0.6,2-0.9,3.5-0.9h1.8v-0.8c0-0.6-0.2-1.1-0.6-1.5c-0.4-0.4-0.9-0.6-1.7-0.6c-0.6,0-1.2,0.2-1.6,0.5
		c-0.4,0.3-0.7,0.7-0.7,1.2h-1.8c0-0.5,0.2-1,0.6-1.5c0.4-0.5,0.9-0.9,1.5-1.2c0.6-0.3,1.3-0.4,2.1-0.4c1.2,0,2.2,0.3,2.9,0.9
		s1,1.4,1.1,2.5v4.9c0,1,0.1,1.7,0.4,2.3v0.2L216.8,407.8L216.8,407.8z M213.8,406.4c0.6,0,1.1-0.1,1.6-0.4s0.9-0.7,1.1-1.1v-2.2
		h-1.4c-2.2,0-3.3,0.6-3.3,1.9c0,0.6,0.2,1,0.6,1.3C212.7,406.2,213.2,406.4,213.8,406.4z"/>
	<path class="st3" d="M227.3,405c0-0.5-0.2-0.9-0.6-1.1c-0.4-0.3-1-0.5-1.9-0.7s-1.6-0.4-2.2-0.7s-0.9-0.6-1.2-1s-0.4-0.8-0.4-1.3
		c0-0.9,0.4-1.6,1.1-2.2c0.7-0.6,1.7-0.9,2.8-0.9c1.2,0,2.2,0.3,2.9,0.9s1.1,1.4,1.1,2.4h-1.8c0-0.5-0.2-0.9-0.6-1.3
		c-0.4-0.4-0.9-0.5-1.6-0.5c-0.7,0-1.2,0.1-1.5,0.4c-0.4,0.3-0.6,0.7-0.6,1.1s0.2,0.8,0.5,1s1,0.4,1.9,0.6s1.6,0.4,2.2,0.7
		c0.6,0.3,1,0.6,1.2,1c0.3,0.4,0.4,0.9,0.4,1.4c0,0.9-0.4,1.7-1.1,2.3c-0.8,0.6-1.7,0.9-2.9,0.9c-0.8,0-1.6-0.2-2.2-0.4
		c-0.7-0.3-1.2-0.7-1.5-1.3s-0.6-1.1-0.6-1.7h1.8c0,0.6,0.3,1.1,0.7,1.4c0.5,0.4,1,0.5,1.8,0.5c0.7,0,1.2-0.1,1.6-0.4
		C227.1,405.8,227.3,405.4,227.3,405z"/>
	<path class="st3" d="M237.6,405c0-0.5-0.2-0.9-0.6-1.1c-0.4-0.3-1-0.5-1.9-0.7s-1.6-0.4-2.2-0.7s-0.9-0.6-1.2-1s-0.4-0.8-0.4-1.3
		c0-0.9,0.4-1.6,1.1-2.2c0.7-0.6,1.7-0.9,2.8-0.9c1.2,0,2.2,0.3,2.9,0.9s1.1,1.4,1.1,2.4h-1.8c0-0.5-0.2-0.9-0.6-1.3
		c-0.4-0.4-0.9-0.5-1.6-0.5c-0.7,0-1.2,0.1-1.5,0.4c-0.4,0.3-0.6,0.7-0.6,1.1s0.2,0.8,0.5,1s1,0.4,1.9,0.6s1.6,0.4,2.2,0.7
		c0.6,0.3,1,0.6,1.2,1c0.3,0.4,0.4,0.9,0.4,1.4c0,0.9-0.4,1.7-1.1,2.3c-0.8,0.6-1.7,0.9-2.9,0.9c-0.8,0-1.6-0.2-2.2-0.4
		c-0.7-0.3-1.2-0.7-1.5-1.3c-0.4-0.5-0.6-1.1-0.6-1.7h1.8c0,0.6,0.3,1.1,0.7,1.4c0.5,0.4,1,0.5,1.8,0.5c0.7,0,1.2-0.1,1.6-0.4
		C237.4,405.8,237.6,405.4,237.6,405z"/>
	<path class="st3" d="M246.1,408c-1.4,0-2.6-0.5-3.5-1.4s-1.3-2.2-1.3-3.8v-0.3c0-1,0.2-2,0.6-2.8c0.4-0.8,1-1.5,1.7-1.9
		c0.7-0.5,1.5-0.7,2.3-0.7c1.4,0,2.4,0.5,3.2,1.4s1.1,2.2,1.1,3.9v0.8H243c0,1,0.3,1.9,0.9,2.5c0.6,0.6,1.3,1,2.2,1
		c0.6,0,1.2-0.1,1.6-0.4c0.4-0.3,0.8-0.6,1.2-1l1.1,0.9C249.2,407.3,247.9,408,246.1,408z M245.9,398.5c-0.7,0-1.3,0.3-1.8,0.8
		s-0.8,1.3-0.9,2.2h5.3v-0.1c-0.1-0.9-0.3-1.6-0.7-2.1C247.2,398.7,246.7,398.5,245.9,398.5z"/>
	<path class="st3" d="M254,406.3h6.2v1.5h-8.4v-1.3l5.8-7.7h-5.7v-1.5h8v1.3L254,406.3z"/>
	<path class="st3" d="M273.7,407.8c-0.1-0.2-0.2-0.6-0.3-1.1c-0.8,0.9-1.8,1.3-3,1.3c-1,0-1.9-0.3-2.6-0.9s-1-1.3-1-2.2
		c0-1.1,0.4-2,1.3-2.6c0.8-0.6,2-0.9,3.5-0.9h1.8v-0.8c0-0.6-0.2-1.1-0.6-1.5s-0.9-0.6-1.7-0.6c-0.6,0-1.2,0.2-1.6,0.5
		s-0.7,0.7-0.7,1.2H267c0-0.5,0.2-1,0.6-1.5s0.9-0.9,1.5-1.2c0.6-0.3,1.3-0.4,2.1-0.4c1.2,0,2.2,0.3,2.9,0.9c0.7,0.6,1,1.4,1.1,2.5
		v4.9c0,1,0.1,1.7,0.4,2.3v0.2L273.7,407.8L273.7,407.8z M272.5,395.6h-1.6l-2.5-2.9h2.2L272.5,395.6z M270.7,406.4
		c0.6,0,1.1-0.1,1.6-0.4s0.9-0.7,1.1-1.1v-2.2H272c-2.2,0-3.3,0.6-3.3,1.9c0,0.6,0.2,1,0.6,1.3C269.6,406.2,270.1,406.4,270.7,406.4
		z"/>
	<path class="st3" d="M285.5,394.6v2.6h2v1.4h-2v6.6c0,0.4,0.1,0.7,0.3,1c0.2,0.2,0.5,0.3,0.9,0.3c0.2,0,0.5,0,0.9-0.1v1.5
		c-0.5,0.1-0.9,0.2-1.4,0.2c-0.8,0-1.4-0.2-1.8-0.7s-0.6-1.2-0.6-2.1v-6.6h-1.9v-1.4h1.9v-2.6L285.5,394.6L285.5,394.6z"/>
	<path class="st3" d="M296.1,407.8c-0.1-0.2-0.2-0.6-0.3-1.1c-0.8,0.9-1.8,1.3-3,1.3c-1,0-1.9-0.3-2.6-0.9s-1-1.3-1-2.2
		c0-1.1,0.4-2,1.3-2.6c0.8-0.6,2-0.9,3.5-0.9h1.8v-0.8c0-0.6-0.2-1.1-0.6-1.5s-0.9-0.6-1.7-0.6c-0.6,0-1.2,0.2-1.6,0.5
		s-0.7,0.7-0.7,1.2h-1.8c0-0.5,0.2-1,0.6-1.5s0.9-0.9,1.5-1.2c0.6-0.3,1.3-0.4,2.1-0.4c1.2,0,2.2,0.3,2.9,0.9c0.7,0.6,1,1.4,1.1,2.5
		v4.9c0,1,0.1,1.7,0.4,2.3v0.2L296.1,407.8L296.1,407.8z M293.1,406.4c0.6,0,1.1-0.1,1.6-0.4s0.9-0.7,1.1-1.1v-2.2h-1.4
		c-2.2,0-3.3,0.6-3.3,1.9c0,0.6,0.2,1,0.6,1.3C292,406.2,292.5,406.4,293.1,406.4z"/>
	<path class="st3" d="M309.4,402.6c0,1.6-0.4,2.9-1.1,3.9s-1.7,1.5-3,1.5s-2.4-0.5-3.1-1.4l-0.1,1.2h-1.7v-15h1.8v5.6
		c0.7-0.9,1.7-1.4,3-1.4s2.3,0.5,3,1.5s1.1,2.3,1.1,4v0.1H309.4z M307.6,402.4c0-1.2-0.2-2.2-0.7-2.9c-0.5-0.7-1.2-1-2.1-1
		c-1.2,0-2,0.6-2.6,1.7v4.6c0.6,1.1,1.4,1.7,2.6,1.7c0.9,0,1.5-0.3,2-1C307.3,404.7,307.6,403.7,307.6,402.4z"/>
	<path class="st3" d="M313.6,407.8h-1.8v-15h1.8V407.8z"/>
	<path class="st3" d="M320.9,408c-1.4,0-2.6-0.5-3.5-1.4s-1.3-2.2-1.3-3.8v-0.3c0-1,0.2-2,0.6-2.8s1-1.5,1.7-1.9
		c0.7-0.5,1.5-0.7,2.3-0.7c1.4,0,2.4,0.5,3.2,1.4c0.8,0.9,1.1,2.2,1.1,3.9v0.8h-7.2c0,1,0.3,1.9,0.9,2.5s1.3,1,2.2,1
		c0.6,0,1.2-0.1,1.6-0.4s0.8-0.6,1.2-1l1.1,0.9C324,407.3,322.7,408,320.9,408z M320.7,398.5c-0.7,0-1.3,0.3-1.8,0.8
		s-0.8,1.3-0.9,2.2h5.3v-0.1c-0.1-0.9-0.3-1.6-0.7-2.1C322,398.7,321.4,398.5,320.7,398.5z"/>
</g>
</svg>
