<?xml version="1.0" encoding="utf-8"?>
<!-- Generator: Adobe Illustrator 25.4.1, SVG Export Plug-In . SVG Version: 6.00 Build 0)  -->
<svg version="1.1" id="Calque_1" xmlns="http://www.w3.org/2000/svg" xmlns:xlink="http://www.w3.org/1999/xlink" x="0px" y="0px"
	 viewBox="0 0 385 487.4" style="enable-background:new 0 0 385 487.4;" xml:space="preserve">
<style type="text/css">
	.st0{fill:#F8C618;}
	.st1{enable-background:new    ;}
	.st2{fill:none;stroke:#1D1D1B;stroke-width:4;stroke-miterlimit:10;}
</style>
<g id="_3" transform="translate(-1000 -1368)">
	<path id="Rectangle_3" class="st0" d="M1105,1415.4h200c44.2,0,80,35.8,80,80v280c0,44.2-35.8,80-80,80h-200c-44.2,0-80-35.8-80-80
		v-280C1025,1451.2,1060.8,1415.4,1105,1415.4z"/>
	<g class="st1">
		<path d="M1028.9,1436h1.7c0.2,0.1,0.7,0.1,1.6,0.1c1.2,7.4,4.2,13.2,9.2,17.5c4.9,4.2,10.6,6.3,17,6.3c5.1,0,7.6-1,7.6-2.9
			c0-0.9-0.2-1.6-0.5-2.1c-1.6,0.3-3.7,0.5-6.3,0.5c-6.2,0-11.4-2-15.6-5.9c-4.2-3.9-6.3-9.1-6.3-15.6c0-6.5,2-11.7,6.1-15.6
			c4.1-3.9,9.4-5.8,16-5.8h1.8c0.5,0,1.2,0.1,2.1,0.2c0.2-0.4,0.3-0.8,0.3-1.3c0-2.1-1.7-3.1-5.2-3.1c-5.7,0-11,1.7-15.8,5
			s-8.1,8.2-9.8,14.6c-9.8,0-17.3-2.3-22.6-6.9c-4.5-3.9-6.7-9-6.7-15.3c0-10.6,4.8-19.4,14.5-26.3c9.7-6.9,22.3-10.4,37.8-10.4
			s28.3,3.9,38.4,11.6c10,7.7,15,17.8,15,30.1c0,8.1-2.9,14.8-8.8,20.1c-2.9-1.4-5.4-2.1-7.5-2.1s-3.2,0.9-3.2,2.6
			c0,0.8,0.2,1.3,0.6,1.7c5.1,0,9.8,1.9,14.1,5.7c5.3,4.7,7.9,11.4,7.9,20c0,13.2-5.6,23.5-16.7,31.1c-10.2,6.9-23.2,10.4-39,10.4
			c-15.8,0-28.8-3.5-39-10.6c-10.2-7.1-15.3-16.5-15.3-28.3c0-7.2,2.3-13.2,7-18C1013.8,1438.4,1020.4,1436,1028.9,1436z"/>
	</g>
	<g id="Groupe_17" transform="translate(3787.205 -2251.954)">
		<path id="Tracé_60" class="st2" d="M-2516,3792.8c10.4,2,18.4,4.7,18.4,7.4c0,6.6-37.9,12-84.6,12s-84.6-5.4-84.6-12
			c0-2.6,6.7-5.4,16.7-7.4"/>
		<path id="Tracé_61" class="st2" d="M-2598.2,3788.4c5.6-0.2,10.1-0.2,16-0.2c5.8,0,11.5,0.1,17,0.2"/>
		<path id="Tracé_62" class="st2" d="M-2535.7,3811.4c0,4.9-20.8,8.9-46.5,8.9s-46.5-4-46.5-8.9"/>
		<path id="Tracé_63" class="st2" d="M-2642.9,3800.2c-4.1-5.6-11-6.5-6.3-14.3s11.6-7.2,16.4-5.7s6.6-1.3,11.9-2.8
			s17.3,1.9,17.3,4.7s12,12,15.7,11s12.6,2.5,11,7.1s-8.8,6.8-15.7,6.1s-19.8-3.1-23.6-3.1S-2640.4,3803.6-2642.9,3800.2z"/>
		<path id="Tracé_64" class="st2" d="M-2571.5,3799.6c2.4,0.3,14,5.8,16.8,5.5s42.9-5.7,42.9-6.8s-11-12.9-16.5-15.3
			s-31-2.2-34.9,1.6S-2571.5,3799.6-2571.5,3799.6z"/>
		<path id="Tracé_65" class="st2" d="M-2605.1,3758.4c-3.8-6.5,1.9-12,3.6-24.1s-1.5-19.4-1.5-21.3"/>
		<path id="Tracé_66" class="st2" d="M-2589,3721.7c-1.9,7,7.5,18.9,5.6,30.7s-8,15.2-8.6,20.7"/>
		<path id="Tracé_67" class="st2" d="M-2555.7,3772.2c2.9-8.7-7.3-15-6.9-29s5.9-12,2.7-34.8"/>
	</g>
	<g class="st1">
		<path d="M1081.2,1619.9h-6.2l-1.2,3.5h-3.7l6.4-17.1h3.3l6.4,17.1h-3.7L1081.2,1619.9z M1079.9,1605.4h-2.8l-3.2-3.6h3.7
			L1079.9,1605.4z M1076,1617h4.3l-2.1-6.4L1076,1617z"/>
		<path d="M1097.1,1623.4h-3.4v-18h3.4V1623.4z"/>
		<path d="M1107.2,1623.4c-0.2-0.3-0.3-0.7-0.3-1.1c-0.8,0.9-1.9,1.4-3.2,1.4c-1.2,0-2.3-0.4-3.1-1.1s-1.2-1.6-1.2-2.7
			c0-1.3,0.5-2.4,1.5-3.1s2.4-1.1,4.3-1.1h1.6v-0.7c0-0.6-0.2-1.1-0.5-1.4s-0.8-0.5-1.4-0.5c-0.6,0-1,0.1-1.3,0.4s-0.5,0.6-0.5,1.1
			h-3.4c0-0.7,0.2-1.4,0.7-2s1.1-1.1,1.9-1.5s1.8-0.5,2.8-0.5c1.6,0,2.8,0.4,3.7,1.2s1.4,1.9,1.4,3.3v5.5c0,1.2,0.2,2.1,0.5,2.7v0.2
			H1107.2z M1104.4,1621c0.5,0,1-0.1,1.4-0.3s0.7-0.5,0.9-0.9v-2.2h-1.3c-1.7,0-2.6,0.6-2.7,1.8l0,0.2c0,0.4,0.1,0.8,0.4,1
			S1103.9,1621,1104.4,1621z"/>
		<path d="M1125.8,1613.9c-0.5-0.1-0.9-0.1-1.2-0.1c-1.3,0-2.1,0.4-2.5,1.3v8.3h-3.4v-12.7h3.2l0.1,1.5c0.7-1.2,1.6-1.7,2.8-1.7
			c0.4,0,0.7,0.1,1.1,0.2L1125.8,1613.9z"/>
		<path d="M1133.1,1623.6c-1.9,0-3.4-0.6-4.5-1.7s-1.8-2.7-1.8-4.6v-0.3c0-1.3,0.2-2.4,0.7-3.4s1.2-1.8,2.1-2.3s1.9-0.8,3.1-0.8
			c1.7,0,3.1,0.5,4.1,1.6s1.5,2.6,1.5,4.7v1.4h-8.1c0.1,0.8,0.4,1.5,1,2s1.2,0.8,2.1,0.8c1.3,0,2.3-0.5,3.1-1.4l1.7,1.9
			c-0.5,0.7-1.2,1.3-2.1,1.7S1134.1,1623.6,1133.1,1623.6z M1132.7,1613.2c-0.7,0-1.2,0.2-1.6,0.7s-0.7,1.1-0.8,2h4.7v-0.3
			c0-0.8-0.2-1.3-0.6-1.7S1133.4,1613.2,1132.7,1613.2z M1133,1605.4h3.7l-3.2,3.6h-2.8L1133,1605.4z"/>
		<path d="M1145.5,1620.9c0.6,0,1.1-0.2,1.5-0.5s0.6-0.8,0.6-1.4h3.2c0,0.9-0.2,1.6-0.7,2.4s-1.1,1.3-1.9,1.7s-1.7,0.6-2.7,0.6
			c-1.8,0-3.2-0.6-4.3-1.7s-1.6-2.7-1.6-4.8v-0.2c0-2,0.5-3.5,1.6-4.7s2.5-1.7,4.3-1.7c1.6,0,2.9,0.5,3.8,1.4s1.4,2.1,1.5,3.6h-3.2
			c0-0.7-0.2-1.2-0.6-1.6c-0.4-0.4-0.9-0.6-1.5-0.6c-0.8,0-1.4,0.3-1.8,0.9c-0.4,0.6-0.6,1.5-0.6,2.8v0.4c0,1.3,0.2,2.2,0.6,2.8
			S1144.7,1620.9,1145.5,1620.9z"/>
		<path d="M1158.6,1623.6c-1.9,0-3.4-0.6-4.5-1.7s-1.8-2.7-1.8-4.6v-0.3c0-1.3,0.2-2.4,0.7-3.4s1.2-1.8,2.1-2.3s1.9-0.8,3.1-0.8
			c1.7,0,3.1,0.5,4.1,1.6s1.5,2.6,1.5,4.7v1.4h-8.1c0.1,0.8,0.4,1.5,1,2s1.2,0.8,2.1,0.8c1.3,0,2.3-0.5,3.1-1.4l1.7,1.9
			c-0.5,0.7-1.2,1.3-2.1,1.7S1159.6,1623.6,1158.6,1623.6z M1158.2,1613.2c-0.7,0-1.2,0.2-1.6,0.7s-0.7,1.1-0.8,2h4.7v-0.3
			c0-0.8-0.2-1.3-0.6-1.7S1158.9,1613.2,1158.2,1613.2z"/>
		<path d="M1177.1,1617.2c0,2-0.4,3.5-1.3,4.7s-2.1,1.8-3.6,1.8c-1.3,0-2.3-0.4-3.1-1.3v6h-3.4v-17.6h3.1l0.1,1.2
			c0.8-1,1.9-1.5,3.2-1.5c1.6,0,2.8,0.6,3.6,1.7s1.3,2.8,1.3,4.8V1617.2z M1173.7,1616.9c0-1.2-0.2-2.1-0.6-2.7s-1-1-1.8-1
			c-1.1,0-1.8,0.4-2.2,1.2v5.2c0.4,0.8,1.2,1.3,2.2,1.3C1172.9,1620.9,1173.7,1619.6,1173.7,1616.9z"/>
		<path d="M1183.3,1607.6v3.1h2.2v2.5h-2.2v6.3c0,0.5,0.1,0.8,0.3,1s0.5,0.3,1,0.3c0.4,0,0.7,0,1-0.1v2.6c-0.7,0.2-1.3,0.3-2.1,0.3
			c-2.4,0-3.6-1.2-3.6-3.6v-6.8h-1.9v-2.5h1.9v-3.1H1183.3z"/>
		<path d="M1187.3,1607.4c0-0.5,0.2-0.9,0.5-1.3s0.8-0.5,1.4-0.5c0.6,0,1,0.2,1.4,0.5s0.5,0.7,0.5,1.3c0,0.5-0.2,0.9-0.5,1.3
			s-0.8,0.5-1.4,0.5s-1-0.2-1.4-0.5S1187.3,1607.9,1187.3,1607.4z M1190.9,1623.4h-3.4v-12.7h3.4V1623.4z"/>
		<path d="M1193.2,1616.9c0-1.3,0.2-2.4,0.7-3.4s1.2-1.7,2.1-2.3s2-0.8,3.2-0.8c1.7,0,3.1,0.5,4.2,1.6s1.7,2.5,1.8,4.3l0,0.9
			c0,1.9-0.5,3.5-1.6,4.7s-2.5,1.8-4.4,1.8s-3.3-0.6-4.4-1.8s-1.6-2.8-1.6-4.8V1616.9z M1196.6,1617.2c0,1.2,0.2,2.1,0.7,2.8
			c0.5,0.6,1.1,1,1.9,1c0.8,0,1.5-0.3,1.9-0.9c0.5-0.6,0.7-1.6,0.7-3c0-1.2-0.2-2.1-0.7-2.7s-1.1-1-1.9-1c-0.8,0-1.5,0.3-1.9,1
			S1196.6,1615.8,1196.6,1617.2z"/>
		<path d="M1210.4,1610.7l0.1,1.5c0.9-1.1,2.1-1.7,3.6-1.7c1.3,0,2.3,0.4,3,1.2s1,2,1,3.5v8.2h-3.4v-8.1c0-0.7-0.2-1.2-0.5-1.6
			s-0.8-0.5-1.6-0.5c-1,0-1.7,0.4-2.1,1.2v8.9h-3.4v-12.7H1210.4z"/>
		<path d="M1226.2,1617c0-2,0.4-3.6,1.3-4.7s2.1-1.8,3.6-1.8c1.2,0,2.3,0.5,3.1,1.4v-6.5h3.4v18h-3.1l-0.2-1.3
			c-0.8,1.1-1.9,1.6-3.3,1.6c-1.5,0-2.7-0.6-3.6-1.8S1226.2,1619.1,1226.2,1617z M1229.5,1617.2c0,1.2,0.2,2.1,0.6,2.7
			c0.4,0.6,1,1,1.8,1c1,0,1.8-0.4,2.2-1.3v-5c-0.4-0.9-1.2-1.3-2.2-1.3C1230.4,1613.2,1229.5,1614.6,1229.5,1617.2z"/>
		<path d="M1246,1623.6c-1.9,0-3.4-0.6-4.5-1.7s-1.8-2.7-1.8-4.6v-0.3c0-1.3,0.2-2.4,0.7-3.4s1.2-1.8,2.1-2.3s1.9-0.8,3.1-0.8
			c1.7,0,3.1,0.5,4.1,1.6s1.5,2.6,1.5,4.7v1.4h-8.1c0.1,0.8,0.4,1.5,1,2s1.2,0.8,2.1,0.8c1.3,0,2.3-0.5,3.1-1.4l1.7,1.9
			c-0.5,0.7-1.2,1.3-2.1,1.7S1247.1,1623.6,1246,1623.6z M1245.7,1613.2c-0.7,0-1.2,0.2-1.6,0.7s-0.7,1.1-0.8,2h4.7v-0.3
			c0-0.8-0.2-1.3-0.6-1.7S1246.4,1613.2,1245.7,1613.2z"/>
		<path d="M1263.2,1607.6v3.1h2.2v2.5h-2.2v6.3c0,0.5,0.1,0.8,0.3,1s0.5,0.3,1,0.3c0.4,0,0.7,0,1-0.1v2.6c-0.7,0.2-1.3,0.3-2.1,0.3
			c-2.4,0-3.6-1.2-3.6-3.6v-6.8h-1.9v-2.5h1.9v-3.1H1263.2z"/>
		<path d="M1274.6,1623.4c-0.2-0.3-0.3-0.7-0.3-1.1c-0.8,0.9-1.9,1.4-3.2,1.4c-1.2,0-2.3-0.4-3.1-1.1s-1.2-1.6-1.2-2.7
			c0-1.3,0.5-2.4,1.5-3.1s2.4-1.1,4.3-1.1h1.6v-0.7c0-0.6-0.2-1.1-0.5-1.4s-0.8-0.5-1.4-0.5c-0.6,0-1,0.1-1.3,0.4s-0.5,0.6-0.5,1.1
			h-3.4c0-0.7,0.2-1.4,0.7-2s1.1-1.1,1.9-1.5s1.8-0.5,2.8-0.5c1.6,0,2.8,0.4,3.7,1.2s1.4,1.9,1.4,3.3v5.5c0,1.2,0.2,2.1,0.5,2.7v0.2
			H1274.6z M1271.8,1621c0.5,0,1-0.1,1.4-0.3s0.7-0.5,0.9-0.9v-2.2h-1.3c-1.7,0-2.6,0.6-2.7,1.8l0,0.2c0,0.4,0.1,0.8,0.4,1
			S1271.3,1621,1271.8,1621z"/>
		<path d="M1297.5,1617.2c0,2-0.4,3.6-1.3,4.8s-2.1,1.7-3.6,1.7c-1.4,0-2.5-0.5-3.3-1.6l-0.2,1.3h-3v-18h3.4v6.5
			c0.8-0.9,1.8-1.4,3.1-1.4c1.5,0,2.8,0.6,3.6,1.7s1.3,2.7,1.3,4.8V1617.2z M1294.1,1616.9c0-1.3-0.2-2.2-0.6-2.8s-1-0.9-1.8-0.9
			c-1.1,0-1.8,0.4-2.2,1.3v5c0.4,0.9,1.2,1.3,2.2,1.3c1.1,0,1.8-0.5,2.2-1.6C1294.1,1618.8,1294.1,1618,1294.1,1616.9z"/>
		<path d="M1299.1,1616.9c0-1.3,0.2-2.4,0.7-3.4s1.2-1.7,2.1-2.3s2-0.8,3.2-0.8c1.7,0,3.1,0.5,4.2,1.6s1.7,2.5,1.8,4.3l0,0.9
			c0,1.9-0.5,3.5-1.6,4.7s-2.5,1.8-4.4,1.8s-3.3-0.6-4.4-1.8s-1.6-2.8-1.6-4.8V1616.9z M1302.5,1617.2c0,1.2,0.2,2.1,0.7,2.8
			c0.5,0.6,1.1,1,1.9,1c0.8,0,1.5-0.3,1.9-0.9c0.5-0.6,0.7-1.6,0.7-3c0-1.2-0.2-2.1-0.7-2.7s-1.1-1-1.9-1c-0.8,0-1.5,0.3-1.9,1
			S1302.5,1615.8,1302.5,1617.2z"/>
		<path d="M1319.7,1608.8v0.1l-2.7,0l-1.8-1.7l-1.8,1.7l-2.6,0v-0.2l3.5-3.2h2L1319.7,1608.8z M1316.8,1623.4h-3.4v-12.7h3.4V1623.4
			z"/>
		<path d="M1323.8,1607.6v3.1h2.2v2.5h-2.2v6.3c0,0.5,0.1,0.8,0.3,1s0.5,0.3,1,0.3c0.4,0,0.7,0,1-0.1v2.6c-0.7,0.2-1.3,0.3-2.1,0.3
			c-2.4,0-3.6-1.2-3.6-3.6v-6.8h-1.9v-2.5h1.9v-3.1H1323.8z"/>
		<path d="M1333.7,1623.6c-1.9,0-3.4-0.6-4.5-1.7s-1.8-2.7-1.8-4.6v-0.3c0-1.3,0.2-2.4,0.7-3.4s1.2-1.8,2.1-2.3s1.9-0.8,3.1-0.8
			c1.7,0,3.1,0.5,4.1,1.6s1.5,2.6,1.5,4.7v1.4h-8.1c0.1,0.8,0.4,1.5,1,2s1.2,0.8,2.1,0.8c1.3,0,2.3-0.5,3.1-1.4l1.7,1.9
			c-0.5,0.7-1.2,1.3-2.1,1.7S1334.8,1623.6,1333.7,1623.6z M1333.3,1613.2c-0.7,0-1.2,0.2-1.6,0.7s-0.7,1.1-0.8,2h4.7v-0.3
			c0-0.8-0.2-1.3-0.6-1.7S1334,1613.2,1333.3,1613.2z"/>
	</g>
	<g class="st1">
		<path d="M1138.1,1668.7h-6l-1.3,3.7h-1.9l5.4-14.2h1.6l5.4,14.2h-1.9L1138.1,1668.7z M1136.2,1657.2l-1.6,0l-2.5-2.9h2.2
			L1136.2,1657.2z M1132.7,1667.1h4.8l-2.4-6.7L1132.7,1667.1z"/>
		<path d="M1150.4,1659.3v2.6h2v1.4h-2v6.6c0,0.4,0.1,0.7,0.3,1s0.5,0.3,0.9,0.3c0.2,0,0.5,0,0.9-0.1v1.5c-0.5,0.1-0.9,0.2-1.4,0.2
			c-0.8,0-1.4-0.2-1.8-0.7s-0.6-1.2-0.6-2.1v-6.6h-1.9v-1.4h1.9v-2.6H1150.4z"/>
		<path d="M1153.8,1667c0-1,0.2-2,0.6-2.8s1-1.5,1.7-1.9s1.6-0.7,2.5-0.7c1.4,0,2.6,0.5,3.5,1.5s1.3,2.3,1.3,4v0.1
			c0,1-0.2,2-0.6,2.8s-1,1.5-1.7,1.9s-1.6,0.7-2.5,0.7c-1.4,0-2.6-0.5-3.5-1.5s-1.3-2.3-1.3-4V1667z M1155.7,1667.2
			c0,1.2,0.3,2.1,0.8,2.8s1.3,1.1,2.2,1.1c0.9,0,1.6-0.4,2.2-1.1s0.8-1.7,0.8-3c0-1.2-0.3-2.1-0.8-2.8s-1.3-1.1-2.2-1.1
			c-0.9,0-1.6,0.4-2.2,1.1S1155.7,1665.9,1155.7,1667.2z"/>
		<path d="M1167.4,1661.8l0.1,1.3c0.8-1,1.9-1.5,3.2-1.5c2.2,0,3.4,1.3,3.4,3.8v7h-1.8v-7c0-0.8-0.2-1.3-0.5-1.7s-0.9-0.5-1.6-0.5
			c-0.6,0-1.1,0.2-1.5,0.5s-0.8,0.7-1,1.2v7.5h-1.8v-10.6H1167.4z"/>
		<path d="M1183.4,1661.8l0,1.2c0.8-0.9,1.8-1.4,3.1-1.4c1.5,0,2.5,0.6,3,1.7c0.4-0.5,0.8-0.9,1.4-1.2s1.2-0.5,2-0.5
			c2.3,0,3.5,1.2,3.5,3.7v7.1h-1.8v-7c0-0.8-0.2-1.3-0.5-1.7c-0.3-0.4-0.9-0.6-1.7-0.6c-0.7,0-1.2,0.2-1.7,0.6s-0.7,0.9-0.8,1.6v7
			h-1.8v-6.9c0-1.5-0.8-2.3-2.3-2.3c-1.2,0-2,0.5-2.4,1.5v7.7h-1.8v-10.6H1183.4z"/>
		<path d="M1199.3,1659c0-0.3,0.1-0.5,0.3-0.7c0.2-0.2,0.4-0.3,0.8-0.3s0.6,0.1,0.8,0.3c0.2,0.2,0.3,0.4,0.3,0.7s-0.1,0.5-0.3,0.7
			c-0.2,0.2-0.4,0.3-0.8,0.3s-0.6-0.1-0.8-0.3C1199.3,1659.6,1199.3,1659.3,1199.3,1659z M1201.2,1672.4h-1.8v-10.6h1.8V1672.4z"/>
		<path d="M1208.3,1671.1c0.6,0,1.2-0.2,1.7-0.6c0.5-0.4,0.7-0.9,0.8-1.5h1.7c0,0.6-0.2,1.2-0.6,1.7c-0.4,0.5-0.9,1-1.5,1.3
			c-0.6,0.3-1.3,0.5-2,0.5c-1.4,0-2.6-0.5-3.4-1.4s-1.3-2.3-1.3-3.9v-0.3c0-1,0.2-1.9,0.6-2.7c0.4-0.8,0.9-1.4,1.6-1.9
			c0.7-0.4,1.5-0.7,2.5-0.7c1.2,0,2.2,0.4,3,1.1c0.8,0.7,1.2,1.6,1.3,2.8h-1.7c-0.1-0.7-0.3-1.2-0.8-1.7c-0.5-0.4-1-0.7-1.7-0.7
			c-0.9,0-1.6,0.3-2.1,1c-0.5,0.7-0.8,1.6-0.8,2.9v0.3c0,1.2,0.3,2.2,0.8,2.8C1206.7,1670.8,1207.4,1671.1,1208.3,1671.1z"/>
		<path d="M1219.7,1663.4c-0.3,0-0.6-0.1-0.9-0.1c-1.2,0-2,0.5-2.4,1.5v7.5h-1.8v-10.6h1.8l0,1.2c0.6-0.9,1.4-1.4,2.5-1.4
			c0.4,0,0.6,0,0.8,0.1V1663.4z"/>
		<path d="M1220.7,1667c0-1,0.2-2,0.6-2.8c0.4-0.8,1-1.5,1.7-1.9c0.7-0.4,1.6-0.7,2.5-0.7c1.4,0,2.6,0.5,3.5,1.5s1.3,2.3,1.3,4v0.1
			c0,1-0.2,2-0.6,2.8c-0.4,0.8-1,1.5-1.7,1.9s-1.6,0.7-2.5,0.7c-1.4,0-2.6-0.5-3.5-1.5s-1.3-2.3-1.3-4V1667z M1222.5,1667.2
			c0,1.2,0.3,2.1,0.8,2.8c0.5,0.7,1.3,1.1,2.2,1.1c0.9,0,1.6-0.4,2.2-1.1c0.5-0.7,0.8-1.7,0.8-3c0-1.2-0.3-2.1-0.8-2.8
			c-0.5-0.7-1.3-1.1-2.2-1.1c-0.9,0-1.6,0.4-2.2,1.1S1222.5,1665.9,1222.5,1667.2z"/>
		<path d="M1236.3,1667.1h-4.8v-1.5h4.8V1667.1z"/>
		<path d="M1237.6,1667c0-1,0.2-2,0.6-2.8c0.4-0.8,1-1.5,1.7-1.9c0.7-0.4,1.6-0.7,2.5-0.7c1.4,0,2.6,0.5,3.5,1.5s1.3,2.3,1.3,4v0.1
			c0,1-0.2,2-0.6,2.8c-0.4,0.8-1,1.5-1.7,1.9s-1.6,0.7-2.5,0.7c-1.4,0-2.6-0.5-3.5-1.5s-1.3-2.3-1.3-4V1667z M1239.4,1667.2
			c0,1.2,0.3,2.1,0.8,2.8c0.5,0.7,1.3,1.1,2.2,1.1c0.9,0,1.6-0.4,2.2-1.1c0.5-0.7,0.8-1.7,0.8-3c0-1.2-0.3-2.1-0.8-2.8
			c-0.5-0.7-1.3-1.1-2.2-1.1c-0.9,0-1.6,0.4-2.2,1.1S1239.4,1665.9,1239.4,1667.2z"/>
		<path d="M1251.2,1661.8l0.1,1.3c0.8-1,1.9-1.5,3.2-1.5c2.2,0,3.4,1.3,3.4,3.8v7h-1.8v-7c0-0.8-0.2-1.3-0.5-1.7s-0.9-0.5-1.6-0.5
			c-0.6,0-1.1,0.2-1.5,0.5c-0.4,0.3-0.8,0.7-1,1.2v7.5h-1.8v-10.6H1251.2z"/>
		<path d="M1260.1,1667c0-1.6,0.4-2.9,1.2-3.9c0.8-1,1.8-1.5,3-1.5c1.2,0,2.2,0.4,2.9,1.3v-5.5h1.8v15h-1.7l-0.1-1.1
			c-0.7,0.9-1.7,1.3-3,1.3c-1.2,0-2.2-0.5-3-1.5s-1.2-2.3-1.2-3.9V1667z M1261.9,1667.2c0,1.2,0.2,2.1,0.7,2.8c0.5,0.7,1.2,1,2.1,1
			c1.1,0,2-0.5,2.5-1.5v-4.9c-0.5-1-1.4-1.5-2.5-1.5c-0.9,0-1.6,0.3-2.1,1C1262.1,1664.9,1261.9,1665.9,1261.9,1667.2z"/>
		<path d="M1276.2,1672.6c-1.4,0-2.6-0.5-3.5-1.4s-1.3-2.2-1.3-3.8v-0.3c0-1,0.2-2,0.6-2.8s1-1.5,1.7-1.9c0.7-0.5,1.5-0.7,2.3-0.7
			c1.4,0,2.4,0.5,3.2,1.4s1.1,2.2,1.1,3.9v0.8h-7.2c0,1,0.3,1.9,0.9,2.5c0.6,0.6,1.3,1,2.2,1c0.6,0,1.2-0.1,1.6-0.4
			c0.4-0.3,0.8-0.6,1.2-1l1.1,0.9C1279.3,1671.9,1277.9,1672.6,1276.2,1672.6z M1275.9,1663.1c-0.7,0-1.3,0.3-1.8,0.8
			c-0.5,0.5-0.8,1.3-0.9,2.2h5.3v-0.1c-0.1-0.9-0.3-1.6-0.7-2.1C1277.3,1663.4,1276.7,1663.1,1275.9,1663.1z"/>
	</g>
	<g class="st1">
		<path d="M1142.2,1691c0-1,0.2-2,0.6-2.8s1-1.5,1.7-1.9s1.6-0.7,2.5-0.7c1.4,0,2.6,0.5,3.5,1.5s1.3,2.3,1.3,4v0.1
			c0,1-0.2,2-0.6,2.8s-1,1.5-1.7,1.9s-1.6,0.7-2.5,0.7c-1.4,0-2.6-0.5-3.5-1.5s-1.3-2.3-1.3-4V1691z M1144,1691.2
			c0,1.2,0.3,2.1,0.8,2.8s1.3,1.1,2.2,1.1c0.9,0,1.6-0.4,2.2-1.1s0.8-1.7,0.8-3c0-1.2-0.3-2.1-0.8-2.8s-1.3-1.1-2.2-1.1
			c-0.9,0-1.6,0.4-2.2,1.1S1144,1689.9,1144,1691.2z"/>
		<path d="M1160.6,1695.3c-0.7,0.8-1.7,1.2-3.1,1.2c-1.1,0-2-0.3-2.6-1s-0.9-1.6-0.9-2.9v-6.9h1.8v6.8c0,1.6,0.7,2.4,2,2.4
			c1.4,0,2.3-0.5,2.8-1.5v-7.7h1.8v10.6h-1.7L1160.6,1695.3z"/>
		<path d="M1170.9,1696.4v-9.2h-1.7v-1.4h1.7v-1.1c0-1.1,0.3-2,0.9-2.6s1.5-0.9,2.6-0.9c0.4,0,0.8,0.1,1.2,0.2l-0.1,1.5
			c-0.3-0.1-0.6-0.1-1-0.1c-0.6,0-1,0.2-1.4,0.5s-0.5,0.8-0.5,1.5v1.1h2.3v1.4h-2.3v9.2H1170.9z"/>
		<path d="M1176.5,1691c0-1,0.2-2,0.6-2.8s1-1.5,1.7-1.9s1.6-0.7,2.5-0.7c1.4,0,2.6,0.5,3.5,1.5s1.3,2.3,1.3,4v0.1
			c0,1-0.2,2-0.6,2.8s-1,1.5-1.7,1.9s-1.6,0.7-2.5,0.7c-1.4,0-2.6-0.5-3.5-1.5s-1.3-2.3-1.3-4V1691z M1178.3,1691.2
			c0,1.2,0.3,2.1,0.8,2.8s1.3,1.1,2.2,1.1c0.9,0,1.6-0.4,2.2-1.1s0.8-1.7,0.8-3c0-1.2-0.3-2.1-0.8-2.8s-1.3-1.1-2.2-1.1
			c-0.9,0-1.6,0.4-2.2,1.1S1178.3,1689.9,1178.3,1691.2z"/>
		<path d="M1194.9,1695.3c-0.7,0.8-1.7,1.2-3.1,1.2c-1.1,0-2-0.3-2.6-1s-0.9-1.6-0.9-2.9v-6.9h1.8v6.8c0,1.6,0.7,2.4,2,2.4
			c1.4,0,2.3-0.5,2.8-1.5v-7.7h1.8v10.6h-1.7L1194.9,1695.3z"/>
		<path d="M1204.5,1687.4c-0.3,0-0.6-0.1-0.9-0.1c-1.2,0-2,0.5-2.4,1.5v7.5h-1.8v-10.6h1.8l0,1.2c0.6-0.9,1.4-1.4,2.5-1.4
			c0.4,0,0.6,0,0.8,0.1V1687.4z"/>
		<path d="M1207.9,1685.8l0.1,1.3c0.8-1,1.9-1.5,3.2-1.5c2.2,0,3.4,1.3,3.4,3.8v7h-1.8v-7c0-0.8-0.2-1.3-0.5-1.7s-0.9-0.5-1.6-0.5
			c-0.6,0-1.1,0.2-1.5,0.5s-0.8,0.7-1,1.2v7.5h-1.8v-10.6H1207.9z"/>
		<path d="M1221.6,1696.6c-1.4,0-2.6-0.5-3.5-1.4s-1.3-2.2-1.3-3.8v-0.3c0-1,0.2-2,0.6-2.8s1-1.5,1.7-1.9s1.5-0.7,2.3-0.7
			c1.4,0,2.4,0.5,3.2,1.4s1.1,2.2,1.1,3.9v0.8h-7.2c0,1,0.3,1.9,0.9,2.5s1.3,1,2.2,1c0.6,0,1.2-0.1,1.6-0.4s0.8-0.6,1.2-1l1.1,0.9
			C1224.7,1695.9,1223.4,1696.6,1221.6,1696.6z M1221.4,1687.1c-0.7,0-1.3,0.3-1.8,0.8s-0.8,1.3-0.9,2.2h5.3v-0.1
			c-0.1-0.9-0.3-1.6-0.7-2.1S1222.1,1687.1,1221.4,1687.1z"/>
		<path d="M1234.3,1696.4c-0.1-0.2-0.2-0.6-0.3-1.1c-0.8,0.9-1.8,1.3-3,1.3c-1,0-1.9-0.3-2.6-0.9s-1-1.3-1-2.2c0-1.1,0.4-2,1.3-2.6
			s2-0.9,3.5-0.9h1.8v-0.8c0-0.6-0.2-1.1-0.6-1.5s-0.9-0.6-1.7-0.6c-0.6,0-1.2,0.2-1.6,0.5s-0.7,0.7-0.7,1.2h-1.8
			c0-0.5,0.2-1,0.6-1.5s0.9-0.9,1.5-1.2s1.3-0.4,2.1-0.4c1.2,0,2.2,0.3,2.9,0.9s1,1.4,1.1,2.5v4.9c0,1,0.1,1.7,0.4,2.3v0.2H1234.3z
			 M1231.3,1695c0.6,0,1.1-0.1,1.6-0.4s0.9-0.7,1.1-1.1v-2.2h-1.4c-2.2,0-3.3,0.6-3.3,1.9c0,0.6,0.2,1,0.6,1.3
			S1230.7,1695,1231.3,1695z"/>
		<path d="M1245.2,1695.3c-0.7,0.8-1.7,1.2-3.1,1.2c-1.1,0-2-0.3-2.6-1s-0.9-1.6-0.9-2.9v-6.9h1.8v6.8c0,1.6,0.7,2.4,2,2.4
			c1.4,0,2.3-0.5,2.8-1.5v-7.7h1.8v10.6h-1.7L1245.2,1695.3z"/>
		<path d="M1253.3,1689.7l2.3-3.9h2.1l-3.5,5.2l3.6,5.3h-2.1l-2.4-4l-2.4,4h-2.1l3.6-5.3l-3.5-5.2h2.1L1253.3,1689.7z"/>
		<path d="M1264.8,1695.5c0-0.3,0.1-0.5,0.3-0.7s0.4-0.3,0.8-0.3s0.6,0.1,0.8,0.3s0.3,0.4,0.3,0.7s-0.1,0.5-0.3,0.7
			c-0.2,0.2-0.4,0.3-0.8,0.3s-0.6-0.1-0.8-0.3C1264.9,1696,1264.8,1695.8,1264.8,1695.5z M1266.6,1692.4h-1.6l-0.1-10.2h1.9
			L1266.6,1692.4z"/>
	</g>
	<g class="st1">
		<path d="M1115.2,1714.8v5.6h-1.9v-14.2h5.2c1.6,0,2.8,0.4,3.7,1.2c0.9,0.8,1.3,1.8,1.3,3.2c0,1.4-0.4,2.4-1.3,3.2
			c-0.9,0.7-2.1,1.1-3.7,1.1H1115.2z M1115.2,1713.3h3.4c1,0,1.8-0.2,2.3-0.7c0.5-0.5,0.8-1.2,0.8-2c0-0.8-0.3-1.5-0.8-2
			c-0.5-0.5-1.3-0.8-2.2-0.8h-3.5V1713.3z"/>
		<path d="M1130.8,1711.4c-0.3,0-0.6-0.1-0.9-0.1c-1.2,0-2,0.5-2.4,1.5v7.5h-1.8v-10.6h1.8l0,1.2c0.6-0.9,1.4-1.4,2.5-1.4
			c0.4,0,0.6,0,0.8,0.1V1711.4z"/>
		<path d="M1136.7,1720.6c-1.4,0-2.6-0.5-3.5-1.4s-1.3-2.2-1.3-3.8v-0.3c0-1,0.2-2,0.6-2.8s1-1.5,1.7-1.9c0.7-0.5,1.5-0.7,2.3-0.7
			c1.4,0,2.4,0.5,3.2,1.4s1.1,2.2,1.1,3.9v0.8h-7.2c0,1,0.3,1.9,0.9,2.5c0.6,0.6,1.3,1,2.2,1c0.6,0,1.2-0.1,1.6-0.4
			c0.4-0.3,0.8-0.6,1.2-1l1.1,0.9C1139.8,1719.9,1138.4,1720.6,1136.7,1720.6z M1136.4,1711.1c-0.7,0-1.3,0.3-1.8,0.8
			c-0.5,0.5-0.8,1.3-0.9,2.2h5.3v-0.1c-0.1-0.9-0.3-1.6-0.7-2.1C1137.8,1711.4,1137.2,1711.1,1136.4,1711.1z M1137.3,1705.4h2.2
			l-2.6,2.9l-1.5,0L1137.3,1705.4z"/>
		<path d="M1151.8,1715.2c0,1.6-0.4,2.9-1.1,3.9c-0.7,1-1.7,1.5-3,1.5c-1.3,0-2.3-0.4-3-1.2v5.1h-1.8v-14.6h1.7l0.1,1.2
			c0.7-0.9,1.8-1.4,3.1-1.4c1.3,0,2.3,0.5,3,1.4c0.7,1,1.1,2.3,1.1,4V1715.2z M1150,1715c0-1.2-0.3-2.1-0.8-2.8s-1.2-1-2.1-1
			c-1.1,0-1.9,0.5-2.5,1.5v5c0.5,1,1.4,1.4,2.5,1.4c0.9,0,1.6-0.3,2.1-1C1149.7,1717.4,1150,1716.4,1150,1715z"/>
		<path d="M1160.6,1720.4c-0.1-0.2-0.2-0.6-0.3-1.1c-0.8,0.9-1.8,1.3-3,1.3c-1,0-1.9-0.3-2.6-0.9c-0.7-0.6-1-1.3-1-2.2
			c0-1.1,0.4-2,1.3-2.6c0.8-0.6,2-0.9,3.5-0.9h1.8v-0.8c0-0.6-0.2-1.1-0.6-1.5c-0.4-0.4-0.9-0.6-1.7-0.6c-0.6,0-1.2,0.2-1.6,0.5
			c-0.4,0.3-0.7,0.7-0.7,1.2h-1.8c0-0.5,0.2-1,0.6-1.5c0.4-0.5,0.9-0.9,1.5-1.2c0.6-0.3,1.3-0.4,2.1-0.4c1.2,0,2.2,0.3,2.9,0.9
			c0.7,0.6,1,1.4,1.1,2.5v4.9c0,1,0.1,1.7,0.4,2.3v0.2H1160.6z M1157.6,1719c0.6,0,1.1-0.1,1.6-0.4s0.9-0.7,1.1-1.1v-2.2h-1.4
			c-2.2,0-3.3,0.6-3.3,1.9c0,0.6,0.2,1,0.6,1.3C1156.5,1718.9,1157,1719,1157.6,1719z"/>
		<path d="M1170.1,1711.4c-0.3,0-0.6-0.1-0.9-0.1c-1.2,0-2,0.5-2.4,1.5v7.5h-1.8v-10.6h1.8l0,1.2c0.6-0.9,1.4-1.4,2.5-1.4
			c0.4,0,0.6,0,0.8,0.1V1711.4z"/>
		<path d="M1175.9,1720.6c-1.4,0-2.6-0.5-3.5-1.4s-1.3-2.2-1.3-3.8v-0.3c0-1,0.2-2,0.6-2.8s1-1.5,1.7-1.9c0.7-0.5,1.5-0.7,2.3-0.7
			c1.4,0,2.4,0.5,3.2,1.4s1.1,2.2,1.1,3.9v0.8h-7.2c0,1,0.3,1.9,0.9,2.5c0.6,0.6,1.3,1,2.2,1c0.6,0,1.2-0.1,1.6-0.4
			c0.4-0.3,0.8-0.6,1.2-1l1.1,0.9C1179,1719.9,1177.7,1720.6,1175.9,1720.6z M1175.7,1711.1c-0.7,0-1.3,0.3-1.8,0.8
			c-0.5,0.5-0.8,1.3-0.9,2.2h5.3v-0.1c-0.1-0.9-0.3-1.6-0.7-2.1C1177.1,1711.4,1176.5,1711.1,1175.7,1711.1z"/>
		<path d="M1186.6,1715c0-1,0.2-2,0.6-2.8c0.4-0.8,1-1.5,1.7-1.9c0.7-0.4,1.6-0.7,2.5-0.7c1.4,0,2.6,0.5,3.5,1.5s1.3,2.3,1.3,4v0.1
			c0,1-0.2,2-0.6,2.8c-0.4,0.8-1,1.5-1.7,1.9s-1.6,0.7-2.5,0.7c-1.4,0-2.6-0.5-3.5-1.5s-1.3-2.3-1.3-4V1715z M1188.4,1715.2
			c0,1.2,0.3,2.1,0.8,2.8c0.5,0.7,1.3,1.1,2.2,1.1c0.9,0,1.6-0.4,2.2-1.1c0.5-0.7,0.8-1.7,0.8-3c0-1.2-0.3-2.1-0.8-2.8
			c-0.5-0.7-1.3-1.1-2.2-1.1c-0.9,0-1.6,0.4-2.2,1.1S1188.4,1713.9,1188.4,1715.2z"/>
		<path d="M1205,1719.3c-0.7,0.8-1.7,1.2-3.1,1.2c-1.1,0-2-0.3-2.6-1c-0.6-0.7-0.9-1.6-0.9-2.9v-6.9h1.8v6.8c0,1.6,0.7,2.4,2,2.4
			c1.4,0,2.3-0.5,2.8-1.5v-7.7h1.8v10.6h-1.7L1205,1719.3z"/>
		<path d="M1219.6,1711.4c-0.3,0-0.6-0.1-0.9-0.1c-1.2,0-2,0.5-2.4,1.5v7.5h-1.8v-10.6h1.8l0,1.2c0.6-0.9,1.4-1.4,2.5-1.4
			c0.4,0,0.6,0,0.8,0.1V1711.4z"/>
		<path d="M1225.4,1720.6c-1.4,0-2.6-0.5-3.5-1.4s-1.3-2.2-1.3-3.8v-0.3c0-1,0.2-2,0.6-2.8s1-1.5,1.7-1.9c0.7-0.5,1.5-0.7,2.3-0.7
			c1.4,0,2.4,0.5,3.2,1.4s1.1,2.2,1.1,3.9v0.8h-7.2c0,1,0.3,1.9,0.9,2.5c0.6,0.6,1.3,1,2.2,1c0.6,0,1.2-0.1,1.6-0.4
			c0.4-0.3,0.8-0.6,1.2-1l1.1,0.9C1228.5,1719.9,1227.2,1720.6,1225.4,1720.6z M1225.2,1711.1c-0.7,0-1.3,0.3-1.8,0.8
			c-0.5,0.5-0.8,1.3-0.9,2.2h5.3v-0.1c-0.1-0.9-0.3-1.6-0.7-2.1C1226.6,1711.4,1226,1711.1,1225.2,1711.1z M1226.1,1705.4h2.2
			l-2.6,2.9l-1.5,0L1226.1,1705.4z"/>
		<path d="M1235.9,1719.1c0.6,0,1.2-0.2,1.7-0.6c0.5-0.4,0.7-0.9,0.8-1.5h1.7c0,0.6-0.2,1.2-0.6,1.7c-0.4,0.5-0.9,1-1.5,1.3
			c-0.6,0.3-1.3,0.5-2,0.5c-1.4,0-2.6-0.5-3.4-1.4s-1.3-2.3-1.3-3.9v-0.3c0-1,0.2-1.9,0.6-2.7c0.4-0.8,0.9-1.4,1.6-1.9
			c0.7-0.4,1.5-0.7,2.5-0.7c1.2,0,2.2,0.4,3,1.1c0.8,0.7,1.2,1.6,1.3,2.8h-1.7c-0.1-0.7-0.3-1.2-0.8-1.7c-0.5-0.4-1-0.7-1.7-0.7
			c-0.9,0-1.6,0.3-2.1,1c-0.5,0.7-0.8,1.6-0.8,2.9v0.3c0,1.2,0.3,2.2,0.8,2.8C1234.2,1718.8,1235,1719.1,1235.9,1719.1z"/>
		<path d="M1243.9,1711.1c0.8-1,1.8-1.5,3.1-1.5c2.2,0,3.4,1.3,3.4,3.8v7h-1.8v-7c0-0.8-0.2-1.3-0.5-1.7s-0.9-0.5-1.6-0.5
			c-0.6,0-1.1,0.2-1.5,0.5c-0.4,0.3-0.8,0.7-1,1.2v7.5h-1.8v-15h1.8V1711.1z"/>
		<path d="M1259.7,1720.4c-0.1-0.2-0.2-0.6-0.3-1.1c-0.8,0.9-1.8,1.3-3,1.3c-1,0-1.9-0.3-2.6-0.9c-0.7-0.6-1-1.3-1-2.2
			c0-1.1,0.4-2,1.3-2.6c0.8-0.6,2-0.9,3.5-0.9h1.8v-0.8c0-0.6-0.2-1.1-0.6-1.5c-0.4-0.4-0.9-0.6-1.7-0.6c-0.6,0-1.2,0.2-1.6,0.5
			c-0.4,0.3-0.7,0.7-0.7,1.2h-1.8c0-0.5,0.2-1,0.6-1.5c0.4-0.5,0.9-0.9,1.5-1.2c0.6-0.3,1.3-0.4,2.1-0.4c1.2,0,2.2,0.3,2.9,0.9
			c0.7,0.6,1,1.4,1.1,2.5v4.9c0,1,0.1,1.7,0.4,2.3v0.2H1259.7z M1256.7,1719c0.6,0,1.1-0.1,1.6-0.4s0.9-0.7,1.1-1.1v-2.2h-1.4
			c-2.2,0-3.3,0.6-3.3,1.9c0,0.6,0.2,1,0.6,1.3C1255.6,1718.9,1256.1,1719,1256.7,1719z"/>
		<path d="M1270.5,1719.3c-0.7,0.8-1.7,1.2-3.1,1.2c-1.1,0-2-0.3-2.6-1c-0.6-0.7-0.9-1.6-0.9-2.9v-6.9h1.8v6.8c0,1.6,0.7,2.4,2,2.4
			c1.4,0,2.3-0.5,2.8-1.5v-7.7h1.8v10.6h-1.7L1270.5,1719.3z"/>
		<path d="M1275.9,1720.4v-9.2h-1.7v-1.4h1.7v-1.1c0-1.1,0.3-2,0.9-2.6s1.5-0.9,2.6-0.9c0.4,0,0.8,0.1,1.2,0.2l-0.1,1.5
			c-0.3-0.1-0.6-0.1-1-0.1c-0.6,0-1,0.2-1.4,0.5c-0.3,0.3-0.5,0.8-0.5,1.5v1.1h2.3v1.4h-2.3v9.2H1275.9z"/>
		<path d="M1282.9,1720.4v-9.2h-1.7v-1.4h1.7v-1.1c0-1.1,0.3-2,0.9-2.6s1.5-0.9,2.6-0.9c0.4,0,0.8,0.1,1.2,0.2l-0.1,1.5
			c-0.3-0.1-0.6-0.1-1-0.1c-0.6,0-1,0.2-1.4,0.5c-0.3,0.3-0.5,0.8-0.5,1.5v1.1h2.3v1.4h-2.3v9.2H1282.9z"/>
		<path d="M1293.1,1720.6c-1.4,0-2.6-0.5-3.5-1.4s-1.3-2.2-1.3-3.8v-0.3c0-1,0.2-2,0.6-2.8s1-1.5,1.7-1.9c0.7-0.5,1.5-0.7,2.3-0.7
			c1.4,0,2.4,0.5,3.2,1.4s1.1,2.2,1.1,3.9v0.8h-7.2c0,1,0.3,1.9,0.9,2.5c0.6,0.6,1.3,1,2.2,1c0.6,0,1.2-0.1,1.6-0.4
			c0.4-0.3,0.8-0.6,1.2-1l1.1,0.9C1296.2,1719.9,1294.9,1720.6,1293.1,1720.6z M1292.9,1711.1c-0.7,0-1.3,0.3-1.8,0.8
			c-0.5,0.5-0.8,1.3-0.9,2.2h5.3v-0.1c-0.1-0.9-0.3-1.6-0.7-2.1C1294.2,1711.4,1293.6,1711.1,1292.9,1711.1z"/>
	</g>
	<g class="st1">
		<path d="M1094.4,1731.3v2.6h2v1.4h-2v6.6c0,0.4,0.1,0.7,0.3,1s0.5,0.3,0.9,0.3c0.2,0,0.5,0,0.9-0.1v1.5c-0.5,0.1-0.9,0.2-1.4,0.2
			c-0.8,0-1.4-0.2-1.8-0.7s-0.6-1.2-0.6-2.1v-6.6h-1.9v-1.4h1.9v-2.6H1094.4z"/>
		<path d="M1097.8,1739c0-1,0.2-2,0.6-2.8s1-1.5,1.7-1.9s1.6-0.7,2.5-0.7c1.4,0,2.6,0.5,3.5,1.5s1.3,2.3,1.3,4v0.1
			c0,1-0.2,2-0.6,2.8s-1,1.5-1.7,1.9s-1.6,0.7-2.5,0.7c-1.4,0-2.6-0.5-3.5-1.5s-1.3-2.3-1.3-4V1739z M1099.6,1739.2
			c0,1.2,0.3,2.1,0.8,2.8s1.3,1.1,2.2,1.1c0.9,0,1.6-0.4,2.2-1.1s0.8-1.7,0.8-3c0-1.2-0.3-2.1-0.8-2.8s-1.3-1.1-2.2-1.1
			c-0.9,0-1.6,0.4-2.2,1.1S1099.6,1737.9,1099.6,1739.2z"/>
		<path d="M1111.4,1733.8l0.1,1.3c0.8-1,1.9-1.5,3.2-1.5c2.2,0,3.4,1.3,3.4,3.8v7h-1.8v-7c0-0.8-0.2-1.3-0.5-1.7s-0.9-0.5-1.6-0.5
			c-0.6,0-1.1,0.2-1.5,0.5s-0.8,0.7-1,1.2v7.5h-1.8v-10.6H1111.4z"/>
		<path d="M1130.8,1735.4c-0.3,0-0.6-0.1-0.9-0.1c-1.2,0-2,0.5-2.4,1.5v7.5h-1.8v-10.6h1.8l0,1.2c0.6-0.9,1.4-1.4,2.5-1.4
			c0.4,0,0.6,0,0.8,0.1V1735.4z"/>
		<path d="M1136.6,1744.6c-1.4,0-2.6-0.5-3.5-1.4s-1.3-2.2-1.3-3.8v-0.3c0-1,0.2-2,0.6-2.8s1-1.5,1.7-1.9s1.5-0.7,2.3-0.7
			c1.4,0,2.4,0.5,3.2,1.4s1.1,2.2,1.1,3.9v0.8h-7.2c0,1,0.3,1.9,0.9,2.5s1.3,1,2.2,1c0.6,0,1.2-0.1,1.6-0.4s0.8-0.6,1.2-1l1.1,0.9
			C1139.7,1743.9,1138.4,1744.6,1136.6,1744.6z M1136.4,1735.1c-0.7,0-1.3,0.3-1.8,0.8s-0.8,1.3-0.9,2.2h5.3v-0.1
			c-0.1-0.9-0.3-1.6-0.7-2.1S1137.1,1735.1,1136.4,1735.1z"/>
		<path d="M1151.8,1739.2c0,1.6-0.4,2.9-1.1,3.9s-1.7,1.5-3,1.5c-1.3,0-2.3-0.4-3-1.2v5.1h-1.8v-14.6h1.7l0.1,1.2
			c0.7-0.9,1.8-1.4,3.1-1.4c1.3,0,2.3,0.5,3,1.4s1.1,2.3,1.1,4V1739.2z M1149.9,1739c0-1.2-0.3-2.1-0.8-2.8s-1.2-1-2.1-1
			c-1.1,0-1.9,0.5-2.5,1.5v5c0.5,1,1.4,1.4,2.5,1.4c0.9,0,1.6-0.3,2.1-1S1149.9,1740.4,1149.9,1739z"/>
		<path d="M1160.6,1744.4c-0.1-0.2-0.2-0.6-0.3-1.1c-0.8,0.9-1.8,1.3-3,1.3c-1,0-1.9-0.3-2.6-0.9s-1-1.3-1-2.2c0-1.1,0.4-2,1.3-2.6
			s2-0.9,3.5-0.9h1.8v-0.8c0-0.6-0.2-1.1-0.6-1.5s-0.9-0.6-1.7-0.6c-0.6,0-1.2,0.2-1.6,0.5s-0.7,0.7-0.7,1.2h-1.8
			c0-0.5,0.2-1,0.6-1.5s0.9-0.9,1.5-1.2s1.3-0.4,2.1-0.4c1.2,0,2.2,0.3,2.9,0.9s1,1.4,1.1,2.5v4.9c0,1,0.1,1.7,0.4,2.3v0.2H1160.6z
			 M1157.6,1743c0.6,0,1.1-0.1,1.6-0.4s0.9-0.7,1.1-1.1v-2.2h-1.4c-2.2,0-3.3,0.6-3.3,1.9c0,0.6,0.2,1,0.6,1.3
			S1157,1743,1157.6,1743z"/>
		<path d="M1171.1,1741.6c0-0.5-0.2-0.9-0.6-1.1s-1-0.5-1.9-0.7s-1.6-0.4-2.2-0.7s-0.9-0.6-1.2-1s-0.4-0.8-0.4-1.3
			c0-0.9,0.4-1.6,1.1-2.2s1.7-0.9,2.8-0.9c1.2,0,2.2,0.3,2.9,0.9s1.1,1.4,1.1,2.4h-1.8c0-0.5-0.2-0.9-0.6-1.3s-0.9-0.5-1.6-0.5
			c-0.7,0-1.2,0.1-1.5,0.4s-0.6,0.7-0.6,1.1c0,0.4,0.2,0.8,0.5,1s1,0.4,1.9,0.6s1.6,0.4,2.2,0.7s1,0.6,1.2,1s0.4,0.9,0.4,1.4
			c0,0.9-0.4,1.7-1.1,2.3s-1.7,0.9-2.9,0.9c-0.8,0-1.6-0.1-2.2-0.4s-1.2-0.7-1.5-1.3s-0.6-1.1-0.6-1.7h1.8c0,0.6,0.3,1.1,0.7,1.4
			s1,0.5,1.8,0.5c0.7,0,1.2-0.1,1.6-0.4S1171.1,1742.1,1171.1,1741.6z"/>
		<path d="M1184.6,1744.6c-1.4,0-2.6-0.5-3.5-1.4s-1.3-2.2-1.3-3.8v-0.3c0-1,0.2-2,0.6-2.8s1-1.5,1.7-1.9s1.5-0.7,2.3-0.7
			c1.4,0,2.4,0.5,3.2,1.4s1.1,2.2,1.1,3.9v0.8h-7.2c0,1,0.3,1.9,0.9,2.5s1.3,1,2.2,1c0.6,0,1.2-0.1,1.6-0.4s0.8-0.6,1.2-1l1.1,0.9
			C1187.7,1743.9,1186.3,1744.6,1184.6,1744.6z M1184.3,1735.1c-0.7,0-1.3,0.3-1.8,0.8s-0.8,1.3-0.9,2.2h5.3v-0.1
			c-0.1-0.9-0.3-1.6-0.7-2.1S1185.1,1735.1,1184.3,1735.1z"/>
		<path d="M1193.2,1731.3v2.6h2v1.4h-2v6.6c0,0.4,0.1,0.7,0.3,1s0.5,0.3,0.9,0.3c0.2,0,0.5,0,0.9-0.1v1.5c-0.5,0.1-0.9,0.2-1.4,0.2
			c-0.8,0-1.4-0.2-1.8-0.7s-0.6-1.2-0.6-2.1v-6.6h-1.9v-1.4h1.9v-2.6H1193.2z"/>
		<path d="M1211.2,1739.2c0,1.6-0.4,2.9-1.1,3.9c-0.7,1-1.7,1.5-3,1.5c-1.3,0-2.3-0.4-3-1.2v5.1h-1.8v-14.6h1.7l0.1,1.2
			c0.7-0.9,1.8-1.4,3.1-1.4c1.3,0,2.3,0.5,3,1.4c0.7,1,1.1,2.3,1.1,4V1739.2z M1209.4,1739c0-1.2-0.3-2.1-0.8-2.8s-1.2-1-2.1-1
			c-1.1,0-1.9,0.5-2.5,1.5v5c0.5,1,1.4,1.4,2.5,1.4c0.9,0,1.6-0.3,2.1-1C1209.1,1741.4,1209.4,1740.4,1209.4,1739z"/>
		<path d="M1220,1744.4c-0.1-0.2-0.2-0.6-0.3-1.1c-0.8,0.9-1.8,1.3-3,1.3c-1,0-1.9-0.3-2.6-0.9c-0.7-0.6-1-1.3-1-2.2
			c0-1.1,0.4-2,1.3-2.6c0.8-0.6,2-0.9,3.5-0.9h1.8v-0.8c0-0.6-0.2-1.1-0.6-1.5c-0.4-0.4-0.9-0.6-1.7-0.6c-0.6,0-1.2,0.2-1.6,0.5
			c-0.4,0.3-0.7,0.7-0.7,1.2h-1.8c0-0.5,0.2-1,0.6-1.5c0.4-0.5,0.9-0.9,1.5-1.2c0.6-0.3,1.3-0.4,2.1-0.4c1.2,0,2.2,0.3,2.9,0.9
			c0.7,0.6,1,1.4,1.1,2.5v4.9c0,1,0.1,1.7,0.4,2.3v0.2H1220z M1217,1743c0.6,0,1.1-0.1,1.6-0.4s0.9-0.7,1.1-1.1v-2.2h-1.4
			c-2.2,0-3.3,0.6-3.3,1.9c0,0.6,0.2,1,0.6,1.3C1215.9,1742.9,1216.4,1743,1217,1743z"/>
		<path d="M1230.5,1741.6c0-0.5-0.2-0.9-0.6-1.1c-0.4-0.3-1-0.5-1.9-0.7c-0.9-0.2-1.6-0.4-2.2-0.7s-0.9-0.6-1.2-1
			c-0.3-0.4-0.4-0.8-0.4-1.3c0-0.9,0.4-1.6,1.1-2.2s1.7-0.9,2.8-0.9c1.2,0,2.2,0.3,2.9,0.9c0.7,0.6,1.1,1.4,1.1,2.4h-1.8
			c0-0.5-0.2-0.9-0.6-1.3s-0.9-0.5-1.6-0.5c-0.7,0-1.2,0.1-1.5,0.4s-0.6,0.7-0.6,1.1c0,0.4,0.2,0.8,0.5,1c0.3,0.2,1,0.4,1.9,0.6
			c0.9,0.2,1.6,0.4,2.2,0.7c0.6,0.3,1,0.6,1.2,1c0.3,0.4,0.4,0.9,0.4,1.4c0,0.9-0.4,1.7-1.1,2.3c-0.8,0.6-1.7,0.9-2.9,0.9
			c-0.8,0-1.6-0.1-2.2-0.4c-0.7-0.3-1.2-0.7-1.5-1.3c-0.4-0.5-0.6-1.1-0.6-1.7h1.8c0,0.6,0.3,1.1,0.7,1.4c0.5,0.4,1,0.5,1.8,0.5
			c0.7,0,1.2-0.1,1.6-0.4C1230.3,1742.4,1230.5,1742.1,1230.5,1741.6z"/>
		<path d="M1240.8,1741.6c0-0.5-0.2-0.9-0.6-1.1c-0.4-0.3-1-0.5-1.9-0.7c-0.9-0.2-1.6-0.4-2.2-0.7s-0.9-0.6-1.2-1
			c-0.3-0.4-0.4-0.8-0.4-1.3c0-0.9,0.4-1.6,1.1-2.2s1.7-0.9,2.8-0.9c1.2,0,2.2,0.3,2.9,0.9c0.7,0.6,1.1,1.4,1.1,2.4h-1.8
			c0-0.5-0.2-0.9-0.6-1.3s-0.9-0.5-1.6-0.5c-0.7,0-1.2,0.1-1.5,0.4s-0.6,0.7-0.6,1.1c0,0.4,0.2,0.8,0.5,1c0.3,0.2,1,0.4,1.9,0.6
			c0.9,0.2,1.6,0.4,2.2,0.7c0.6,0.3,1,0.6,1.2,1c0.3,0.4,0.4,0.9,0.4,1.4c0,0.9-0.4,1.7-1.1,2.3c-0.8,0.6-1.7,0.9-2.9,0.9
			c-0.8,0-1.6-0.1-2.2-0.4c-0.7-0.3-1.2-0.7-1.5-1.3c-0.4-0.5-0.6-1.1-0.6-1.7h1.8c0,0.6,0.3,1.1,0.7,1.4c0.5,0.4,1,0.5,1.8,0.5
			c0.7,0,1.2-0.1,1.6-0.4C1240.6,1742.4,1240.8,1742.1,1240.8,1741.6z"/>
		<path d="M1249.4,1744.6c-1.4,0-2.6-0.5-3.5-1.4s-1.3-2.2-1.3-3.8v-0.3c0-1,0.2-2,0.6-2.8s1-1.5,1.7-1.9c0.7-0.5,1.5-0.7,2.3-0.7
			c1.4,0,2.4,0.5,3.2,1.4s1.1,2.2,1.1,3.9v0.8h-7.2c0,1,0.3,1.9,0.9,2.5c0.6,0.6,1.3,1,2.2,1c0.6,0,1.2-0.1,1.6-0.4
			c0.4-0.3,0.8-0.6,1.2-1l1.1,0.9C1252.5,1743.9,1251.1,1744.6,1249.4,1744.6z M1249.2,1735.1c-0.7,0-1.3,0.3-1.8,0.8
			c-0.5,0.5-0.8,1.3-0.9,2.2h5.3v-0.1c-0.1-0.9-0.3-1.6-0.7-2.1C1250.5,1735.4,1249.9,1735.1,1249.2,1735.1z"/>
		<path d="M1267.1,1744.4c-0.1-0.2-0.2-0.6-0.3-1.1c-0.8,0.9-1.8,1.3-3,1.3c-1,0-1.9-0.3-2.6-0.9c-0.7-0.6-1-1.3-1-2.2
			c0-1.1,0.4-2,1.3-2.6c0.8-0.6,2-0.9,3.5-0.9h1.8v-0.8c0-0.6-0.2-1.1-0.6-1.5c-0.4-0.4-0.9-0.6-1.7-0.6c-0.6,0-1.2,0.2-1.6,0.5
			c-0.4,0.3-0.7,0.7-0.7,1.2h-1.8c0-0.5,0.2-1,0.6-1.5c0.4-0.5,0.9-0.9,1.5-1.2c0.6-0.3,1.3-0.4,2.1-0.4c1.2,0,2.2,0.3,2.9,0.9
			c0.7,0.6,1,1.4,1.1,2.5v4.9c0,1,0.1,1.7,0.4,2.3v0.2H1267.1z M1265.9,1732.3l-1.6,0l-2.5-2.9h2.2L1265.9,1732.3z M1264.1,1743
			c0.6,0,1.1-0.1,1.6-0.4s0.9-0.7,1.1-1.1v-2.2h-1.4c-2.2,0-3.3,0.6-3.3,1.9c0,0.6,0.2,1,0.6,1.3
			C1263,1742.9,1263.5,1743,1264.1,1743z"/>
		<path d="M1278.8,1731.3v2.6h2v1.4h-2v6.6c0,0.4,0.1,0.7,0.3,1s0.5,0.3,0.9,0.3c0.2,0,0.5,0,0.9-0.1v1.5c-0.5,0.1-0.9,0.2-1.4,0.2
			c-0.8,0-1.4-0.2-1.8-0.7s-0.6-1.2-0.6-2.1v-6.6h-1.9v-1.4h1.9v-2.6H1278.8z"/>
		<path d="M1289.4,1744.4c-0.1-0.2-0.2-0.6-0.3-1.1c-0.8,0.9-1.8,1.3-3,1.3c-1,0-1.9-0.3-2.6-0.9c-0.7-0.6-1-1.3-1-2.2
			c0-1.1,0.4-2,1.3-2.6c0.8-0.6,2-0.9,3.5-0.9h1.8v-0.8c0-0.6-0.2-1.1-0.6-1.5c-0.4-0.4-0.9-0.6-1.7-0.6c-0.6,0-1.2,0.2-1.6,0.5
			c-0.4,0.3-0.7,0.7-0.7,1.2h-1.8c0-0.5,0.2-1,0.6-1.5c0.4-0.5,0.9-0.9,1.5-1.2c0.6-0.3,1.3-0.4,2.1-0.4c1.2,0,2.2,0.3,2.9,0.9
			c0.7,0.6,1,1.4,1.1,2.5v4.9c0,1,0.1,1.7,0.4,2.3v0.2H1289.4z M1286.4,1743c0.6,0,1.1-0.1,1.6-0.4s0.9-0.7,1.1-1.1v-2.2h-1.4
			c-2.2,0-3.3,0.6-3.3,1.9c0,0.6,0.2,1,0.6,1.3C1285.4,1742.9,1285.8,1743,1286.4,1743z"/>
		<path d="M1302.7,1739.2c0,1.6-0.4,2.9-1.1,3.9s-1.7,1.5-3,1.5c-1.3,0-2.4-0.5-3.1-1.4l-0.1,1.2h-1.7v-15h1.8v5.6
			c0.7-0.9,1.7-1.4,3-1.4c1.3,0,2.3,0.5,3,1.5s1.1,2.3,1.1,4V1739.2z M1300.9,1739c0-1.2-0.2-2.2-0.7-2.9c-0.5-0.7-1.2-1-2.1-1
			c-1.2,0-2,0.6-2.6,1.7v4.6c0.6,1.1,1.4,1.7,2.6,1.7c0.9,0,1.5-0.3,2-1C1300.7,1741.4,1300.9,1740.4,1300.9,1739z"/>
		<path d="M1307,1744.4h-1.8v-15h1.8V1744.4z"/>
		<path d="M1314.2,1744.6c-1.4,0-2.6-0.5-3.5-1.4s-1.3-2.2-1.3-3.8v-0.3c0-1,0.2-2,0.6-2.8s1-1.5,1.7-1.9c0.7-0.5,1.5-0.7,2.3-0.7
			c1.4,0,2.4,0.5,3.2,1.4s1.1,2.2,1.1,3.9v0.8h-7.2c0,1,0.3,1.9,0.9,2.5c0.6,0.6,1.3,1,2.2,1c0.6,0,1.2-0.1,1.6-0.4
			c0.4-0.3,0.8-0.6,1.2-1l1.1,0.9C1317.3,1743.9,1316,1744.6,1314.2,1744.6z M1314,1735.1c-0.7,0-1.3,0.3-1.8,0.8
			c-0.5,0.5-0.8,1.3-0.9,2.2h5.3v-0.1c-0.1-0.9-0.3-1.6-0.7-2.1C1315.4,1735.4,1314.8,1735.1,1314,1735.1z"/>
	</g>
</g>
</svg>
