<?xml version="1.0" encoding="utf-8"?>
<!-- Generator: Adobe Illustrator 25.4.1, SVG Export Plug-In . SVG Version: 6.00 Build 0)  -->
<svg version="1.1" id="Calque_1" xmlns="http://www.w3.org/2000/svg" xmlns:xlink="http://www.w3.org/1999/xlink" x="0px" y="0px"
	 viewBox="0 0 385 437" style="enable-background:new 0 0 385 437;" xml:space="preserve">
<style type="text/css">
	.st0{fill:#F8C618;}
	.st1{fill:none;}
	.st2{fill:none;stroke:#000000;stroke-width:2;}
	.st3{enable-background:new    ;}
	.st4{fill:none;stroke:#1D1D1B;stroke-width:4;stroke-miterlimit:10;}
</style>
<g id="_3" transform="translate(-1000 -1368)">
	<circle id="Ellipse_114" class="st0" cx="1205" cy="1513" r="57"/>
	<g id="Rectangle_3" transform="translate(1025 1484)">
		<path class="st1" d="M80-69h200c44.2,0,80,35.8,80,80v230c0,44.2-35.8,80-80,80H80c-44.2,0-80-35.8-80-80V11C0-33.2,35.8-69,80-69
			z"/>
		<path class="st2" d="M80-68h200c43.6,0,79,35.4,79,79v230c0,43.6-35.4,79-79,79H80c-43.6,0-79-35.4-79-79V11C1-32.7,36.4-68,80-68
			z"/>
	</g>
	<g class="st3">
		<path class="st0" d="M1028.9,1435.6h1.7c0.2,0.1,0.7,0.1,1.6,0.1c1.2,7.4,4.2,13.2,9.2,17.5c4.9,4.2,10.6,6.3,17,6.3
			c5.1,0,7.6-1,7.6-2.9c0-0.9-0.2-1.6-0.5-2.1c-1.6,0.3-3.7,0.5-6.3,0.5c-6.2,0-11.4-2-15.6-5.9c-4.2-3.9-6.3-9.1-6.3-15.6
			c0-6.5,2-11.7,6.1-15.6c4.1-3.9,9.4-5.8,16-5.8h1.8c0.5,0,1.2,0.1,2.1,0.2c0.2-0.4,0.3-0.8,0.3-1.3c0-2.1-1.7-3.1-5.2-3.1
			c-5.7,0-11,1.7-15.8,5s-8.1,8.2-9.8,14.6c-9.8,0-17.3-2.3-22.6-6.9c-4.5-3.9-6.7-9-6.7-15.3c0-10.6,4.8-19.4,14.5-26.3
			c9.7-6.9,22.3-10.4,37.8-10.4s28.3,3.9,38.4,11.6c10,7.7,15,17.8,15,30.1c0,8.1-2.9,14.8-8.8,20.1c-2.9-1.4-5.4-2.1-7.5-2.1
			s-3.2,0.9-3.2,2.6c0,0.8,0.2,1.3,0.6,1.7c5.1,0,9.8,1.9,14.1,5.7c5.3,4.7,7.9,11.4,7.9,20c0,13.2-5.6,23.5-16.7,31.1
			c-10.2,6.9-23.2,10.4-39,10.4c-15.8,0-28.8-3.5-39-10.6c-10.2-7.1-15.3-16.5-15.3-28.3c0-7.2,2.3-13.2,7-18
			C1013.8,1438,1020.4,1435.6,1028.9,1435.6z"/>
	</g>
	<g id="Groupe_17" transform="translate(3787.205 -2251.954)">
		<path id="Tracé_60" class="st4" d="M-2516,3792.4c10.4,2,18.4,4.7,18.4,7.4c0,6.6-37.9,12-84.6,12s-84.6-5.4-84.6-12
			c0-2.6,6.7-5.4,16.7-7.4"/>
		<path id="Tracé_61" class="st4" d="M-2598.2,3788c5.6-0.2,10.1-0.2,16-0.2c5.8,0,11.5,0.1,17,0.2"/>
		<path id="Tracé_62" class="st4" d="M-2535.7,3811c0,4.9-20.8,8.9-46.5,8.9s-46.5-4-46.5-8.9"/>
		<path id="Tracé_63" class="st4" d="M-2642.9,3799.8c-4.1-5.6-11-6.5-6.3-14.3s11.6-7.2,16.4-5.7s6.6-1.3,11.9-2.8
			s17.3,1.9,17.3,4.7s12,12,15.7,11s12.6,2.5,11,7.1s-8.8,6.8-15.7,6.1s-19.8-3.1-23.6-3.1S-2640.4,3803.2-2642.9,3799.8z"/>
		<path id="Tracé_64" class="st4" d="M-2571.5,3799.2c2.4,0.3,14,5.8,16.8,5.5s42.9-5.7,42.9-6.8s-11-12.9-16.5-15.3
			s-31-2.2-34.9,1.6S-2571.5,3799.2-2571.5,3799.2z"/>
		<path id="Tracé_65" class="st4" d="M-2605.1,3757.9c-3.8-6.5,1.9-12,3.6-24.1s-1.5-19.4-1.5-21.3"/>
		<path id="Tracé_66" class="st4" d="M-2589,3721.3c-1.9,7,7.5,18.9,5.6,30.7s-8,15.2-8.6,20.7"/>
		<path id="Tracé_67" class="st4" d="M-2555.7,3771.8c2.9-8.7-7.3-15-6.9-29s5.9-12,2.7-34.8"/>
	</g>
	<g class="st3">
		<path d="M1081.2,1619.5h-6.2l-1.2,3.5h-3.7l6.4-17.1h3.3l6.4,17.1h-3.7L1081.2,1619.5z M1079.8,1605h-2.8l-3.2-3.6h3.7
			L1079.8,1605z M1076,1616.6h4.3l-2.1-6.4L1076,1616.6z"/>
		<path d="M1097,1623h-3.4v-18h3.4V1623z"/>
		<path d="M1107.2,1623c-0.2-0.3-0.3-0.7-0.3-1.1c-0.8,0.9-1.9,1.4-3.2,1.4c-1.2,0-2.3-0.4-3.1-1.1s-1.2-1.6-1.2-2.7
			c0-1.3,0.5-2.4,1.5-3.1s2.4-1.1,4.3-1.1h1.6v-0.7c0-0.6-0.2-1.1-0.5-1.4s-0.8-0.5-1.4-0.5c-0.6,0-1,0.1-1.3,0.4s-0.5,0.6-0.5,1.1
			h-3.4c0-0.7,0.2-1.4,0.7-2s1.1-1.1,1.9-1.5s1.8-0.5,2.8-0.5c1.6,0,2.8,0.4,3.7,1.2s1.4,1.9,1.4,3.3v5.5c0,1.2,0.2,2.1,0.5,2.7v0.2
			H1107.2z M1104.4,1620.6c0.5,0,1-0.1,1.4-0.3s0.7-0.5,0.9-0.9v-2.2h-1.3c-1.7,0-2.6,0.6-2.7,1.8l0,0.2c0,0.4,0.1,0.8,0.4,1
			S1103.9,1620.6,1104.4,1620.6z"/>
		<path d="M1125.8,1613.5c-0.5-0.1-0.9-0.1-1.2-0.1c-1.3,0-2.1,0.4-2.5,1.3v8.3h-3.4v-12.7h3.2l0.1,1.5c0.7-1.2,1.6-1.7,2.8-1.7
			c0.4,0,0.7,0.1,1.1,0.2L1125.8,1613.5z"/>
		<path d="M1133,1623.2c-1.9,0-3.4-0.6-4.5-1.7s-1.8-2.7-1.8-4.6v-0.3c0-1.3,0.2-2.4,0.7-3.4s1.2-1.8,2.1-2.3s1.9-0.8,3.1-0.8
			c1.7,0,3.1,0.5,4.1,1.6s1.5,2.6,1.5,4.7v1.4h-8.1c0.1,0.8,0.4,1.5,1,2s1.2,0.8,2.1,0.8c1.3,0,2.3-0.5,3.1-1.4l1.7,1.9
			c-0.5,0.7-1.2,1.3-2.1,1.7S1134.1,1623.2,1133,1623.2z M1132.6,1612.8c-0.7,0-1.2,0.2-1.6,0.7s-0.7,1.1-0.8,2h4.7v-0.3
			c0-0.8-0.2-1.3-0.6-1.7S1133.4,1612.8,1132.6,1612.8z M1133,1605h3.7l-3.2,3.6h-2.8L1133,1605z"/>
		<path d="M1145.4,1620.5c0.6,0,1.1-0.2,1.5-0.5s0.6-0.8,0.6-1.4h3.2c0,0.9-0.2,1.6-0.7,2.4s-1.1,1.3-1.9,1.7s-1.7,0.6-2.7,0.6
			c-1.8,0-3.2-0.6-4.3-1.7s-1.6-2.7-1.6-4.8v-0.2c0-2,0.5-3.5,1.6-4.7s2.5-1.7,4.3-1.7c1.6,0,2.9,0.5,3.8,1.4s1.4,2.1,1.5,3.6h-3.2
			c0-0.7-0.2-1.2-0.6-1.6c-0.4-0.4-0.9-0.6-1.5-0.6c-0.8,0-1.4,0.3-1.8,0.9c-0.4,0.6-0.6,1.5-0.6,2.8v0.4c0,1.3,0.2,2.2,0.6,2.8
			S1144.6,1620.5,1145.4,1620.5z"/>
		<path d="M1158.5,1623.2c-1.9,0-3.4-0.6-4.5-1.7s-1.8-2.7-1.8-4.6v-0.3c0-1.3,0.2-2.4,0.7-3.4s1.2-1.8,2.1-2.3s1.9-0.8,3.1-0.8
			c1.7,0,3.1,0.5,4.1,1.6s1.5,2.6,1.5,4.7v1.4h-8.1c0.1,0.8,0.4,1.5,1,2s1.2,0.8,2.1,0.8c1.3,0,2.3-0.5,3.1-1.4l1.7,1.9
			c-0.5,0.7-1.2,1.3-2.1,1.7S1159.6,1623.2,1158.5,1623.2z M1158.1,1612.8c-0.7,0-1.2,0.2-1.6,0.7s-0.7,1.1-0.8,2h4.7v-0.3
			c0-0.8-0.2-1.3-0.6-1.7S1158.9,1612.8,1158.1,1612.8z"/>
		<path d="M1177.1,1616.8c0,2-0.4,3.5-1.3,4.7s-2.1,1.8-3.6,1.8c-1.3,0-2.3-0.4-3.1-1.3v6h-3.4v-17.6h3.1l0.1,1.2
			c0.8-1,1.9-1.5,3.2-1.5c1.6,0,2.8,0.6,3.6,1.7s1.3,2.8,1.3,4.8V1616.8z M1173.7,1616.5c0-1.2-0.2-2.1-0.6-2.7s-1-1-1.8-1
			c-1.1,0-1.8,0.4-2.2,1.2v5.2c0.4,0.8,1.2,1.3,2.2,1.3C1172.9,1620.5,1173.7,1619.2,1173.7,1616.5z"/>
		<path d="M1183.2,1607.2v3.1h2.2v2.5h-2.2v6.3c0,0.5,0.1,0.8,0.3,1s0.5,0.3,1,0.3c0.4,0,0.7,0,1-0.1v2.6c-0.7,0.2-1.3,0.3-2.1,0.3
			c-2.4,0-3.6-1.2-3.6-3.6v-6.8h-1.9v-2.5h1.9v-3.1H1183.2z"/>
		<path d="M1187.3,1607c0-0.5,0.2-0.9,0.5-1.3s0.8-0.5,1.4-0.5c0.6,0,1,0.2,1.4,0.5s0.5,0.7,0.5,1.3c0,0.5-0.2,0.9-0.5,1.3
			s-0.8,0.5-1.4,0.5s-1-0.2-1.4-0.5S1187.3,1607.5,1187.3,1607z M1190.9,1623h-3.4v-12.7h3.4V1623z"/>
		<path d="M1193.1,1616.5c0-1.3,0.2-2.4,0.7-3.4s1.2-1.7,2.1-2.3s2-0.8,3.2-0.8c1.7,0,3.1,0.5,4.2,1.6s1.7,2.5,1.8,4.3l0,0.9
			c0,1.9-0.5,3.5-1.6,4.7s-2.5,1.8-4.4,1.8s-3.3-0.6-4.4-1.8s-1.6-2.8-1.6-4.8V1616.5z M1196.5,1616.8c0,1.2,0.2,2.1,0.7,2.8
			c0.5,0.6,1.1,1,1.9,1c0.8,0,1.5-0.3,1.9-0.9c0.5-0.6,0.7-1.6,0.7-3c0-1.2-0.2-2.1-0.7-2.7s-1.1-1-1.9-1c-0.8,0-1.5,0.3-1.9,1
			S1196.5,1615.4,1196.5,1616.8z"/>
		<path d="M1210.3,1610.3l0.1,1.5c0.9-1.1,2.1-1.7,3.6-1.7c1.3,0,2.3,0.4,3,1.2s1,2,1,3.5v8.2h-3.4v-8.1c0-0.7-0.2-1.2-0.5-1.6
			s-0.8-0.5-1.6-0.5c-1,0-1.7,0.4-2.1,1.2v8.9h-3.4v-12.7H1210.3z"/>
		<path d="M1226.1,1616.5c0-2,0.4-3.6,1.3-4.7s2.1-1.8,3.6-1.8c1.2,0,2.3,0.5,3.1,1.4v-6.5h3.4v18h-3.1l-0.2-1.3
			c-0.8,1.1-1.9,1.6-3.3,1.6c-1.5,0-2.7-0.6-3.6-1.8S1226.1,1618.6,1226.1,1616.5z M1229.5,1616.8c0,1.2,0.2,2.1,0.6,2.7
			c0.4,0.6,1,1,1.8,1c1,0,1.8-0.4,2.2-1.3v-5c-0.4-0.9-1.2-1.3-2.2-1.3C1230.3,1612.8,1229.5,1614.1,1229.5,1616.8z"/>
		<path d="M1246,1623.2c-1.9,0-3.4-0.6-4.5-1.7s-1.8-2.7-1.8-4.6v-0.3c0-1.3,0.2-2.4,0.7-3.4s1.2-1.8,2.1-2.3s1.9-0.8,3.1-0.8
			c1.7,0,3.1,0.5,4.1,1.6s1.5,2.6,1.5,4.7v1.4h-8.1c0.1,0.8,0.4,1.5,1,2s1.2,0.8,2.1,0.8c1.3,0,2.3-0.5,3.1-1.4l1.7,1.9
			c-0.5,0.7-1.2,1.3-2.1,1.7S1247,1623.2,1246,1623.2z M1245.6,1612.8c-0.7,0-1.2,0.2-1.6,0.7s-0.7,1.1-0.8,2h4.7v-0.3
			c0-0.8-0.2-1.3-0.6-1.7S1246.3,1612.8,1245.6,1612.8z"/>
		<path d="M1263.2,1607.2v3.1h2.2v2.5h-2.2v6.3c0,0.5,0.1,0.8,0.3,1s0.5,0.3,1,0.3c0.4,0,0.7,0,1-0.1v2.6c-0.7,0.2-1.3,0.3-2.1,0.3
			c-2.4,0-3.6-1.2-3.6-3.6v-6.8h-1.9v-2.5h1.9v-3.1H1263.2z"/>
		<path d="M1274.6,1623c-0.2-0.3-0.3-0.7-0.3-1.1c-0.8,0.9-1.9,1.4-3.2,1.4c-1.2,0-2.3-0.4-3.1-1.1s-1.2-1.6-1.2-2.7
			c0-1.3,0.5-2.4,1.5-3.1s2.4-1.1,4.3-1.1h1.6v-0.7c0-0.6-0.2-1.1-0.5-1.4s-0.8-0.5-1.4-0.5c-0.6,0-1,0.1-1.3,0.4s-0.5,0.6-0.5,1.1
			h-3.4c0-0.7,0.2-1.4,0.7-2s1.1-1.1,1.9-1.5s1.8-0.5,2.8-0.5c1.6,0,2.8,0.4,3.7,1.2s1.4,1.9,1.4,3.3v5.5c0,1.2,0.2,2.1,0.5,2.7v0.2
			H1274.6z M1271.8,1620.6c0.5,0,1-0.1,1.4-0.3s0.7-0.5,0.9-0.9v-2.2h-1.3c-1.7,0-2.6,0.6-2.7,1.8l0,0.2c0,0.4,0.1,0.8,0.4,1
			S1271.2,1620.6,1271.8,1620.6z"/>
		<path d="M1297.5,1616.8c0,2-0.4,3.6-1.3,4.8s-2.1,1.7-3.6,1.7c-1.4,0-2.5-0.5-3.3-1.6l-0.2,1.3h-3v-18h3.4v6.5
			c0.8-0.9,1.8-1.4,3.1-1.4c1.5,0,2.8,0.6,3.6,1.7s1.3,2.7,1.3,4.8V1616.8z M1294.1,1616.5c0-1.3-0.2-2.2-0.6-2.8s-1-0.9-1.8-0.9
			c-1.1,0-1.8,0.4-2.2,1.3v5c0.4,0.9,1.2,1.3,2.2,1.3c1.1,0,1.8-0.5,2.2-1.6C1294,1618.3,1294.1,1617.6,1294.1,1616.5z"/>
		<path d="M1299,1616.5c0-1.3,0.2-2.4,0.7-3.4s1.2-1.7,2.1-2.3s2-0.8,3.2-0.8c1.7,0,3.1,0.5,4.2,1.6s1.7,2.5,1.8,4.3l0,0.9
			c0,1.9-0.5,3.5-1.6,4.7s-2.5,1.8-4.4,1.8s-3.3-0.6-4.4-1.8s-1.6-2.8-1.6-4.8V1616.5z M1302.4,1616.8c0,1.2,0.2,2.1,0.7,2.8
			c0.5,0.6,1.1,1,1.9,1c0.8,0,1.5-0.3,1.9-0.9c0.5-0.6,0.7-1.6,0.7-3c0-1.2-0.2-2.1-0.7-2.7s-1.1-1-1.9-1c-0.8,0-1.5,0.3-1.9,1
			S1302.4,1615.4,1302.4,1616.8z"/>
		<path d="M1319.6,1608.4v0.1l-2.7,0l-1.8-1.7l-1.8,1.7l-2.6,0v-0.2l3.5-3.2h2L1319.6,1608.4z M1316.8,1623h-3.4v-12.7h3.4V1623z"/>
		<path d="M1323.8,1607.2v3.1h2.2v2.5h-2.2v6.3c0,0.5,0.1,0.8,0.3,1s0.5,0.3,1,0.3c0.4,0,0.7,0,1-0.1v2.6c-0.7,0.2-1.3,0.3-2.1,0.3
			c-2.4,0-3.6-1.2-3.6-3.6v-6.8h-1.9v-2.5h1.9v-3.1H1323.8z"/>
		<path d="M1333.7,1623.2c-1.9,0-3.4-0.6-4.5-1.7s-1.8-2.7-1.8-4.6v-0.3c0-1.3,0.2-2.4,0.7-3.4s1.2-1.8,2.1-2.3s1.9-0.8,3.1-0.8
			c1.7,0,3.1,0.5,4.1,1.6s1.5,2.6,1.5,4.7v1.4h-8.1c0.1,0.8,0.4,1.5,1,2s1.2,0.8,2.1,0.8c1.3,0,2.3-0.5,3.1-1.4l1.7,1.9
			c-0.5,0.7-1.2,1.3-2.1,1.7S1334.7,1623.2,1333.7,1623.2z M1333.3,1612.8c-0.7,0-1.2,0.2-1.6,0.7s-0.7,1.1-0.8,2h4.7v-0.3
			c0-0.8-0.2-1.3-0.6-1.7S1334,1612.8,1333.3,1612.8z"/>
	</g>
	<g class="st3">
		<path d="M1151.4,1666h-4.8l-1.1,3h-1.5l4.3-11.4h1.3l4.4,11.4h-1.5L1151.4,1666z M1149.9,1656.8l-1.2,0l-2-2.3h1.7L1149.9,1656.8z
			 M1147.1,1664.8h3.9l-1.9-5.3L1147.1,1664.8z"/>
		<path d="M1161.3,1658.5v2h1.6v1.1h-1.6v5.2c0,0.3,0.1,0.6,0.2,0.8c0.1,0.2,0.4,0.3,0.7,0.3c0.2,0,0.4,0,0.7-0.1v1.2
			c-0.4,0.1-0.8,0.2-1.1,0.2c-0.6,0-1.1-0.2-1.5-0.6s-0.5-0.9-0.5-1.7v-5.2h-1.5v-1.1h1.5v-2H1161.3z"/>
		<path d="M1164,1664.7c0-0.8,0.2-1.6,0.5-2.2c0.3-0.7,0.8-1.2,1.4-1.5c0.6-0.4,1.2-0.5,2-0.5c1.2,0,2.1,0.4,2.8,1.2
			s1.1,1.9,1.1,3.2v0.1c0,0.8-0.2,1.6-0.5,2.2c-0.3,0.7-0.8,1.2-1.4,1.5s-1.3,0.5-2,0.5c-1.1,0-2.1-0.4-2.8-1.2s-1.1-1.9-1.1-3.2
			V1664.7z M1165.4,1664.8c0,0.9,0.2,1.7,0.7,2.3c0.4,0.6,1,0.9,1.7,0.9c0.7,0,1.3-0.3,1.8-0.9c0.4-0.6,0.6-1.4,0.6-2.4
			c0-0.9-0.2-1.7-0.7-2.3c-0.4-0.6-1-0.9-1.8-0.9c-0.7,0-1.3,0.3-1.7,0.9S1165.4,1663.8,1165.4,1664.8z"/>
		<path d="M1174.9,1660.5l0,1.1c0.6-0.8,1.5-1.2,2.5-1.2c1.8,0,2.7,1,2.7,3v5.6h-1.4v-5.6c0-0.6-0.1-1.1-0.4-1.4s-0.7-0.4-1.3-0.4
			c-0.5,0-0.9,0.1-1.2,0.4c-0.4,0.2-0.6,0.6-0.8,1v6h-1.4v-8.5H1174.9z"/>
		<path d="M1187.6,1660.5l0,0.9c0.6-0.7,1.5-1.1,2.5-1.1c1.2,0,2,0.5,2.4,1.4c0.3-0.4,0.6-0.7,1.1-1s1-0.4,1.6-0.4
			c1.9,0,2.8,1,2.8,2.9v5.7h-1.4v-5.6c0-0.6-0.1-1.1-0.4-1.4s-0.7-0.4-1.4-0.4c-0.5,0-1,0.2-1.3,0.5s-0.6,0.8-0.6,1.3v5.6h-1.5v-5.5
			c0-1.2-0.6-1.8-1.8-1.8c-0.9,0-1.6,0.4-1.9,1.2v6.2h-1.4v-8.5H1187.6z"/>
		<path d="M1200.3,1658.3c0-0.2,0.1-0.4,0.2-0.6s0.4-0.2,0.6-0.2s0.5,0.1,0.6,0.2s0.2,0.4,0.2,0.6s-0.1,0.4-0.2,0.6
			s-0.4,0.2-0.6,0.2s-0.5-0.1-0.6-0.2S1200.3,1658.5,1200.3,1658.3z M1201.9,1669h-1.4v-8.5h1.4V1669z"/>
		<path d="M1207.6,1668c0.5,0,1-0.2,1.4-0.5s0.6-0.7,0.6-1.2h1.4c0,0.5-0.2,0.9-0.5,1.4s-0.7,0.8-1.2,1s-1.1,0.4-1.6,0.4
			c-1.2,0-2.1-0.4-2.7-1.2s-1-1.8-1-3.2v-0.2c0-0.8,0.2-1.6,0.5-2.2s0.7-1.1,1.3-1.5s1.2-0.5,2-0.5c0.9,0,1.7,0.3,2.4,0.9
			s1,1.3,1,2.2h-1.4c0-0.5-0.2-1-0.6-1.3s-0.8-0.5-1.4-0.5c-0.7,0-1.3,0.3-1.7,0.8s-0.6,1.3-0.6,2.3v0.3c0,1,0.2,1.7,0.6,2.2
			S1206.8,1668,1207.6,1668z"/>
		<path d="M1216.7,1661.8c-0.2,0-0.5-0.1-0.7-0.1c-0.9,0-1.6,0.4-1.9,1.2v6h-1.4v-8.5h1.4l0,1c0.5-0.8,1.1-1.1,2-1.1
			c0.3,0,0.5,0,0.6,0.1V1661.8z"/>
		<path d="M1217.4,1664.7c0-0.8,0.2-1.6,0.5-2.2s0.8-1.2,1.4-1.5s1.2-0.5,2-0.5c1.2,0,2.1,0.4,2.8,1.2s1.1,1.9,1.1,3.2v0.1
			c0,0.8-0.2,1.6-0.5,2.2s-0.8,1.2-1.4,1.5s-1.3,0.5-2,0.5c-1.1,0-2.1-0.4-2.8-1.2s-1.1-1.9-1.1-3.2V1664.7z M1218.9,1664.8
			c0,0.9,0.2,1.7,0.7,2.3s1,0.9,1.7,0.9c0.7,0,1.3-0.3,1.8-0.9s0.6-1.4,0.6-2.4c0-0.9-0.2-1.7-0.7-2.3s-1-0.9-1.8-0.9
			c-0.7,0-1.3,0.3-1.7,0.9S1218.9,1663.8,1218.9,1664.8z"/>
		<path d="M1230,1664.7h-3.8v-1.2h3.8V1664.7z"/>
		<path d="M1231,1664.7c0-0.8,0.2-1.6,0.5-2.2s0.8-1.2,1.4-1.5s1.2-0.5,2-0.5c1.2,0,2.1,0.4,2.8,1.2s1.1,1.9,1.1,3.2v0.1
			c0,0.8-0.2,1.6-0.5,2.2s-0.8,1.2-1.4,1.5s-1.3,0.5-2,0.5c-1.1,0-2.1-0.4-2.8-1.2s-1.1-1.9-1.1-3.2V1664.7z M1232.4,1664.8
			c0,0.9,0.2,1.7,0.7,2.3s1,0.9,1.7,0.9c0.7,0,1.3-0.3,1.8-0.9s0.6-1.4,0.6-2.4c0-0.9-0.2-1.7-0.7-2.3s-1-0.9-1.8-0.9
			c-0.7,0-1.3,0.3-1.7,0.9S1232.4,1663.8,1232.4,1664.8z"/>
		<path d="M1241.9,1660.5l0,1.1c0.6-0.8,1.5-1.2,2.5-1.2c1.8,0,2.7,1,2.7,3v5.6h-1.4v-5.6c0-0.6-0.1-1.1-0.4-1.4s-0.7-0.4-1.3-0.4
			c-0.5,0-0.9,0.1-1.2,0.4s-0.6,0.6-0.8,1v6h-1.4v-8.5H1241.9z"/>
		<path d="M1249,1664.7c0-1.3,0.3-2.3,0.9-3.1s1.4-1.2,2.4-1.2c1,0,1.8,0.3,2.4,1v-4.4h1.4v12h-1.3l-0.1-0.9
			c-0.6,0.7-1.4,1.1-2.4,1.1c-1,0-1.8-0.4-2.4-1.2s-0.9-1.8-0.9-3.1V1664.7z M1250.4,1664.8c0,1,0.2,1.7,0.6,2.2s0.9,0.8,1.6,0.8
			c0.9,0,1.6-0.4,2-1.2v-3.9c-0.4-0.8-1.1-1.2-2-1.2c-0.7,0-1.3,0.3-1.7,0.8S1250.4,1663.8,1250.4,1664.8z"/>
		<path d="M1261.8,1669.1c-1.1,0-2.1-0.4-2.8-1.1s-1.1-1.8-1.1-3v-0.3c0-0.8,0.2-1.6,0.5-2.2s0.8-1.2,1.3-1.5s1.2-0.6,1.9-0.6
			c1.1,0,2,0.4,2.6,1.1s0.9,1.8,0.9,3.1v0.6h-5.7c0,0.8,0.3,1.5,0.7,2s1.1,0.8,1.8,0.8c0.5,0,0.9-0.1,1.3-0.3s0.7-0.5,0.9-0.8
			l0.9,0.7C1264.3,1668.6,1263.3,1669.1,1261.8,1669.1z M1261.7,1661.6c-0.6,0-1.1,0.2-1.5,0.6s-0.6,1-0.7,1.8h4.2v-0.1
			c0-0.7-0.2-1.3-0.6-1.7S1262.3,1661.6,1261.7,1661.6z"/>
	</g>
	<g class="st3">
		<path d="M1154.6,1683.7c0-0.8,0.2-1.6,0.5-2.2s0.8-1.2,1.4-1.5s1.2-0.5,2-0.5c1.2,0,2.1,0.4,2.8,1.2s1.1,1.9,1.1,3.2v0.1
			c0,0.8-0.2,1.6-0.5,2.2s-0.8,1.2-1.4,1.5s-1.3,0.5-2,0.5c-1.1,0-2.1-0.4-2.8-1.2s-1.1-1.9-1.1-3.2V1683.7z M1156.1,1683.8
			c0,0.9,0.2,1.7,0.7,2.3s1,0.9,1.7,0.9c0.7,0,1.3-0.3,1.8-0.9s0.6-1.4,0.6-2.4c0-0.9-0.2-1.7-0.7-2.3s-1-0.9-1.8-0.9
			c-0.7,0-1.3,0.3-1.7,0.9S1156.1,1682.8,1156.1,1683.8z"/>
		<path d="M1169.4,1687.1c-0.6,0.7-1.4,1-2.5,1c-0.9,0-1.6-0.3-2.1-0.8s-0.7-1.3-0.7-2.3v-5.5h1.4v5.5c0,1.3,0.5,1.9,1.6,1.9
			c1.1,0,1.8-0.4,2.2-1.2v-6.1h1.4v8.5h-1.4L1169.4,1687.1z"/>
		<path d="M1177.6,1688v-7.3h-1.3v-1.1h1.3v-0.9c0-0.9,0.2-1.6,0.7-2.1s1.2-0.7,2.1-0.7c0.3,0,0.7,0,1,0.1l-0.1,1.2
			c-0.2,0-0.5-0.1-0.8-0.1c-0.5,0-0.8,0.1-1.1,0.4s-0.4,0.7-0.4,1.2v0.9h1.8v1.1h-1.8v7.3H1177.6z"/>
		<path d="M1182.1,1683.7c0-0.8,0.2-1.6,0.5-2.2s0.8-1.2,1.4-1.5s1.2-0.5,2-0.5c1.2,0,2.1,0.4,2.8,1.2s1.1,1.9,1.1,3.2v0.1
			c0,0.8-0.2,1.6-0.5,2.2s-0.8,1.2-1.4,1.5s-1.3,0.5-2,0.5c-1.1,0-2.1-0.4-2.8-1.2s-1.1-1.9-1.1-3.2V1683.7z M1183.6,1683.8
			c0,0.9,0.2,1.7,0.7,2.3s1,0.9,1.7,0.9c0.7,0,1.3-0.3,1.8-0.9s0.6-1.4,0.6-2.4c0-0.9-0.2-1.7-0.7-2.3s-1-0.9-1.8-0.9
			c-0.7,0-1.3,0.3-1.7,0.9S1183.6,1682.8,1183.6,1683.8z"/>
		<path d="M1196.8,1687.1c-0.6,0.7-1.4,1-2.5,1c-0.9,0-1.6-0.3-2.1-0.8s-0.7-1.3-0.7-2.3v-5.5h1.4v5.5c0,1.3,0.5,1.9,1.6,1.9
			c1.1,0,1.8-0.4,2.2-1.2v-6.1h1.4v8.5h-1.4L1196.8,1687.1z"/>
		<path d="M1204.5,1680.8c-0.2,0-0.5-0.1-0.7-0.1c-0.9,0-1.6,0.4-1.9,1.2v6h-1.4v-8.5h1.4l0,1c0.5-0.8,1.1-1.1,2-1.1
			c0.3,0,0.5,0,0.6,0.1V1680.8z"/>
		<path d="M1207.2,1679.5l0,1.1c0.6-0.8,1.5-1.2,2.5-1.2c1.8,0,2.7,1,2.7,3v5.6h-1.4v-5.6c0-0.6-0.1-1.1-0.4-1.4s-0.7-0.4-1.3-0.4
			c-0.5,0-0.9,0.1-1.2,0.4s-0.6,0.6-0.8,1v6h-1.4v-8.5H1207.2z"/>
		<path d="M1218.2,1688.1c-1.1,0-2.1-0.4-2.8-1.1s-1.1-1.8-1.1-3v-0.3c0-0.8,0.2-1.6,0.5-2.2s0.8-1.2,1.3-1.5s1.2-0.6,1.9-0.6
			c1.1,0,2,0.4,2.6,1.1s0.9,1.8,0.9,3.1v0.6h-5.7c0,0.8,0.3,1.5,0.7,2s1.1,0.8,1.8,0.8c0.5,0,0.9-0.1,1.3-0.3s0.7-0.5,0.9-0.8
			l0.9,0.7C1220.7,1687.6,1219.6,1688.1,1218.2,1688.1z M1218,1680.6c-0.6,0-1.1,0.2-1.5,0.6s-0.6,1-0.7,1.8h4.2v-0.1
			c0-0.7-0.2-1.3-0.6-1.7S1218.6,1680.6,1218,1680.6z"/>
		<path d="M1228.4,1688c-0.1-0.2-0.2-0.5-0.2-0.9c-0.7,0.7-1.5,1-2.4,1c-0.8,0-1.5-0.2-2.1-0.7s-0.8-1.1-0.8-1.8
			c0-0.9,0.3-1.6,1-2.1s1.6-0.7,2.8-0.7h1.4v-0.7c0-0.5-0.2-0.9-0.5-1.2s-0.7-0.4-1.3-0.4c-0.5,0-0.9,0.1-1.3,0.4s-0.5,0.6-0.5,0.9
			h-1.5c0-0.4,0.1-0.8,0.4-1.2s0.7-0.7,1.2-0.9s1.1-0.3,1.7-0.3c1,0,1.7,0.2,2.3,0.7s0.8,1.2,0.9,2v3.9c0,0.8,0.1,1.4,0.3,1.9v0.1
			H1228.4z M1226,1686.9c0.5,0,0.9-0.1,1.3-0.4s0.7-0.5,0.9-0.9v-1.7h-1.1c-1.8,0-2.7,0.5-2.7,1.6c0,0.5,0.2,0.8,0.5,1.1
			S1225.5,1686.9,1226,1686.9z"/>
		<path d="M1237.1,1687.1c-0.6,0.7-1.4,1-2.5,1c-0.9,0-1.6-0.3-2.1-0.8s-0.7-1.3-0.7-2.3v-5.5h1.4v5.5c0,1.3,0.5,1.9,1.6,1.9
			c1.1,0,1.8-0.4,2.2-1.2v-6.1h1.4v8.5h-1.4L1237.1,1687.1z"/>
		<path d="M1243.5,1682.6l1.9-3.1h1.7l-2.8,4.2l2.9,4.3h-1.7l-2-3.2l-2,3.2h-1.7l2.9-4.3l-2.8-4.2h1.7L1243.5,1682.6z"/>
		<path d="M1252.7,1687.2c0-0.2,0.1-0.4,0.2-0.6c0.1-0.2,0.4-0.2,0.6-0.2s0.5,0.1,0.6,0.2c0.1,0.2,0.2,0.4,0.2,0.6s-0.1,0.4-0.2,0.6
			c-0.1,0.2-0.4,0.2-0.6,0.2s-0.5-0.1-0.6-0.2C1252.8,1687.7,1252.7,1687.5,1252.7,1687.2z M1254.2,1684.8h-1.3l-0.1-8.2h1.5
			L1254.2,1684.8z"/>
	</g>
	<g class="st3">
		<path d="M1133.1,1702.5v4.5h-1.5v-11.4h4.2c1.2,0,2.2,0.3,2.9,1c0.7,0.6,1.1,1.5,1.1,2.5c0,1.1-0.3,2-1,2.6
			c-0.7,0.6-1.7,0.9-3,0.9H1133.1z M1133.1,1701.3h2.7c0.8,0,1.4-0.2,1.8-0.6c0.4-0.4,0.6-0.9,0.6-1.6c0-0.7-0.2-1.2-0.6-1.6
			c-0.4-0.4-1-0.6-1.8-0.6h-2.8V1701.3z"/>
		<path d="M1145.5,1699.8c-0.2,0-0.5-0.1-0.7-0.1c-0.9,0-1.6,0.4-1.9,1.2v6h-1.4v-8.5h1.4l0,1c0.5-0.8,1.1-1.1,2-1.1
			c0.3,0,0.5,0,0.6,0.1V1699.8z"/>
		<path d="M1150.2,1707.1c-1.1,0-2.1-0.4-2.8-1.1s-1.1-1.8-1.1-3v-0.3c0-0.8,0.2-1.6,0.5-2.2s0.8-1.2,1.3-1.5
			c0.6-0.4,1.2-0.6,1.9-0.6c1.1,0,2,0.4,2.6,1.1s0.9,1.8,0.9,3.1v0.6h-5.7c0,0.8,0.3,1.5,0.7,2c0.5,0.5,1.1,0.8,1.8,0.8
			c0.5,0,0.9-0.1,1.3-0.3c0.4-0.2,0.7-0.5,0.9-0.8l0.9,0.7C1152.7,1706.6,1151.7,1707.1,1150.2,1707.1z M1150.1,1699.6
			c-0.6,0-1.1,0.2-1.5,0.6c-0.4,0.4-0.6,1-0.7,1.8h4.2v-0.1c0-0.7-0.2-1.3-0.6-1.7C1151.1,1699.8,1150.7,1699.6,1150.1,1699.6z
			 M1150.8,1695h1.8l-2.1,2.3l-1.2,0L1150.8,1695z"/>
		<path d="M1162.3,1702.8c0,1.3-0.3,2.3-0.9,3.1c-0.6,0.8-1.4,1.2-2.4,1.2c-1,0-1.8-0.3-2.4-1v4.1h-1.4v-11.7h1.3l0.1,0.9
			c0.6-0.7,1.4-1.1,2.5-1.1c1,0,1.8,0.4,2.4,1.1c0.6,0.8,0.9,1.8,0.9,3.2V1702.8z M1160.9,1702.7c0-1-0.2-1.7-0.6-2.3
			s-1-0.8-1.7-0.8c-0.9,0-1.5,0.4-2,1.2v4c0.4,0.8,1.1,1.2,2,1.2c0.7,0,1.2-0.3,1.7-0.8C1160.7,1704.6,1160.9,1703.8,1160.9,1702.7z
			"/>
		<path d="M1169.4,1707c-0.1-0.2-0.2-0.5-0.2-0.9c-0.7,0.7-1.5,1-2.4,1c-0.8,0-1.5-0.2-2.1-0.7c-0.5-0.5-0.8-1.1-0.8-1.8
			c0-0.9,0.3-1.6,1-2.1c0.7-0.5,1.6-0.7,2.8-0.7h1.4v-0.7c0-0.5-0.2-0.9-0.5-1.2c-0.3-0.3-0.7-0.4-1.3-0.4c-0.5,0-0.9,0.1-1.3,0.4
			c-0.3,0.3-0.5,0.6-0.5,0.9h-1.5c0-0.4,0.1-0.8,0.4-1.2c0.3-0.4,0.7-0.7,1.2-0.9c0.5-0.2,1.1-0.3,1.7-0.3c1,0,1.7,0.2,2.3,0.7
			c0.6,0.5,0.8,1.2,0.9,2v3.9c0,0.8,0.1,1.4,0.3,1.9v0.1H1169.4z M1167,1705.9c0.5,0,0.9-0.1,1.3-0.4s0.7-0.5,0.9-0.9v-1.7h-1.1
			c-1.8,0-2.7,0.5-2.7,1.6c0,0.5,0.2,0.8,0.5,1.1C1166.1,1705.7,1166.5,1705.9,1167,1705.9z"/>
		<path d="M1177,1699.8c-0.2,0-0.5-0.1-0.7-0.1c-0.9,0-1.6,0.4-1.9,1.2v6h-1.4v-8.5h1.4l0,1c0.5-0.8,1.1-1.1,2-1.1
			c0.3,0,0.5,0,0.6,0.1V1699.8z"/>
		<path d="M1181.7,1707.1c-1.1,0-2.1-0.4-2.8-1.1s-1.1-1.8-1.1-3v-0.3c0-0.8,0.2-1.6,0.5-2.2s0.8-1.2,1.3-1.5
			c0.6-0.4,1.2-0.6,1.9-0.6c1.1,0,2,0.4,2.6,1.1s0.9,1.8,0.9,3.1v0.6h-5.7c0,0.8,0.3,1.5,0.7,2c0.5,0.5,1.1,0.8,1.8,0.8
			c0.5,0,0.9-0.1,1.3-0.3c0.4-0.2,0.7-0.5,0.9-0.8l0.9,0.7C1184.1,1706.6,1183.1,1707.1,1181.7,1707.1z M1181.5,1699.6
			c-0.6,0-1.1,0.2-1.5,0.6c-0.4,0.4-0.6,1-0.7,1.8h4.2v-0.1c0-0.7-0.2-1.3-0.6-1.7C1182.6,1699.8,1182.1,1699.6,1181.5,1699.6z"/>
		<path d="M1190.2,1702.7c0-0.8,0.2-1.6,0.5-2.2c0.3-0.7,0.8-1.2,1.4-1.5c0.6-0.4,1.2-0.5,2-0.5c1.2,0,2.1,0.4,2.8,1.2
			s1.1,1.9,1.1,3.2v0.1c0,0.8-0.2,1.6-0.5,2.2s-0.8,1.2-1.4,1.5s-1.3,0.5-2,0.5c-1.1,0-2.1-0.4-2.8-1.2s-1.1-1.9-1.1-3.2V1702.7z
			 M1191.7,1702.8c0,0.9,0.2,1.7,0.7,2.3c0.4,0.6,1,0.9,1.7,0.9c0.7,0,1.3-0.3,1.8-0.9s0.6-1.4,0.6-2.4c0-0.9-0.2-1.7-0.7-2.3
			s-1-0.9-1.8-0.9c-0.7,0-1.3,0.3-1.7,0.9S1191.7,1701.8,1191.7,1702.8z"/>
		<path d="M1204.9,1706.1c-0.6,0.7-1.4,1-2.5,1c-0.9,0-1.6-0.3-2.1-0.8s-0.7-1.3-0.7-2.3v-5.5h1.4v5.5c0,1.3,0.5,1.9,1.6,1.9
			c1.1,0,1.8-0.4,2.2-1.2v-6.1h1.4v8.5h-1.4L1204.9,1706.1z"/>
		<path d="M1216.6,1699.8c-0.2,0-0.5-0.1-0.7-0.1c-0.9,0-1.6,0.4-1.9,1.2v6h-1.4v-8.5h1.4l0,1c0.5-0.8,1.1-1.1,2-1.1
			c0.3,0,0.5,0,0.6,0.1V1699.8z"/>
		<path d="M1221.3,1707.1c-1.1,0-2.1-0.4-2.8-1.1s-1.1-1.8-1.1-3v-0.3c0-0.8,0.2-1.6,0.5-2.2s0.8-1.2,1.3-1.5s1.2-0.6,1.9-0.6
			c1.1,0,2,0.4,2.6,1.1s0.9,1.8,0.9,3.1v0.6h-5.7c0,0.8,0.3,1.5,0.7,2s1.1,0.8,1.8,0.8c0.5,0,0.9-0.1,1.3-0.3s0.7-0.5,0.9-0.8
			l0.9,0.7C1223.7,1706.6,1222.7,1707.1,1221.3,1707.1z M1221.1,1699.6c-0.6,0-1.1,0.2-1.5,0.6s-0.6,1-0.7,1.8h4.2v-0.1
			c0-0.7-0.2-1.3-0.6-1.7S1221.7,1699.6,1221.1,1699.6z M1221.8,1695h1.8l-2.1,2.3l-1.2,0L1221.8,1695z"/>
		<path d="M1229.6,1706c0.5,0,1-0.2,1.4-0.5s0.6-0.7,0.6-1.2h1.4c0,0.5-0.2,0.9-0.5,1.4s-0.7,0.8-1.2,1s-1.1,0.4-1.6,0.4
			c-1.2,0-2.1-0.4-2.7-1.2s-1-1.8-1-3.2v-0.2c0-0.8,0.2-1.6,0.5-2.2s0.7-1.1,1.3-1.5s1.2-0.5,2-0.5c0.9,0,1.7,0.3,2.4,0.9
			s1,1.3,1,2.2h-1.4c0-0.5-0.2-1-0.6-1.3s-0.8-0.5-1.4-0.5c-0.7,0-1.3,0.3-1.7,0.8s-0.6,1.3-0.6,2.3v0.3c0,1,0.2,1.7,0.6,2.2
			S1228.9,1706,1229.6,1706z"/>
		<path d="M1236.1,1699.5c0.6-0.8,1.5-1.2,2.5-1.2c1.8,0,2.7,1,2.7,3v5.6h-1.4v-5.6c0-0.6-0.1-1.1-0.4-1.4s-0.7-0.4-1.3-0.4
			c-0.5,0-0.9,0.1-1.2,0.4s-0.6,0.6-0.8,1v6h-1.4v-12h1.4V1699.5z"/>
		<path d="M1248.6,1707c-0.1-0.2-0.2-0.5-0.2-0.9c-0.7,0.7-1.5,1-2.4,1c-0.8,0-1.5-0.2-2.1-0.7s-0.8-1.1-0.8-1.8
			c0-0.9,0.3-1.6,1-2.1s1.6-0.7,2.8-0.7h1.4v-0.7c0-0.5-0.2-0.9-0.5-1.2s-0.7-0.4-1.3-0.4c-0.5,0-0.9,0.1-1.3,0.4s-0.5,0.6-0.5,0.9
			h-1.5c0-0.4,0.1-0.8,0.4-1.2s0.7-0.7,1.2-0.9s1.1-0.3,1.7-0.3c1,0,1.7,0.2,2.3,0.7s0.8,1.2,0.9,2v3.9c0,0.8,0.1,1.4,0.3,1.9v0.1
			H1248.6z M1246.2,1705.9c0.5,0,0.9-0.1,1.3-0.4s0.7-0.5,0.9-0.9v-1.7h-1.1c-1.8,0-2.7,0.5-2.7,1.6c0,0.5,0.2,0.8,0.5,1.1
			S1245.8,1705.9,1246.2,1705.9z"/>
		<path d="M1257.3,1706.1c-0.6,0.7-1.4,1-2.5,1c-0.9,0-1.6-0.3-2.1-0.8s-0.7-1.3-0.7-2.3v-5.5h1.4v5.5c0,1.3,0.5,1.9,1.6,1.9
			c1.1,0,1.8-0.4,2.2-1.2v-6.1h1.4v8.5h-1.4L1257.3,1706.1z"/>
		<path d="M1261.7,1707v-7.3h-1.3v-1.1h1.3v-0.9c0-0.9,0.2-1.6,0.7-2.1s1.2-0.7,2.1-0.7c0.3,0,0.7,0,1,0.1l-0.1,1.2
			c-0.2,0-0.5-0.1-0.8-0.1c-0.5,0-0.8,0.1-1.1,0.4s-0.4,0.7-0.4,1.2v0.9h1.8v1.1h-1.8v7.3H1261.7z"/>
		<path d="M1267.2,1707v-7.3h-1.3v-1.1h1.3v-0.9c0-0.9,0.2-1.6,0.7-2.1s1.2-0.7,2.1-0.7c0.3,0,0.7,0,1,0.1l-0.1,1.2
			c-0.2,0-0.5-0.1-0.8-0.1c-0.5,0-0.8,0.1-1.1,0.4s-0.4,0.7-0.4,1.2v0.9h1.8v1.1h-1.8v7.3H1267.2z"/>
		<path d="M1275.4,1707.1c-1.1,0-2.1-0.4-2.8-1.1s-1.1-1.8-1.1-3v-0.3c0-0.8,0.2-1.6,0.5-2.2s0.8-1.2,1.3-1.5s1.2-0.6,1.9-0.6
			c1.1,0,2,0.4,2.6,1.1s0.9,1.8,0.9,3.1v0.6h-5.7c0,0.8,0.3,1.5,0.7,2s1.1,0.8,1.8,0.8c0.5,0,0.9-0.1,1.3-0.3s0.7-0.5,0.9-0.8
			l0.9,0.7C1277.9,1706.6,1276.8,1707.1,1275.4,1707.1z M1275.2,1699.6c-0.6,0-1.1,0.2-1.5,0.6s-0.6,1-0.7,1.8h4.2v-0.1
			c0-0.7-0.2-1.3-0.6-1.7S1275.8,1699.6,1275.2,1699.6z"/>
	</g>
	<g class="st3">
		<path d="M1116.4,1715.5v2h1.6v1.1h-1.6v5.2c0,0.3,0.1,0.6,0.2,0.8c0.1,0.2,0.4,0.3,0.7,0.3c0.2,0,0.4,0,0.7-0.1v1.2
			c-0.4,0.1-0.8,0.2-1.1,0.2c-0.6,0-1.1-0.2-1.5-0.6s-0.5-0.9-0.5-1.7v-5.2h-1.5v-1.1h1.5v-2H1116.4z"/>
		<path d="M1119.1,1721.7c0-0.8,0.2-1.6,0.5-2.2c0.3-0.7,0.8-1.2,1.4-1.5c0.6-0.4,1.2-0.5,2-0.5c1.2,0,2.1,0.4,2.8,1.2
			s1.1,1.9,1.1,3.2v0.1c0,0.8-0.2,1.6-0.5,2.2c-0.3,0.7-0.8,1.2-1.4,1.5s-1.3,0.5-2,0.5c-1.1,0-2.1-0.4-2.8-1.2s-1.1-1.9-1.1-3.2
			V1721.7z M1120.6,1721.8c0,0.9,0.2,1.7,0.7,2.3c0.4,0.6,1,0.9,1.7,0.9c0.7,0,1.3-0.3,1.8-0.9c0.4-0.6,0.6-1.4,0.6-2.4
			c0-0.9-0.2-1.7-0.7-2.3c-0.4-0.6-1-0.9-1.8-0.9c-0.7,0-1.3,0.3-1.7,0.9S1120.6,1720.8,1120.6,1721.8z"/>
		<path d="M1130,1717.5l0,1.1c0.6-0.8,1.5-1.2,2.5-1.2c1.8,0,2.7,1,2.7,3v5.6h-1.4v-5.6c0-0.6-0.1-1.1-0.4-1.4s-0.7-0.4-1.3-0.4
			c-0.5,0-0.9,0.1-1.2,0.4c-0.4,0.2-0.6,0.6-0.8,1v6h-1.4v-8.5H1130z"/>
		<path d="M1145.5,1718.8c-0.2,0-0.5-0.1-0.7-0.1c-0.9,0-1.6,0.4-1.9,1.2v6h-1.4v-8.5h1.4l0,1c0.5-0.8,1.1-1.1,2-1.1
			c0.3,0,0.5,0,0.6,0.1V1718.8z"/>
		<path d="M1150.2,1726.1c-1.1,0-2.1-0.4-2.8-1.1s-1.1-1.8-1.1-3v-0.3c0-0.8,0.2-1.6,0.5-2.2s0.8-1.2,1.3-1.5
			c0.6-0.4,1.2-0.6,1.9-0.6c1.1,0,2,0.4,2.6,1.1s0.9,1.8,0.9,3.1v0.6h-5.7c0,0.8,0.3,1.5,0.7,2c0.5,0.5,1.1,0.8,1.8,0.8
			c0.5,0,0.9-0.1,1.3-0.3c0.4-0.2,0.7-0.5,0.9-0.8l0.9,0.7C1152.7,1725.6,1151.6,1726.1,1150.2,1726.1z M1150,1718.6
			c-0.6,0-1.1,0.2-1.5,0.6c-0.4,0.4-0.6,1-0.7,1.8h4.2v-0.1c0-0.7-0.2-1.3-0.6-1.7C1151.1,1718.8,1150.6,1718.6,1150,1718.6z"/>
		<path d="M1162.3,1721.8c0,1.3-0.3,2.3-0.9,3.1c-0.6,0.8-1.4,1.2-2.4,1.2c-1,0-1.8-0.3-2.4-1v4.1h-1.4v-11.7h1.3l0.1,0.9
			c0.6-0.7,1.4-1.1,2.5-1.1c1,0,1.8,0.4,2.4,1.1c0.6,0.8,0.9,1.8,0.9,3.2V1721.8z M1160.9,1721.7c0-1-0.2-1.7-0.6-2.3
			s-1-0.8-1.7-0.8c-0.9,0-1.5,0.4-2,1.2v4c0.4,0.8,1.1,1.2,2,1.2c0.7,0,1.2-0.3,1.7-0.8C1160.7,1723.6,1160.9,1722.8,1160.9,1721.7z
			"/>
		<path d="M1169.4,1726c-0.1-0.2-0.2-0.5-0.2-0.9c-0.7,0.7-1.5,1-2.4,1c-0.8,0-1.5-0.2-2.1-0.7c-0.5-0.5-0.8-1.1-0.8-1.8
			c0-0.9,0.3-1.6,1-2.1c0.7-0.5,1.6-0.7,2.8-0.7h1.4v-0.7c0-0.5-0.2-0.9-0.5-1.2c-0.3-0.3-0.7-0.4-1.3-0.4c-0.5,0-0.9,0.1-1.3,0.4
			c-0.3,0.3-0.5,0.6-0.5,0.9h-1.5c0-0.4,0.1-0.8,0.4-1.2c0.3-0.4,0.7-0.7,1.2-0.9c0.5-0.2,1.1-0.3,1.7-0.3c1,0,1.7,0.2,2.3,0.7
			c0.6,0.5,0.8,1.2,0.9,2v3.9c0,0.8,0.1,1.4,0.3,1.9v0.1H1169.4z M1167,1724.9c0.5,0,0.9-0.1,1.3-0.4s0.7-0.5,0.9-0.9v-1.7h-1.1
			c-1.8,0-2.7,0.5-2.7,1.6c0,0.5,0.2,0.8,0.5,1.1C1166.1,1724.7,1166.5,1724.9,1167,1724.9z"/>
		<path d="M1177.8,1723.7c0-0.4-0.1-0.7-0.4-0.9c-0.3-0.2-0.8-0.4-1.5-0.6c-0.7-0.2-1.3-0.3-1.7-0.6s-0.7-0.5-1-0.8
			c-0.2-0.3-0.3-0.7-0.3-1.1c0-0.7,0.3-1.3,0.9-1.8s1.3-0.7,2.2-0.7c1,0,1.7,0.2,2.3,0.7c0.6,0.5,0.9,1.1,0.9,1.9h-1.5
			c0-0.4-0.2-0.7-0.5-1s-0.8-0.4-1.3-0.4c-0.5,0-0.9,0.1-1.2,0.3s-0.4,0.5-0.4,0.9c0,0.3,0.1,0.6,0.4,0.8c0.3,0.2,0.8,0.3,1.5,0.5
			c0.7,0.2,1.3,0.4,1.8,0.6c0.4,0.2,0.8,0.5,1,0.8c0.2,0.3,0.3,0.7,0.3,1.2c0,0.8-0.3,1.4-0.9,1.8c-0.6,0.5-1.4,0.7-2.4,0.7
			c-0.7,0-1.3-0.1-1.8-0.4c-0.5-0.2-0.9-0.6-1.2-1c-0.3-0.4-0.4-0.9-0.4-1.4h1.4c0,0.5,0.2,0.9,0.6,1.2c0.4,0.3,0.8,0.4,1.4,0.4
			c0.5,0,1-0.1,1.3-0.3C1177.6,1724.4,1177.8,1724.1,1177.8,1723.7z"/>
		<path d="M1188.6,1726.1c-1.1,0-2.1-0.4-2.8-1.1s-1.1-1.8-1.1-3v-0.3c0-0.8,0.2-1.6,0.5-2.2s0.8-1.2,1.3-1.5
			c0.6-0.4,1.2-0.6,1.9-0.6c1.1,0,2,0.4,2.6,1.1s0.9,1.8,0.9,3.1v0.6h-5.7c0,0.8,0.3,1.5,0.7,2c0.5,0.5,1.1,0.8,1.8,0.8
			c0.5,0,0.9-0.1,1.3-0.3c0.4-0.2,0.7-0.5,0.9-0.8l0.9,0.7C1191,1725.6,1190,1726.1,1188.6,1726.1z M1188.4,1718.6
			c-0.6,0-1.1,0.2-1.5,0.6c-0.4,0.4-0.6,1-0.7,1.8h4.2v-0.1c0-0.7-0.2-1.3-0.6-1.7C1189.5,1718.8,1189,1718.6,1188.4,1718.6z"/>
		<path d="M1195.5,1715.5v2h1.6v1.1h-1.6v5.2c0,0.3,0.1,0.6,0.2,0.8c0.1,0.2,0.4,0.3,0.7,0.3c0.2,0,0.4,0,0.7-0.1v1.2
			c-0.4,0.1-0.8,0.2-1.1,0.2c-0.6,0-1.1-0.2-1.5-0.6s-0.5-0.9-0.5-1.7v-5.2h-1.5v-1.1h1.5v-2H1195.5z"/>
		<path d="M1209.9,1721.8c0,1.3-0.3,2.3-0.9,3.1s-1.4,1.2-2.4,1.2c-1,0-1.8-0.3-2.4-1v4.1h-1.4v-11.7h1.3l0.1,0.9
			c0.6-0.7,1.4-1.1,2.5-1.1c1,0,1.8,0.4,2.4,1.1s0.9,1.8,0.9,3.2V1721.8z M1208.4,1721.7c0-1-0.2-1.7-0.6-2.3s-1-0.8-1.7-0.8
			c-0.9,0-1.5,0.4-2,1.2v4c0.4,0.8,1.1,1.2,2,1.2c0.7,0,1.2-0.3,1.7-0.8S1208.4,1722.8,1208.4,1721.7z"/>
		<path d="M1216.9,1726c-0.1-0.2-0.2-0.5-0.2-0.9c-0.7,0.7-1.5,1-2.4,1c-0.8,0-1.5-0.2-2.1-0.7s-0.8-1.1-0.8-1.8
			c0-0.9,0.3-1.6,1-2.1s1.6-0.7,2.8-0.7h1.4v-0.7c0-0.5-0.2-0.9-0.5-1.2s-0.7-0.4-1.3-0.4c-0.5,0-0.9,0.1-1.3,0.4s-0.5,0.6-0.5,0.9
			h-1.5c0-0.4,0.1-0.8,0.4-1.2s0.7-0.7,1.2-0.9s1.1-0.3,1.7-0.3c1,0,1.7,0.2,2.3,0.7s0.8,1.2,0.9,2v3.9c0,0.8,0.1,1.4,0.3,1.9v0.1
			H1216.9z M1214.5,1724.9c0.5,0,0.9-0.1,1.3-0.4s0.7-0.5,0.9-0.9v-1.7h-1.1c-1.8,0-2.7,0.5-2.7,1.6c0,0.5,0.2,0.8,0.5,1.1
			S1214,1724.9,1214.5,1724.9z"/>
		<path d="M1225.3,1723.7c0-0.4-0.1-0.7-0.4-0.9s-0.8-0.4-1.5-0.6s-1.3-0.3-1.7-0.6s-0.7-0.5-1-0.8s-0.3-0.7-0.3-1.1
			c0-0.7,0.3-1.3,0.9-1.8s1.3-0.7,2.2-0.7c1,0,1.7,0.2,2.3,0.7s0.9,1.1,0.9,1.9h-1.5c0-0.4-0.2-0.7-0.5-1s-0.8-0.4-1.3-0.4
			c-0.5,0-0.9,0.1-1.2,0.3s-0.4,0.5-0.4,0.9c0,0.3,0.1,0.6,0.4,0.8s0.8,0.3,1.5,0.5s1.3,0.4,1.8,0.6s0.8,0.5,1,0.8s0.3,0.7,0.3,1.2
			c0,0.8-0.3,1.4-0.9,1.8s-1.4,0.7-2.4,0.7c-0.7,0-1.3-0.1-1.8-0.4s-0.9-0.6-1.2-1s-0.4-0.9-0.4-1.4h1.4c0,0.5,0.2,0.9,0.6,1.2
			s0.8,0.4,1.4,0.4c0.5,0,1-0.1,1.3-0.3S1225.3,1724.1,1225.3,1723.7z"/>
		<path d="M1233.6,1723.7c0-0.4-0.1-0.7-0.4-0.9s-0.8-0.4-1.5-0.6s-1.3-0.3-1.7-0.6s-0.7-0.5-1-0.8s-0.3-0.7-0.3-1.1
			c0-0.7,0.3-1.3,0.9-1.8s1.3-0.7,2.2-0.7c1,0,1.7,0.2,2.3,0.7s0.9,1.1,0.9,1.9h-1.5c0-0.4-0.2-0.7-0.5-1s-0.8-0.4-1.3-0.4
			c-0.5,0-0.9,0.1-1.2,0.3s-0.4,0.5-0.4,0.9c0,0.3,0.1,0.6,0.4,0.8s0.8,0.3,1.5,0.5s1.3,0.4,1.8,0.6s0.8,0.5,1,0.8s0.3,0.7,0.3,1.2
			c0,0.8-0.3,1.4-0.9,1.8s-1.4,0.7-2.4,0.7c-0.7,0-1.3-0.1-1.8-0.4s-0.9-0.6-1.2-1s-0.4-0.9-0.4-1.4h1.4c0,0.5,0.2,0.9,0.6,1.2
			s0.8,0.4,1.4,0.4c0.5,0,1-0.1,1.3-0.3S1233.6,1724.1,1233.6,1723.7z"/>
		<path d="M1240.4,1726.1c-1.1,0-2.1-0.4-2.8-1.1s-1.1-1.8-1.1-3v-0.3c0-0.8,0.2-1.6,0.5-2.2s0.8-1.2,1.3-1.5s1.2-0.6,1.9-0.6
			c1.1,0,2,0.4,2.6,1.1s0.9,1.8,0.9,3.1v0.6h-5.7c0,0.8,0.3,1.5,0.7,2s1.1,0.8,1.8,0.8c0.5,0,0.9-0.1,1.3-0.3s0.7-0.5,0.9-0.8
			l0.9,0.7C1242.9,1725.6,1241.8,1726.1,1240.4,1726.1z M1240.2,1718.6c-0.6,0-1.1,0.2-1.5,0.6s-0.6,1-0.7,1.8h4.2v-0.1
			c0-0.7-0.2-1.3-0.6-1.7S1240.8,1718.6,1240.2,1718.6z"/>
		<path d="M1254.6,1726c-0.1-0.2-0.2-0.5-0.2-0.9c-0.7,0.7-1.5,1-2.4,1c-0.8,0-1.5-0.2-2.1-0.7s-0.8-1.1-0.8-1.8
			c0-0.9,0.3-1.6,1-2.1s1.6-0.7,2.8-0.7h1.4v-0.7c0-0.5-0.2-0.9-0.5-1.2s-0.7-0.4-1.3-0.4c-0.5,0-0.9,0.1-1.3,0.4s-0.5,0.6-0.5,0.9
			h-1.5c0-0.4,0.1-0.8,0.4-1.2s0.7-0.7,1.2-0.9s1.1-0.3,1.7-0.3c1,0,1.7,0.2,2.3,0.7s0.8,1.2,0.9,2v3.9c0,0.8,0.1,1.4,0.3,1.9v0.1
			H1254.6z M1253.6,1716.3l-1.2,0l-2-2.3h1.7L1253.6,1716.3z M1252.2,1724.9c0.5,0,0.9-0.1,1.3-0.4s0.7-0.5,0.9-0.9v-1.7h-1.1
			c-1.8,0-2.7,0.5-2.7,1.6c0,0.5,0.2,0.8,0.5,1.1S1251.7,1724.9,1252.2,1724.9z"/>
		<path d="M1264,1715.5v2h1.6v1.1h-1.6v5.2c0,0.3,0.1,0.6,0.2,0.8c0.1,0.2,0.4,0.3,0.7,0.3c0.2,0,0.4,0,0.7-0.1v1.2
			c-0.4,0.1-0.8,0.2-1.1,0.2c-0.6,0-1.1-0.2-1.5-0.6s-0.5-0.9-0.5-1.7v-5.2h-1.5v-1.1h1.5v-2H1264z"/>
		<path d="M1272.5,1726c-0.1-0.2-0.2-0.5-0.2-0.9c-0.7,0.7-1.5,1-2.4,1c-0.8,0-1.5-0.2-2.1-0.7s-0.8-1.1-0.8-1.8
			c0-0.9,0.3-1.6,1-2.1s1.6-0.7,2.8-0.7h1.4v-0.7c0-0.5-0.2-0.9-0.5-1.2s-0.7-0.4-1.3-0.4c-0.5,0-0.9,0.1-1.3,0.4s-0.5,0.6-0.5,0.9
			h-1.5c0-0.4,0.1-0.8,0.4-1.2s0.7-0.7,1.2-0.9s1.1-0.3,1.7-0.3c1,0,1.7,0.2,2.3,0.7s0.8,1.2,0.9,2v3.9c0,0.8,0.1,1.4,0.3,1.9v0.1
			H1272.5z M1270.1,1724.9c0.5,0,0.9-0.1,1.3-0.4s0.7-0.5,0.9-0.9v-1.7h-1.1c-1.8,0-2.7,0.5-2.7,1.6c0,0.5,0.2,0.8,0.5,1.1
			S1269.6,1724.9,1270.1,1724.9z"/>
		<path d="M1283.1,1721.8c0,1.3-0.3,2.3-0.9,3.1s-1.4,1.2-2.4,1.2c-1.1,0-1.9-0.4-2.5-1.1l-0.1,1h-1.3v-12h1.4v4.5
			c0.6-0.7,1.4-1.1,2.4-1.1s1.8,0.4,2.4,1.2s0.9,1.8,0.9,3.2V1721.8z M1281.6,1721.7c0-1-0.2-1.7-0.6-2.3s-0.9-0.8-1.6-0.8
			c-1,0-1.6,0.4-2.1,1.3v3.7c0.4,0.9,1.1,1.3,2.1,1.3c0.7,0,1.2-0.3,1.6-0.8S1281.6,1722.8,1281.6,1721.7z"/>
		<path d="M1286.5,1726h-1.4v-12h1.4V1726z"/>
		<path d="M1292.3,1726.1c-1.1,0-2.1-0.4-2.8-1.1s-1.1-1.8-1.1-3v-0.3c0-0.8,0.2-1.6,0.5-2.2s0.8-1.2,1.3-1.5s1.2-0.6,1.9-0.6
			c1.1,0,2,0.4,2.6,1.1s0.9,1.8,0.9,3.1v0.6h-5.7c0,0.8,0.3,1.5,0.7,2s1.1,0.8,1.8,0.8c0.5,0,0.9-0.1,1.3-0.3s0.7-0.5,0.9-0.8
			l0.9,0.7C1294.8,1725.6,1293.7,1726.1,1292.3,1726.1z M1292.1,1718.6c-0.6,0-1.1,0.2-1.5,0.6s-0.6,1-0.7,1.8h4.2v-0.1
			c0-0.7-0.2-1.3-0.6-1.7S1292.7,1718.6,1292.1,1718.6z"/>
	</g>
</g>
</svg>
