<svg xmlns="http://www.w3.org/2000/svg" width="407" height="596" viewBox="0 0 407 596"><defs><style>.a{fill:rgba(248,198,24,0.8);}.b{font-size:200px;font-family:Modak;}.c{fill:none;stroke:#1d1d1b;stroke-miterlimit:10;stroke-width:4px;}.d{font-size:24px;font-family:Roboto-Bold, Roboto;font-weight:700;}.e{font-size:20px;font-family:Roboto-Regular, Roboto;font-weight:400;}</style></defs><g transform="translate(-567 -1367)"><rect class="a" width="400" height="480" rx="80" transform="translate(574 1483)"/><text class="b" transform="translate(567 1566)"><tspan x="0" y="0">2</tspan></text><g transform="translate(3480.393 -2267.736)"><path class="c" d="M-2658.384,3801.7c-16.225,6.664-69.134,16.4-69.134,16.4l-49.978-17.668" transform="translate(15.295 52.83)"/><path class="c" d="M-2777.64,3809.754a201.779,201.779,0,0,0,4.271,40.789c38.692,25.387,41.9,25.387,41.9,25.387s57.724-10.152,70.42-25.387c3.627-22.043,4.984-32.594,5.037-43.82" transform="translate(14.791 74.735)"/><line class="c" y1="77.629" x2="3.207" transform="translate(-2716.68 3873.037)"/><path class="c" d="M-2726.547,3797.767l-9.944.8-45.23,13.707,18.929-2.6,36.915-11.109" transform="translate(0.592 43.583)"/><path class="c" d="M-2760.447,3800.706l-21.445,21.48,50.647,18.2,17.771-21.156" transform="translate(0 53.812)"/><ellipse class="c" cx="31.735" cy="33.904" rx="31.735" ry="33.904" transform="translate(-2733.715 3785.236)"/><path class="c" d="M-2766.335,3826l12.768,28.994,68.563-21.732-12.2-23.658-36.411-11.457" transform="translate(54.112 44.92)"/></g><text class="d" transform="translate(636 1694)"><tspan x="-110.32" y="23">Choisissez vos plats</tspan><tspan class="e"><tspan x="0" y="48"></tspan><tspan x="-117.544" y="72">Magasinez parmi tous nos </tspan><tspan x="-132.065" y="96">plats. Végétalien, pescetarien, </tspan><tspan x="-114.355" y="120">keto, sans gluten, ou sans </tspan><tspan x="-50.122" y="144">préférence.</tspan><tspan x="-130.596" y="168">Trouvez une solution adaptée </tspan><tspan x="-46.46" y="192">pour vous.</tspan></tspan></text></g></svg>