<svg xmlns="http://www.w3.org/2000/svg" width="184" height="184" viewBox="0 0 184 184"><defs><style>.a{fill:#f8c618;}.b{fill:none;stroke:#1d1d1b;stroke-miterlimit:10;stroke-width:3px;}</style></defs><g transform="translate(-280 -2252)"><circle class="a" cx="92" cy="92" r="92" transform="translate(280 2252)"/><path class="b" d="M-372.664,147.27v-9.98h-8.9c0-5.107,2.476-10.058,5.107-11.606,1.547-1.315,5.028-1.934,8.046-.387,3.946,2.244,4.178,8.743,2.168,11.682,18.8-3.481,16.942-21.664,10.522-28.24-5.183-5.338-10.832-6.112-15.165-4.488-9.9,3.56-16.557,15.4-16.866,33.038h-5.183c0-16.015,2.784-21.122,10.057-41.316,3.715-9.517,1.471-21.276-5.028-32.108a85.366,85.366,0,0,0-8.665-11.142,85.222,85.222,0,0,0-8.666,11.142c-6.5,10.832-8.743,22.591-5.028,32.108,7.272,20.194,10.058,25.3,10.058,41.316h-5.185c-.308-17.641-6.962-29.478-16.866-33.038-4.333-1.624-9.98-.85-15.165,4.488-6.42,6.576-8.278,24.758,10.524,28.24-2.012-2.939-1.781-9.438,2.166-11.682,3.018-1.547,6.5-.929,8.046.387,2.631,1.547,5.107,6.5,5.107,11.606h-8.9v9.98h18.491c-.232,5.183-3.018,9.206-8.2,11.451.619,2.166,3.791,6.576,8.125,6.267.85,4.642,1.624,7.272,5.494,11.527,3.868-4.255,4.642-6.886,5.492-11.527,4.333.308,7.506-4.1,8.124-6.267-5.183-2.244-7.969-6.267-8.2-11.451Z" transform="translate(768.409 2229.775)"/></g></svg>