<svg xmlns="http://www.w3.org/2000/svg" width="184" height="184" viewBox="0 0 184 184"><defs><style>.a{fill:#f8c618;}.b{fill:none;stroke:#1d1d1b;stroke-miterlimit:10;stroke-width:3px;}</style></defs><g transform="translate(-280 -2252)"><circle class="a" cx="92" cy="92" r="92" transform="translate(280 2252)"/><g transform="translate(-638.422 2016.901)"><circle class="b" cx="6.644" cy="6.644" r="6.644" transform="translate(1028.003 310.978)"/><circle class="b" cx="13.399" cy="13.399" r="13.399" transform="translate(993.672 261.128)"/><path class="b" d="M972.875,328.874v17.89h4.932l12.718-13.754" transform="translate(10.244 30.306)"/><path class="b" d="M1018.966,328.874v17.89h-4.932l-12.718-13.754" transform="translate(22.967 30.306)"/><path class="b" d="M966.227,309.169c0,5.326-4.523,9.393-9.673,7.675a7.706,7.706,0,0,1-4.565-3.922c-1.782-4.342,2.647-9.2,6.975-7.386a8.13,8.13,0,0,1,2.624,1.873c2.738,3.16,2.459,10.7-.7,13.439a7.735,7.735,0,0,1-10.912-.782" transform="translate(0 19.691)"/><path class="b" d="M1000.9,291.671a15.307,15.307,0,0,1,15.307-15.307v17.39" transform="translate(22.781 6.816)"/><path class="b" d="M1049.707,304.534a32.862,32.862,0,0,0-27.929-18.182l-28.524-.017a32.858,32.858,0,0,0,.815,65.705l27.71-.038a32.792,32.792,0,0,0,23.275-11.221h0l14.471-15.2V304.534Z" transform="translate(5.023 11.276)"/><line class="b" x2="22.555" transform="translate(995.794 310.978)"/><path class="b" d="M1025.689,324.749c-14.252,3.455-17.9-7.513-17.9-7.513" transform="translate(25.864 25.1)"/></g></g></svg>