<svg xmlns="http://www.w3.org/2000/svg" width="405" height="596" viewBox="0 0 405 596"><defs><style>.a{fill:rgba(248,198,24,0.8);}.b{font-size:200px;font-family:Modak;}.c{fill:none;stroke:#1d1d1b;stroke-miterlimit:10;stroke-width:4px;}.d{font-size:24px;font-family:Roboto-Bold, Roboto;font-weight:700;}.e{font-size:20px;font-family:Roboto-Regular, Roboto;font-weight:400;}</style></defs><g transform="translate(-1000 -1368)"><rect class="a" width="400" height="480" rx="80" transform="translate(1005 1484)"/><text class="b" transform="translate(1000 1567)"><tspan x="0" y="0">3</tspan></text><g transform="translate(3763.834 -2267.415)"><path class="c" d="M-2474.38,3796.01c13.209,2.543,23.478,6.027,23.478,9.426,0,8.46-48.335,15.313-107.967,15.313s-107.965-6.853-107.965-15.313c0-3.326,8.6-6.917,21.284-9.426" transform="translate(0 88.772)"/><path class="c" d="M-2651.368,3795.242c7.085-.21,12.85-.271,20.366-.271,7.425,0,14.675.107,21.68.3" transform="translate(72.133 83.926)"/><path class="c" d="M-2539.454,3800.2c0,6.253-26.6,11.316-59.406,11.316s-59.4-5.062-59.4-11.316" transform="translate(39.99 108.313)"/><path class="c" d="M-2653.17,3822.055c-5.257-7.126-14.046-8.236-8.026-18.266s14.85-9.231,20.871-7.225,8.427-1.6,15.251-3.615,22.071,2.414,22.071,6.02,15.253,15.253,20.072,14.053,16.052,3.221,14.048,9.033-11.238,8.625-20.068,7.821-25.287-4.017-30.1-4.017S-2649.959,3826.41-2653.17,3822.055Z" transform="translate(16.841 72.151)"/><path class="c" d="M-2645.362,3816.514c3.008.4,17.858,7.43,21.471,7.029s54.786-7.228,54.786-8.632-14.046-16.453-21.069-19.466-39.54-2.8-44.551,2.006S-2645.362,3816.514-2645.362,3816.514Z" transform="translate(100.142 76.882)"/><path class="c" d="M-2651.6,3835.873c-4.819-8.262,2.408-15.348,4.549-30.7s-1.874-24.791-1.874-27.154" transform="translate(63.492 4.897)"/><path class="c" d="M-2646.209,3779.975c-2.408,8.972,9.6,24.081,7.208,39.191s-10.154,19.364-10.951,26.444" transform="translate(78.731 13.991)"/><path class="c" d="M-2634.511,3858.434c3.743-11.1-9.368-19.126-8.83-37.068s7.493-15.349,3.477-44.392" transform="translate(109.493 0.001)"/></g><text class="d" transform="translate(1067 1694)"><tspan x="-106.307" y="23">Recevez votre boîte</tspan><tspan class="e"><tspan x="0" y="48"></tspan><tspan x="-84.136" y="72">À votre micro-onde </tspan><tspan x="-79.165" y="96">ou vos fourneaux! </tspan><tspan x="-127.827" y="120">Préparez ou réchauffez votre </tspan><tspan x="-102.358" y="144">repas et passez à table</tspan></tspan></text></g></svg>