<svg xmlns="http://www.w3.org/2000/svg" width="414" height="595" viewBox="0 0 414 595"><defs><style>.a{fill:rgba(248,198,24,0.8);}.b{font-size:200px;font-family:Modak;}.c{font-size:24px;font-family:Roboto-Black, Roboto;font-weight:800;}.d,.e{font-family:Roboto-Regular, Roboto;font-weight:400;}.e{font-size:20px;}.f,.h{fill:none;}.f{stroke:#1d1d1b;stroke-miterlimit:10;stroke-width:4px;}.g{fill:#1d1d1b;}.h{stroke:#000;stroke-width:2px;}</style></defs><g transform="translate(-126 -1367)"><path class="a" d="M97.98,0H319.192C363.821,0,400,35.817,400,80V400c0,44.183-36.179,80-80.808,80H80.808C36.179,480,0,444.183,0,400V80C0,35.817,53.351,0,97.98,0Z" transform="translate(140 1482)"/><text class="b" transform="translate(131 1566)"><tspan x="0" y="0">1</tspan></text><text class="c" transform="translate(334 1718)"><tspan x="-84.896" y="0">Adopte un style</tspan><tspan class="d" y="0"></tspan><tspan class="e"><tspan x="0" y="25"></tspan><tspan x="-79.009" y="49">Le prêt-à-cuisiner </tspan><tspan x="-115.244" y="73">qui respecte votre budget </tspan><tspan x="-49.521" y="97">C&apos;est Miam</tspan><tspan x="0" y="121"></tspan><tspan x="-78.066" y="145">Le prêt-à-manger </tspan><tspan x="-112.578" y="169">qui vous sauve du temps </tspan><tspan x="-57.749" y="193">C&apos;est Yummy</tspan></tspan></text><g transform="translate(400.454 1524.5)"><path class="f" d="M-2744.959,3744.189c.859,13.57,1.779,19.994,1.779,25.2,0,19.8-13.266,35.858-29.624,35.858s-29.624-16.055-29.624-35.858a132.431,132.431,0,0,1,1.494-21.335Z" transform="translate(2805.727 -3662.395)"/><path class="f" d="M-2742.254,3806.446v-67.728s-.79-6.365-4.291-8.115c-3.251-1.625-5.892,1.4-5.892,1.4s-.649-4.7-4.094-3.777a11.076,11.076,0,0,0-5.233,3.416s-.9-6.225-4.43-6.651c-3.692-.441-6.365,3.235-6.365,3.235a4.714,4.714,0,0,0-5.013-4.414c-5.25,0-5.8,5.674-5.8,5.674s-2.861-3.612-6.02-3.018a6,6,0,0,0-5.233,5.957s-2.392-4.276-6.406-1.682c-2.987,1.935-2.1,6.719-2.1,6.719l4.669,72.01" transform="translate(2803.254 -3723.81)"/><line class="f" x1="2.218" y1="57.839" transform="translate(19.55 5.201)"/><line class="f" x1="2.423" y1="63.191" transform="translate(8.647 7.954)"/><line class="f" x1="2.048" y1="53.418" transform="translate(30.5 3.492)"/><line class="f" x1="1.706" y1="44.495" transform="translate(41.377 7.412)"/><line class="f" x1="1.534" y1="40.013" transform="translate(50.9 7.954)"/><path class="f" d="M-2798.974,3750.717c6.574-1.226,10.018,0,10.018,0" transform="translate(2816.155 -3644.363)"/><path class="f" d="M-2793.659,3750.6c6.575-1.225,10,.273,10,.273" transform="translate(2832.172 -3644.52)"/><path class="f" d="M-2797.091,3755.552c6.133,7.244,14.438,5.768,19.045-.767" transform="translate(2821.829 -3630.463)"/><circle class="g" cx="2.735" cy="2.735" r="2.735" transform="translate(21.101 107.111)"/><circle class="g" cx="2.601" cy="2.601" r="2.601" transform="translate(39.183 107.379)"/></g><g transform="translate(200.206 1548.418)"><path class="f" d="M-2831.869,3783.853c5.712,11.7,18.269,18.9,28.958,18.9,10.184,0,15.082-4.083,19.83-15.952a7.25,7.25,0,0,1-6.534-7.2,7.276,7.276,0,0,1,7.274-7.278,7.206,7.206,0,0,1,2.615.5,56.627,56.627,0,0,0,.325-5.787c0-16.682-5.364-29.13-15.478-34.984" transform="translate(2895.233 -3707.132)"/><path class="f" d="M-2813.883,3738.11c-3.687-1.447-7.132-.913-9.87,2.129" transform="translate(2918.391 -3693.311)"/><circle class="g" cx="2.993" cy="2.993" r="2.993" transform="translate(98.573 45.479)"/><path class="f" d="M-2833.649,3834.712c.486.385,10.576,9.673,15.975,9.6,5.866-.079,8.776-6.231,13.715-7.939,3.038-1.049-10.151-16.17-5.911-23.992s-2.839-19.592.1-21.777c9.03-6.721,13.468,12.541,24.552,11.891-3.119-37.225,28.708-52.494,28.708-52.494,5.234-2.08,14.35,3.426,15.549,1.973,8.48-8.048,7.52-12.063-1.5-20.088-26.2-19.651-55.808,9.272-66.493,32.772-4.834,10.628-13.219,10.722-22.76,14.35-4.531,1.726-9.041,14.634-9.531,19.209-.915,8.525-7.479,30.987-7.547,31.771C-2849.541,3838.848-2840.447,3829.33-2833.649,3834.712Z" transform="translate(2848.831 -3725.38)"/><path class="f" d="M-2835.557,3758.08c-2.291.188-4.162-3.627-4.162-10.55s0-8.687,2.5-10.188" transform="translate(2873.76 -3692.656)"/><path class="f" d="M-2824.119,3731.972" transform="translate(2916.441 -3707.349)"/><path class="f" d="M-2819.766,3754.712a5.942,5.942,0,0,1-5.944-5.941,5.942,5.942,0,0,1,5.944-5.943" transform="translate(2912.088 -3677.643)"/><path class="f" d="M-2790.364,3765.883s-8.955-12.654-19.307-21.661c-4.237,5.032-7.095,8.671-7.095,8.671,3.53,3.531,14.817,20.4,14.817,20.4" transform="translate(2936.558 -3673.833)"/><path class="f" d="M-2813.953,3762.493l6.512-.99,1.033-4.306,5.295-.794,6.619-8,2.913,9.6,6.09,10.447-12.576,9.8-8.737-10.591Z" transform="translate(2944.256 -3662.385)"/></g><line class="h" x2="127" transform="translate(270.5 1832.5)"/></g></svg>