<svg xmlns="http://www.w3.org/2000/svg" width="450.441" height="139.097" viewBox="0 0 450.441 139.097"><defs><style>.a{fill:#f8d146;}.b{fill:#fff;}.c,.d{font-size:16px;}.c{font-family:Roboto-Regular, Roboto;}.d{font-family:Modak;}.e{font-size:20px;font-family:Roboto-Black, Roboto;font-weight:800;}.f{fill:none;stroke:#000;}</style></defs><g transform="translate(-1554.894 -706.756)"><path class="a" d="M10498.741,1978.625c23.308-21.844,75.354-33.491,155.441-9.829s114.517-30.5,172.786-23.023,139.26,120.824,97.306,130.6-43.507,15.318-121.2-14.575-154.809,46.559-212.024,13.953c-34.547-20.349-61.309,5.021-82.852-21.474-.168-.2-.516-.648-.863-1.108C10485.583,2024.423,10475.434,2000.469,10498.741,1978.625Z" transform="translate(-8930.539 -1238.302)"/><rect class="b" width="119" height="49" rx="24.5" transform="translate(1749 750.266)"/><text class="c" transform="translate(1590.182 757.266)"><tspan x="0" y="0">Tu veux ajouter </tspan><tspan x="0" y="19">des plats préparés</tspan><tspan x="0" y="38">et des snacks?</tspan></text><text class="d" transform="matrix(0.985, -0.174, 0.174, 0.985, 1665.973, 821.609)"><tspan x="0" y="0">c&apos;est ici</tspan></text><text class="e" transform="translate(1773 783.266)"><tspan x="0" y="0">YUMMY</tspan></text><g transform="translate(-24.539 -60.028)"><path class="f" d="M10681.523,2104.52c15.24,8.047,31.841.277,35.994-6.091" transform="translate(-8939 -1224)"/><path class="f" d="M10709.859,2099.031c3.069-.823,6.766-1.047,7.891-.734a9.571,9.571,0,0,1-2.676,8.089" transform="translate(-8939 -1224)"/></g></g></svg>